<?xml version="1.0" encoding="UTF-8"?>
<!DOCTYPE svg PUBLIC "-//W3C//DTD SVG 1.1//EN" "http://www.w3.org/Graphics/SVG/1.1/DTD/svg11.dtd">
<!-- Creator: CorelDRAW X5 -->
<svg xmlns="http://www.w3.org/2000/svg" xml:space="preserve" width="30px" height="30px" style="shape-rendering:geometricPrecision; text-rendering:geometricPrecision; image-rendering:optimizeQuality; fill-rule:evenodd; clip-rule:evenodd"
viewBox="0 0 30 30"
 xmlns:xlink="http://www.w3.org/1999/xlink">
 <defs>
  <style type="text/css">
   <![CDATA[
    .fil0 {fill:#BC955C}
   ]]>
  </style>
 </defs>
 <g id="Capa_x0020_1">
  <metadata id="CorelCorpID_0Corel-Layer"/>
  <path id="calendar-days-regular.svg" class="fil0" d="M10.7835 3.75l8.43661 0 0 -2.34331c0,-0.775984 0.627165,-1.40669 1.40669,-1.40669 0.779528,0 1.40669,0.630709 1.40669,1.40669l0 2.34331 2.34331 0c2.06811,0 3.75,1.67835 3.75,3.75l0 18.75c0,2.06811 -1.68189,3.75 -3.75,3.75l-18.75 0c-2.07165,0 -3.75,-1.68189 -3.75,-3.75l0 -18.75c0,-2.07165 1.67835,-3.75 3.75,-3.75l2.34331 0 0 -2.34331c0,-0.775984 0.627165,-1.40669 1.40669,-1.40669 0.779528,0 1.40669,0.630709 1.40669,1.40669l0 2.34331zm-6.09449 10.7811l4.6878 0 0 -3.2811 -4.6878 0 0 3.2811zm0 2.8122l0 3.75 4.6878 0 0 -3.75 -4.6878 0zm7.5 0l0 3.75 5.62559 0 0 -3.75 -5.62559 0zm8.4378 0l0 3.75 4.6878 0 0 -3.75 -4.6878 0zm4.6878 -6.09331l-4.6878 0 0 3.2811 4.6878 0 0 -3.2811zm0 12.6567l-4.6878 0 0 3.2811 3.75 0c0.516142,0 0.937795,-0.422835 0.937795,-0.937795l0 -2.34331zm-7.5 0l-5.62559 0 0 3.2811 5.62559 0 0 -3.2811zm-8.4378 0l-4.6878 0 0 2.34331c0,0.514961 0.420472,0.937795 0.937795,0.937795l3.75 0 0 -3.2811zm8.4378 -12.6567l-5.62559 0 0 3.2811 5.62559 0 0 -3.2811z"/>
 </g>
</svg>
