<?xml version="1.0" encoding="UTF-8"?>
<!DOCTYPE svg PUBLIC "-//W3C//DTD SVG 1.1//EN" "http://www.w3.org/Graphics/SVG/1.1/DTD/svg11.dtd">
<!-- Creator: CorelDRAW X5 -->
<svg xmlns="http://www.w3.org/2000/svg" xml:space="preserve" width="30px" height="30px" style="shape-rendering:geometricPrecision; text-rendering:geometricPrecision; image-rendering:optimizeQuality; fill-rule:evenodd; clip-rule:evenodd"
viewBox="0 0 30 30"
 xmlns:xlink="http://www.w3.org/1999/xlink">
 <defs>
  <style type="text/css">
   <![CDATA[
    .fil0 {fill:#999999;fill-rule:nonzero}
   ]]>
  </style>
 </defs>
 <g id="Capa_x0020_1">
  <metadata id="CorelCorpID_0Corel-Layer"/>
  <path class="fil0" d="M8.13307 4.99961l13.7327 0c0.862205,0 1.64646,0.35315 2.21339,0.920079 0.566929,0.566929 0.920079,1.35118 0.920079,2.21339l0 13.7327c0,0.862205 -0.35315,1.64646 -0.920079,2.21339 -0.566929,0.566929 -1.35118,0.920079 -2.21339,0.920079l-13.7327 0c-0.862205,0 -1.64646,-0.35315 -2.21339,-0.920079 -0.566929,-0.566929 -0.918898,-1.35118 -0.918898,-2.21339l0 -13.7327c0,-0.862205 0.351969,-1.64646 0.918898,-2.21339 0.566929,-0.566929 1.35118,-0.920079 2.21339,-0.920079zm2.81693 15.0189l-0.969685 -0.969685c-0.243307,-0.243307 -0.243307,-0.641339 0,-0.885827l3.16417 -3.16417 -3.16417 -3.16299c-0.243307,-0.243307 -0.243307,-0.64252 0,-0.885827l0.969685 -0.969685c0.243307,-0.243307 0.641339,-0.243307 0.885827,0l3.16299 3.16417 3.16417 -3.16417c0.243307,-0.243307 0.64252,-0.243307 0.885827,0l0.969685 0.969685c0.243307,0.243307 0.243307,0.641339 0,0.885827l-3.16417 3.16299 3.16417 3.16417c0.243307,0.244488 0.243307,0.64252 0,0.885827l-0.969685 0.969685c-0.243307,0.243307 -0.641339,0.243307 -0.885827,0l-3.16417 -3.16417 -3.16299 3.16417c-0.244488,0.243307 -0.64252,0.243307 -0.885827,0zm10.9157 -13.572l-13.7327 0c-0.462992,0 -0.884646,0.190157 -1.19055,0.496063 -0.305906,0.305906 -0.496063,0.727559 -0.496063,1.19055l0 13.7327c0,0.462992 0.190157,0.884646 0.496063,1.19055 0.305906,0.305906 0.727559,0.496063 1.19055,0.496063l13.7327 0c0.462992,0 0.884646,-0.190157 1.19173,-0.496063 0.305906,-0.305906 0.496063,-0.727559 0.496063,-1.19055l0 -13.7327c0,-0.462992 -0.190157,-0.884646 -0.496063,-1.19055 -0.307087,-0.305906 -0.72874,-0.496063 -1.19173,-0.496063z"/>
 </g>
</svg>
