<?xml version="1.0" encoding="UTF-8"?>
<!DOCTYPE svg PUBLIC "-//W3C//DTD SVG 1.1//EN" "http://www.w3.org/Graphics/SVG/1.1/DTD/svg11.dtd">
<!-- Creator: CorelDRAW X5 -->
<svg xmlns="http://www.w3.org/2000/svg" xml:space="preserve" width="30px" height="30px" style="shape-rendering:geometricPrecision; text-rendering:geometricPrecision; image-rendering:optimizeQuality; fill-rule:evenodd; clip-rule:evenodd"
viewBox="0 0 30 30"
 xmlns:xlink="http://www.w3.org/1999/xlink">
 <defs>
  <style type="text/css">
   <![CDATA[
    .fil2 {fill:none}
    .fil0 {fill:#9F2241}
    .fil1 {fill:white;fill-rule:nonzero}
   ]]>
  </style>
   <clipPath id="id0">
    <path d="M18.7819 7.52008l6.90591 0.00354331 0.514961 -0.0425197 -7.40669 -7.31693 -0.0141732 0.494882 0 6.86102zm-1.89567 -7.48465c-1.63583,0 -9.81378,-0.10748 -10.728,0.0566929 -1.51772,0.272835 -2.32087,1.3937 -2.34921,3.05906 -0.115748,6.82205 0.00354331,14.5075 0.00354331,21.4559 0,1.74567 -0.222047,3.50551 0.848031,4.56024 1.07598,1.05945 2.82638,0.80315 4.56142,0.80315l10.728 0c4.75984,0 6.29173,0.485433 6.29173,-4.48937l0 -16.0902c-10.0594,0 -9.35551,0.851575 -9.35551,-4.73976 0,-1.53898 0,-3.07677 0,-4.61575z"/>
   </clipPath>
 </defs>
 <g id="Capa_x0020_1">
  <metadata id="CorelCorpID_0Corel-Layer"/>
  <path class="fil0" d="M18.7819 7.52008l6.90591 0.00354331 0.514961 -0.0425197 -7.40669 -7.31693 -0.0141732 0.494882 0 6.86102zm-1.89567 -7.48465c-1.63583,0 -9.81378,-0.10748 -10.728,0.0566929 -1.51772,0.272835 -2.32087,1.3937 -2.34921,3.05906 -0.115748,6.82205 0.00354331,14.5075 0.00354331,21.4559 0,1.74567 -0.222047,3.50551 0.848031,4.56024 1.07598,1.05945 2.82638,0.80315 4.56142,0.80315l10.728 0c4.75984,0 6.29173,0.485433 6.29173,-4.48937l0 -16.0902c-10.0594,0 -9.35551,0.851575 -9.35551,-4.73976 0,-1.53898 0,-3.07677 0,-4.61575z"/>
  <g style="clip-path:url(#id0)">
   <g id="_470102824">
    <path id="_4701038321" class="fil1" d="M13.8047 16.5496c0,-0.660236 0.535039,-1.19528 1.19528,-1.19528 0.660236,0 1.19528,0.535039 1.19528,1.19528l0 7.68071c0,0.660236 -0.535039,1.19646 -1.19528,1.19646 -0.660236,0 -1.19528,-0.53622 -1.19528,-1.19646l0 -7.68071zm1.19528 -5.59843c0.96378,0 1.74567,0.78189 1.74567,1.74567 0,0.96378 -0.78189,1.74567 -1.74567,1.74567 -0.96378,0 -1.74567,-0.78189 -1.74567,-1.74567 0,-0.96378 0.78189,-1.74567 1.74567,-1.74567z"/>
   </g>
  </g>
  <path class="fil2" d="M18.7819 7.52008l6.90591 0.00354331 0.514961 -0.0425197 -7.40669 -7.31693 -0.0141732 0.494882 0 6.86102zm-1.89567 -7.48465c-1.63583,0 -9.81378,-0.10748 -10.728,0.0566929 -1.51772,0.272835 -2.32087,1.3937 -2.34921,3.05906 -0.115748,6.82205 0.00354331,14.5075 0.00354331,21.4559 0,1.74567 -0.222047,3.50551 0.848031,4.56024 1.07598,1.05945 2.82638,0.80315 4.56142,0.80315l10.728 0c4.75984,0 6.29173,0.485433 6.29173,-4.48937l0 -16.0902c-10.0594,0 -9.35551,0.851575 -9.35551,-4.73976 0,-1.53898 0,-3.07677 0,-4.61575z"/>
 </g>
</svg>
