<?xml version="1.0" encoding="UTF-8"?>
<!DOCTYPE svg PUBLIC "-//W3C//DTD SVG 1.1//EN" "http://www.w3.org/Graphics/SVG/1.1/DTD/svg11.dtd">
<!-- Creator: CorelDRAW X5 -->
<svg xmlns="http://www.w3.org/2000/svg" xml:space="preserve" width="31px" height="32px" style="shape-rendering:geometricPrecision; text-rendering:geometricPrecision; image-rendering:optimizeQuality; fill-rule:evenodd; clip-rule:evenodd"
viewBox="0 0 31 31.9992"
 xmlns:xlink="http://www.w3.org/1999/xlink">
 <defs>
  <style type="text/css">
   <![CDATA[
    .fil0 {fill:#DDC9A3;fill-rule:nonzero}
   ]]>
  </style>
 </defs>
 <g id="Capa_x0020_1">
  <metadata id="CorelCorpID_0Corel-Layer"/>
  <path class="fil0" d="M2.25596 9.99947c-1.10436,0 -1.99966,-0.896479 -1.99966,-2.00084 0,-1.10436 0.895298,-1.99966 1.99966,-1.99966l26.4893 0c1.10436,0 1.99966,0.895298 1.99966,1.99966 0,1.10436 -0.895298,2.00084 -1.99966,2.00084l-26.4893 0zm3.91191 7.99981c-1.10554,0 -2.00084,-0.895298 -2.00084,-1.99966 0,-1.10554 0.895298,-2.00084 2.00084,-2.00084l18.6654 0c1.10554,0 2.00084,0.895298 2.00084,2.00084 0,1.10436 -0.895298,1.99966 -2.00084,1.99966l-18.6654 0zm5.33281 7.99981c-1.10436,0 -1.99966,-0.895298 -1.99966,-1.99966 0,-1.10436 0.895298,-1.99966 1.99966,-1.99966l7.99981 0c1.10436,0 1.99966,0.895298 1.99966,1.99966 0,1.10436 -0.895298,1.99966 -1.99966,1.99966l-7.99981 0z"/>
 </g>
</svg>
