<?xml version="1.0" encoding="UTF-8"?>
<!DOCTYPE svg PUBLIC "-//W3C//DTD SVG 1.1//EN" "http://www.w3.org/Graphics/SVG/1.1/DTD/svg11.dtd">
<!-- Creator: CorelDRAW X5 -->
<svg xmlns="http://www.w3.org/2000/svg" xml:space="preserve" width="30px" height="30px" style="shape-rendering:geometricPrecision; text-rendering:geometricPrecision; image-rendering:optimizeQuality; fill-rule:evenodd; clip-rule:evenodd"
viewBox="0 0 30 30"
 xmlns:xlink="http://www.w3.org/1999/xlink">
 <defs>
  <style type="text/css">
   <![CDATA[
    .fil0 {fill:#999999}
   ]]>
  </style>
 </defs>
 <g id="Capa_x0020_1">
  <metadata id="CorelCorpID_0Corel-Layer"/>
  <path class="fil0" d="M8.75079 19.989l14.9941 0c1.15866,0 1.43504,-0.907087 0.823228,-1.65827 -0.563386,-0.693307 -4.17165,-4.92165 -4.31693,-5.27717 0.186614,-0.12874 0.570472,-0.618898 0.734646,-0.820866l2.17559 -2.56654c0.23622,-0.270472 0.48189,-0.616535 0.709843,-0.872835 0.275197,-0.31063 0.478346,-0.525591 0.735827,-0.843307 0.648425,-0.801969 0.261024,-1.69606 -0.862205,-1.69606l-14.9941 0 0 13.735zm-2.87244 -14.9894l0.799606 0c0.43937,0 0.798425,0.359055 0.798425,0.799606l0 18.4004c0,0.43937 -0.359055,0.799606 -0.798425,0.799606l-0.799606 0c-0.43937,0 -0.799606,-0.360236 -0.799606,-0.799606l0 -18.4004c0,-0.440551 0.360236,-0.799606 0.799606,-0.799606z"/>
 </g>
</svg>
