<?xml version="1.0" encoding="UTF-8"?>
<!DOCTYPE svg PUBLIC "-//W3C//DTD SVG 1.1//EN" "http://www.w3.org/Graphics/SVG/1.1/DTD/svg11.dtd">
<!-- Creator: CorelDRAW X5 -->
<svg xmlns="http://www.w3.org/2000/svg" xml:space="preserve" width="30px" height="30px" style="shape-rendering:geometricPrecision; text-rendering:geometricPrecision; image-rendering:optimizeQuality; fill-rule:evenodd; clip-rule:evenodd"
viewBox="0 0 30 30"
 xmlns:xlink="http://www.w3.org/1999/xlink">
 <defs>
  <style type="text/css">
   <![CDATA[
    .fil0 {fill:#DDC9A3}
   ]]>
  </style>
 </defs>
 <g id="Capa_x0020_1">
  <metadata id="CorelCorpID_0Corel-Layer"/>
  <path class="fil0" d="M14.3409 19.8567c2.35866,-0.915354 3.52087,2.4189 1.48819,3.41102 -2.31614,1.13031 -3.9685,-2.44724 -1.48819,-3.41102zm-1.22244 -12.248c1.80354,-0.393307 5.09528,-0.238583 6.36142,0.71811 1.40079,1.05945 2.21457,3.3 1.06535,5.28898 -0.987402,1.71142 -3.75354,2.52165 -4.10433,3.2811 -0.290551,0.627165 -0.133465,0.848031 -0.689764,1.17283 -1.45039,0.84685 -2.73071,-0.890551 -2.0563,-2.68583 0.604724,-1.61457 5.52165,-2.13189 4.39488,-4.4126 -0.226772,-0.46063 -0.584646,-0.6 -1.27559,-0.63189 -0.731102,-0.0330709 -2.99528,-0.0944882 -3.51024,0.157087 -0.957874,0.466535 -0.316535,1.82835 -1.39488,2.35276 -2.62677,1.27795 -3.25866,-4.26496 1.20945,-5.24055zm-13.0961 7.39134c0,8.24055 6.70039,14.9988 14.9102,14.9988 8.37165,0 15.0449,-6.74173 15.0449,-14.9988 0,-8.25591 -6.72047,-14.9917 -14.9197,-14.9988 -8.31142,-0.00708661 -15.0354,6.69094 -15.0354,14.9988z"/>
 </g>
</svg>
