<?xml version="1.0" encoding="UTF-8"?>
<!DOCTYPE svg PUBLIC "-//W3C//DTD SVG 1.1//EN" "http://www.w3.org/Graphics/SVG/1.1/DTD/svg11.dtd">
<!-- Creator: CorelDRAW X5 -->
<svg xmlns="http://www.w3.org/2000/svg" xml:space="preserve" width="30px" height="30px" style="shape-rendering:geometricPrecision; text-rendering:geometricPrecision; image-rendering:optimizeQuality; fill-rule:evenodd; clip-rule:evenodd"
viewBox="0 0 30 30"
 xmlns:xlink="http://www.w3.org/1999/xlink">
 <defs>
  <style type="text/css">
   <![CDATA[
    .fil0 {fill:#E6E6E6}
   ]]>
  </style>
 </defs>
 <g id="Capa_x0020_1">
  <metadata id="CorelCorpID_0Corel-Layer"/>
  <path id="triangle-exclamation-solid.svg" class="fil0" d="M26.1709 22.187l-9.52205 -16.2484c-0.72874,-1.24961 -2.5689,-1.24961 -3.30236,0l-9.51732 16.2484c-0.733465,1.24488 0.179528,2.8122 1.64764,2.8122l19.0441 0c1.4622,0 2.37756,-1.5626 1.65,-2.8122zm-12.2457 -11.1154c0,-0.591732 0.480709,-1.07126 1.07126,-1.07126 0.591732,0 1.07126,0.48189 1.07126,1.07126l0 5.71417c0,0.591732 -0.479528,1.07126 -1.0311,1.07126 -0.550394,0 -1.11142,-0.478346 -1.11142,-1.07126l0 -5.71417zm1.07126 11.0705c-0.774803,0 -1.40315,-0.628346 -1.40315,-1.40315 0,-0.774803 0.628346,-1.40315 1.40315,-1.40315 0.775984,0 1.40433,0.628346 1.40433,1.40315 -0.0023622,0.773622 -0.627165,1.40315 -1.40433,1.40315z"/>
 </g>
</svg>
