<?xml version="1.0" encoding="UTF-8"?>
<!DOCTYPE svg PUBLIC "-//W3C//DTD SVG 1.1//EN" "http://www.w3.org/Graphics/SVG/1.1/DTD/svg11.dtd">
<!-- Creator: CorelDRAW X5 -->
<svg xmlns="http://www.w3.org/2000/svg" xml:space="preserve" width="30px" height="30px" style="shape-rendering:geometricPrecision; text-rendering:geometricPrecision; image-rendering:optimizeQuality; fill-rule:evenodd; clip-rule:evenodd"
viewBox="0 0 30 30"
 xmlns:xlink="http://www.w3.org/1999/xlink">
 <defs>
  <style type="text/css">
   <![CDATA[
    .fil0 {fill:#9F2241;fill-rule:nonzero}
   ]]>
  </style>
 </defs>
 <g id="Capa_x0020_1">
  <metadata id="CorelCorpID_0Corel-Layer"/>
  <path class="fil0" d="M7.46929 0.0011811l5.08819 0 0 2.1685 -5.08819 0c-0.694488,0 -1.32638,0.284646 -1.78583,0.744094 -0.458268,0.459449 -0.744094,1.09134 -0.744094,1.78583l0 20.6008c0,0.694488 0.285827,1.32638 0.744094,1.78583 0.459449,0.459449 1.09134,0.744094 1.78583,0.744094l5.08819 0 0 2.1685 -5.08819 0c-1.29331,0 -2.4685,-0.527953 -3.3189,-1.37953 -0.851575,-0.850394 -1.37953,-2.02559 -1.37953,-3.3189l0 -20.6008c0,-1.29331 0.527953,-2.4685 1.37953,-3.3189 0.850394,-0.851575 2.02559,-1.37953 3.3189,-1.37953zm13.9181 13.2921c-3.24921,0.155906 -7.42795,-0.0283465 -10.8756,0.0129921 -2.66575,0.0318898 -2.66929,3.35669 0,3.38976 3.44882,0.0413386 7.62402,-0.144094 10.8756,0.011811 -0.348425,0.49252 -3.00709,2.9315 -3.69803,3.63898 -1.85197,1.89449 0.579921,4.2815 2.46969,2.46142l5.54055 -5.52874c1.99016,-1.98425 2.06929,-2.49449 0.0555118,-4.50118l-5.59606 -5.58425c-1.8874,-1.8189 -4.27087,0.556299 -2.5252,2.40354 0.605906,0.64252 1.24843,1.21417 1.88976,1.8378 0.512598,0.498425 1.50591,1.35236 1.86378,1.85787z"/>
 </g>
</svg>
