<?xml version="1.0" encoding="UTF-8"?>
<!DOCTYPE svg PUBLIC "-//W3C//DTD SVG 1.1//EN" "http://www.w3.org/Graphics/SVG/1.1/DTD/svg11.dtd">
<!-- Creator: CorelDRAW X5 -->
<svg xmlns="http://www.w3.org/2000/svg" xml:space="preserve" width="35px" height="35px" style="shape-rendering:geometricPrecision; text-rendering:geometricPrecision; image-rendering:optimizeQuality; fill-rule:evenodd; clip-rule:evenodd"
viewBox="0 0 35 35"
 xmlns:xlink="http://www.w3.org/1999/xlink">
 <defs>
  <style type="text/css">
   <![CDATA[
    .fil0 {fill:#999999}
   ]]>
  </style>
 </defs>
 <g id="Capa_x0020_1">
  <metadata id="CorelCorpID_0Corel-Layer"/>
  <path class="fil0" d="M15.6243 5.45576c-1.71268,0.68507 -2.08946,0.442933 -3.92498,1.83906 -4.92188,3.74308 -2.75918,8.7063 -4.41988,12.7506 -0.690976,1.68197 -1.28392,2.33987 -2.24774,3.51039 -1.53196,1.85796 -0.166543,3.24463 1.11737,3.35566 1.3536,0.115753 22.2979,0.0767751 22.9014,-0.0283477 0.687433,-0.120478 1.35833,-0.681527 1.52842,-1.36305 0.259854,-1.03942 -0.266941,-1.54968 -0.728773,-2.11663 -4.79903,-5.88924 -1.66897,-8.52204 -4.01947,-13.0222 -1.73157,-3.31432 -3.79978,-3.89073 -6.46919,-4.93605 0,-1.68078 -0.150007,-2.98242 -1.93119,-2.94226 -1.6796,0.0366158 -1.80599,1.33707 -1.80599,2.95289zm-1.87804 23.3479c0.196072,4.91479 7.29482,4.9455 7.4401,0l-7.4401 0z"/>
 </g>
</svg>
