<?xml version="1.0" encoding="UTF-8"?><svg id="Capa_1" xmlns="http://www.w3.org/2000/svg" viewBox="0 0 26.29 30"><defs><style>.cls-1{fill:#235b4e;fill-rule:evenodd;}</style></defs><g id="Capa_1-2"><path class="cls-1" d="M11.27,2.95c-1.71,.69-2.09,.44-3.92,1.84-4.92,3.74-2.76,8.71-4.42,12.75-.69,1.68-1.28,2.34-2.25,3.51-1.53,1.86-.17,3.24,1.12,3.36,1.35,.12,22.3,.08,22.9-.03,.69-.12,1.36-.68,1.53-1.36,.26-1.04-.27-1.55-.73-2.12-4.8-5.89-1.67-8.52-4.02-13.02-1.73-3.31-3.8-3.89-6.47-4.94C15.01,1.26,14.86-.04,13.08,0c-1.68,.04-1.81,1.34-1.81,2.95h0Zm-1.88,23.35c.2,4.91,7.29,4.95,7.44,0h-7.44Z"/></g></svg>