<?xml version="1.0" encoding="UTF-8"?>
<!DOCTYPE svg PUBLIC "-//W3C//DTD SVG 1.1//EN" "http://www.w3.org/Graphics/SVG/1.1/DTD/svg11.dtd">
<!-- Creator: CorelDRAW Home & Student X8 -->
<svg xmlns="http://www.w3.org/2000/svg" xml:space="preserve" width="75px" height="75px" version="1.1" style="shape-rendering:geometricPrecision; text-rendering:geometricPrecision; image-rendering:optimizeQuality; fill-rule:evenodd; clip-rule:evenodd"
viewBox="0 0 75 75"
 xmlns:xlink="http://www.w3.org/1999/xlink">
 <defs>
  <style type="text/css">
   <![CDATA[
    .str1 {stroke:#235B4E;stroke-width:7.99986}
    .str0 {stroke:#F7F7F7;stroke-width:7.99986}
    .fil0 {fill:none}
    .fil1 {fill:#235B4E}
   ]]>
  </style>
 </defs>
 <g id="Capa_x0020_1">
  <metadata id="CorelCorpID_0Corel-Layer"/>
  <g id="_854778208">
   <circle class="fil0 str0" cx="37" cy="38" r="31"/>
   <path class="fil0 str1" d="M37 7c-16,0 -30,14 -30,30 0,17 14,31 30,31 17,0 31,-14 31,-31 0,-1 0,-3 0,-5"/>
   <path class="fil1" d="M39 47c2,-1 3,-1 4,-2 1,-1 2,-3 1,-5 -1,-4 -8,-4 -10,-5 0,-1 -1,-2 0,-3 1,-2 7,0 8,0 1,0 1,-1 1,-2 0,-2 -2,-1 -4,-2 0,-1 0,-3 -2,-3 0,0 -1,0 -1,1 0,1 0,1 0,2 -2,1 -4,1 -5,2 -1,2 -1,4 0,6 2,3 6,2 9,4 2,1 2,3 0,4 -4,1 -8,-2 -9,-1 -1,0 -1,1 0,2 1,1 4,2 5,2 0,1 0,3 1,3 2,0 2,-1 2,-3z"/>
  </g>
 </g>
</svg>
