<?xml version="1.0" encoding="UTF-8"?>
<!DOCTYPE svg PUBLIC "-//W3C//DTD SVG 1.1//EN" "http://www.w3.org/Graphics/SVG/1.1/DTD/svg11.dtd">
<!-- Creator: CorelDRAW X5 -->
<svg xmlns="http://www.w3.org/2000/svg" xml:space="preserve" width="30px" height="30px" style="shape-rendering:geometricPrecision; text-rendering:geometricPrecision; image-rendering:optimizeQuality; fill-rule:evenodd; clip-rule:evenodd"
viewBox="0 0 30 30"
 xmlns:xlink="http://www.w3.org/1999/xlink">
 <defs>
  <style type="text/css">
   <![CDATA[
    .fil0 {fill:#DDC9A3}
   ]]>
  </style>
 </defs>
 <g id="Capa_x0020_1">
  <metadata id="CorelCorpID_0Corel-Layer"/>
  <path class="fil0" d="M1.96417 28.6217c0.425197,1.43622 1.72559,1.3748 3.44646,1.3748l19.1516 0c1.59685,0 2.95512,0.114567 3.43701,-1.31811 0.779528,-2.3126 -1.2626,-5.98701 -2.19449,-7.17402 -1.41732,-1.80472 -3.7878,-3.10394 -6.1122,-3.51614 -1.57323,-0.27874 -7.71142,-0.275197 -9.30591,-0.0177165 -2.80276,0.447638 -4.96181,2.00551 -6.14882,3.47953 -1.39843,1.73976 -2.87953,5.12717 -2.27362,7.17165zm5.5878 -20.2488c0.464173,3.87047 3.82677,7.11378 8.31732,6.55512 3.9189,-0.487795 7.07008,-3.79134 6.56929,-8.30433 -0.431102,-3.86693 -3.87283,-7.12323 -8.31378,-6.55984 -3.89528,0.493701 -7.11496,3.80669 -6.57283,8.30906z"/>
 </g>
</svg>
