<?xml version="1.0" encoding="UTF-8"?>
<!DOCTYPE svg PUBLIC "-//W3C//DTD SVG 1.1//EN" "http://www.w3.org/Graphics/SVG/1.1/DTD/svg11.dtd">
<!-- Creator: CorelDRAW Home & Student X8 -->
<svg xmlns="http://www.w3.org/2000/svg" xml:space="preserve" width="180px" height="170px" version="1.1" style="shape-rendering:geometricPrecision; text-rendering:geometricPrecision; image-rendering:optimizeQuality; fill-rule:evenodd; clip-rule:evenodd"
viewBox="0 0 18000000 16999843"
 xmlns:xlink="http://www.w3.org/1999/xlink">
 <defs>
  <style type="text/css">
   <![CDATA[
    .fil0 {fill:#235B4E;fill-rule:nonzero}
   ]]>
  </style>
 </defs>
 <g id="Capa_x0020_1">
  <metadata id="CorelCorpID_0Corel-Layer"/>
  <path class="fil0" d="M2747008 2285787l4384606 0c19488,-203267 71221,-397204 150000,-575905 94488,-214370 227953,-407717 390709,-570473 173031,-173031 380079,-312637 610039,-407952 221575,-91772 464055,-142677 717520,-142677 253110,0 495472,50905 716929,142559 230315,95315 437244,234685 609803,407244 163347,164055 296929,357165 391181,570708 78898,178819 130630,372756 150236,576496l4384725 0c209527,0 410669,42284 594567,118819 190394,79252 362716,195591 506575,339331 144685,144803 261023,317008 340393,507638 76654,184016 119055,385157 119055,594803l0 8957244 202560 0c82440,0 157322,33543 211653,87874 54803,54803 88347,129685 88347,212126l0 1832598c0,178111 -40630,348662 -114095,503859 -75472,159803 -186260,303661 -323150,423189 -132283,115630 -289488,208937 -462401,272244 -167008,60827 -348780,94724 -537874,94724l-5455984 0c-82678,0 -158032,-33779 -212126,-87874 -54095,-54094 -87874,-129449 -87874,-212126 0,-82913 33779,-158031 87874,-212126 54567,-54212 129803,-87874 212126,-87874l5455984 0c117992,0 229960,-20197 330708,-56338 104292,-37559 198071,-92717 275788,-160630 73110,-63898 132401,-139961 172559,-223465 37559,-78071 58465,-163937 58465,-253583l0 -1532598 -4492441 0 0 291614c0,138307 -31536,270591 -88347,391181 -58464,123898 -144094,235158 -249685,327402 -101102,88346 -220984,159685 -352795,207992 -126969,46535 -265394,72283 -409134,72283l-4291299 0c-143740,0 -282166,-25748 -409134,-72283 -131811,-48307 -251693,-119646 -352795,-207992 -105591,-92244 -191221,-203504 -249685,-327402 -56811,-120590 -88347,-252874 -88347,-391181l0 -291614 -4448268 0 0 1532598c0,89646 20906,175512 58347,253701 40275,83386 99567,159449 172677,223347 77717,67913 171496,123071 275787,160630 100748,36141 212717,56338 330709,56338l5468858 0c82323,0 157559,33662 211890,88110 54331,53859 88110,128977 88110,211890 0,82677 -33779,158032 -87874,212126 -54094,54095 -129449,87874 -212126,87874l-5468858 0c-189094,0 -370866,-33897 -537520,-94724 -173267,-63307 -330472,-156614 -462756,-272244 -136889,-119528 -247677,-263386 -323149,-423189 -73465,-155197 -114095,-325748 -114095,-503859l0 -1832598c0,-82441 33544,-157323 87874,-211653 54804,-54804 129685,-88347 212126,-88347l202441 0 0 -8957244c0,-209528 42284,-410669 118819,-594567 79252,-190394 195591,-362717 339331,-506575 144803,-144685 317008,-261023 507638,-340393 184015,-76654 385157,-119056 594803,-119056zm4423110 600000l-4423110 0c-130039,0 -253937,25867 -366378,72520 -117047,48543 -222992,120236 -311811,209055 -89173,89173 -161221,195473 -209764,312402 -46653,112441 -72638,236456 -72638,366614l0 8957244 4245709 0c135000,5669 295157,74409 291850,300000l8268 591614c0,49607 11811,97441 32835,141142 22913,47362 56929,90709 98976,127441 46536,40630 103110,73819 166063,96378 61654,21614 129921,33897 202087,33897l4291299 0c72165,0 140433,-12283 201968,-34251 63071,-22205 119646,-55394 166182,-96024 42047,-36732 76063,-80079 98976,-127441 21024,-43701 32835,-91535 32835,-141142l0 -591614c0,-165472 134527,-300000 300000,-300000l4289881 0 0 -8957244c0,-130039 -25866,-253937 -72519,-366378 -48544,-117047 -120236,-222992 -209055,-311811 -89174,-89173 -195473,-161220 -312402,-209764 -112441,-46653 -236457,-72638 -366614,-72638l-4423110 0c-36260,158977 -92835,310394 -166772,451182 -78189,149055 -175276,285826 -287362,406653l462401 0c102284,0 200670,20787 290906,58347 93071,38622 177283,95551 247559,165708 70866,71103 128031,155551 166890,248622 37677,90355 58464,188858 58464,291142l0 2270905 -5203582 0 0 -2270905c0,-102284 20787,-200669 58346,-290906 38622,-93070 95551,-177283 165709,-247559 71102,-70866 155551,-128031 248622,-166889 90354,-37678 188858,-58465 291142,-58465l462165 0c-112205,-120945 -209055,-257598 -287126,-406535 -73937,-140788 -130512,-292323 -166890,-451300zm3667795 1457835l-3675944 0c-22796,0 -44056,4370 -62599,11929 -19606,8032 -37795,20197 -52913,35079 -15591,15945 -28111,34370 -36142,53976 -7795,19134 -12165,40394 -12165,62835l0 1670905 4003582 0 0 -1670905c0,-22795 -4370,-44055 -11929,-62598 -8031,-19607 -20197,-37796 -35079,-52914 -15944,-15590 -34370,-28110 -53976,-36142 -19134,-7795 -40394,-12165 -62835,-12165zm-933897 -2781142c-118347,-117992 -259252,-213071 -415040,-277441 -149882,-61889 -315236,-96259 -489094,-96259 -173858,0 -339213,34370 -489095,96259 -155787,64370 -296693,159449 -414567,276969 -117992,118346 -213070,259252 -277440,415039 -61890,149882 -96260,315236 -96260,489095 0,173740 34370,338976 96378,488858 64252,155315 159448,296102 277677,414331 117992,117992 259016,213189 414803,277795 149764,62008 314882,96378 488504,96378 173622,0 338740,-34370 488504,-96260 155787,-64724 296811,-159921 414803,-277913 118228,-118229 213425,-259016 277677,-414331 62008,-149882 96378,-315118 96378,-488858 0,-173859 -34370,-339213 -96260,-489095 -64370,-155787 -159449,-296693 -276968,-414567zm-897638 13848662c137598,0 262677,55984 353150,146338 90826,90945 146811,215906 146811,353622 0,137599 -55985,262678 -146339,353150 -90945,90827 -216024,146811 -353622,146811 -137717,0 -262677,-55984 -353150,-146339 -90826,-90944 -146811,-216023 -146811,-353622 0,-137716 55985,-262677 146339,-353149 90945,-90827 215905,-146811 353622,-146811zm-5070000 -6821339l10127008 0c67086,0 131693,13701 190984,38268 61536,25512 116811,62716 162402,108307 45590,45591 82795,100866 108307,162402 24567,59291 38267,123897 38267,190984l0 2465197c0,67086 -13700,131693 -38267,190984 -25512,61535 -62717,116811 -108307,162401 -45591,45591 -100866,82796 -162402,108308 -59291,24566 -123898,38267 -190984,38267l-10127008 0c-67087,0 -131693,-13701 -190984,-38267 -61536,-25512 -116811,-62717 -162402,-108308 -45590,-45590 -82795,-100866 -108307,-162401 -24567,-59291 -38268,-123898 -38268,-190984l0 -2465197c0,-67087 13701,-131693 38268,-190984 25512,-61536 62717,-116811 108307,-162402 45591,-45591 100866,-82795 162402,-108307 59291,-24567 123897,-38268 190984,-38268zm1628740 1326732l869291 0c102756,0 196418,42048 263977,109607 67441,68031 109606,161456 109606,263976 0,102520 -42165,196063 -109606,263622 -68032,67914 -161575,110079 -263977,110079l-869291 0c-102520,0 -195945,-42165 -263504,-109606 -68031,-67559 -110079,-161221 -110079,-263977 0,-102874 42048,-196535 109607,-264094 67559,-67559 161220,-109607 263976,-109607zm2000079 0l869291 0c102756,0 196418,42048 263977,109607 67441,68031 109606,161456 109606,263976 0,102520 -42165,196063 -109606,263622 -68032,67914 -161575,110079 -263977,110079l-869291 0c-102520,0 -195945,-42165 -263504,-109606 -68032,-67559 -110079,-161221 -110079,-263977 0,-102874 42047,-196535 109606,-264094 67560,-67559 161221,-109607 263977,-109607zm2000079 0l869291 0c102756,0 196417,42048 263976,109607 67559,67559 109607,161220 109607,263976 0,102874 -42048,196536 -109607,264095 -68031,67441 -161456,109606 -263976,109606l-869291 0c-102520,0 -195945,-42165 -263504,-109606 -68032,-67559 -110079,-161221 -110079,-263977 0,-102874 42047,-196535 109606,-264094 67559,-67559 161221,-109607 263977,-109607zm2000078 0l869292 0c102756,0 196417,42048 263976,109607 67559,67559 109606,161220 109606,263976 0,102874 -42047,196536 -109606,264095 -68031,67441 -161457,109606 -263976,109606l-869292 0c-102401,0 -195945,-42165 -263504,-109606 -67913,-68032 -110078,-161575 -110078,-263977 0,-102638 42165,-196063 109606,-263622 67559,-68031 161220,-110079 263976,-110079zm2397992 -726732l-9926929 0 0 2265118 9926929 0 0 -2265118z"/>
 </g>
</svg>
