<?xml version="1.0" encoding="UTF-8"?>
<!DOCTYPE svg PUBLIC "-//W3C//DTD SVG 1.1//EN" "http://www.w3.org/Graphics/SVG/1.1/DTD/svg11.dtd">
<!-- Creator: CorelDRAW Home & Student X8 -->
<svg xmlns="http://www.w3.org/2000/svg" xml:space="preserve" width="180px" height="170px" version="1.1" style="shape-rendering:geometricPrecision; text-rendering:geometricPrecision; image-rendering:optimizeQuality; fill-rule:evenodd; clip-rule:evenodd"
viewBox="0 0 18000000 16999843"
 xmlns:xlink="http://www.w3.org/1999/xlink">
 <defs>
  <style type="text/css">
   <![CDATA[
    .fil0 {fill:#235B4E;fill-rule:nonzero}
   ]]>
  </style>
 </defs>
 <g id="Capa_x0020_1">
  <metadata id="CorelCorpID_0Corel-Layer"/>
  <path class="fil0" d="M11825079 15467008l4393819 -13691575 -745512 734291 -6666142 6566457 3017835 6390827zm-10888819 -9808347l15936260 -5458228c182598,-61890 381023,36142 442913,218740 26339,77835 23504,158622 -2362,230433l-5090315 15861969c-26693,93661 -91890,175512 -186732,220275 -174331,82205 -382678,7559 -464882,-166771l-3443622 -7292481 -7211811 -2960669c-178111,-73228 -263268,-277205 -190040,-455315 39922,-96968 118583,-166417 210591,-197953zm14711220 -4300275l-13607952 4660630 6265393 2572086 2158347 -2125984 5184212 -5106732zm-8197913 12129803c137362,-135118 358464,-133228 493583,4134 135118,137362 133228,358464 -4134,493583l-2787992 2732007c-137363,135118 -358465,133229 -493583,-4133 -135118,-137363 -133228,-358465 4134,-493583l2787992 -2732008zm-1501890 -2474055c135827,-136654 356811,-137244 493465,-1417 136653,135826 137244,356811 1417,493464l-5105669 5151024c-135827,136653 -356811,137244 -493465,1417 -136653,-135827 -137244,-356811 -1417,-493465l5105669 -5151023zm-2389488 -1494685c137362,-135118 358465,-133229 493583,4134 135118,137362 133228,358464 -4134,493582l-2787992 2732008c-137363,135118 -358465,133229 -493583,-4134 -135118,-137362 -133228,-358464 4134,-493582l2787992 -2732008z"/>
 </g>
</svg>
