<?xml version="1.0" encoding="UTF-8"?>
<!DOCTYPE svg PUBLIC "-//W3C//DTD SVG 1.1//EN" "http://www.w3.org/Graphics/SVG/1.1/DTD/svg11.dtd">
<!-- Creator: CorelDRAW Home & Student X8 -->
<svg xmlns="http://www.w3.org/2000/svg" xml:space="preserve" width="180px" height="170px" version="1.1" style="shape-rendering:geometricPrecision; text-rendering:geometricPrecision; image-rendering:optimizeQuality; fill-rule:evenodd; clip-rule:evenodd"
viewBox="0 0 18000000 16999843"
 xmlns:xlink="http://www.w3.org/1999/xlink">
 <defs>
  <style type="text/css">
   <![CDATA[
    .fil0 {fill:#235B4E;fill-rule:nonzero}
   ]]>
  </style>
 </defs>
 <g id="Capa_x0020_1">
  <metadata id="CorelCorpID_0Corel-Layer"/>
  <path class="fil0" d="M16792087 9323031l354 5647914c0,347835 -142087,664016 -370866,892795 -228662,228662 -544843,370866 -892677,370866l-5096103 0 -37677 0c-157559,0 -285354,-127795 -285354,-285236 0,-157677 127795,-285354 285354,-285354l37677 0 5096103 0c190275,0 363543,-78189 489212,-203859 125670,-125551 203740,-298937 203740,-489212l0 -5163898 -6653858 2765906c-167008,100512 -358701,155433 -553819,158031 -191929,2717 -386929,-44645 -564449,-147283l-6671456 -2957953 0 5345197c0,190275 78189,363661 203740,489212 125669,125670 298937,203859 489212,203859l5152914 0 24567 0 0 945c145984,12519 260669,135118 260669,284409 0,149173 -114685,271654 -260669,284173l0 1063 -24567 0 -5152914 0c-347834,0 -663897,-142204 -892677,-370866 -228661,-228779 -370984,-544960 -370984,-892795l0 -5841142c0,-157559 127913,-285354 285354,-285354 59174,0 114213,18071 159922,49016l7082362 3197480c86220,49961 180472,72874 272244,71693 95197,-1181 189331,-28701 270945,-79016l7090630 -3009094c137126,-76300 310512,-26811 386693,110315 24330,43818 35905,91417 36378,138188zm-11827559 -8723149l8070944 0c345355,0 660000,141850 888662,369803l1417 1299c227953,228662 369803,543425 369803,888662l0 7121456 -653267 363071 0 -7484527c0,-167244 -67914,-318898 -177048,-428150l-1417 -1299c-109134,-109252 -260787,-177047 -428150,-177047l-8070944 0c-167363,0 -319016,67795 -428150,177047l-1417 1299c-109134,109252 -177048,260906 -177048,428150l0 7364882 -653267 -381024 0 -6983858c0,-345237 141850,-660000 369803,-888662l1417 -1299c228662,-227953 543307,-369803 888662,-369803zm1234606 3143031c-180354,0 -326575,-146338 -326575,-326574 0,-180473 146221,-326693 326575,-326693l5601732 0c180354,0 326575,146220 326575,326693 0,180236 -146221,326574 -326575,326574l-5601732 0zm0 1866496c-180354,0 -326575,-146338 -326575,-326692 0,-180237 146221,-326575 326575,-326575l5601732 0c180354,0 326575,146338 326575,326575 0,180354 -146221,326692 -326575,326692l-5601732 0zm2800512 9851457c259252,0 469488,210236 469488,469488 0,259252 -210236,469489 -469488,469489 -259252,0 -469489,-210237 -469489,-469489 0,-259252 210237,-469488 469489,-469488z"/>
 </g>
</svg>
