<?xml version="1.0" encoding="UTF-8"?>
<!DOCTYPE svg PUBLIC "-//W3C//DTD SVG 1.1//EN" "http://www.w3.org/Graphics/SVG/1.1/DTD/svg11.dtd">
<!-- Creator: CorelDRAW Home & Student X8 -->
<svg xmlns="http://www.w3.org/2000/svg" xml:space="preserve" width="32px" height="32px" version="1.1" style="shape-rendering:geometricPrecision; text-rendering:geometricPrecision; image-rendering:optimizeQuality; fill-rule:evenodd; clip-rule:evenodd"
viewBox="0 0 32 32"
 xmlns:xlink="http://www.w3.org/1999/xlink">
 <defs>
  <style type="text/css">
   <![CDATA[
    .fil2 {fill:none}
    .fil0 {fill:#F7F7F7}
    .fil1 {fill:#235B4E;fill-rule:nonzero}
   ]]>
  </style>
   <clipPath id="id0">
    <path d="M6 1l20 0c3,0 5,2 5,5l0 20c0,3 -2,5 -5,5l-20 0c-3,0 -5,-2 -5,-5l0 -20c0,-3 2,-5 5,-5z"/>
   </clipPath>
 </defs>
 <g id="Capa_x0020_1">
  <metadata id="CorelCorpID_0Corel-Layer"/>
  <path class="fil0" d="M6 1l20 0c3,0 5,2 5,5l0 20c0,3 -2,5 -5,5l-20 0c-3,0 -5,-2 -5,-5l0 -20c0,-3 2,-5 5,-5z"/>
  <g style="clip-path:url(#id0)">
   <g id="_949138456">
    <path id="1" class="fil1" d="M8 17c-1,-1 0,-2 1,-3 0,0 2,0 2,1l3 3 7 -9c0,-1 2,-1 2,0 1,1 2,2 1,3l-9 11c0,0 0,0 0,0 -1,1 -2,1 -3,0l-4 -6z"/>
   </g>
  </g>
  <path class="fil2" d="M6 1l20 0c3,0 5,2 5,5l0 20c0,3 -2,5 -5,5l-20 0c-3,0 -5,-2 -5,-5l0 -20c0,-3 2,-5 5,-5z"/>
 </g>
</svg>
