<?xml version="1.0" encoding="UTF-8"?>
<!DOCTYPE svg PUBLIC "-//W3C//DTD SVG 1.1//EN" "http://www.w3.org/Graphics/SVG/1.1/DTD/svg11.dtd">
<!-- Creator: CorelDRAW X5 -->
<svg xmlns="http://www.w3.org/2000/svg" xml:space="preserve" width="30px" height="30px" style="shape-rendering:geometricPrecision; text-rendering:geometricPrecision; image-rendering:optimizeQuality; fill-rule:evenodd; clip-rule:evenodd"
viewBox="0 0 30 30"
 xmlns:xlink="http://www.w3.org/1999/xlink">
 <defs>
  <style type="text/css">
   <![CDATA[
    .fil2 {fill:none}
    .fil0 {fill:#9F2241}
    .fil1 {fill:white;fill-rule:nonzero}
   ]]>
  </style>
   <clipPath id="id0">
    <path d="M15 2.49921c6.90354,0 12.5008,5.59724 12.5008,12.5008 0,6.90354 -5.59724,12.5008 -12.5008,12.5008 -6.90354,0 -12.5008,-5.59724 -12.5008,-12.5008 0,-6.90354 5.59724,-12.5008 12.5008,-12.5008z"/>
   </clipPath>
 </defs>
 <g id="Capa_x0020_1">
  <metadata id="CorelCorpID_0Corel-Layer"/>
  <path class="fil0" d="M15 2.49921c6.90354,0 12.5008,5.59724 12.5008,12.5008 0,6.90354 -5.59724,12.5008 -12.5008,12.5008 -6.90354,0 -12.5008,-5.59724 -12.5008,-12.5008 0,-6.90354 5.59724,-12.5008 12.5008,-12.5008z"/>
  <g style="clip-path:url(#id0)">
   <g id="_484267632">
    <path id="_4842686161" class="fil1" d="M21.9402 19.3169l-4.47283 -4.47402c0.838583,-1.90512 0.480709,-4.21535 -1.07717,-5.77441 -2.0315,-2.03031 -5.31614,-2.03031 -7.34646,0 -2.02559,2.02677 -2.02559,5.32205 0,7.34882 1.60866,1.60984 3.96732,1.91693 5.85,1.04528l4.45039 4.45039c0.716929,0.71811 1.87795,0.719291 2.59606,0 0.357874,-0.356693 0.53622,-0.826772 0.53622,-1.29803 0,-0.468898 -0.178346,-0.940157 -0.53622,-1.29803zm-11.4992 -4.29685c-1.25433,-1.25551 -1.25433,-3.29882 0,-4.55315 1.25787,-1.25787 3.29291,-1.25787 4.55079,0 1.25433,1.25433 1.25433,3.29764 0,4.55315 -1.25787,1.25669 -3.29291,1.25669 -4.55079,0z"/>
   </g>
  </g>
  <path class="fil2" d="M15 2.49921c6.90354,0 12.5008,5.59724 12.5008,12.5008 0,6.90354 -5.59724,12.5008 -12.5008,12.5008 -6.90354,0 -12.5008,-5.59724 -12.5008,-12.5008 0,-6.90354 5.59724,-12.5008 12.5008,-12.5008z"/>
 </g>
</svg>
