<?xml version="1.0" encoding="UTF-8"?>
<!DOCTYPE svg PUBLIC "-//W3C//DTD SVG 1.1//EN" "http://www.w3.org/Graphics/SVG/1.1/DTD/svg11.dtd">
<!-- Creator: CorelDRAW X5 -->
<svg xmlns="http://www.w3.org/2000/svg" xml:space="preserve" width="30px" height="30px" style="shape-rendering:geometricPrecision; text-rendering:geometricPrecision; image-rendering:optimizeQuality; fill-rule:evenodd; clip-rule:evenodd"
viewBox="0 0 30 30"
 xmlns:xlink="http://www.w3.org/1999/xlink">
 <defs>
  <style type="text/css">
   <![CDATA[
    .fil0 {fill:#999999}
   ]]>
  </style>
 </defs>
 <g id="Capa_x0020_1">
  <metadata id="CorelCorpID_0Corel-Layer"/>
  <path id="box-archive-solid.svg" class="fil0" d="M4.99961 22.8579c0,1.18228 0.959055,2.14252 2.14252,2.14252l15.7157 0c1.18346,0 2.14252,-0.959055 2.14252,-2.14252l0 -12.1441 -20.0008 0 0 12.1441zm5.71417 -8.75079c0,-0.294094 0.240945,-0.53622 0.53622,-0.53622l7.5 0c0.295276,0 0.53622,0.242126 0.53622,0.53622l0 0.356693c0,0.295276 -0.240945,0.53622 -0.53622,0.53622l-7.5 0c-0.295276,0 -0.53622,-0.240945 -0.53622,-0.53622l0 -0.356693zm14.2866 -9.10748l-20.0008 0c-0.790157,0 -1.42913,0.638976 -1.42913,1.42913l0 2.14252c0,0.393307 0.32126,0.714567 0.714567,0.714567l21.4299 0c0.393307,0 0.714567,-0.32126 0.714567,-0.714567l0 -2.14252c0,-0.790157 -0.638976,-1.42913 -1.42913,-1.42913z"/>
 </g>
</svg>
