<?xml version="1.0" encoding="utf-8"?>
<!-- Generator: Adobe Illustrator 26.3.1, SVG Export Plug-In . SVG Version: 6.00 Build 0)  -->
<svg version="1.1" id="Capa_1" xmlns="http://www.w3.org/2000/svg" xmlns:xlink="http://www.w3.org/1999/xlink" x="0px" y="0px"
	 viewBox="0 0 35 35" style="enable-background:new 0 0 35 35;" xml:space="preserve">
<style type="text/css">
	.st0{fill-rule:evenodd;clip-rule:evenodd;fill:#235B4E;}
	.st1{clip-path:url(#SVGID_00000132779442257160353030000006012005832505269895_);}
	.st2{fill:#FFFFFF;}
	.st3{fill:none;}
</style>
<g id="Capa_x0020_1">
	<path class="st0" d="M17.5,2.5c8.3,0,15,6.7,15,15c0,8.3-6.7,15-15,15c-8.3,0-15-6.7-15-15C2.5,9.2,9.2,2.5,17.5,2.5z"/>
	<g>
		<defs>
			<circle id="SVGID_1_" cx="17.5" cy="17.5" r="15"/>
		</defs>
		<clipPath id="SVGID_00000111883920743942327940000000108950333598670987_">
			<use xlink:href="#SVGID_1_"  style="overflow:visible;"/>
		</clipPath>
		<g style="clip-path:url(#SVGID_00000111883920743942327940000000108950333598670987_);">
			<g id="_478352416">
				<path id="_4783520081" class="st2" d="M8.9,18.9c-0.7-1-0.5-2.5,0.5-3.2c1-0.7,2.5-0.5,3.2,0.5l2.6,3.5l7.4-9.5
					c0.8-1,2.2-1.2,3.2-0.4c1,0.8,1.2,2.2,0.4,3.2l-9.2,11.8c-0.1,0.2-0.3,0.4-0.5,0.5c-1,0.7-2.5,0.5-3.2-0.5L8.9,18.9L8.9,18.9z"
					/>
			</g>
		</g>
	</g>
	<path class="st3" d="M17.5,2.5c8.3,0,15,6.7,15,15c0,8.3-6.7,15-15,15c-8.3,0-15-6.7-15-15C2.5,9.2,9.2,2.5,17.5,2.5z"/>
</g>
</svg>
