<?xml version="1.0" encoding="UTF-8"?>
<!DOCTYPE svg PUBLIC "-//W3C//DTD SVG 1.1//EN" "http://www.w3.org/Graphics/SVG/1.1/DTD/svg11.dtd">
<!-- Creator: CorelDRAW X5 -->
<svg xmlns="http://www.w3.org/2000/svg" xml:space="preserve" width="35px" height="35px" style="shape-rendering:geometricPrecision; text-rendering:geometricPrecision; image-rendering:optimizeQuality; fill-rule:evenodd; clip-rule:evenodd"
viewBox="0 0 35 35"
 xmlns:xlink="http://www.w3.org/1999/xlink">
 <defs>
  <style type="text/css">
   <![CDATA[
    .fil2 {fill:none}
    .fil0 {fill:#9F2241}
    .fil1 {fill:white;fill-rule:nonzero}
   ]]>
  </style>
   <clipPath id="id0">
    <path d="M17.5 2.49933c8.28462,0 15.0007,6.71605 15.0007,15.0007 0,8.28462 -6.71605,15.0007 -15.0007,15.0007 -8.28462,0 -15.0007,-6.71605 -15.0007,-15.0007 0,-8.28462 6.71605,-15.0007 15.0007,-15.0007z"/>
   </clipPath>
 </defs>
 <g id="Capa_x0020_1">
  <metadata id="CorelCorpID_0Corel-Layer"/>
  <path class="fil0" d="M17.5 2.49933c8.28462,0 15.0007,6.71605 15.0007,15.0007 0,8.28462 -6.71605,15.0007 -15.0007,15.0007 -8.28462,0 -15.0007,-6.71605 -15.0007,-15.0007 0,-8.28462 6.71605,-15.0007 15.0007,-15.0007z"/>
  <g style="clip-path:url(#id0)">
   <g id="_478352416">
    <path id="_4783520081" class="fil1" d="M8.85394 18.8524c-0.74649,-1.01816 -0.525614,-2.45326 0.492542,-3.19975 1.01934,-0.74649 2.45444,-0.526795 3.20093,0.492542l2.56783 3.49386 7.38577 -9.47759c0.776019,-0.994533 2.21585,-1.17053 3.21038,-0.394506 0.994533,0.7772 1.17053,2.21585 0.394506,3.21038l-9.17049 11.7667c-0.140558,0.199615 -0.313006,0.379151 -0.52089,0.53152 -1.01934,0.74649 -2.45326,0.525614 -3.20093,-0.493723l-4.35964 -5.9294z"/>
   </g>
  </g>
  <path class="fil2" d="M17.5 2.49933c8.28462,0 15.0007,6.71605 15.0007,15.0007 0,8.28462 -6.71605,15.0007 -15.0007,15.0007 -8.28462,0 -15.0007,-6.71605 -15.0007,-15.0007 0,-8.28462 6.71605,-15.0007 15.0007,-15.0007z"/>
 </g>
</svg>
