<?xml version="1.0" encoding="UTF-8"?>
<!DOCTYPE svg PUBLIC "-//W3C//DTD SVG 1.1//EN" "http://www.w3.org/Graphics/SVG/1.1/DTD/svg11.dtd">
<!-- Creator: CorelDRAW Home & Student X8 -->
<svg xmlns="http://www.w3.org/2000/svg" xml:space="preserve" width="75px" height="75px" version="1.1" style="shape-rendering:geometricPrecision; text-rendering:geometricPrecision; image-rendering:optimizeQuality; fill-rule:evenodd; clip-rule:evenodd"
viewBox="0 0 75 75"
 xmlns:xlink="http://www.w3.org/1999/xlink">
 <defs>
  <style type="text/css">
   <![CDATA[
    .str0 {stroke:#DDC9A3;stroke-width:7.99986}
    .fil0 {fill:none}
    .fil1 {fill:#DDC9A3}
   ]]>
  </style>
 </defs>
 <g id="Capa_x0020_1">
  <metadata id="CorelCorpID_0Corel-Layer"/>
  <circle class="fil0 str0" cx="37" cy="38" r="31"/>
  <path class="fil1" d="M46 38c2,0 3,3 1,4 -2,1 -3,-3 -1,-4zm-20 -13c-3,1 -3,4 -3,6l0 15c0,5 5,4 10,4l15 0c2,0 3,-1 3,-1 1,-2 1,-3 1,-5l0 -9c0,-2 0,-3 -1,-4 -2,-1 -3,-1 -4,-1 -3,0 -19,0 -20,0 0,0 -1,-1 0,-1 0,-1 2,-1 2,-1 2,0 19,1 19,0 2,0 3,-1 2,-2 -1,-1 -3,-1 -5,-1 -1,0 -18,0 -19,0z"/>
 </g>
</svg>
