<?xml version="1.0" encoding="UTF-8"?>
<!DOCTYPE svg PUBLIC "-//W3C//DTD SVG 1.1//EN" "http://www.w3.org/Graphics/SVG/1.1/DTD/svg11.dtd">
<!-- Creator: CorelDRAW Home & Student X8 -->
<svg xmlns="http://www.w3.org/2000/svg" xml:space="preserve" width="110px" height="90px" version="1.1" style="shape-rendering:geometricPrecision; text-rendering:geometricPrecision; image-rendering:optimizeQuality; fill-rule:evenodd; clip-rule:evenodd"
viewBox="0 0 11000000 8999893"
 xmlns:xlink="http://www.w3.org/1999/xlink">
 <defs>
  <style type="text/css">
   <![CDATA[
    .fil0 {fill:white;fill-rule:nonzero}
   ]]>
  </style>
 </defs>
 <g id="Capa_x0020_1">
  <metadata id="CorelCorpID_0Corel-Layer"/>
  <g id="_701165856">
   <g>
    <path class="fil0" d="M7594479 3516546c27992,42403 66497,61655 120828,63072 74056,1772 121183,-70749 121183,-70749l1225648 -1570416c101340,-105592 201144,-20315 201144,-20315 96852,101222 24568,193821 24568,193821l-274138 350793 0 1771c-23505,24332 -38032,57285 -38032,93781 0,33426 12165,63899 32362,87403l-118 709 275792 349493 868713 -1104937 -347131 -442565 -64017 -83387c-56457,-81025 -182247,-99805 -182247,-99805l-520164 0c-137955,0 -213074,95434 -213074,95434l-1456911 1869594 225594 286303z"/>
    <path class="fil0" d="M7532824 2558186l-348666 -446935c-70749,-114215 32599,-195948 32599,-195948 130159,-75946 205633,41221 205633,41221l288311 370281 341225 -439731 -393312 -506227c-94018,-134412 -237169,-115632 -237169,-115632l-470086 0c-150356,0 -214963,93545 -214963,93545l-415636 527369 868713 1109780 343351 -437723z"/>
    <path class="fil0" d="M8875993 2939097c0,0 -40158,-62009 -117403,-60946 -80434,1300 -112915,54804 -112915,54804l-1238285 1590141c-100278,110435 -208232,21615 -208232,21615 -96852,-101222 -17362,-195121 -17362,-195121l277681 -356698 118 -1890c23504,-24213 38032,-57284 38032,-93663 0,-33425 -12284,-63898 -32363,-87403l0 -708 -275791 -349493 -871548 1117338 485913 615245 763593 1890 1536046 -1964319 -227484 -290792z"/>
    <path class="fil0" d="M8940010 3897339l351383 452251c81025,112206 -21142,195121 -21142,195121 -135002,90710 -217444,-44647 -217444,-44647l-294099 -373588 -341343 439613 492290 630009 757806 -1890 485913 -622804 -870603 -1112260 -342761 438195z"/>
    <path class="fil0" d="M10146996 2884175c-194413,0 -352446,156026 -352446,347840 0,191814 158033,347839 352446,347839 194294,0 352328,-156025 352328,-347839 0,-191814 -158034,-347840 -352328,-347840zm0 534929l0 0c-102285,0 -185436,-83978 -185436,-187089 0,-103112 83151,-187090 185436,-187090 102166,0 185317,83978 185317,187090 0,103111 -83151,187089 -185317,187089z"/>
    <path class="fil0" d="M8234527 1265806c194294,0 352328,-156026 352328,-347840 0,-191814 -158034,-347840 -352328,-347840 -194412,0 -352446,156026 -352446,347840 0,191814 158034,347840 352446,347840zm0 -534811l0 0c102167,0 185318,83859 185318,186971 0,103112 -83151,187089 -185318,187089 -102166,0 -185317,-83977 -185317,-187089 0,-103112 83151,-186971 185317,-186971z"/>
    <path class="fil0" d="M6669426 3230716c0,-191814 -158152,-347840 -352446,-347840 -194294,0 -352446,156026 -352446,347840 0,191813 158152,347839 352446,347839 194294,0 352446,-156026 352446,-347839zm-537763 0l0 0c0,-103112 83150,-187090 185317,-187090 102167,0 185318,83978 185318,187090 0,103111 -83151,187089 -185318,187089 -102167,0 -185317,-83978 -185317,-187089z"/>
    <path class="fil0" d="M8235000 5196334c-194294,0 -352446,156026 -352446,347840 0,191696 158152,347839 352446,347839 194294,0 352446,-156143 352446,-347839 0,-191814 -158152,-347840 -352446,-347840zm0 534811l0 0c-102167,0 -185318,-83859 -185318,-186971 0,-103230 83151,-187089 185318,-187089 102167,0 185317,83859 185317,187089 0,103112 -83150,186971 -185317,186971z"/>
   </g>
   <g>
    <path class="fil0" d="M4457780 1014463l0 2601179c0,315241 -99096,606269 -294571,865052 -159333,210712 -382801,401699 -664261,567528 -430991,253822 -868832,370635 -966983,394848 -97678,-24095 -531976,-139726 -962730,-392486 -282406,-165829 -506818,-356934 -666860,-568000 -196420,-259256 -296106,-550874 -296106,-866942l0 -2601179 3851511 0zm98624 -98623l0 0 -4048641 0c0,0 0,1571361 0,2699802 0,1481951 2023376,1928532 2023376,1928532l1889 0c0,0 2023376,-446581 2023376,-1928532 0,-1128441 0,-2699802 0,-2699802z"/>
    <g>
     <path class="fil0" d="M3022366 1780065l0 -247917 -255004 0 0 231381 -99568 0 0 -231381 -262681 0 0 231381 -99686 0 0 -231381 -259138 0 0 248035 126498 217444c4370,7559 6732,16181 6732,24922l945 1135528 122719 0 -1300 -407841c0,-96261 109490,-183664 229610,-183664 120120,0 229491,87403 229491,183428l1300 408077 125789 0 -354 -430636c-237,-1890 -355,-3898 -355,-5906l0 -213546c0,-1063 118,-2126 118,-3189l-118 -155436c0,-236 0,-472 0,-708l0 -67915 -236 -258074c0,-8859 2362,-17717 6850,-25394l128388 -217208z"/>
     <path class="fil0" d="M2080896 3184534l-354 -376305 -45237 27166c-16654,10039 -37678,9449 -53741,-1536l-54686 -37441c236,1654 236,3189 236,4843l-1890 144923c-236,15354 -7441,29410 -19134,38623 5670,1771 11103,4606 15827,8504 66261,53150 71222,129214 56930,191223l102049 0z"/>
     <path class="fil0" d="M2531493 2666141c-76418,0 -130041,54449 -130041,83859l1299 408077 259964 0 -1299 -407841c0,-29646 -53623,-84095 -129923,-84095z"/>
     <path class="fil0" d="M1013755 3184534c-14056,-31418 -24686,-69568 -31891,-114451 -12519,-78544 -9921,-150829 -9803,-153900 827,-21142 14882,-39449 35079,-45709l108781 -33662 -122836 -86930c-13228,-9331 -21024,-24567 -21024,-40749l0 -137836c0,-18544 10276,-35670 26693,-44174l47954 -25040 0 -46890 -43583 -17717c-18780,-7559 -31064,-25867 -31182,-46064l-118 -165829c-118,-27402 21969,-49607 49253,-49961l153663 -1300c-2716,-40748 -3543,-96379 6378,-142324 13347,-62245 48662,-129805 65671,-159924l-8268 -57520c-2008,-14292 2244,-28702 11693,-39568 9567,-10984 23268,-17244 37677,-17244l82797 0c9449,0 18780,2716 26693,7795l202562 128388 93072 0c13583,0 26576,5551 35906,15354 9449,9804 14410,23032 13819,36615l-7086 159569c-591,13465 -6496,25867 -16182,34607l61891 118c13583,118 26457,5551 35788,15355l28229 29291 21378 -16417 36024 -75710c8268,-17362 25749,-28465 45001,-28465l132167 0 0 -28110 -126498 -217445c-4370,-7559 -6732,-16181 -6732,-25039l0 -311343c0,-27520 22323,-49725 49725,-49725l308981 0 99686 0 262681 0 99568 0 304847 0c27520,0 49725,22205 49725,49725l0 311343c0,8858 -2362,17598 -6850,25276l-128388 217326 0 27992 131105 0c19252,0 36732,11103 45000,28465l36024 75710 21260 16417 28347 -29409c9331,-9686 22205,-15119 35670,-15237l61891 -118c-9567,-8740 -15591,-21142 -16182,-34607l-6968 -159569c-591,-13583 4370,-26811 13701,-36615 9449,-9803 22441,-15354 36024,-15354l93072 0 202562 -128388c7914,-5079 17126,-7795 26575,-7795l82915 0c14410,0 28111,6260 37559,17244 9449,10866 13820,25276 11694,39568l-8150 57520c17008,30119 52323,97679 65670,159924 9803,45945 8977,101576 6260,142324l153664 1300c27402,354 49370,22559 49370,49961l-236 165829c0,20197 -12283,38505 -31063,46064l-43702 17717 0 46890 47954 25040c16535,8504 26811,25630 26811,44174l0 137836c0,16182 -7795,31418 -21024,40749l-122954 86930 108899 33662c20197,6260 34252,24567 35079,45709 118,3071 2599,75356 -9803,153900 -7205,44883 -17835,83033 -32008,114451l181183 0c827,0 1536,118 2362,118l0 -1924280 -3401741 0 0 1924162 180239 0z"/>
     <path class="fil0" d="M3143667 2993311c4725,-3898 10040,-6733 15709,-8504 -11693,-9213 -18780,-23269 -19016,-38623l-1890 -144923c0,-1654 0,-3189 118,-4843l-54567 37441c-16064,10985 -37088,11575 -53741,1536l-42875 -25630 354 374769 98978 0c-14291,-62009 -9449,-138073 56930,-191223z"/>
     <path class="fil0" d="M3804976 4213525c-27520,0 -49843,-22323 -49843,-49843l0 -325399c0,-24213 -14646,-54213 -37206,-76418 -18898,-18662 -51733,-40985 -102167,-39922 -76418,1299 -122245,60355 -128623,118821l0 322918c0,13228 -5197,25866 -14528,35197 -9331,9331 -22087,14646 -35198,14646l-295988 0c-27520,0 -49725,-22323 -49725,-49843l0 -325399c0,-24213 -14646,-54213 -37205,-76418 -18898,-18662 -51970,-40985 -102285,-39922 -33308,591 -63190,12756 -86458,34371l243428 1240765c342407,-151773 747767,-399218 966628,-783554l-270830 0z"/>
     <path class="fil0" d="M3013744 5028025l-342052 -1743923 -277681 0 -341462 1744631c-472,2363 -1299,4725 -2008,6969 237405,97442 430046,147049 483787,163821 54685,-17126 246027,-66379 481896,-162876 -1063,-2717 -2008,-5551 -2480,-8622z"/>
     <path class="fil0" d="M2200425 3754660c-22914,-20433 -52205,-32008 -84450,-32481 -945,0 -1890,0 -2716,0 -48781,0 -81025,21497 -99569,39804 -22559,22323 -37205,52205 -37205,76418l0 325399c0,27520 -22323,49843 -49843,49843l-295871 0c-13228,0 -25866,-5315 -35197,-14646 -9331,-9331 -14646,-21969 -14646,-35197l0 -322918c-6378,-58466 -52087,-117522 -128506,-118703 -945,0 -1771,0 -2716,0 -48662,0 -80907,21497 -99569,39804 -22559,22323 -37087,52205 -37087,76418l0 325399c0,27520 -22323,49843 -49843,49843l-270004 0c218507,383037 622568,630363 964266,782373l242956 -1241356z"/>
     <path class="fil0" d="M4232895 3284102l-1459745 0 71694 365675c32008,-17245 68032,-26812 105828,-27402 65552,-1181 127679,23268 173625,68505 41929,41221 66969,96261 66969,147403l0 275555 196302 0 0 -275555c0,-1535 118,-3071 236,-4606 10985,-118584 108309,-209413 226303,-211302 66379,-1181 127797,23268 173743,68505 41929,41221 66851,96261 66851,147403l0 275555 272012 0c68150,-149293 108544,-317484 108544,-506582l0 -323390c-826,0 -1535,236 -2362,236z"/>
     <path class="fil0" d="M1213364 4113957l0 -275556c0,-51024 25040,-106182 66969,-147403 45946,-45237 107836,-69332 173743,-68505 117994,2008 215318,92836 226302,211302 118,1535 237,3071 237,4606l0 275674 196302 -118 0 -275556c0,-51024 24921,-106182 66851,-147403 45946,-45237 107954,-69332 173743,-68505 36851,708 72166,9921 103702,26339l71340 -364730 -1459037 0 0 323154c0,189216 40394,357289 108663,506819l271185 -118z"/>
     <path class="fil0" d="M1330531 3081895l80788 0c6142,10039 9686,21614 11339,33543 236,6615 591,13347 1181,20079 -118,17599 -3189,34843 -6732,49017l-282760 0c-40867,-27875 -61300,-138546 -63072,-229728l123781 -38150c20906,-6496 35080,-25748 35080,-47599l0 -47717c0,-16182 -7796,-31300 -21024,-40631l-137482 -97324 0 -81852 47953 -25039c16536,-8504 26811,-25631 26811,-44174l0 -110671c0,-20315 -12283,-38505 -31063,-46182l-43820 -17717 0 -82914 130514 -1181 62009 101576 472 141852 -42638 134412c-4843,15118 -2126,31654 7323,44528 9331,12756 24213,20315 40158,20315l37678 0c24331,0 45236,-17599 49134,-41693 3662,-22087 15473,-85632 26575,-114333 8504,-22323 44056,-70040 66379,-96733 15827,-18780 15591,-46182 -590,-64726l-171145 -196538c-3425,-29528 -9567,-99686 1182,-149412 11575,-53977 49016,-122718 62363,-144687 6142,-9803 8504,-21496 6850,-32953l-2480 -17835 10984 0 202562 128270c7914,5079 17126,7795 26575,7795l55513 0 -3189 74293 -65316 23740c-19843,7205 -32953,26103 -32835,47127l354 51142c118,27284 22323,49371 49607,49489l170554 472 44410 46182c17599,18189 46064,20434 66143,4961 0,0 77599,-61654 81024,-68859l27639 -58229 99332 0 0 117048 0 64253c0,0 -181656,62245 -196775,69686 -11811,5906 -18425,62127 -16299,75710 2008,13583 1299,19016 20906,33544 0,0 52914,41457 69095,47363l52914 -50434 69923 4606 -119 167955 -66851 40040 -208822 -142915c-21732,-14882 -51260,-10276 -67442,10394l-32717 41930c-15827,20315 -13583,49370 5197,66969l119530 111970 -1182 91064 -119883 53269c-17953,8032 -29528,25866 -29528,45473l0 20433c0,27402 22205,49726 49725,49726l144333 0c24803,30945 15000,74764 4488,102639l-332367 0c-11339,-11930 -17126,-32835 -19488,-56221 -119,-6379 -473,-12757 -1182,-19253 -826,-31654 3308,-64253 7441,-83032l77482 -98978c6260,-8150 9921,-18071 10394,-28347l2362 -47481c827,-17008 -7087,-33190 -21024,-42993 -13937,-9921 -31772,-11929 -47599,-5433l-124844 50906c-16300,6615 -27875,21497 -30473,38859l-7323 49843 -72403 21851c-21024,6378 -35433,25748 -35433,47717l0 20197c0,27402 22323,49726 49843,49726z"/>
     <path class="fil0" d="M3735053 3081895l-80788 0c-6142,10039 -9685,21614 -11339,33543 -236,6615 -590,13347 -1181,20079 118,17599 3189,34843 6732,49017l282760 0c40867,-27875 61300,-138546 63072,-229728l-123781 -38150c-20906,-6496 -35079,-25748 -35079,-47599l0 -47717c0,-16182 7795,-31300 21024,-40631l137482 -97324 0 -81852 -47954 -25039c-16535,-8504 -26811,-25631 -26811,-44174l0 -110671c0,-20315 12284,-38505 31063,-46182l43702 -17717 118 -82914 -130514 -1181 -62009 101576 -472 141852 42638 134412c4843,15118 2126,31654 -7322,44528 -9331,12756 -24213,20315 -40159,20315l-37677 0c-24331,0 -45237,-17599 -49135,-41693 -3661,-22087 -15472,-85632 -26575,-114333 -8504,-22323 -44056,-70040 -66497,-96733 -15709,-18780 -15473,-46182 709,-64726l171144 -196538c3425,-29528 9449,-99686 -1181,-149412 -11575,-53977 -49017,-122718 -62363,-144687 -6142,-9803 -8504,-21496 -6851,-32953l2480 -17835 -10984 0 -202562 128270c-7913,5079 -17126,7795 -26575,7795l-55513 0 3189 74293 65316 23740c19843,7205 32953,26103 32835,47127l-354 51142c-118,27284 -22323,49371 -49607,49489l-170554 472 -44528 46182c-17480,18189 -45945,20434 -66024,4961 0,0 -77600,-61654 -80907,-68859l-27756 -58229 -99332 0 0 117048 0 64253c0,0 181656,62245 196774,69686 11811,5906 18425,62127 16299,75710 -2007,13583 -1299,19016 -20905,33544 0,0 -52915,41457 -69096,47363l-52914 -50434 -69922 4606 118 167955 66851 40040 208822 -142915c21733,-14882 51143,-10276 67324,10394l32835 41930c15827,20315 13583,49370 -5197,66969l-119529 111970 1181 91064 119884 53269c17953,8032 29528,25866 29528,45473l0 20433c0,27402 -22206,49726 -49726,49726l-144332 0c-24804,30945 -15001,74764 -4489,102639l332367 0c11339,-11930 17127,-32835 19489,-56221 118,-6379 472,-12757 1181,-19253 827,-31654 -3307,-64253 -7441,-83032l-77482 -98978c-6259,-8150 -9921,-18071 -10512,-28347l-2244 -47481c-826,-17008 7087,-33190 21024,-42993 13937,-9921 31772,-11929 47599,-5433l124845 50906c16299,6615 27874,21497 30354,38859l7442 49843 72402 21851c21024,6378 35434,25748 35434,47717l0 20197c0,27402 -22323,49726 -49844,49726z"/>
    </g>
   </g>
   <g>
    <g>
     <g>
      <g>
       <path class="fil0" d="M514377 6923957l0 -1889c0,-185436 136065,-349612 338864,-349612 113859,0 184372,32954 251932,89883l-49252 57993c-52088,-45473 -110081,-77245 -205633,-77245 -149648,0 -256776,126380 -256776,277091l0 1890c0,161222 103230,280988 267406,280988 77245,0 148703,-30001 195003,-67678l0 -167955 -205633 0 0 -68505 278980 0 0 269413c-62717,55867 -157325,103230 -271303,103230 -212365,0 -343588,-154491 -343588,-347604z"/>
       <path class="fil0" d="M1378721 6923957l0 -1889c0,-186381 140080,-349612 345713,-349612 205633,0 343706,161341 343706,347722l0 1890c0,186380 -139963,349493 -345714,349493 -205633,0 -343705,-161223 -343705,-347604zm610166 0l0 0 0 -1889c0,-153546 -111970,-278981 -266461,-278981 -154490,0 -264452,123545 -264452,277091l0 1890c0,153545 111970,278980 266460,278980 154491,0 264453,-123545 264453,-277091z"/>
       <path class="fil0" d="M2340978 6584149l287721 0c77245,0 138073,22205 176695,59883 27993,28938 43466,64607 43466,108073l0 1889c0,87876 -54096,133349 -107246,156499 80198,24094 144923,70394 144923,163112l0 2008c0,115750 -97560,184373 -245318,184373l-300241 0 0 -675837zm430636 178586l0 0c0,-66616 -53150,-110081 -149647,-110081l-205633 0 0 232681 199845 0c91655,0 155435,-41457 155435,-120711l0 -1889zm-141970 190160l0 0 -213310 0 0 238468 226893 0c102285,0 166065,-45237 166065,-120592l0 -1890c0,-73466 -61772,-115986 -179648,-115986z"/>
       <polygon class="fil0" points="3158785,6584149 3235086,6584149 3235086,7259986 3158785,7259986 "/>
       <polygon class="fil0" points="3543476,6584149 4032105,6584149 4032105,6653717 3619776,6653717 3619776,6884390 3988640,6884390 3988640,6953958 3619776,6953958 3619776,7190418 4036829,7190418 4036829,7259986 3543476,7259986 "/>
       <path class="fil0" d="M4289471 6584149l290673 0c83033,0 149648,25040 192168,67560 32836,32836 52088,80080 52088,133231l0 1889c0,112089 -77245,177759 -183428,197011l207641 276146 -93663 0 -196066 -262681 -193113 0 0 262681 -76300 0 0 -675837zm283941 344651l0 0c101340,0 173743,-52087 173743,-139018l0 -1890c0,-83032 -63663,-133348 -172798,-133348l-208586 0 0 274256 207641 0z"/>
       <polygon class="fil0" points="5099010,6584149 5170468,6584149 5596261,7125811 5596261,6584149 5670554,6584149 5670554,7259986 5609726,7259986 5173302,6705805 5173302,7259986 5099010,7259986 "/>
       <path class="fil0" d="M5943156 6923957l0 -1889c0,-186381 139963,-349612 345595,-349612 205751,0 343706,161341 343706,347722l0 1890c0,186380 -139962,349493 -345595,349493 -205633,0 -343706,-161223 -343706,-347604zm610166 0l0 0 0 -1889c0,-153546 -111970,-278981 -266460,-278981 -154491,0 -264571,123545 -264571,277091l0 1890c0,153545 111970,278980 266460,278980 154491,0 264571,-123545 264571,-277091z"/>
       <path class="fil0" d="M7256679 6584149l234570 0c212483,0 359178,145750 359178,336029l0 1890c0,190160 -146695,337918 -359178,337918l-234570 0 0 -675837zm76300 70395l0 0 0 534929 158270 0c170908,0 280043,-115868 280043,-265516l0 -1889c0,-149648 -109135,-267524 -280043,-267524l-158270 0z"/>
       <polygon class="fil0" points="8092321,6584149 8580950,6584149 8580950,6653717 8168621,6653717 8168621,6884390 8537484,6884390 8537484,6953958 8168621,6953958 8168621,7190418 8585674,7190418 8585674,7259986 8092321,7259986 "/>
       <polygon class="fil0" points="9192533,6584149 9268833,6584149 9268833,7189473 9649272,7189473 9649272,7259986 9192533,7259986 "/>
       <path class="fil0" d="M10117231 6579307l71458 0 308036 680679 -82088 0 -79135 -178585 -367918 0 -80080 178585 -78190 0 307917 -680679zm188271 432526l0 0 -153546 -343706 -154372 343706 307918 0z"/>
       <path class="fil0" d="M499850 8082163l0 -2008c0,-192050 144805,-349375 352328,-349375 127442,0 203743,42402 266578,104175l-94607 109135c-52206,-47363 -105238,-76300 -172916,-76300 -113860,0 -195948,94607 -195948,210475l0 1890c0,115986 80080,212483 195948,212483 77245,0 124608,-30945 177640,-79135l94608 95553c-69450,74292 -146695,120710 -277091,120710 -198900,0 -346540,-153545 -346540,-347603z"/>
       <polygon class="fil0" points="1245845,7742237 1394548,7742237 1394548,8418073 1245845,8418073 "/>
       <path class="fil0" d="M1566046 8128463l0 -386226 148703 0 0 382446c0,109962 55040,166892 145750,166892 90828,0 145868,-54922 145868,-162167l0 -387171 148585 0 0 381383c0,204806 -114805,305083 -296343,305083 -181538,0 -292563,-101340 -292563,-300240z"/>
       <path class="fil0" d="M2323734 7742237l263626 0c212483,0 359178,145868 359178,336028l0 1890c0,190278 -146695,337918 -359178,337918l-263626 0 0 -675836zm263626 541661l0 0c121655,0 203743,-82088 203743,-201735l0 -2008c0,-119647 -82088,-203625 -203743,-203625l-114805 0 0 407368 114805 0z"/>
       <path class="fil0" d="M3275598 7737394l137128 0 289610 680679 -155435 0 -61772 -151537 -285831 0 -61773 151537 -151537 0 289610 -680679zm156380 397801l0 0 -89765 -219097 -89765 219097 179530 0z"/>
       <path class="fil0" d="M3809582 7742237l263626 0c212365,0 359178,145868 359178,336028l0 1890c0,190278 -146813,337918 -359178,337918l-263626 0 0 -675836zm263626 541661l0 0c121655,0 203625,-82088 203625,-201735l0 -2008c0,-119647 -81970,-203625 -203625,-203625l-114923 0 0 407368 114923 0z"/>
       <path class="fil0" d="M4863495 7742237l263626 0c212365,0 359060,145868 359060,336028l0 1890c0,190278 -146695,337918 -359060,337918l-263626 0 0 -675836zm263626 541661l0 0c121655,0 203625,-82088 203625,-201735l0 -2008c0,-119647 -81970,-203625 -203625,-203625l-114923 0 0 407368 114923 0z"/>
       <polygon class="fil0" points="5626852,7742237 6136623,7742237 6136623,7874522 5774492,7874522 5774492,8011650 6093158,8011650 6093158,8143935 5774492,8143935 5774492,8285906 6141466,8285906 6141466,8418073 5626852,8418073 "/>
       <polygon class="fil0" points="6572574,7742237 6732852,7742237 6910493,8028068 7088133,7742237 7248411,7742237 7248411,8418073 7100771,8418073 7100771,7976925 6910493,8265591 6906713,8265591 6718325,7979878 6718325,8418073 6572574,8418073 "/>
       <path class="fil0" d="M7425343 7742237l509771 0 0 132285 -362132 0 0 137128 318666 0 0 132285 -318666 0 0 141971 366974 0 0 132167 -514613 0 0 -675836zm282878 -223940l0 0 126379 55040 -123545 115868 -111970 0 109136 -170908z"/>
       <polygon class="fil0" points="8270788,8074486 8044840,7742237 8218700,7742237 8360553,7961453 8503468,7742237 8672486,7742237 8446538,8072478 8682053,8418073 8508311,8418073 8356773,8186456 8204173,8418073 8035273,8418073 "/>
       <polygon class="fil0" points="8795677,7742237 8944380,7742237 8944380,8418073 8795677,8418073 "/>
       <path class="fil0" d="M9088122 8082163l0 -2008c0,-192050 144805,-349375 352328,-349375 127443,0 203743,42402 266461,104175l-94490 109135c-52205,-47363 -105356,-76300 -172916,-76300 -113978,0 -195947,94607 -195947,210475l0 1890c0,115986 80079,212483 195947,212483 77245,0 124608,-30945 177641,-79135l94607 95553c-69450,74292 -146695,120710 -277090,120710 -198901,0 -346541,-153545 -346541,-347603z"/>
       <path class="fil0" d="M9781675 8082163l0 -2008c0,-192050 151656,-349375 360124,-349375 208585,0 358233,155317 358233,347485l0 1890c0,192168 -151537,349611 -360123,349611 -208586,0 -358234,-155553 -358234,-347603zm562922 0l0 0 0 -2008c0,-115750 -84923,-212365 -204688,-212365 -119647,0 -202798,94607 -202798,210475l0 1890c0,115986 85040,212483 204688,212483 119765,0 202798,-94607 202798,-210475z"/>
      </g>
     </g>
    </g>
   </g>
  </g>
 </g>
</svg>
