<?xml version="1.0" encoding="UTF-8"?>
<!DOCTYPE svg PUBLIC "-//W3C//DTD SVG 1.1//EN" "http://www.w3.org/Graphics/SVG/1.1/DTD/svg11.dtd">
<!-- Creator: CorelDRAW Home & Student X8 -->
<svg xmlns="http://www.w3.org/2000/svg" xml:space="preserve" width="140px" height="75px" version="1.1" style="shape-rendering:geometricPrecision; text-rendering:geometricPrecision; image-rendering:optimizeQuality; fill-rule:evenodd; clip-rule:evenodd"
viewBox="0 0 140 75"
 xmlns:xlink="http://www.w3.org/1999/xlink">
 <defs>
  <style type="text/css">
   <![CDATA[
    .fil0 {fill:#DDC9A3;fill-rule:nonzero}
   ]]>
  </style>
 </defs>
 <g id="Capa_x0020_1">
  <metadata id="CorelCorpID_0Corel-Layer"/>
  <g id="_958714064">
   <path class="fil0" d="M105 12l9 0 0 4 -9 0c-1,0 -2,1 -3,1 0,1 -1,2 -1,3l0 35c0,1 1,2 1,3 1,0 2,1 3,1l9 0 0 3 -9 0c-2,0 -4,0 -5,-2 -2,-1 -2,-3 -2,-5l0 -35c0,-2 0,-4 2,-5 1,-2 3,-3 5,-3zm24 23c-6,0 -13,0 -19,0 -4,0 -4,5 0,5 6,0 13,0 19,0 -1,1 -5,5 -7,6 -3,4 1,8 5,5l9 -10c3,-3 3,-4 0,-7l-9 -10c-4,-3 -8,1 -5,4 1,2 2,3 4,4 0,0 2,2 3,3z"/>
   <path class="fil0" d="M17 43c0,3 -1,4 -2,5 -2,2 -4,2 -7,2 -2,0 -4,0 -6,-1l0 -5c1,1 3,1 4,2 1,0 2,0 3,0 1,0 2,0 2,0 1,-1 1,-2 1,-2 0,-1 0,-1 0,-2 0,0 -1,0 -1,-1 -1,0 -2,-1 -3,-1 -2,-1 -3,-2 -4,-2 0,-1 -1,-2 -1,-2 -1,-1 -1,-2 -1,-3 0,-2 1,-4 2,-5 1,-2 3,-2 6,-2 1,0 2,0 4,0 1,1 2,1 3,2l-2 3c-1,0 -2,0 -3,-1 -1,0 -1,0 -2,0 -1,0 -2,0 -2,1 -1,0 -1,1 -1,1 0,1 0,1 0,2 0,0 1,0 1,1 1,0 2,0 3,1 3,1 4,2 5,3 1,2 1,3 1,4z"/>
   <path id="1" class="fil0" d="M33 50l-1 -2 0 0c-1,1 -2,1 -3,2 -1,0 -2,0 -3,0 -2,0 -4,0 -5,-1 -1,-1 -1,-3 -1,-4 0,-2 1,-4 2,-5 1,-1 3,-1 6,-1l3 0 0 -1c0,-2 -1,-3 -3,-3 -1,0 -3,1 -5,1l-1 -3c2,-1 4,-2 7,-2 2,0 4,1 5,2 1,1 2,3 2,5l0 12 -3 0zm-2 -8l-2 0c-1,0 -2,0 -3,0 -1,1 -1,2 -1,3 0,1 1,2 2,2 2,0 2,-1 3,-1 1,-1 1,-2 1,-3l0 -1z"/>
   <polygon id="2" class="fil0" points="46,50 41,50 41,25 46,25 "/>
   <path id="3" class="fil0" d="M51 27c0,-2 1,-2 3,-2 2,0 3,0 3,2 0,1 -1,1 -1,2 -1,0 -1,1 -2,1 -2,0 -3,-1 -3,-3zm5 23l-5 0 0 -18 5 0 0 18z"/>
   <path id="4" class="fil0" d="M72 31c0,0 1,1 1,1l0 4c0,0 -1,0 -1,0 -2,0 -3,1 -4,1 -1,1 -1,2 -1,4l0 9 -5 0 0 -18 3 0 1 3 0 0c1,-1 2,-2 3,-3 1,0 2,-1 3,-1z"/>
  </g>
 </g>
</svg>
