<?xml version="1.0" encoding="UTF-8"?>
<!DOCTYPE svg PUBLIC "-//W3C//DTD SVG 1.1//EN" "http://www.w3.org/Graphics/SVG/1.1/DTD/svg11.dtd">
<!-- Creator: CorelDRAW Home & Student X8 -->
<svg xmlns="http://www.w3.org/2000/svg" xml:space="preserve" width="280px" height="200px" version="1.1" style="shape-rendering:geometricPrecision; text-rendering:geometricPrecision; image-rendering:optimizeQuality; fill-rule:evenodd; clip-rule:evenodd"
viewBox="0 0 28000000 19999899"
 xmlns:xlink="http://www.w3.org/1999/xlink">
 <defs>
  <style type="text/css">
   <![CDATA[
    .fil1 {fill:#161930;fill-rule:nonzero}
    .fil21 {fill:#171A33;fill-rule:nonzero}
    .fil17 {fill:#4A2835;fill-rule:nonzero}
    .fil3 {fill:#691C20;fill-rule:nonzero}
    .fil6 {fill:#9F2241;fill-rule:nonzero}
    .fil16 {fill:#C2614E;fill-rule:nonzero}
    .fil14 {fill:#C87658;fill-rule:nonzero}
    .fil15 {fill:#CCCCCC;fill-rule:nonzero}
    .fil20 {fill:#CE7A63;fill-rule:nonzero}
    .fil12 {fill:#DC4F50;fill-rule:nonzero}
    .fil0 {fill:#DDC9A3;fill-rule:nonzero}
    .fil19 {fill:#E9825D;fill-rule:nonzero}
    .fil18 {fill:#EE9068;fill-rule:nonzero}
    .fil13 {fill:#F16A6A;fill-rule:nonzero}
    .fil10 {fill:#F48264;fill-rule:nonzero}
    .fil9 {fill:#F58B6E;fill-rule:nonzero}
    .fil7 {fill:#F6957C;fill-rule:nonzero}
    .fil2 {fill:#F6B78B;fill-rule:nonzero}
    .fil11 {fill:#FAE081;fill-rule:nonzero}
    .fil8 {fill:#FBB249;fill-rule:nonzero}
    .fil4 {fill:#FEFEFE;fill-rule:nonzero}
    .fil5 {fill:white;fill-rule:nonzero}
   ]]>
  </style>
 </defs>
 <g id="Capa_x0020_1">
  <metadata id="CorelCorpID_0Corel-Layer"/>
  <path class="fil0" d="M14004724 6702893c97560,-2454456 1631344,-4944463 3991901,-5624307 2053589,-591262 4224579,225591 6183443,1080121 1231066,537049 2514102,1102916 3819932,1356736l0 11829718c-1632288,827955 -3500325,1194452 -5323007,1016460 -3687058,-360237 -6752381,-2763787 -8058212,-6183915 -422245,-1106106 -661183,-2287802 -614057,-3474813z"/>
  <path class="fil0" d="M27633739 19904938c-921262,-353387 -1742367,-965672 -2339416,-1751462 -310394,-408308 -660829,-915357 -1173074,-890199 -599057,29409 -907207,768427 -1467524,982089 -849687,323978 -1722761,-686931 -2615086,-512009 -949845,186260 -1288704,1570280 -2241030,1743194 -354686,64252 -718112,-62126 -1077404,-34607 -280159,21497 -582049,216261 -647837,462994l11561371 0z"/>
  <path class="fil1" d="M17683160 19306117c0,0 -197835,189095 -369922,266576 -171969,77480 -946066,34370 -894452,421536l1789139 0 158977 -159094 0 176339 357048 0c0,0 137599,-395789 8622,-636616 0,0 -258071,232205 -541891,128976 -283938,-103110 -507521,-197717 -507521,-197717z"/>
  <path class="fil2" d="M17779066 18551273c-236,575671 1535,935790 1535,935790l925042 92835 140552 -1028625 -1067129 0z"/>
  <path class="fil2" d="M21077540 18551273l126968 971459 902365 97678c0,0 6378,-415632 12402,-1069137l-1041735 0z"/>
  <path class="fil1" d="M22231716 19306117c0,0 197835,189095 369804,266576 172087,77480 946184,34370 894570,421536l-1789139 0 -159095 -159094 0 176339 -357048 0c0,0 -137599,-395789 -8504,-636616 0,0 258071,232205 541891,128976 283820,-103110 507521,-197717 507521,-197717z"/>
  <path class="fil3" d="M22175968 19217889l-1085791 0 -1104806 -8247779 -1123822 8266913 -1142956 0c0,0 57166,-6476357 190631,-7866873 133228,-1390516 685631,-2743000 685631,-2743000l2690559 0c0,0 757207,1371500 795357,2914379 38031,1542878 38031,1542878 38031,1542878l57166 6133482z"/>
  <path class="fil4" d="M20252065 8715261c7086,239292 12520,478584 16063,717876 2716,239292 7913,478584 8622,717876l0 3779 -1181 3780 -260670 822640 -56457 178229 827 -186969 2598 -564332c1299,-188033 709,-376183 4016,-564333 4606,-376182 10157,-752364 21968,-1128546 11693,376182 17245,752364 21733,1128546 3425,188150 2953,376300 4134,564333l2598 564332 -55630 -8740 267875 -820278 -1181 7559c826,-239292 5905,-478584 8622,-717876 3543,-239292 8976,-478584 16063,-717876z"/>
  <path class="fil4" d="M20945020 8736639c11811,59055 23385,117638 38740,175276 13701,57992 28937,115512 46772,172087 35433,113032 76181,224174 130748,327639 54095,103228 121772,200197 211300,273071 88346,74764 202441,115040 322442,123426 -59764,7323 -121182,3307 -181418,-10040 -59764,-15236 -116221,-43346 -167481,-78189 -103583,-70630 -177756,-174449 -235394,-281693 -55749,-109135 -96379,-224765 -122481,-342994 -26457,-117992 -43347,-237992 -43228,-358583z"/>
  <path class="fil4" d="M18937730 8765221c1418,117639 -10275,235631 -33307,351498 -23031,115984 -56575,230551 -106772,339449 -50315,107835 -117992,212245 -214134,288308 -47363,38150 -102638,67323 -161221,82796 -58701,14645 -119174,18307 -177402,9449 117756,-5197 228189,-48780 309922,-126379 82559,-76417 143741,-174449 190985,-278268 49016,-103465 83976,-213898 115394,-325395 29764,-112087 55984,-225827 76535,-341458z"/>
  <path class="fil4" d="M17809184 18979896c166654,-22559 333308,-27638 499962,-28583 166654,827 333308,5906 500080,28583 -166772,22559 -333426,27756 -500080,28465 -166654,-827 -333308,-6024 -499962,-28465z"/>
  <path class="fil4" d="M21109311 18979896c166536,-22559 333308,-27638 499962,-28583 166654,827 333308,5906 500081,28583 -166773,22559 -333427,27756 -500081,28465 -166654,-827 -333426,-6024 -499962,-28465z"/>
  <path class="fil2" d="M19444661 3596231l-4488 -37796c1890,14528 3661,27874 4488,37796zm2342369 1146381c-131812,-152599 -327639,-233150 -537049,-241182 -132520,-5079 -246379,-27638 -345119,-61654 -84922,-117284 -372757,-275552 -433112,-517678 -17480,-112442 -28582,-230080 -19015,-325395l0 -472c4960,-53741 16417,-100276 36968,-134410l-532442 -272127 -560671 179410c13937,23150 28583,94488 38386,154843 7205,95315 5079,256536 -7677,377481l-827 0c-48071,253938 -347599,417639 -435001,538348 -98623,34016 -212599,56575 -345001,61654 -209410,8032 -405238,88583 -537167,241182 -179292,207402 -296458,580041 -83504,1223507 368741,1114255 650198,1965714 644883,2469102l2555086 0c-5315,-503388 276143,-1354847 644884,-2469102 212953,-643466 95670,-1016105 -83622,-1223507z"/>
  <path class="fil4" d="M18593911 8330929c-15473,62244 -16418,153189 -14292,222284 1772,55512 45827,100158 101339,103347 475159,27165 2562291,137835 2604456,-5551 47599,-161930 9567,-323860 9567,-323860 0,0 109489,-709490 290434,-1276184 181064,-566695 504805,-1519138 414332,-1928628 -90473,-409607 -428623,-619135 -652443,-642876 -223701,-23858 -518978,-142913 -518978,-142913 0,0 -628584,347717 -852404,376182 -223819,28583 -895278,-376182 -895278,-376182 0,0 -219095,95315 -404765,128622 -185788,33307 -752364,119055 -809530,790514 -50551,592915 574726,2492606 721774,2929142 15945,47244 17717,97559 5788,146103z"/>
  <polygon class="fil5" points="20654113,4111547 19996946,4590131 19950529,4586824 19950529,4586588 19948757,4586706 19946985,4586588 19946985,4586824 19900568,4590131 19243401,4111547 18804147,4411548 19404149,4900880 19861237,4733045 19946985,4887297 19946985,4893675 19948757,4890486 19950529,4893675 19950529,4887297 20036277,4733045 20493365,4900880 21093485,4411548 "/>
  <g id="_1484129112">
   <polygon class="fil6" points="20216632,4679423 19948757,4682021 19680882,4679423 19602339,5040132 19827339,5379464 20070175,5379464 20295175,5040132 "/>
   <polygon class="fil6" points="19852024,5236550 19552023,7893802 19959269,8258055 20366396,7879510 20070175,5379464 "/>
  </g>
  <polygon class="fil1" points="18828242,4427020 19390094,4893675 19656788,4812769 19413952,5003282 "/>
  <polygon class="fil1" points="20237773,4808045 20485451,4898518 21075886,4427020 20504467,5031865 "/>
  <path class="fil4" d="M21826479 7905731c-4725,-1063 -9213,-1536 -13819,-2244 -960593,-151890 -1996541,-435946 -2910363,-960593l105709 -304608 48662 -132874c0,0 6260,591 17716,1772 118229,10275 805633,90590 1686265,162638 214371,17716 439489,35906 670396,54213 -33190,-100040 -65316,-196536 -96615,-289726 -12047,-34252 -23386,-68504 -34843,-101693 -16653,-48543 -32716,-96024 -48661,-141142 -78780,-229134 -149646,-425198 -206812,-572600 -78307,-201615 -121181,-367324 -140079,-504568 -63898,-458269 410316,-741144 786380,-460041 146812,110315 298348,293150 425198,593742 147402,347481 379962,898349 600593,1573823 2834,9095 6259,18780 9094,28583 186851,575907 -301182,1149688 -898821,1055318z"/>
  <path class="fil1" d="M21028287 5474661c43229,100158 82442,201733 119646,303780 38505,101812 74056,204568 108072,307797 34606,103110 67323,206693 98504,310867 31772,103937 59646,209173 88228,314174l-15944 -8150c53622,-12756 106890,-26693 161102,-37913 -50669,22204 -102165,41456 -153307,62126l-11221 4488 -4842 -12638c-38386,-101811 -77599,-203268 -112914,-306142 -35906,-102520 -70158,-205631 -102638,-309332 -33071,-103583 -64606,-207520 -93189,-312521 -29764,-104646 -57638,-209882 -81497,-316536z"/>
  <polygon class="fil1" points="19904465,7408013 20842618,7022382 20104427,7489037 "/>
  <path class="fil1" d="M21480651 6815216c-28465,-6614 -41339,-21024 -50551,-37205 -7559,-17008 -11339,-36024 590,-62835 28583,6615 41457,21024 50552,37323 7440,17008 11338,36024 -591,62717z"/>
  <path class="fil1" d="M20332971 7565218c179764,21024 355867,58937 530907,100867 174685,43819 348308,91653 516851,156260 -180709,-21024 -356339,-58819 -530907,-100867 -174213,-43701 -347245,-91417 -516851,-156260z"/>
  <path class="fil2" d="M19055723 6508247l-47717 130039 -489686 43465c-195946,17126 -393663,-27402 -559490,-133701 -36024,-22914 -60000,-42756 -61654,-54331 -12047,-61654 468545,20551 468545,20551 0,0 -418230,-155315 -400513,-187323 44528,-79488 637679,122835 652561,58228 12520,-57165 -102874,-159449 -171497,-201732 -14173,-8504 -17598,-26812 -6850,-39922 21732,-25748 65197,-55512 140079,-16063 102874,54922 476222,380789 476222,380789z"/>
  <path class="fil4" d="M20846161 7022973c210591,-97205 408190,-197718 584647,-298820l-719647 -190158 -9095 -33071 -2226384 181418c146929,-442679 277442,-818861 372757,-1063468 78425,-201378 121181,-367560 140315,-504214 63780,-458623 -410788,-741380 -786498,-460395 -147166,110197 -298347,293269 -425434,593860 -147166,347599 -379844,898703 -600356,1573587 -3071,9449 -6142,18898 -9213,28347 -186615,576143 301182,1149924 899294,1055436 4370,-709 8740,-1300 13110,-2008 772443,-121890 1877368,-471143 2755992,-875672l11693 -709 -1181 -4133z"/>
  <path class="fil2" d="M21334194 6434428c-44646,5551 -73701,3661 -76890,-10040 -5906,-24921 13110,-58701 42283,-92008 -16417,-48189 -32716,-95551 -48779,-141142 -102166,56457 -259962,156851 -403702,326694l-140197 13937 140433 495237 583466 -302953c-33307,-100276 -65079,-196772 -96614,-289725z"/>
  <path class="fil1" d="M20709271 6503286c-185316,25748 -370985,46536 -556655,65788 -185670,20669 -371694,36850 -557836,52795 -186025,15709 -372167,29764 -558545,42047 -186497,10985 -372875,22914 -559726,29646l8267 -6732c-19960,61181 -40039,122362 -61299,183189 13583,-63071 28465,-125669 43347,-188268l1417 -5905 6850 -827c185434,-23386 371340,-41693 557128,-60827 185906,-17953 371812,-34134 558072,-48426 186143,-14291 372403,-28346 558900,-37795 186496,-10866 373111,-20197 560080,-24685z"/>
  <path class="fil1" d="M18237807 6758051c32953,-33780 71103,-50906 110552,-64135 39921,-11574 81142,-19015 127441,-9685 -32953,34016 -71103,51024 -110552,64253 -40039,11338 -81141,18779 -127441,9567z"/>
  <path class="fil1" d="M18461509 7827187c0,0 685750,-123898 1142956,-323859l-1057208 542836 -85748 -218977z"/>
  <path class="fil1" d="M18647297 6141395c27165,-146221 70748,-286890 118228,-426025 49134,-138661 102520,-275906 172205,-407363 -27047,146339 -70630,286891 -118228,426025 -49252,138662 -102638,275906 -172205,407363z"/>
  <path class="fil2" d="M21150650 2407920c-31772,-100039 -138426,-180237 -244843,-154134 47126,-1390516 -1111893,-1203192 -1111893,-1203192 -727679,63071 -810593,836459 -805278,1230239 -23386,-13701 -45591,-23976 -57874,-26929 -106536,-26693 -213662,53740 -245670,154016 -25394,79843 -8150,169961 37441,240355 37913,58347 99449,112914 165119,137953 15000,5670 76771,16181 126968,14882 112560,908743 935909,819333 935909,819333 713860,35315 899293,-463229 940868,-823349 26575,-3189 48544,-7795 56812,-10866 65787,-25039 127205,-79606 165118,-137953 45591,-70394 62835,-160512 37323,-240355z"/>
  <path class="fil1" d="M20328837 2968709c0,0 -61890,-366733 -395316,-366733 -333308,0 -423781,338150 -423781,338150 -153190,-44173 -271773,-326457 -339804,-535395 -43465,-132992 472,-280512 113622,-362717 945,-709 1890,-1300 2717,-1890 89291,-64370 14291,-85748 75000,-267993 3425,-10039 7323,-19724 11811,-29173 72166,-150355 275670,-167599 394844,-51142 12401,12047 26929,23031 42756,33307 38504,29764 84921,48307 139370,47008 236,0 354,0 473,0 2480,354 4606,-118 7086,0 2362,-118 4606,354 7087,0 118,0 236,0 354,0 54567,1299 100867,-17244 139489,-47008 15827,-10276 30354,-21260 42638,-33307 119291,-116457 322914,-99213 394961,51142 4489,9449 8386,19134 11811,29173 60709,182245 -14291,203623 75001,267993 10039,7205 20078,14882 30000,22677 107008,85512 149528,232442 100157,360237 -129331,335552 -430276,545671 -430276,545671zm725080 -1039373c7205,-157205 -189213,-750002 -685749,-878624 -159568,-41221 -297049,-53268 -410553,-50788 -113504,-2480 -250985,9567 -410670,50788 -496419,128622 -692837,721419 -685750,878624 2244,49961 17598,101339 37323,148229 52205,123780 84449,255119 86220,389410 1654,114213 5906,239647 15473,340986 23740,252402 304725,976183 890435,976183 585711,0 857129,-433347 971460,-747639 55984,-153898 69685,-358112 69095,-526301 -473,-148701 27874,-295749 85630,-432757 19724,-46890 34842,-98150 37086,-148111z"/>
  <path class="fil1" d="M20174584 2303274c0,75945 30118,137599 67205,137599 37205,0 67323,-61654 67323,-137599 0,-76063 -30118,-137717 -67323,-137717 -37087,0 -67205,61654 -67205,137717z"/>
  <path class="fil1" d="M19726591 2303274c0,75945 -30118,137599 -67205,137599 -37205,0 -67323,-61654 -67323,-137599 0,-76063 30118,-137717 67323,-137717 37087,0 67205,61654 67205,137717z"/>
  <path class="fil1" d="M19782457 1825635c-31299,-27756 -66850,-36850 -104173,-38504 -36969,-827 -75001,3543 -110906,15709 -36378,11102 -69803,31535 -97796,55984 -29173,23622 -49606,54803 -66732,85512 -8622,15591 -2953,35197 12520,43819 12519,6851 27519,4725 37441,-4370l2716 -2598c21969,-20079 42874,-38977 66378,-52678 22678,-15236 47953,-23622 73347,-30118 25630,-5905 52205,-9212 79488,-7795 26811,945 55394,2362 84922,-4843l8504 -2126c18071,-4370 29055,-22677 24685,-40630 -1654,-6968 -5433,-12874 -10394,-17362z"/>
  <path class="fil1" d="M20118718 1825635c31299,-27756 66851,-36850 104174,-38504 36968,-827 75000,3543 110905,15709 36378,11102 69804,31535 97678,55984 29291,23622 49724,54803 66732,85512 8740,15591 3071,35197 -12401,43819 -12520,6851 -27520,4725 -37441,-4370l-2835 -2598c-21732,-20079 -42874,-38977 -66378,-52678 -22559,-15236 -47953,-23622 -73229,-30118 -25630,-5905 -52323,-9212 -79488,-7795 -26811,945 -55394,2362 -84922,-4843l-8504 -2126c-18071,-4370 -29173,-22677 -24685,-40630 1654,-6968 5315,-12874 10394,-17362z"/>
  <path class="fil1" d="M19966119 2092919c11929,51851 20669,103347 30355,154371 9921,50905 19252,101693 33779,149882 3307,12165 7087,24095 11339,35551 3543,9449 11929,27520 11693,44528 1771,34252 -20197,68032 -48307,81614 -28583,16064 -61654,13583 -87757,4725 -26456,-9567 -49488,-23977 -69449,-41693 48308,18189 104646,32362 138662,6614 17008,-12874 26221,-30236 23858,-49016 -944,-9685 -4015,-15827 -10157,-30590 -5197,-12875 -9685,-25867 -13583,-38859 -14764,-52441 -22323,-105473 -25275,-158386 -3071,-53032 -2008,-106063 4842,-158741z"/>
  <path class="fil1" d="M18769541 2482330c-827,-31654 7913,-66615 35787,-91182 29646,-24212 71930,-21968 103820,-9921 34016,11693 62008,34961 83976,61063 22441,26457 38741,55040 52087,87993 4724,11811 -945,25157 -12638,29882 -8858,3543 -18661,1181 -25039,-5197l-1418 -1536c-22441,-22795 -50551,-47008 -77126,-54567 -13346,-3425 -23268,-2952 -32362,3662 -9567,6614 -16890,20905 -23150,35669 -11811,30236 -18897,65551 6969,79489 26929,15354 66496,11574 101811,6968 -33307,14646 -70158,26929 -111969,15118 -21260,-6968 -38031,-31063 -39449,-52913 -2008,-21733 1063,-41575 6496,-60945 5788,-19134 13701,-39449 32599,-56221 19134,-17126 49134,-21142 70394,-14528 43583,13111 72992,38268 100394,67560l-39213 23031c-21024,-52677 -55630,-107480 -105709,-132166 -24921,-12047 -54567,-18070 -78189,-4724 -24803,12756 -39685,43229 -48071,73465z"/>
  <path class="fil1" d="M21096437 2482330c709,-31654 -8031,-66615 -35905,-91182 -29646,-24212 -71812,-21968 -103938,-9921 -34015,11693 -61890,34961 -83740,61063 -22559,26457 -38858,55040 -52205,87993 -4724,11811 945,25157 12638,29882 8858,3543 18661,1181 25039,-5197l1418 -1536c22441,-22795 50551,-47008 77126,-54567 13346,-3425 23150,-2952 32480,3662 9449,6614 16772,20905 23032,35669 11693,30236 18779,65551 -6969,79489 -26929,15354 -66614,11574 -101811,6968 33307,14646 70158,26929 111969,15118 21142,-6968 38031,-31063 39449,-52913 2126,-21733 -1063,-41575 -6496,-60945 -5670,-19134 -13819,-39449 -32599,-56221 -19016,-17126 -49016,-21142 -70394,-14528 -43583,13111 -72992,38268 -100394,67560l39213 23031c21024,-52677 55630,-107480 105591,-132166 25039,-12047 54685,-18070 78307,-4724 24803,12756 39803,43229 48189,73465z"/>
  <path class="fil4" d="M19718677 2736504c0,0 204804,114331 438191,0 0,0 -188150,452363 -438191,0z"/>
  <path class="fil7" d="M17218277 14985751l53504 4441193 291261 316182 604489 -338977c138898,-1076342 393899,-2824378 595986,-4418398l-1545240 0z"/>
  <path class="fil8" d="M17076662 19250605c-12047,-11811 -31653,-5551 -35551,10866 -16654,71339 -54922,231733 -97441,385277 -44882,162048 79724,288072 134764,334489 15236,12756 33898,19134 53740,19134l2307999 -1771c0,0 103583,-158741 -641695,-337915 -745396,-179055 -462048,-395906 -692837,-364961 -230788,31063 -520631,345355 -744569,185315 -154370,-110197 -243662,-190985 -284410,-230434z"/>
  <path class="fil7" d="M15843115 14985751c167954,1648351 370749,3463120 487443,4532257l527600 277441 573072 -360946 13701 -4448752 -1601816 0z"/>
  <path class="fil1" d="M17434419 19269267c-10630,-285710 -15000,-571537 -18307,-857247 -3543,-285709 -1890,-571419 -3071,-857246 3425,-285592 4370,-571419 10039,-857129l9804 -428505c5433,-142795 8740,-285709 15826,-428505 5906,142796 8032,285710 12284,428623l6142 428624c3425,285709 1890,571419 2952,857246 -3543,285710 -4370,571419 -10157,857010 -5787,285710 -12520,571537 -25512,857129z"/>
  <path class="fil8" d="M16324298 19250605c-12047,-11811 -31772,-5551 -35551,10866 -16772,71339 -55040,231733 -97560,385277 -44882,162048 79843,288072 134883,334489 15118,12756 33779,19134 53740,19134l2307880 -1771c0,0 103701,-158741 -641694,-337915 -745278,-179055 -462049,-395906 -692837,-364961 -230788,31063 -520513,345355 -744451,185315 -154370,-110197 -243780,-190985 -284410,-230434z"/>
  <path class="fil6" d="M16048746 9533295c0,0 -585829,828663 -600120,1928627 -14291,1100082 414332,4142964 414332,4142964l114567 31890c908034,252875 1869336,241773 2771229,-31890l0 0c0,0 842955,-4557296 -228544,-6043009l-2471464 -28582z"/>
  <path class="fil4" d="M15827289 10661959c-30237,202678 -51142,406419 -63662,610632 -14055,204095 -19134,408544 -14409,612639 5314,204332 18779,407127 44291,610868l67323 610986 122953 1223035 56929 611931c16890,204213 35670,408426 50788,612876 -27992,-203151 -52323,-406655 -78662,-609805l-72756 -610514 -136063 -1222090 -62126 -611576c-23032,-203151 -38032,-409844 -36378,-615238 1181,-411143 39567,-822050 121772,-1223744z"/>
  <path class="fil9" d="M20806003 5354188c-33897,12874 -97441,58229 -202087,204922 0,0 139016,-356339 111142,-419529 -27756,-63189 -268583,364608 -268583,364608 0,0 113504,-417167 67441,-460277 -45945,-43229 -233268,407127 -233268,407127 0,0 92244,-436537 55748,-438545 -90827,-4842 -236930,604727 -299292,582640 -55276,-19607 -79961,-172442 -79134,-252402 236,-16890 -13111,-29410 -30119,-27166 -33189,4370 -81496,25394 -87992,109489 -8268,108779 -21378,322796 57756,571182 -118,118 -236,355 -236,473 -25748,50079 -58229,113032 -95670,185433 83032,35197 165709,70040 248387,102638 102402,40394 208819,86457 317717,129568 15236,-132520 27048,-265749 34252,-399332 0,-118 0,-118 0,-236 150827,-176812 381852,-466891 429805,-637561 4606,-16418 -9685,-29292 -25867,-23032z"/>
  <path class="fil8" d="M18513005 6011710c0,0 321497,121417 407245,328583 85630,207166 271418,1121460 271418,1121460l649963 -1414374 592915 135827c0,0 -107127,1635714 -714333,2742882 -607088,1107287 -1371500,21378 -1485713,-371458 -114331,-392835 -335788,-1971501 -250040,-2128588 85748,-157205 528545,-414332 528545,-414332z"/>
  <path class="fil1" d="M19848835 6247459c88111,944 171615,18661 253938,40275 81969,23504 162756,51024 238938,95434 -88229,-709 -171733,-18544 -254056,-40276 -81969,-23504 -162756,-51024 -238820,-95433z"/>
  <path class="fil7" d="M18255169 5876946c-85748,-49961 -156968,-101221 -216851,-173623 -14055,-50787 -47126,-176339 -72047,-317954 -21850,-126142 -37323,-264685 -26339,-373465l0 -473c4961,-53740 16418,-100157 36851,-134291l-1220555 -686459c945,4134 1299,7795 2244,11929 19370,113150 166182,1000633 16063,1472603 -51023,23622 -107953,43819 -173268,57402 316182,431812 512836,933664 833979,1364885 174922,235040 402284,487443 722600,437246 31536,-4961 60473,-12048 88111,-20434 38031,-263268 34252,-548505 36378,-771616 2598,-265512 -57284,-582285 -27166,-865750z"/>
  <path class="fil10" d="M17966271 5385369c-663545,83859 -999688,-708663 -1011971,-738309 122480,194528 300119,292915 473623,339804 213662,58347 420946,38741 507875,25985 1418,-473 2717,-473 4134,-945 -10984,108780 4489,247323 26339,373465z"/>
  <path class="fil8" d="M16758236 5652181l971460 1647643 319016 -1552328c0,0 642876,295159 795239,571419 152480,276261 257126,952444 180945,1342799 -76063,390592 -590435,1600162 -428505,1952486 161811,352442 333308,742916 361891,971460l-580986 0 -228544 -361891 -171379 371458 -2485873 0c0,0 647719,-1381067 676183,-1562013 28583,-180945 -409489,-1790438 -438072,-2152329 -28583,-362008 199961,-990593 352442,-1066774 152363,-76181 676183,-161930 676183,-161930z"/>
  <polygon class="fil11" points="16758236,5652181 16677330,6551003 17058237,6695098 16791543,7447462 17713042,8618883 18358280,7409430 18196350,6728405 18696431,6666515 18045051,5727418 17729696,7299824 "/>
  <polygon class="fil4" points="16758236,5652181 17659420,6440333 18048712,5708166 18653556,6071238 18277374,6061671 17729696,7299824 16809378,6029663 16434377,6176002 "/>
  <path class="fil1" d="M16834417 6040293c31063,-36497 68386,-56575 107363,-72993 39567,-14645 80788,-25512 128386,-19842 -31063,36614 -68504,56693 -107481,72992 -39567,14646 -80669,25276 -128268,19843z"/>
  <path class="fil1" d="M18277374 6061671c-61535,-6024 -115039,-27756 -166654,-53032 -50787,-26929 -99685,-57638 -140551,-104055 61535,6023 115039,27756 166536,53149 50787,27048 99685,57756 140669,103938z"/>
  <polygon class="fil12" points="18935014,9741760 16922764,9374790 17463238,6410333 19475488,6777184 "/>
  <polygon class="fil4" points="18974345,9789831 16961977,9422861 17502451,6458522 19457063,6792893 19527575,6870137 "/>
  <polygon class="fil13" points="19013912,9836012 17001426,9469160 17541900,6504703 19554386,6871555 "/>
  <polygon class="fil12" points="19554386,6871555 19475488,6777184 19457063,6792893 19523795,6866358 "/>
  <path class="fil1" d="M15977289 9526090c0,0 788034,-216615 980908,-338033 0,0 -476222,630947 -1119097,640514l138189 -302481z"/>
  <path class="fil7" d="M19405803 7671400c23267,-64961 -445868,80078 -445868,80078 0,0 369332,-224882 365552,-287835 -3661,-63071 -449292,135119 -449292,135119 0,0 367087,-253466 341930,-280041 -62599,-66023 -587718,276143 -617836,217206 -26693,-52205 60472,-180119 116102,-237757 11693,-12047 10630,-30236 -3189,-40276 -27165,-19724 -76654,-37559 -139134,19016 -81142,73465 -238111,221458 -351497,457442 -591,237 -354,237 -1299,355 -25158,9094 -206576,72756 -490513,171614 -119,28583 0,57166 1417,85749 10039,208819 28464,419292 52323,626813 2126,19133 5079,38149 7441,57165 236575,-175630 464411,-365316 677600,-571891l-945 -1418 -236 -354c202205,-18189 679844,-71103 858782,-178111 14646,-8740 12992,-27874 -2835,-34488 -33543,-14055 -110787,-24685 -287717,9803 0,0 345946,-163229 369214,-228189z"/>
  <path class="fil8" d="M18120169 7740376l-1614335 550041c0,0 132638,-505868 169843,-1060042 -106418,-38741 -204095,-99213 -268702,-186261 -31890,-42874 -51378,-85276 -62126,-126614 -10039,-13583 -19724,-27874 -28346,-43583 -4961,-9095 -9095,-18307 -13111,-27402 -15708,7678 -32244,14410 -50197,19252 -140906,38741 -321615,-48071 -351497,-199488 -67205,-340395 57874,-637679 321497,-808467 -46181,-17953 -96378,-30827 -151299,-37205 0,0 -416104,312520 -544608,741144 -128623,428623 -442915,2400006 -28583,2857212 414332,457207 2278589,-571418 2842921,-1142837l-221457 -535750z"/>
  <path class="fil1" d="M16027250 8526048c161575,-91418 325749,-177402 490395,-262442l827 -354 1889 -827c130867,-47599 262560,-93308 394490,-137835 131811,-45118 264331,-88229 396733,-131339 132520,-42756 265749,-83859 399332,-123544 133111,-40984 267284,-78898 402166,-115040 -129567,51969 -259725,102048 -390827,149174 -130749,48425 -261852,95433 -393545,140788 -131811,44882 -263741,90000 -396143,132874 -132402,43583 -265040,86103 -398387,126497l2599 -1181c-168662,76890 -337678,152953 -509529,223229z"/>
  <path class="fil1" d="M16091502 8197464c36969,3543 73937,8150 110670,12992 36732,4961 73701,8622 110197,14764l219567 34134 -28701 19488 82323 -525710 41457 -262796c11221,-87874 26457,-175158 28819,-264331 13111,88582 10866,179055 5788,267874 -5433,89174 -12874,178111 -23977,266576 -22205,176811 -50315,352560 -86457,527127l-5197 25158 -23504 -5551 -216024 -51733c-36142,-8149 -71811,-18779 -107599,-27992 -35905,-9449 -71811,-19134 -107362,-30000z"/>
  <path class="fil1" d="M17891625 7897463c59528,71221 103347,149882 143504,230434 38505,81260 73229,164410 92245,255355 -59764,-71103 -103583,-149764 -143623,-230434 -38386,-81378 -73228,-164528 -92126,-255355z"/>
  <path class="fil1" d="M16305873 6054584c70512,31772 132047,83268 183071,142678 51496,59173 91654,127677 123544,199488 28582,72993 50669,148820 59291,226418 6496,38386 5315,77599 7323,116103 -2008,38740 -4252,77244 -8976,115276 -8150,-37914 -11575,-75709 -19016,-113032 -8504,-36969 -13229,-74292 -23150,-110433 -17126,-72993 -40276,-143623 -68032,-212127 -29055,-68032 -64370,-133111 -106181,-194528 -42520,-60709 -89764,-119528 -147874,-169843z"/>
  <path class="fil7" d="M18590603 3898476c-13582,-359765 -57756,-729688 -181181,-1047996 -159449,-409843 -910869,-569292 -1434689,-113858 -243426,211536 -294568,595159 -279922,945357 -12756,-6260 -24213,-11103 -31536,-12874 -106654,-26575 -213780,53740 -245670,154016 -25512,79843 -8268,170079 37323,240355 37914,58465 99449,112914 165119,137953 16653,6260 90354,18543 142441,14055 49725,230316 167363,443151 348899,593978 228544,190276 521930,266340 813427,205749 226772,-46890 562443,-192166 645829,-427678 21378,-61418 23622,-127560 24094,-192639 0,-15000 473,-30118 473,-45000 1890,-145866 1417,-297993 -4607,-451418z"/>
  <path class="fil10" d="M18595210 4349894c-19134,4961 -39095,7677 -59646,7677 -128504,0 -232796,-104291 -232796,-232796 0,-128858 104292,-232677 232796,-232677 19134,0 37441,2244 55039,6378 6024,153425 6497,305552 4607,451418z"/>
  <path class="fil10" d="M17143867 4124775c0,128623 104292,232796 232914,232796 128623,0 232914,-104173 232914,-232796 0,-128622 -104291,-232914 -232914,-232914 -128622,0 -232914,104292 -232914,232914z"/>
  <path class="fil1" d="M18180287 3672884c0,76064 30119,137717 67205,137717 37205,0 67323,-61653 67323,-137717 0,-76063 -30118,-137598 -67323,-137598 -37086,0 -67205,61535 -67205,137598z"/>
  <path class="fil1" d="M18384737 3491703c-11339,22323 -26221,41693 -45473,58701 -19016,17008 -43228,30236 -70394,36496l-1181 236c-13346,3071 -26693,-5315 -29764,-18661 -3071,-13465 5315,-26811 18662,-29882 2126,-473 4488,-709 6614,-591 37559,1536 79370,-21378 107835,-54685l472 -473c2953,-3425 7914,-3779 11339,-944 2953,2480 3543,6614 1890,9803z"/>
  <path class="fil1" d="M17732294 3672884c0,76064 -30118,137717 -67323,137717 -37087,0 -67087,-61653 -67087,-137717 0,-76063 30000,-137598 67087,-137598 37205,0 67323,61535 67323,137598z"/>
  <path class="fil1" d="M17541427 3483317c28583,33307 70394,56221 107953,54685 13701,-590 25276,10158 25867,23858 472,13701 -10158,25394 -23859,25867 -2244,118 -4370,-118 -6496,-591l-1181 -236c-27284,-6260 -51378,-19488 -70394,-36496 -19252,-17008 -34134,-36378 -45591,-58701 -2007,-3898 -472,-8740 3544,-10748 3307,-1772 7323,-945 9803,1889l354 473z"/>
  <path class="fil1" d="M18208752 4089460c-23268,45355 -58819,84567 -101339,115276 -42520,30709 -95788,50433 -150591,49961 -54449,-1417 -107953,-19961 -149882,-51732 -21851,-14410 -39095,-34489 -57992,-51615 -15827,-20433 -31300,-40866 -45119,-61890 20788,15237 39685,31300 58701,47126 21142,12756 40158,28583 61536,39449 41811,23859 87402,36969 132992,37796 45709,1063 91300,-13465 133465,-36142 42048,-23268 81497,-53268 118229,-88229z"/>
  <path class="fil1" d="M18027098 4333595c-19252,17008 -45473,23150 -70748,23976 -25512,-826 -51378,-7677 -70867,-23976 24804,3898 47481,8740 70867,7913 23386,945 46181,-3189 70748,-7913z"/>
  <path class="fil1" d="M17788278 3195481c-31417,-27874 -66968,-36968 -104291,-38622 -36969,-827 -75000,3425 -110906,15709 -36378,11102 -69803,31417 -97796,55984 -29173,23622 -49606,54804 -66614,85512 -8740,15591 -3071,35079 12402,43819 12519,6851 27519,4725 37441,-4488l2716 -2480c21851,-20197 42874,-39095 66378,-52795 22678,-15119 47953,-23504 73347,-30119 25630,-5905 52205,-9094 79488,-7677 26812,945 55394,2244 84922,-4842l8504 -2126c18071,-4370 29055,-22560 24685,-40749 -1654,-6850 -5433,-12755 -10276,-17126z"/>
  <path class="fil1" d="M18124421 3195481c31299,-27874 66851,-36968 104174,-38622 36968,-827 75000,3425 111024,15709 36259,11102 69685,31417 97677,55984 29173,23622 49606,54804 66732,85512 8622,15591 2953,35079 -12519,43819 -12520,6851 -27520,4725 -37441,-4488l-2717 -2480c-21968,-20197 -42874,-39095 -66378,-52795 -22559,-15119 -48071,-23504 -73347,-30119 -25630,-5905 -52323,-9094 -79488,-7677 -26811,945 -55394,2244 -84922,-4842l-8504 -2126c-18070,-4370 -29173,-22560 -24803,-40749 1772,-6850 5433,-12755 10512,-17126z"/>
  <path class="fil1" d="M17971940 3462529c11811,51969 20552,103465 30237,154489 9921,50906 19252,101693 33779,149882 3307,12166 7087,23977 11339,35552 3543,9448 11929,27519 11693,44409 1771,34370 -20197,68032 -48189,81615 -28701,16063 -61772,13582 -87756,4724 -26575,-9567 -49607,-23858 -69568,-41575 48190,18189 104646,32362 138662,6614 17008,-12992 26221,-30236 23859,-49134 -945,-9567 -4016,-15708 -10158,-30472 -5197,-12874 -9685,-25866 -13583,-38859 -14763,-52559 -22323,-105472 -25275,-158504 -3071,-52914 -2008,-105945 4960,-158741z"/>
  <path class="fil1" d="M16501936 3897531c-708,-31654 8032,-66615 35906,-91064 29646,-24330 71811,-22086 103819,-10039 34016,11693 61890,35079 83858,61181 22441,26339 38741,54922 52087,87875 4725,11811 -827,25157 -12638,29882 -8858,3661 -18661,1299 -25039,-5079l-1417 -1536c-22441,-22795 -50552,-47126 -77127,-54567 -13346,-3543 -23149,-3071 -32362,3544 -9567,6732 -16890,21023 -23150,35669 -11692,30236 -18779,65551 6969,79488 26929,15473 66614,11693 101929,6969 -33307,14646 -70275,26929 -111968,15118 -21260,-6968 -38150,-31063 -39567,-52795 -2008,-21851 1063,-41575 6496,-61064 5787,-19133 13819,-39448 32598,-56220 19134,-17126 49134,-21142 70394,-14528 43701,13110 72992,38268 100394,67559l-39095 23150c-21141,-52677 -55748,-107599 -105709,-132284 -25039,-11929 -54567,-18071 -78307,-4724 -24685,12874 -39685,43228 -48071,73465z"/>
  <path class="fil4" d="M18701391 3233041c47363,-1000043 -1285751,-1314335 -1962407,-581104 -556064,602954 -436064,1914336 -375473,2361739 13110,96614 76535,179409 167953,214370 98858,38268 200670,69685 302953,94843 31418,-449175 -53740,-988113 -74291,-1107523 -51378,4606 -123426,-7441 -139961,-13701 -65788,-25157 -127441,-79960 -165119,-138307 -45827,-70276 -62953,-160512 -37205,-240591 31418,-99922 138780,-180591 245198,-153662 7441,1653 18780,6260 31417,12520 -118,-2717 -236,-5552 -354,-8268 606970,239882 1190318,-783191 1190318,-783191 0,0 469490,637915 684687,692600 10276,105000 17363,210709 21378,315473 6260,153662 6851,305670 4489,451419l0 45118c-473,65197 -2835,131575 -24449,192638 -81851,230316 -404057,374883 -630356,424608 -11457,108544 4488,247442 26220,373111 1772,8622 2953,17126 4606,25158 440553,-24567 758861,-101103 758861,-101103 0,0 -76536,-1076105 -28465,-2076147z"/>
  <path class="fil4" d="M24569715 5385369c0,0 371458,-57047 942876,285828 571419,342875 2014376,1671383 1985793,2171463 -28582,499962 -1900044,2128589 -1900044,2128589l-414332 -514254 1014333 -1500122 -1395240 -1303587 -233386 -1267917z"/>
  <path class="fil14" d="M21016595 14957168c-154371,2308825 -251576,4752415 -251576,4752415l480828 290552 411734 -357166 1127837 -4685801 -1768823 0z"/>
  <path class="fil15" d="M21679667 19592417c11339,-10984 29764,-5197 33307,10158 15591,66614 51142,216142 90827,359410 3662,13111 6024,25866 7441,38386l-1837446 0c31418,-8386 64725,-16890 100158,-25394 695081,-167008 430986,-369331 646183,-340394 215316,28819 485434,322087 694372,172796 143977,-102875 227245,-178111 265158,-214962z"/>
  <path class="fil1" d="M20979153 15538154c0,0 733349,323741 1566737,409489 0,0 -590553,223820 -1590595,-114331l23858 -295158z"/>
  <path class="fil14" d="M23448137 14957168l152008 4685801 374411 357166 506458 -290552c0,0 331536,-2443590 582639,-4752415l-1615516 0z"/>
  <path class="fil15" d="M23608767 19592417c-11338,-10984 -29646,-5197 -33189,10158 -15590,66614 -51260,216142 -90945,359410 -3661,13111 -6024,25866 -7441,38386l1837564 0c-31417,-8386 -64724,-16890 -100158,-25394 -695198,-167008 -430985,-369331 -646182,-340394 -215316,28819 -485435,322087 -694372,172796 -143977,-102875 -227363,-178111 -265277,-214962z"/>
  <path class="fil1" d="M23479200 15990517c0,0 847679,-38149 1514414,-423780l-47599 423780c0,0 -857246,171379 -1466815,0z"/>
  <path class="fil8" d="M22126834 9042663c0,0 -714333,1428666 -885711,2714417 -171497,1285752 -271536,3771507 -271536,3771507 0,0 2328667,1042916 4100208,0 0,0 771380,-5057258 -85748,-6471632l-2857213 -14292z"/>
  <path class="fil1" d="M22916285 13421376c117638,-85157 229607,-170433 332835,-267166 104174,-95669 197718,-200906 291615,-311694 -55511,134883 -146220,253820 -252756,353623 -107717,98623 -233150,180001 -371694,225237z"/>
  <path class="fil1" d="M23189120 13565117c98623,-89292 194410,-175040 282875,-269292 89764,-93071 170670,-192993 255001,-295867 -45118,125669 -122245,238111 -213662,335198 -92481,96024 -201024,178583 -324214,229961z"/>
  <path class="fil1" d="M22283921 9356955c-95670,242836 -188032,486734 -274489,732758 -87992,245434 -171142,492521 -247560,741617 -151181,498544 -286182,1002758 -313701,1524217l-145749 1558469 -77717 778939 -83622 778466 55748 -780829 61772 -780474 132756 -1560123c11930,-129803 22796,-259725 42284,-390237 19606,-129922 44055,-258898 74291,-386222 59528,-255118 129450,-507403 212127,-755435 163347,-496537 351261,-984451 563860,-1461146z"/>
  <path class="fil14" d="M25338024 9354357c-125670,181300 -204804,295040 -217442,313229 -590,709 -472,591 -708,1063 -251339,45000 -431340,154016 -521458,211182 -69567,43937 -65552,95197 -54213,125788 5905,15590 22677,21260 37087,13464 68622,-37323 211536,-85866 253701,-47244 47481,43701 -410788,447993 -365080,524057 18426,30472 352206,-248387 352206,-248387 0,0 -302363,367088 -244016,387048 58110,19843 365552,-268583 365552,-268583 0,0 -258426,402993 -191221,398033 67087,-4961 310512,-287363 310512,-287363 -78543,157087 -88582,232559 -84212,267638 2126,16654 19606,23268 31653,11693 147284,-140315 321497,-575671 391182,-760750l119 118 1299 1772c148701,-87284 293032,-180946 433584,-279568 -166536,-120709 -335198,-238347 -498545,-363190z"/>
  <path class="fil14" d="M24098454 5136511c-21260,-123072 -36378,-258072 -25749,-364135l0 -473c4961,-52441 15945,-97677 36024,-130984l-519096 -265395 -546734 174922c19961,33307 42048,169016 46890,221457l-10984 -90000c10748,106181 6614,331536 -14764,454608 -31535,179882 -76772,333426 -76772,333426l1187956 0c0,0 -45236,-153544 -76771,-333426z"/>
  <path class="fil16" d="M23078805 4681903c0,0 353505,248859 1005830,19370 0,0 -510002,742089 -1005830,-19370z"/>
  <path class="fil4" d="M22136401 8814119c-34488,126379 -57166,323859 -57166,323859 1747682,376183 2938237,0 2938237,0 0,0 38032,-33425 0,-242953 -38150,-209528 237993,-1328508 309450,-1623784 71457,-295277 80905,-1133389 28582,-1428666 -52323,-295276 -542954,-471497 -714332,-452363 -171497,19016 -490514,-133347 -490514,-133347 -533269,471379 -1128546,0 -1128546,0 0,0 -233386,138071 -652443,157087 0,0 -671458,409608 -719057,866814 -47598,457088 614293,2061856 485789,2533353z"/>
  <path class="fil1" d="M22778922 7810770c60709,29291 125788,43937 191458,45118 65551,2835 131339,-3425 197126,-12874 130630,-19252 267757,-40394 405356,-25630 136653,14292 266221,50079 396261,70512 65078,10276 130984,15355 196536,11457 65669,-2126 130984,-15827 193347,-41103 -56575,36969 -123308,57284 -190513,68977 -67677,9803 -136536,9567 -204449,4370 -136064,-10984 -266458,-45236 -396852,-57402 -129921,-15354 -260434,3071 -395434,12402 -67205,4134 -135945,5906 -203859,-2953 -67677,-10630 -134764,-32362 -188977,-72874z"/>
  <path class="fil1" d="M22993529 5285448c-65315,112205 -124725,229489 -158150,353387 -16181,61299 -26929,126024 -13937,184961 11575,58701 57402,104882 114449,114331 57284,10276 119528,-6024 177875,-27520 58701,-22441 115276,-52677 169843,-85984 54685,-33308 107480,-70158 159095,-108780l76535 -59292 38504 -30708 5788 -4134 4370 -3071 1535 -945c2363,-1181 6969,-3071 10630,-3425 -5197,-27638 50079,50079 31063,36968l709 -1063c2008,-3307 2244,-7913 827,-10866 -945,-2244 1299,2008 1653,2717 3189,6023 6733,12283 11221,18897 66850,106182 152363,205749 250985,283230 49606,38622 103937,71693 162402,87874 29055,7795 58937,13464 88465,11102 30708,1772 56220,-6142 77126,-23268 41693,-35433 55039,-102047 58465,-163701 3543,-63189 -2953,-127559 -11693,-191339 -17481,-128032 -49489,-254528 -86339,-379371 49134,120827 86811,246260 113977,374765 11929,64488 21023,130158 20078,197244 -2126,65197 -8740,140434 -65551,195592 -28110,26338 -69331,38740 -103583,37913 -35551,3543 -70748,-2835 -104174,-11339 -67677,-17952 -127086,-53622 -180591,-94016 -106772,-82205 -195118,-181890 -268347,-294922 -4488,-6850 -8858,-14882 -13110,-23267 -1535,-2953 -1535,-2126 -3898,-8150 -2598,-6851 -3661,-15354 -2952,-22441l354 -2599c-19252,-13464 35905,63308 30118,36142 3189,-236 7323,-1771 9095,-2834l354 -237c827,-472 -118,237 -591,473l-4134 3071 -38267 29527c-25867,20197 -51969,39922 -78662,59292 -53150,38740 -107717,75709 -164646,109370 -57048,33662 -116103,64489 -179410,87756 -62835,22678 -132402,39804 -204213,24095 -72756,-14173 -130512,-79725 -140670,-149882 -11811,-69804 2953,-137127 22559,-200080 43701,-125079 108544,-239882 184843,-345473z"/>
  <path class="fil1" d="M22231598 9171286c10984,-69804 26102,-138662 43701,-207403 9449,-34252 20315,-68031 32953,-101693 6496,-16771 13228,-33425 21023,-49960 7441,-16536 11811,-31064 17953,-46418 33898,-129685 29528,-271654 18780,-408899 -10866,-138307 -35670,-275552 -69567,-410434 -17244,-67205 -36851,-134292 -62953,-198780 -22441,-66378 -54685,-128150 -87638,-190749 88701,110434 148228,242599 192756,377246 44882,135236 71811,275906 84331,417875 9213,141732 13465,287127 -34370,428032 -7795,16890 -15709,35434 -23858,50434 -8386,14645 -15945,30118 -23268,45590 -14764,31182 -27402,63662 -39685,96379 -26221,64842 -46654,132165 -70158,198780z"/>
  <path class="fil1" d="M24879283 9137978c-26693,-78189 -42284,-161457 -41693,-245906 826,-42165 6259,-84567 16771,-125906 11103,-42401 25276,-80079 34607,-119055 38740,-158859 72401,-320670 106535,-481891 34961,-161103 68623,-322678 105946,-483545l55512 -241300c20433,-80197 38740,-160630 60472,-240591 -19134,164410 -45236,327639 -72992,490513 -27166,162993 -59292,325041 -93071,486852 -35670,161457 -70630,322914 -120355,482245 -12756,40630 -30118,79607 -42047,116457 -12520,37914 -19725,77717 -23504,117875 -9922,80551 -473,162756 13819,244252z"/>
  <path class="fil14" d="M21174154 3965444c-15354,-6260 -31063,2244 -35079,18189 -18897,75709 -79843,213662 -136890,218505 -64252,5433 -51614,-605553 -138426,-623388 -34960,-7205 -55748,427442 -55748,427442 0,0 -65551,-471025 -119528,-441733 -54094,29527 -49960,450946 -49960,450946 0,0 -121654,-462993 -163465,-410198 -41693,52677 1299,423072 1299,423072 -62481,-164174 -111142,-222638 -139961,-243190 -13701,-9803 -30355,-1299 -30118,15355 3661,203268 205748,625750 294922,802561l-2126 0c-17126,79016 -32126,158268 -46063,237757 169134,-25867 337087,-65670 504095,-111969 -13818,-61418 -22204,-99567 -24567,-110197 0,-118 0,0 -118,-118 137835,-216025 178702,-422836 197717,-527955 14646,-80905 -25630,-112795 -55984,-125079z"/>
  <path class="fil4" d="M20545806 4728320l528663 -19134 395198 1719100c0,0 409489,-952444 900002,-1014334 490513,-61890 -142795,2152565 -142795,2152565 0,0 -514372,733231 -1023901,609451 -509529,-123780 -666616,-1038074 -690474,-1276185 -23741,-238111 33307,-2171463 33307,-2171463z"/>
  <path class="fil1" d="M21364903 6618798c20078,-74882 51260,-145040 85394,-213308l40275 -80079 11221 90709c7086,56221 12283,112560 13819,169371 1181,56693 826,113622 -7796,171378 -19724,-54921 -31181,-110669 -41102,-166654 -9685,-55866 -15591,-112205 -19606,-168780l51378 10630c-38741,65079 -80670,128268 -133583,186733z"/>
  <path class="fil1" d="M22003054 7814077c27638,-98504 70866,-189213 117756,-277914 48426,-87874 100749,-173859 167953,-250631 -27992,99213 -70984,189450 -117756,277796 -48425,87638 -100276,172914 -167953,250749z"/>
  <path class="fil14" d="M24753140 3613239c-30944,-97442 -135000,-175631 -238701,-150237 45945,-1355555 -1084137,-1173074 -1084137,-1173074 -709372,61535 -790278,815553 -784963,1199531 -23031,-13347 -44527,-23386 -56575,-26339 -103937,-25866 -208347,52441 -239528,150119 -24803,77952 -8031,165827 36496,234449 36969,56929 96969,110079 160985,134528 14646,5551 74882,15827 123780,14528 109725,885947 912522,798781 912522,798781 696026,34370 876735,-451655 917365,-802679 25984,-3189 47362,-7677 55394,-10630 64016,-24449 124016,-77599 160984,-134528 44528,-68622 61300,-156497 36378,-234449z"/>
  <path class="fil16" d="M23921052 3951862c0,125315 101575,227008 227008,227008 125433,0 227009,-101693 227009,-227008 0,-125434 -101576,-227009 -227009,-227009 -125433,0 -227008,101575 -227008,227009z"/>
  <path class="fil16" d="M22790970 3951862c0,125315 101693,227008 227126,227008 125316,0 227009,-101693 227009,-227008 0,-125434 -101693,-227009 -227009,-227009 -125433,0 -227126,101575 -227126,227009z"/>
  <path class="fil1" d="M23801406 3511309c0,74174 29409,134174 65551,134174 36260,0 65669,-60000 65669,-134174 0,-74173 -29409,-134292 -65669,-134292 -36142,0 -65551,60119 -65551,134292z"/>
  <path class="fil1" d="M24000776 3334616c-10984,21614 -25512,40630 -44291,57165 -18544,16654 -42166,29528 -68623,35551l-1063 237c-13110,3071 -26102,-5079 -29173,-18189 -2953,-12992 5197,-26103 18307,-29056 2126,-472 4252,-708 6378,-590 36615,1417 77363,-20906 105119,-53268l472 -472c2835,-3426 7795,-3662 11102,-945 2717,2480 3426,6378 1772,9567z"/>
  <path class="fil1" d="M23364633 3511309c0,74174 -29292,134174 -65552,134174 -36142,0 -65551,-60000 -65551,-134174 0,-74173 29409,-134292 65551,-134292 36260,0 65552,60119 65552,134292z"/>
  <path class="fil1" d="M23178608 3326466c27875,32362 68623,54685 105237,53268 13346,-591 24685,9921 25276,23268 472,13346 -10040,24685 -23386,25275 -2126,0 -4252,-118 -6260,-590l-1181 -355c-26575,-6023 -50197,-18897 -68622,-35551 -18780,-16535 -33308,-35551 -44410,-57165 -2008,-3898 -472,-8622 3425,-10512 3189,-1772 7205,-827 9567,1890l354 472z"/>
  <path class="fil1" d="M23829161 3917373c-22677,44292 -57283,82560 -98740,112323 -41457,30000 -93307,49252 -146811,48780 -53150,-1299 -105237,-19370 -146103,-50433 -21378,-13937 -38150,-33662 -56575,-50315 -15473,-19843 -30591,-39804 -44055,-60355 20315,14764 38740,30591 57283,45945 20670,12520 39095,27992 60000,38504 40749,23268 85276,36142 129568,36733 44764,1063 89173,-12992 130276,-35079 40866,-22677 79370,-51969 115157,-86103z"/>
  <path class="fil1" d="M23652114 4155366c-18662,16654 -44292,22677 -69095,23386 -24685,-827 -49961,-7441 -68976,-23386 24212,3898 46299,8622 69094,7795 22796,827 45118,-3071 68977,-7795z"/>
  <path class="fil17" d="M23419200 3045717c-30591,-27165 -65197,-36023 -101575,-37677 -36142,-827 -73111,3425 -108190,15354 -35433,10867 -68031,30709 -95315,54686 -28465,22913 -48425,53385 -65079,83386 -8386,15118 -2953,34134 12284,42519 12047,6851 26693,4607 36378,-4252l2716 -2480c21260,-19606 41811,-38032 64725,-51378 22087,-14882 46772,-22913 71457,-29291 25039,-5906 51024,-8977 77480,-7560 26221,827 54095,2245 82796,-4842l8268 -2008c17598,-4252 28464,-22087 24212,-39685 -1653,-6732 -5315,-12520 -10157,-16772z"/>
  <path class="fil17" d="M23746957 3045717c30590,-27165 65197,-36023 101575,-37677 36023,-827 73110,3425 108189,15354 35433,10867 68032,30709 95315,54686 28465,22913 48425,53385 64961,83386 8504,15118 2953,34134 -12165,42519 -12048,6851 -26812,4607 -36378,-4252l-2717 -2480c-21378,-19606 -41811,-38032 -64725,-51378 -22086,-14882 -46771,-22913 -71457,-29291 -24921,-5906 -51023,-8977 -77480,-7560 -26221,827 -54095,2245 -82796,-4842l-8385 -2008c-17599,-4252 -28347,-22087 -24095,-39685 1654,-6732 5315,-12520 10158,-16772z"/>
  <path class="fil1" d="M23598255 3306151c11575,50551 20197,100866 29528,150591 9685,49606 18780,99095 32953,146221 3307,11811 6850,23386 11102,34606 3425,9213 11693,26811 11457,43347 1653,33543 -19843,66260 -47126,79488 -27992,15709 -60118,13347 -85630,4607 -25748,-9331 -48308,-23268 -67796,-40512 47126,17716 102166,31535 135237,6496 16653,-12638 25630,-29528 23268,-47835 -827,-9449 -3780,-15473 -9922,-29882 -4960,-12520 -9449,-25158 -13228,-37914 -14291,-51141 -21732,-102756 -24567,-154488 -3071,-51614 -2008,-103229 4724,-154725z"/>
  <path class="fil1" d="M22431559 3685877c-827,-30827 7677,-64961 34961,-88820 28937,-23740 69921,-21496 101221,-9803 33189,11457 60354,34134 81732,59646 21969,25748 37914,53622 50788,85748 4724,11457 -827,24449 -12284,29174 -8622,3425 -18189,1181 -24331,-5079l-1535 -1536c-21732,-22086 -49252,-45826 -75118,-53149 -12993,-3307 -22559,-2953 -31536,3543 -9331,6496 -16535,20433 -22559,34724 -11457,29410 -18425,63898 6732,77481 26339,15118 64961,11457 99331,6850 -32480,14292 -68386,26221 -109134,14646 -20669,-6732 -37205,-30236 -38504,-51496 -2008,-21260 1063,-40512 6378,-59410 5551,-18661 13347,-38504 31654,-54803 18661,-16772 47953,-20669 68740,-14173 42520,12756 71103,37323 97796,65787l-38150 22559c-20551,-51378 -54331,-104882 -102993,-128858 -24448,-11811 -53267,-17599 -76299,-4725 -24213,12520 -38740,42166 -46890,71694z"/>
  <path class="fil1" d="M24700227 3685877c709,-30827 -7677,-64961 -34961,-88820 -28937,-23740 -70039,-21496 -101339,-9803 -33071,11457 -60354,34134 -81732,59646 -21969,25748 -37796,53622 -50788,85748 -4724,11457 945,24449 12284,29174 8740,3425 18307,1181 24331,-5079l1535 -1536c21732,-22086 49252,-45826 75118,-53149 12992,-3307 22559,-2953 31654,3543 9331,6496 16417,20433 22559,34724 11339,29410 18307,63898 -6850,77481 -26339,15118 -64961,11457 -99331,6850 32480,14292 68386,26221 109252,14646 20669,-6732 37087,-30236 38504,-51496 2008,-21260 -1063,-40512 -6378,-59410 -5551,-18661 -13465,-38504 -31772,-54803 -18661,-16772 -47835,-20669 -68740,-14173 -42402,12756 -71103,37323 -97796,65787l38150 22559c20551,-51378 54331,-104882 103111,-128858 24330,-11811 53267,-17599 76299,-4725 24095,12520 38740,42166 46890,71694z"/>
  <path class="fil17" d="M25224047 4133988c18898,-229134 -128032,-436064 -275434,-612640 -146811,-176575 -309095,-363426 -330827,-591970 -12048,-129213 22913,-260670 -2244,-387993 -41221,-212599 -237757,-361182 -438899,-441733 -308033,-123426 -660593,-133229 -975475,-26930 -314293,105709 -540592,395435 -754845,649727 -267993,318308 -355513,780120 -221812,1174964 48071,141142 122363,274843 150355,421654 31417,166890 1181,338859 -33071,505159 -33780,166300 -71457,336025 -54331,504687 3307,34842 9685,69685 19370,103937 38268,-13110 62835,-18898 62835,-18898 418820,-18779 652561,-157087 652561,-157087 0,0 5197,4016 15473,11457 9212,-40630 18307,-85748 26338,-132048 19370,-113740 25158,-316064 17126,-429214 0,-1063 0,-2244 -590,-3307 -591,-6378 -1772,-13228 -2835,-19488 -185197,-105118 -360592,-306261 -408072,-687994 -48543,1654 -108544,-8622 -122835,-14291 -63898,-23977 -123898,-77126 -161103,-134292 -44646,-68622 -61181,-156615 -36614,-234331 31417,-97678 135473,-175985 239410,-150237 10158,2835 27166,10276 45827,20315 9331,20551 17480,41457 27638,61536 20905,41338 51614,86693 97795,89055 46890,2244 81969,-41103 106418,-81142 57047,-93780 101929,-194882 133111,-300119 23386,-78662 39094,-159685 65787,-237284 26693,-77599 65670,-153308 126969,-207875 81378,-72283 208229,-101693 313229,-73110 -21732,81851 9095,171969 66615,233977 57520,62126 138425,98622 221221,116339 82913,17598 168189,18071 252875,17480 75118,-472 160394,2717 209646,59528 40039,46063 42638,113622 34842,174331 -7677,60591 -23622,121890 -12519,182008 7677,41339 37086,85867 79134,84450 28937,-1063 52087,-23268 72047,-44056 31063,-32126 62008,-64252 93071,-96378 100985,-19724 200906,56339 230906,151182 24686,77716 8150,165709 -36496,234331 -36614,57166 -96614,110315 -161221,134292 -7913,2834 -29055,7441 -55393,10275 -27402,244607 -124017,554884 -415395,708546 -5788,21732 -9685,45708 -12048,70866l0 591c-10275,106299 4607,241181 25748,364016 9095,50315 18780,98268 27993,141142 7913,-6259 16653,-13110 24567,-20551 0,0 318780,152599 490277,133111 77716,-8504 221103,22913 359410,87992 -472,-42283 -5669,-84567 -12520,-125079 -27401,-160630 -83386,-321733 -60590,-483426 37086,-263505 275434,-469726 296575,-735475z"/>
  <path class="fil13" d="M26330625 5061038c0,0 -180945,138071 -371458,204804 -190394,66614 -895160,285709 -961892,752364 -66732,466655 -261851,4709659 -261851,4709659l1257169 0 471379 -5428716 -133347 -238111z"/>
  <path class="fil18" d="M23473294 8426008c-257717,-128268 -496536,-150119 -616301,-159213 -89882,-6851 -120236,38032 -130512,70394 -5079,16535 5906,31772 23622,34252 84686,11811 241891,60709 253229,118937 12874,65670 -655159,114804 -665316,206103 -4016,36733 472324,13937 472324,13937 0,0 -506931,115512 -469135,168190 37913,52677 497481,5669 497481,5669 0,0 -492166,172441 -430158,210119 62008,37677 461576,-44410 461576,-44410 -172324,81142 -231025,137363 -250277,169134 -9212,15000 1890,31418 20079,29410 224646,-24803 673939,-283347 852050,-390474 0,119 118,119 118,119 93307,51850 188977,100393 286182,146339l0 -595042c-161575,8741 -269056,14528 -304962,16536z"/>
  <path class="fil13" d="M23563885 8396835c0,0 -28464,621497 0,685750 28583,64252 1764336,557127 2292999,342875 528545,-214253 700041,-2478669 642876,-2871505 -57166,-392953 -628585,-1071499 -757207,-1071499 -128623,0 -628585,114331 -735711,585711 -107126,471497 -185670,2278707 -185670,2278707l-1257287 49961z"/>
  <path class="fil18" d="M24283415 18585288c-9922,359175 -17717,677128 -23504,934964l656458 160276 356930 -182953 187914 -912287 -1177798 0z"/>
  <path class="fil1" d="M24243848 19344858c0,0 -197835,189095 -369804,266575 -172088,77481 -946184,34370 -894570,421537l1789139 0 159095 -159095 0 176339 356930 0c0,0 137599,-395789 8622,-636616 0,0 -258071,232205 -541891,128977 -283820,-103111 -507521,-197717 -507521,-197717z"/>
  <path class="fil18" d="M26849013 18585288l29763 878034 589963 255355 389292 -243898c26811,-243662 61063,-546143 100394,-889491l-1109412 0z"/>
  <path class="fil1" d="M26839209 19344858c0,0 -197835,189095 -369922,266575 -171969,77481 -946184,34370 -894569,421537l1789257 0 159095 -159095 0 176339 356930 0c0,0 137598,-395789 8504,-636616 0,0 -257954,232205 -541892,128977 -283819,-103111 -507403,-197717 -507403,-197717z"/>
  <path class="fil1" d="M25221095 9504003l2778905 0 0 9262585 -50197 452009 -1171539 0 -128504 -6700176 -1257169 6643011 -1185830 0c0,0 -128504,-7314470 1014334,-9657429z"/>
  <path class="fil4" d="M26202121 9575460l-12638 352914 -14646 352797 -34134 705356 -1417 -9685 270001 741616c90473,247087 176339,495828 264686,743624l-50079 8740c354,-285827 3779,-571537 8031,-857246 3307,-285709 9803,-571419 17835,-857128 7913,285709 14528,571419 17598,857128 4371,285709 7796,571419 8150,857246l118 147639 -50197 -139016c-89409,-247442 -181300,-493939 -268583,-742089l-263505 -744097 -1653 -4960 354 -4725 51614 -704293 28229 -351970 30236 -351851z"/>
  <polygon class="fil4" points="28000000,17167725 27910708,18076232 27802165,19118558 27882834,18073634 27969527,17029182 28000000,16680992 "/>
  <path class="fil4" d="M26373499 11737474c-89173,612994 -184488,1225043 -280748,1836856l-295867 1834493 -308860 1832367 -159095 915357 -165000 914412 137363 -918900 143386 -918074 295985 -1834493 308859 -1832249c105355,-610277 211536,-1220555 323977,-1829769z"/>
  <path class="fil18" d="M27491180 5506551c-179883,-455434 -22323,-1407406 -2244,-1524926 826,-4015 1299,-7677 2244,-11811l-1220555 686459c20433,34134 31890,80551 36851,134292l0 472c10866,108780 -4607,247324 -26339,373466 -32481,184370 -78898,342048 -78898,342048l1288941 0z"/>
  <path class="fil19" d="M26281137 5164503c663545,83740 999688,-708664 1011971,-738309 -122599,194528 -300119,292914 -473741,339686 -213544,58346 -420828,38740 -507758,26102 -1417,-472 -2716,-472 -4133,-945 10866,108780 -4607,247324 -26339,373466z"/>
  <path class="fil4" d="M26235428 5175369c0,0 164292,321379 314292,300001 150001,-21496 892916,-414332 892916,-414332 0,0 266812,199016 557364,240355l0 4202610 -2778905 0c0,0 -107127,-121418 -49961,-264331 57165,-142796 -71457,-1871462 -121418,-2271503 -50079,-399922 -157205,-1071381 221457,-1278547 378545,-207166 835633,-307205 964255,-514253z"/>
  <path class="fil1" d="M26064050 5368243c-591,68032 -237,135828 2834,202560 1890,33307 4134,66614 10748,97323 3071,15355 7796,29410 13111,39803 3425,2953 4724,6142 4960,4843 1300,709 7796,472 13701,-236 55630,-10394 117402,-46181 175276,-76300 58111,-32598 116457,-66614 173268,-101693l21615 -13346 11574 20433c24331,43228 50197,86457 77009,128622 13582,20906 26811,42284 42047,61890 15709,19016 30472,40276 53858,50315 -25984,-3543 -46771,-22677 -65787,-39213 -19134,-17362 -36969,-35905 -53859,-55157 -33661,-38859 -64134,-79489 -93307,-121890l33189 7086c-55630,40276 -112323,77953 -172087,111851 -29764,17362 -60355,33425 -92362,47599 -32481,13582 -64016,28582 -105001,32834 -10866,355 -21732,1418 -36496,-4015 -16772,-5906 -24449,-18780 -31417,-28819 -9331,-20197 -13819,-38977 -15591,-57048 -3779,-36142 -3661,-70866 -827,-105236 5197,-68741 16890,-136064 33544,-202206z"/>
  <polygon class="fil1" points="22347110,9079041 25819915,9079041 25819915,6801870 22347110,6801870 "/>
  <polygon class="fil1" points="22347110,9261286 27801102,9261286 27801102,9079041 22347110,9079041 "/>
  <polygon class="fil1" points="25819915,9261286 27801102,9261286 27801102,9079041 25819915,9079041 "/>
  <polygon class="fil1" points="25683261,9079041 25819915,9079041 25819915,6801870 25683261,6801870 "/>
  <path class="fil4" d="M24297234 7927818c-118,-72520 -31063,-143977 -83741,-192521 -52441,-48661 -123898,-73110 -192402,-69331 -140433,5315 -250630,131458 -247678,261852 -3071,130394 107008,256772 247678,261969 68622,3661 139961,-20788 192402,-69449 52796,-48544 83504,-120119 83741,-192520zm0 0c708,72401 -27993,144567 -78071,198071 -49607,54095 -121772,89173 -198072,92362 -75945,3780 -154961,-23858 -212717,-77834 -57874,-53623 -91890,-132757 -92008,-212599 0,-79843 34016,-159095 92008,-212718 57638,-54094 136772,-81614 212717,-77834 76300,3189 148465,38267 198072,92362 50197,53622 78779,125788 78071,198190z"/>
  <path class="fil13" d="M27442636 5061038c0,0 -807167,528545 -764293,1114255 42756,585828 -42874,4543123 -42874,4543123l1364531 0 0 -5481275c-218268,-47835 -423072,-90945 -557364,-176103z"/>
  <path class="fil1" d="M26661335 9281719c0,0 721537,-48898 1338665,-106299l0 51968 -1341382 256064 2717 -201733z"/>
  <path class="fil1" d="M26763973 10461289c157205,-11929 314292,-17480 471497,-21968 157087,-5197 314293,-5906 471380,-6614 97795,354 195473,944 293150,2362l0 52323c-97677,1535 -195355,2008 -293150,2362 -157087,-709 -314293,-1417 -471380,-6614 -157205,-4607 -314292,-10158 -471497,-21851z"/>
  <path class="fil20" d="M26282436 8534079c-97559,36496 -162638,60827 -188268,70394 -8268,3071 -12520,4370 -12520,4370l152245 400749c0,118 118,118 118,118 40748,8386 81732,15709 122835,23032 -25866,-165945 -50079,-332363 -74410,-498663z"/>
  <path class="fil18" d="M26300271 8944159c0,0 -492167,579687 -753900,694726 -16772,7441 -32126,-4842 -27874,-21968 8858,-36142 47835,-107363 188032,-236458 0,0 -356458,198190 -426970,180828 -70512,-17363 347127,-329529 347127,-329529 0,0 -424135,182835 -476103,143977 -51969,-38976 396969,-301182 396969,-301182 0,0 -447639,164646 -454726,128386 -17716,-90236 604845,-337442 572837,-396379 -28347,-51968 -192993,-51496 -277324,-37323 -17716,2953 -32717,-8386 -32717,-25630 0,-34016 15473,-85866 103347,-106417 135473,-31418 428387,-95079 774333,-4134l66969 311103z"/>
  <path class="fil13" d="M28000000 9187467c-924215,102284 -1693115,102284 -1693115,102284l-157205 -814373 1850320 -721065 0 1433154zm0 -1607603c-209764,-317718 -701341,-1087680 -678781,-1290240 13464,-121418 338859,-290552 678781,-435237l0 1725477z"/>
  <path class="fil1" d="M27659251 6737263c53740,79843 105355,160985 157678,241654 52677,80434 102520,162639 154016,243780l29055 46418 0 82677 -61890 -109488c-47008,-83859 -95551,-166772 -141260,-251458 -46063,-84449 -92953,-168307 -137599,-253583zm340749 1104098l-132048 43346 -391418 128032c-261969,82441 -524057,164528 -788742,238938 255945,-100394 514607,-192757 773269,-285001l389411 -133937c49725,-17363 99567,-34371 149528,-51024l0 59646z"/>
  <path class="fil1" d="M27487754 6299191c-23504,-81024 -32952,-166182 -31417,-251221 1299,-85158 15236,-170552 41457,-252875 28110,-81851 71693,-159095 129803,-223347 57166,-66024 135001,-109016 212599,-139252 -67913,50315 -130984,102047 -178347,167835 -46889,65197 -84567,136417 -109960,212835 -25394,76536 -40985,156496 -51142,237875 -8977,81378 -14646,164055 -12993,248150z"/>
  <path class="fil18" d="M27829803 3602254c-31890,-100276 -139016,-180709 -245670,-154016 -7441,1772 -18898,6614 -31418,12756 14410,-350198 -36732,-733703 -280158,-945475 -523702,-455434 -1275240,-295985 -1434571,113858 -182363,468663 -191693,1048704 -185552,1544769 827,64960 2717,131220 24449,192402 83268,235512 418938,380788 645711,427796 291733,60591 584765,-15709 813545,-205867 181536,-150827 298938,-363426 349017,-593859 51969,4488 125552,-7796 142087,-14056 65788,-25039 127323,-79488 165237,-137953 45590,-70276 62716,-160512 37323,-240355z"/>
  <path class="fil1" d="M26033577 3452018c0,76063 -30118,137717 -67205,137717 -37205,0 -67323,-61654 -67323,-137717 0,-76064 30118,-137717 67323,-137717 37087,0 67205,61653 67205,137717z"/>
  <path class="fil1" d="M26481452 3452018c0,76063 30237,137717 67323,137717 37205,0 67205,-61654 67205,-137717 0,-76064 -30000,-137717 -67205,-137717 -37086,0 -67323,61653 -67323,137717z"/>
  <path class="fil1" d="M26004994 3868594c23386,45354 58938,84567 101457,115157 42520,30709 95670,50552 150473,50079 54567,-1417 107953,-19960 149883,-51732 21968,-14410 39094,-34488 58110,-51615 15827,-20433 31181,-40866 45118,-61889 -20787,15118 -39685,31417 -58819,47008 -21142,12874 -40039,28700 -61417,39567 -41812,23858 -87402,36968 -132993,37677 -45827,1181 -91417,-13347 -133465,-36024 -42047,-23268 -81614,-53268 -118347,-88228z"/>
  <path class="fil21" d="M26186648 4112610c19252,17126 45473,23268 70867,24095 25512,-945 51378,-7796 70866,-24095 -24921,4016 -47480,8858 -70984,8032 -23386,826 -46182,-3189 -70749,-8032z"/>
  <path class="fil21" d="M26425586 2974497c31418,-27756 66969,-36851 104174,-38504 37086,-945 75118,3425 111024,15708 36260,11103 69803,31536 97677,55985 29173,23622 49725,54803 66732,85512 8623,15590 3071,35197 -12519,43701 -12402,6968 -27402,4724 -37441,-4371l-2599 -2480c-21968,-20197 -42874,-39094 -66496,-52795 -22559,-15237 -47953,-23504 -73347,-30118 -25512,-5906 -52204,-9095 -79370,-7678 -26811,945 -55394,2244 -84921,-4960l-8504 -2008c-18071,-4370 -29174,-22677 -24804,-40748 1772,-6969 5433,-12874 10394,-17244z"/>
  <path class="fil21" d="M26089443 2974497c-31299,-27756 -66850,-36851 -104173,-38504 -36969,-945 -75000,3425 -111024,15708 -36260,11103 -69685,31536 -97677,55985 -29174,23622 -49725,54803 -66733,85512 -8622,15590 -2953,35197 12520,43701 12401,6968 27520,4724 37441,-4371l2598 -2480c21969,-20197 42993,-39094 66497,-52795 22559,-15237 47952,-23504 73346,-30118 25630,-5906 52205,-9095 79370,-7678 26930,945 55512,2244 85040,-4960l8386 -2008c18071,-4370 29291,-22677 24803,-40748 -1771,-6969 -5433,-12874 -10394,-17244z"/>
  <path class="fil21" d="M26121806 3228907c-11929,51850 -20670,103346 -30237,154370 -10039,50906 -19370,101693 -33897,149883 -3307,12047 -7087,24094 -11339,35551 -3543,9449 -11929,27520 -11693,44409 -1772,34489 20315,68032 48307,81615 28701,16063 61654,13583 87757,4724 26456,-9567 49488,-23858 69567,-41575 -48308,18189 -104764,32363 -138780,6614 -17008,-12992 -26221,-30236 -23741,-49015 827,-9685 3898,-15827 10040,-30591 5197,-12874 9803,-25866 13583,-38977 14763,-52322 22441,-105354 25275,-158386 3071,-52913 2126,-105945 -4842,-158622z"/>
  <path class="fil21" d="M27751141 3663790c827,-31654 -8031,-66615 -35906,-91063 -29645,-24331 -71811,-22087 -103819,-10040 -34016,11811 -61890,35079 -83858,61181 -22441,26339 -38859,55040 -52205,87875 -4725,11811 1063,25157 12756,29882 8858,3661 18661,1299 24921,-5197l1536 -1536c22441,-22677 50551,-46890 77126,-54449 13346,-3543 23149,-3070 32362,3544 9567,6732 16890,21023 23150,35787 11693,30118 18779,65433 -6969,79371 -27047,15354 -66614,11692 -101811,6968 33307,14646 70039,27047 111851,15000 21260,-6850 38149,-30945 39567,-52795 2008,-21733 -1063,-41457 -6496,-60827 -5788,-19252 -13819,-39567 -32717,-56339 -19016,-17126 -49016,-21142 -70394,-14528 -43583,13111 -72992,38268 -100276,67560l39213 23149c21024,-52677 55630,-107598 105591,-132284 25039,-11929 54567,-17952 78189,-4724 24803,12874 39803,43229 48189,73465z"/>
  <path class="fil21" d="M27902323 3358710c-34371,-258308 -163465,-529135 -385750,-664608 35434,-186260 -88582,-374883 -253701,-467482 -165119,-92480 -362363,-106299 -552049,-101102 -189095,5197 -379489,27401 -566931,-473 -99921,-15472 -199370,-44645 -300000,-32716 -162284,18897 -295986,144095 -371340,289134 -94252,181182 -113150,400041 -50315,594451 58346,181654 183426,343938 244016,520513 6969,-101693 17363,-203268 31654,-303544 18189,-5433 35906,-15118 51732,-25748 103465,-69095 181418,-174449 292678,-230316 148702,-74646 325867,-47008 490159,-20197 164292,26811 353151,47363 496891,-36496 -49960,178465 -12283,379371 99095,527600 44764,59646 102756,115748 113622,189449 4725,32245 -236,65079 1536,97678 1772,32480 12165,67323 39095,85748 32126,21969 78189,12166 108543,-12520 30473,-24567 48780,-60590 66142,-95551 36260,-72520 72520,-145040 108898,-217560 6850,-2952 13110,-5433 17717,-6614 106772,-26811 213780,53859 245670,153780 25748,80079 8622,170316 -37087,240591 -38268,58347 -99449,112560 -165237,137717 -16535,6378 -88465,18898 -140551,14292 -5670,33779 -16536,101102 -28583,190276 114921,-101693 245197,-191457 331536,-316537 101103,-146339 135355,-333189 112560,-509765z"/>
 </g>
</svg>
