<?xml version="1.0" encoding="UTF-8"?>
<!DOCTYPE svg PUBLIC "-//W3C//DTD SVG 1.1//EN" "http://www.w3.org/Graphics/SVG/1.1/DTD/svg11.dtd">
<!-- Creator: CorelDRAW Home & Student X8 -->
<svg xmlns="http://www.w3.org/2000/svg" xml:space="preserve" width="280px" height="200px" version="1.1" style="shape-rendering:geometricPrecision; text-rendering:geometricPrecision; image-rendering:optimizeQuality; fill-rule:evenodd; clip-rule:evenodd"
viewBox="0 0 28000000 19999899"
 xmlns:xlink="http://www.w3.org/1999/xlink">
 <defs>
  <style type="text/css">
   <![CDATA[
    .fil15 {fill:#DDC9A3}
    .fil6 {fill:#0E1E2B;fill-rule:nonzero}
    .fil20 {fill:#10312B;fill-rule:nonzero}
    .fil28 {fill:#1F3B6B;fill-rule:nonzero}
    .fil18 {fill:#202338;fill-rule:nonzero}
    .fil17 {fill:#235B4E;fill-rule:nonzero}
    .fil12 {fill:#252E3B;fill-rule:nonzero}
    .fil26 {fill:#292C47;fill-rule:nonzero}
    .fil29 {fill:#323657;fill-rule:nonzero}
    .fil22 {fill:#5D676C;fill-rule:nonzero}
    .fil9 {fill:#691C20;fill-rule:nonzero}
    .fil4 {fill:#6E727B;fill-rule:nonzero}
    .fil24 {fill:#6F7271;fill-rule:nonzero}
    .fil23 {fill:#7F827F;fill-rule:nonzero}
    .fil19 {fill:#81807E;fill-rule:nonzero}
    .fil7 {fill:#98989A;fill-rule:nonzero}
    .fil14 {fill:#A77860;fill-rule:nonzero}
    .fil25 {fill:#B4B1BA;fill-rule:nonzero}
    .fil8 {fill:#BC955C;fill-rule:nonzero}
    .fil11 {fill:#D6C5BE;fill-rule:nonzero}
    .fil21 {fill:#D8D5E0;fill-rule:nonzero}
    .fil16 {fill:#DB9C7C;fill-rule:nonzero}
    .fil0 {fill:#DDC9A3;fill-rule:nonzero}
    .fil1 {fill:#E8913A;fill-rule:nonzero}
    .fil27 {fill:#EAE6F2;fill-rule:nonzero}
    .fil10 {fill:#EDDAD3;fill-rule:nonzero}
    .fil5 {fill:#EEA886;fill-rule:nonzero}
    .fil13 {fill:#FAE6DE;fill-rule:nonzero}
    .fil3 {fill:#FFDC94;fill-rule:nonzero}
    .fil2 {fill:url(#id0)}
   ]]>
  </style>
  <linearGradient id="id0" gradientUnits="userSpaceOnUse" x1="2.5789e+07" y1="1.46393e+07" x2="1.96004e+07" y2="74645.9">
   <stop offset="0" style="stop-opacity:1; stop-color:#FF9F55"/>
   <stop offset="1" style="stop-opacity:1; stop-color:#FFD255"/>
  </linearGradient>
 </defs>
 <g id="Capa_x0020_1">
  <metadata id="CorelCorpID_0Corel-Layer"/>
  <path class="fil0" d="M16005990 5831591c97559,-2454456 1631461,-4944463 3992019,-5624307 2053588,-591380 4224697,225591 6183561,1080121 594214,259253 1200594,525120 1815713,759451l0 13181612c-1080711,276969 -2208195,370631 -3318788,262087 -3687176,-360119 -6752618,-2763787 -8058448,-6184033 -422246,-1106105 -661183,-2287801 -614057,-3474931z"/>
  <path class="fil0" d="M24594754 20000607c-608387,-414686 -1202129,-861616 -1803548,-1273704 -1592485,-1090987 -3584538,-2000675 -5404976,-1358862 -1029334,362954 -1845478,1186421 -2407566,2122093 -99803,166181 -191811,336615 -276260,510473l9892350 0z"/>
  <g id="_1485556672">
   <path class="fil1" d="M27997283 2041541l-7474627 0c-2264298,150591 -2254258,2645086 -2254258,2645086l0 11919483 8839159 0 0 -11919483c0,0 22441,-1332287 889726,-2108037l0 -537049z"/>
   <path class="fil2" d="M26754642 16444180l-8692465 -90236 -146694 -8111598 0 -3717648c0,0 -10157,-2494377 2254377,-2644968l7827423 0 0 283229c-1214767,687640 -1242641,2361739 -1242641,2361739l0 11919482z"/>
   <polygon class="fil3" points="19076156,5529228 25147512,5529228 25147512,4993479 19076156,4993479 "/>
   <polygon class="fil3" points="19076156,6611830 24260147,6611830 24260147,6232340 19076156,6232340 "/>
   <polygon class="fil3" points="19076156,7797542 21682148,7797542 21682148,7234036 19076156,7234036 "/>
   <polygon class="fil3" points="22452228,7797542 25147512,7797542 25147512,7234036 22452228,7234036 "/>
   <polygon class="fil3" points="19076156,8721166 23227979,8721166 23227979,8319354 19076156,8319354 "/>
   <polygon class="fil3" points="19076156,9546995 23753925,9546995 23753925,9323766 19076156,9323766 "/>
   <polygon class="fil3" points="19076156,10551526 24701172,10551526 24701172,10328297 19076156,10328297 "/>
   <path class="fil3" d="M19095172 12541216l2567842 0 0 -1189373 -2567842 0 0 1189373zm2606109 38268l-2644259 0 0 -1265791 2644259 0 0 1265791z"/>
   <polygon class="fil3" points="22334945,11622907 24701172,11622907 24701172,11332709 22334945,11332709 "/>
   <polygon class="fil3" points="22334945,12236727 24011997,12236727 24011997,11946530 22334945,11946530 "/>
   <polygon class="fil3" points="19076156,13564881 24134595,13564881 24134595,13341652 19076156,13341652 "/>
   <polygon class="fil3" points="19076156,14569293 21740730,14569293 21740730,14346182 19076156,14346182 "/>
   <path class="fil3" d="M24492943 14781420l1356618 0 0 -1356618 -1356618 0 0 1356618zm1509571 152953l-1662524 0 0 -1662525 1662524 0 0 1662525z"/>
   <polygon class="fil3" points="25197472,14448230 24613652,13897834 24788456,13712283 25209165,14108780 26126766,13354762 26288696,13551770 "/>
   <path class="fil4" d="M23370302 12264956l0 0zm-506340 -1744966c-3425,-6023 -6732,-11693 -10276,-17598 3544,5905 6851,11575 10276,17598zm-5133676 -1365712c592797,-343111 1240279,-506222 1879257,-506222 -177402,0 -355867,12638 -533387,38150 -395316,56929 -787325,178228 -1160673,367678l0 0c-54212,27401 -107834,56220 -161102,86575 -8032,4606 -16063,9212 -24095,13819zm1879848 -506222c-236,0 -236,0 -354,0l0 0c118,0 118,0 354,0z"/>
   <path class="fil5" d="M18826470 15097720c0,0 34252,32598 45945,63071 9331,24094 40512,55984 55158,74055 14764,18307 69921,103465 77599,127087 3189,9685 -945,76654 7677,95670 8858,18897 31299,55393 14291,62244 -17126,6850 -46299,-20433 -46299,-20433 0,0 6968,17834 -6142,28228 -25158,20433 -45473,6142 -45473,6142 0,0 -3661,28701 -16299,34606 -28228,13111 -45709,-1417 -45709,-1417 0,0 -10275,20315 -30945,24803 -26456,5788 -43228,-18307 -43228,-18307 0,0 -31063,13465 -45236,236 -13937,-13228 -18071,-25039 -26103,-38150 -8031,-13110 -41102,-141024 -24094,-243071 17126,-101929 -62599,-178347 -62599,-178347l191457 -16417z"/>
   <path class="fil6" d="M18667848 15496225c-14882,0 -26693,11929 -26693,26575l0 277678c0,14645 11811,26692 26693,26692l439962 0c14763,0 26811,-12047 26811,-26692l0 -277678c0,-14646 -12048,-26575 -26811,-26575l-439962 0zm439962 385158l-439962 0c-44764,0 -81142,-36260 -81142,-80905l0 -277678c0,-44528 36378,-80906 81142,-80906l439962 0c44764,0 81142,36378 81142,80906l0 277678c0,44645 -36378,80905 -81142,80905z"/>
   <polygon class="fil7" points="18062177,16945441 19713481,16945441 19713481,15762328 18062177,15762328 "/>
   <path class="fil5" d="M18186429 12596728c0,0 -84567,1181 -120591,254056 -36142,252875 32244,358702 40394,463820 8150,105237 131575,784963 135000,815081 3307,29882 19843,391655 68032,487679 48189,96024 402048,640041 406655,667207 4724,27165 171851,-94725 171851,-94725 0,0 -278033,-582049 -293978,-648309 -16299,-66378 -128150,-405474 -110433,-509057 17717,-103464 -49488,-674411 -42992,-737954 6496,-63544 -91772,-659176 -253938,-697798z"/>
   <path class="fil8" d="M18186429 12596728c0,0 -84567,1181 -120591,254056 -36142,252875 -3543,344056 18307,453663 20670,103465 90827,736774 94134,766892 3308,29882 87284,411733 130985,546025 33189,102166 348662,636852 353387,664018 4724,27165 245434,-124961 245434,-124961 0,0 -308623,-601892 -324686,-668270 -16063,-66496 -68268,-296221 -70040,-401340 -2008,-123189 -79488,-728742 -72992,-792285 6496,-63544 -17835,-611341 -253938,-697798z"/>
   <path class="fil9" d="M17478947 18494934c0,0 147284,218741 206575,271300 0,0 136654,47953 145158,140788 5551,60827 118,158268 -155906,162756 -156024,4370 -256182,-50079 -284764,-144685 -28583,-94607 -82560,-136772 -82560,-136772l0 197835 -35197 0c0,0 -8740,-191221 -10984,-226418 -2244,-35079 -25276,-170434 48898,-230316 74291,-59882 168780,-34488 168780,-34488z"/>
   <path class="fil9" d="M18478044 18320130c0,0 25512,60237 73583,123190 35315,45945 145158,235158 193583,248268 48307,13228 197835,39567 210946,123189 13228,83386 19724,142796 -127442,149528 -147284,6496 -244016,15237 -314410,-87992 -70276,-103347 -182481,-178111 -182481,-178111l0 269647 -57165 0c0,0 -26339,-280631 -41693,-300474 -15473,-19724 -55040,-235158 81260,-347245 136299,-112205 163819,0 163819,0z"/>
   <path class="fil5" d="M17379970 14273072c0,0 -185906,241890 -236457,528663 -50433,286772 29882,1249727 27638,1391460 -2244,141733 -134056,494647 -107717,761813 26338,267048 246733,1574414 246733,1574414l168780 -34488c0,0 -16536,-1355319 0,-1467406 16417,-112205 49488,-520867 56102,-567049 6615,-46063 418702,-1258232 418702,-1465161 0,-206694 -125315,-1059806 -573781,-722246z"/>
   <path class="fil5" d="M18314225 14367560c0,0 305670,1166224 341812,1327799 36378,161575 88937,294804 88937,363426 0,159213 -59173,414805 -59173,414805l-207757 1846540 -163819 0c0,0 -103347,-1078349 -119764,-1295909 -16536,-217678 118701,-554057 85748,-646301 -32953,-92362 -530907,-1157483 -530907,-1157483 0,0 -377009,-1191500 564923,-852877z"/>
   <path class="fil5" d="M17710916 18777454c0,0 -128386,66142 -244843,-21023 -116457,-87166 -155906,-227009 -155906,-227009l168780 -34488 231969 282520z"/>
   <path class="fil5" d="M18745210 18691588c0,0 -131929,33071 -182599,0 -50551,-33071 -222402,-323505 -279331,-340867 0,0 55157,-111969 194764,-30591 0,0 229725,323151 267166,371458z"/>
   <path class="fil9" d="M18705289 15881265c0,0 -561380,330474 -1613627,330474 0,0 -59646,-1220437 93308,-1563903 153071,-343229 1168586,-129803 1168586,-129803 0,0 315709,1110712 351733,1363232z"/>
   <path class="fil10" d="M17938279 12505547c0,0 163229,77126 219922,88465 56575,11338 276497,296812 315001,401103 38504,104292 0,260552 -79371,444214 -79252,183662 -4488,244843 -40748,428387 -36260,183544 -68032,572246 -61181,674175 6732,102048 -916774,121300 -1127484,-64606 0,0 211773,-317245 239056,-362482 27166,-45354 4488,-292441 -20433,-355985 -24921,-63307 -190867,-603072 -190867,-603072 0,0 -135827,-414450 -13110,-509647 106536,-82678 396852,-112324 448938,-130395 52087,-18070 203741,-25984 310277,-10157z"/>
   <path class="fil11" d="M17990484 12869328l99094 -116103 -86102 -305670c0,0 -28937,170197 -12992,421773z"/>
   <path class="fil5" d="M17732412 11347473c96969,-34252 453190,-117993 537049,337678 83858,455552 -167717,779530 -398860,693545 -231142,-86220 -373938,-401103 -387520,-641458 -13583,-240237 126850,-346655 249331,-389765z"/>
   <path class="fil12" d="M18269461 11685151c0,0 17480,-389883 -370041,-403466 -387520,-13701 -491812,305552 -460158,537994 31771,232560 192166,355276 192166,355276 0,0 -13938,-188150 61299,-237047 75236,-48898 376655,-146221 508112,-372875 0,0 60945,71456 68622,120118z"/>
   <path class="fil12" d="M17786270 11643812c-51023,155316 -202441,244843 -338150,200316 -135709,-44646 -204331,-206694 -153189,-362009 51023,-155197 202441,-244843 338150,-200198 135591,44646 204213,206576 153189,361891z"/>
   <path class="fil5" d="M18016232 12317279c0,0 -32599,299292 -25748,396851 0,0 -169607,169843 -362482,-198426 0,0 81142,-151772 20079,-358583 -61063,-206812 368151,160158 368151,160158z"/>
   <polygon class="fil5" points="17990484,12714130 17990484,12869328 17795247,12723461 "/>
   <polygon class="fil11" points="17990484,12869328 17909460,12769052 17636506,12497043 17548160,12581965 "/>
   <path class="fil8" d="M17598593 12523027c0,0 229016,347600 240000,500553 10867,152953 -85157,1297445 -162047,1665359 -76890,367678 -632837,-41575 -632837,-41575 0,0 373584,-604608 230198,-1088625 -143386,-484135 -195473,-677600 -195473,-677600 0,0 49370,-269647 224174,-307560 153189,-33189 295985,-50552 295985,-50552z"/>
   <path class="fil8" d="M18488202 13041533c0,0 41456,146221 -119528,469253 0,0 2480,413505 7086,542836 4489,129095 35079,617600 35079,617600l-159095 93190c-32126,18661 -71811,-7323 -67323,-44174 45118,-371812 191694,-1781934 -125079,-2161069l127087 37559c0,0 225828,184725 301773,444805z"/>
   <path class="fil5" d="M17731703 11855585c-14173,-35788 -61181,-45827 -88346,-25394 -27284,20433 -43111,81614 0,160866 42992,79371 194882,134646 88346,-135472z"/>
   <polygon class="fil13" points="18089578,12753225 18214539,12787713 18003476,12447555 "/>
   <polygon class="fil13" points="17909460,12769052 17795247,12918698 17560916,12528106 17636506,12497043 "/>
   <path class="fil14" d="M18009499 12383184l-5669 60001c0,0 -134764,25275 -311103,-189922 0,0 124961,152481 316772,129921z"/>
   <path class="fil5" d="M18702927 14215788c0,0 79370,51024 124842,22677 38859,-24449 106418,-27756 127324,-28819 27874,-1417 111732,-37677 113858,-2598 2126,35079 -135354,66378 -162874,78780 -27520,12401 93661,71575 107244,99803 13701,28228 -95669,223347 -174213,173150 -78425,-50315 -129095,-155670 -144685,-161811 -15473,-6142 -58465,-34252 -58465,-34252l66969 -146930z"/>
   <path class="fil5" d="M17197726 12628028c0,0 109960,-27284 205158,74764 95197,101929 142795,269646 167717,324095 24921,54331 339922,557482 358111,568821 18071,11338 338269,269764 483308,407953 145040,138190 427679,292324 427679,292324l-106418 149646c0,0 -859018,-457796 -967798,-625513 -108780,-167717 -543072,-632364 -543072,-632364 0,0 -259371,-390710 -24685,-559726z"/>
   <path class="fil5" d="M18997849 14369568c0,0 230079,169725 235985,193938 5787,24094 -4134,36023 -26339,21023 -22205,-14882 -227009,-157559 -227009,-157559 0,0 238466,246615 247678,265394 5315,10984 -12638,35197 -25275,28229 -12402,-6851 -262914,-237757 -262914,-237757 0,0 222284,230670 225236,248505 2717,15826 -19370,33897 -36968,17834 -17717,-15945 -236103,-218386 -236103,-218386 0,0 151181,178111 144803,194764 -3897,10158 -18425,31772 -56102,-15354 -37559,-47126 -137835,-149174 -137835,-149174l154843 -191457z"/>
   <path class="fil15" d="M18406469 13429762c0,0 7677,516261 -23858,765120l-13937 -684096 37795 -81024z"/>
   <path class="fil8" d="M17254419 12590232c0,0 62598,10512 157795,112560 95197,101929 142796,269646 167717,324095 24922,54331 340041,557482 358112,568821 18189,11338 280512,191457 425552,329764 145040,138308 414922,303426 414922,303426l-138543 205749c0,0 -757443,-419647 -877562,-579451 -128386,-170669 -585946,-671812 -585946,-671812 0,0 -296576,-456262 77953,-593152z"/>
   <path class="fil16" d="M18982140 15486422c0,0 -29410,-115040 -66378,-132048 -36969,-17244 -28701,24803 -28701,24803 0,0 -7559,-41693 -41811,-39449 -34370,2362 -22087,51142 -22087,51142 0,0 -14291,-30118 -46890,-15472 -32598,14763 -12992,52913 -12992,52913 0,0 -44173,-31535 -54685,11339 -17835,72283 38268,139252 38268,139252 0,0 15000,14764 45472,-1417 0,0 34607,39094 74528,-4488 0,0 58229,15590 63780,-33071 0,0 62835,13110 51496,-53504z"/>
   <path class="fil15" d="M17771152 13976024l-259370 -418348c0,0 221103,261142 244134,289135 23032,27874 25040,30118 25040,30118 0,0 -6733,84803 -9804,99095z"/>
   <path class="fil5" d="M20475766 14984806c0,0 17835,81142 49370,163819 15237,40394 22796,304962 21260,339214 -1299,28819 -20433,11811 -30118,-7205 -5551,-10866 -22913,-102402 -39803,-150945 -14291,-40866 -26457,-56221 -33780,-42992 -7086,13346 -20197,183425 -4488,256063 15473,72638 -827,240119 -39095,215906 -38149,-24212 -127677,-327048 -120118,-441024 7441,-114095 48189,-257009 48189,-257009l148583 -75827z"/>
   <path class="fil17" d="M20439861 15138113c0,0 124724,-829844 157913,-987522 15001,-71575 56221,-249213 82324,-395198 8622,-48071 15944,-97441 22086,-146103l0 -118c24567,-193465 30827,-370040 30827,-370040 0,0 108189,-495947 -204686,-526537 0,0 -83976,26220 -88819,60591 -18897,132638 -62126,419174 -63898,486969 -1535,55276 -82559,611695 -83622,631301 -2362,38150 -21023,295985 -28701,409135 -17834,264332 -24685,855121 -24685,855121l201261 -17599z"/>
   <path class="fil18" d="M20340057 18675407c0,0 -120827,134882 -243426,162992 -122598,28347 -208347,64371 -209410,141733 -945,77363 352915,128386 493348,50433 209410,-116575 230670,-81378 253938,-139606 23150,-58229 -27992,-213780 -26457,-232442 1890,-22795 -267993,16890 -267993,16890z"/>
   <path class="fil18" d="M21572541 18710486c0,0 -88937,131339 -207757,161693 -117165,29882 -193110,86693 -198898,161930 -5669,75236 276261,173740 474450,41693 130276,-86930 178820,-81969 205040,-137009 26221,-55275 -13700,-209882 -11102,-227835 3307,-22087 -261733,-472 -261733,-472z"/>
   <path class="fil19" d="M20353640 18610800c0,0 -15945,63190 -13583,64607 2362,1299 276261,33898 267993,-16890 -6614,-40984 -16299,-85748 -16299,-85748l-238111 38031z"/>
   <path class="fil19" d="M21576084 18645525c0,0 -5787,63543 -3543,64961 2126,1535 263268,50551 261733,472 -1181,-39685 -16654,-89055 -16654,-89055l-241536 23622z"/>
   <path class="fil20" d="M20602735 14828546c0,0 -99685,967561 -151418,1298862 -60590,387284 -81260,707364 -98031,907797 -21378,252166 -25394,1492446 -40276,1566265 -14764,73701 330001,20433 330001,20433 0,0 169725,-1620713 233032,-1889179 59055,-250158 277796,-1326618 331536,-1258350 53741,68268 120473,1256342 160276,1453469 39804,197245 160985,1741068 160985,1741068 0,0 274371,54685 347481,-7205 0,0 33308,-1330397 7914,-1700202 -9685,-140787 165000,-1689453 -59056,-2312723 -118464,-329528 -1222444,179765 -1222444,179765z"/>
   <path class="fil21" d="M22310496 14965908c0,0 -167953,51024 -238229,38150 -70512,-12992 -34843,-876262 -37677,-1056027 -2126,-145748 -81851,-530434 -81851,-530434l-118 827 -118 354 -118 590c-7914,28819 -115513,428033 -119174,619963 -3898,198898 25866,960475 25866,960475l-267284 125906 -924688 26693 -134646 2008c0,0 21142,-451537 29056,-606144 4960,-98268 24094,-274252 19133,-445749 0,0 3071,-180709 -14763,-258544 -1890,-343466 -22796,-683624 -22796,-683624 -11456,-155788 -19488,-301300 -24094,-437245 37559,-19843 82677,-43111 118937,-60237 111733,-53268 267639,-125079 367796,-171024 58465,-26811 115749,-46535 115749,-46535 0,0 399804,-38268 432284,-36260 10276,590 60237,18071 125788,43110 141733,53740 415041,163229 458505,194528 63780,45709 198780,1131381 204804,1207563 10984,136890 -32362,1111656 -32362,1111656z"/>
   <path class="fil5" d="M21551754 12408224c-29410,269410 -328584,269410 -328584,269410 0,0 -123780,-108307 -119882,-188504 118,-1654 118,-3426 354,-5315 2008,-14646 18661,-32953 20315,-62599 236,-4016 354,-8150 472,-12165 119,-4134 119,-8032 119,-12048 -119,-20433 -1182,-40748 -2481,-54803 -354,-4961 -827,-9094 -1181,-12402 -472,-5078 -827,-7795 -827,-7795 0,0 48308,-50905 109489,-111496 107008,-105709 254410,-241418 254646,-187442 0,2835 -472,6260 -1299,10158 -25866,121536 68859,375001 68859,375001z"/>
   <path class="fil22" d="M21523761 14633309c0,0 24213,152717 26339,192520l51260 -10157c0,0 -14173,-161694 -22441,-188741l-55158 6378z"/>
   <path class="fil23" d="M22363646 15522681c0,0 -15709,-214134 -72875,-246496 -57283,-32363 -23504,33425 -23504,33425 0,0 34252,154961 42166,217914 354,3071 54213,-4843 54213,-4843z"/>
   <polygon class="fil24" points="21797896,15673863 22552504,15447563 22564315,16380873 21816912,16844221 "/>
   <polygon class="fil24" points="21816912,16844221 21912109,16860284 22638843,16393156 22615575,15450870 22552504,15447563 "/>
   <path class="fil25" d="M21347658 12566846l-124488 110788c0,0 143740,-9567 170670,-33543l-46182 -77245z"/>
   <path class="fil26" d="M20558089 15009255c0,0 585002,49842 1097484,0l0 168189c0,0 -769609,111024 -1123114,-32126l25630 -136063z"/>
   <path class="fil17" d="M21005728 12491846c-32480,14882 -70630,32481 -111260,51142 -84921,39331 -180827,83740 -256536,119882 -40158,19134 -89882,41575 -128268,57756 4488,138190 11220,286300 22913,444805 0,0 11103,387402 33426,754962 7559,52678 11338,106418 7204,161458 -5669,71811 -13464,150354 -22913,232205l-236 2953c-2244,19606 -4607,39094 -6969,58819l0 945c-49842,409253 -134055,878860 -177992,1021066 -9331,29645 22677,57047 45472,78071l160040 100984c0,0 66024,-607324 87992,-813427 21024,-199017 87520,-465710 116694,-725554l0 -118c36850,-329764 87756,-652797 115157,-844845 71457,-499607 166536,-723072 166536,-723072l-51260 21968z"/>
   <path class="fil17" d="M22022424 13956181c12284,166772 -58110,1089216 12166,1102326 70393,12756 329056,-44055 329056,-44055 0,0 32480,-994728 22086,-1099019 -7559,-75945 -128386,-1214531 -192284,-1260122 -36850,-26575 -309922,-123307 -443859,-176103 -24449,-9567 -48189,-18779 -70040,-27165 -28464,31535 -330001,589254 -353387,1042444 -7204,137953 25040,429214 49725,667088 26220,253938 55276,452009 76536,664254 41929,418230 71338,751065 71338,751065l416340 -185315c67205,-33662 160512,-171969 135237,-242836 -96260,-269646 -217324,-730041 -217560,-966735 0,0 46417,-579096 83150,-706301 0,0 65669,268584 81496,480474z"/>
   <path class="fil5" d="M22100023 15047523c0,0 -20670,93071 -48307,186142 -27756,92953 -54095,122953 -41693,175867 9448,39921 55157,69212 66496,56220 11220,-12992 14409,-168780 79016,-169016 64606,-354 -16418,193111 21732,178465 38268,-14646 184961,-97914 174449,-176339 -10511,-78425 -70512,-134174 -68504,-251457 1890,-106418 -32008,-150473 -32008,-150473l-151181 150591z"/>
   <path class="fil23" d="M22148921 15290240c0,0 -85512,23268 -76064,313820l97087 -17599c0,0 -4134,-160748 23504,-248741 0,0 -5669,-56811 -44527,-47480z"/>
   <path class="fil17" d="M22011440 14422600l4370 733112c0,0 146221,-6496 347836,-80906l14055 -1033822 -366261 381616z"/>
   <path class="fil21" d="M21087107 12586335c0,0 -10749,152953 118701,156614 129331,3544 232087,-120827 232087,-120827l-214725 55512 -130867 -110788 -5196 19489z"/>
   <path class="fil27" d="M21534391 12357791c0,0 -122599,157441 -186733,209055l105119 176103 180945 -308032 -99331 -77126z"/>
   <path class="fil25" d="M21112382 12595665l110788 81969c0,0 -97323,-177402 -99213,-256418l-11575 174449z"/>
   <polygon class="fil27" points="21123957,12421216 21052854,12471531 20973720,12707870 21112382,12595665 "/>
   <path class="fil28" d="M20551121 13643070c0,0 31417,272835 14882,521812 -16536,248859 -84686,646774 -84686,646774 0,0 -590,-873310 69804,-1168586z"/>
   <path class="fil5" d="M20771751 11632592c0,0 -78189,190040 -27165,212835 42165,19016 -25512,204686 -33780,234568 -8267,30118 77126,42401 96733,59055 19606,16653 96142,239528 165473,239174 69213,-236 366851,-140316 441851,-236458 75001,-96378 102402,-498781 28819,-659411 -73701,-160866 -533741,-182008 -671931,150237z"/>
   <path class="fil29" d="M20756515 11673458c0,0 -119528,-183780 45236,-346773 164647,-162874 522994,55040 561380,60709 38386,5788 263505,53859 188623,396261 -66615,304962 -72993,312993 -72993,312993 0,0 -89410,-161339 -131339,-185433 -65433,-37678 -197481,-13111 -197481,-13111 0,0 45827,-175158 -55866,-188622 -101693,-13465 -241300,-83741 -337560,-36024z"/>
   <path class="fil5" d="M21245611 11790506c6142,-24095 24094,-126261 115512,-77008 91181,49370 -27402,251221 -42047,255118 -14646,4016 -126615,24095 -73465,-178110z"/>
   <path class="fil14" d="M21403052 12155349c-2126,5197 -70039,170316 -278623,253702 119,-4134 119,-8032 119,-12048 -119,-20433 -1182,-40748 -2481,-54803 -354,-4961 -827,-9094 -1181,-12402 0,0 224174,-105354 282166,-174449z"/>
  </g>
 </g>
</svg>
