<?xml version="1.0" encoding="UTF-8"?>
<!DOCTYPE svg PUBLIC "-//W3C//DTD SVG 1.1//EN" "http://www.w3.org/Graphics/SVG/1.1/DTD/svg11.dtd">
<!-- Creator: CorelDRAW Home & Student X8 -->
<svg xmlns="http://www.w3.org/2000/svg" xml:space="preserve" width="280px" height="200px" version="1.1" style="shape-rendering:geometricPrecision; text-rendering:geometricPrecision; image-rendering:optimizeQuality; fill-rule:evenodd; clip-rule:evenodd"
viewBox="0 0 28000000 19999899"
 xmlns:xlink="http://www.w3.org/1999/xlink">
 <defs>
  <style type="text/css">
   <![CDATA[
    .fil4 {fill:none;fill-rule:nonzero}
    .fil0 {fill:#DDC9A3}
    .fil9 {fill:#10312B;fill-rule:nonzero}
    .fil6 {fill:#14242B;fill-rule:nonzero}
    .fil12 {fill:#172429;fill-rule:nonzero}
    .fil10 {fill:#235B4E;fill-rule:nonzero}
    .fil2 {fill:#2C3C43;fill-rule:nonzero}
    .fil11 {fill:#33484E;fill-rule:nonzero}
    .fil7 {fill:#42616A;fill-rule:nonzero}
    .fil20 {fill:#691C20;fill-rule:nonzero}
    .fil19 {fill:#691C20;fill-rule:nonzero}
    .fil15 {fill:#9A5450;fill-rule:nonzero}
    .fil18 {fill:#9F2241;fill-rule:nonzero}
    .fil17 {fill:#9F2241;fill-rule:nonzero}
    .fil14 {fill:#BA6A45;fill-rule:nonzero}
    .fil13 {fill:#CC7F5C;fill-rule:nonzero}
    .fil1 {fill:#D9DAD9;fill-rule:nonzero}
    .fil16 {fill:#DDC9A3;fill-rule:nonzero}
    .fil8 {fill:#E5E6E5;fill-rule:nonzero}
    .fil5 {fill:#F69576;fill-rule:nonzero}
    .fil3 {fill:#F9B59C;fill-rule:nonzero}
    .fil21 {fill:#FEFEFE;fill-rule:nonzero}
   ]]>
  </style>
   <clipPath id="id0" style="clip-rule:nonzero">
    <path d="M22107346 5096353l544607 3360482c101694,627403 509529,1233901 1494453,1027798 840948,-243190 778349,-848152 668861,-1594020 0,0 2716,28937 0,0 0,0 925042,-240591 842128,-1181342 -39921,-454608 -198780,-1384256 -352088,-2223668 -164646,-901538 -994963,-1524807 -1906777,-1433035l-90709 9094c-971813,155316 -1382720,1067483 -1200475,2034691z"/>
   </clipPath>
   <clipPath id="id1" style="clip-rule:nonzero">
    <path d="M17985759 9413767c2599,-401694 6614,-681380 6260,-678427 0,0 -721065,-166418 -866341,-1195161 -72165,-511655 -109961,-1324847 -55158,-2007880 49371,-614884 470199,-1362996 1082248,-1287641l1906658 516970c186025,22913 248151,181417 241300,368623l13937 87992 -139606 2936701 60118 1249019c-24331,557955 -576498,1065358 -1134452,1090988 -617482,28228 -1118861,-463112 -1114964,-1081184z"/>
   </clipPath>
 </defs>
 <g id="Capa_x0020_1">
  <metadata id="CorelCorpID_0Corel-Layer"/>
  <path class="fil0" d="M22000101 1125003c2322408,0 4429147,921735 5975568,2418786l0 12347043c-1546421,1497052 -3653160,2418786 -5975568,2418786 -4745446,0 -8592307,-3846861 -8592307,-8592307 0,-4745447 3846861,-8592308 8592307,-8592308z"/>
  <polygon class="fil1" points="16797094,14537876 16797094,17319970 18104460,17319970 18104460,16359377 17739735,16359377 17739735,16167683 18104460,16174179 18104460,15860360 18269697,15860596 18266508,15698312 18074106,15693587 18074106,14533269 "/>
  <path class="fil2" d="M22421165 3452490c19252,-340158 228426,-549450 521577,-723073 293032,-173741 673112,-190867 980790,-44409 205748,97913 385867,265158 611813,294331 372166,47953 724372,-296812 1089688,-210709 216142,50905 380906,267166 372520,489214 -8267,221930 -188740,425316 -408072,459922 243663,35315 381616,343584 291615,572837 -90118,229134 -345945,362127 -592088,367442 -246260,5315 -482836,-95198 -695789,-218741 -213072,-123662 -411852,-272363 -634018,-378663 -222048,-106181 -477639,-168307 -715632,-105000 -322087,85748 -550395,389883 -634372,712561 -84094,322560 -47834,663427 2126,992956 50079,329646 113623,662127 82323,994018 -3661,38977 -12401,83504 -46653,102402 -49489,27284 -106182,-19370 -142678,-62599 -411615,-488032 -726025,-1057680 -919727,-1666067 -112441,-353269 -174331,-697325 -39449,-1042680 135001,-345356 589726,-674057 876026,-533742z"/>
  <path class="fil3" d="M22107346 5096353l544607 3360482c101694,627403 509529,1233901 1494453,1027798 840948,-243190 778349,-848152 668861,-1594020 0,0 2716,28937 0,0 0,0 925042,-240591 842128,-1181342 -39921,-454608 -198780,-1384256 -352088,-2223668 -164646,-901538 -994963,-1524807 -1906777,-1433035l-90709 9094c-971813,155316 -1382720,1067483 -1200475,2034691z"/>
  <g style="clip-path:url(#id0)">
   <g id="_742030912">
   </g>
  </g>
  <path id="1" class="fil4" d="M22107346 5096353l544607 3360482c101694,627403 509529,1233901 1494453,1027798 840948,-243190 778349,-848152 668861,-1594020 0,0 2716,28937 0,0 0,0 925042,-240591 842128,-1181342 -39921,-454608 -198780,-1384256 -352088,-2223668 -164646,-901538 -994963,-1524807 -1906777,-1433035l-90709 9094c-971813,155316 -1382720,1067483 -1200475,2034691z"/>
  <path class="fil5" d="M24815267 7890613c0,0 -588782,94252 -1259768,-238584 0,0 368978,698861 1298035,519923l-38267 -281339z"/>
  <path class="fil6" d="M24364911 6154742c-1535,-8150 86811,-32717 230316,-65906 36496,-7441 70630,-18307 74291,-44055 6024,-27520 -13464,-65788 -35551,-106890 -43701,-85749 -89410,-175513 -137245,-269765 -191693,-384568 -334252,-702167 -318780,-709726 15591,-7559 183426,297875 375119,682443 46300,94842 90709,185315 132875,271890 18070,40512 46889,85630 33661,142796 -7205,28583 -32244,51260 -55276,60000 -22795,9685 -43582,12165 -61653,15000 -145631,22559 -236340,32362 -237757,24213z"/>
  <path class="fil3" d="M22254039 5784347c-16772,-5315 -664844,-126024 -579687,514253 85040,640278 710317,422836 709018,404293 -1299,-18543 -129331,-918546 -129331,-918546z"/>
  <path class="fil5" d="M22155535 6486278c-3071,-1653 -10158,9331 -27756,20433 -17362,10866 -48189,20906 -83150,12874 -70985,-15827 -142205,-115748 -160630,-230670 -9449,-58110 -4607,-115157 9921,-163937 13346,-49370 39213,-86103 72520,-96733 32834,-12283 59764,4843 69921,21851 10984,16771 8622,30118 12166,30709 2007,1417 12283,-12520 3661,-38268 -4370,-12402 -13937,-26457 -30591,-36851 -17008,-10394 -40512,-13819 -63779,-8031 -49016,9921 -87402,61299 -103347,114685 -18662,54095 -25512,118465 -15000,183662 21260,128504 103347,240473 199489,254883 46653,5787 82323,-12756 99685,-30473 17835,-18425 19252,-33307 16890,-34134z"/>
  <path class="fil2" d="M25228654 3609459c-102166,-176339 -266103,-308977 -440198,-414804 -375120,-228190 -819924,-349253 -1257406,-312048 -437599,37204 -864687,238347 -1150042,572009 -228544,267048 -360828,608860 -403230,957759 -42165,348898 2363,704647 98623,1042562 42283,148346 99213,301063 216378,401339 73229,62599 191576,96969 261733,30827 41339,-38976 51733,-99567 59882,-155788 73819,-508111 142087,-1053310 -87402,-1512524 106654,-172559 234804,-335906 401458,-451182 166891,-115276 376891,-178465 575671,-138544 295277,59410 499608,320198 747758,491104 354450,244135 829963,302009 1232720,150237l-255945 -660947z"/>
  <path class="fil7" d="M25839403 2899378c1418,-354 5788,14055 12756,42048 4370,28346 11103,71338 4252,126378 -10512,108307 -73819,270119 -232323,393308 -157442,124961 -406655,175276 -663309,136063 -259962,-35551 -519805,-160512 -791695,-272363 -270473,-111968 -550396,-187323 -800317,-141614 -249804,42402 -443506,186142 -570947,326694 -129331,142087 -201733,283347 -243898,381969 -40985,99922 -55276,158505 -59410,157324 -1417,-355 1417,-15119 7913,-42993 5670,-28346 18662,-68622 36379,-120354 38031,-101694 107480,-247560 237047,-395671 127560,-146457 325395,-298347 586301,-345001 261143,-49842 550041,27993 822759,140788 274016,113032 529607,236694 781537,272954 249213,40157 488033,-5670 639687,-121418 153780,-114567 219095,-267875 234095,-371812 16063,-106418 -6260,-165709 -827,-166300z"/>
  <path class="fil7" d="M21635021 4850092c-4488,-472 -4488,-69803 25040,-177047 28110,-106890 89173,-251222 194174,-385513 51850,-67560 109961,-124489 166654,-171615 56693,-47244 118110,-81851 175630,-92244 57284,-10748 105237,590 133701,15118 28819,14882 39449,29764 37796,31535 -1772,6260 -61300,-44173 -165001,-17716 -100748,25748 -213780,134055 -315709,260670 -101221,129449 -164410,266457 -199017,368505 -35787,102165 -46299,169370 -53268,168307z"/>
  <path class="fil7" d="M21804628 5404385c-4370,-826 1418,-70039 36496,-176339 34489,-106063 103701,-247205 213544,-378899 110197,-131457 237048,-224646 335198,-277441 98386,-53268 165591,-71221 167127,-66969 2598,6496 -60001,34134 -152009,92481 -92126,57992 -211418,151654 -318190,278741 -106181,127559 -177165,261496 -217914,362363 -41220,100984 -57283,167481 -64252,166063z"/>
  <path class="fil7" d="M25254402 9030380c0,0 686695,885829 851695,1218665 165119,332717 1349295,4008908 1349295,4008908l-513663 215907 -1687327 -5443480z"/>
  <polygon class="fil8" points="22491323,8201244 22491323,7757266 24986409,8568567 25655033,9638413 26170113,11132512 24725739,8961994 "/>
  <path class="fil9" d="M22343212 8628095c0,0 -1058625,1266264 -1035711,2089494 22559,810829 1122050,5737103 1122050,5737103l-266103 880396 -261733 2664929 5952300 0 -398623 -5742064c-66614,-4015 -1315043,-3445167 -1315043,-3445167l-1395004 -1937249 -2297487 -827719 -104646 580277z"/>
  <path class="fil10" d="M26913619 12826217c0,0 419411,-16653 638506,81142 158386,70748 299174,64843 423544,170670l0 2480322c-95197,135000 -191339,235040 -276142,273780 -327757,149528 -785908,-3005914 -785908,-3005914z"/>
  <path class="fil10" d="M25745033 16945205c-5787,0 -11457,-118 -16772,-472 -384213,-26457 -430395,-1418390 -742443,-1638548 -311930,-220158 -2763905,-2521779 -2763905,-2521779l1446736 -209174 3688830 3475049c0,0 -1210043,895042 -1612446,894924z"/>
  <path class="fil3" d="M25674757 14845317c0,0 -533151,682443 -594332,853467 -61063,171024 -120237,284765 -55158,341694 65197,57048 121772,63898 186969,39213 86930,-33189 515553,-598703 515553,-598703 0,0 -568466,810948 -594332,950790 -26103,140670 85512,207639 215788,183190 130394,-24331 378544,-390946 378544,-390946 0,0 -351733,407245 -277678,476458 74291,69331 159804,77362 257481,28583 97677,-48898 346064,-370631 346064,-370631 0,0 -171024,183307 -77362,228071 93779,44764 101811,49725 183307,-17952 81496,-67560 800317,-771381 800317,-771381l-454135 -310158 -831026 -641695z"/>
  <path class="fil5" d="M25893498 15262248c2598,2244 -30473,45000 -83622,114331 -57520,75000 -128977,167953 -207993,270827 -81732,105591 -158150,199371 -215788,265277 -57638,66023 -95670,104646 -98032,102638 -2598,-2363 30945,-44764 85158,-113268 58110,-74528 130276,-166891 210119,-269174 81614,-105355 156732,-200080 213544,-266812 56693,-66733 94252,-105827 96614,-103819z"/>
  <path class="fil5" d="M26271098 15589296c4960,4134 -122245,162520 -284175,353741 -162047,191221 -297402,342757 -302363,338505 -4842,-4134 122245,-162520 284293,-353741 161929,-191221 297284,-342757 302245,-338505z"/>
  <path class="fil5" d="M26573933 15794100c4961,4370 -128504,157913 -297875,342875 -169370,184961 -310513,331300 -315237,326930 -4842,-4371 128504,-157796 297875,-342875 169370,-184962 310513,-331301 315237,-326930z"/>
  <path class="fil9" d="M22667662 9416365c344292,-73110 781892,-103465 1114728,85276l1819493 1641264c0,0 1680241,1885163 2373786,2688433l0 2081345c-353150,296930 -744687,140551 -1185003,40157 -394608,-90000 -3151663,-2115714 -4285052,-2957252 -392009,-291025 -679608,-703112 -805632,-1174728 -75472,-282757 -125315,-610632 -91181,-935318l1058861 -1469177z"/>
  <path class="fil2" d="M21608801 10885542c0,0 -591,16063 -3071,47245 -2126,31299 -4606,77716 -5315,138780 -709,121772 8150,302481 53386,529962 23150,113386 52914,239055 99567,371930 46300,132874 112323,271772 198426,411615 87048,139253 195709,278859 329292,408663 131812,132047 295749,243189 461813,367324 667915,492048 1464216,1076577 2361030,1707760 224410,157560 455316,317718 693191,478230 238229,159804 482009,323032 739608,472324 64843,36142 130040,73347 198544,101812 33780,14881 68858,23267 106418,31889l110551 26693c147048,36497 295513,74292 447757,88583 151064,13111 309922,-3661 444096,-80905 46536,-25749 90591,-56457 131575,-91182l0 30473c-37677,30472 -77835,57756 -120354,81378 -138898,79961 -303663,97087 -457325,83740 -154961,-14764 -304371,-52913 -451418,-89409l-110315 -26812c-35906,-8149 -74528,-17362 -109725,-33070 -70748,-29292 -135945,-66733 -201261,-103111 -258780,-150119 -502442,-313584 -740789,-473741 -237875,-160867 -468663,-321261 -692955,-479057 -896459,-632482 -1691934,-1218429 -2358550,-1712131 -165354,-124370 -329883,-236457 -462284,-370040 -134174,-131103 -243072,-272127 -330119,-412442 -86103,-141142 -151891,-280985 -197836,-414923 -46299,-133819 -75354,-260079 -97913,-373820 -43937,-228425 -51378,-409725 -49134,-531852 2952,-122244 13110,-185906 13110,-185906zm6366868 2963749l-202087 -233387c-160394,-182953 -318072,-363071 -472915,-539647 -622560,-703466 -1197877,-1353311 -1705753,-1927092l709 591c-752010,-680317 -1372090,-1241460 -1817013,-1643981l945 708c-161339,-90708 -325985,-122480 -465946,-136063 -140906,-12283 -260788,-5433 -356458,3307 -95906,9331 -168071,21496 -216496,29646 -23859,4370 -41812,7677 -54568,10039 -12165,2244 -18425,2953 -18425,2953 0,0 24331,-6142 72402,-15945 48307,-9094 120473,-22323 216379,-32598 96023,-9685 216142,-17481 357993,-5906 140787,12756 306851,43701 470670,134764l591 355 472 354c446104,401222 1067838,960475 1821974,1638548l354 354 355 354c510119,571892 1087207,1220201 1708587,1924848 154961,176576 312757,356576 473269,539411l184961 213308 0 35079z"/>
  <path class="fil2" d="M26221609 11023732c-236,354 -3779,-1890 -10394,-6614 -7559,-5670 -17126,-12756 -28937,-21497 -24803,-19724 -63425,-46299 -108898,-85866 -93543,-75945 -221811,-194056 -375237,-345001 -153662,-150709 -330946,-335670 -532560,-535749 -101576,-99331 -208111,-203623 -324450,-305198 -115630,-102048 -239174,-204095 -375710,-293741 -54921,-39803 -114803,-70158 -170670,-104174l-7795 -4724 1890 -8268c9449,-41220 18661,-81850 27756,-121772l7913 13701c-552403,-173859 -1040790,-327639 -1393232,-438545 -173741,-55748 -313820,-100630 -412442,-132283 -46890,-15591 -83859,-27756 -110788,-36733 -11575,-4015 -20905,-7323 -28583,-10039 -6378,-2362 -9567,-3780 -9448,-4134 118,-354 3543,354 10157,2008 7795,2126 17362,4842 29173,8031 27284,7914 64607,18898 112087,32835 98977,30000 239883,72638 414450,125552 353033,109016 842247,260079 1395595,431103l10275 3189 -2362 10512c-9094,39803 -18307,80551 -27638,121772l-5905 -12992c56575,34370 117284,65197 172677,105355 137835,90472 261970,193228 377954,296103 116575,102165 223111,207048 324450,306969 201024,201379 377009,387403 529017,539411 151654,152245 277914,271891 369332,349844 44410,40511 82087,68149 105945,89055 11221,9449 20197,17244 27520,23268 6024,5315 9094,8267 8858,8622z"/>
  <path class="fil11" d="M27122084 12876650c-945,2953 -19961,-31889 -51260,-92598 -32244,-64134 -76654,-152245 -130984,-260080 -109489,-220158 -259017,-525119 -422600,-862679 -163701,-337797 -310513,-644057 -415513,-866459 -51024,-109253 -92835,-198662 -123307,-263860 -13111,-29527 -23859,-53385 -32363,-72283 -7086,-16536 -10512,-25512 -9803,-25866 827,-355 5669,7913 14173,23858 9449,18307 21496,41693 36378,70394 32008,64252 76064,152599 129922,260552 109134,223465 257599,527363 421655,863388 162047,336851 308741,641577 416458,865750 51496,109017 93661,198308 124252,263269 28819,61890 44882,98150 42992,96614z"/>
  <path class="fil11" d="M22883450 17842609c236,-354 5788,-118 16299,591 11575,827 27048,1890 46772,3425 42048,3425 102048,8268 179056,14528 156378,13582 381615,32952 661891,57047 561498,50197 1343626,120118 2231109,199371l-12283 14291c-46300,-186733 -94725,-382088 -144213,-581222 -22441,-91181 -44882,-181654 -66733,-269883l10040 8859c-997090,-115749 -1883037,-218505 -2498393,-289844l7677 -4016c-146812,259962 -259725,469844 -333544,615593 -36851,73110 -63780,130158 -79725,169607 -8032,19724 -13347,34960 -15709,45472 -2952,10630 -1653,15591 -2244,16181 -1653,709 -2362,-23622 13819,-63189 14764,-40276 40512,-98032 76181,-171733 71575,-147284 182599,-358347 327639,-619608l2480 -4488 5197 591c615593,69449 1501776,169488 2499220,282048l8150 945 2007 7913c21851,88229 44292,178701 66851,269883 49252,199134 97677,394489 143859,581340l3897 15945 -16299 -1536c-889727,-83268 -1673863,-156614 -2236778,-209174 -279095,-27047 -503387,-48779 -659175,-63779 -75945,-7677 -135237,-13583 -176693,-17835 -19134,-2126 -34134,-3779 -45355,-5079 -10157,-1181 -15236,-2008 -15000,-2244z"/>
  <path class="fil10" d="M26017514 18304894l-2945677 -175749 -106300 -277087c39567,4016 91299,9213 154961,15709 155788,15000 380080,36732 659175,63779 562915,52560 1347051,125906 2236778,209174l1063 118 0 164056z"/>
  <path class="fil10" d="M26017514 18140838l-1063 -118c-889727,-83268 -1673863,-156614 -2236778,-209174 -279095,-27047 -503387,-48779 -659175,-63779 -63662,-6496 -115394,-11693 -154961,-15709l-827 -2008 3052804 279095 0 11693z"/>
  <path class="fil12" d="M18914463 3813082c-8977,-157324 -139843,-289371 -290198,-336734 -150355,-47480 -314765,-23504 -464529,26103 -326339,108307 -600592,330237 -866931,547797 -413269,337442 -814609,800671 -972523,1310318 -118819,383860 -153189,634608 -31181,1042798 108071,361064 193583,711262 172087,1013153 -33898,477521 -91890,589844 -214489,1058507 -76772,293150 184371,1059334 184371,1059334l1651776 -631892c589726,-277087 1859060,-794175 1859060,-794175l-1027443 -4295209z"/>
  <path class="fil13" d="M17985759 9413767c2599,-401694 6614,-681380 6260,-678427 0,0 -721065,-166418 -866341,-1195161 -72165,-511655 -109961,-1324847 -55158,-2007880 49371,-614884 470199,-1362996 1082248,-1287641l1906658 516970c186025,22913 248151,181417 241300,368623l13937 87992 -139606 2936701 60118 1249019c-24331,557955 -576498,1065358 -1134452,1090988 -617482,28228 -1118861,-463112 -1114964,-1081184z"/>
  <g style="clip-path:url(#id1)">
   <g id="_840623632">
   </g>
  </g>
  <path id="1" class="fil4" d="M17985759 9413767c2599,-401694 6614,-681380 6260,-678427 0,0 -721065,-166418 -866341,-1195161 -72165,-511655 -109961,-1324847 -55158,-2007880 49371,-614884 470199,-1362996 1082248,-1287641l1906658 516970c186025,22913 248151,181417 241300,368623l13937 87992 -139606 2936701 60118 1249019c-24331,557955 -576498,1065358 -1134452,1090988 -617482,28228 -1118861,-463112 -1114964,-1081184z"/>
  <path class="fil2" d="M18827297 6335569c-3661,69449 52205,129804 124607,135000 72283,5079 133937,-46890 137717,-116339 3661,-69449 -52205,-129803 -124489,-135000 -72520,-5079 -134174,47008 -137835,116339z"/>
  <path class="fil2" d="M18118634 7061477c826,-7914 -86930,-24686 -229253,-45355 -36024,-4370 -70158,-12165 -75827,-36969 -8031,-26220 7795,-64960 25984,-106653 35434,-86930 72638,-177993 111615,-273544 155315,-389411 268229,-709845 252520,-715987 -15708,-6141 -154252,304607 -309449,694018 -37442,96024 -73111,187560 -107245,275198 -14409,40866 -38740,87047 -21142,141496 9213,27284 35434,47362 58583,53977 23032,7441 43347,8149 61181,9567 143387,10157 232442,12401 233033,4252z"/>
  <path class="fil14" d="M17992019 8735340c0,0 689530,56338 1380358,-342994 0,0 -359056,718231 -1384137,604490l3779 -261496z"/>
  <path class="fil12" d="M17044418 6716830l-212599 -860081c-190985,-263505 -41929,-693191 93544,-989058 135354,-295867 393308,-522403 680553,-675474 287126,-152954 604371,-239411 920317,-317364 -117165,383505 -412678,753782 -758152,956932 0,0 -523938,357875 -618308,780002 -103347,461458 -105355,1105043 -105355,1105043z"/>
  <path class="fil12" d="M18237571 4418280l1496815 899530c0,0 46300,681971 319017,1346106 276260,-236221 446930,218977 529726,-130866 4370,-18307 -75945,733939 -365316,757443l-47599 817798 1427603 -351025c0,0 -76772,-991538 -320434,-1593075 -151418,-374057 -231615,-687640 -381261,-1062523 -113150,-283702 -314174,-707719 -465356,-909570 -324450,-433583 -1525162,-452717 -1525162,-452717 -529371,124961 -173032,65315 -618663,377245l-152362 409135 102992 -107481z"/>
  <path class="fil13" d="M20053285 6658247c-1063,-216260 230197,-373229 426615,-275670 107953,53504 194528,168426 197717,397796 8386,611695 -619372,494647 -620671,477049 -827,-10866 -2480,-346064 -3661,-599175z"/>
  <path class="fil15" d="M20244270 7022973c2716,-2008 10984,7204 29409,15236 18071,7795 48898,12874 81260,472 65433,-24685 119646,-128032 121063,-238347 827,-55748 -11811,-108544 -32480,-152126 -19606,-44528 -49606,-75355 -82795,-80670 -33071,-6968 -56339,12756 -63780,30118 -8032,17244 -3898,29410 -7205,30591 -1772,1417 -13583,-10158 -8858,-35433 2362,-12284 9449,-26811 23976,-38740 14764,-12166 36733,-18544 59882,-16418 48071,2599 92008,45355 114804,93189 25394,48071 40866,107363 39921,169962 -2244,123307 -65079,239646 -154843,266457 -43583,11811 -80433,-591 -99449,-14764 -19606,-14882 -23031,-28346 -20905,-29527z"/>
  <path class="fil16" d="M20527144 7317068c4016,117992 -88346,216969 -206339,220985 -118110,4134 -217087,-88347 -221103,-206339 -4016,-118111 88347,-217088 206457,-221103 117993,-4016 216970,88346 220985,206457z"/>
  <path class="fil17" d="M16605755 13431534c-51260,34252 -615710,171024 -752482,530198 -136890,359174 -862916,1089334 -337442,1801777l1089924 -604490 0 -1727485z"/>
  <path class="fil18" d="M16604692 13433542c-10748,6378 -36968,15945 -72401,28937 -169489,61772 -566341,206693 -677955,499726 -31063,81378 -91890,181063 -162284,296575 -117992,193583 -265040,434529 -329647,692837 -35551,141614 -43110,272127 -23267,399214 22559,143976 82086,282284 177047,411261l1088507 -603782 0 -1724768zm-1089215 2331384l-591 -708c-95433,-129450 -155315,-268466 -177992,-413033 -19843,-127323 -12284,-258190 23267,-400159 64843,-258544 211891,-499726 330001,-693427 70394,-115394 131103,-214961 162048,-296221 111969,-293977 509529,-439135 679372,-501025 37323,-13701 64370,-23504 73583,-29764l1771 -1181 0 1730320 -590 236 -1090869 604962z"/>
  <polygon class="fil1" points="17862924,10454439 17952334,9222073 20195726,8286047 20275333,8745851 18747100,9523491 "/>
  <path class="fil19" d="M20275333 8474433c0,0 -1374335,555947 -1983904,1099137 -573308,510947 -1765398,2524141 -1893076,3073237 -127677,548978 -102638,2067998 -102638,2067998 0,0 -3189,1566973 -3189,1605241 0,35906 -866341,2266187 -824530,3679971l5642733 0c29764,-557482 61299,-1847013 -234450,-2428708 -383032,-753309 -395788,-600120 -395788,-600120 0,0 229843,-255355 204331,-485198 -25512,-229725 -166064,-421300 -166064,-421300l983153 -3064379c0,0 102166,-1545004 -165945,-2579062 -251340,-969688 -345001,-914885 -659176,-1224925 -3307,-3189 -2480,-1299 -1181,473 1300,2007 3307,4015 1181,-473l-285709 -234331 -115748 -487561z"/>
  <path class="fil19" d="M16605755 17842609c-17480,-66142 424490,-850632 424490,-850632l2533353 425316 176339 711852 -3134182 -286536z"/>
  <path class="fil18" d="M16605755 17842609c355,-354 5788,-118 16418,591 11693,827 27165,1890 46772,3425 42165,3425 102283,8268 179409,14528 156615,13582 381970,32952 662483,57165 561852,50197 1343980,120000 2230163,199253l-12401 14291c-42756,-172441 -87638,-353387 -133229,-537639 -14646,-58819 -29055,-117402 -43228,-174095l9448 8740c-1009727,-171142 -1909966,-323741 -2532644,-429214l8149 -3898c-146575,259726 -259607,469490 -333426,615475 -36850,72992 -63898,130157 -79843,169606 -8031,19725 -13464,35079 -15827,45591 -2834,10630 -1535,15591 -2244,16181 -1653,709 -2362,-23622 13937,-63307 14764,-40276 40512,-98150 76182,-171851 71693,-147402 182599,-358347 327520,-619372l2599 -4842 5551 945c622915,103583 1523744,253347 2533944,421418l7677 1299 1890 7559c14055,56812 28583,115276 43110,174095 45591,184253 90355,365198 133111,537758l3898 15945 -16300 -1536c-888427,-83031 -1672563,-156378 -2235951,-209055 -279213,-27048 -503741,-48780 -659765,-63780 -76064,-7795 -135355,-13701 -176930,-17953 -19134,-2126 -34134,-3779 -45473,-5079 -10157,-1181 -15236,-2008 -15000,-2244z"/>
  <path class="fil17" d="M16766386 17277923c-231733,0 -458387,-59292 -648073,-193584l-23032 -186851c4371,-13228 8741,-26338 12993,-39212 3543,-10394 6968,-20670 10393,-30827 68505,-204804 123780,-359411 152363,-441497 1383547,-1535083 3193828,-2658669 4518438,-4248910 -533742,1402209 -1316460,2700126 -2214573,3902019 -293977,393308 -611931,786852 -1038546,1029097 -183308,-30472 -352324,-58583 -504805,-83976l-5551 -945 -2599 4842c-57520,103465 -109606,199253 -156142,286064 -33661,2480 -67323,3780 -100866,3780z"/>
  <path class="fil19" d="M20587263 9771642c470434,374410 880396,1545713 152244,2558393 0,0 -3182253,4317295 -3709262,4661942 -527010,344528 -1236382,141851 -1439178,-364844 -202677,-506812 -121535,-993191 162166,-1337838 283820,-344529 2148550,-3628239 2148550,-3628239 0,0 425434,-1521972 1150042,-1963824l1535438 74410z"/>
  <path class="fil19" d="M19051825 9697232c0,0 -10984,8032 -32716,23032 -22441,14055 -53623,38031 -94135,70275 -80197,65434 -188858,174922 -306615,334726 -234449,319961 -500552,843073 -709017,1537917l-355 1063 -472 709c-409253,720356 -920081,1616934 -1514650,2623236 -149882,250985 -303426,509529 -468899,769963 -43228,64252 -82559,130866 -130512,193583 -22914,32244 -46418,63307 -70158,93898 -23386,30945 -44409,63898 -64843,97087 -40393,66968 -72519,139016 -100157,212953 -24922,74882 -44882,152008 -56103,231142 -21614,158032 -15354,321970 20551,480828 8859,39804 18308,79489 31064,118465 10748,39567 25748,77835 39803,116457 14055,38741 34134,74292 51378,111497l33543 51614c10985,17362 22205,34606 36378,49607 103701,127441 245316,226890 404765,279213 158505,53622 331655,70866 499726,43228 154607,-25393 303308,-85748 428978,-175276 120709,-96260 224174,-214843 328111,-328347 205512,-230434 399332,-465592 588072,-697797 376537,-465356 731105,-921263 1066775,-1357091 335434,-436064 651144,-852758 945475,-1243586 146693,-195709 288308,-384804 424608,-566458 67795,-91182 134291,-180355 199252,-267639 64252,-87992 131221,-171260 184843,-259843 117993,-170788 194883,-355040 252757,-531852 12401,-45000 24567,-89410 36496,-133111 12165,-43700 16417,-88464 24803,-131575 18544,-86339 19607,-171851 26929,-253937 10630,-330001 -57283,-612049 -141024,-827483 -84567,-216615 -189213,-366970 -268465,-459332 -20315,-22677 -36496,-44528 -53622,-60236 -16890,-15709 -31181,-28938 -42756,-39686 -22914,-21378 -34370,-32834 -34370,-32834 0,0 12401,10157 36023,31063 11811,10512 26339,23504 43701,38858 17363,15591 33898,37205 54685,59764 80670,91654 186969,241891 273426,458978 85276,216024 155080,499135 145631,831380 -7087,82559 -7914,168780 -26221,255709 -8268,43465 -12401,88583 -24567,132520 -11929,44174 -23976,88938 -36260,134292 -57756,178347 -134764,364253 -253229,536695 -54094,89764 -120827,172913 -184725,261024 -64842,87402 -131102,176811 -198780,268111 -135827,181890 -277205,371221 -423544,567285 -293623,391537 -608860,808585 -943940,1245122 -335198,436300 -689411,892561 -1065948,1358389 -188741,232560 -382560,467836 -588545,698979 -51260,57992 -104528,114685 -158386,171142 -55040,55512 -109370,111969 -173268,160394 -129449,92244 -280749,153544 -439135,179646 -171851,28229 -348899,10630 -511301,-44173 -163111,-53741 -308505,-155670 -415277,-286891 -14527,-15472 -26102,-33307 -37441,-51260l-34606 -53031c-17717,-38268 -38504,-75473 -52796,-114568 -14173,-39212 -29409,-78071 -40275,-118228 -12874,-39449 -22441,-79843 -31418,-120237 -36378,-161339 -42756,-328111 -20669,-489096 11457,-80551 31772,-159095 57402,-235394 28110,-75473 60945,-148819 102165,-216969 20906,-33898 42284,-67441 66142,-98977 24449,-31417 48071,-62717 70394,-94016 46890,-61299 86693,-128268 129567,-192048 165473,-259725 319371,-518269 469372,-768781 595631,-1005358 1108231,-1900990 1519610,-2620047l-708 1772c211063,-696380 479765,-1219138 717167,-1538745 119292,-159567 229371,-268583 310749,-333072 41102,-31890 72756,-55275 95669,-68858 22205,-14292 33898,-21142 33898,-21142z"/>
  <path class="fil18" d="M20391081 8961994c0,472 -5315,2008 -15709,4842 -11693,3071 -27047,7205 -46535,12284 -40748,10866 -101103,26457 -178229,48425 -154134,44055 -377482,109370 -643585,215788 -66378,26693 -135472,56221 -205866,90000 -35315,16654 -71103,34016 -106654,53623 -17717,9685 -36378,18661 -53859,29173 -16889,11457 -34842,21378 -51260,34252 -132992,101339 -254174,236457 -379371,378190 -247914,286536 -500907,618545 -760277,971105 -258781,353269 -498309,694845 -712680,1007956 -107126,156614 -207874,306024 -300827,446812 -93426,140670 -177520,272953 -240355,401694 -127323,256654 -202324,477285 -252048,629411 -24567,76300 -42166,136064 -54095,176575 -5551,19371 -9921,34607 -13228,46182 -3071,10393 -4725,15708 -5197,15590 -354,0 472,-5551 2835,-16181 2716,-11693 6378,-27165 11102,-46772 10276,-40984 26575,-101220 49843,-178110 47126,-153308 119764,-375238 245906,-634136 62126,-130040 146339,-263977 238937,-404883 92363,-141378 192521,-291379 299175,-448466 213543,-313820 452599,-656104 711734,-1009609 259489,-352914 513190,-684805 762876,-971459 126142,-141851 247678,-276733 384096,-379726 16889,-12992 35787,-23386 53267,-35079 18071,-10748 36615,-19488 54568,-29291 35905,-19488 72165,-36733 107716,-53268 71103,-33662 140552,-62717 207521,-89055 267874,-104764 492166,-167836 647246,-209174 77716,-20551 138425,-34843 179646,-44174 19724,-4133 35315,-7441 47008,-10039 10630,-2008 16181,-2835 16299,-2480z"/>
  <path class="fil17" d="M16763669 18129145l-75945 -277087c39567,4016 91654,9331 155434,15827 156024,15000 380552,36732 659765,63780 515317,48189 1215358,113622 2011069,188032l-2750323 9448z"/>
  <path class="fil20" d="M19513992 18119697c-795711,-74410 -1495752,-139843 -2011069,-188032 -279213,-27048 -503741,-48780 -659765,-63780 -63780,-6496 -115867,-11811 -155434,-15827l-590 -2008 2945441 269292 -118583 355z"/>
  <path class="fil14" d="M18760801 7076358c0,258663 209646,468309 468190,468309 258780,0 468427,-209646 468427,-468309 0,-258662 -209647,-468190 -468427,-468190 -258544,0 -468190,209528 -468190,468190z"/>
  <path class="fil5" d="M23036876 6384349c0,258544 209528,468308 468190,468308 258780,0 468427,-209764 468427,-468308 0,-258781 -209647,-468309 -468427,-468309 -258662,0 -468190,209528 -468190,468309z"/>
  <g id="_840618136">
   <path class="fil2" d="M18819147 6354230c0,152954 60591,276852 135119,276852 74764,0 135355,-123898 135355,-276852 0,-152953 -60591,-276969 -135355,-276969 -74528,0 -135119,124016 -135119,276969z"/>
   <path class="fil2" d="M19230408 5989741c-22795,44764 -52795,83859 -91535,118111 -38150,34134 -86812,60827 -141379,73346l-2362 473c-26929,6142 -53740,-10630 -60000,-37559 -6142,-26929 10630,-53859 37559,-60119 4370,-944 8977,-1299 13229,-1181 75708,2953 159685,-42992 216851,-109842l1063 -1063c5669,-6851 15944,-7560 22795,-1772 5669,4961 7205,13110 3779,19606z"/>
  </g>
  <g id="_840618304">
   <path class="fil2" d="M17768672 6360490c0,152954 -60591,276851 -135118,276851 -74764,0 -135355,-123897 -135355,-276851 0,-152953 60591,-276851 135355,-276851 74527,0 135118,123898 135118,276851z"/>
   <path class="fil2" d="M17357529 5996001c22677,44764 52677,83977 91418,118111 38149,34252 86811,60827 141378,73346l2362 473c26929,6260 53741,-10630 60000,-37559 6142,-26930 -10630,-53859 -37559,-60001 -4370,-944 -8976,-1417 -13228,-1181 -75709,2835 -159686,-43110 -216851,-109961l-1063 -1063c-5669,-6850 -15945,-7559 -22795,-1771 -5670,4960 -7205,13110 -3662,19606z"/>
  </g>
  <path class="fil2" d="M18698202 7311162c-46772,91300 -118228,170198 -203859,231733 -85394,61772 -192402,101457 -302717,100512 -109489,-2716 -216969,-39921 -301300,-103937 -44173,-28819 -78780,-69449 -116811,-103819 -31772,-40985 -62953,-82087 -90709,-124489 41811,30591 79724,63189 118110,94607 42520,25984 80552,57874 123662,79488 84095,47953 175867,74528 267402,75945 92127,2244 183780,-26929 268584,-72401 84331,-46772 163819,-107245 237638,-177639z"/>
  <path class="fil2" d="M18676234 5352062c63071,-55984 134528,-74291 209528,-77598 74409,-1654 150945,6968 223347,31653 72874,22323 140197,63426 196418,112678 58701,47362 99803,110079 134173,171969 17363,31181 6142,70630 -25157,87874 -24922,13937 -55276,9449 -75119,-8740l-5551 -5079c-44055,-40630 -86339,-78543 -133583,-106181 -45472,-30591 -96378,-47363 -147402,-60473 -51496,-11929 -105118,-18307 -159803,-15472 -53977,1771 -111615,4606 -170788,-9922l-17126 -4134c-36496,-8976 -58583,-45590 -49843,-81968 3425,-13819 10984,-25748 20906,-34607z"/>
  <path class="fil21" d="M24089477 6653759c0,0 362363,202205 775160,0 0,0 -332836,800435 -775160,0z"/>
  <path class="fil6" d="M23405735 5513165c0,128977 51142,233505 113977,233505 63071,0 114095,-104528 114095,-233505 0,-128859 -51024,-233386 -114095,-233386 -62835,0 -113977,104527 -113977,233386z"/>
  <path class="fil6" d="M24739440 5447259c0,128859 51142,233387 113976,233387 63071,0 114095,-104528 114095,-233387 0,-128858 -51024,-233386 -114095,-233386 -62834,0 -113976,104528 -113976,233386z"/>
  <path class="fil6" d="M24387470 4501784c45591,-66732 107835,-100394 176812,-121063 68858,-18898 141969,-28701 214961,-22559 73228,3661 145276,26102 209056,58819 65669,30354 118701,79134 165000,128504 23386,25158 22205,64489 -2835,87756 -19960,18898 -49252,21851 -72165,9331l-6142 -3425c-50433,-27402 -98504,-52914 -149055,-67323 -49253,-17953 -100749,-21614 -151300,-22087 -50551,1063 -102048,7559 -152126,22914 -49843,14409 -102639,30236 -161221,30708l-16890 119c-35906,236 -65197,-28701 -65433,-64607 -119,-13701 4133,-26457 11338,-37087z"/>
  <path class="fil2" d="M23769516 4546784c-54095,-60118 -120237,-85275 -191221,-96614 -70867,-9685 -144568,-9567 -216143,6142 -72047,13346 -140551,45118 -199370,85866 -61182,38859 -107245,94252 -146576,149292 -19960,27992 -13464,66850 14410,86575 22323,16063 51732,15118 72756,-236l5669 -4252c46300,-33780 90591,-65434 138780,-86457 46536,-24331 96969,-34843 147166,-41811 50197,-5788 102048,-6142 153780,2480 51260,7677 105709,16417 163819,9094l16654 -2126c35669,-4488 60945,-36968 56457,-72638 -1772,-13700 -7677,-25748 -16181,-35315z"/>
  <path class="fil14" d="M17147647 7668211c229961,-29646 407954,-226300 407954,-464411 0,-258780 -209883,-468309 -468427,-468309 -10512,0 -21024,355 -31417,1063 13582,301182 38504,580986 69921,803625 6260,44291 13701,86929 21969,128032z"/>
  <path class="fil2" d="M17969106 5449149c-48662,-68858 -113977,-102992 -186379,-123307 -71929,-18662 -148465,-27638 -224528,-20197 -76063,5197 -151063,29764 -216969,64843 -68032,32834 -122363,84449 -169843,136890 -23977,26456 -22087,67323 4370,91299 21142,19252 51732,21733 75236,8622l6496 -3779c52087,-29410 101930,-56693 154253,-72756 51378,-19489 104764,-24095 157323,-25276 52796,0 106536,6142 159095,21260 52205,14055 107599,30000 168544,29409l17716 -118c37442,-354 67442,-31063 67087,-68386 -118,-14291 -4724,-27638 -12401,-38504z"/>
  <path class="fil5" d="M24816566 6236002c0,258662 209528,468308 468072,468308 142087,0 269292,-63189 355277,-162992 -22441,-191221 -57520,-431458 -99804,-697916 -73465,-47953 -161221,-75709 -255473,-75709 -258544,0 -468072,209529 -468072,468309z"/>
 </g>
</svg>
