<?xml version="1.0" encoding="UTF-8"?><svg id="Capa_1" xmlns="http://www.w3.org/2000/svg" viewBox="0 0 21.03 24.5"><defs><style>.cls-1{fill:#bc955c;}</style></defs><path class="cls-1" d="M19.02,24.5c-.53,0-1.08-.21-1.57-.61-.33-.27-.6-.5-.88-.77l-.35-.31c-.18-.16-.39-.33-.61-.49-.22-.17-.44-.35-.63-.51l-3.81-3.23c-.24-.19-.46-.38-.66-.55-1.06,.82-3.91,3.22-5.39,4.46-.75,.63-1.34,1.12-1.59,1.33-.77,.62-1.66,.78-2.39,.43-.73-.35-1.15-1.14-1.15-2.16V.71C0,.32,.32,0,.71,0H20.32c.39,0,.71,.32,.71,.71V22.11c0,1.03-.45,1.85-1.19,2.21-.26,.12-.54,.18-.82,.18Zm-8.41-8.09c.23,0,.45,.11,.59,.31,.11,.15,.66,.6,.87,.77l3.84,3.25c.18,.16,.39,.31,.58,.47,.24,.18,.47,.37,.68,.54l.35,.31c.27,.24,.51,.46,.83,.72,.32,.26,.66,.37,.88,.24,.24-.11,.38-.46,.38-.92V1.43H1.43V22.11c0,.45,.13,.77,.33,.87s.56,0,.87-.25c.25-.21,.84-.69,1.58-1.31,4.38-3.69,5.76-4.8,6.13-4.95,.08-.03,.18-.05,.27-.05Z"/></svg>