<?xml version="1.0" encoding="UTF-8"?><svg id="Capa_1" xmlns="http://www.w3.org/2000/svg" viewBox="0 0 30 26"><defs><style>.cls-1{fill:#fff;fill-rule:evenodd;}</style></defs><path class="cls-1" d="M15,21.28c-.9,0-1.63-.73-1.63-1.63s.73-1.63,1.63-1.63,1.63,.73,1.63,1.63c0,.9-.73,1.63-1.63,1.63m-1.24-12.84c0-.69,.56-1.24,1.24-1.24s1.24,.56,1.24,1.24v6.63c0,.69-.56,1.24-1.2,1.24s-1.29-.55-1.29-1.24v-6.63Zm14.2,12.89L16.91,2.49c-.85-1.45-2.98-1.45-3.83,0L2.04,21.34c-.85,1.44,.21,3.26,1.91,3.26H26.04c1.7,0,2.76-1.81,1.91-3.26h0Z"/></svg>