<?xml version="1.0" encoding="UTF-8"?><svg id="Capa_1" xmlns="http://www.w3.org/2000/svg" xmlns:xlink="http://www.w3.org/1999/xlink" viewBox="0 0 30 30"><defs><style>.cls-1,.cls-2{fill:none;}.cls-3{clip-path:url(#clippath);}.cls-4{fill:#9f2241;}.cls-5{fill:#fff;fill-rule:evenodd;}.cls-2{stroke:#fff;stroke-linecap:round;stroke-linejoin:round;stroke-width:.22px;}</style><clipPath id="clippath"><path class="cls-1" d="M26.07,28H3.93c-1.23,0-2.33-.64-2.95-1.7-.31-.53-.46-1.12-.46-1.7s.15-1.17,.46-1.7L12.05,3.71c.62-1.07,1.72-1.7,2.95-1.7s2.33,.64,2.95,1.7l11.07,19.18c.31,.53,.46,1.11,.46,1.69v.02c0,.58-.16,1.16-.46,1.69-.62,1.07-1.72,1.7-2.95,1.7"/></clipPath></defs><path class="cls-4" d="M26.07,28H3.93c-1.23,0-2.33-.64-2.95-1.7-.31-.53-.46-1.12-.46-1.7s.15-1.17,.46-1.7L12.05,3.71c.62-1.07,1.72-1.7,2.95-1.7s2.33,.64,2.95,1.7l11.07,19.18c.31,.53,.46,1.11,.46,1.69v.02c0,.58-.16,1.16-.46,1.69-.62,1.07-1.72,1.7-2.95,1.7"/><g class="cls-3"><path class="cls-5" d="M15,23.96c-.72,0-1.3-.58-1.3-1.3s.58-1.3,1.3-1.3,1.3,.58,1.3,1.3-.58,1.3-1.3,1.3Zm-1.46-13.48h2.92c.24,0,.46,.2,.43,.43l-.87,7.62c-.03,.23-.2,.43-.43,.43h-1.19c-.23,0-.41-.2-.43-.43l-.87-7.62c-.03-.24,.19-.43,.43-.43Z"/><path class="cls-2" d="M15,23.96c-.72,0-1.3-.58-1.3-1.3s.58-1.3,1.3-1.3,1.3,.58,1.3,1.3-.58,1.3-1.3,1.3Zm-1.46-13.48h2.92c.24,0,.46,.2,.43,.43l-.87,7.62c-.03,.23-.2,.43-.43,.43h-1.19c-.23,0-.41-.2-.43-.43l-.87-7.62c-.03-.24,.19-.43,.43-.43Z"/></g></svg>