<?xml version="1.0" encoding="UTF-8"?><svg id="Capa_1" xmlns="http://www.w3.org/2000/svg" viewBox="0 0 31 31"><defs><style>.cls-1{fill:#e7e6e6;fill-rule:evenodd;}</style></defs><path class="cls-1" d="m21.62,20.37c-.09.17-.26.27-.45.27h-11.24c-.19,0-.37-.11-.46-.28s-.07-.38.04-.54l2.25-3.08c.1-.13.25-.21.41-.21s.32.08.42.21l1.04,1.43,3-4.47c.1-.17.26-.26.43-.26s.33.09.43.23l4.11,6.17c.11.16.12.36.03.53m-10.76-10.01c.85,0,1.54.69,1.54,1.54s-.66,1.54-1.54,1.54-1.54-.69-1.54-1.54.72-1.54,1.54-1.54Zm19.64,11v9.14h-8.92v-.69h8.23v-8.45h.69ZM21.58.5h8.92v9.14h-.69V1.19h-8.23V.5ZM1.19,21.36v8.45h8.66v.69H.5v-9.14h.69ZM.85.5h9.01v.69H1.19v8.45h-.69V.5h.35Zm20.81,7.81h-12.33c-1.11,0-2.03.92-2.03,2.06v10.28c0,1.14.92,2.06,2.03,2.06h12.33c1.14,0,2.06-.92,2.06-2.06v-10.28c0-1.14-.89-2.06-2.06-2.06Z"/></svg>