<?xml version="1.0" encoding="UTF-8"?><svg id="Capa_1" xmlns="http://www.w3.org/2000/svg" viewBox="0 0 50 60"><defs><style>.cls-1{fill:#dec9a3;}</style></defs><path class="cls-1" d="M37.29,26.76c-6.25,.3-14.3-.05-20.93,.02-5.13,.06-5.14,6.46,0,6.52,6.64,.08,14.67-.28,20.93,.02-.67,.95-5.79,5.64-7.12,7.01-3.56,3.64,1.12,8.24,4.75,4.74l10.66-10.64c3.83-3.82,3.99-4.8,.11-8.67l-10.77-10.75c-3.63-3.5-8.22,1.07-4.86,4.63,1.17,1.23,2.41,2.34,3.64,3.54,.99,.96,2.89,2.6,3.58,3.58M10.5,1.17h9.79V5.35H10.5c-1.34,0-2.55,.55-3.44,1.43-.88,.88-1.43,2.1-1.43,3.44V49.87c0,1.34,.55,2.56,1.43,3.44,.88,.88,2.1,1.43,3.44,1.43h9.79v4.18H10.5c-2.49,0-4.75-1.02-6.39-2.66-1.64-1.64-2.66-3.9-2.66-6.39V10.22c0-2.49,1.02-4.75,2.66-6.39,1.64-1.64,3.9-2.66,6.39-2.66Z"/></svg>