<?xml version="1.0" encoding="utf-8"?>
<!-- Generator: Adobe Illustrator 26.3.1, SVG Export Plug-In . SVG Version: 6.00 Build 0)  -->
<svg version="1.1" id="Capa_1" xmlns="http://www.w3.org/2000/svg" xmlns:xlink="http://www.w3.org/1999/xlink" x="0px" y="0px"
	 viewBox="0 0 48 48" style="enable-background:new 0 0 48 48;" xml:space="preserve">
<style type="text/css">
	.st0{fill:#FFFFFF;}
</style>
<path class="st0" d="M8,38v-3h4.2V19.7c0-2.7,0.8-5.2,2.5-7.4s3.8-3.6,6.5-4.2V6.7c0-0.8,0.3-1.4,0.8-1.9S23.2,4,24,4
	c0.8,0,1.4,0.2,2,0.8c0.6,0.5,0.8,1.1,0.8,1.9v1.5c2.7,0.6,4.9,2,6.6,4.2c1.7,2.2,2.5,4.7,2.5,7.4V35H40v3H8z M24,44
	c-1.1,0-2-0.4-2.8-1.2C20.4,42,20,41.1,20,40h8c0,1.1-0.4,2-1.2,2.8C26,43.6,25.1,44,24,44z"/>
</svg>
