<?xml version="1.0" encoding="UTF-8"?><svg id="Capa_1" xmlns="http://www.w3.org/2000/svg" viewBox="0 0 26 25"><defs><style>.cls-1{fill:#fff;fill-rule:evenodd;}</style></defs><path class="cls-1" d="M21.21,19.77c0,.92-.75,1.67-1.67,1.67s-1.67-.75-1.67-1.67,.75-1.67,1.67-1.67,1.67,.75,1.67,1.67m-13.39,0c0-.92,.75-1.67,1.67-1.67s1.67,.75,1.67,1.67-.75,1.67-1.67,1.67-1.67-.75-1.67-1.67ZM6.71,3.59c.4,0,.75,.28,.82,.68l.05,.44h14.66c.71,0,1.27,.71,1.07,1.42l-1.88,6.69c-.14,.48-.58,.81-1.07,.81H9.31l.32,1.67h10.74c.46,0,.84,.37,.84,.84s-.37,.84-.84,.84H8.91c-.37,0-.71-.29-.79-.68L6.02,5.27h-1.82c-.46,0-.84-.38-.84-.84s.38-.84,.84-.84h2.51Z"/></svg>