<?xml version="1.0" encoding="UTF-8"?><svg id="Capa_1" xmlns="http://www.w3.org/2000/svg" viewBox="0 0 24 26"><defs><style>.cls-1{fill:#bc955c;}</style></defs><path class="cls-1" d="M6.49,10.32c-.45-.26-.98-.41-1.55-.41-.85,0-1.63,.35-2.19,.91-.56,.56-.91,1.33-.91,2.19s.35,1.63,.91,2.19c.56,.56,1.33,.91,2.19,.91s1.63-.35,2.19-.9c.56-.56,.91-1.33,.91-2.19,0-.27-.03-.52-.09-.77-.06-.25-.16-.49-.28-.71l-.04-.08c-.27-.47-.66-.86-1.13-1.13m14.76,8.64c-.56-.56-1.33-.9-2.19-.9-.56,0-1.08,.15-1.53,.41-.47,.27-.86,.66-1.14,1.12v.02c-.14,.23-.25,.48-.32,.74-.07,.26-.1,.53-.1,.8,0,.85,.35,1.63,.91,2.19,.56,.56,1.33,.91,2.19,.91s1.63-.35,2.19-.9c.56-.56,.91-1.34,.91-2.19s-.35-1.63-.9-2.19h0Zm0-16.31c-.56-.56-1.33-.9-2.19-.9s-1.63,.35-2.19,.91c-.56,.56-.91,1.33-.91,2.19,0,.28,.04,.55,.1,.8,.07,.27,.18,.52,.31,.75,.27,.47,.67,.86,1.14,1.14,.45,.26,.98,.41,1.55,.41,.86,0,1.63-.35,2.19-.9,.56-.56,.91-1.34,.91-2.19s-.35-1.63-.9-2.19h0Zm-13.03,7.86l7.05-4.07c-.07-.17-.14-.35-.18-.54-.09-.34-.14-.7-.14-1.07,0-1.13,.46-2.16,1.21-2.91,.74-.75,1.77-1.21,2.91-1.21s2.16,.46,2.91,1.21h0c.74,.75,1.2,1.77,1.2,2.91s-.46,2.16-1.2,2.91c-.75,.74-1.77,1.21-2.91,1.21-.74,0-1.45-.2-2.05-.55-.48-.28-.9-.65-1.23-1.08l-7.05,4.07c.08,.19,.15,.38,.2,.58,.08,.33,.13,.67,.13,1.02,0,.57-.11,1.11-.32,1.6l7.05,4.07c.34-.44,.76-.82,1.24-1.09,.6-.34,1.3-.54,2.04-.54,1.13,0,2.16,.46,2.91,1.2h0c.74,.75,1.2,1.78,1.2,2.91s-.46,2.16-1.2,2.91c-.75,.74-1.77,1.2-2.91,1.2s-2.16-.46-2.91-1.2c-.74-.74-1.21-1.77-1.21-2.91,0-.37,.05-.72,.14-1.07,.05-.18,.11-.36,.18-.53l-7.05-4.07c-.12,.15-.24,.29-.37,.43-.75,.74-1.77,1.2-2.91,1.2s-2.16-.46-2.91-1.2c-.74-.74-1.2-1.77-1.2-2.91s.46-2.16,1.21-2.91c.74-.75,1.77-1.21,2.91-1.21,.74,0,1.45,.2,2.05,.55,.48,.28,.9,.65,1.23,1.08Z"/></svg>