<?xml version="1.0" encoding="UTF-8"?><svg id="Capa_1" xmlns="http://www.w3.org/2000/svg" xmlns:xlink="http://www.w3.org/1999/xlink" viewBox="0 0 97 99"><defs><style>.cls-1,.cls-2{fill:none;}.cls-3{clip-path:url(#clippath);}.cls-4{fill:#691c20;}.cls-5{fill:#eae6f2;}.cls-6{fill:#ffdc94;}.cls-7{fill:#e8913a;}.cls-8{fill:#eea886;}.cls-9{fill:#fae6de;}.cls-10{fill:#eddad3;}.cls-11{fill:#98989a;}.cls-12{fill:#7f827f;}.cls-13{fill:#323657;}.cls-14{fill:#b4b1ba;}.cls-15{fill:#9f2241;}.cls-16{fill:#d8d5e0;}.cls-17{fill:#bc955c;}.cls-18{fill:#a77860;}.cls-19,.cls-20{fill:#ddc9a3;}.cls-21{fill:#db9c7c;}.cls-22{fill:#d6c5be;}.cls-23{fill:#10312b;}.cls-24{fill:#252e3b;}.cls-25{fill:#235b4e;}.cls-26{fill:#1f3b6b;}.cls-27{fill:#202338;}.cls-28{fill:#0e1e2b;}.cls-29{fill:#6f7271;}.cls-30{fill:#6e727b;}.cls-31{fill:#292c47;}.cls-32{fill:#5d676c;}.cls-33{fill:#81807e;}.cls-2{clip-rule:evenodd;}.cls-34{clip-path:url(#clippath-1);}.cls-20{fill-rule:evenodd;}.cls-35{fill:url(#Degradado_sin_nombre_2);}</style><clipPath id="clippath"><rect class="cls-1" width="97" height="99"/></clipPath><clipPath id="clippath-1"><path class="cls-2" d="M91.77,84.08l-36.48-.38-.62-34.04v-15.6s-.04-10.47,9.46-11.1h32.85v1.19c-5.1,2.89-5.21,9.91-5.21,9.91v50.02Z"/></clipPath><linearGradient id="Degradado_sin_nombre_2" x1="85.9" y1="77.27" x2="59.94" y2="16.16" gradientUnits="userSpaceOnUse"><stop offset="0" stop-color="#ff9f55"/><stop offset="1" stop-color="#ffd255"/></linearGradient></defs><g class="cls-3"><g><rect class="cls-15" width="97" height="99"/><path class="cls-19" d="M46.67,39.54c.41-10.3,6.85-20.75,16.75-23.6,8.62-2.48,17.73,.95,25.95,4.53,2.49,1.09,5.04,2.2,7.62,3.19v55.31c-4.54,1.16-9.27,1.56-13.93,1.1-15.47-1.51-28.34-11.6-33.82-25.95-1.77-4.64-2.77-9.6-2.58-14.58"/><path class="cls-19" d="M82.71,99c-2.55-1.74-5.04-3.62-7.57-5.34-6.68-4.58-15.04-8.4-22.68-5.7-4.32,1.52-7.74,4.98-10.1,8.9-.42,.7-.81,1.41-1.16,2.14h41.51Z"/><path class="cls-7" d="M96.99,23.64h-31.37c-9.5,.63-9.46,11.1-9.46,11.1v50.02h37.09V34.74s.09-5.59,3.73-8.85v-2.25Z"/><g class="cls-34"><rect class="cls-35" x="54.64" y="22.96" width="42.35" height="61.12"/></g><rect class="cls-6" x="59.55" y="36.03" width="25.48" height="2.25"/><rect class="cls-6" x="59.55" y="41.22" width="21.75" height="1.59"/><rect class="cls-6" x="59.55" y="45.43" width="10.94" height="2.36"/><rect class="cls-6" x="73.72" y="45.43" width="11.31" height="2.36"/><rect class="cls-6" x="59.55" y="49.98" width="17.42" height="1.69"/><rect class="cls-6" x="59.55" y="54.2" width="19.63" height=".94"/><rect class="cls-6" x="59.55" y="58.41" width="23.6" height=".94"/><path class="cls-6" d="M70.57,67.86h-11.1v-5.31h11.1v5.31Zm-10.94-.16h10.78v-4.99h-10.78v4.99Z"/><rect class="cls-6" x="73.23" y="62.63" width="9.93" height="1.22"/><rect class="cls-6" x="73.23" y="65.2" width="7.04" height="1.22"/><rect class="cls-6" x="59.55" y="71.06" width="21.23" height=".94"/><rect class="cls-6" x="59.55" y="75.27" width="11.18" height=".94"/><path class="cls-6" d="M88.62,77.74h-6.98v-6.98h6.98v6.98Zm-6.33-.64h5.69v-5.69h-5.69v5.69Z"/><polygon class="cls-6" points="85.24 75.7 82.79 73.39 83.52 72.61 85.29 74.28 89.14 71.11 89.82 71.94 85.24 75.7"/><path class="cls-30" d="M61.79,51.36h0m-7.89,2.12c2.49-1.44,5.2-2.12,7.89-2.12-.74,0-1.49,.05-2.24,.16-1.66,.24-3.3,.75-4.87,1.54-.23,.12-.45,.24-.68,.36-.03,.02-.07,.04-.1,.06Zm21.54,5.73s-.03-.05-.04-.07c.01,.02,.03,.05,.04,.07Z"/><path class="cls-8" d="M58.5,78.43s.14,.14,.19,.26c.04,.1,.17,.23,.23,.31,.06,.08,.29,.43,.33,.53,.01,.04,0,.32,.03,.4,.04,.08,.13,.23,.06,.26-.07,.03-.19-.09-.19-.09,0,0,.03,.07-.03,.12-.11,.09-.19,.03-.19,.03,0,0-.02,.12-.07,.15-.12,.05-.19,0-.19,0,0,0-.04,.09-.13,.1-.11,.02-.18-.08-.18-.08,0,0-.13,.06-.19,0-.06-.06-.08-.11-.11-.16-.03-.06-.17-.59-.1-1.02,.07-.43-.26-.75-.26-.75l.8-.07Z"/><path class="cls-28" d="M59.68,81.71h-1.85c-.19,0-.34-.15-.34-.34v-1.17c0-.19,.15-.34,.34-.34h1.85c.19,0,.34,.15,.34,.34v1.17c0,.19-.15,.34-.34,.34m-1.85-1.62c-.06,0-.11,.05-.11,.11v1.17c0,.06,.05,.11,.11,.11h1.85c.06,0,.11-.05,.11-.11v-1.17c0-.06-.05-.11-.11-.11h-1.85Z"/><rect class="cls-11" x="55.3" y="81.21" width="6.93" height="4.96"/><path class="cls-8" d="M55.82,67.93s-.35,0-.51,1.07c-.15,1.06,.14,1.51,.17,1.95,.03,.44,.55,3.29,.57,3.42,.01,.13,.08,1.64,.29,2.05,.2,.4,1.69,2.69,1.71,2.8,.02,.11,.72-.4,.72-.4,0,0-1.17-2.44-1.23-2.72-.07-.28-.54-1.7-.46-2.14,.07-.43-.21-2.83-.18-3.1,.03-.27-.39-2.77-1.07-2.93"/><path class="cls-17" d="M55.82,67.93s-.35,0-.51,1.07c-.15,1.06-.01,1.44,.08,1.9,.09,.43,.38,3.09,.39,3.22,.01,.13,.37,1.73,.55,2.29,.14,.43,1.46,2.67,1.48,2.79,.02,.11,1.03-.52,1.03-.52,0,0-1.3-2.53-1.36-2.8-.07-.28-.29-1.24-.29-1.68,0-.52-.33-3.06-.31-3.32,.03-.27-.07-2.57-1.07-2.93"/><path class="cls-4" d="M52.85,92.68s.62,.92,.87,1.14c0,0,.57,.2,.61,.59,.02,.26,0,.66-.65,.68-.65,.02-1.07-.21-1.19-.61-.12-.4-.35-.57-.35-.57v.83h-.15s-.04-.8-.05-.95c0-.15-.11-.72,.21-.97,.31-.25,.71-.14,.71-.14"/><path class="cls-4" d="M57.04,91.95s.11,.25,.31,.52c.15,.19,.61,.99,.81,1.04,.2,.06,.83,.17,.89,.52,.06,.35,.08,.6-.53,.63-.62,.03-1.02,.06-1.32-.37-.29-.43-.77-.75-.77-.75v1.13h-.24s-.11-1.18-.17-1.26c-.07-.08-.23-.99,.34-1.46,.57-.47,.69,0,.69,0"/><path class="cls-8" d="M52.43,74.97s-.78,1.01-.99,2.22c-.21,1.2,.13,5.24,.12,5.84,0,.59-.56,2.08-.45,3.2,.11,1.12,1.04,6.61,1.04,6.61l.71-.14s-.07-5.69,0-6.16c.07-.47,.21-2.19,.24-2.38,.03-.19,1.76-5.28,1.76-6.15s-.53-4.45-2.41-3.03"/><path class="cls-8" d="M56.35,75.36s1.28,4.89,1.43,5.57c.15,.68,.37,1.24,.37,1.53,0,.67-.25,1.74-.25,1.74l-.87,7.75h-.69s-.43-4.53-.5-5.44c-.07-.91,.5-2.33,.36-2.71-.14-.39-2.23-4.86-2.23-4.86,0,0-1.58-5,2.37-3.58"/><path class="cls-8" d="M53.82,93.87s-.54,.28-1.03-.09-.65-.95-.65-.95l.71-.14,.97,1.19Z"/><path class="cls-8" d="M58.16,93.51s-.55,.14-.77,0c-.21-.14-.93-1.36-1.17-1.43,0,0,.23-.47,.82-.13,0,0,.96,1.36,1.12,1.56"/><path class="cls-4" d="M58,81.71s-2.36,1.39-6.77,1.39c0,0-.25-5.12,.39-6.56,.64-1.44,4.9-.54,4.9-.54,0,0,1.32,4.66,1.48,5.72"/><path class="cls-10" d="M54.78,67.55s.69,.32,.92,.37c.24,.05,1.16,1.25,1.32,1.68,.16,.44,0,1.09-.33,1.86-.33,.77-.02,1.03-.17,1.8-.15,.77-.29,2.4-.26,2.83,.03,.43-3.85,.51-4.73-.27,0,0,.89-1.33,1-1.52,.11-.19,.02-1.23-.09-1.49-.1-.27-.8-2.53-.8-2.53,0,0-.57-1.74-.06-2.14,.45-.35,1.67-.47,1.88-.55,.22-.08,.85-.11,1.3-.04"/><path class="cls-22" d="M55,69.07l.42-.49-.36-1.28s-.12,.71-.05,1.77"/><path class="cls-8" d="M53.91,62.69c.41-.14,1.9-.5,2.25,1.42,.35,1.91-.7,3.27-1.67,2.91-.97-.36-1.57-1.68-1.63-2.69-.06-1.01,.53-1.45,1.05-1.64"/><path class="cls-24" d="M56.17,64.11s.07-1.64-1.55-1.69c-1.63-.06-2.06,1.28-1.93,2.26,.13,.98,.81,1.49,.81,1.49,0,0-.06-.79,.26-.99,.32-.21,1.58-.61,2.13-1.56,0,0,.26,.3,.29,.5"/><path class="cls-24" d="M54.14,63.93c-.21,.65-.85,1.03-1.42,.84-.57-.19-.86-.87-.64-1.52,.21-.65,.85-1.03,1.42-.84,.57,.19,.86,.87,.64,1.52"/><path class="cls-8" d="M55.1,66.76s-.14,1.26-.11,1.67c0,0-.71,.71-1.52-.83,0,0,.34-.64,.08-1.5-.26-.87,1.54,.67,1.54,.67"/><polygon class="cls-8" points="55 68.42 55 69.07 54.18 68.46 55 68.42"/><polygon class="cls-22" points="55 69.07 54.66 68.65 53.51 67.51 53.14 67.87 55 69.07"/><path class="cls-17" d="M53.35,67.62s.96,1.46,1.01,2.1c.05,.64-.36,5.44-.68,6.99-.32,1.54-2.66-.17-2.66-.17,0,0,1.57-2.54,.97-4.57-.6-2.03-.82-2.84-.82-2.84,0,0,.21-1.13,.94-1.29,.64-.14,1.24-.21,1.24-.21"/><path class="cls-17" d="M57.08,69.8s.17,.61-.5,1.97c0,0,.01,1.74,.03,2.28,.02,.54,.15,2.59,.15,2.59l-.67,.39c-.13,.08-.3-.03-.28-.19,.19-1.56,.8-7.48-.52-9.07l.53,.16s.95,.78,1.27,1.87"/><path class="cls-8" d="M53.91,64.82c-.06-.15-.26-.19-.37-.11-.11,.09-.18,.34,0,.68,.18,.33,.82,.56,.37-.57"/><polygon class="cls-9" points="55.41 68.59 55.94 68.73 55.05 67.3 55.41 68.59"/><polygon class="cls-9" points="54.66 68.65 54.18 69.28 53.19 67.64 53.51 67.51 54.66 68.65"/><path class="cls-18" d="M55.08,67.03l-.02,.25s-.57,.11-1.31-.8c0,0,.52,.64,1.33,.55"/><path class="cls-8" d="M57.99,74.72s.33,.21,.52,.1c.16-.1,.45-.12,.53-.12,.12,0,.47-.16,.48-.01,0,.15-.57,.28-.68,.33-.12,.05,.39,.3,.45,.42,.06,.12-.4,.94-.73,.73-.33-.21-.54-.65-.61-.68-.07-.03-.25-.14-.25-.14l.28-.62Z"/><path class="cls-8" d="M51.67,68.06s.46-.11,.86,.31c.4,.43,.6,1.13,.7,1.36,.1,.23,1.43,2.34,1.5,2.39,.08,.05,1.42,1.13,2.03,1.71,.61,.58,1.79,1.23,1.79,1.23l-.45,.63s-3.6-1.92-4.06-2.62c-.46-.7-2.28-2.65-2.28-2.65,0,0-1.09-1.64-.1-2.35"/><path class="cls-8" d="M59.22,75.37s.97,.71,.99,.81c.02,.1-.02,.15-.11,.09-.09-.06-.95-.66-.95-.66,0,0,1,1.03,1.04,1.11,.02,.05-.05,.15-.11,.12-.05-.03-1.1-1-1.1-1,0,0,.93,.97,.95,1.04,.01,.07-.08,.14-.16,.07-.07-.07-.99-.92-.99-.92,0,0,.63,.75,.61,.82-.02,.04-.08,.13-.24-.06-.16-.2-.58-.63-.58-.63l.65-.8Z"/><path class="cls-20" d="M56.74,71.43s.03,2.17-.1,3.21l-.06-2.87,.16-.34Z"/><path class="cls-17" d="M51.91,67.9s.26,.04,.66,.47c.4,.43,.6,1.13,.7,1.36,.1,.23,1.43,2.34,1.5,2.39,.08,.05,1.18,.8,1.79,1.38,.61,.58,1.74,1.27,1.74,1.27l-.58,.86s-3.18-1.76-3.68-2.43c-.54-.72-2.46-2.82-2.46-2.82,0,0-1.24-1.91,.33-2.49"/><path class="cls-21" d="M59.16,80.06s-.12-.48-.28-.55c-.16-.07-.12,.1-.12,.1,0,0-.03-.18-.18-.17-.14,0-.09,.21-.09,.21,0,0-.06-.13-.2-.06-.14,.06-.05,.22-.05,.22,0,0-.19-.13-.23,.05-.07,.3,.16,.58,.16,.58,0,0,.06,.06,.19,0,0,0,.15,.16,.31-.02,0,0,.24,.07,.27-.14,0,0,.26,.05,.22-.22"/><path class="cls-20" d="M54.07,73.72l-1.09-1.76s.93,1.1,1.02,1.21c.1,.12,.11,.13,.11,.13,0,0-.03,.36-.04,.42"/><path class="cls-8" d="M65.42,77.95s.07,.34,.21,.69c.06,.17,.1,1.28,.09,1.42,0,.12-.09,.05-.13-.03-.02-.05-.1-.43-.17-.63-.06-.17-.11-.24-.14-.18-.03,.06-.08,.77-.02,1.07,.07,.3,0,1.01-.16,.91-.16-.1-.54-1.37-.5-1.85,.03-.48,.2-1.08,.2-1.08l.62-.32Z"/><path class="cls-25" d="M65.27,78.6s.52-3.48,.66-4.14c.06-.3,.24-1.05,.35-1.66,.04-.2,.07-.41,.09-.61h0c.1-.81,.13-1.55,.13-1.55,0,0,.45-2.08-.86-2.21,0,0-.35,.11-.37,.25-.08,.56-.26,1.76-.27,2.04,0,.23-.35,2.57-.35,2.65,0,.16-.09,1.24-.12,1.72-.07,1.11-.1,3.59-.1,3.59l.84-.07Z"/><path class="cls-27" d="M64.86,93.44s-.51,.57-1.02,.68c-.51,.12-.87,.27-.88,.59,0,.32,1.48,.54,2.07,.21,.88-.49,.97-.34,1.07-.59,.1-.24-.12-.9-.11-.98,0-.1-1.12,.07-1.12,.07"/><path class="cls-27" d="M70.03,93.59s-.37,.55-.87,.68c-.49,.13-.81,.36-.83,.68-.02,.32,1.16,.73,1.99,.17,.55-.36,.75-.34,.86-.57,.11-.23-.06-.88-.05-.96,.01-.09-1.1,0-1.1,0"/><path class="cls-33" d="M64.91,93.17s-.07,.27-.06,.27c0,0,1.16,.14,1.12-.07-.03-.17-.07-.36-.07-.36l-1,.16Z"/><path class="cls-33" d="M70.04,93.31s-.02,.27-.01,.27c0,0,1.1,.21,1.1,0,0-.17-.07-.37-.07-.37l-1.01,.1Z"/><path class="cls-23" d="M65.96,77.3s-.42,4.06-.64,5.45c-.25,1.63-.34,2.97-.41,3.81-.09,1.06-.11,6.26-.17,6.57-.06,.31,1.38,.09,1.38,.09,0,0,.71-6.8,.98-7.93,.25-1.05,1.17-5.57,1.39-5.28,.23,.29,.51,5.27,.67,6.1,.17,.83,.68,7.31,.68,7.31,0,0,1.15,.23,1.46-.03,0,0,.14-5.58,.03-7.13-.04-.59,.69-7.09-.25-9.7-.5-1.38-5.13,.75-5.13,.75"/><path class="cls-16" d="M73.12,77.87s-.7,.21-1,.16c-.3-.05-.15-3.68-.16-4.43,0-.61-.34-2.23-.34-2.23h0s0,0,0,0h0c-.03,.12-.48,1.8-.5,2.6-.02,.83,.11,4.03,.11,4.03l-1.12,.53-3.88,.11h-.56s.09-1.89,.12-2.54c.02-.41,.1-1.15,.08-1.87,0,0,.01-.76-.06-1.08,0-1.44-.1-2.87-.1-2.87-.05-.65-.08-1.26-.1-1.83,.16-.08,.35-.18,.5-.25,.47-.22,1.12-.52,1.54-.72,.25-.11,.49-.2,.49-.2,0,0,1.68-.16,1.81-.15,.04,0,.25,.08,.53,.18,.59,.23,1.74,.69,1.92,.82,.27,.19,.83,4.75,.86,5.07,.05,.57-.14,4.66-.14,4.66"/><path class="cls-8" d="M69.94,67.14c-.12,1.13-1.38,1.13-1.38,1.13,0,0-.52-.45-.5-.79,0,0,0-.01,0-.02,0-.06,.08-.14,.09-.26,0-.02,0-.03,0-.05,0-.02,0-.03,0-.05,0-.09,0-.17-.01-.23,0-.02,0-.04,0-.05,0-.02,0-.03,0-.03,0,0,.2-.21,.46-.47,.45-.44,1.07-1.01,1.07-.79,0,.01,0,.03,0,.04-.11,.51,.29,1.57,.29,1.57"/><path class="cls-32" d="M69.82,76.48s.1,.64,.11,.81l.22-.04s-.06-.68-.09-.79l-.23,.03Z"/><path class="cls-12" d="M73.35,80.21s-.07-.9-.31-1.03c-.24-.14-.1,.14-.1,.14,0,0,.14,.65,.18,.91,0,.01,.23-.02,.23-.02"/><polygon class="cls-29" points="70.97 80.84 74.14 79.89 74.19 83.81 71.05 85.75 70.97 80.84"/><polygon class="cls-29" points="71.05 85.75 71.45 85.82 74.5 83.86 74.4 79.91 74.14 79.89 71.05 85.75"/><path class="cls-14" d="M69.08,67.81l-.52,.46s.6-.04,.72-.14l-.19-.32Z"/><path class="cls-31" d="M65.77,78.05s2.45,.21,4.61,0v.71s-3.23,.47-4.71-.13l.11-.57Z"/><path class="cls-25" d="M67.65,67.49c-.14,.06-.3,.14-.47,.21-.36,.17-.76,.35-1.08,.5-.17,.08-.38,.17-.54,.24,.02,.58,.05,1.2,.1,1.87,0,0,.05,1.63,.14,3.17,.03,.22,.05,.45,.03,.68-.02,.3-.06,.63-.1,.97h0c0,.09-.02,.18-.03,.26h0c-.21,1.72-.56,3.69-.75,4.29-.04,.12,.1,.24,.19,.33l.67,.42s.28-2.55,.37-3.41c.09-.84,.37-1.95,.49-3.04h0c.15-1.38,.37-2.74,.48-3.55,.3-2.1,.7-3.03,.7-3.03l-.22,.09Z"/><path class="cls-25" d="M71.91,73.64c.05,.7-.24,4.57,.05,4.63,.3,.05,1.38-.18,1.38-.18,0,0,.14-4.17,.09-4.61-.03-.32-.54-5.1-.81-5.29-.15-.11-1.3-.52-1.86-.74-.1-.04-.2-.08-.29-.11-.12,.13-1.38,2.47-1.48,4.37-.03,.58,.11,1.8,.21,2.8,.11,1.07,.23,1.9,.32,2.79,.18,1.76,.3,3.15,.3,3.15l1.75-.78c.28-.14,.67-.72,.57-1.02-.4-1.13-.91-3.06-.91-4.06,0,0,.19-2.43,.35-2.96,0,0,.28,1.13,.34,2.02"/><path class="cls-8" d="M72.24,78.22s-.09,.39-.2,.78c-.12,.39-.23,.52-.18,.74,.04,.17,.23,.29,.28,.24,.05-.05,.06-.71,.33-.71,.27,0-.07,.81,.09,.75,.16-.06,.78-.41,.73-.74-.04-.33-.3-.56-.29-1.06,0-.45-.13-.63-.13-.63l-.63,.63Z"/><path class="cls-12" d="M72.45,79.23s-.36,.1-.32,1.32l.41-.07s-.02-.67,.1-1.04c0,0-.02-.24-.19-.2"/><path class="cls-25" d="M71.87,75.59l.02,3.08s.61-.03,1.46-.34l.06-4.34-1.54,1.6Z"/><path class="cls-16" d="M67.99,67.89s-.05,.64,.5,.66c.54,.01,.97-.51,.97-.51l-.9,.23-.55-.46-.02,.08Z"/><path class="cls-5" d="M69.87,66.93s-.51,.66-.78,.88l.44,.74,.76-1.29-.42-.32Z"/><path class="cls-14" d="M68.1,67.93l.46,.34s-.41-.74-.42-1.08l-.05,.73Z"/><polygon class="cls-5" points="68.14 67.19 67.85 67.41 67.51 68.4 68.1 67.93 68.14 67.19"/><path class="cls-26" d="M65.74,72.32s.13,1.14,.06,2.19c-.07,1.04-.36,2.71-.36,2.71,0,0,0-3.66,.29-4.9"/><path class="cls-8" d="M66.67,63.89s-.33,.8-.11,.89c.18,.08-.11,.86-.14,.98-.03,.13,.32,.18,.41,.25,.08,.07,.4,1.01,.69,1,.29,0,1.54-.59,1.85-.99,.31-.4,.43-2.09,.12-2.77-.31-.68-2.24-.76-2.82,.63"/><path class="cls-13" d="M66.6,64.06s-.5-.77,.19-1.46c.69-.68,2.19,.23,2.36,.25,.16,.02,1.11,.23,.79,1.66-.28,1.28-.31,1.31-.31,1.31,0,0-.38-.68-.55-.78-.27-.16-.83-.06-.83-.06,0,0,.19-.74-.23-.79-.43-.06-1.01-.35-1.42-.15"/><path class="cls-8" d="M68.65,64.55c.03-.1,.1-.53,.48-.32,.38,.21-.11,1.05-.18,1.07-.06,.02-.53,.1-.31-.75"/><path class="cls-18" d="M69.32,66.08s-.29,.71-1.17,1.06c0-.02,0-.03,0-.05,0-.09,0-.17-.01-.23,0-.02,0-.04,0-.05,0,0,.94-.44,1.18-.73"/></g></g></svg>