<?xml version="1.0" encoding="UTF-8"?><svg id="Capa_1" xmlns="http://www.w3.org/2000/svg" viewBox="0 0 61.5 70"><defs><style>.cls-1{fill:#bc955c;}</style></defs><path class="cls-1" d="M40.15,44.95v2.04h-3.98v4.45h-2.51v-11.08h6.77v2.05h-4.26v2.53h3.98Zm-17.94,6.44v-10.88c.92-.15,2.12-.23,3.39-.23,2.1,0,3.47,.38,4.54,1.18,1.15,.85,1.87,2.22,1.87,4.18,0,2.12-.77,3.58-1.84,4.48-1.17,.97-2.94,1.43-5.11,1.43-1.3,0-2.22-.08-2.85-.17Zm27,10.31H15.56c-1.4,0-2.53-1.14-2.53-2.53v-2.93h31.38c1.46,0,2.63-1.18,2.63-2.63v-15.97c0-1.46-1.18-2.63-2.63-2.63H13.03V10.83c0-1.39,1.14-2.53,2.53-2.53l23.17-.02v8.56c0,2.5,2.03,4.53,4.53,4.53l8.39-.03,.09,37.82c0,1.4-1.13,2.53-2.53,2.53ZM12.66,40.52c.77-.13,1.86-.23,3.38-.23s2.65,.3,3.39,.89c.71,.56,1.18,1.48,1.18,2.56s-.36,2-1.02,2.63c-.85,.8-2.12,1.17-3.6,1.17-.33,0-.63-.02-.86-.05v3.96h-2.48v-10.93ZM40.23,4.29H15.56c-3.6,0-6.54,2.93-6.54,6.54v24.17h-.64c-1.46,0-2.63,1.18-2.63,2.63v15.97c0,1.46,1.18,2.63,2.63,2.63h.64v2.93c0,3.61,2.93,6.54,6.54,6.54H49.21c3.6,0,6.54-2.93,6.54-6.54V19.76l-15.52-15.47Zm-14.36,37.92c-.56,0-.92,.05-1.14,.1v7.25c.22,.05,.56,.05,.87,.05,2.27,.01,3.75-1.23,3.75-3.88,.02-2.3-1.33-3.52-3.48-3.52Zm-7.73,1.59c0-1.02-.71-1.63-1.96-1.63-.51,0-.85,.05-1.03,.1v3.27c.21,.05,.48,.07,.84,.07,1.33,0,2.15-.67,2.15-1.81Z"/></svg>