<?xml version="1.0" encoding="UTF-8"?><svg id="Capa_1" xmlns="http://www.w3.org/2000/svg" xmlns:xlink="http://www.w3.org/1999/xlink" viewBox="0 0 50 60"><defs><style>.cls-1{clip-path:url(#clippath);}.cls-2{fill:#fff;}.cls-3{clip-rule:evenodd;fill:none;}.cls-4{fill:#dec9a3;fill-rule:evenodd;}</style><clipPath id="clippath"><path class="cls-3" d="M28.65,1.07c-3.16,0-18.98-.21-20.74,.11C4.97,1.7,3.42,3.87,3.36,7.09c-.22,13.19,0,28.05,0,41.48,0,3.38-.43,6.78,1.64,8.82,2.08,2.05,5.46,1.56,8.82,1.56h20.74c9.2,0,12.17,.94,12.17-8.68V19.16c-19.45,0-18.09,1.64-18.09-9.17V1.07m3.66,14.47h13.36l1-.07L32.34,1.32l-.03,.96V15.54Z"/></clipPath></defs><path class="cls-4" d="M28.65,1.07c-3.16,0-18.98-.21-20.74,.11C4.97,1.7,3.42,3.87,3.36,7.09c-.22,13.19,0,28.05,0,41.48,0,3.38-.43,6.78,1.64,8.82,2.08,2.05,5.46,1.56,8.82,1.56h20.74c9.2,0,12.17,.94,12.17-8.68V19.16c-19.45,0-18.09,1.64-18.09-9.17V1.07m3.66,14.47h13.36l1-.07L32.34,1.32l-.03,.96V15.54Z"/><g class="cls-1"><path class="cls-2" d="M25,22.17c1.86,0,3.37,1.51,3.37,3.37s-1.51,3.37-3.37,3.37-3.37-1.51-3.37-3.37,1.51-3.37,3.37-3.37m-2.31,10.82c0-1.28,1.03-2.31,2.31-2.31s2.31,1.03,2.31,2.31v14.85c0,1.28-1.03,2.31-2.31,2.31s-2.31-1.03-2.31-2.31v-14.85Z"/></g></svg>