<?xml version="1.0" encoding="utf-8"?>
<!-- Generator: Adobe Illustrator 28.2.0, SVG Export Plug-In . SVG Version: 6.00 Build 0)  -->
<svg version="1.1" id="Capa_1" xmlns="http://www.w3.org/2000/svg" xmlns:xlink="http://www.w3.org/1999/xlink" x="0px" y="0px"
	 viewBox="0 0 253.8 112" style="enable-background:new 0 0 253.8 112;" xml:space="preserve">
<style type="text/css">
	.st0{fill:#BACF70;}
	.st1{fill:#96A33C;}
	.st2{fill:#48753A;}
	.st3{clip-path:url(#SVGID_00000103982158476925182370000010780278909137834425_);}
	.st4{fill:url(#SVGID_00000127749331446442248810000013193936995764931736_);}
	.st5{fill:#4DA7F1;}
	.st6{fill:#252E3B;}
	.st7{fill:#FFD155;}
	.st8{fill:#EDA785;}
	.st9{fill:#A67860;}
	.st10{fill:#87BFFF;}
	.st11{fill:#5F9FFF;}
	.st12{fill:#5188DA;}
	.st13{fill:#0C2B34;}
	.st14{fill:#DAD7E2;}
	.st15{fill:#323657;}
	.st16{fill:#EDA886;}
	.st17{clip-path:url(#SVGID_00000116206524872991417350000015573152670128305548_);}
	.st18{fill:#F59171;}
	.st19{fill:#E7734D;}
	.st20{fill:#C3C0CB;}
	.st21{fill:#EEA987;}
	.st22{clip-path:url(#SVGID_00000000904869758297993860000003342865007111780775_);}
	.st23{fill:#16202E;}
	.st24{fill:#FFC855;}
	.st25{fill:#CEA245;}
	.st26{fill:#DF9A79;}
	.st27{fill:#FFFFFF;}
	.st28{fill:#171E46;}
	.st29{fill:#235B4E;}
</style>
<g>
	<g>
		<path class="st0" d="M80.6,61.5c0,0,4.6,18.3-6.4,23.3c-11,5-8.9-4.2-8.9-4.2s-4.5-1.3,7.8-8.2C78.9,69.2,80.6,61.5,80.6,61.5"/>
		<path class="st1" d="M109.5,63.1c0,0,2.3,16-18.6,22.8C70,92.9,67,101.6,67,101.6S66.4,66.3,109.5,63.1"/>
		<path class="st2" d="M67,95.1c-6.2-2.4,8.5-15,19.9-14.7s19,4.5,26.6,2.8C113.4,83.2,97.5,106.8,67,95.1"/>
		<path class="st0" d="M21,70.9c0,0-11.4,8-7.6,16.1s7,2,7,2s3.1,1.5-0.4-8.4C18.3,76,21,70.9,21,70.9"/>
		<path class="st1" d="M4.1,57.9c0,0-8.9,7.8-0.6,21.7c8.4,13.9,5.8,20.2,5.8,20.2S26.7,80.4,4.1,57.9"/>
		<path class="st2" d="M12.5,96.3c4.6,1.7,2.5-12.5-4-17.8S-4.3,72-7.7,67.3C-7.7,67.3-10.2,88.2,12.5,96.3"/>
		<g>
			<defs>
				<path id="SVGID_1_" d="M64.9,86.7c0.9-1.5,1.6-3.2,2.1-4.9l3.7-0.7l0-4.1l0-4.1l-3.7-0.8c-0.4-1.7-1.1-3.4-2-4.9l2.1-3.1
					l-2.9-2.9l-2.9-2.9l-3.1,2.1c-1.5-0.9-3.2-1.6-4.9-2.1l-0.7-3.7l-4.1,0l-4.1,0l-0.8,3.7c-1.7,0.4-3.4,1.1-4.9,2l-3.1-2.1
					l-2.9,2.9L30,63.8l2.1,3.1c-0.9,1.5-1.6,3.2-2.1,4.9l-3.7,0.7l0,4.1l0,4.1l3.7,0.8c0.4,1.7,1.1,3.4,2,4.9l-2.1,3.1l2.9,2.9
					l2.9,2.9l3.1-2.1c1.5,0.9,3.2,1.6,4.9,2.1l0.7,3.7l4.1,0l4.1,0l0.8-3.7c1.7-0.4,3.4-1.1,4.9-2l3.1,2.1l2.9-2.9l2.9-2.9
					C67,89.9,64.9,86.7,64.9,86.7z M41.3,83.8c-3.9-3.9-3.8-10.3,0.1-14.1c3.9-3.9,10.3-3.8,14.1,0.1s3.8,10.3-0.1,14.1
					C51.5,87.8,45.2,87.8,41.3,83.8z"/>
			</defs>
			<clipPath id="SVGID_00000119096552685376536940000006645479539585561734_">
				<use xlink:href="#SVGID_1_"  style="overflow:visible;"/>
			</clipPath>
			<g style="clip-path:url(#SVGID_00000119096552685376536940000006645479539585561734_);">
				
					<linearGradient id="SVGID_00000007394159199007988730000011125552265102267565_" gradientUnits="userSpaceOnUse" x1="26.1763" y1="36.1707" x2="70.7674" y2="36.1707" gradientTransform="matrix(1 0 0 -1 0 113)">
					<stop  offset="0" style="stop-color:#95CAFF"/>
					<stop  offset="1" style="stop-color:#5598FF"/>
				</linearGradient>
				
					<rect x="26.2" y="54.5" style="fill:url(#SVGID_00000007394159199007988730000011125552265102267565_);" width="44.6" height="44.6"/>
			</g>
		</g>
		<path class="st5" d="M86.6,93.9c-0.2-0.3-0.6-0.5-1.1-0.5c-0.6,0-1.1,0.4-1.3,0.9c0,0.1-0.1,0.3-0.1,0.4c0,0.2,0,0.3,0.1,0.5
			c0.1,0.2,0.2,0.5,0.4,0.6c0.2,0.1,0.4,0.3,0.7,0.3c0,0,0.1,0,0.1,0c0,0,0,0,0.1,0h0c0.1,0,0.3,0,0.4-0.1c0.5-0.2,0.9-0.7,0.9-1.2
			C86.9,94.4,86.8,94.1,86.6,93.9 M85.9,95.7L85.9,95.7c0,0-0.2,0.1-0.3,0.1c0,0,0,0-0.1,0c-0.1,0-0.2,0-0.3,0
			c-0.1,0-0.2-0.1-0.3-0.2c0,0-0.1-0.1-0.1-0.1c-0.2-0.2-0.3-0.4-0.3-0.7c0-0.1,0-0.1,0-0.2c0,0,0-0.1,0-0.1c0.1-0.4,0.5-0.7,1-0.7
			c0.3,0,0.6,0.2,0.8,0.4c0.1,0.2,0.2,0.4,0.2,0.6C86.5,95.2,86.3,95.5,85.9,95.7L85.9,95.7z"/>
		<path class="st0" d="M73.5,70.2c0,0-6.6,6.3-3.4,11.2c3.2,4.9,4.7,0.6,4.7,0.6s2.2,0.7-1.1-5.4C72.3,73.8,73.5,70.2,73.5,70.2"/>
		<path class="st6" d="M83.9,72c0,0,3.2-9.3-2.9-12.2c-6.1-2.9-11.2,1.3-12.2,3.6c-1,2.3-0.7,6.4,0.1,9.2c0.8,2.9,0.7,7.2-1.1,8.7
			c-1.8,1.5-4.1,3.9-3.9,8.8c0.1,3.1,12.1-7.8,12.1-7.8S83.9,72,83.9,72z"/>
		<path class="st7" d="M75.3,83.1c0,0-5,1.1-7,2.3c-2,1.2-6.4,6.5-6.4,8.8s19.3,4.4,19.3,4.4l3.7,13.3c0,0,9.7-2.4,10.9-4.3
			c1.2-2-3.7-16.1-4.5-18.9c-0.9-2.9-4.3-4.9-8.4-5.5C78.8,82.5,75.3,83.1,75.3,83.1"/>
		<path class="st8" d="M82.5,83.1c0,0-0.1,6.1-4.9,6.2c-4.8,0.2-3.8-5.8-3.8-5.8S77.3,82.1,82.5,83.1"/>
		<path class="st6" d="M84.5,64.7c0,0,1.7,9.8-3.1,16.8C76.4,88.8,84.5,64.7,84.5,64.7"/>
		<path class="st8" d="M81.4,78.7c0,0-0.3,2.9,0.2,4.7c0.6,1.8-7.4,1.9-7.4,0.4c0-1.7,0.8-3.1,0.1-6C73.6,74.9,81.4,78.7,81.4,78.7"
			/>
		<path class="st9" d="M75.3,79.1c0,0,2.5,2.6,5.7,0.3c0,0-0.3,1.7-2.6,1.9C76.1,81.5,75.3,79.1,75.3,79.1"/>
		<path class="st8" d="M78.5,61.3c0,0,6.3,1.9,5.4,10.6c-0.9,8.8-5,8.3-5.4,8.4c-0.4,0.1-5.3,0.4-6.8-10.2
			C70.1,59.5,78.5,61.3,78.5,61.3"/>
		<path class="st6" d="M76.8,65.3c0,0,3.4,5.5,7,6.7c0,0,2-9.2-6.2-11.1c-8.2-1.9-6.9,9.3-6.3,12.2C71.4,73.1,73.1,68.8,76.8,65.3"
			/>
		<path class="st10" d="M72.2,64.4c0,0,1.8-3.5,4.8-3.7c3.1-0.2,4.9,2.5,4.9,2.5s-1.2-3-4.9-3C73.4,60.3,72.2,64.4,72.2,64.4"/>
		<polygon class="st11" points="84.6,92 86.8,111.9 58.6,111.9 56.4,92 		"/>
		<path class="st11" d="M86.1,111.2H57.7L55.5,91h28.4C83.9,91,86.1,111.2,86.1,111.2z M57.9,110.9h28l-2.1-19.7h-28L57.9,110.9
			L57.9,110.9z"/>
		<path class="st12" d="M73.3,101.6c0.3,1.2-0.3,2.4-1.3,2.6c-1,0.2-2-0.7-2.2-1.9c-0.3-1.2,0.3-2.4,1.3-2.6
			C72.1,99.5,73.1,100.4,73.3,101.6"/>
		<rect x="84.1" y="109.9" class="st11" width="5.3" height="2"/>
		<path class="st13" d="M79.6,69.2c0.2-0.2,0.5-0.3,0.7-0.3c0.3,0,0.5,0,0.7,0.1c0.2,0.1,0.5,0.2,0.7,0.4c0.2,0.2,0.3,0.4,0.5,0.6
			c0.1,0.1,0,0.2-0.1,0.3c-0.1,0.1-0.2,0-0.3,0h0c-0.1-0.1-0.3-0.3-0.4-0.4c-0.1-0.1-0.3-0.2-0.5-0.2c-0.2,0-0.3-0.1-0.5-0.1
			c-0.2,0-0.4,0-0.6,0h-0.1c-0.1,0-0.2-0.2-0.2-0.3C79.6,69.2,79.6,69.2,79.6,69.2"/>
		<path class="st14" d="M36.8,88.4c0.2-2.7,0.3-5.3,0.4-7.7c-0.7-0.3-1.5-0.8-2.1-1.1c-2-0.9-4.7-2.2-6.4-3c-1-0.5-2-0.8-2-0.8
			s-7-0.7-7.6-0.6c-0.2,0-1.1,0.3-2.2,0.8c-2.5,0.9-7.3,2.9-8,3.4c-1.1,0.8-5.1,20.4-5.2,21.8c-0.1,1.3,5.4,3.1,10.6,4.4
			c0,2,0,4.8-0.1,7.3c0,0.4,0,0.9,0,1.3h22.5c0-0.4-0.1-0.9-0.1-1.3c0-0.1,0-0.1,0-0.2c-0.1-1.7-0.4-4.8-0.3-7.8
			c0,0-0.1-3.2,0.3-4.5C36.5,94.4,36.8,88.5,36.8,88.4 M8.3,100c0-2.6,3.4-7.3,3.4-7.3s0.2-0.1,0.2-0.1l0.2,0l0.5-0.5
			c0.1,0.5,1.3,6.9,1.5,10.6C11,102.1,8.3,101.2,8.3,100z"/>
		<path class="st15" d="M37.2,112.9c-0.1-1.1-0.3-2.1-0.4-3.2l0,0c0-0.3-0.1-0.7-0.1-1c0,0,0,0,0-0.1c-0.2-1.4-0.3-2.8-0.4-4.1
			c-0.1-1,0-1.9,0.1-2.8c0.4-6.4,0.6-13.2,0.6-13.2c0.2-2.8,0.3-5.4,0.4-7.8c0,0-8.8-4.2-9.6-4.4c0,0,1.7,3.9,2.9,12.7
			c0.5,3.4,1.4,9,2,14.8l0,0c0.3,3.1,1,6.3,1.5,9.1c0.1,0.4,0.1,0.9,0.2,1.3h2.9C37.4,113.8,37.3,113.4,37.2,112.9"/>
		<path class="st15" d="M22.6,102.6c0.3-3.3,0.7-6.5,0.5-8.3C21.9,80,18.5,76.2,18,75.7c-0.4,0.1-1.9,0.7-2.3,0.9
			c-2.3,0.9-7.1,2.6-7.8,3.1c-1.1,0.8-5.5,21.4-5.7,22.7c-0.1,0.9,5.7,2.8,11.5,4.5c-0.1,1.6,0.1,3.9-0.4,6.2
			c-0.1,0.4-0.2,0.7-0.3,1.2l8.2,0c0.1-0.4,0.1-0.9,0.1-1.3c0.2-1.3,0.3-2.6,0.5-4c2.5,0.6,4.1,1.1,4.1,1.1s2.3-3.9,3-5.5
			C29.1,104.3,26.2,103.6,22.6,102.6 M12,97.7c-0.1-2.9-0.1-5-0.1-5c0.3,1,0.7,3.9,1.1,6.7C11.8,98.8,12,98.3,12,97.7z"/>
		<path class="st16" d="M18.7,75.5c0,0,0.9-1.7,0.7-6.5c-0.1-1.3,7,3.1,7,3.1s0,0.5,0,1.1c0,0.3,0,0.5,0,0.8c0,0.1,0,0.2,0,0.2
			c0,0.1,0,0.3,0,0.4c0,0.2,0,0.3,0,0.5s0,0.3,0,0.5c0,0.3,0.2,0.8,0.3,0.9C26.9,77.3,21.4,77.4,18.7,75.5"/>
		<g>
			<defs>
				<path id="SVGID_00000051372507224325132990000005771870562904631694_" d="M18.7,75.5c0,0,0.9-1.7,0.7-6.5c-0.1-1.3,7,3.1,7,3.1
					s0,0.5,0,1.1c0,0.3,0,0.5,0,0.8c0,0.1,0,0.2,0,0.2c0,0.1,0,0.3,0,0.4c0,0.2,0,0.3,0,0.5s0,0.3,0,0.5c0,0.3,0.2,0.8,0.3,0.9
					C26.9,77.3,21.4,77.4,18.7,75.5"/>
			</defs>
			<clipPath id="SVGID_00000180341480509712100200000005673153925590672781_">
				<use xlink:href="#SVGID_00000051372507224325132990000005771870562904631694_"  style="overflow:visible;"/>
			</clipPath>
			<g style="clip-path:url(#SVGID_00000180341480509712100200000005673153925590672781_);">
				<path class="st18" d="M22.5,68.6c-0.1,0.9,0.6,1.6,1.4,1.7c0.9,0.1,1.6-0.6,1.7-1.4c0.1-0.9-0.6-1.6-1.4-1.7
					C23.3,67.1,22.6,67.7,22.5,68.6"/>
			</g>
		</g>
		<path class="st19" d="M24.6,78.5l1.3,1.7c0,0-0.8,1-2.1,0.3L24.6,78.5L24.6,78.5z"/>
		<path class="st19" d="M25.6,80.3c0,0,4.7,11.6,3.7,26.3l-1.5,2.7l-1.7-2.3c0,0-0.3-19.5-1.6-26.8L25.6,80.3z"/>
		<path class="st16" d="M26,76.9l-1.4,1.6c0,0-2.2-0.4-2.9-1.6C21.1,75.8,26,76.9,26,76.9"/>
		<path class="st20" d="M26.3,75.5c0,0-0.2,1.2-1.7,3l1.7,2.3l0.9-4.7C27.2,76.1,26.3,75.5,26.3,75.5z"/>
		<path class="st20" d="M19.2,74c0,0,3.2,3.6,5.5,4.5l-1.1,2.6l-5.1-5.7L19.2,74L19.2,74z"/>
		<path class="st15" d="M52.2,106.9c0,0-4.3-4.1-7.1-4.8c-1.3-0.3-3-2.1-4.6-4.2c-0.5-0.7-1.1-1.4-1.6-2.1l0,0
			c-2-2.9-3.5-5.6-3.5-5.6s-5.9-6.9-1.2-10c0,0,2,0,3.1,0.6c1.1,0.6,3.6,5.7,4,6.6c0.4,0.9,4.9,9.2,5.2,9.4c0.3,0.2,0.8,0.9,2.6,1.8
			c2.2,1.2,5.6,4.6,5.6,4.6L52.2,106.9L52.2,106.9z"/>
		<path class="st21" d="M31.7,111.7c0,0-0.6,0-0.9-0.2c0,0-0.5-0.3-0.8-0.5c-0.1-0.1-0.2-0.1-0.3-0.1c-0.3-0.1-0.9-0.3-1.4-0.7
			c-0.6-0.4-2.4-2.1-2.4-2.1l1.2-1.8l0.5-1.8c0,0,4.3,0.4,4.8,0.8c0.1,0,0.1,0.1,0.2,0.1c0.5,0.3,0.7,0.8,0.9,1
			c0.1,0.1,0.8,0.9,0.8,1.2c-0.1,0.5-0.3,0.7-0.6,0.9c0,0-0.1,0.9-0.6,1.3c0,0-0.1,0.8-0.8,1.1C32.4,110.8,32.2,111.6,31.7,111.7"/>
		<path class="st8" d="M24.9,56.7c0,0,7.7-1.9,6.1,7.9c-1.6,9.8-3.5,10.6-8.2,8.6S18.5,65,18.2,62C17.9,58.9,22.5,56.8,24.9,56.7"/>
		<g>
			<defs>
				<path id="SVGID_00000062890772741350810700000008068972558583238030_" d="M24.9,56.7c0,0,7.7-1.9,6.1,7.9
					c-1.6,9.8-3.5,10.6-8.2,8.6S18.5,65,18.2,62C17.9,58.9,22.5,56.8,24.9,56.7"/>
			</defs>
			<clipPath id="SVGID_00000027581149896590403740000007816222929159916710_">
				<use xlink:href="#SVGID_00000062890772741350810700000008068972558583238030_"  style="overflow:visible;"/>
			</clipPath>
			<g style="clip-path:url(#SVGID_00000027581149896590403740000007816222929159916710_);">
				<path class="st18" d="M22.5,68.6c-0.1,0.9,0.6,1.6,1.4,1.7c0.9,0.1,1.6-0.6,1.7-1.4c0.1-0.9-0.6-1.6-1.4-1.7
					C23.3,67.1,22.6,67.7,22.5,68.6"/>
				<path class="st18" d="M28.5,68.6c-0.1,0.9,0.6,1.6,1.4,1.7c0.9,0.1,1.6-0.6,1.7-1.4c0.1-0.9-0.6-1.6-1.5-1.7
					C29.3,67.1,28.6,67.7,28.5,68.6"/>
			</g>
		</g>
		<path class="st8" d="M20.9,63.5c-0.1-0.9-1.8-1.1-1.9,0.1c-0.1,1.3,0.8,3.5,1.5,3.3C21.1,66.7,21.1,64.7,20.9,63.5"/>
		<path class="st23" d="M18.7,67c0,0,0.2-3.1,1.3-3.2c1.1-0.1,1.3,1.1,1.3,1.1l1.1,0.2c0,0-0.4-2.7,0.7-3.2c1.1-0.5,7.3,1.4,8.2,0.6
			c0.9-0.8,0.4-6.2-1.3-7c-1.6-0.7-6.1-2.3-9.4-0.1c0,0-2.6-0.3-2.9,1.8C17.3,59.3,17.9,65.4,18.7,67"/>
		<path class="st15" d="M29.2,104.5L26,110c0,0-8.4-2.2-10.4-2.7l4.5-5.4C20.1,101.9,26.8,103.4,29.2,104.5"/>
		<path class="st9" d="M26.3,75.2L26.3,75.2c-4.1-0.4-5.7-3.6-5.7-3.6c2.6,2.6,5.7,2.5,5.7,2.5c0,0.1,0,0.2,0,0.2c0,0.1,0,0.3,0,0.4
			C26.3,74.8,26.3,75,26.3,75.2"/>
		<path class="st8" d="M35.2,100c4.8,4.9,11.1,11.2,11.1,11.2l2.5-4.7c0,0-5.6-6.6-9.4-11C38.2,96,36,97.4,35.2,100"/>
		<path class="st8" d="M32.2,106.7c0,0,1.3,0.6,1.6,0.9c0.3,0.3,1.7,1.3,2,1.5c0.3,0.2-0.5,0.9-2.9-0.1
			C30.5,107.9,32.2,106.7,32.2,106.7"/>
		<polygon class="st24" points="32.4,92.5 30.1,113.5 59.7,113.5 62,92.5 		"/>
		<path class="st24" d="M61.4,112.5H31.6l2.3-21.2h29.8L61.4,112.5L61.4,112.5z M31.8,112.2h29.4l2.2-20.7H34L31.8,112.2L31.8,112.2
			z"/>
		<path class="st25" d="M44.4,102.6c-0.2,1.2,0.3,2.3,1.2,2.5c0.9,0.2,1.8-0.6,2.1-1.8c0.2-1.2-0.3-2.3-1.2-2.5
			C45.6,100.7,44.6,101.5,44.4,102.6"/>
		<path class="st13" d="M26.9,68.3c0,0,0.3-0.1,0.7-0.1c0.1,0,0.2,0,0.2-0.1c0-0.1,0-0.2-0.1-0.3c-0.1-0.3-0.2-0.5-0.3-0.8
			c-0.5-1.2-0.8-2.1-0.8-2.2c0.1,0,0.5,0.9,1,2.1c0.1,0.3,0.2,0.6,0.3,0.8c0,0.1,0.1,0.3,0.1,0.4c0,0.1-0.1,0.1-0.2,0.2
			c-0.1,0-0.1,0-0.2,0C27.2,68.4,26.9,68.4,26.9,68.3"/>
		<path class="st13" d="M76.1,68.7c-0.2-0.2-0.5-0.3-0.7-0.3c-0.3,0-0.5,0-0.7,0.1c-0.2,0.1-0.5,0.2-0.7,0.4
			c-0.2,0.2-0.3,0.4-0.5,0.6c-0.1,0.1,0,0.2,0.1,0.3c0.1,0.1,0.2,0,0.3,0l0,0c0.1-0.1,0.3-0.3,0.4-0.4c0.1-0.1,0.3-0.2,0.5-0.2
			c0.2,0,0.3-0.1,0.5-0.1s0.4,0,0.6,0h0.1c0.1,0,0.2-0.2,0.2-0.3C76.1,68.8,76.1,68.8,76.1,68.7"/>
		<path class="st26" d="M79.8,74.5c0,0.9,0.7,1.5,1.5,1.5s1.5-0.7,1.5-1.5s-0.7-1.5-1.5-1.5S79.8,73.6,79.8,74.5"/>
		<path class="st26" d="M73.3,74.5c0,0.9,0.7,1.5,1.5,1.5c0.8,0,1.5-0.7,1.5-1.5s-0.7-1.5-1.5-1.5C74,72.9,73.3,73.6,73.3,74.5"/>
		<path class="st27" d="M26,69.7c0,0,1,0.7,2.3,0.2C28.3,69.9,27.1,72.2,26,69.7"/>
		<path class="st13" d="M24.2,66.2c0,0.4,0.1,0.7,0.3,0.7c0.2,0,0.4-0.3,0.4-0.7c0-0.4-0.1-0.7-0.3-0.7
			C24.4,65.6,24.3,65.9,24.2,66.2"/>
		<path class="st13" d="M28.2,66.3c0,0.4,0.1,0.7,0.3,0.7c0.2,0,0.4-0.3,0.4-0.7c0-0.4-0.1-0.7-0.3-0.7C28.4,65.7,28.2,66,28.2,66.3
			"/>
		<path class="st13" d="M27.3,63.5c0.1-0.2,0.3-0.3,0.5-0.3c0.2,0,0.4-0.1,0.6,0c0.2,0,0.4,0.1,0.6,0.2c0.2,0.1,0.3,0.3,0.5,0.4
			c0.1,0.1,0.1,0.2,0,0.3c-0.1,0.1-0.1,0.1-0.2,0l0,0c-0.1-0.1-0.3-0.2-0.4-0.2c-0.1-0.1-0.3-0.1-0.4-0.1c-0.1,0-0.3,0-0.5,0
			c-0.1,0-0.3,0.1-0.5,0.1h-0.1c-0.1,0-0.2-0.1-0.2-0.2C27.3,63.5,27.3,63.5,27.3,63.5"/>
		<path class="st13" d="M25.5,63.5c-0.1-0.2-0.3-0.3-0.5-0.3c-0.2,0-0.4-0.1-0.6,0c-0.2,0-0.4,0.1-0.6,0.2c-0.2,0.1-0.3,0.3-0.5,0.4
			c-0.1,0.1-0.1,0.2,0,0.3c0.1,0.1,0.1,0.1,0.2,0l0,0c0.1-0.1,0.3-0.2,0.4-0.2c0.1-0.1,0.3-0.1,0.4-0.1c0.1,0,0.3,0,0.5,0
			c0.1,0,0.3,0.1,0.5,0.1h0.1C25.4,63.7,25.5,63.6,25.5,63.5C25.5,63.5,25.5,63.5,25.5,63.5"/>
		<path class="st13" d="M80,71.5c0,0.5,0.2,0.9,0.5,0.9c0.3,0,0.5-0.4,0.5-0.9s-0.2-0.9-0.5-0.9C80.2,70.6,80,71,80,71.5"/>
		<path class="st28" d="M81.4,70.3c-0.1,0.1-0.2,0.3-0.3,0.4c-0.1,0.1-0.3,0.2-0.5,0.2l0,0c0,0-0.2,0-0.2-0.1s0-0.2,0.1-0.2h0
			C80.8,70.6,81.1,70.4,81.4,70.3L81.4,70.3C81.3,70.2,81.3,70.2,81.4,70.3C81.4,70.2,81.4,70.3,81.4,70.3"/>
		<path class="st13" d="M75.7,71.5c0,0.5-0.2,0.9-0.5,0.9s-0.5-0.4-0.5-0.9s0.2-0.9,0.5-0.9S75.7,71,75.7,71.5"/>
		<path class="st28" d="M74.4,70.2c0.2,0.2,0.5,0.4,0.7,0.4c0.1,0,0.2,0.1,0.2,0.2c0,0.1-0.1,0.2-0.2,0.2h0l0,0
			c-0.2,0-0.3-0.1-0.5-0.3C74.5,70.6,74.4,70.4,74.4,70.2C74.3,70.3,74.3,70.2,74.4,70.2C74.4,70.2,74.4,70.2,74.4,70.2L74.4,70.2
			L74.4,70.2z"/>
		<path class="st13" d="M79.7,76c-0.2,0.3-0.4,0.6-0.7,0.8c-0.3,0.2-0.6,0.3-1,0.3c-0.4,0-0.7-0.1-1-0.3c-0.1-0.1-0.3-0.2-0.4-0.3
			c-0.1-0.1-0.2-0.3-0.3-0.4c0.1,0.1,0.3,0.2,0.4,0.3c0.1,0.1,0.3,0.2,0.4,0.3c0.3,0.2,0.6,0.3,0.9,0.3c0.3,0,0.6-0.1,0.9-0.2
			C79.2,76.4,79.5,76.2,79.7,76"/>
		<path class="st13" d="M78.2,71.4c0.1,0.3,0.1,0.7,0.2,1c0.1,0.3,0.1,0.7,0.2,1c0,0.1,0.1,0.2,0.1,0.2c0,0.1,0.1,0.2,0.1,0.3
			c0,0.2-0.1,0.5-0.3,0.5c-0.2,0.1-0.4,0.1-0.6,0c-0.2-0.1-0.3-0.2-0.5-0.3c0.3,0.1,0.7,0.2,0.9,0c0.1-0.1,0.2-0.2,0.2-0.3
			c0-0.1,0-0.1-0.1-0.2c0-0.1-0.1-0.2-0.1-0.3c-0.1-0.3-0.1-0.7-0.2-1.1S78.1,71.8,78.2,71.4"/>
	</g>
</g>
<g>
	<path class="st29" d="M22.4,32.1l0.9-8.8H25l0.9,8.8v0.4h-3.6L22.4,32.1L22.4,32.1z M22.5,18.5h3.2v3.2h-3.2
		C22.5,21.7,22.5,18.5,22.5,18.5z"/>
	<path class="st29" d="M29.1,18.5h3.1v5.5h5.7v-5.5h3.1v14h-3.1v-5.6h-5.7v5.6h-3.1C29.1,32.5,29.1,18.5,29.1,18.5z"/>
	<path class="st29" d="M49.2,32.8c-0.8,0-1.6-0.1-2.3-0.4c-0.7-0.3-1.3-0.7-1.8-1.2s-0.9-1.1-1.2-1.8c-0.3-0.7-0.4-1.4-0.4-2.2v0
		c0-0.8,0.1-1.5,0.4-2.2s0.7-1.3,1.2-1.8c0.5-0.5,1.1-0.9,1.8-1.2c0.7-0.3,1.5-0.4,2.3-0.4s1.6,0.1,2.3,0.4c0.7,0.3,1.3,0.7,1.8,1.2
		s0.9,1.1,1.2,1.8s0.4,1.4,0.4,2.2v0c0,0.8-0.1,1.5-0.4,2.2c-0.3,0.7-0.7,1.3-1.2,1.8c-0.5,0.5-1.1,0.9-1.8,1.2
		C50.8,32.6,50.1,32.8,49.2,32.8z M49.3,30.2c0.4,0,0.8-0.1,1.2-0.2c0.3-0.1,0.6-0.4,0.9-0.6c0.2-0.3,0.4-0.6,0.5-0.9
		s0.2-0.7,0.2-1.1v0c0-0.4-0.1-0.8-0.2-1.1c-0.1-0.3-0.3-0.7-0.6-0.9c-0.3-0.3-0.6-0.5-0.9-0.7c-0.3-0.2-0.7-0.2-1.1-0.2
		c-0.4,0-0.8,0.1-1.2,0.2c-0.3,0.2-0.6,0.4-0.9,0.6s-0.4,0.6-0.5,0.9c-0.1,0.3-0.2,0.7-0.2,1.1v0c0,0.4,0.1,0.8,0.2,1.1
		c0.1,0.3,0.3,0.7,0.6,0.9c0.3,0.3,0.5,0.5,0.9,0.7C48.4,30.1,48.8,30.2,49.3,30.2L49.3,30.2z"/>
	<path class="st29" d="M57.4,17.9h3v14.6h-3V17.9z"/>
	<path class="st29" d="M66.3,32.7c-0.5,0-1-0.1-1.4-0.2c-0.5-0.1-0.8-0.3-1.2-0.6c-0.3-0.3-0.6-0.6-0.8-1c-0.2-0.4-0.3-0.9-0.3-1.4
		v0c0-0.6,0.1-1.1,0.3-1.5c0.2-0.4,0.5-0.8,0.9-1.1c0.4-0.3,0.8-0.5,1.4-0.6C65.7,26,66.3,26,67,26c0.5,0,1,0,1.4,0.1
		c0.4,0.1,0.8,0.2,1.2,0.3v-0.2c0-0.6-0.2-1.1-0.6-1.5c-0.4-0.3-1-0.5-1.7-0.5c-0.6,0-1.1,0.1-1.5,0.1c-0.5,0.1-0.9,0.2-1.4,0.4
		l-0.8-2.3c0.6-0.3,1.2-0.5,1.8-0.6c0.6-0.2,1.4-0.2,2.3-0.2c0.8,0,1.6,0.1,2.1,0.3c0.6,0.2,1.1,0.5,1.5,0.9
		c0.4,0.4,0.7,0.9,0.9,1.5c0.2,0.6,0.3,1.2,0.3,1.9v6.2h-2.9v-1.2c-0.4,0.4-0.8,0.7-1.3,1S67,32.7,66.3,32.7L66.3,32.7z M67.3,30.6
		c0.7,0,1.3-0.2,1.7-0.5c0.4-0.3,0.7-0.8,0.7-1.4v-0.5c-0.3-0.1-0.6-0.2-0.9-0.3s-0.7-0.1-1.1-0.1c-0.7,0-1.2,0.1-1.5,0.4
		c-0.4,0.3-0.6,0.6-0.6,1.1v0c0,0.4,0.1,0.7,0.5,1S66.7,30.6,67.3,30.6L67.3,30.6z"/>
	<path class="st29" d="M86.3,18.4h2.8l6,14.1h-3.2l-1.3-3.1h-5.9l-1.3,3.1h-3.1C80.3,32.5,86.3,18.4,86.3,18.4z M89.5,26.7l-1.9-4.5
		l-1.9,4.5H89.5L89.5,26.7z"/>
	<path class="st29" d="M101.3,32.7c-0.6,0-1.2-0.1-1.8-0.4c-0.6-0.2-1.1-0.6-1.6-1.1c-0.5-0.5-0.8-1.1-1.1-1.7
		c-0.3-0.7-0.4-1.5-0.4-2.4v0c0-0.9,0.1-1.7,0.4-2.4c0.3-0.7,0.6-1.3,1.1-1.7c0.5-0.5,1-0.8,1.5-1.1c0.6-0.2,1.2-0.4,1.8-0.4
		c0.8,0,1.5,0.2,2,0.5c0.5,0.3,1,0.7,1.3,1.1v-5.2h3v14.6h-3V31c-0.4,0.5-0.8,0.9-1.3,1.3C102.8,32.6,102.1,32.7,101.3,32.7z
		 M102.1,30.2c0.4,0,0.7-0.1,1-0.2c0.3-0.1,0.6-0.3,0.8-0.6c0.2-0.3,0.4-0.6,0.6-0.9s0.2-0.8,0.2-1.2v0c0-0.4-0.1-0.8-0.2-1.2
		s-0.3-0.7-0.6-0.9c-0.2-0.3-0.5-0.5-0.8-0.6c-0.3-0.1-0.7-0.2-1-0.2c-0.4,0-0.7,0.1-1,0.2c-0.3,0.1-0.6,0.3-0.8,0.6
		c-0.2,0.3-0.4,0.6-0.6,0.9c-0.1,0.4-0.2,0.8-0.2,1.2v0c0,0.4,0.1,0.8,0.2,1.2c0.1,0.4,0.3,0.7,0.6,0.9c0.2,0.3,0.5,0.5,0.8,0.6
		C101.4,30.1,101.8,30.1,102.1,30.2L102.1,30.2z"/>
	<path class="st29" d="M110.5,21.8h3v1.5c0.2-0.2,0.4-0.5,0.6-0.7c0.2-0.2,0.4-0.4,0.7-0.6s0.5-0.3,0.9-0.4c0.3-0.1,0.7-0.1,1.1-0.1
		c0.7,0,1.3,0.1,1.8,0.4c0.5,0.3,0.9,0.7,1.2,1.3c0.5-0.6,1-1,1.6-1.3c0.6-0.3,1.2-0.4,2-0.4c1.1,0,2,0.3,2.7,1c0.7,0.7,1,1.7,1,2.9
		v7h-3v-6c0-0.7-0.1-1.3-0.5-1.6c-0.3-0.4-0.7-0.5-1.3-0.5c-0.6,0-1,0.2-1.3,0.5s-0.5,0.9-0.5,1.6v6h-3v-6c0-0.7-0.1-1.3-0.5-1.6
		c-0.3-0.4-0.7-0.5-1.3-0.5c-0.6,0-1,0.2-1.3,0.5s-0.5,0.9-0.5,1.6v6h-3L110.5,21.8L110.5,21.8z"/>
	<path class="st29" d="M129.5,17.9h3.2v2.7h-3.2C129.5,20.6,129.5,17.9,129.5,17.9z M129.6,21.8h3v10.7h-3
		C129.6,32.6,129.6,21.8,129.6,21.8z"/>
	<path class="st29" d="M135.5,21.8h3v1.5c0.2-0.2,0.4-0.5,0.6-0.7c0.2-0.2,0.4-0.4,0.7-0.6s0.5-0.3,0.8-0.4c0.3-0.1,0.7-0.1,1-0.1
		c1.2,0,2.1,0.3,2.7,1.1c0.6,0.7,0.9,1.7,0.9,2.9v6.9h-3v-6c0-0.7-0.2-1.3-0.5-1.6c-0.3-0.4-0.8-0.5-1.4-0.5c-0.6,0-1.1,0.2-1.4,0.5
		c-0.3,0.4-0.5,0.9-0.5,1.6v6h-3L135.5,21.8L135.5,21.8z"/>
	<path class="st29" d="M148,17.9h3.2v2.7H148C148,20.6,148,17.9,148,17.9z M148.1,21.8h3v10.7h-3C148.1,32.6,148.1,21.8,148.1,21.8z
		"/>
	<path class="st29" d="M157.8,32.7c-0.8,0-1.5-0.1-2.3-0.4c-0.8-0.3-1.5-0.7-2.3-1.2l1.3-2c0.6,0.4,1.2,0.7,1.7,1s1.1,0.3,1.6,0.3
		c0.4,0,0.8-0.1,1-0.2s0.3-0.3,0.3-0.6v0c0-0.2-0.1-0.3-0.2-0.4c-0.1-0.1-0.3-0.2-0.5-0.3c-0.2-0.1-0.4-0.2-0.7-0.3
		c-0.3-0.1-0.5-0.2-0.8-0.3c-0.4-0.1-0.7-0.2-1.1-0.4c-0.4-0.1-0.7-0.3-1-0.6c-0.3-0.3-0.6-0.5-0.7-0.9c-0.2-0.4-0.3-0.8-0.3-1.3v0
		c0-0.5,0.1-1,0.3-1.5c0.2-0.4,0.5-0.8,0.8-1.1c0.4-0.3,0.8-0.5,1.2-0.7c0.5-0.1,1-0.2,1.5-0.2c0.7,0,1.4,0.1,2.1,0.3
		c0.7,0.2,1.3,0.5,1.9,0.9l-1.2,2.1c-0.5-0.3-1.1-0.5-1.6-0.7c-0.5-0.2-1-0.3-1.3-0.3c-0.4,0-0.7,0.1-0.8,0.2
		c-0.2,0.1-0.3,0.3-0.3,0.5v0c0,0.1,0.1,0.3,0.2,0.4s0.3,0.2,0.5,0.3c0.2,0.1,0.4,0.2,0.7,0.3s0.5,0.2,0.8,0.3
		c0.4,0.1,0.8,0.3,1.1,0.4s0.7,0.4,1,0.6c0.3,0.2,0.6,0.5,0.8,0.9c0.2,0.3,0.3,0.8,0.3,1.3v0c0,0.6-0.1,1.1-0.3,1.5
		s-0.5,0.8-0.9,1.1c-0.4,0.3-0.8,0.5-1.3,0.6C158.9,32.7,158.4,32.8,157.8,32.7L157.8,32.7z"/>
	<path class="st29" d="M167.7,32.7c-0.5,0-0.9-0.1-1.3-0.1c-0.4-0.1-0.7-0.3-1-0.5c-0.3-0.3-0.5-0.6-0.6-1c-0.1-0.4-0.2-0.9-0.2-1.5
		v-5.1h-1.3v-2.6h1.3v-2.7h3v2.7h2.5v2.6h-2.5V29c0,0.7,0.3,1.1,1,1.1c0.5,0,1-0.1,1.5-0.4v2.4c-0.3,0.2-0.7,0.3-1.1,0.5
		C168.7,32.7,168.2,32.7,167.7,32.7z"/>
	<path class="st29" d="M172.4,21.8h3V24c0.3-0.7,0.7-1.3,1.3-1.8c0.5-0.4,1.3-0.6,2.2-0.6v3.2h-0.2c-1,0-1.8,0.3-2.4,0.9
		c-0.6,0.6-0.9,1.6-0.9,2.9v4h-3L172.4,21.8L172.4,21.8z"/>
	<path class="st29" d="M183.8,32.7c-0.5,0-1-0.1-1.4-0.2c-0.5-0.1-0.8-0.3-1.2-0.6c-0.3-0.3-0.6-0.6-0.8-1c-0.2-0.4-0.3-0.9-0.3-1.4
		v0c0-0.6,0.1-1.1,0.3-1.5c0.2-0.4,0.5-0.8,0.9-1.1c0.4-0.3,0.8-0.5,1.4-0.6c0.5-0.1,1.1-0.2,1.7-0.2c0.5,0,1,0,1.4,0.1
		c0.4,0.1,0.8,0.2,1.2,0.3v-0.2c0-0.6-0.2-1.1-0.6-1.5c-0.4-0.3-1-0.5-1.7-0.5c-0.6,0-1.1,0.1-1.5,0.1c-0.5,0.1-0.9,0.2-1.4,0.4
		l-0.8-2.3c0.6-0.3,1.2-0.5,1.8-0.6c0.6-0.2,1.4-0.2,2.3-0.2c0.8,0,1.6,0.1,2.1,0.3c0.6,0.2,1.1,0.5,1.5,0.9
		c0.4,0.4,0.7,0.9,0.9,1.5c0.2,0.6,0.3,1.2,0.3,1.9v6.2H187v-1.2c-0.4,0.4-0.8,0.7-1.3,1C185.2,32.6,184.5,32.7,183.8,32.7
		L183.8,32.7z M184.7,30.6c0.7,0,1.3-0.2,1.7-0.5c0.4-0.3,0.7-0.8,0.7-1.4v-0.5c-0.3-0.1-0.6-0.2-0.9-0.3c-0.3-0.1-0.7-0.1-1.1-0.1
		c-0.7,0-1.2,0.1-1.5,0.4s-0.6,0.6-0.6,1.1v0c0,0.4,0.1,0.7,0.5,1S184.2,30.6,184.7,30.6L184.7,30.6z"/>
	<path class="st29" d="M197,32.7c-0.6,0-1.2-0.1-1.8-0.4c-0.6-0.2-1.1-0.6-1.6-1.1s-0.8-1.1-1.1-1.7c-0.3-0.7-0.4-1.5-0.4-2.4v0
		c0-0.9,0.1-1.7,0.4-2.4c0.3-0.7,0.6-1.3,1.1-1.7s1-0.8,1.5-1.1s1.2-0.4,1.8-0.4c0.8,0,1.5,0.2,2,0.5c0.5,0.3,1,0.7,1.3,1.1v-5.2h3
		v14.6h-3V31c-0.4,0.5-0.8,0.9-1.3,1.3C198.5,32.6,197.8,32.7,197,32.7z M197.8,30.2c0.4,0,0.7-0.1,1-0.2c0.3-0.1,0.6-0.3,0.8-0.6
		c0.2-0.3,0.4-0.6,0.6-0.9c0.1-0.4,0.2-0.8,0.2-1.2v0c0-0.4-0.1-0.8-0.2-1.2s-0.3-0.7-0.6-0.9c-0.2-0.3-0.5-0.5-0.8-0.6
		c-0.3-0.1-0.7-0.2-1-0.2c-0.4,0-0.7,0.1-1,0.2c-0.3,0.1-0.6,0.3-0.8,0.6c-0.2,0.3-0.4,0.6-0.6,0.9c-0.1,0.4-0.2,0.8-0.2,1.2v0
		c0,0.4,0.1,0.8,0.2,1.2c0.1,0.4,0.3,0.7,0.6,0.9c0.2,0.3,0.5,0.5,0.8,0.6C197.1,30.1,197.4,30.1,197.8,30.2L197.8,30.2z"/>
	<path class="st29" d="M211.4,32.8c-0.8,0-1.6-0.1-2.3-0.4c-0.7-0.3-1.3-0.7-1.8-1.2c-0.5-0.5-0.9-1.1-1.2-1.8
		c-0.3-0.7-0.4-1.4-0.4-2.2v0c0-0.8,0.1-1.5,0.4-2.2c0.3-0.7,0.7-1.3,1.2-1.8c0.5-0.5,1.1-0.9,1.8-1.2c0.7-0.3,1.5-0.4,2.3-0.4
		s1.6,0.1,2.3,0.4c0.7,0.3,1.3,0.7,1.8,1.2c0.5,0.5,0.9,1.1,1.2,1.8c0.3,0.7,0.4,1.4,0.4,2.2v0c0,0.8-0.1,1.5-0.4,2.2
		c-0.3,0.7-0.7,1.3-1.2,1.8c-0.5,0.5-1.1,0.9-1.8,1.2C213,32.6,212.2,32.8,211.4,32.8z M211.4,30.2c0.4,0,0.8-0.1,1.2-0.2
		c0.3-0.1,0.6-0.4,0.9-0.6c0.2-0.3,0.4-0.6,0.5-0.9c0.1-0.3,0.2-0.7,0.2-1.1v0c0-0.4-0.1-0.8-0.2-1.1c-0.1-0.3-0.3-0.7-0.6-0.9
		c-0.3-0.3-0.6-0.5-0.9-0.7s-0.7-0.2-1.1-0.2c-0.4,0-0.8,0.1-1.2,0.2c-0.3,0.2-0.6,0.4-0.9,0.6c-0.2,0.3-0.4,0.6-0.5,0.9
		c-0.1,0.3-0.2,0.7-0.2,1.1v0c0,0.4,0.1,0.8,0.2,1.1c0.1,0.3,0.3,0.7,0.6,0.9s0.5,0.5,0.9,0.7C210.6,30.1,211,30.2,211.4,30.2
		L211.4,30.2z"/>
	<path class="st29" d="M219.4,21.8h3V24c0.3-0.7,0.7-1.3,1.3-1.8c0.5-0.4,1.3-0.6,2.2-0.6v3.2h-0.2c-1,0-1.8,0.3-2.4,0.9
		c-0.6,0.6-0.9,1.6-0.9,2.9v4h-3L219.4,21.8L219.4,21.8z"/>
	<path class="st29" d="M227.9,18.9v-0.4h3.6v0.4l-0.9,8.8h-1.7C228.8,27.8,227.9,18.9,227.9,18.9z M228,29.3h3.2v3.2H228V29.3z"/>
</g>
<g>
	<path class="st29" d="M118.7,82.5v-5.7h3.3v0.6h-2.6v1.8h2.2v0.6h-2.2v2.1h2.7v0.6L118.7,82.5L118.7,82.5z"/>
	<path class="st29" d="M124.4,82.6c-0.3,0-0.6-0.1-0.9-0.2s-0.5-0.3-0.7-0.4l0.4-0.5c0.2,0.1,0.4,0.3,0.6,0.4s0.4,0.1,0.7,0.1
		c0.3,0,0.5-0.1,0.6-0.2s0.2-0.3,0.2-0.5c0-0.1,0-0.2-0.1-0.3c-0.1-0.1-0.1-0.1-0.2-0.2c-0.1-0.1-0.2-0.1-0.3-0.2
		c-0.1-0.1-0.2-0.1-0.3-0.1c-0.1-0.1-0.3-0.1-0.5-0.2c-0.1-0.1-0.3-0.1-0.4-0.2c-0.1-0.1-0.2-0.2-0.3-0.3s-0.1-0.3-0.1-0.5
		c0-0.2,0-0.3,0.1-0.5c0.1-0.1,0.2-0.3,0.3-0.4c0.1-0.1,0.3-0.2,0.5-0.3c0.2-0.1,0.4-0.1,0.6-0.1c0.3,0,0.5,0.1,0.7,0.1
		c0.2,0.1,0.4,0.2,0.6,0.3l-0.3,0.5c-0.1-0.1-0.3-0.2-0.5-0.3c-0.2-0.1-0.3-0.1-0.5-0.1c-0.3,0-0.5,0.1-0.6,0.2s-0.2,0.3-0.2,0.4
		c0,0.1,0,0.2,0.1,0.3s0.1,0.1,0.2,0.2c0.1,0.1,0.2,0.1,0.3,0.1c0.1,0,0.2,0.1,0.3,0.1c0.1,0.1,0.3,0.1,0.5,0.2
		c0.1,0.1,0.3,0.1,0.4,0.2c0.1,0.1,0.2,0.2,0.3,0.3c0.1,0.1,0.1,0.3,0.1,0.5c0,0.2,0,0.3-0.1,0.5s-0.2,0.3-0.3,0.4
		c-0.1,0.1-0.3,0.2-0.5,0.3C124.9,82.6,124.7,82.6,124.4,82.6L124.4,82.6z"/>
	<path class="st29" d="M126.9,84.3v-6h0.6l0.1,0.5h0c0.2-0.2,0.4-0.3,0.6-0.4s0.5-0.2,0.7-0.2c0.3,0,0.5,0.1,0.7,0.1
		c0.2,0.1,0.4,0.3,0.5,0.4s0.3,0.4,0.3,0.7c0.1,0.3,0.1,0.6,0.1,0.9c0,0.4-0.1,0.7-0.1,1c-0.1,0.3-0.2,0.5-0.4,0.7
		c-0.2,0.2-0.4,0.3-0.6,0.5s-0.5,0.1-0.7,0.1c-0.2,0-0.4,0-0.6-0.1c-0.2-0.1-0.4-0.2-0.6-0.4v0.7v1.4L126.9,84.3L126.9,84.3z
		 M128.7,82c0.2,0,0.3,0,0.5-0.1c0.1-0.1,0.3-0.2,0.4-0.3s0.2-0.3,0.3-0.5c0.1-0.2,0.1-0.5,0.1-0.7c0-0.2,0-0.5-0.1-0.6
		c0-0.2-0.1-0.4-0.2-0.5c-0.1-0.1-0.2-0.2-0.3-0.3s-0.3-0.1-0.5-0.1c-0.2,0-0.4,0.1-0.5,0.1c-0.2,0.1-0.4,0.2-0.6,0.4v2.2
		c0.2,0.2,0.4,0.3,0.6,0.3C128.4,82,128.6,82,128.7,82L128.7,82z"/>
</g>
<g>
	<path class="st29" d="M132.6,82.6c-0.4,0-0.7-0.1-0.9-0.3c-0.2-0.2-0.4-0.5-0.4-0.9c0-0.5,0.2-0.8,0.6-1.1c0.4-0.3,1.1-0.4,2-0.5
		c0-0.1,0-0.3,0-0.4c0-0.1-0.1-0.2-0.1-0.3c-0.1-0.1-0.1-0.2-0.3-0.2c-0.1-0.1-0.3-0.1-0.4-0.1c-0.2,0-0.5,0.1-0.7,0.1
		c-0.2,0.1-0.4,0.2-0.6,0.3l-0.3-0.5c0.2-0.1,0.4-0.3,0.7-0.4c0.3-0.1,0.6-0.2,0.9-0.2c0.5,0,0.9,0.2,1.1,0.5s0.3,0.7,0.3,1.3v2.6
		h-0.6l-0.1-0.5h0c-0.2,0.2-0.4,0.3-0.7,0.4C133.2,82.5,132.9,82.6,132.6,82.6z M132.9,82c0.2,0,0.4-0.1,0.6-0.1
		c0.2-0.1,0.4-0.2,0.6-0.4v-1.2c-0.4,0.1-0.7,0.1-0.9,0.2c-0.2,0.1-0.4,0.1-0.6,0.2c-0.1,0.1-0.3,0.2-0.3,0.3
		c-0.1,0.1-0.1,0.2-0.1,0.4c0,0.2,0.1,0.4,0.2,0.5C132.5,82,132.7,82,132.9,82L132.9,82z"/>
	<path class="st29" d="M137.8,82.6c-0.3,0-0.5-0.1-0.8-0.1c-0.2-0.1-0.5-0.2-0.6-0.4c-0.2-0.2-0.3-0.4-0.4-0.7
		c-0.1-0.3-0.1-0.6-0.1-0.9c0-0.4,0.1-0.7,0.2-0.9c0.1-0.3,0.3-0.5,0.5-0.7c0.2-0.2,0.4-0.3,0.7-0.4c0.3-0.1,0.5-0.1,0.8-0.1
		c0.3,0,0.5,0.1,0.7,0.1c0.2,0.1,0.4,0.2,0.5,0.3l-0.4,0.5c-0.1-0.1-0.3-0.2-0.4-0.3c-0.1-0.1-0.3-0.1-0.5-0.1c-0.2,0-0.4,0-0.5,0.1
		c-0.2,0.1-0.3,0.2-0.4,0.3s-0.2,0.3-0.3,0.5c-0.1,0.2-0.1,0.4-0.1,0.7s0,0.5,0.1,0.7c0.1,0.2,0.1,0.4,0.3,0.5
		c0.1,0.1,0.3,0.3,0.4,0.3c0.2,0.1,0.3,0.1,0.5,0.1s0.4,0,0.5-0.1c0.2-0.1,0.3-0.2,0.5-0.3l0.3,0.5c-0.2,0.2-0.4,0.3-0.6,0.4
		C138.3,82.5,138,82.6,137.8,82.6L137.8,82.6z"/>
	<path class="st29" d="M140.4,77.4c-0.1,0-0.3,0-0.4-0.1c-0.1-0.1-0.1-0.2-0.1-0.3s0.1-0.3,0.1-0.3c0.1-0.1,0.2-0.1,0.4-0.1
		s0.3,0,0.3,0.1c0.1,0.1,0.1,0.2,0.1,0.3s-0.1,0.2-0.1,0.3C140.7,77.3,140.6,77.4,140.4,77.4z M140.1,82.5v-4.3h0.7v4.3H140.1z"/>
	<path class="st29" d="M143.9,82.6c-0.3,0-0.5-0.1-0.7-0.1c-0.2-0.1-0.5-0.2-0.6-0.4c-0.2-0.2-0.3-0.4-0.4-0.7
		c-0.1-0.3-0.2-0.6-0.2-0.9c0-0.4,0.1-0.7,0.2-0.9c0.1-0.3,0.3-0.5,0.4-0.7c0.2-0.2,0.4-0.3,0.6-0.4c0.2-0.1,0.5-0.1,0.7-0.1
		s0.5,0.1,0.7,0.1c0.2,0.1,0.5,0.2,0.6,0.4c0.2,0.2,0.3,0.4,0.4,0.7c0.1,0.3,0.2,0.6,0.2,0.9s-0.1,0.7-0.2,0.9
		c-0.1,0.3-0.3,0.5-0.4,0.7c-0.2,0.2-0.4,0.3-0.6,0.4C144.4,82.5,144.1,82.6,143.9,82.6z M143.9,82c0.2,0,0.3,0,0.5-0.1
		c0.1-0.1,0.3-0.2,0.4-0.3s0.2-0.3,0.3-0.5c0.1-0.2,0.1-0.4,0.1-0.7c0-0.3,0-0.5-0.1-0.7c-0.1-0.2-0.1-0.4-0.3-0.5s-0.2-0.3-0.4-0.3
		c-0.1-0.1-0.3-0.1-0.5-0.1c-0.2,0-0.3,0-0.5,0.1c-0.1,0.1-0.3,0.2-0.4,0.3c-0.1,0.1-0.2,0.3-0.3,0.5s-0.1,0.4-0.1,0.7
		c0,0.3,0,0.5,0.1,0.7c0.1,0.2,0.1,0.4,0.3,0.5c0.1,0.1,0.2,0.3,0.4,0.3S143.7,82,143.9,82z"/>
	<path class="st29" d="M148.7,84.3v-6h0.6l0.1,0.5h0c0.2-0.2,0.4-0.3,0.6-0.4s0.5-0.2,0.7-0.2c0.3,0,0.5,0.1,0.7,0.1
		c0.2,0.1,0.4,0.3,0.5,0.4s0.3,0.4,0.3,0.7c0.1,0.3,0.1,0.6,0.1,0.9c0,0.4-0.1,0.7-0.1,1c-0.1,0.3-0.2,0.5-0.4,0.7
		c-0.2,0.2-0.4,0.3-0.6,0.5s-0.5,0.1-0.7,0.1c-0.2,0-0.4,0-0.6-0.1c-0.2-0.1-0.4-0.2-0.6-0.4v0.7v1.4L148.7,84.3L148.7,84.3z
		 M150.5,82c0.2,0,0.3,0,0.5-0.1c0.1-0.1,0.3-0.2,0.4-0.3s0.2-0.3,0.3-0.5c0.1-0.2,0.1-0.5,0.1-0.7c0-0.2,0-0.5-0.1-0.6
		c0-0.2-0.1-0.4-0.2-0.5c-0.1-0.1-0.2-0.2-0.3-0.3s-0.3-0.1-0.5-0.1c-0.2,0-0.4,0.1-0.5,0.1c-0.2,0.1-0.4,0.2-0.6,0.4v2.2
		c0.2,0.2,0.4,0.3,0.6,0.3C150.2,82,150.3,82,150.5,82L150.5,82z"/>
</g>
<g>
	<path class="st29" d="M154.4,82.6c-0.4,0-0.7-0.1-0.9-0.3c-0.2-0.2-0.4-0.5-0.4-0.9c0-0.5,0.2-0.8,0.6-1.1c0.4-0.3,1.1-0.4,2-0.5
		c0-0.1,0-0.3,0-0.4c0-0.1-0.1-0.2-0.1-0.3c-0.1-0.1-0.1-0.2-0.3-0.2c-0.1-0.1-0.3-0.1-0.4-0.1c-0.2,0-0.5,0.1-0.7,0.1
		c-0.2,0.1-0.4,0.2-0.6,0.3l-0.3-0.5c0.2-0.1,0.4-0.3,0.7-0.4c0.3-0.1,0.6-0.2,0.9-0.2c0.5,0,0.9,0.2,1.1,0.5s0.3,0.7,0.3,1.3v2.6
		h-0.6l-0.1-0.5h0c-0.2,0.2-0.4,0.3-0.7,0.4C154.9,82.5,154.6,82.6,154.4,82.6z M154.6,82c0.2,0,0.4-0.1,0.6-0.1
		c0.2-0.1,0.4-0.2,0.6-0.4v-1.2c-0.4,0.1-0.7,0.1-0.9,0.2c-0.2,0.1-0.4,0.1-0.6,0.2c-0.1,0.1-0.3,0.2-0.3,0.3s-0.1,0.2-0.1,0.4
		c0,0.2,0.1,0.4,0.2,0.5C154.2,82,154.4,82,154.6,82L154.6,82z"/>
	<path class="st29" d="M157.8,82.5v-4.3h0.6l0.1,0.8h0c0.1-0.3,0.3-0.5,0.5-0.6c0.2-0.2,0.4-0.2,0.7-0.2c0.2,0,0.3,0,0.5,0.1
		l-0.1,0.6c0,0-0.1,0-0.2-0.1c-0.1,0-0.1,0-0.2,0c-0.2,0-0.4,0.1-0.6,0.2c-0.2,0.1-0.4,0.4-0.5,0.8v2.7L157.8,82.5L157.8,82.5z"/>
</g>
<g>
	<path class="st29" d="M161.6,82.6c-0.4,0-0.7-0.1-0.9-0.3s-0.4-0.5-0.4-0.9c0-0.5,0.2-0.8,0.6-1.1c0.4-0.3,1.1-0.4,2-0.5
		c0-0.1,0-0.3,0-0.4s-0.1-0.2-0.1-0.3c-0.1-0.1-0.1-0.2-0.3-0.2c-0.1-0.1-0.3-0.1-0.4-0.1c-0.2,0-0.5,0.1-0.7,0.1
		c-0.2,0.1-0.4,0.2-0.6,0.3l-0.3-0.5c0.2-0.1,0.4-0.3,0.7-0.4c0.3-0.1,0.6-0.2,0.9-0.2c0.5,0,0.9,0.2,1.1,0.5
		c0.2,0.3,0.3,0.7,0.3,1.3v2.6h-0.6L163,82h0c-0.2,0.2-0.4,0.3-0.7,0.4C162.1,82.5,161.9,82.6,161.6,82.6z M161.8,82
		c0.2,0,0.4-0.1,0.6-0.1c0.2-0.1,0.4-0.2,0.6-0.4v-1.2c-0.4,0.1-0.7,0.1-0.9,0.2c-0.2,0.1-0.4,0.1-0.6,0.2c-0.1,0.1-0.3,0.2-0.3,0.3
		c-0.1,0.1-0.1,0.2-0.1,0.4c0,0.2,0.1,0.4,0.2,0.5C161.5,82,161.6,82,161.8,82L161.8,82z"/>
	<path class="st29" d="M168.5,82.6c-0.3,0-0.5-0.1-0.8-0.1c-0.2-0.1-0.5-0.2-0.6-0.4c-0.2-0.2-0.3-0.4-0.4-0.7
		c-0.1-0.3-0.1-0.6-0.1-0.9c0-0.4,0.1-0.7,0.2-0.9c0.1-0.3,0.3-0.5,0.5-0.7c0.2-0.2,0.4-0.3,0.7-0.4c0.3-0.1,0.5-0.1,0.8-0.1
		c0.3,0,0.5,0.1,0.7,0.1c0.2,0.1,0.4,0.2,0.5,0.3l-0.4,0.5c-0.1-0.1-0.3-0.2-0.4-0.3c-0.1-0.1-0.3-0.1-0.5-0.1c-0.2,0-0.4,0-0.5,0.1
		c-0.2,0.1-0.3,0.2-0.4,0.3c-0.1,0.1-0.2,0.3-0.3,0.5c-0.1,0.2-0.1,0.4-0.1,0.7s0,0.5,0.1,0.7c0.1,0.2,0.1,0.4,0.3,0.5
		c0.1,0.1,0.3,0.3,0.4,0.3c0.2,0.1,0.3,0.1,0.5,0.1s0.4,0,0.5-0.1c0.2-0.1,0.3-0.2,0.5-0.3l0.3,0.5c-0.2,0.2-0.4,0.3-0.6,0.4
		C169,82.5,168.8,82.6,168.5,82.6L168.5,82.6z"/>
	<path class="st29" d="M170.8,82.5v-4.3h0.6l0.1,0.8h0c0.1-0.3,0.3-0.5,0.5-0.6c0.2-0.2,0.4-0.2,0.7-0.2c0.2,0,0.3,0,0.5,0.1
		l-0.1,0.6c0,0-0.1,0-0.2-0.1c-0.1,0-0.1,0-0.2,0c-0.2,0-0.4,0.1-0.6,0.2c-0.2,0.1-0.4,0.4-0.5,0.8v2.7L170.8,82.5L170.8,82.5z"/>
	<path class="st29" d="M175.5,82.6c-0.3,0-0.5-0.1-0.8-0.1c-0.3-0.1-0.5-0.3-0.7-0.4c-0.2-0.2-0.3-0.4-0.4-0.7s-0.2-0.6-0.2-0.9
		s0.1-0.7,0.2-0.9c0.1-0.3,0.3-0.5,0.4-0.7s0.4-0.3,0.6-0.4c0.2-0.1,0.5-0.1,0.7-0.1c0.3,0,0.5,0.1,0.7,0.1c0.2,0.1,0.4,0.2,0.5,0.4
		c0.1,0.2,0.3,0.4,0.3,0.6c0.1,0.2,0.1,0.5,0.1,0.8c0,0.1,0,0.1,0,0.2c0,0.1,0,0.1,0,0.2h-2.9c0,0.5,0.2,0.8,0.4,1.1
		c0.3,0.3,0.6,0.4,1,0.4c0.2,0,0.4,0,0.6-0.1c0.2-0.1,0.3-0.1,0.5-0.2l0.3,0.5c-0.2,0.1-0.4,0.2-0.6,0.3
		C176.1,82.6,175.8,82.6,175.5,82.6L175.5,82.6z M174.2,80h2.3c0-0.4-0.1-0.8-0.3-1c-0.2-0.2-0.4-0.3-0.8-0.3c-0.1,0-0.3,0-0.4,0.1
		c-0.1,0.1-0.3,0.1-0.4,0.3c-0.1,0.1-0.2,0.3-0.3,0.4C174.2,79.7,174.2,79.8,174.2,80L174.2,80z"/>
</g>
<g>
	<path class="st29" d="M178.9,82.6c-0.4,0-0.7-0.1-0.9-0.3c-0.2-0.2-0.4-0.5-0.4-0.9c0-0.5,0.2-0.8,0.6-1.1c0.4-0.3,1.1-0.4,2-0.5
		c0-0.1,0-0.3,0-0.4c0-0.1-0.1-0.2-0.1-0.3c-0.1-0.1-0.1-0.2-0.3-0.2c-0.1-0.1-0.3-0.1-0.4-0.1c-0.2,0-0.5,0.1-0.7,0.1
		s-0.4,0.2-0.6,0.3l-0.3-0.5c0.2-0.1,0.4-0.3,0.7-0.4c0.3-0.1,0.6-0.2,0.9-0.2c0.5,0,0.9,0.2,1.1,0.5s0.3,0.7,0.3,1.3v2.6h-0.6
		l-0.1-0.5h0c-0.2,0.2-0.4,0.3-0.7,0.4C179.4,82.5,179.2,82.6,178.9,82.6z M179.1,82c0.2,0,0.4-0.1,0.6-0.1c0.2-0.1,0.4-0.2,0.6-0.4
		v-1.2c-0.4,0.1-0.7,0.1-0.9,0.2c-0.2,0.1-0.4,0.1-0.6,0.2c-0.1,0.1-0.3,0.2-0.3,0.3c-0.1,0.1-0.1,0.2-0.1,0.4
		c0,0.2,0.1,0.4,0.2,0.5C178.7,82,178.9,82,179.1,82L179.1,82z"/>
	<path class="st29" d="M182.3,82.5v-4.3h0.6L183,79h0c0.1-0.3,0.3-0.5,0.5-0.6c0.2-0.2,0.4-0.2,0.7-0.2c0.2,0,0.3,0,0.5,0.1
		l-0.1,0.6c0,0-0.1,0-0.2-0.1c-0.1,0-0.1,0-0.2,0c-0.2,0-0.4,0.1-0.6,0.2c-0.2,0.1-0.4,0.4-0.5,0.8v2.7L182.3,82.5L182.3,82.5z"/>
</g>
<g>
	<path class="st29" d="M184.7,84l-0.2-0.4c0.3-0.1,0.5-0.3,0.6-0.4c0.1-0.2,0.2-0.4,0.2-0.6c0,0-0.1,0-0.1,0c-0.1,0-0.3,0-0.4-0.1
		c-0.1-0.1-0.1-0.2-0.1-0.4c0-0.2,0.1-0.3,0.2-0.4c0.1-0.1,0.2-0.1,0.4-0.1c0.2,0,0.3,0.1,0.4,0.2s0.2,0.4,0.2,0.6
		c0,0.4-0.1,0.7-0.3,1S185.1,83.8,184.7,84z"/>
	<path class="st29" d="M189.8,82.6c-0.4,0-0.7-0.1-0.9-0.3c-0.2-0.2-0.4-0.5-0.4-0.9c0-0.5,0.2-0.8,0.6-1.1c0.4-0.3,1.1-0.4,2-0.5
		c0-0.1,0-0.3,0-0.4c0-0.1-0.1-0.2-0.1-0.3c-0.1-0.1-0.1-0.2-0.3-0.2c-0.1-0.1-0.3-0.1-0.4-0.1c-0.2,0-0.5,0.1-0.7,0.1
		c-0.2,0.1-0.4,0.2-0.6,0.3l-0.3-0.5c0.2-0.1,0.4-0.3,0.7-0.4c0.3-0.1,0.6-0.2,0.9-0.2c0.5,0,0.9,0.2,1.1,0.5s0.3,0.7,0.3,1.3v2.6
		h-0.6l-0.1-0.5h0c-0.2,0.2-0.4,0.3-0.7,0.4C190.3,82.5,190,82.6,189.8,82.6z M190,82c0.2,0,0.4-0.1,0.6-0.1
		c0.2-0.1,0.4-0.2,0.6-0.4v-1.2c-0.4,0.1-0.7,0.1-0.9,0.2c-0.2,0.1-0.4,0.1-0.6,0.2c-0.1,0.1-0.3,0.2-0.3,0.3
		c-0.1,0.1-0.1,0.2-0.1,0.4c0,0.2,0.1,0.4,0.2,0.5C189.6,82,189.8,82,190,82L190,82z"/>
	<path class="st29" d="M194.7,82.6c-0.5,0-1-0.2-1.3-0.6c-0.3-0.4-0.5-0.9-0.5-1.6c0-0.3,0.1-0.7,0.1-0.9c0.1-0.3,0.2-0.5,0.4-0.7
		c0.2-0.2,0.4-0.3,0.6-0.5c0.2-0.1,0.5-0.2,0.7-0.2c0.2,0,0.5,0,0.6,0.1c0.2,0.1,0.4,0.2,0.5,0.4l0-0.7v-1.6h0.7v6.2H196l-0.1-0.5h0
		c-0.2,0.2-0.4,0.3-0.6,0.4C195.1,82.5,194.9,82.6,194.7,82.6L194.7,82.6z M194.8,82c0.2,0,0.4-0.1,0.6-0.1c0.2-0.1,0.3-0.2,0.5-0.4
		v-2.2c-0.2-0.2-0.3-0.3-0.5-0.3c-0.2-0.1-0.3-0.1-0.5-0.1s-0.3,0-0.5,0.1s-0.3,0.2-0.4,0.3c-0.1,0.1-0.2,0.3-0.3,0.5
		c-0.1,0.2-0.1,0.4-0.1,0.7c0,0.5,0.1,0.9,0.3,1.2C194.2,81.9,194.5,82,194.8,82L194.8,82z"/>
	<path class="st29" d="M198.1,82.5v-4.3h0.6l0.1,0.6h0c0.2-0.2,0.4-0.4,0.6-0.5c0.2-0.1,0.5-0.2,0.7-0.2c0.3,0,0.6,0.1,0.8,0.2
		c0.2,0.1,0.3,0.3,0.4,0.6c0.2-0.2,0.5-0.4,0.7-0.6c0.2-0.1,0.5-0.2,0.7-0.2c0.4,0,0.8,0.1,1,0.4c0.2,0.3,0.3,0.7,0.3,1.2v2.7h-0.7
		v-2.6c0-0.4-0.1-0.7-0.2-0.9c-0.1-0.2-0.3-0.3-0.6-0.3c-0.3,0-0.7,0.2-1.1,0.7v3.1h-0.7v-2.6c0-0.4-0.1-0.7-0.2-0.9
		c-0.1-0.2-0.3-0.3-0.6-0.3c-0.3,0-0.7,0.2-1.1,0.7v3.1L198.1,82.5L198.1,82.5z"/>
	<path class="st29" d="M205.7,77.4c-0.1,0-0.3,0-0.4-0.1c-0.1-0.1-0.1-0.2-0.1-0.3s0.1-0.3,0.1-0.3c0.1-0.1,0.2-0.1,0.4-0.1
		s0.3,0,0.3,0.1c0.1,0.1,0.1,0.2,0.1,0.3s-0.1,0.2-0.1,0.3C205.9,77.3,205.8,77.4,205.7,77.4z M205.3,82.5v-4.3h0.7v4.3H205.3z"/>
	<path class="st29" d="M207.4,82.5v-4.3h0.6l0.1,0.6h0c0.2-0.2,0.4-0.4,0.6-0.5c0.2-0.1,0.5-0.2,0.8-0.2c0.5,0,0.8,0.1,1,0.4
		s0.3,0.7,0.3,1.2v2.7h-0.7v-2.6c0-0.4-0.1-0.7-0.2-0.9c-0.1-0.2-0.3-0.3-0.6-0.3c-0.2,0-0.4,0.1-0.6,0.2s-0.4,0.3-0.6,0.5v3.1
		L207.4,82.5L207.4,82.5z"/>
	<path class="st29" d="M212.6,77.4c-0.1,0-0.3,0-0.4-0.1c-0.1-0.1-0.1-0.2-0.1-0.3s0.1-0.3,0.1-0.3c0.1-0.1,0.2-0.1,0.4-0.1
		s0.3,0,0.3,0.1c0.1,0.1,0.1,0.2,0.1,0.3s-0.1,0.2-0.1,0.3C212.8,77.3,212.7,77.4,212.6,77.4z M212.2,82.5v-4.3h0.7v4.3H212.2z"/>
	<path class="st29" d="M215.5,82.6c-0.3,0-0.6-0.1-0.9-0.2c-0.3-0.1-0.5-0.3-0.7-0.4l0.4-0.5c0.2,0.1,0.4,0.3,0.6,0.4
		s0.4,0.1,0.7,0.1c0.3,0,0.5-0.1,0.6-0.2s0.2-0.3,0.2-0.5c0-0.1,0-0.2-0.1-0.3c-0.1-0.1-0.1-0.1-0.2-0.2c-0.1-0.1-0.2-0.1-0.3-0.2
		c-0.1-0.1-0.2-0.1-0.3-0.1c-0.1-0.1-0.3-0.1-0.5-0.2c-0.1-0.1-0.3-0.1-0.4-0.2c-0.1-0.1-0.2-0.2-0.3-0.3c-0.1-0.1-0.1-0.3-0.1-0.5
		c0-0.2,0-0.3,0.1-0.5c0.1-0.1,0.2-0.3,0.3-0.4c0.1-0.1,0.3-0.2,0.5-0.3c0.2-0.1,0.4-0.1,0.6-0.1c0.3,0,0.5,0.1,0.7,0.1
		c0.2,0.1,0.4,0.2,0.6,0.3l-0.3,0.5c-0.1-0.1-0.3-0.2-0.5-0.3c-0.2-0.1-0.3-0.1-0.5-0.1c-0.3,0-0.5,0.1-0.6,0.2
		c-0.1,0.1-0.2,0.3-0.2,0.4c0,0.1,0,0.2,0.1,0.3s0.1,0.1,0.2,0.2c0.1,0.1,0.2,0.1,0.3,0.1c0.1,0,0.2,0.1,0.3,0.1
		c0.1,0.1,0.3,0.1,0.5,0.2c0.1,0.1,0.3,0.1,0.4,0.2c0.1,0.1,0.2,0.2,0.3,0.3c0.1,0.1,0.1,0.3,0.1,0.5c0,0.2,0,0.3-0.1,0.5
		c-0.1,0.1-0.2,0.3-0.3,0.4c-0.1,0.1-0.3,0.2-0.5,0.3C216,82.6,215.8,82.6,215.5,82.6L215.5,82.6z"/>
</g>
<g>
	<path class="st29" d="M219.2,82.6c-0.2,0-0.4,0-0.6-0.1s-0.3-0.2-0.4-0.3c-0.1-0.1-0.2-0.3-0.2-0.5c0-0.2-0.1-0.4-0.1-0.6v-2.3
		h-0.6v-0.5l0.7,0l0.1-1.2h0.6v1.2h1.1v0.6h-1.1v2.4c0,0.3,0.1,0.5,0.1,0.6c0.1,0.1,0.3,0.2,0.5,0.2c0.1,0,0.2,0,0.2,0
		c0.1,0,0.2-0.1,0.2-0.1l0.1,0.5c-0.1,0-0.2,0.1-0.4,0.1C219.5,82.6,219.3,82.6,219.2,82.6z"/>
	<path class="st29" d="M220.8,82.5v-4.3h0.6l0.1,0.8h0c0.1-0.3,0.3-0.5,0.5-0.6c0.2-0.2,0.4-0.2,0.7-0.2c0.2,0,0.3,0,0.5,0.1
		l-0.1,0.6c0,0-0.1,0-0.2-0.1c-0.1,0-0.1,0-0.2,0c-0.2,0-0.4,0.1-0.6,0.2c-0.2,0.1-0.4,0.4-0.5,0.8v2.7L220.8,82.5L220.8,82.5z"/>
</g>
<g>
	<path class="st29" d="M224.6,82.6c-0.4,0-0.7-0.1-0.9-0.3c-0.2-0.2-0.4-0.5-0.4-0.9c0-0.5,0.2-0.8,0.6-1.1c0.4-0.3,1.1-0.4,2-0.5
		c0-0.1,0-0.3,0-0.4c0-0.1-0.1-0.2-0.1-0.3c-0.1-0.1-0.1-0.2-0.3-0.2c-0.1-0.1-0.3-0.1-0.4-0.1c-0.2,0-0.5,0.1-0.7,0.1
		c-0.2,0.1-0.4,0.2-0.6,0.3l-0.3-0.5c0.2-0.1,0.4-0.3,0.7-0.4c0.3-0.1,0.6-0.2,0.9-0.2c0.5,0,0.9,0.2,1.1,0.5s0.3,0.7,0.3,1.3v2.6
		h-0.6L226,82h0c-0.2,0.2-0.4,0.3-0.7,0.4C225.1,82.5,224.9,82.6,224.6,82.6z M224.8,82c0.2,0,0.4-0.1,0.6-0.1
		c0.2-0.1,0.4-0.2,0.6-0.4v-1.2c-0.4,0.1-0.7,0.1-0.9,0.2c-0.2,0.1-0.4,0.1-0.6,0.2c-0.1,0.1-0.3,0.2-0.3,0.3
		c-0.1,0.1-0.1,0.2-0.1,0.4c0,0.2,0.1,0.4,0.2,0.5C224.4,82,224.6,82,224.8,82L224.8,82z"/>
	<path class="st29" d="M228,82.5v-4.3h0.6l0.1,0.8h0c0.1-0.3,0.3-0.5,0.5-0.6c0.2-0.2,0.4-0.2,0.7-0.2c0.2,0,0.3,0,0.5,0.1l-0.1,0.6
		c0,0-0.1,0-0.2-0.1c-0.1,0-0.1,0-0.2,0c-0.2,0-0.4,0.1-0.6,0.2c-0.2,0.1-0.4,0.4-0.5,0.8v2.7L228,82.5L228,82.5z"/>
	<path class="st29" d="M232.9,84.3c-0.1,0-0.2,0-0.3,0c-0.1,0-0.2,0-0.2-0.1l0.1-0.6c0,0,0.1,0,0.2,0c0.1,0,0.1,0,0.2,0
		c0.2,0,0.4-0.1,0.6-0.3c0.2-0.2,0.3-0.4,0.4-0.7l0.1-0.3l-1.7-4.3h0.7l0.9,2.3c0.1,0.2,0.1,0.4,0.2,0.6c0.1,0.2,0.1,0.4,0.2,0.6h0
		c0.1-0.2,0.1-0.4,0.2-0.6s0.1-0.4,0.2-0.6l0.8-2.3h0.7l-1.6,4.6c-0.1,0.2-0.2,0.4-0.3,0.6c-0.1,0.2-0.2,0.3-0.3,0.5
		c-0.1,0.1-0.3,0.2-0.4,0.3C233.3,84.2,233.1,84.3,232.9,84.3L232.9,84.3z"/>
</g>
<g>
	<path class="st29" d="M121.2,93.5v-4.3h0.6l0.1,0.6h0c0.2-0.2,0.4-0.4,0.6-0.5c0.2-0.1,0.5-0.2,0.7-0.2c0.3,0,0.6,0.1,0.8,0.2
		s0.3,0.3,0.4,0.6c0.2-0.2,0.5-0.4,0.7-0.6c0.2-0.2,0.5-0.2,0.7-0.2c0.4,0,0.8,0.1,1,0.4c0.2,0.3,0.3,0.7,0.3,1.2v2.7h-0.7v-2.6
		c0-0.4-0.1-0.7-0.2-0.9c-0.1-0.2-0.3-0.3-0.6-0.3c-0.3,0-0.7,0.2-1.1,0.7v3.1h-0.7v-2.6c0-0.4-0.1-0.7-0.2-0.9s-0.3-0.3-0.6-0.3
		c-0.3,0-0.7,0.2-1.1,0.7v3.1L121.2,93.5L121.2,93.5z"/>
	<path class="st29" d="M130.1,93.6c-0.3,0-0.5-0.1-0.7-0.1c-0.2-0.1-0.5-0.2-0.6-0.4c-0.2-0.2-0.3-0.4-0.4-0.7
		c-0.1-0.3-0.2-0.6-0.2-0.9c0-0.4,0.1-0.7,0.2-0.9c0.1-0.3,0.3-0.5,0.4-0.7c0.2-0.2,0.4-0.3,0.6-0.4c0.2-0.1,0.5-0.1,0.7-0.1
		c0.3,0,0.5,0.1,0.7,0.1s0.5,0.2,0.6,0.4c0.2,0.2,0.3,0.4,0.4,0.7c0.1,0.3,0.2,0.6,0.2,0.9c0,0.3-0.1,0.7-0.2,0.9
		c-0.1,0.3-0.3,0.5-0.4,0.7c-0.2,0.2-0.4,0.3-0.6,0.4C130.6,93.5,130.3,93.6,130.1,93.6z M130.1,93c0.2,0,0.3,0,0.5-0.1
		s0.3-0.2,0.4-0.3s0.2-0.3,0.3-0.5s0.1-0.4,0.1-0.7c0-0.3,0-0.5-0.1-0.7c-0.1-0.2-0.1-0.4-0.3-0.5s-0.2-0.3-0.4-0.3
		c-0.1-0.1-0.3-0.1-0.5-0.1c-0.2,0-0.3,0-0.5,0.1c-0.1,0.1-0.3,0.2-0.4,0.3s-0.2,0.3-0.3,0.5s-0.1,0.4-0.1,0.7c0,0.3,0,0.5,0.1,0.7
		c0.1,0.2,0.1,0.4,0.3,0.5c0.1,0.1,0.2,0.3,0.4,0.3S129.9,93,130.1,93z"/>
	<path class="st29" d="M133.2,93.5v-4.3h0.6l0.1,0.6h0c0.2-0.2,0.4-0.4,0.6-0.5c0.2-0.1,0.5-0.2,0.8-0.2c0.5,0,0.8,0.1,1,0.4
		c0.2,0.3,0.3,0.7,0.3,1.2v2.7h-0.7v-2.6c0-0.4-0.1-0.7-0.2-0.9c-0.1-0.2-0.3-0.3-0.6-0.3c-0.2,0-0.4,0.1-0.6,0.2
		c-0.2,0.1-0.4,0.3-0.6,0.5v3.1L133.2,93.5L133.2,93.5z"/>
	<path class="st29" d="M138.3,88.4c-0.1,0-0.3,0-0.4-0.1c-0.1-0.1-0.1-0.2-0.1-0.3s0.1-0.3,0.1-0.3s0.2-0.1,0.4-0.1s0.3,0,0.3,0.1
		s0.1,0.2,0.1,0.3s-0.1,0.2-0.1,0.3S138.4,88.4,138.3,88.4z M137.9,93.5v-4.3h0.7v4.3H137.9z"/>
	<path class="st29" d="M141.4,93.6c-0.2,0-0.4,0-0.6-0.1s-0.3-0.2-0.4-0.3c-0.1-0.1-0.2-0.3-0.2-0.5s-0.1-0.4-0.1-0.6v-2.3h-0.6
		v-0.5l0.7,0l0.1-1.2h0.6v1.2h1.1v0.6h-1.1v2.4c0,0.3,0.1,0.5,0.1,0.6c0.1,0.1,0.3,0.2,0.5,0.2c0.1,0,0.2,0,0.2,0
		c0.1,0,0.2-0.1,0.2-0.1l0.1,0.5c-0.1,0-0.2,0.1-0.4,0.1C141.7,93.5,141.6,93.6,141.4,93.6z"/>
</g>
<g>
	<path class="st29" d="M144.6,93.6c-0.3,0-0.5-0.1-0.7-0.1c-0.2-0.1-0.5-0.2-0.6-0.4c-0.2-0.2-0.3-0.4-0.4-0.7
		c-0.1-0.3-0.2-0.6-0.2-0.9c0-0.4,0.1-0.7,0.2-0.9s0.3-0.5,0.4-0.7c0.2-0.2,0.4-0.3,0.6-0.4c0.2-0.1,0.5-0.1,0.7-0.1
		s0.5,0.1,0.7,0.1c0.2,0.1,0.5,0.2,0.6,0.4c0.2,0.2,0.3,0.4,0.4,0.7c0.1,0.3,0.2,0.6,0.2,0.9c0,0.3-0.1,0.7-0.2,0.9
		c-0.1,0.3-0.3,0.5-0.4,0.7c-0.2,0.2-0.4,0.3-0.6,0.4C145.1,93.5,144.8,93.6,144.6,93.6z M144.6,93c0.2,0,0.3,0,0.5-0.1
		c0.1-0.1,0.3-0.2,0.4-0.3c0.1-0.1,0.2-0.3,0.3-0.5c0.1-0.2,0.1-0.4,0.1-0.7c0-0.3,0-0.5-0.1-0.7c-0.1-0.2-0.1-0.4-0.3-0.5
		c-0.1-0.1-0.2-0.3-0.4-0.3c-0.1-0.1-0.3-0.1-0.5-0.1s-0.3,0-0.5,0.1c-0.1,0.1-0.3,0.2-0.4,0.3c-0.1,0.1-0.2,0.3-0.3,0.5
		s-0.1,0.4-0.1,0.7c0,0.3,0,0.5,0.1,0.7c0.1,0.2,0.1,0.4,0.3,0.5c0.1,0.1,0.2,0.3,0.4,0.3S144.4,93,144.6,93z"/>
	<path class="st29" d="M147.7,93.5v-4.3h0.6l0.1,0.8h0c0.1-0.3,0.3-0.5,0.5-0.6c0.2-0.2,0.4-0.2,0.7-0.2c0.2,0,0.3,0,0.5,0.1
		l-0.1,0.6c0,0-0.1,0-0.2-0.1c-0.1,0-0.1,0-0.2,0c-0.2,0-0.4,0.1-0.6,0.2c-0.2,0.1-0.4,0.4-0.5,0.8v2.7L147.7,93.5L147.7,93.5z"/>
	<path class="st29" d="M152.4,93.6c-0.3,0-0.5-0.1-0.8-0.1c-0.3-0.1-0.5-0.3-0.7-0.4c-0.2-0.2-0.3-0.4-0.4-0.7s-0.2-0.6-0.2-0.9
		s0.1-0.7,0.2-0.9s0.3-0.5,0.4-0.7c0.2-0.2,0.4-0.3,0.6-0.4c0.2-0.1,0.5-0.1,0.7-0.1c0.3,0,0.5,0.1,0.7,0.1c0.2,0.1,0.4,0.2,0.5,0.4
		c0.1,0.2,0.3,0.4,0.3,0.6c0.1,0.2,0.1,0.5,0.1,0.8c0,0.1,0,0.1,0,0.2c0,0.1,0,0.1,0,0.2h-2.9c0,0.5,0.2,0.8,0.4,1.1
		c0.3,0.3,0.6,0.4,1,0.4c0.2,0,0.4,0,0.6-0.1c0.2-0.1,0.3-0.1,0.5-0.2l0.3,0.5c-0.2,0.1-0.4,0.2-0.6,0.3
		C153,93.5,152.7,93.6,152.4,93.6L152.4,93.6z M151.1,91h2.3c0-0.4-0.1-0.8-0.3-1c-0.2-0.2-0.4-0.3-0.8-0.3c-0.1,0-0.3,0-0.4,0.1
		c-0.1,0.1-0.3,0.1-0.4,0.3c-0.1,0.1-0.2,0.3-0.3,0.4C151.1,90.6,151.1,90.8,151.1,91L151.1,91z"/>
</g>
<g>
	<path class="st29" d="M155.8,93.6c-0.4,0-0.7-0.1-0.9-0.3c-0.2-0.2-0.4-0.5-0.4-0.9c0-0.5,0.2-0.8,0.6-1.1c0.4-0.3,1.1-0.4,2-0.5
		c0-0.1,0-0.3,0-0.4S157,90.1,157,90s-0.1-0.2-0.3-0.2c-0.1-0.1-0.3-0.1-0.4-0.1c-0.2,0-0.5,0.1-0.7,0.1c-0.2,0.1-0.4,0.2-0.6,0.3
		l-0.3-0.5c0.2-0.1,0.4-0.3,0.7-0.4c0.3-0.1,0.6-0.2,0.9-0.2c0.5,0,0.9,0.2,1.1,0.5c0.2,0.3,0.3,0.7,0.3,1.3v2.6h-0.6l-0.1-0.5h0
		c-0.2,0.2-0.4,0.3-0.7,0.4C156.3,93.5,156,93.6,155.8,93.6z M156,93c0.2,0,0.4-0.1,0.6-0.1c0.2-0.1,0.4-0.2,0.6-0.4v-1.2
		c-0.4,0.1-0.7,0.1-0.9,0.2c-0.2,0.1-0.4,0.1-0.6,0.2c-0.1,0.1-0.3,0.2-0.3,0.3c-0.1,0.1-0.1,0.2-0.1,0.4c0,0.2,0.1,0.4,0.2,0.5
		C155.6,92.9,155.8,93,156,93L156,93z"/>
	<path class="st29" d="M159.2,93.5v-4.3h0.6l0.1,0.8h0c0.1-0.3,0.3-0.5,0.5-0.6c0.2-0.2,0.4-0.2,0.7-0.2c0.2,0,0.3,0,0.5,0.1
		l-0.1,0.6c0,0-0.1,0-0.2-0.1c-0.1,0-0.1,0-0.2,0c-0.2,0-0.4,0.1-0.6,0.2c-0.2,0.1-0.4,0.4-0.5,0.8v2.7L159.2,93.5L159.2,93.5z"/>
	<path class="st29" d="M164.7,93.6c-0.3,0-0.5-0.1-0.6-0.2s-0.2-0.4-0.2-0.7v-5.4h0.7v5.4c0,0.1,0,0.2,0.1,0.2
		c0,0.1,0.1,0.1,0.1,0.1h0.1c0,0,0.1,0,0.1,0l0.1,0.5c0,0-0.1,0-0.2,0.1C164.9,93.6,164.8,93.6,164.7,93.6L164.7,93.6z"/>
	<path class="st29" d="M167.9,93.6c-0.3,0-0.5-0.1-0.7-0.1c-0.2-0.1-0.5-0.2-0.6-0.4c-0.2-0.2-0.3-0.4-0.4-0.7
		c-0.1-0.3-0.2-0.6-0.2-0.9c0-0.4,0.1-0.7,0.2-0.9s0.3-0.5,0.4-0.7s0.4-0.3,0.6-0.4c0.2-0.1,0.5-0.1,0.7-0.1s0.5,0.1,0.7,0.1
		c0.2,0.1,0.5,0.2,0.6,0.4c0.2,0.2,0.3,0.4,0.4,0.7c0.1,0.3,0.2,0.6,0.2,0.9c0,0.3-0.1,0.7-0.2,0.9c-0.1,0.3-0.3,0.5-0.4,0.7
		c-0.2,0.2-0.4,0.3-0.6,0.4C168.4,93.5,168.1,93.6,167.9,93.6z M167.9,93c0.2,0,0.3,0,0.5-0.1c0.1-0.1,0.3-0.2,0.4-0.3
		s0.2-0.3,0.3-0.5s0.1-0.4,0.1-0.7c0-0.3,0-0.5-0.1-0.7c-0.1-0.2-0.1-0.4-0.3-0.5s-0.2-0.3-0.4-0.3c-0.1-0.1-0.3-0.1-0.5-0.1
		c-0.2,0-0.3,0-0.5,0.1c-0.1,0.1-0.3,0.2-0.4,0.3s-0.2,0.3-0.3,0.5s-0.1,0.4-0.1,0.7c0,0.3,0,0.5,0.1,0.7c0.1,0.2,0.1,0.4,0.3,0.5
		c0.1,0.1,0.2,0.3,0.4,0.3S167.7,93,167.9,93z"/>
	<path class="st29" d="M172.1,93.6c-0.3,0-0.6-0.1-0.9-0.2c-0.3-0.1-0.5-0.3-0.7-0.4l0.4-0.5c0.2,0.1,0.4,0.3,0.6,0.4
		c0.2,0.1,0.4,0.1,0.7,0.1c0.3,0,0.5-0.1,0.6-0.2s0.2-0.3,0.2-0.5c0-0.1,0-0.2-0.1-0.3c-0.1-0.1-0.1-0.1-0.2-0.2
		c-0.1-0.1-0.2-0.1-0.3-0.2s-0.2-0.1-0.3-0.1c-0.1-0.1-0.3-0.1-0.5-0.2s-0.3-0.1-0.4-0.2c-0.1-0.1-0.2-0.2-0.3-0.3
		c-0.1-0.1-0.1-0.3-0.1-0.5c0-0.2,0-0.3,0.1-0.5c0.1-0.1,0.2-0.3,0.3-0.4s0.3-0.2,0.5-0.3c0.2-0.1,0.4-0.1,0.6-0.1
		c0.3,0,0.5,0.1,0.7,0.1c0.2,0.1,0.4,0.2,0.6,0.3l-0.3,0.5c-0.1-0.1-0.3-0.2-0.5-0.3s-0.3-0.1-0.5-0.1c-0.3,0-0.5,0.1-0.6,0.2
		c-0.1,0.1-0.2,0.3-0.2,0.4c0,0.1,0,0.2,0.1,0.3c0.1,0.1,0.1,0.1,0.2,0.2c0.1,0.1,0.2,0.1,0.3,0.1c0.1,0,0.2,0.1,0.3,0.1
		c0.1,0.1,0.3,0.1,0.5,0.2c0.1,0.1,0.3,0.1,0.4,0.2c0.1,0.1,0.2,0.2,0.3,0.3s0.1,0.3,0.1,0.5c0,0.2,0,0.3-0.1,0.5
		c-0.1,0.1-0.2,0.3-0.3,0.4c-0.1,0.1-0.3,0.2-0.5,0.3C172.6,93.5,172.4,93.6,172.1,93.6L172.1,93.6z"/>
	<path class="st29" d="M178.6,93.6c-0.4,0-0.7-0.1-1-0.2c-0.3-0.1-0.6-0.3-0.8-0.6c-0.2-0.3-0.4-0.6-0.5-0.9
		c-0.1-0.4-0.2-0.8-0.2-1.3c0-0.5,0.1-0.9,0.2-1.2c0.1-0.4,0.3-0.7,0.5-0.9c0.2-0.3,0.5-0.5,0.8-0.6c0.3-0.1,0.7-0.2,1-0.2
		c0.4,0,0.7,0.1,0.9,0.2c0.3,0.1,0.5,0.3,0.7,0.5l-0.4,0.5c-0.1-0.2-0.3-0.3-0.5-0.4c-0.2-0.1-0.4-0.1-0.7-0.1
		c-0.3,0-0.5,0.1-0.7,0.2c-0.2,0.1-0.4,0.3-0.6,0.5c-0.2,0.2-0.3,0.4-0.4,0.7c-0.1,0.3-0.1,0.6-0.1,1c0,0.4,0,0.7,0.1,1
		c0.1,0.3,0.2,0.5,0.4,0.7c0.1,0.2,0.3,0.4,0.6,0.5c0.2,0.1,0.5,0.2,0.7,0.2c0.3,0,0.5-0.1,0.7-0.2s0.4-0.3,0.6-0.5l0.4,0.5
		c-0.2,0.3-0.5,0.5-0.8,0.6C179.3,93.5,179,93.6,178.6,93.6L178.6,93.6z"/>
	<path class="st29" d="M183,93.6c-0.3,0-0.5-0.1-0.7-0.1c-0.2-0.1-0.5-0.2-0.6-0.4c-0.2-0.2-0.3-0.4-0.4-0.7
		c-0.1-0.3-0.2-0.6-0.2-0.9c0-0.4,0.1-0.7,0.2-0.9s0.3-0.5,0.4-0.7c0.2-0.2,0.4-0.3,0.6-0.4c0.2-0.1,0.5-0.1,0.7-0.1
		s0.5,0.1,0.7,0.1c0.2,0.1,0.5,0.2,0.6,0.4c0.2,0.2,0.3,0.4,0.4,0.7c0.1,0.3,0.2,0.6,0.2,0.9c0,0.3-0.1,0.7-0.2,0.9
		c-0.1,0.3-0.3,0.5-0.4,0.7c-0.2,0.2-0.4,0.3-0.6,0.4C183.5,93.5,183.3,93.6,183,93.6z M183,93c0.2,0,0.3,0,0.5-0.1
		c0.1-0.1,0.3-0.2,0.4-0.3s0.2-0.3,0.3-0.5s0.1-0.4,0.1-0.7c0-0.3,0-0.5-0.1-0.7c-0.1-0.2-0.1-0.4-0.3-0.5s-0.2-0.3-0.4-0.3
		c-0.1-0.1-0.3-0.1-0.5-0.1c-0.2,0-0.3,0-0.5,0.1c-0.1,0.1-0.3,0.2-0.4,0.3s-0.2,0.3-0.3,0.5s-0.1,0.4-0.1,0.7c0,0.3,0,0.5,0.1,0.7
		s0.1,0.4,0.3,0.5c0.1,0.1,0.2,0.3,0.4,0.3S182.8,93,183,93z"/>
	<path class="st29" d="M186.1,93.5v-4.3h0.6l0.1,0.6h0c0.2-0.2,0.4-0.4,0.6-0.5c0.2-0.1,0.5-0.2,0.8-0.2c0.5,0,0.8,0.1,1,0.4
		s0.3,0.7,0.3,1.2v2.7h-0.7v-2.6c0-0.4-0.1-0.7-0.2-0.9c-0.1-0.2-0.3-0.3-0.6-0.3c-0.2,0-0.4,0.1-0.6,0.2c-0.2,0.1-0.4,0.3-0.6,0.5
		v3.1L186.1,93.5L186.1,93.5z"/>
	<path class="st29" d="M192.2,93.6c-0.2,0-0.4,0-0.6-0.1c-0.2-0.1-0.3-0.2-0.4-0.3s-0.2-0.3-0.2-0.5c0-0.2-0.1-0.4-0.1-0.6v-2.3
		h-0.6v-0.5l0.7,0l0.1-1.2h0.6v1.2h1.1v0.6h-1.1v2.4c0,0.3,0.1,0.5,0.1,0.6c0.1,0.1,0.3,0.2,0.5,0.2c0.1,0,0.2,0,0.2,0
		c0.1,0,0.2-0.1,0.2-0.1l0.1,0.5c-0.1,0-0.2,0.1-0.4,0.1C192.5,93.5,192.3,93.6,192.2,93.6z"/>
	<path class="st29" d="M193.8,93.5v-4.3h0.6l0.1,0.8h0c0.1-0.3,0.3-0.5,0.5-0.6c0.2-0.2,0.4-0.2,0.7-0.2c0.2,0,0.3,0,0.5,0.1
		l-0.1,0.6c0,0-0.1,0-0.2-0.1c-0.1,0-0.1,0-0.2,0c-0.2,0-0.4,0.1-0.6,0.2c-0.2,0.1-0.4,0.4-0.5,0.8v2.7L193.8,93.5L193.8,93.5z"/>
</g>
<path class="st29" d="M197.6,93.6c-0.4,0-0.7-0.1-0.9-0.3s-0.4-0.5-0.4-0.9c0-0.5,0.2-0.8,0.6-1.1s1.1-0.4,2-0.5c0-0.1,0-0.3,0-0.4
	c0-0.1-0.1-0.2-0.1-0.3s-0.1-0.2-0.3-0.2c-0.1-0.1-0.3-0.1-0.4-0.1c-0.2,0-0.5,0.1-0.7,0.1s-0.4,0.2-0.6,0.3l-0.3-0.5
	c0.2-0.1,0.4-0.3,0.7-0.4c0.3-0.1,0.6-0.2,0.9-0.2c0.5,0,0.9,0.2,1.1,0.5c0.2,0.3,0.3,0.7,0.3,1.3v2.6h-0.6l-0.1-0.5h0
	c-0.2,0.2-0.4,0.3-0.7,0.4C198.1,93.5,197.9,93.6,197.6,93.6z M197.8,93c0.2,0,0.4-0.1,0.6-0.1c0.2-0.1,0.4-0.2,0.6-0.4v-1.2
	c-0.4,0.1-0.7,0.1-0.9,0.2c-0.2,0.1-0.4,0.1-0.6,0.2c-0.1,0.1-0.3,0.2-0.3,0.3c-0.1,0.1-0.1,0.2-0.1,0.4c0,0.2,0.1,0.4,0.2,0.5
	C197.5,92.9,197.6,93,197.8,93L197.8,93z"/>
<path class="st29" d="M202.3,93.6c-0.2,0-0.4,0-0.6-0.1s-0.3-0.2-0.4-0.3s-0.2-0.3-0.2-0.5c0-0.2-0.1-0.4-0.1-0.6v-2.3h-0.6v-0.5
	l0.7,0l0.1-1.2h0.6v1.2h1.1v0.6h-1.1v2.4c0,0.3,0.1,0.5,0.1,0.6c0.1,0.1,0.3,0.2,0.5,0.2c0.1,0,0.2,0,0.2,0c0.1,0,0.2-0.1,0.2-0.1
	l0.1,0.5c-0.1,0-0.2,0.1-0.4,0.1C202.5,93.5,202.4,93.6,202.3,93.6z"/>
<g>
	<path class="st29" d="M205.4,93.6c-0.3,0-0.5-0.1-0.7-0.1c-0.2-0.1-0.5-0.2-0.6-0.4c-0.2-0.2-0.3-0.4-0.4-0.7
		c-0.1-0.3-0.2-0.6-0.2-0.9c0-0.4,0.1-0.7,0.2-0.9c0.1-0.3,0.3-0.5,0.4-0.7c0.2-0.2,0.4-0.3,0.6-0.4c0.2-0.1,0.5-0.1,0.7-0.1
		c0.3,0,0.5,0.1,0.7,0.1s0.5,0.2,0.6,0.4c0.2,0.2,0.3,0.4,0.4,0.7c0.1,0.3,0.2,0.6,0.2,0.9c0,0.3-0.1,0.7-0.2,0.9
		c-0.1,0.3-0.3,0.5-0.4,0.7c-0.2,0.2-0.4,0.3-0.6,0.4C205.9,93.5,205.7,93.6,205.4,93.6z M205.4,93c0.2,0,0.3,0,0.5-0.1
		s0.3-0.2,0.4-0.3s0.2-0.3,0.3-0.5s0.1-0.4,0.1-0.7c0-0.3,0-0.5-0.1-0.7c-0.1-0.2-0.1-0.4-0.3-0.5s-0.2-0.3-0.4-0.3
		c-0.1-0.1-0.3-0.1-0.5-0.1c-0.2,0-0.3,0-0.5,0.1c-0.1,0.1-0.3,0.2-0.4,0.3s-0.2,0.3-0.3,0.5s-0.1,0.4-0.1,0.7c0,0.3,0,0.5,0.1,0.7
		c0.1,0.2,0.1,0.4,0.3,0.5c0.1,0.1,0.2,0.3,0.4,0.3S205.2,93,205.4,93z"/>
	<path class="st29" d="M209.6,93.6c-0.3,0-0.6-0.1-0.9-0.2c-0.3-0.1-0.5-0.3-0.7-0.4l0.4-0.5c0.2,0.1,0.4,0.3,0.6,0.4
		c0.2,0.1,0.4,0.1,0.7,0.1c0.3,0,0.5-0.1,0.6-0.2s0.2-0.3,0.2-0.5c0-0.1,0-0.2-0.1-0.3s-0.1-0.1-0.2-0.2c-0.1-0.1-0.2-0.1-0.3-0.2
		s-0.2-0.1-0.3-0.1c-0.1-0.1-0.3-0.1-0.5-0.2s-0.3-0.1-0.4-0.2c-0.1-0.1-0.2-0.2-0.3-0.3c-0.1-0.1-0.1-0.3-0.1-0.5
		c0-0.2,0-0.3,0.1-0.5c0.1-0.1,0.2-0.3,0.3-0.4c0.1-0.1,0.3-0.2,0.5-0.3c0.2-0.1,0.4-0.1,0.6-0.1c0.3,0,0.5,0.1,0.7,0.1
		c0.2,0.1,0.4,0.2,0.6,0.3l-0.3,0.5c-0.1-0.1-0.3-0.2-0.5-0.3c-0.2-0.1-0.3-0.1-0.5-0.1c-0.3,0-0.5,0.1-0.6,0.2s-0.2,0.3-0.2,0.4
		c0,0.1,0,0.2,0.1,0.3c0.1,0.1,0.1,0.1,0.2,0.2c0.1,0.1,0.2,0.1,0.3,0.1c0.1,0,0.2,0.1,0.3,0.1c0.1,0.1,0.3,0.1,0.5,0.2
		c0.1,0.1,0.3,0.1,0.4,0.2s0.2,0.2,0.3,0.3s0.1,0.3,0.1,0.5c0,0.2,0,0.3-0.1,0.5c-0.1,0.1-0.2,0.3-0.3,0.4c-0.1,0.1-0.3,0.2-0.5,0.3
		C210.2,93.5,209.9,93.6,209.6,93.6L209.6,93.6z"/>
	<path class="st29" d="M214,93.5v-5.7h0.9l1.1,3.1c0.1,0.2,0.1,0.4,0.2,0.6c0.1,0.2,0.1,0.4,0.2,0.6h0c0.1-0.2,0.1-0.4,0.2-0.6
		c0.1-0.2,0.1-0.4,0.2-0.6l1.1-3.1h0.9v5.7h-0.7v-3.2c0-0.3,0-0.5,0-0.9c0-0.3,0-0.6,0.1-0.9h0l-0.5,1.3l-1.1,3h-0.5l-1.1-3
		l-0.5-1.3h0c0,0.3,0,0.5,0.1,0.9s0,0.6,0,0.9v3.2H214z"/>
	<path class="st29" d="M221.2,93.6c-0.4,0-0.7-0.1-0.9-0.3c-0.2-0.2-0.4-0.5-0.4-0.9c0-0.5,0.2-0.8,0.6-1.1c0.4-0.3,1.1-0.4,2-0.5
		c0-0.1,0-0.3,0-0.4c0-0.1-0.1-0.2-0.1-0.3s-0.1-0.2-0.3-0.2c-0.1-0.1-0.3-0.1-0.4-0.1c-0.2,0-0.5,0.1-0.7,0.1
		c-0.2,0.1-0.4,0.2-0.6,0.3l-0.3-0.5c0.2-0.1,0.4-0.3,0.7-0.4c0.3-0.1,0.6-0.2,0.9-0.2c0.5,0,0.9,0.2,1.1,0.5
		c0.2,0.3,0.3,0.7,0.3,1.3v2.6h-0.6l-0.1-0.5h0c-0.2,0.2-0.4,0.3-0.7,0.4C221.7,93.5,221.5,93.6,221.2,93.6z M221.5,93
		c0.2,0,0.4-0.1,0.6-0.1c0.2-0.1,0.4-0.2,0.6-0.4v-1.2c-0.4,0.1-0.7,0.1-0.9,0.2c-0.2,0.1-0.4,0.1-0.6,0.2c-0.1,0.1-0.3,0.2-0.3,0.3
		c-0.1,0.1-0.1,0.2-0.1,0.4c0,0.2,0.1,0.4,0.2,0.5C221.1,92.9,221.3,93,221.5,93L221.5,93z"/>
	<path class="st29" d="M224.7,93.5v-4.3h0.6l0.1,0.8h0c0.1-0.3,0.3-0.5,0.5-0.6c0.2-0.2,0.4-0.2,0.7-0.2c0.2,0,0.3,0,0.5,0.1
		l-0.1,0.6c0,0-0.1,0-0.2-0.1c-0.1,0-0.1,0-0.2,0c-0.2,0-0.4,0.1-0.6,0.2c-0.2,0.1-0.4,0.4-0.5,0.8v2.7L224.7,93.5L224.7,93.5z"/>
	<path class="st29" d="M229.4,93.6c-0.3,0-0.5-0.1-0.8-0.1c-0.2-0.1-0.5-0.2-0.6-0.4c-0.2-0.2-0.3-0.4-0.4-0.7
		c-0.1-0.3-0.1-0.6-0.1-0.9c0-0.4,0.1-0.7,0.2-0.9c0.1-0.3,0.3-0.5,0.5-0.7c0.2-0.2,0.4-0.3,0.7-0.4c0.3-0.1,0.5-0.1,0.8-0.1
		c0.3,0,0.5,0.1,0.7,0.1c0.2,0.1,0.4,0.2,0.5,0.3l-0.4,0.5c-0.1-0.1-0.3-0.2-0.4-0.3c-0.1-0.1-0.3-0.1-0.5-0.1c-0.2,0-0.4,0-0.5,0.1
		c-0.2,0.1-0.3,0.2-0.4,0.3s-0.2,0.3-0.3,0.5c-0.1,0.2-0.1,0.4-0.1,0.7c0,0.3,0,0.5,0.1,0.7c0.1,0.2,0.1,0.4,0.3,0.5
		c0.1,0.1,0.3,0.3,0.4,0.3c0.2,0.1,0.3,0.1,0.5,0.1c0.2,0,0.4,0,0.5-0.1c0.2-0.1,0.3-0.2,0.5-0.3l0.3,0.5c-0.2,0.2-0.4,0.3-0.6,0.4
		C229.9,93.5,229.7,93.5,229.4,93.6L229.4,93.6z"/>
</g>
<path class="st29" d="M233.1,93.6c-0.3,0-0.5-0.1-0.7-0.1c-0.2-0.1-0.5-0.2-0.6-0.4c-0.2-0.2-0.3-0.4-0.4-0.7
	c-0.1-0.3-0.2-0.6-0.2-0.9c0-0.4,0.1-0.7,0.2-0.9s0.3-0.5,0.4-0.7c0.2-0.2,0.4-0.3,0.6-0.4c0.2-0.1,0.5-0.1,0.7-0.1s0.5,0.1,0.7,0.1
	s0.5,0.2,0.6,0.4c0.2,0.2,0.3,0.4,0.4,0.7c0.1,0.3,0.2,0.6,0.2,0.9c0,0.3-0.1,0.7-0.2,0.9c-0.1,0.3-0.3,0.5-0.4,0.7
	c-0.2,0.2-0.4,0.3-0.6,0.4C233.6,93.5,233.3,93.6,233.1,93.6z M233.1,93c0.2,0,0.3,0,0.5-0.1s0.3-0.2,0.4-0.3
	c0.1-0.1,0.2-0.3,0.3-0.5s0.1-0.4,0.1-0.7c0-0.3,0-0.5-0.1-0.7s-0.1-0.4-0.3-0.5s-0.2-0.3-0.4-0.3c-0.1-0.1-0.3-0.1-0.5-0.1
	s-0.3,0-0.5,0.1s-0.3,0.2-0.4,0.3c-0.1,0.1-0.2,0.3-0.3,0.5s-0.1,0.4-0.1,0.7c0,0.3,0,0.5,0.1,0.7c0.1,0.2,0.1,0.4,0.3,0.5
	c0.1,0.1,0.2,0.3,0.4,0.3S232.9,93,233.1,93z"/>
</svg>
