<?xml version="1.0" encoding="UTF-8"?><svg id="Capa_1" xmlns="http://www.w3.org/2000/svg" xmlns:xlink="http://www.w3.org/1999/xlink" viewBox="0 0 137 49"><defs><style>.cls-1,.cls-2{fill:none;}.cls-3{clip-path:url(#clippath);}.cls-4{fill:#f59171;}.cls-5{fill:#eea987;}.cls-6{fill:#fff;}.cls-7{fill:#eda785;}.cls-8{fill:#eda886;}.cls-9{fill:#ffc855;}.cls-10{fill:#ffd155;}.cls-11{fill:#e7734d;}.cls-12{fill:#323657;}.cls-13{fill:#bacf70;}.cls-14{fill:#cea245;}.cls-15{fill:#a67860;}.cls-16{fill:#df9a79;}.cls-17{fill:#c3c0cb;}.cls-18{fill:#dad7e2;}.cls-19{fill:#171e46;}.cls-20{fill:#16202e;}.cls-21{fill:#252e3b;}.cls-22{fill:#235b4e;}.cls-23{fill:#0c2b34;}.cls-24{fill:#96a33c;}.cls-25{fill:#87bfff;}.cls-26{fill:#48753a;}.cls-27{fill:#5f9fff;}.cls-28{fill:#5188da;}.cls-29{fill:#4da7f1;}.cls-2{clip-rule:evenodd;}.cls-30{clip-path:url(#clippath-1);}.cls-31{clip-path:url(#clippath-5);}.cls-32{clip-path:url(#clippath-13);}.cls-33{fill:url(#Degradado_sin_nombre_2);}</style><clipPath id="clippath"><path class="cls-2" d="M2.53,1H134.47c1.32,0,2.4,1.08,2.4,2.4V46.6c0,1.32-1.08,2.4-2.4,2.4H2.53c-1.32,0-2.4-1.08-2.4-2.4V3.4C.13,2.08,1.21,1,2.53,1"/></clipPath><clipPath id="clippath-1"><path class="cls-2" d="M35.81,35.51c.51-.85,.89-1.76,1.15-2.7l2.03-.39,.02-2.24,.02-2.24-2.02-.43c-.23-.94-.6-1.86-1.1-2.72l1.16-1.71-1.57-1.6-1.57-1.6-1.73,1.13c-.85-.51-1.76-.89-2.7-1.15l-.39-2.03-2.24-.02-2.24-.02-.43,2.02c-.94,.23-1.86,.6-2.72,1.1l-1.71-1.16-1.6,1.57-1.6,1.57,1.13,1.73c-.51,.85-.89,1.76-1.15,2.7l-2.03,.39-.02,2.24-.02,2.24,2.02,.43c.23,.94,.6,1.86,1.1,2.72l-1.16,1.71,1.57,1.6,1.57,1.6,1.73-1.13c.85,.51,1.76,.89,2.7,1.15l.39,2.03,2.24,.02,2.24,.02,.43-2.02c.94-.23,1.86-.6,2.72-1.1l1.71,1.16,1.6-1.57,1.6-1.57-1.13-1.73Zm-12.99-1.59c-2.13-2.17-2.1-5.65,.07-7.78,2.17-2.13,5.65-2.1,7.78,.07,2.13,2.17,2.1,5.65-.07,7.78-2.17,2.13-5.65,2.1-7.78-.07Z"/></clipPath><linearGradient id="Degradado_sin_nombre_2" x1="14.47" y1="30.07" x2="39.02" y2="30.07" gradientUnits="userSpaceOnUse"><stop offset="0" stop-color="#95caff"/><stop offset="1" stop-color="#5598ff"/></linearGradient><clipPath id="clippath-5"><path class="cls-1" d="M10.38,29.33s.49-.93,.36-3.56c-.04-.73,3.83,1.73,3.83,1.73,0,0-.01,.25-.02,.59,0,.14,0,.3,0,.46,0,.04,0,.09,0,.13,0,.07,0,.14,0,.21,0,.09,0,.17,0,.26,0,.09,.01,.18,.02,.27,.02,.16,.11,.44,.14,.52,.18,.41-2.88,.43-4.33-.6"/></clipPath><clipPath id="clippath-13"><path class="cls-1" d="M13.79,18.98s4.25-1.02,3.35,4.35c-.89,5.38-1.91,5.81-4.5,4.74-2.59-1.07-2.41-4.51-2.56-6.19-.15-1.68,2.35-2.82,3.71-2.9"/></clipPath></defs><g class="cls-3"><path class="cls-13" d="M44.45,21.64s2.53,10.08-3.55,12.84c-6.08,2.76-4.91-2.29-4.91-2.29,0,0-2.49-.69,4.29-4.54,3.2-1.81,4.17-6.01,4.17-6.01"/><path class="cls-24" d="M60.37,22.52s1.25,8.79-10.26,12.58c-11.5,3.8-13.14,8.62-13.14,8.62,0,0-.34-19.47,23.4-21.2"/><path class="cls-26" d="M36.92,40.14c-3.41-1.3,4.7-8.28,10.93-8.09,6.23,.19,10.45,2.49,14.63,1.52,0,0-8.76,12.98-25.55,6.57"/><path class="cls-13" d="M11.64,26.82s-6.26,4.42-4.19,8.88c2.07,4.46,3.85,1.08,3.85,1.08,0,0,1.73,.81-.22-4.6-.92-2.55,.56-5.36,.56-5.36"/><path class="cls-24" d="M2.31,19.66s-4.92,4.31-.32,11.97c4.61,7.66,3.21,11.14,3.21,11.14,0,0,9.56-10.73-2.89-23.11"/><path class="cls-26" d="M6.95,40.79c2.53,.91,1.36-6.89-2.22-9.78-3.58-2.89-7.04-3.63-8.91-6.18,0,0-1.35,11.47,11.13,15.96"/><g class="cls-30"><rect class="cls-33" x="14.47" y="17.79" width="24.55" height="24.55"/></g><path class="cls-29" d="M47.76,39.47c-.13-.18-.34-.29-.58-.29-.33,0-.61,.21-.71,.5-.02,.07-.04,.15-.04,.23,0,.09,.01,.18,.05,.26,.05,.13,.13,.25,.24,.33,.11,.08,.24,.14,.38,.15,.02,0,.04,0,.06,0,.01,0,.02,0,.04,0h.01c.07,0,.15-.02,.21-.04,.28-.1,.48-.37,.49-.68,0-.17-.05-.33-.15-.45m-.4,.96h0s-.1,.03-.16,.03c-.01,0-.02,0-.04,0-.05,0-.1,0-.15-.02-.07-.02-.13-.05-.18-.09-.02-.01-.04-.03-.06-.05-.1-.1-.16-.24-.16-.4,0-.04,0-.08,.01-.12,0-.02,0-.04,.01-.05,.07-.22,.29-.38,.53-.38,.18,0,.33,.09,.43,.22,.07,.1,.12,.21,.11,.34,0,.24-.15,.44-.36,.51Z"/><path class="cls-13" d="M40.53,26.41s-3.64,3.47-1.87,6.17c1.77,2.7,2.6,.34,2.6,.34,0,0,1.2,.36-.58-2.97-.84-1.57-.15-3.54-.15-3.54"/><path class="cls-21" d="M46.23,27.4s1.75-5.14-1.59-6.73c-3.34-1.59-6.18,.71-6.72,1.96-.54,1.25-.39,3.51,.06,5.09,.46,1.58,.39,3.99-.6,4.79-.99,.8-2.23,2.14-2.17,4.86,.04,1.69,6.64-4.32,6.64-4.32l4.38-5.65Z"/><path class="cls-10" d="M41.53,33.51s-2.75,.61-3.84,1.25c-1.09,.64-3.51,3.57-3.51,4.83s10.6,2.44,10.6,2.44l2.01,7.33s5.36-1.31,5.99-2.39c.64-1.08-2.03-8.85-2.49-10.43-.47-1.6-2.39-2.72-4.62-3.04-2.23-.31-4.13,0-4.13,0"/><path class="cls-7" d="M45.47,33.49s-.06,3.34-2.71,3.44c-2.65,.1-2.1-3.2-2.1-3.2,0,0,1.94-.79,4.81-.24"/><path class="cls-21" d="M46.59,23.4s.94,5.37-1.73,9.26c-2.76,4.02,1.73-9.26,1.73-9.26"/><path class="cls-7" d="M44.9,31.12s-.18,1.6,.12,2.59c.31,.99-4.05,1.02-4.05,.2,0-.93,.45-1.7,.03-3.3-.42-1.59,3.9,.5,3.9,.5"/><path class="cls-15" d="M41.52,31.33s1.38,1.43,3.14,.15c0,0-.15,.92-1.41,1.03-1.27,.12-1.73-1.18-1.73-1.18"/><path class="cls-7" d="M43.25,21.54s3.48,1.03,2.98,5.86c-.5,4.83-2.77,4.58-2.98,4.61-.21,.04-2.91,.21-3.76-5.64-.85-5.86,3.76-4.83,3.76-4.83"/><path class="cls-21" d="M42.35,23.69s1.89,3.01,3.88,3.7c0,0,1.09-5.05-3.4-6.1-4.49-1.06-3.78,5.1-3.45,6.74,0,0,.93-2.41,2.97-4.34"/><path class="cls-25" d="M39.81,23.24s1-1.93,2.67-2.01c1.68-.09,2.68,1.37,2.68,1.37,0,0-.66-1.64-2.68-1.64s-2.68,2.28-2.68,2.28"/><polygon class="cls-27" points="46.65 38.39 47.83 49.36 32.31 49.36 31.13 38.39 46.65 38.39"/><path class="cls-27" d="M47.46,48.99h-15.66l-1.19-11.1h15.66l1.19,11.1Zm-15.54-.14h15.39l-1.16-10.83h-15.39l1.17,10.83Z"/><path class="cls-28" d="M40.44,43.7c.14,.68-.18,1.32-.71,1.43-.53,.11-1.08-.36-1.22-1.04s.18-1.32,.71-1.43c.53-.11,1.08,.36,1.22,1.04"/><rect class="cls-27" x="46.36" y="48.26" width="2.9" height="1.1"/><path class="cls-23" d="M43.89,25.85c.12-.1,.25-.14,.38-.14,.14,0,.28,.01,.41,.06,.13,.04,.26,.12,.36,.21,.11,.09,.18,.2,.25,.31,.03,.06,.01,.13-.05,.16-.05,.03-.1,.02-.14-.02h-.01c-.08-.08-.16-.15-.24-.2-.08-.06-.18-.09-.27-.11-.09-.02-.19-.03-.29-.03-.1,0-.2,0-.31-.02h-.03c-.07-.02-.11-.09-.09-.16,0-.03,.02-.05,.04-.06"/><path class="cls-18" d="M20.33,36.46c.11-1.5,.19-2.91,.23-4.22-.36-.19-.8-.42-1.15-.58-1.08-.51-2.58-1.21-3.55-1.65-.57-.26-1.12-.45-1.12-.45,0,0-3.86-.37-4.17-.35-.1,0-.58,.17-1.21,.42-1.37,.52-4.01,1.58-4.43,1.88-.62,.44-2.82,11.24-2.88,11.98-.06,.71,3,1.69,5.83,2.43,0,1.09-.02,2.63-.05,4.03,0,.24,0,.47-.01,.7h12.38c-.02-.24-.03-.48-.04-.7,0-.03,0-.06,0-.09-.05-.95-.23-2.65-.18-4.3,0,0-.03-1.74,.14-2.49,.02-3.32,.22-6.6,.22-6.6m-15.69,6.35c.02-1.41,1.89-4.02,1.89-4.02,0,0,.09-.04,.09-.03,0,0,.1-.01,.1-.01,0,0,.29-.28,.29-.28,.07,.25,.69,3.78,.84,5.84-1.76-.35-3.22-.83-3.21-1.5Z"/><path class="cls-12" d="M20.56,49.94c-.08-.59-.16-1.17-.23-1.74,0,0,0,0,0,0-.02-.19-.05-.38-.07-.57,0,0,0-.02,0-.03-.09-.79-.17-1.55-.22-2.24-.04-.53,0-1.05,.07-1.56,.22-3.55,.32-7.28,.32-7.28,.11-1.53,.18-2.96,.22-4.29,0,0-4.84-2.29-5.28-2.42,0,0,.92,2.16,1.61,6.98,.26,1.85,.76,4.97,1.11,8.15h0c.19,1.72,.55,3.47,.83,5.01,.04,.24,.08,.47,.12,.7h1.62c-.03-.23-.07-.47-.1-.7"/><path class="cls-12" d="M12.5,44.25c.19-1.79,.36-3.58,.28-4.56-.67-7.88-2.56-9.97-2.83-10.27-.21,.08-1.02,.38-1.25,.48-1.29,.51-3.93,1.44-4.28,1.7-.62,.44-3.04,11.76-3.12,12.5-.05,.5,3.12,1.53,6.35,2.45-.03,.89,.05,2.14-.24,3.44-.05,.23-.13,.38-.14,.68l4.51-.02c.03-.23,.06-.47,.08-.7,.09-.7,.18-1.43,.26-2.19,1.35,.35,2.27,.58,2.27,.58,0,0,1.27-2.15,1.64-3.02,.06-.15-1.57-.54-3.53-1.06m-5.83-2.71c-.04-1.61-.04-2.74-.04-2.74,.16,.55,.38,2.13,.58,3.7-.65-.33-.53-.64-.54-.96Z"/><path class="cls-8" d="M10.38,29.33s.49-.93,.36-3.56c-.04-.73,3.83,1.73,3.83,1.73,0,0-.01,.25-.02,.59,0,.14,0,.3,0,.46,0,.04,0,.09,0,.13,0,.07,0,.14,0,.21,0,.09,0,.17,0,.26,0,.09,.01,.18,.02,.27,.02,.16,.11,.44,.14,.52,.18,.41-2.88,.43-4.33-.6"/><g class="cls-31"><path class="cls-4" d="M12.45,25.53c-.04,.47,.32,.89,.79,.92,.47,.04,.89-.32,.92-.79,.04-.47-.32-.89-.79-.92-.47-.04-.89,.32-.92,.79"/></g><path class="cls-11" d="M13.62,31.01l.71,.96s-.42,.56-1.16,.15l.45-1.1Z"/><path class="cls-11" d="M14.14,32s2.61,6.38,2.05,14.48l-.82,1.49-.93-1.27s-.15-10.76-.89-14.73l.59,.03Z"/><path class="cls-8" d="M14.38,30.11l-.76,.89s-1.22-.24-1.58-.88c-.36-.64,2.35-.02,2.35-.02"/><path class="cls-17" d="M14.56,29.33s-.09,.68-.94,1.67l.93,1.25,.5-2.58-.49-.34Z"/><path class="cls-17" d="M10.61,28.51s1.77,2,3.01,2.49l-.58,1.42-2.83-3.12,.39-.8Z"/><path class="cls-12" d="M28.82,46.64s-2.35-2.28-3.89-2.66c-.71-.18-1.65-1.16-2.54-2.32-.29-.38-.58-.78-.86-1.18,0,0,0,0,0,0-1.09-1.58-1.95-3.1-1.95-3.1,0,0-3.24-3.79-.64-5.48,0,0,1.11-.02,1.72,.31,.63,.34,1.97,3.13,2.19,3.63,.23,.49,2.69,5.09,2.85,5.19,.16,.1,.44,.48,1.42,1.01,1.2,.65,3.1,2.55,3.1,2.55l-1.4,2.04Z"/><path class="cls-5" d="M17.53,49.28s-.33-.01-.47-.09c0,0-.25-.16-.43-.26-.06-.03-.11-.06-.14-.07-.15-.06-.48-.14-.79-.38-.31-.24-1.32-1.18-1.32-1.18l.65-1,.3-.99s2.35,.23,2.66,.42c.03,.02,.06,.04,.09,.06,.25,.18,.36,.43,.48,.54,.04,.04,.45,.48,.43,.66-.03,.25-.15,.4-.31,.48,0,0-.08,.48-.33,.69,0,0-.06,.45-.45,.62,0,0-.11,.44-.38,.5"/><path class="cls-7" d="M13.79,18.98s4.25-1.02,3.35,4.35c-.89,5.38-1.91,5.81-4.5,4.74-2.59-1.07-2.41-4.51-2.56-6.19-.15-1.68,2.35-2.82,3.71-2.9"/><g class="cls-32"><path class="cls-4" d="M12.45,25.53c-.04,.47,.32,.89,.79,.92,.47,.04,.89-.32,.92-.79,.04-.47-.32-.89-.79-.92-.47-.04-.89,.32-.92,.79"/><path class="cls-4" d="M15.76,25.52c-.04,.47,.32,.89,.79,.92,.47,.04,.89-.32,.92-.79,.03-.47-.32-.89-.8-.92-.47-.04-.89,.32-.92,.79"/></g><path class="cls-7" d="M11.56,22.71c-.06-.47-1-.63-1.07,.08-.06,.71,.45,1.95,.81,1.82,.35-.13,.35-1.25,.26-1.9"/><path class="cls-20" d="M10.33,24.63s.09-1.69,.7-1.75c.62-.06,.72,.62,.72,.62l.62,.11s-.22-1.48,.39-1.75c.61-.27,4,.76,4.49,.31,.49-.44,.21-3.44-.69-3.84-.9-.4-3.38-1.28-5.18-.03,0,0-1.41-.14-1.61,1-.19,1.14,.14,4.49,.54,5.33"/><path class="cls-12" d="M16.14,45.31l-1.75,3.01s-4.65-1.2-5.73-1.5l2.48-2.95s3.65,.83,5.01,1.44"/><path class="cls-15" d="M14.55,29.15h0c-2.28-.23-3.16-1.99-3.16-1.99,1.43,1.42,3.15,1.38,3.15,1.38,0,.04,0,.09,0,.13,0,.07,0,.14,0,.21,0,.09,0,.17,0,.26"/><path class="cls-7" d="M19.44,42.83c2.64,2.72,6.13,6.14,6.13,6.14l1.36-2.59s-3.1-3.63-5.2-6.06c-.64,.32-1.83,1.07-2.29,2.5"/><path class="cls-7" d="M17.8,46.49s.71,.34,.9,.5c.19,.15,.94,.72,1.12,.85,.18,.13-.28,.51-1.62-.07-1.34-.58-.4-1.27-.4-1.27"/><polygon class="cls-9" points="17.87 38.71 16.63 50.23 32.93 50.23 34.17 38.71 17.87 38.71"/><path class="cls-9" d="M33.87,49.69H17.43l1.25-11.65h16.43l-1.25,11.65Zm-16.29-.13h16.18l1.23-11.39H18.8l-1.23,11.39Z"/><path class="cls-14" d="M24.5,44.28c-.13,.64,.17,1.24,.67,1.35,.5,.1,1.01-.33,1.14-.98,.13-.64-.17-1.24-.67-1.35-.5-.1-1.01,.33-1.14,.98"/><path class="cls-23" d="M14.88,25.38s.14-.04,.38-.08c.06,0,.12-.02,.13-.06,.01-.04-.01-.11-.05-.18-.06-.14-.12-.3-.19-.45-.26-.65-.46-1.18-.43-1.19,.03-.01,.26,.5,.53,1.15,.06,.16,.12,.31,.18,.46,.02,.07,.07,.14,.04,.24-.01,.05-.06,.08-.1,.09-.04,.01-.07,.01-.1,.02-.24,.02-.39,.02-.39,.01"/><path class="cls-23" d="M41.93,25.61c-.12-.1-.25-.14-.38-.14-.14,0-.28,.01-.41,.06-.13,.04-.26,.12-.36,.21-.11,.09-.18,.2-.25,.31-.03,.06-.01,.13,.05,.16,.05,.03,.1,.02,.14-.02h0c.08-.08,.16-.15,.24-.2,.08-.06,.18-.09,.27-.11,.09-.02,.19-.03,.29-.03,.1,0,.2,0,.31-.02h.03c.07-.02,.11-.09,.09-.16,0-.03-.02-.05-.04-.06"/><path class="cls-16" d="M44,28.77c0,.47,.38,.84,.84,.84s.85-.38,.85-.84-.38-.85-.85-.85-.84,.38-.84,.85"/><path class="cls-16" d="M40.4,28.77c0,.47,.38,.84,.84,.84s.84-.38,.84-.84-.38-.85-.84-.85-.84,.38-.84,.85"/><path class="cls-6" d="M14.37,26.16s.56,.37,1.26,.09c0,0-.64,1.26-1.26-.09"/><path class="cls-23" d="M13.4,24.23c-.02,.21,.05,.38,.16,.39,.1,0,.2-.16,.21-.36,.02-.21-.05-.38-.16-.39-.1,0-.2,.16-.21,.36"/><path class="cls-23" d="M15.57,24.28c-.02,.21,.06,.38,.16,.39,.1,0,.2-.16,.21-.36,.02-.21-.05-.38-.16-.39-.1,0-.2,.16-.21,.36"/><path class="cls-23" d="M15.11,22.7c.08-.1,.19-.15,.3-.18,.11-.02,.23-.03,.35-.01,.12,.01,.23,.06,.33,.12,.1,.06,.18,.14,.25,.23,.03,.04,.03,.11-.02,.14-.03,.03-.08,.03-.12,0h0c-.08-.06-.15-.1-.23-.13-.08-.03-.16-.05-.24-.05-.08,0-.17,0-.25,.02-.08,.02-.17,.04-.26,.03h-.03c-.06,0-.1-.06-.1-.11,0-.02,0-.04,.02-.06"/><path class="cls-23" d="M14.1,22.7c-.08-.1-.18-.15-.3-.18-.11-.02-.23-.03-.35-.02-.12,.01-.23,.06-.33,.12-.1,.06-.19,.14-.26,.22-.04,.04-.03,.11,.01,.14,.03,.03,.08,.03,.12,0h0c.08-.06,.15-.1,.24-.13,.08-.03,.16-.04,.24-.05,.08,0,.17,0,.25,.02,.08,.02,.17,.04,.26,.03h.03c.06,0,.1-.05,.1-.11,0-.02,0-.04-.02-.06"/><path class="cls-23" d="M44.09,27.13c0,.28,.11,.51,.25,.51s.25-.23,.25-.51-.11-.51-.25-.51-.25,.23-.25,.51"/><path class="cls-19" d="M44.85,26.46c-.04,.08-.1,.15-.17,.22-.07,.06-.16,.11-.26,.13h0s-.1-.02-.11-.07c-.01-.05,.02-.1,.07-.11,0,0,.02,0,.02,0,.14,0,.29-.08,.4-.2h0s.03-.02,.04,0c.01,0,.01,.02,0,.04"/><path class="cls-23" d="M41.72,27.13c0,.28-.11,.51-.25,.51s-.25-.23-.25-.51,.11-.51,.25-.51,.25,.23,.25,.51"/><path class="cls-19" d="M41.02,26.43c.1,.12,.26,.21,.4,.2,.05,0,.09,.04,.1,.09,0,.05-.04,.09-.09,.1,0,0-.02,0-.02,0h0c-.1-.02-.19-.07-.26-.14-.07-.06-.13-.13-.17-.22,0-.01,0-.03,.01-.04,.01,0,.03,0,.04,0h0Z"/><path class="cls-23" d="M43.96,29.62c-.09,.17-.22,.31-.37,.42-.16,.11-.35,.19-.55,.18-.2,0-.4-.07-.55-.19-.08-.05-.14-.13-.21-.19-.06-.08-.11-.15-.17-.23,.08,.06,.15,.12,.22,.17,.08,.05,.15,.11,.23,.15,.15,.09,.32,.14,.49,.14,.17,0,.34-.05,.49-.13,.15-.09,.3-.2,.43-.33"/><path class="cls-23" d="M43.09,27.08c.04,.19,.08,.38,.11,.57,.04,.19,.07,.37,.12,.55,.01,.04,.03,.09,.04,.13,.01,.03,.04,.1,.04,.16,0,.13-.07,.25-.18,.3-.11,.06-.23,.05-.32,.02-.1-.04-.18-.09-.26-.15,.18,.07,.39,.12,.51,.02,.06-.05,.1-.11,.09-.18,0-.04-.01-.06-.04-.11-.02-.05-.04-.1-.05-.14-.05-.19-.08-.39-.09-.58-.01-.19,0-.39,.02-.58"/></g><g><path class="cls-22" d="M10.64,11.82l.52-4.87h.93l.52,4.87v.22h-1.96v-.22Zm.09-7.49h1.77v1.76h-1.77v-1.76Z"/><path class="cls-22" d="M14.33,4.33h1.7v3.05h3.13v-3.05h1.7v7.71h-1.7v-3.1h-3.13v3.1h-1.7V4.33Z"/><path class="cls-22" d="M25.42,12.17c-.46,0-.88-.08-1.27-.24-.39-.16-.73-.38-1.01-.65s-.5-.6-.67-.97c-.16-.37-.24-.77-.24-1.2v-.02c0-.43,.08-.82,.24-1.2s.39-.7,.67-.98c.29-.28,.62-.5,1.01-.66,.39-.16,.81-.24,1.28-.24s.88,.08,1.27,.24c.39,.16,.73,.37,1.01,.65,.28,.28,.5,.6,.67,.97s.24,.77,.24,1.2v.02c0,.43-.08,.82-.24,1.2-.16,.37-.39,.7-.67,.98-.29,.28-.62,.5-1.01,.66-.39,.16-.81,.24-1.28,.24Zm.02-1.44c.24,0,.46-.04,.64-.13,.19-.08,.35-.2,.48-.35,.13-.15,.23-.32,.3-.51,.07-.19,.1-.4,.1-.62v-.02c0-.22-.04-.43-.11-.62-.07-.19-.18-.37-.32-.52-.14-.15-.31-.27-.5-.36-.19-.09-.4-.13-.63-.13-.24,0-.46,.04-.64,.13s-.35,.2-.48,.35c-.13,.15-.23,.32-.3,.51-.07,.19-.1,.4-.1,.62v.02c0,.22,.04,.43,.11,.62,.07,.19,.18,.37,.32,.52,.14,.15,.3,.27,.49,.36,.19,.09,.4,.13,.63,.13Z"/><path class="cls-22" d="M29.92,4h1.67V12.04h-1.67V4Z"/><path class="cls-22" d="M34.84,12.15c-.28,0-.54-.04-.79-.12s-.46-.19-.64-.35-.33-.34-.44-.57c-.11-.22-.16-.48-.16-.78v-.02c0-.32,.06-.6,.18-.84,.12-.23,.28-.43,.49-.58,.21-.15,.46-.27,.75-.35,.29-.08,.61-.12,.96-.12,.3,0,.56,.02,.79,.07,.22,.04,.44,.1,.66,.18v-.1c0-.35-.11-.62-.32-.8-.21-.18-.53-.28-.95-.28-.32,0-.61,.03-.85,.08-.25,.05-.51,.13-.78,.24l-.42-1.28c.32-.14,.66-.25,1.01-.34,.35-.09,.78-.13,1.28-.13,.46,0,.86,.06,1.18,.17,.33,.11,.6,.28,.81,.49s.38,.49,.48,.81c.1,.32,.15,.68,.15,1.07v3.43h-1.62v-.64c-.21,.23-.45,.41-.74,.55s-.64,.2-1.05,.2Zm.51-1.16c.4,0,.71-.1,.95-.29s.36-.44,.36-.75v-.3c-.15-.07-.31-.12-.49-.16-.18-.04-.37-.06-.58-.06-.36,0-.64,.07-.85,.21-.21,.14-.31,.34-.31,.61v.02c0,.23,.08,.4,.25,.53s.39,.19,.66,.19Z"/><path class="cls-22" d="M45.82,4.27h1.56l3.31,7.77h-1.77l-.71-1.73h-3.26l-.71,1.73h-1.73l3.31-7.77Zm1.79,4.54l-1.02-2.5-1.02,2.5h2.05Z"/><path class="cls-22" d="M54.12,12.15c-.35,0-.68-.07-1-.2-.32-.13-.61-.33-.86-.59s-.45-.58-.6-.96c-.15-.38-.23-.81-.23-1.31v-.02c0-.49,.08-.93,.23-1.31,.15-.38,.35-.7,.6-.96s.53-.46,.85-.59c.32-.13,.66-.2,1.01-.2,.45,0,.82,.09,1.11,.26,.29,.18,.53,.38,.73,.62V4h1.67V12.04h-1.67v-.85c-.21,.28-.45,.51-.74,.69-.29,.18-.66,.27-1.1,.27Zm.43-1.42c.2,0,.38-.04,.56-.12,.17-.08,.32-.19,.45-.33s.23-.32,.31-.52c.08-.2,.12-.42,.12-.67v-.02c0-.24-.04-.46-.12-.67s-.18-.37-.31-.52c-.13-.14-.28-.25-.45-.33-.17-.08-.36-.12-.56-.12s-.38,.04-.56,.12-.32,.19-.46,.33c-.13,.14-.24,.31-.31,.51-.08,.2-.12,.42-.12,.67v.02c0,.24,.04,.46,.12,.67,.08,.2,.18,.38,.31,.52s.28,.25,.46,.33,.36,.12,.56,.12Z"/><path class="cls-22" d="M59.14,6.14h1.67v.84c.1-.13,.2-.25,.31-.36,.11-.11,.24-.22,.38-.31,.14-.09,.3-.16,.47-.21,.17-.05,.37-.08,.58-.08,.39,0,.73,.08,1.01,.24,.28,.16,.5,.4,.66,.7,.26-.31,.54-.55,.86-.7,.32-.16,.68-.24,1.08-.24,.62,0,1.11,.18,1.47,.55s.53,.91,.53,1.62v3.85h-1.67v-3.29c0-.4-.08-.69-.25-.9-.17-.2-.41-.3-.73-.3s-.56,.1-.74,.3c-.18,.2-.27,.5-.27,.9v3.29h-1.67v-3.29c0-.4-.08-.69-.25-.9-.17-.2-.41-.3-.73-.3s-.56,.1-.74,.3c-.18,.2-.27,.5-.27,.9v3.29h-1.67V6.14Z"/><path class="cls-22" d="M69.64,4h1.76v1.49h-1.76v-1.49Zm.04,2.14h1.67v5.91h-1.67V6.14Z"/><path class="cls-22" d="M72.93,6.14h1.67v.84c.1-.13,.2-.25,.31-.36,.11-.11,.24-.22,.38-.31,.14-.09,.29-.16,.46-.21,.17-.05,.36-.08,.57-.08,.64,0,1.13,.19,1.48,.58,.35,.39,.52,.93,.52,1.61v3.82h-1.67v-3.29c0-.4-.09-.69-.26-.9-.18-.2-.43-.3-.75-.3s-.58,.1-.77,.3c-.19,.2-.28,.5-.28,.9v3.29h-1.67V6.14Z"/><path class="cls-22" d="M79.83,4h1.76v1.49h-1.76v-1.49Zm.04,2.14h1.67v5.91h-1.67V6.14Z"/><path class="cls-22" d="M85.19,12.15c-.42,0-.85-.07-1.28-.21-.44-.14-.85-.37-1.25-.68l.72-1.1c.32,.24,.64,.41,.96,.53,.32,.12,.62,.18,.9,.18,.24,0,.42-.04,.53-.12,.11-.08,.17-.19,.17-.32v-.02c0-.09-.03-.17-.1-.23-.07-.07-.16-.12-.27-.17-.11-.05-.24-.09-.39-.14-.15-.04-.3-.09-.46-.14-.21-.06-.41-.13-.62-.21-.21-.08-.4-.19-.57-.33s-.31-.3-.41-.5-.16-.44-.16-.73v-.02c0-.3,.06-.57,.17-.8,.11-.23,.27-.43,.46-.59,.2-.16,.42-.28,.68-.36,.26-.08,.54-.12,.84-.12,.38,0,.75,.06,1.14,.18s.74,.29,1.06,.5l-.64,1.16c-.29-.17-.58-.3-.86-.4-.28-.1-.53-.15-.74-.15s-.36,.04-.46,.12c-.1,.08-.15,.17-.15,.29v.02c0,.08,.03,.15,.1,.21s.15,.12,.26,.18,.24,.11,.38,.16,.3,.1,.46,.15c.21,.07,.42,.15,.63,.24s.4,.2,.57,.34c.17,.13,.31,.29,.42,.48,.11,.19,.17,.42,.17,.69v.02c0,.33-.06,.62-.17,.85s-.27,.44-.48,.59c-.21,.15-.45,.27-.72,.35s-.57,.12-.89,.12Z"/><path class="cls-22" d="M90.65,12.14c-.26,0-.49-.03-.7-.08-.21-.06-.39-.15-.54-.29s-.27-.32-.35-.55c-.08-.22-.13-.51-.13-.85v-2.8h-.71v-1.43h.71v-1.51h1.67v1.51h1.39v1.43h-1.39v2.53c0,.38,.18,.58,.54,.58,.29,0,.57-.07,.83-.22v1.34c-.18,.1-.37,.19-.58,.25-.21,.06-.46,.09-.74,.09Z"/><path class="cls-22" d="M93.23,6.14h1.67v1.19c.17-.4,.4-.73,.69-.97,.29-.24,.69-.35,1.19-.33v1.75h-.09c-.56,0-1,.17-1.32,.51-.32,.34-.48,.86-.48,1.58v2.18h-1.67V6.14Z"/><path class="cls-22" d="M99.51,12.15c-.28,0-.54-.04-.79-.12s-.46-.19-.64-.35-.33-.34-.43-.57c-.11-.22-.16-.48-.16-.78v-.02c0-.32,.06-.6,.18-.84,.12-.23,.28-.43,.49-.58,.21-.15,.46-.27,.75-.35,.29-.08,.61-.12,.96-.12,.3,0,.56,.02,.79,.07,.22,.04,.44,.1,.66,.18v-.1c0-.35-.11-.62-.32-.8-.21-.18-.53-.28-.95-.28-.32,0-.61,.03-.85,.08-.25,.05-.5,.13-.78,.24l-.42-1.28c.32-.14,.66-.25,1.01-.34,.35-.09,.78-.13,1.28-.13,.46,0,.86,.06,1.18,.17,.33,.11,.6,.28,.81,.49,.22,.22,.38,.49,.48,.81,.1,.32,.15,.68,.15,1.07v3.43h-1.62v-.64c-.21,.23-.45,.41-.74,.55-.29,.14-.64,.2-1.05,.2Zm.51-1.16c.4,0,.71-.1,.95-.29,.24-.19,.36-.44,.36-.75v-.3c-.15-.07-.31-.12-.49-.16-.18-.04-.37-.06-.58-.06-.36,0-.64,.07-.85,.21-.21,.14-.31,.34-.31,.61v.02c0,.23,.08,.4,.25,.53s.39,.19,.66,.19Z"/><path class="cls-22" d="M106.78,12.15c-.35,0-.68-.07-1-.2-.32-.13-.61-.33-.86-.59-.25-.26-.45-.58-.6-.96-.15-.38-.23-.81-.23-1.31v-.02c0-.49,.08-.93,.23-1.31,.15-.38,.35-.7,.6-.96s.53-.46,.85-.59,.66-.2,1.01-.2c.45,0,.82,.09,1.11,.26s.53,.38,.73,.62V4h1.67V12.04h-1.67v-.85c-.21,.28-.45,.51-.74,.69-.29,.18-.66,.27-1.1,.27Zm.43-1.42c.2,0,.38-.04,.56-.12s.32-.19,.45-.33c.13-.14,.23-.32,.31-.52,.08-.2,.12-.42,.12-.67v-.02c0-.24-.04-.46-.12-.67s-.18-.37-.31-.52c-.13-.14-.28-.25-.45-.33s-.36-.12-.56-.12-.38,.04-.56,.12c-.17,.08-.32,.19-.46,.33-.13,.14-.24,.31-.31,.51-.08,.2-.12,.42-.12,.67v.02c0,.24,.04,.46,.12,.67,.08,.2,.18,.38,.31,.52,.13,.14,.29,.25,.46,.33,.17,.08,.36,.12,.56,.12Z"/><path class="cls-22" d="M114.69,12.17c-.46,0-.88-.08-1.27-.24-.39-.16-.73-.38-1.01-.65-.28-.28-.5-.6-.67-.97-.16-.37-.24-.77-.24-1.2v-.02c0-.43,.08-.82,.24-1.2,.16-.37,.39-.7,.67-.98,.29-.28,.62-.5,1.01-.66,.39-.16,.81-.24,1.28-.24s.88,.08,1.27,.24c.39,.16,.72,.37,1.01,.65s.5,.6,.67,.97c.16,.37,.24,.77,.24,1.2v.02c0,.43-.08,.82-.24,1.2-.16,.37-.39,.7-.67,.98-.29,.28-.62,.5-1.01,.66-.39,.16-.81,.24-1.28,.24Zm.02-1.44c.24,0,.46-.04,.64-.13,.19-.08,.35-.2,.48-.35,.13-.15,.23-.32,.3-.51,.07-.19,.11-.4,.11-.62v-.02c0-.22-.04-.43-.11-.62-.07-.19-.18-.37-.32-.52-.14-.15-.31-.27-.5-.36-.19-.09-.4-.13-.63-.13-.24,0-.46,.04-.64,.13s-.35,.2-.48,.35-.23,.32-.3,.51c-.07,.19-.11,.4-.11,.62v.02c0,.22,.04,.43,.11,.62,.07,.19,.18,.37,.32,.52,.14,.15,.3,.27,.49,.36,.19,.09,.4,.13,.63,.13Z"/><path class="cls-22" d="M119.11,6.14h1.67v1.19c.17-.4,.4-.73,.69-.97,.29-.24,.69-.35,1.19-.33v1.75h-.09c-.56,0-1,.17-1.32,.51-.32,.34-.48,.86-.48,1.58v2.18h-1.67V6.14Z"/><path class="cls-22" d="M123.77,4.55v-.22h1.96v.22l-.52,4.87h-.92l-.52-4.87Zm.09,5.73h1.77v1.76h-1.77v-1.76Z"/></g><g><path class="cls-22" d="M65.43,33.18v-3.16h1.82v.34h-1.42v.99h1.2v.34h-1.2v1.14h1.47v.34h-1.87Z"/><path class="cls-22" d="M68.54,33.24c-.17,0-.33-.03-.48-.09-.15-.06-.28-.14-.39-.23l.2-.26c.1,.08,.21,.15,.32,.2s.23,.08,.37,.08c.15,0,.27-.04,.35-.11,.08-.07,.12-.16,.12-.26,0-.06-.02-.11-.05-.16s-.07-.08-.12-.12c-.05-.03-.11-.06-.17-.09-.06-.03-.13-.05-.19-.08-.08-.03-.17-.06-.25-.1-.08-.04-.16-.08-.22-.13-.07-.05-.12-.11-.16-.18-.04-.07-.06-.16-.06-.26,0-.09,.02-.18,.06-.26s.09-.15,.16-.21c.07-.06,.15-.11,.25-.14,.1-.03,.21-.05,.34-.05,.15,0,.28,.03,.41,.08,.12,.05,.23,.11,.32,.19l-.19,.25c-.08-.06-.16-.11-.25-.15-.09-.04-.18-.06-.28-.06-.15,0-.26,.03-.33,.1-.07,.07-.1,.15-.1,.24,0,.05,.01,.1,.04,.14,.03,.04,.07,.08,.12,.11,.05,.03,.1,.06,.17,.08,.06,.02,.13,.05,.19,.08,.08,.03,.17,.07,.25,.1s.16,.08,.23,.13c.07,.05,.12,.12,.17,.19s.07,.17,.07,.28c0,.1-.02,.19-.06,.27-.04,.08-.09,.16-.16,.22-.07,.06-.16,.12-.27,.15-.11,.04-.23,.06-.37,.06Z"/><path class="cls-22" d="M69.95,34.16v-3.32h.33l.03,.27h.01c.11-.09,.22-.17,.35-.23,.13-.06,.26-.1,.4-.1,.15,0,.28,.03,.4,.08,.12,.06,.21,.14,.29,.24,.08,.1,.14,.23,.18,.38,.04,.15,.06,.31,.06,.49,0,.2-.03,.38-.08,.53-.05,.16-.13,.29-.22,.4-.09,.11-.2,.19-.32,.25-.12,.06-.25,.08-.38,.08-.11,0-.22-.02-.32-.07s-.22-.11-.33-.2v.41s0,.79,0,.79h-.39Zm.97-1.26c.1,0,.19-.02,.27-.06,.08-.04,.15-.1,.21-.18,.06-.08,.11-.17,.14-.29,.03-.12,.05-.25,.05-.39,0-.13-.01-.25-.03-.35-.02-.11-.06-.2-.11-.27-.05-.08-.11-.13-.19-.17-.08-.04-.17-.06-.28-.06-.1,0-.2,.03-.3,.08-.1,.05-.21,.13-.32,.24v1.23c.11,.09,.21,.15,.31,.19,.1,.04,.19,.05,.26,.05Z"/></g><g><path class="cls-22" d="M73.09,33.24c-.2,0-.36-.06-.49-.17s-.2-.28-.2-.49c0-.26,.11-.45,.34-.59,.23-.14,.59-.23,1.09-.29,0-.07,0-.15-.02-.22s-.04-.13-.07-.19-.08-.1-.15-.13c-.06-.03-.14-.05-.24-.05-.13,0-.26,.03-.38,.08-.12,.05-.22,.11-.32,.17l-.15-.27c.11-.07,.24-.14,.4-.2,.16-.07,.33-.1,.52-.1,.29,0,.49,.09,.62,.26s.19,.41,.19,.7v1.43h-.33l-.03-.28h-.01c-.11,.09-.23,.17-.36,.24-.13,.07-.27,.1-.41,.1Zm.12-.32c.11,0,.22-.03,.32-.08,.1-.05,.21-.13,.32-.23v-.65c-.2,.03-.36,.06-.49,.09-.13,.04-.24,.08-.32,.12-.08,.05-.14,.1-.18,.17s-.06,.13-.06,.21c0,.13,.04,.23,.12,.29,.08,.06,.18,.09,.29,.09Z"/><path class="cls-22" d="M75.9,33.24c-.15,0-.3-.03-.43-.08-.13-.05-.25-.13-.35-.24-.1-.1-.17-.23-.23-.39-.06-.15-.08-.32-.08-.52s.03-.37,.09-.52c.06-.15,.14-.28,.25-.39,.1-.11,.22-.19,.36-.24,.14-.05,.28-.08,.43-.08s.29,.03,.39,.08c.11,.05,.21,.12,.29,.19l-.2,.26c-.07-.06-.14-.11-.21-.15-.08-.04-.16-.06-.25-.06-.11,0-.2,.02-.29,.06s-.17,.11-.23,.19-.11,.18-.15,.29-.06,.23-.06,.37,.02,.26,.05,.37c.04,.11,.08,.2,.15,.28,.06,.08,.14,.14,.23,.18,.09,.04,.19,.06,.29,.06s.21-.02,.3-.07c.09-.05,.17-.1,.25-.17l.17,.26c-.11,.09-.22,.17-.35,.22-.13,.05-.26,.08-.4,.08Z"/><path class="cls-22" d="M77.37,30.36c-.08,0-.14-.02-.2-.07-.05-.05-.08-.11-.08-.18s.03-.14,.08-.19c.05-.05,.12-.07,.2-.07s.14,.02,.19,.07c.05,.05,.08,.11,.08,.19s-.03,.13-.08,.18c-.05,.05-.12,.07-.19,.07Zm-.2,2.82v-2.34h.39v2.34h-.39Z"/><path class="cls-22" d="M79.26,33.24c-.14,0-.28-.03-.41-.08-.13-.05-.25-.13-.34-.24-.1-.1-.18-.23-.24-.39-.06-.15-.09-.32-.09-.52s.03-.37,.09-.52c.06-.15,.14-.28,.24-.39,.1-.11,.21-.19,.34-.24,.13-.05,.27-.08,.41-.08s.28,.03,.41,.08c.13,.05,.25,.13,.34,.24,.1,.11,.18,.23,.24,.39,.06,.15,.09,.33,.09,.52s-.03,.36-.09,.52c-.06,.15-.14,.28-.24,.39-.1,.1-.21,.18-.34,.24-.13,.05-.27,.08-.41,.08Zm0-.33c.1,0,.19-.02,.27-.06,.08-.04,.15-.1,.21-.18,.06-.08,.11-.17,.14-.28,.03-.11,.05-.23,.05-.37s-.02-.26-.05-.37c-.03-.11-.08-.21-.14-.29s-.13-.14-.21-.19c-.08-.04-.17-.06-.27-.06s-.19,.02-.27,.06c-.08,.04-.15,.11-.21,.19s-.11,.18-.14,.29c-.03,.11-.05,.23-.05,.37s.02,.26,.05,.37c.03,.11,.08,.2,.14,.28,.06,.08,.13,.14,.21,.18,.08,.04,.17,.06,.27,.06Z"/><path class="cls-22" d="M81.92,34.16v-3.32h.33l.03,.27h.01c.11-.09,.22-.17,.35-.23,.13-.06,.26-.1,.4-.1,.15,0,.28,.03,.4,.08,.12,.06,.21,.14,.29,.24,.08,.1,.14,.23,.18,.38,.04,.15,.06,.31,.06,.49,0,.2-.03,.38-.08,.53-.05,.16-.13,.29-.22,.4-.09,.11-.2,.19-.32,.25-.12,.06-.25,.08-.38,.08-.11,0-.22-.02-.32-.07s-.22-.11-.33-.2v.41s0,.79,0,.79h-.39Zm.97-1.26c.1,0,.19-.02,.27-.06,.08-.04,.15-.1,.21-.18,.06-.08,.11-.17,.14-.29,.03-.12,.05-.25,.05-.39,0-.13-.01-.25-.03-.35-.02-.11-.06-.2-.11-.27-.05-.08-.11-.13-.19-.17-.08-.04-.17-.06-.28-.06-.1,0-.2,.03-.3,.08-.1,.05-.21,.13-.32,.24v1.23c.11,.09,.21,.15,.31,.19,.1,.04,.19,.05,.26,.05Z"/></g><g><path class="cls-22" d="M85.06,33.24c-.2,0-.36-.06-.49-.17s-.2-.28-.2-.49c0-.26,.11-.45,.34-.59,.23-.14,.59-.23,1.09-.29,0-.07,0-.15-.02-.22s-.04-.13-.07-.19-.08-.1-.15-.13c-.06-.03-.14-.05-.24-.05-.13,0-.26,.03-.38,.08-.12,.05-.22,.11-.32,.17l-.15-.27c.11-.07,.24-.14,.4-.2,.16-.07,.33-.1,.52-.1,.29,0,.49,.09,.62,.26s.19,.41,.19,.7v1.43h-.33l-.03-.28h-.01c-.11,.09-.23,.17-.36,.24-.13,.07-.27,.1-.41,.1Zm.12-.32c.11,0,.22-.03,.32-.08,.1-.05,.21-.13,.32-.23v-.65c-.2,.03-.36,.06-.49,.09-.13,.04-.24,.08-.32,.12-.08,.05-.14,.1-.18,.17s-.06,.13-.06,.21c0,.13,.04,.23,.12,.29,.08,.06,.18,.09,.29,.09Z"/><path class="cls-22" d="M86.95,33.18v-2.34h.33l.03,.42h.01c.08-.15,.18-.26,.29-.35,.11-.09,.24-.13,.37-.13,.09,0,.18,.02,.25,.05l-.08,.35s-.07-.02-.11-.03-.07,0-.12,0c-.1,0-.2,.04-.31,.12s-.2,.22-.28,.42v1.5h-.39Z"/></g><g><path class="cls-22" d="M89.04,33.24c-.2,0-.36-.06-.49-.17s-.2-.28-.2-.49c0-.26,.11-.45,.34-.59,.23-.14,.59-.23,1.09-.29,0-.07,0-.15-.02-.22s-.04-.13-.07-.19-.08-.1-.15-.13c-.06-.03-.14-.05-.24-.05-.13,0-.26,.03-.38,.08-.12,.05-.22,.11-.32,.17l-.15-.27c.11-.07,.24-.14,.4-.2,.16-.07,.33-.1,.52-.1,.29,0,.49,.09,.62,.26s.19,.41,.19,.7v1.43h-.33l-.03-.28h-.01c-.11,.09-.23,.17-.36,.24-.13,.07-.27,.1-.41,.1Zm.12-.32c.11,0,.22-.03,.32-.08,.1-.05,.21-.13,.32-.23v-.65c-.2,.03-.36,.06-.49,.09-.13,.04-.24,.08-.32,.12-.08,.05-.14,.1-.18,.17s-.06,.13-.06,.21c0,.13,.04,.23,.12,.29,.08,.06,.18,.09,.29,.09Z"/><path class="cls-22" d="M92.81,33.24c-.15,0-.3-.03-.43-.08-.13-.05-.25-.13-.35-.24-.1-.1-.17-.23-.23-.39-.06-.15-.08-.32-.08-.52s.03-.37,.09-.52c.06-.15,.14-.28,.25-.39,.1-.11,.22-.19,.36-.24,.14-.05,.28-.08,.43-.08s.29,.03,.39,.08c.11,.05,.21,.12,.29,.19l-.2,.26c-.07-.06-.14-.11-.21-.15-.08-.04-.16-.06-.25-.06-.11,0-.2,.02-.29,.06s-.17,.11-.23,.19-.11,.18-.15,.29-.06,.23-.06,.37,.02,.26,.05,.37c.04,.11,.08,.2,.15,.28,.06,.08,.14,.14,.23,.18,.09,.04,.19,.06,.29,.06s.21-.02,.3-.07c.09-.05,.17-.1,.25-.17l.17,.26c-.11,.09-.22,.17-.35,.22-.13,.05-.26,.08-.4,.08Z"/><path class="cls-22" d="M94.08,33.18v-2.34h.33l.03,.42h.01c.08-.15,.18-.26,.29-.35,.11-.09,.24-.13,.37-.13,.09,0,.18,.02,.25,.05l-.08,.35s-.07-.02-.11-.03-.07,0-.12,0c-.1,0-.2,.04-.31,.12s-.2,.22-.28,.42v1.5h-.39Z"/><path class="cls-22" d="M96.7,33.24c-.16,0-.3-.03-.44-.08-.14-.06-.25-.14-.36-.24-.1-.1-.18-.23-.24-.38s-.09-.32-.09-.51,.03-.37,.09-.52c.06-.15,.14-.28,.24-.39,.1-.11,.21-.19,.33-.24,.12-.06,.25-.08,.39-.08,.15,0,.28,.03,.4,.08,.12,.05,.21,.12,.29,.22,.08,.1,.14,.21,.18,.35,.04,.13,.06,.29,.06,.45,0,.04,0,.08,0,.12,0,.04,0,.08-.01,.1h-1.58c.02,.25,.09,.45,.23,.59,.14,.15,.32,.22,.55,.22,.11,0,.22-.02,.31-.05,.09-.03,.18-.08,.27-.13l.14,.26c-.1,.06-.22,.12-.34,.17s-.27,.07-.43,.07Zm-.74-1.41h1.25c0-.24-.05-.42-.15-.54-.1-.12-.24-.18-.43-.18-.08,0-.16,.02-.24,.05-.08,.03-.14,.08-.21,.14-.06,.06-.11,.14-.15,.23s-.07,.19-.08,.31Z"/></g><g><path class="cls-22" d="M98.56,33.24c-.2,0-.36-.06-.49-.17s-.2-.28-.2-.49c0-.26,.11-.45,.34-.59,.23-.14,.59-.23,1.09-.29,0-.07,0-.15-.02-.22s-.04-.13-.07-.19-.08-.1-.15-.13c-.06-.03-.14-.05-.24-.05-.13,0-.26,.03-.38,.08-.12,.05-.22,.11-.32,.17l-.15-.27c.11-.07,.24-.14,.4-.2,.16-.07,.33-.1,.52-.1,.29,0,.49,.09,.62,.26s.19,.41,.19,.7v1.43h-.33l-.03-.28h-.01c-.11,.09-.23,.17-.36,.24-.13,.07-.27,.1-.41,.1Zm.12-.32c.11,0,.22-.03,.32-.08,.1-.05,.21-.13,.32-.23v-.65c-.2,.03-.36,.06-.49,.09-.13,.04-.24,.08-.32,.12-.08,.05-.14,.1-.18,.17s-.06,.13-.06,.21c0,.13,.04,.23,.12,.29,.08,.06,.18,.09,.29,.09Z"/><path class="cls-22" d="M100.45,33.18v-2.34h.33l.03,.42h.01c.08-.15,.18-.26,.29-.35,.11-.09,.24-.13,.37-.13,.09,0,.18,.02,.25,.05l-.08,.35s-.07-.02-.11-.03-.07,0-.12,0c-.1,0-.2,.04-.31,.12s-.2,.22-.28,.42v1.5h-.39Z"/></g><g><path class="cls-22" d="M101.77,34l-.1-.23c.14-.06,.25-.14,.32-.24,.08-.1,.11-.22,.11-.34,0,0-.03,0-.05,0-.08,0-.14-.02-.2-.07-.06-.05-.08-.11-.08-.2s.03-.15,.09-.2,.13-.08,.21-.08c.1,0,.18,.04,.24,.12,.06,.08,.09,.2,.09,.34,0,.21-.06,.39-.17,.54s-.27,.27-.46,.36Z"/><path class="cls-22" d="M104.54,33.24c-.2,0-.36-.06-.49-.17s-.2-.28-.2-.49c0-.26,.11-.45,.34-.59,.23-.14,.59-.23,1.09-.29,0-.07,0-.15-.02-.22s-.04-.13-.07-.19-.08-.1-.15-.13c-.06-.03-.14-.05-.24-.05-.13,0-.26,.03-.38,.08-.12,.05-.22,.11-.32,.17l-.15-.27c.11-.07,.24-.14,.4-.2,.16-.07,.33-.1,.52-.1,.29,0,.49,.09,.62,.26s.19,.41,.19,.7v1.43h-.33l-.03-.28h-.01c-.11,.09-.23,.17-.36,.24-.13,.07-.27,.1-.41,.1Zm.12-.32c.11,0,.22-.03,.32-.08,.1-.05,.21-.13,.32-.23v-.65c-.2,.03-.36,.06-.49,.09-.13,.04-.24,.08-.32,.12-.08,.05-.14,.1-.18,.17s-.06,.13-.06,.21c0,.13,.04,.23,.12,.29,.08,.06,.18,.09,.29,.09Z"/><path class="cls-22" d="M107.23,33.24c-.29,0-.53-.11-.71-.32s-.26-.51-.26-.9c0-.19,.03-.36,.08-.51,.06-.15,.13-.28,.22-.39,.09-.11,.2-.19,.32-.25s.25-.09,.38-.09,.25,.02,.35,.07c.1,.05,.2,.11,.3,.2l-.02-.4v-.9h.4v3.43h-.33l-.03-.27h-.01c-.09,.09-.2,.17-.32,.23-.12,.07-.25,.1-.39,.1Zm.09-.33c.11,0,.21-.03,.31-.08,.1-.05,.19-.13,.29-.24v-1.22c-.1-.09-.19-.15-.29-.19-.09-.04-.18-.05-.28-.05s-.18,.02-.26,.06c-.08,.04-.15,.1-.21,.18-.06,.08-.11,.17-.14,.28-.04,.11-.05,.23-.05,.37,0,.28,.06,.5,.17,.66s.27,.24,.48,.24Z"/><path class="cls-22" d="M109.1,33.18v-2.34h.33l.03,.34h.01c.1-.11,.21-.21,.33-.28,.12-.08,.25-.11,.39-.11,.18,0,.32,.04,.42,.12,.1,.08,.18,.19,.22,.33,.12-.13,.25-.24,.37-.33,.12-.08,.26-.12,.4-.12,.24,0,.42,.08,.54,.23s.18,.38,.18,.68v1.48h-.39v-1.43c0-.22-.04-.38-.11-.48-.07-.1-.18-.15-.33-.15-.18,0-.37,.12-.59,.36v1.69h-.39v-1.43c0-.22-.04-.38-.11-.48-.07-.1-.18-.15-.33-.15-.18,0-.37,.12-.59,.36v1.69h-.39Z"/><path class="cls-22" d="M113.29,30.36c-.08,0-.14-.02-.2-.07-.05-.05-.08-.11-.08-.18s.03-.14,.08-.19c.05-.05,.12-.07,.2-.07s.14,.02,.19,.07c.05,.05,.08,.11,.08,.19s-.03,.13-.08,.18c-.05,.05-.12,.07-.19,.07Zm-.2,2.82v-2.34h.39v2.34h-.39Z"/><path class="cls-22" d="M114.27,33.18v-2.34h.33l.03,.34h.01c.11-.11,.23-.21,.35-.28,.12-.08,.27-.11,.43-.11,.25,0,.43,.08,.54,.23,.11,.15,.17,.38,.17,.68v1.48h-.39v-1.43c0-.22-.04-.38-.11-.48-.07-.1-.18-.15-.34-.15-.12,0-.23,.03-.32,.09s-.2,.15-.32,.27v1.69h-.39Z"/><path class="cls-22" d="M117.1,30.36c-.08,0-.14-.02-.2-.07-.05-.05-.08-.11-.08-.18s.03-.14,.08-.19c.05-.05,.12-.07,.2-.07s.14,.02,.19,.07c.05,.05,.08,.11,.08,.19s-.03,.13-.08,.18c-.05,.05-.12,.07-.19,.07Zm-.2,2.82v-2.34h.39v2.34h-.39Z"/><path class="cls-22" d="M118.7,33.24c-.17,0-.33-.03-.48-.09-.15-.06-.28-.14-.39-.23l.2-.26c.1,.08,.21,.15,.32,.2s.23,.08,.37,.08c.15,0,.27-.04,.35-.11,.08-.07,.12-.16,.12-.26,0-.06-.02-.11-.05-.16s-.07-.08-.12-.12c-.05-.03-.11-.06-.17-.09-.06-.03-.13-.05-.19-.08-.08-.03-.17-.06-.25-.1-.08-.04-.16-.08-.22-.13-.07-.05-.12-.11-.16-.18-.04-.07-.06-.16-.06-.26,0-.09,.02-.18,.06-.26s.09-.15,.16-.21c.07-.06,.15-.11,.25-.14,.1-.03,.21-.05,.34-.05,.15,0,.28,.03,.41,.08,.12,.05,.23,.11,.32,.19l-.19,.25c-.08-.06-.16-.11-.25-.15-.09-.04-.18-.06-.28-.06-.15,0-.26,.03-.33,.1-.07,.07-.1,.15-.1,.24,0,.05,.01,.1,.04,.14,.03,.04,.07,.08,.12,.11,.05,.03,.1,.06,.17,.08,.06,.02,.13,.05,.19,.08,.08,.03,.17,.07,.25,.1s.16,.08,.23,.13c.07,.05,.12,.12,.17,.19s.07,.17,.07,.28c0,.1-.02,.19-.06,.27-.04,.08-.09,.16-.16,.22-.07,.06-.16,.12-.27,.15-.11,.04-.23,.06-.37,.06Z"/></g><g><path class="cls-22" d="M120.74,33.24c-.12,0-.23-.02-.32-.06s-.15-.09-.21-.16-.09-.15-.11-.25c-.02-.1-.03-.2-.03-.32v-1.29h-.35v-.3l.37-.02,.05-.65h.33v.65h.63v.32h-.63v1.3c0,.14,.03,.26,.08,.33,.05,.08,.15,.12,.28,.12,.04,0,.09,0,.13-.02,.05-.01,.09-.03,.13-.04l.08,.3c-.06,.02-.13,.04-.21,.06s-.15,.03-.22,.03Z"/><path class="cls-22" d="M121.63,33.18v-2.34h.33l.03,.42h.01c.08-.15,.18-.26,.29-.35,.11-.09,.24-.13,.37-.13,.09,0,.18,.02,.25,.05l-.08,.35s-.07-.02-.11-.03-.07,0-.12,0c-.1,0-.2,.04-.31,.12s-.2,.22-.28,.42v1.5h-.39Z"/></g><g><path class="cls-22" d="M123.72,33.24c-.2,0-.36-.06-.49-.17s-.2-.28-.2-.49c0-.26,.11-.45,.34-.59,.23-.14,.59-.23,1.09-.29,0-.07,0-.15-.02-.22s-.04-.13-.07-.19-.08-.1-.15-.13c-.06-.03-.14-.05-.24-.05-.13,0-.26,.03-.38,.08-.12,.05-.22,.11-.32,.17l-.15-.27c.11-.07,.24-.14,.4-.2,.16-.07,.33-.1,.52-.1,.29,0,.49,.09,.62,.26s.19,.41,.19,.7v1.43h-.33l-.03-.28h-.01c-.11,.09-.23,.17-.36,.24-.13,.07-.27,.1-.41,.1Zm.12-.32c.11,0,.22-.03,.32-.08,.1-.05,.21-.13,.32-.23v-.65c-.2,.03-.36,.06-.49,.09-.13,.04-.24,.08-.32,.12-.08,.05-.14,.1-.18,.17s-.06,.13-.06,.21c0,.13,.04,.23,.12,.29,.08,.06,.18,.09,.29,.09Z"/><path class="cls-22" d="M125.61,33.18v-2.34h.33l.03,.42h.01c.08-.15,.18-.26,.29-.35,.11-.09,.24-.13,.37-.13,.09,0,.18,.02,.25,.05l-.08,.35s-.07-.02-.11-.03-.07,0-.12,0c-.1,0-.2,.04-.31,.12s-.2,.22-.28,.42v1.5h-.39Z"/><path class="cls-22" d="M128.28,34.18c-.05,0-.1,0-.15-.01s-.09-.02-.12-.04l.08-.31s.05,.01,.09,.02,.06,.01,.09,.01c.13,0,.24-.05,.33-.14s.15-.21,.2-.36l.05-.17-.94-2.34h.41l.48,1.29c.04,.1,.07,.21,.11,.32,.04,.11,.08,.23,.11,.33h.02c.04-.11,.07-.22,.1-.33s.06-.22,.1-.33l.42-1.29h.39l-.88,2.53c-.04,.12-.09,.22-.14,.32-.05,.1-.11,.19-.18,.26s-.15,.13-.24,.17c-.09,.04-.19,.06-.31,.06Z"/></g><g><path class="cls-22" d="M66.77,39.22v-2.34h.33l.03,.34h.01c.1-.11,.21-.21,.33-.28,.12-.08,.25-.11,.39-.11,.18,0,.32,.04,.42,.12,.1,.08,.18,.19,.22,.33,.12-.13,.25-.24,.37-.33s.26-.12,.4-.12c.24,0,.42,.08,.54,.23s.18,.38,.18,.68v1.48h-.39v-1.43c0-.22-.04-.38-.11-.48-.07-.1-.18-.15-.33-.15-.18,0-.37,.12-.59,.36v1.69h-.39v-1.43c0-.22-.04-.38-.11-.48-.07-.1-.18-.15-.33-.15-.18,0-.37,.12-.59,.36v1.69h-.39Z"/><path class="cls-22" d="M71.67,39.28c-.14,0-.28-.03-.41-.08-.13-.05-.25-.13-.34-.24-.1-.1-.18-.23-.24-.39-.06-.15-.09-.32-.09-.52s.03-.37,.09-.52c.06-.15,.14-.28,.24-.39,.1-.11,.21-.19,.34-.24,.13-.05,.27-.08,.41-.08s.28,.03,.41,.08c.13,.05,.25,.13,.34,.24,.1,.11,.18,.23,.24,.39,.06,.15,.09,.33,.09,.52s-.03,.36-.09,.52c-.06,.15-.14,.28-.24,.39-.1,.1-.21,.18-.34,.24-.13,.05-.27,.08-.41,.08Zm0-.33c.1,0,.19-.02,.27-.06,.08-.04,.15-.1,.21-.18,.06-.08,.11-.17,.14-.28,.03-.11,.05-.23,.05-.37s-.02-.26-.05-.37c-.03-.11-.08-.21-.14-.29s-.13-.14-.21-.19c-.08-.04-.17-.06-.27-.06s-.19,.02-.27,.06c-.08,.04-.15,.11-.21,.19s-.11,.18-.14,.29c-.03,.11-.05,.23-.05,.37s.02,.26,.05,.37c.03,.11,.08,.2,.14,.28,.06,.08,.13,.14,.21,.18,.08,.04,.17,.06,.27,.06Z"/><path class="cls-22" d="M73.37,39.22v-2.34h.33l.03,.34h.01c.11-.11,.23-.21,.35-.28,.12-.08,.27-.11,.43-.11,.25,0,.43,.08,.54,.23,.11,.15,.17,.38,.17,.68v1.48h-.39v-1.43c0-.22-.04-.38-.11-.48-.07-.1-.18-.15-.34-.15-.12,0-.23,.03-.32,.09s-.2,.15-.32,.27v1.69h-.39Z"/><path class="cls-22" d="M76.2,36.41c-.08,0-.14-.02-.2-.07-.05-.05-.08-.11-.08-.18s.03-.14,.08-.19c.05-.05,.12-.07,.2-.07s.14,.02,.19,.07c.05,.05,.08,.11,.08,.19s-.03,.13-.08,.18c-.05,.05-.12,.07-.19,.07Zm-.2,2.82v-2.34h.39v2.34h-.39Z"/><path class="cls-22" d="M77.92,39.28c-.12,0-.23-.02-.32-.06s-.15-.09-.21-.16-.09-.15-.11-.25c-.02-.1-.03-.2-.03-.32v-1.29h-.35v-.3l.37-.02,.05-.65h.33v.65h.63v.32h-.63v1.3c0,.14,.03,.26,.08,.33,.05,.08,.15,.12,.28,.12,.04,0,.09,0,.13-.02,.05-.01,.09-.03,.13-.04l.08,.3c-.06,.02-.13,.04-.21,.06s-.15,.03-.22,.03Z"/></g><g><path class="cls-22" d="M79.65,39.28c-.14,0-.28-.03-.41-.08-.13-.05-.25-.13-.34-.24-.1-.1-.18-.23-.24-.39-.06-.15-.09-.32-.09-.52s.03-.37,.09-.52c.06-.15,.14-.28,.24-.39,.1-.11,.21-.19,.34-.24,.13-.05,.27-.08,.41-.08s.28,.03,.41,.08c.13,.05,.25,.13,.34,.24,.1,.11,.18,.23,.24,.39,.06,.15,.09,.33,.09,.52s-.03,.36-.09,.52c-.06,.15-.14,.28-.24,.39-.1,.1-.21,.18-.34,.24-.13,.05-.27,.08-.41,.08Zm0-.33c.1,0,.19-.02,.27-.06,.08-.04,.15-.1,.21-.18,.06-.08,.11-.17,.14-.28,.03-.11,.05-.23,.05-.37s-.02-.26-.05-.37c-.03-.11-.08-.21-.14-.29s-.13-.14-.21-.19c-.08-.04-.17-.06-.27-.06s-.19,.02-.27,.06c-.08,.04-.15,.11-.21,.19s-.11,.18-.14,.29c-.03,.11-.05,.23-.05,.37s.02,.26,.05,.37c.03,.11,.08,.2,.14,.28,.06,.08,.13,.14,.21,.18,.08,.04,.17,.06,.27,.06Z"/><path class="cls-22" d="M81.35,39.22v-2.34h.33l.03,.42h.01c.08-.15,.18-.26,.29-.35,.11-.09,.24-.13,.37-.13,.09,0,.18,.02,.25,.05l-.08,.35s-.07-.02-.11-.03-.07,0-.12,0c-.1,0-.2,.04-.31,.12s-.2,.22-.28,.42v1.5h-.39Z"/><path class="cls-22" d="M83.97,39.28c-.16,0-.3-.03-.44-.08-.14-.06-.25-.14-.36-.24-.1-.1-.18-.23-.24-.38s-.09-.32-.09-.51,.03-.37,.09-.52c.06-.15,.14-.28,.24-.39,.1-.11,.21-.19,.33-.24,.12-.06,.25-.08,.39-.08,.15,0,.28,.03,.4,.08,.12,.05,.21,.12,.29,.22,.08,.1,.14,.21,.18,.35,.04,.13,.06,.29,.06,.45,0,.04,0,.08,0,.12,0,.04,0,.08-.01,.1h-1.58c.02,.25,.09,.45,.23,.59,.14,.15,.32,.22,.55,.22,.11,0,.22-.02,.31-.05,.09-.03,.18-.08,.27-.13l.14,.26c-.1,.06-.22,.12-.34,.17s-.27,.07-.43,.07Zm-.74-1.41h1.25c0-.24-.05-.42-.15-.54-.1-.12-.24-.18-.43-.18-.08,0-.16,.02-.24,.05-.08,.03-.14,.08-.21,.14-.06,.06-.11,.14-.15,.23s-.07,.19-.08,.31Z"/></g><g><path class="cls-22" d="M85.83,39.28c-.2,0-.36-.06-.49-.17s-.2-.28-.2-.49c0-.26,.11-.45,.34-.59,.23-.14,.59-.23,1.09-.29,0-.07,0-.15-.02-.22s-.04-.13-.07-.19-.08-.1-.15-.13c-.06-.03-.14-.05-.24-.05-.13,0-.26,.03-.38,.08-.12,.05-.22,.11-.32,.17l-.15-.27c.11-.07,.24-.14,.4-.2,.16-.07,.33-.1,.52-.1,.29,0,.49,.09,.62,.26s.19,.41,.19,.7v1.43h-.33l-.03-.28h-.01c-.11,.09-.23,.17-.36,.24-.13,.07-.27,.1-.41,.1Zm.12-.32c.11,0,.22-.03,.32-.08,.1-.05,.21-.13,.32-.23v-.65c-.2,.03-.36,.06-.49,.09-.13,.04-.24,.08-.32,.12-.08,.05-.14,.1-.18,.17s-.06,.13-.06,.21c0,.13,.04,.23,.12,.29,.08,.06,.18,.09,.29,.09Z"/><path class="cls-22" d="M87.71,39.22v-2.34h.33l.03,.42h.01c.08-.15,.18-.26,.29-.35,.11-.09,.24-.13,.37-.13,.09,0,.18,.02,.25,.05l-.08,.35s-.07-.02-.11-.03-.07,0-.12,0c-.1,0-.2,.04-.31,.12s-.2,.22-.28,.42v1.5h-.39Z"/><path class="cls-22" d="M90.76,39.28c-.15,0-.26-.04-.32-.13-.06-.09-.1-.22-.1-.39v-2.95h.39v2.98c0,.06,.01,.11,.03,.13,.02,.03,.05,.04,.08,.04h.04s.03,0,.05,0l.05,.3s-.06,.02-.09,.03c-.04,0-.08,0-.13,0Z"/><path class="cls-22" d="M92.48,39.28c-.14,0-.28-.03-.41-.08-.13-.05-.25-.13-.34-.24-.1-.1-.18-.23-.24-.39-.06-.15-.09-.32-.09-.52s.03-.37,.09-.52c.06-.15,.14-.28,.24-.39,.1-.11,.21-.19,.34-.24,.13-.05,.27-.08,.41-.08s.28,.03,.41,.08c.13,.05,.25,.13,.34,.24,.1,.11,.18,.23,.24,.39,.06,.15,.09,.33,.09,.52s-.03,.36-.09,.52c-.06,.15-.14,.28-.24,.39-.1,.1-.21,.18-.34,.24-.13,.05-.27,.08-.41,.08Zm0-.33c.1,0,.19-.02,.27-.06,.08-.04,.15-.1,.21-.18,.06-.08,.11-.17,.14-.28,.03-.11,.05-.23,.05-.37s-.02-.26-.05-.37c-.03-.11-.08-.21-.14-.29s-.13-.14-.21-.19c-.08-.04-.17-.06-.27-.06s-.19,.02-.27,.06c-.08,.04-.15,.11-.21,.19s-.11,.18-.14,.29c-.03,.11-.05,.23-.05,.37s.02,.26,.05,.37c.03,.11,.08,.2,.14,.28,.06,.08,.13,.14,.21,.18,.08,.04,.17,.06,.27,.06Z"/><path class="cls-22" d="M94.79,39.28c-.17,0-.33-.03-.48-.09-.15-.06-.28-.14-.39-.23l.2-.26c.1,.08,.21,.15,.32,.2s.23,.08,.37,.08c.15,0,.27-.04,.35-.11,.08-.07,.12-.16,.12-.26,0-.06-.02-.11-.05-.16s-.07-.08-.12-.12c-.05-.03-.11-.06-.17-.09-.06-.03-.13-.05-.19-.08-.08-.03-.17-.06-.25-.1-.08-.04-.16-.08-.22-.13-.07-.05-.12-.11-.16-.18-.04-.07-.06-.16-.06-.26,0-.09,.02-.18,.06-.26s.09-.15,.16-.21c.07-.06,.15-.11,.25-.14,.1-.03,.21-.05,.34-.05,.15,0,.28,.03,.41,.08,.12,.05,.23,.11,.32,.19l-.19,.25c-.08-.06-.16-.11-.25-.15-.09-.04-.18-.06-.28-.06-.15,0-.26,.03-.33,.1-.07,.07-.1,.15-.1,.24,0,.05,.01,.1,.04,.14,.03,.04,.07,.08,.12,.11,.05,.03,.1,.06,.17,.08,.06,.02,.13,.05,.19,.08,.08,.03,.17,.07,.25,.1s.16,.08,.23,.13c.07,.05,.12,.12,.17,.19s.07,.17,.07,.28c0,.1-.02,.19-.06,.27-.04,.08-.09,.16-.16,.22-.07,.06-.16,.12-.27,.15-.11,.04-.23,.06-.37,.06Z"/><path class="cls-22" d="M98.39,39.28c-.2,0-.38-.04-.55-.11-.17-.07-.31-.18-.44-.32-.12-.14-.22-.31-.29-.51-.07-.2-.1-.43-.1-.69s.04-.48,.11-.68c.07-.2,.17-.37,.29-.52,.12-.14,.27-.25,.44-.32s.36-.11,.56-.11,.36,.04,.51,.12c.15,.08,.26,.17,.36,.27l-.22,.26c-.08-.09-.18-.16-.28-.22-.11-.05-.23-.08-.36-.08-.15,0-.29,.03-.41,.09s-.23,.14-.31,.25c-.09,.11-.15,.24-.2,.4-.05,.16-.07,.33-.07,.53s.02,.38,.07,.54c.05,.16,.11,.29,.2,.41,.08,.11,.18,.2,.31,.26,.12,.06,.26,.09,.41,.09s.29-.03,.4-.09,.22-.15,.33-.26l.22,.25c-.12,.14-.27,.26-.42,.34s-.34,.12-.54,.12Z"/><path class="cls-22" d="M100.81,39.28c-.14,0-.28-.03-.41-.08-.13-.05-.25-.13-.34-.24-.1-.1-.18-.23-.24-.39-.06-.15-.09-.32-.09-.52s.03-.37,.09-.52c.06-.15,.14-.28,.24-.39,.1-.11,.21-.19,.34-.24,.13-.05,.27-.08,.41-.08s.28,.03,.41,.08c.13,.05,.25,.13,.34,.24,.1,.11,.18,.23,.24,.39,.06,.15,.09,.33,.09,.52s-.03,.36-.09,.52c-.06,.15-.14,.28-.24,.39-.1,.1-.21,.18-.34,.24-.13,.05-.27,.08-.41,.08Zm0-.33c.1,0,.19-.02,.27-.06,.08-.04,.15-.1,.21-.18,.06-.08,.11-.17,.14-.28,.03-.11,.05-.23,.05-.37s-.02-.26-.05-.37c-.03-.11-.08-.21-.14-.29s-.13-.14-.21-.19c-.08-.04-.17-.06-.27-.06s-.19,.02-.27,.06c-.08,.04-.15,.11-.21,.19s-.11,.18-.14,.29c-.03,.11-.05,.23-.05,.37s.02,.26,.05,.37c.03,.11,.08,.2,.14,.28,.06,.08,.13,.14,.21,.18,.08,.04,.17,.06,.27,.06Z"/><path class="cls-22" d="M102.51,39.22v-2.34h.33l.03,.34h.01c.11-.11,.23-.21,.35-.28,.12-.08,.27-.11,.43-.11,.25,0,.43,.08,.54,.23,.11,.15,.17,.38,.17,.68v1.48h-.39v-1.43c0-.22-.04-.38-.11-.48-.07-.1-.18-.15-.34-.15-.12,0-.23,.03-.32,.09s-.2,.15-.32,.27v1.69h-.39Z"/><path class="cls-22" d="M105.88,39.28c-.12,0-.23-.02-.32-.06s-.15-.09-.21-.16-.09-.15-.11-.25c-.02-.1-.03-.2-.03-.32v-1.29h-.35v-.3l.37-.02,.05-.65h.33v.65h.63v.32h-.63v1.3c0,.14,.03,.26,.08,.33,.05,.08,.15,.12,.28,.12,.04,0,.09,0,.13-.02,.05-.01,.09-.03,.13-.04l.08,.3c-.06,.02-.13,.04-.21,.06s-.15,.03-.22,.03Z"/><path class="cls-22" d="M106.77,39.22v-2.34h.33l.03,.42h.01c.08-.15,.18-.26,.29-.35,.11-.09,.24-.13,.37-.13,.09,0,.18,.02,.25,.05l-.08,.35s-.07-.02-.11-.03-.07,0-.12,0c-.1,0-.2,.04-.31,.12s-.2,.22-.28,.42v1.5h-.39Z"/></g><path class="cls-22" d="M108.86,39.28c-.2,0-.36-.06-.49-.17s-.2-.28-.2-.49c0-.26,.11-.45,.34-.59,.23-.14,.59-.23,1.09-.29,0-.07,0-.15-.02-.22s-.04-.13-.07-.19-.08-.1-.15-.13c-.06-.03-.14-.05-.24-.05-.13,0-.26,.03-.38,.08-.12,.05-.22,.11-.32,.17l-.15-.27c.11-.07,.24-.14,.4-.2,.16-.07,.33-.1,.52-.1,.29,0,.49,.09,.62,.26s.19,.41,.19,.7v1.43h-.33l-.03-.28h-.01c-.11,.09-.23,.17-.36,.24-.13,.07-.27,.1-.41,.1Zm.12-.32c.11,0,.22-.03,.32-.08,.1-.05,.21-.13,.32-.23v-.65c-.2,.03-.36,.06-.49,.09-.13,.04-.24,.08-.32,.12-.08,.05-.14,.1-.18,.17s-.06,.13-.06,.21c0,.13,.04,.23,.12,.29,.08,.06,.18,.09,.29,.09Z"/><path class="cls-22" d="M111.42,39.28c-.12,0-.23-.02-.32-.06s-.15-.09-.21-.16-.09-.15-.11-.25c-.02-.1-.03-.2-.03-.32v-1.29h-.35v-.3l.37-.02,.05-.65h.33v.65h.63v.32h-.63v1.3c0,.14,.03,.26,.08,.33,.05,.08,.15,.12,.28,.12,.04,0,.09,0,.13-.02,.05-.01,.09-.03,.13-.04l.08,.3c-.06,.02-.13,.04-.21,.06s-.15,.03-.22,.03Z"/><g><path class="cls-22" d="M113.15,39.28c-.14,0-.28-.03-.41-.08-.13-.05-.25-.13-.34-.24-.1-.1-.18-.23-.24-.39-.06-.15-.09-.32-.09-.52s.03-.37,.09-.52c.06-.15,.14-.28,.24-.39,.1-.11,.21-.19,.34-.24,.13-.05,.27-.08,.41-.08s.28,.03,.41,.08c.13,.05,.25,.13,.34,.24,.1,.11,.18,.23,.24,.39,.06,.15,.09,.33,.09,.52s-.03,.36-.09,.52c-.06,.15-.14,.28-.24,.39-.1,.1-.21,.18-.34,.24-.13,.05-.27,.08-.41,.08Zm0-.33c.1,0,.19-.02,.27-.06,.08-.04,.15-.1,.21-.18,.06-.08,.11-.17,.14-.28,.03-.11,.05-.23,.05-.37s-.02-.26-.05-.37c-.03-.11-.08-.21-.14-.29s-.13-.14-.21-.19c-.08-.04-.17-.06-.27-.06s-.19,.02-.27,.06c-.08,.04-.15,.11-.21,.19s-.11,.18-.14,.29c-.03,.11-.05,.23-.05,.37s.02,.26,.05,.37c.03,.11,.08,.2,.14,.28,.06,.08,.13,.14,.21,.18,.08,.04,.17,.06,.27,.06Z"/><path class="cls-22" d="M115.46,39.28c-.17,0-.33-.03-.48-.09-.15-.06-.28-.14-.39-.23l.2-.26c.1,.08,.21,.15,.32,.2s.23,.08,.37,.08c.15,0,.27-.04,.35-.11,.08-.07,.12-.16,.12-.26,0-.06-.02-.11-.05-.16s-.07-.08-.12-.12c-.05-.03-.11-.06-.17-.09-.06-.03-.13-.05-.19-.08-.08-.03-.17-.06-.25-.1-.08-.04-.16-.08-.22-.13-.07-.05-.12-.11-.16-.18-.04-.07-.06-.16-.06-.26,0-.09,.02-.18,.06-.26s.09-.15,.16-.21c.07-.06,.15-.11,.25-.14,.1-.03,.21-.05,.34-.05,.15,0,.28,.03,.41,.08,.12,.05,.23,.11,.32,.19l-.19,.25c-.08-.06-.16-.11-.25-.15-.09-.04-.18-.06-.28-.06-.15,0-.26,.03-.33,.1-.07,.07-.1,.15-.1,.24,0,.05,.01,.1,.04,.14,.03,.04,.07,.08,.12,.11,.05,.03,.1,.06,.17,.08,.06,.02,.13,.05,.19,.08,.08,.03,.17,.07,.25,.1s.16,.08,.23,.13c.07,.05,.12,.12,.17,.19s.07,.17,.07,.28c0,.1-.02,.19-.06,.27-.04,.08-.09,.16-.16,.22-.07,.06-.16,.12-.27,.15-.11,.04-.23,.06-.37,.06Z"/><path class="cls-22" d="M117.86,39.22v-3.16h.48l.61,1.68c.04,.11,.08,.22,.11,.33,.04,.11,.07,.22,.11,.33h.02c.04-.11,.07-.22,.11-.33,.03-.11,.07-.22,.11-.33l.6-1.68h.49v3.16h-.38v-1.74c0-.14,0-.3,.02-.47,.01-.17,.02-.33,.03-.47h-.02l-.25,.72-.6,1.64h-.26l-.6-1.64-.25-.72h-.02c0,.14,.02,.3,.03,.47,.01,.17,.02,.33,.02,.47v1.74h-.36Z"/><path class="cls-22" d="M121.86,39.28c-.2,0-.36-.06-.49-.17s-.2-.28-.2-.49c0-.26,.11-.45,.34-.59,.23-.14,.59-.23,1.09-.29,0-.07,0-.15-.02-.22s-.04-.13-.07-.19-.08-.1-.15-.13c-.06-.03-.14-.05-.24-.05-.13,0-.26,.03-.38,.08-.12,.05-.22,.11-.32,.17l-.15-.27c.11-.07,.24-.14,.4-.2,.16-.07,.33-.1,.52-.1,.29,0,.49,.09,.62,.26s.19,.41,.19,.7v1.43h-.33l-.03-.28h-.01c-.11,.09-.23,.17-.36,.24-.13,.07-.27,.1-.41,.1Zm.12-.32c.11,0,.22-.03,.32-.08,.1-.05,.21-.13,.32-.23v-.65c-.2,.03-.36,.06-.49,.09-.13,.04-.24,.08-.32,.12-.08,.05-.14,.1-.18,.17s-.06,.13-.06,.21c0,.13,.04,.23,.12,.29,.08,.06,.18,.09,.29,.09Z"/><path class="cls-22" d="M123.75,39.22v-2.34h.33l.03,.42h.01c.08-.15,.18-.26,.29-.35,.11-.09,.24-.13,.37-.13,.09,0,.18,.02,.25,.05l-.08,.35s-.07-.02-.11-.03-.07,0-.12,0c-.1,0-.2,.04-.31,.12s-.2,.22-.28,.42v1.5h-.39Z"/><path class="cls-22" d="M126.34,39.28c-.15,0-.3-.03-.43-.08-.13-.05-.25-.13-.35-.24-.1-.1-.17-.23-.23-.39-.06-.15-.08-.32-.08-.52s.03-.37,.09-.52c.06-.15,.14-.28,.25-.39,.1-.11,.22-.19,.36-.24,.14-.05,.28-.08,.43-.08s.29,.03,.39,.08c.11,.05,.21,.12,.29,.19l-.2,.26c-.07-.06-.14-.11-.21-.15-.08-.04-.16-.06-.25-.06-.11,0-.2,.02-.29,.06s-.17,.11-.23,.19-.11,.18-.15,.29-.06,.23-.06,.37,.02,.26,.05,.37c.04,.11,.08,.2,.15,.28,.06,.08,.14,.14,.23,.18,.09,.04,.19,.06,.29,.06s.21-.02,.3-.07c.09-.05,.17-.1,.25-.17l.17,.26c-.11,.09-.22,.17-.35,.22-.13,.05-.26,.08-.4,.08Z"/></g><path class="cls-22" d="M128.37,39.28c-.14,0-.28-.03-.41-.08-.13-.05-.25-.13-.34-.24-.1-.1-.18-.23-.24-.39-.06-.15-.09-.32-.09-.52s.03-.37,.09-.52c.06-.15,.14-.28,.24-.39,.1-.11,.21-.19,.34-.24,.13-.05,.27-.08,.41-.08s.28,.03,.41,.08c.13,.05,.25,.13,.34,.24,.1,.11,.18,.23,.24,.39,.06,.15,.09,.33,.09,.52s-.03,.36-.09,.52c-.06,.15-.14,.28-.24,.39-.1,.1-.21,.18-.34,.24-.13,.05-.27,.08-.41,.08Zm0-.33c.1,0,.19-.02,.27-.06,.08-.04,.15-.1,.21-.18,.06-.08,.11-.17,.14-.28,.03-.11,.05-.23,.05-.37s-.02-.26-.05-.37c-.03-.11-.08-.21-.14-.29s-.13-.14-.21-.19c-.08-.04-.17-.06-.27-.06s-.19,.02-.27,.06c-.08,.04-.15,.11-.21,.19s-.11,.18-.14,.29c-.03,.11-.05,.23-.05,.37s.02,.26,.05,.37c.03,.11,.08,.2,.14,.28,.06,.08,.13,.14,.21,.18,.08,.04,.17,.06,.27,.06Z"/></svg>