<?xml version="1.0" encoding="utf-8"?>
<!-- Generator: Adobe Illustrator 27.8.1, SVG Export Plug-In . SVG Version: 6.00 Build 0)  -->
<svg version="1.1" id="Capa_1" xmlns="http://www.w3.org/2000/svg" xmlns:xlink="http://www.w3.org/1999/xlink" x="0px" y="0px"
	 viewBox="0 0 144.4 250.4" style="enable-background:new 0 0 144.4 250.4;" xml:space="preserve">
<style type="text/css">
	.st0{fill:#10312B;}
	.st1{clip-path:url(#SVGID_00000005241226142810051440000009280067375473769393_);}
	.st2{fill:#DCC8A2;}
	.st3{fill:#E7903A;}
	.st4{clip-path:url(#SVGID_00000121966865880515965390000005283821098509458843_);}
	.st5{fill:url(#SVGID_00000179625680109125177280000004411108721235663247_);}
	.st6{fill:#FFDB93;}
	.st7{fill:#6E727B;}
	.st8{fill:#EDA785;}
	.st9{fill:#0E1E2B;}
	.st10{fill:#FFCB63;}
	.st11{fill:#285173;}
	.st12{fill:#ECD9D2;}
	.st13{fill:#1D3B54;}
	.st14{fill:#D5C4BD;}
	.st15{fill:#252E3B;}
	.st16{fill:#F9E5DD;}
	.st17{fill:#A67860;}
	.st18{fill:#DA9B7C;}
	.st19{fill:#2C5395;}
	.st20{fill:#202338;}
	.st21{fill:#80807E;}
	.st22{fill:#292C47;}
	.st23{fill:#D7D4DF;}
	.st24{fill:#5D676C;}
	.st25{fill:#7F817F;}
	.st26{fill:#B3B0B9;}
	.st27{fill:#E9E5F1;}
	.st28{fill:#1F3B6B;}
	.st29{fill:#323657;}
</style>
<path class="st0" d="M-0.8,0.4h132.7c6.9,0,12.5,5.6,12.5,12.5v237.5H-0.8V0.4z"/>
<g>
	<defs>
		<rect id="SVGID_1_" x="-0.8" y="0.4" width="145.2" height="250"/>
	</defs>
	<clipPath id="SVGID_00000073696563495345575950000001445378442057749381_">
		<use xlink:href="#SVGID_1_"  style="overflow:visible;"/>
	</clipPath>
	<g style="clip-path:url(#SVGID_00000073696563495345575950000001445378442057749381_);">
		<path class="st2" d="M32.1,60.8C33.3,30.1,52.5-1,82-9.5c25.7-7.4,52.8,2.8,77.3,13.5s50.6,22.3,76.9,17.6
			c23.8-4.2,43-20.9,62.9-34.5c19.9-13.6,44.8-25,67.6-17c12.9,4.5,23.1,14.8,30.1,26.5c16.8,28,16.2,65.5-1.4,93
			c-17.7,27.5-51.6,43.6-84.1,39.9c-12.9-1.5-25.8-5.8-38.6-3.5c-18.2,3.2-31.2,18.6-45.6,30.1c-24.2,19.1-55.9,28.5-86.5,25.5
			C94.4,177,56,147,39.7,104.3C34.4,90.4,31.5,75.7,32.1,60.8"/>
		<path class="st2" d="M383.8,308.2c-1.2-30.7-20.4-61.8-49.9-70.3c-25.7-7.4-52.8,2.8-77.3,13.5c-24.5,10.7-50.6,22.3-76.9,17.6
			c-23.8-4.2-43-20.9-62.9-34.5c-19.9-13.6-44.8-25-67.6-17C36.4,222,26.2,232.3,19.2,244C2.4,272,3,309.6,20.6,337
			c17.7,27.5,51.6,43.6,84.1,39.9c12.9-1.5,25.8-5.8,38.6-3.5c18.2,3.2,31.2,18.6,45.6,30.1c24.2,19.1,55.9,28.5,86.5,25.5
			c46.1-4.5,84.4-34.5,100.7-77.3C381.5,337.8,384.4,323.1,383.8,308.2"/>
		<path class="st3" d="M198.9,25.9H88.5C60.2,27.8,60.3,59,60.3,59v149h110.5V59C170.8,59,171.3,27.7,198.9,25.9"/>
		<g>
			<defs>
				<path id="SVGID_00000090269747507310620470000010561098039709870271_" d="M166.4,206l-108.6-1.1l-1.8-101.4V57
					c0,0-0.1-31.2,28.2-33.1h110.3c-3.5,0.2-6.6,0.9-9.3,2c-18.3,7.3-18.7,31-18.7,31L166.4,206L166.4,206z"/>
			</defs>
			<clipPath id="SVGID_00000180356247791310902580000003703955866816404109_">
				<use xlink:href="#SVGID_00000090269747507310620470000010561098039709870271_"  style="overflow:visible;"/>
			</clipPath>
			<g style="clip-path:url(#SVGID_00000180356247791310902580000003703955866816404109_);">
				
					<linearGradient id="SVGID_00000070832252429517676490000018424933115597194427_" gradientUnits="userSpaceOnUse" x1="154.2428" y1="248.5459" x2="76.8493" y2="430.6197" gradientTransform="matrix(1 0 0 -1 0 432)">
					<stop  offset="0" style="stop-color:#FF9E55"/>
					<stop  offset="1" style="stop-color:#FFD155"/>
				</linearGradient>
				
					<rect x="55.8" y="23.9" style="fill:url(#SVGID_00000070832252429517676490000018424933115597194427_);" width="138.6" height="182"/>
			</g>
		</g>
		<rect x="70.4" y="62.8" class="st6" width="75.9" height="6.7"/>
		<rect x="70.4" y="78.3" class="st6" width="64.8" height="4.7"/>
		<rect x="70.4" y="90.8" class="st6" width="32.6" height="7"/>
		<rect x="112.6" y="90.8" class="st6" width="33.7" height="7"/>
		<rect x="70.4" y="104.4" class="st6" width="51.9" height="5"/>
		<rect x="70.4" y="117" class="st6" width="58.5" height="2.8"/>
		<rect x="70.4" y="129.5" class="st6" width="70.3" height="2.8"/>
		<path class="st6" d="M103.2,157.7h-33v-15.8h33V157.7z M70.7,157.2h32.1v-14.9H70.7V157.2z"/>
		<rect x="111.2" y="142.1" class="st6" width="29.6" height="3.6"/>
		<rect x="111.2" y="149.7" class="st6" width="21" height="3.6"/>
		<rect x="70.4" y="167.2" class="st6" width="63.2" height="2.8"/>
		<rect x="70.4" y="179.7" class="st6" width="33.3" height="2.8"/>
		<path class="st6" d="M157,187.1h-20.8v-20.8H157V187.1z M138.1,185.2h17v-17h-17L138.1,185.2L138.1,185.2z"/>
		<polygon class="st6" points="146.9,181 139.7,174.1 141.8,171.8 147.1,176.8 158.6,167.3 160.6,169.8 		"/>
		<path class="st7" d="M77.1,108.5L77.1,108.5L77.1,108.5 M53.6,114.8c7.4-4.3,15.5-6.3,23.5-6.3c-2.2,0-4.4,0.2-6.7,0.5
			c-4.9,0.7-9.8,2.2-14.5,4.6c-0.7,0.3-1.3,0.7-2,1.1C53.8,114.7,53.7,114.8,53.6,114.8L53.6,114.8z M117.8,131.9
			c0-0.1-0.1-0.1-0.1-0.2C117.7,131.8,117.7,131.8,117.8,131.9z"/>
		<path class="st8" d="M67.3,189.1c0,0,0.4,0.4,0.6,0.8c0.1,0.3,0.5,0.7,0.7,0.9s0.9,1.3,1,1.6c0,0.1,0,1,0.1,1.2
			c0.1,0.2,0.4,0.7,0.2,0.8c-0.2,0.1-0.6-0.3-0.6-0.3s0.1,0.2-0.1,0.4c-0.3,0.3-0.6,0.1-0.6,0.1s0,0.4-0.2,0.4c-0.4,0.2-0.6,0-0.6,0
			s-0.1,0.3-0.4,0.3c-0.3,0.1-0.5-0.2-0.5-0.2s-0.4,0.2-0.6,0c-0.2-0.2-0.2-0.3-0.3-0.5s-0.5-1.8-0.3-3c0.2-1.3-0.8-2.2-0.8-2.2
			L67.3,189.1L67.3,189.1z"/>
		<path class="st9" d="M70.8,198.9h-5.5c-0.6,0-1-0.5-1-1v-3.5c0-0.6,0.5-1,1-1h5.5c0.6,0,1,0.5,1,1v3.5
			C71.8,198.5,71.4,198.9,70.8,198.9 M65.3,194.1c-0.2,0-0.3,0.2-0.3,0.3v3.5c0,0.2,0.1,0.3,0.3,0.3h5.5c0.2,0,0.3-0.2,0.3-0.3v-3.5
			c0-0.2-0.2-0.3-0.3-0.3H65.3z"/>
		<rect x="57.8" y="197.4" class="st10" width="20.6" height="14.8"/>
		<path class="st8" d="M59.3,157.9c0,0-1.1,0-1.5,3.2c-0.5,3.2,0.4,4.5,0.5,5.8c0.1,1.3,1.6,9.8,1.7,10.2c0,0.4,0.2,4.9,0.8,6.1
			c0.6,1.2,5,8,5.1,8.3c0.1,0.3,2.1-1.2,2.1-1.2s-3.5-7.3-3.7-8.1c-0.2-0.8-1.6-5.1-1.4-6.4c0.2-1.3-0.6-8.4-0.5-9.2
			S61.3,158.4,59.3,157.9"/>
		<path class="st11" d="M59.3,157.9c0,0-1.1,0-1.5,3.2c-0.5,3.2,0,4.3,0.2,5.7c0.3,1.3,1.1,9.2,1.2,9.6c0,0.4,1.1,5.1,1.6,6.8
			c0.4,1.3,4.4,8,4.4,8.3c0.1,0.3,3.1-1.6,3.1-1.6s-3.9-7.5-4.1-8.4c-0.2-0.8-0.9-3.7-0.9-5c0-1.5-1-9.1-0.9-9.9
			S62.3,158.9,59.3,157.9"/>
		<path class="st12" d="M50.5,231.6c0,0,1.8,2.7,2.6,3.4c0,0,1.7,0.6,1.8,1.8c0.1,0.8,0,2-2,2c-2,0.1-3.2-0.6-3.6-1.8
			c-0.4-1.2-1-1.7-1-1.7v2.5h-0.4c0,0-0.1-2.4-0.1-2.8c0-0.4-0.3-2.1,0.6-2.9C49.3,231.3,50.5,231.6,50.5,231.6"/>
		<path class="st12" d="M63,229.4c0,0,0.3,0.8,0.9,1.5c0.4,0.6,1.8,2.9,2.4,3.1c0.6,0.2,2.5,0.5,2.6,1.5c0.2,1,0.2,1.8-1.6,1.9
			c-1.8,0.1-3,0.2-3.9-1.1c-0.9-1.3-2.3-2.2-2.3-2.2v3.4h-0.7c0,0-0.3-3.5-0.5-3.8c-0.2-0.2-0.7-2.9,1-4.3S63,229.4,63,229.4"/>
		<path class="st8" d="M49.2,178.8c0,0-2.3,3-3,6.6c-0.6,3.6,0.4,15.6,0.3,17.4c0,1.8-1.7,6.2-1.3,9.5c0.3,3.3,3.1,19.7,3.1,19.7
			l2.1-0.4c0,0-0.2-16.9,0-18.3c0.2-1.4,0.6-6.5,0.7-7.1c0.1-0.6,5.2-15.7,5.2-18.3C56.4,185.3,54.8,174.6,49.2,178.8"/>
		<path class="st8" d="M60.9,180c0,0,3.8,14.6,4.3,16.6c0.5,2,1.1,3.7,1.1,4.5c0,2-0.7,5.2-0.7,5.2L63,229.4h-2.1
			c0,0-1.3-13.5-1.5-16.2s1.5-6.9,1.1-8.1c-0.4-1.2-6.6-14.5-6.6-14.5S49.1,175.8,60.9,180"/>
		<path class="st8" d="M53.4,235.1c0,0-1.6,0.8-3.1-0.3c-1.5-1.1-2-2.8-2-2.8l2.1-0.4L53.4,235.1L53.4,235.1z"/>
		<path class="st8" d="M66.3,234.1c0,0-1.6,0.4-2.3,0c-0.6-0.4-2.8-4-3.5-4.3c0,0,0.7-1.4,2.4-0.4C63,229.4,65.8,233.4,66.3,234.1"
			/>
		<path class="st13" d="M65.8,198.9c0,0-7,4.1-20.2,4.1c0,0-0.7-15.3,1.2-19.5c1.9-4.3,14.6-1.6,14.6-1.6S65.3,195.8,65.8,198.9"/>
		<path class="st12" d="M56.2,156.7c0,0,2,1,2.7,1.1c0.7,0.1,3.5,3.7,3.9,5c0.5,1.3,0,3.3-1,5.6c-1,2.3-0.1,3.1-0.5,5.4
			c-0.5,2.3-0.8,7.1-0.8,8.4c0.1,1.3-11.5,1.5-14.1-0.8c0,0,2.6-4,3-4.5c0.3-0.6,0.1-3.7-0.3-4.4c-0.3-0.8-2.4-7.5-2.4-7.5
			s-1.7-5.2-0.2-6.4c1.3-1,5-1.4,5.6-1.6C53,156.6,54.9,156.5,56.2,156.7"/>
		<path class="st14" d="M56.9,161.3l1.2-1.5L57,156C57,156,56.7,158.1,56.9,161.3"/>
		<path class="st8" d="M53.6,142.3c1.2-0.4,5.7-1.5,6.7,4.2c1,5.7-2.1,9.7-5,8.7s-4.7-5-4.8-8C50.4,144.1,52.1,142.8,53.6,142.3"/>
		<path class="st15" d="M60.4,146.5c0,0,0.2-4.9-4.6-5c-4.8-0.2-6.1,3.8-5.8,6.7c0.4,2.9,2.4,4.4,2.4,4.4s-0.2-2.4,0.8-3
			s4.7-1.8,6.3-4.7C59.5,145,60.3,145.9,60.4,146.5"/>
		<path class="st15" d="M54.3,146c-0.6,1.9-2.5,3.1-4.2,2.5s-2.6-2.6-1.9-4.5c0.6-1.9,2.5-3.1,4.2-2.5C54.1,142,54.9,144,54.3,146"
			/>
		<path class="st8" d="M57.2,154.4c0,0-0.4,3.7-0.3,5c0,0-2.1,2.1-4.5-2.5c0,0,1-1.9,0.2-4.5C51.8,149.8,57.2,154.4,57.2,154.4"/>
		<polygon class="st8" points="56.9,159.3 56.9,161.3 54.4,159.5 		"/>
		<polygon class="st14" points="56.9,161.3 55.9,160 52.4,156.6 51.3,157.7 		"/>
		<path class="st11" d="M52,157c0,0,2.9,4.3,3,6.3c0.1,1.9-1.1,16.2-2,20.8c-1,4.6-7.9-0.5-7.9-0.5s4.7-7.6,2.9-13.6
			c-1.8-6.1-2.4-8.5-2.4-8.5s0.6-3.4,2.8-3.8C50.2,157.2,52,157,52,157"/>
		<path class="st11" d="M63.1,163.4c0,0,0.5,1.8-1.5,5.9c0,0,0,5.2,0.1,6.8c0.1,1.6,0.4,7.7,0.4,7.7l-2,1.2
			c-0.4,0.2-0.9-0.1-0.8-0.6c0.6-4.6,2.4-22.3-1.6-27l1.6,0.5C59.3,157.9,62.1,160.2,63.1,163.4"/>
		<path class="st8" d="M53.6,148.6c-0.2-0.4-0.8-0.6-1.1-0.3c-0.3,0.3-0.5,1,0,2C53.1,151.3,55,152,53.6,148.6"/>
		<polygon class="st16" points="58.1,159.8 59.7,160.3 57,156 		"/>
		<polygon class="st16" points="55.9,160 54.4,161.9 51.5,157 52.4,156.6 		"/>
		<path class="st17" d="M57.1,155.2L57,156c0,0-1.7,0.3-3.9-2.4C53.1,153.6,54.7,155.5,57.1,155.2"/>
		<path class="st8" d="M65.8,178.1c0,0,1,0.6,1.6,0.3c0.5-0.3,1.3-0.3,1.6-0.4c0.3,0,1.4-0.5,1.4,0c0,0.4-1.7,0.8-2,1
			c-0.3,0.2,1.2,0.9,1.3,1.2c0.2,0.4-1.2,2.8-2.2,2.2s-1.6-1.9-1.8-2c-0.2-0.1-0.7-0.4-0.7-0.4L65.8,178.1L65.8,178.1z"/>
		<path class="st8" d="M47,158.3c0,0,1.4-0.3,2.6,0.9c1.2,1.3,1.8,3.4,2.1,4s4.3,7,4.5,7.1s4.2,3.4,6,5.1c1.8,1.7,5.3,3.7,5.3,3.7
			l-1.3,1.9c0,0-10.7-5.7-12.1-7.8c-1.4-2.1-6.8-7.9-6.8-7.9S44,160.4,47,158.3"/>
		<path class="st8" d="M69.5,180c0,0,2.9,2.1,3,2.4c0.1,0.3-0.1,0.5-0.3,0.3c-0.3-0.2-2.8-2-2.8-2s3,3.1,3.1,3.3
			c0.1,0.1-0.2,0.4-0.3,0.4c-0.2-0.1-3.3-3-3.3-3s2.8,2.9,2.8,3.1c0,0.2-0.2,0.4-0.5,0.2c-0.2-0.2-3-2.7-3-2.7s1.9,2.2,1.8,2.4
			c0,0.1-0.2,0.4-0.7-0.2c-0.5-0.6-1.7-1.9-1.7-1.9L69.5,180L69.5,180z"/>
		<path class="st13" d="M62.1,168.3c0,0,0.1,6.5-0.3,9.6l-0.2-8.5L62.1,168.3L62.1,168.3z"/>
		<path class="st11" d="M47.7,157.8c0,0,0.8,0.1,2,1.4c1.2,1.3,1.8,3.4,2.1,4c0.3,0.7,4.3,7,4.5,7.1c0.2,0.1,3.5,2.4,5.3,4.1
			c1.8,1.7,5.2,3.8,5.2,3.8l-1.7,2.6c0,0-9.5-5.2-11-7.2c-1.6-2.1-7.3-8.4-7.3-8.4S43,159.5,47.7,157.8"/>
		<path class="st18" d="M69.3,194c0,0-0.4-1.4-0.8-1.6c-0.5-0.2-0.4,0.3-0.4,0.3s-0.1-0.5-0.5-0.5c-0.4,0-0.3,0.6-0.3,0.6
			s-0.2-0.4-0.6-0.2c-0.4,0.2-0.2,0.7-0.2,0.7s-0.6-0.4-0.7,0.1c-0.2,0.9,0.5,1.7,0.5,1.7s0.2,0.2,0.6,0c0,0,0.4,0.5,0.9-0.1
			c0,0,0.7,0.2,0.8-0.4C68.6,194.7,69.4,194.8,69.3,194"/>
		<path class="st13" d="M54.1,175.1l-3.2-5.2c0,0,2.8,3.3,3,3.6c0.3,0.3,0.3,0.4,0.3,0.4S54.2,174.9,54.1,175.1"/>
		<path class="st8" d="M87.9,187.7c0,0,0.2,1,0.6,2.1c0.2,0.5,0.3,3.8,0.3,4.2c0,0.4-0.3,0.1-0.4-0.1c-0.1-0.1-0.3-1.3-0.5-1.9
			c-0.2-0.5-0.3-0.7-0.4-0.5c-0.1,0.2-0.2,2.3-0.1,3.2s0,3-0.5,2.7c-0.5-0.3-1.6-4.1-1.5-5.5c0.1-1.4,0.6-3.2,0.6-3.2L87.9,187.7
			L87.9,187.7z"/>
		<path class="st19" d="M87.5,189.6c0,0,1.6-10.4,2-12.3c0.2-0.9,0.7-3.1,1-4.9c0.1-0.6,0.2-1.2,0.3-1.8l0,0
			c0.3-2.4,0.4-4.6,0.4-4.6s1.4-6.2-2.6-6.6c0,0-1.1,0.3-1.1,0.8c-0.2,1.7-0.8,5.2-0.8,6.1c0,0.7-1,7.6-1,7.9c0,0.5-0.3,3.7-0.4,5.1
			c-0.2,3.3-0.3,10.7-0.3,10.7L87.5,189.6L87.5,189.6z"/>
		<path class="st20" d="M86.2,233.9c0,0-1.5,1.7-3,2c-1.5,0.4-2.6,0.8-2.6,1.8c0,1,4.4,1.6,6.2,0.6c2.6-1.5,2.9-1,3.2-1.7
			c0.3-0.7-0.3-2.7-0.3-2.9C89.6,233.4,86.2,233.9,86.2,233.9"/>
		<path class="st20" d="M101.6,234.3c0,0-1.1,1.6-2.6,2c-1.5,0.4-2.4,1.1-2.5,2c-0.1,0.9,3.5,2.2,5.9,0.5c1.6-1.1,2.2-1,2.6-1.7
			c0.3-0.7-0.2-2.6-0.1-2.8C104.9,234,101.6,234.3,101.6,234.3"/>
		<path class="st21" d="M86.4,233c0,0-0.2,0.8-0.2,0.8c0,0,3.5,0.4,3.4-0.2c-0.1-0.5-0.2-1.1-0.2-1.1L86.4,233L86.4,233z"/>
		<path class="st21" d="M101.7,233.5c0,0-0.1,0.8,0,0.8c0,0,3.3,0.6,3.3,0c0-0.5-0.2-1.1-0.2-1.1L101.7,233.5L101.7,233.5z"/>
		<path class="st22" d="M89.5,185.8c0,0-1.2,12.1-1.9,16.2c-0.8,4.8-1,8.8-1.2,11.3c-0.3,3.2-0.3,18.7-0.5,19.6
			c-0.2,0.9,4.1,0.3,4.1,0.3s2.1-20.3,2.9-23.6c0.7-3.1,3.5-16.6,4.1-15.7c0.7,0.9,1.5,15.7,2,18.2s2,21.8,2,21.8s3.4,0.7,4.3-0.1
			c0,0,0.4-16.6,0.1-21.3c-0.1-1.8,2.1-21.1-0.7-28.9C103.3,179.4,89.5,185.8,89.5,185.8"/>
		<path class="st23" d="M110.9,187.5c0,0-2.1,0.6-3,0.5c-0.9-0.2-0.4-11-0.5-13.2c0-1.8-1-6.6-1-6.6v0l0,0l0,0
			c-0.1,0.4-1.4,5.4-1.5,7.8c0,2.5,0.3,12,0.3,12l-3.3,1.6l-11.6,0.3l-1.7,0c0,0,0.3-5.6,0.4-7.6c0.1-1.2,0.3-3.4,0.2-5.6
			c0,0,0-2.3-0.2-3.2c0-4.3-0.3-8.5-0.3-8.5c-0.1-1.9-0.2-3.8-0.3-5.5c0.5-0.2,1-0.5,1.5-0.8c1.4-0.7,3.3-1.6,4.6-2.1
			c0.7-0.3,1.4-0.6,1.4-0.6s5-0.5,5.4-0.5c0.1,0,0.8,0.2,1.6,0.5c1.8,0.7,5.2,2,5.7,2.4c0.8,0.6,2.5,14.1,2.6,15.1
			C111.4,175.3,110.9,187.5,110.9,187.5"/>
		<path class="st8" d="M101.4,155.5c-0.4,3.4-4.1,3.4-4.1,3.4s-1.5-1.4-1.5-2.4c0,0,0,0,0-0.1c0-0.2,0.2-0.4,0.3-0.8
			c0-0.1,0-0.1,0-0.2c0-0.1,0-0.1,0-0.2c0-0.3,0-0.5,0-0.7c0-0.1,0-0.1,0-0.2c0-0.1,0-0.1,0-0.1s0.6-0.6,1.4-1.4
			c1.3-1.3,3.2-3,3.2-2.3c0,0,0,0.1,0,0.1C100.2,152.4,101.4,155.5,101.4,155.5"/>
		<path class="st24" d="M101,183.3c0,0,0.3,1.9,0.3,2.4l0.6-0.1c0,0-0.2-2-0.3-2.4L101,183.3L101,183.3z"/>
		<path class="st25" d="M111.5,194.4c0,0-0.2-2.7-0.9-3.1c-0.7-0.4-0.3,0.4-0.3,0.4s0.4,1.9,0.5,2.7
			C110.8,194.5,111.5,194.4,111.5,194.4"/>
		<polygon class="st25" points="104.5,196.3 113.9,193.5 114,205.2 104.7,211 		"/>
		<polygon class="st25" points="104.7,211 105.9,211.2 115,205.3 114.7,193.5 113.9,193.5 		"/>
		<path class="st26" d="M98.8,157.5l-1.6,1.4c0,0,1.8-0.1,2.1-0.4L98.8,157.5z"/>
		<path class="st22" d="M89,188c0,0,7.3,0.6,13.7,0v2.1c0,0-9.6,1.4-14-0.4L89,188z"/>
		<path class="st19" d="M94.5,156.6c-0.4,0.2-0.9,0.4-1.4,0.6c-1.1,0.5-2.3,1-3.2,1.5c-0.5,0.2-1.1,0.5-1.6,0.7
			c0.1,1.7,0.1,3.6,0.3,5.6c0,0,0.1,4.8,0.4,9.4c0.1,0.7,0.1,1.3,0.1,2c-0.1,0.9-0.2,1.9-0.3,2.9v0c0,0.2-0.1,0.5-0.1,0.7v0
			c-0.6,5.1-1.7,11-2.2,12.8c-0.1,0.4,0.3,0.7,0.6,1l2,1.3c0,0,0.8-7.6,1.1-10.2c0.3-2.5,1.1-5.8,1.5-9.1l0,0
			c0.5-4.1,1.1-8.2,1.4-10.6c0.9-6.2,2.1-9,2.1-9L94.5,156.6L94.5,156.6z"/>
		<path class="st19" d="M107.3,174.9c0.2,2.1-0.7,13.6,0.2,13.8c0.9,0.2,4.1-0.6,4.1-0.6s0.4-12.4,0.3-13.7
			c-0.1-0.9-1.6-15.2-2.4-15.8c-0.5-0.3-3.9-1.5-5.5-2.2c-0.3-0.1-0.6-0.2-0.9-0.3c-0.4,0.4-4.1,7.4-4.4,13
			c-0.1,1.7,0.3,5.4,0.6,8.3c0.3,3.2,0.7,5.7,1,8.3c0.5,5.2,0.9,9.4,0.9,9.4l5.2-2.3c0.8-0.4,2-2.1,1.7-3c-1.2-3.4-2.7-9.1-2.7-12.1
			c0,0,0.6-7.2,1-8.8C106.2,168.9,107.1,172.2,107.3,174.9"/>
		<path class="st8" d="M108.2,188.5c0,0-0.3,1.2-0.6,2.3c-0.3,1.2-0.7,1.5-0.5,2.2c0.1,0.5,0.7,0.9,0.8,0.7c0.1-0.2,0.2-2.1,1-2.1
			c0.8,0-0.2,2.4,0.3,2.2s2.3-1.2,2.2-2.2c-0.1-1-0.9-1.7-0.9-3.1c0-1.3-0.4-1.9-0.4-1.9L108.2,188.5L108.2,188.5z"/>
		<path class="st25" d="M108.8,191.5c0,0-1.1,0.3-1,3.9l1.2-0.2c0,0-0.1-2,0.3-3.1C109.4,192.1,109.3,191.4,108.8,191.5"/>
		<path class="st19" d="M107.1,180.7l0.1,9.2c0,0,1.8-0.1,4.4-1l0.2-12.9L107.1,180.7z"/>
		<path class="st23" d="M95.6,157.7c0,0-0.1,1.9,1.5,2s2.9-1.5,2.9-1.5l-2.7,0.7l-1.6-1.4L95.6,157.7L95.6,157.7z"/>
		<path class="st27" d="M101.2,154.9c0,0-1.5,2-2.3,2.6l1.3,2.2l2.3-3.9L101.2,154.9L101.2,154.9z"/>
		<path class="st26" d="M95.9,157.9l1.4,1c0,0-1.2-2.2-1.2-3.2L95.9,157.9L95.9,157.9z"/>
		<polygon class="st27" points="96,155.7 95.1,156.3 94.2,159.3 95.9,157.9 		"/>
		<path class="st28" d="M88.9,170.9c0,0,0.4,3.4,0.2,6.5c-0.2,3.1-1.1,8.1-1.1,8.1S88,174.6,88.9,170.9"/>
		<path class="st8" d="M91.6,145.8c0,0-1,2.4-0.3,2.7c0.5,0.2-0.3,2.6-0.4,2.9c-0.1,0.4,1,0.5,1.2,0.7c0.2,0.2,1.2,3,2.1,3
			c0.9,0,4.6-1.8,5.5-3c0.9-1.2,1.3-6.2,0.4-8.2C99.1,141.9,93.4,141.7,91.6,145.8"/>
		<path class="st29" d="M91.4,146.3c0,0-1.5-2.3,0.6-4.3c2.1-2,6.5,0.7,7,0.8c0.5,0.1,3.3,0.7,2.4,5c-0.8,3.8-0.9,3.9-0.9,3.9
			s-1.1-2-1.6-2.3c-0.8-0.5-2.5-0.2-2.5-0.2s0.6-2.2-0.7-2.4C94.4,146.6,92.6,145.7,91.4,146.3"/>
		<path class="st8" d="M97.6,147.8c0.1-0.3,0.3-1.6,1.4-1c1.1,0.6-0.3,3.1-0.5,3.2C98.3,150.1,96.9,150.3,97.6,147.8"/>
		<path class="st17" d="M99.5,152.4c0,0.1-0.9,2.1-3.5,3.2c0-0.1,0-0.1,0-0.2c0-0.3,0-0.5,0-0.7c0-0.1,0-0.1,0-0.2
			C96,154.5,98.8,153.2,99.5,152.4"/>
	</g>
</g>
</svg>
