<?xml version="1.0" encoding="utf-8"?>
<!-- Generator: Adobe Illustrator 27.8.1, SVG Export Plug-In . SVG Version: 6.00 Build 0)  -->
<svg version="1.1" id="Capa_1" xmlns="http://www.w3.org/2000/svg" xmlns:xlink="http://www.w3.org/1999/xlink" x="0px" y="0px"
	 viewBox="0 0 1366 425" style="enable-background:new 0 0 1366 425;" xml:space="preserve">
<style type="text/css">
	.st0{fill:#912E42;}
	.st1{fill:#963747;}
	.st2{fill:#BFCFF6;}
	.st3{fill:#DCE4FB;}
	.st4{fill:#D2B179;}
	.st5{fill:#1A322D;}
	.st6{fill:#FFFFFF;}
	.st7{fill:#D1AC6E;}
	.st8{fill:#F5E8FC;}
	.st9{fill:#D2AF78;}
	.st10{fill:#666666;}
	.st11{fill:#E6E6E6;}
	.st12{fill:#CCCCCC;}
	.st13{opacity:0.6;fill:#FFFFFF;enable-background:new    ;}
	.st14{fill:url(#SVGID_1_);}
	.st15{fill:url(#SVGID_00000087393116668099558110000006147158978625629116_);}
	.st16{fill:url(#SVGID_00000004533381204566634940000003315051393446771086_);}
	.st17{fill:url(#SVGID_00000054956313559232436220000008878875094880507327_);}
	.st18{fill:#25117D;}
	.st19{fill:#B1B1B1;}
	.st20{fill:#E9E9E9;}
	.st21{fill:url(#SVGID_00000093168217938175260520000004157655462130899340_);}
	.st22{fill:url(#SVGID_00000139259449665307995690000008484127855063054268_);}
	.st23{fill:url(#SVGID_00000076577906050742864660000018313332964994114714_);}
	.st24{fill:url(#SVGID_00000052104355253808745880000011858644141054225585_);}
	.st25{fill:url(#SVGID_00000127016325218495434840000000100884072770189749_);}
	.st26{fill:url(#SVGID_00000062167165457513508890000011442400734934802607_);}
	.st27{fill:url(#SVGID_00000145043361608469129220000005798408893383853719_);}
	.st28{fill:url(#SVGID_00000137821468370727801610000012870437375313453451_);}
	.st29{fill:url(#SVGID_00000034799935008911184120000005984584825213329324_);}
	.st30{fill:url(#SVGID_00000057838771977313885880000006045072417985065132_);}
	.st31{fill:url(#SVGID_00000014620731588181548810000015040371736575976637_);}
	.st32{fill:url(#SVGID_00000052099694454389042710000015854908312571612063_);}
	.st33{fill:url(#SVGID_00000091729132836592869270000014654856985120984742_);}
	.st34{fill:url(#SVGID_00000042011783523187759300000001442975508638538136_);}
	.st35{fill:url(#SVGID_00000142892335074415698240000007163327562882010008_);}
	.st36{fill:#CC9B51;}
	.st37{fill:url(#SVGID_00000097470236470555025640000010860760609239269033_);}
	.st38{fill:url(#SVGID_00000155853913595266624800000016469693800177162125_);}
	.st39{fill:url(#SVGID_00000070811808757259830690000007557887984952526258_);}
	.st40{fill:url(#SVGID_00000038404200717233174870000017517917696752071085_);}
	.st41{fill:url(#SVGID_00000100358912132431385480000006437746601057437088_);}
	.st42{fill:#0C1412;}
	.st43{fill:#ACBCB8;}
	.st44{fill:#455E58;}
	.st45{enable-background:new    ;}
	.st46{fill:#DDC9A3;}
</style>
<rect y="-1" class="st0" width="1367" height="427"/>
<g>
	<path class="st1" d="M1162.2,86.7c8.8,2.6,21.9,14.5,33.4,33.4c14.2,23.3,22.6,25.3,42.6,13.9c20-11.5,43.6-3.8,60.6,26.8
		s-12.8,54.3-40.4,91.5s27.6,27.6,45.4,71.1c17.9,43.5-7.3,92.2-90.3,91.7c-83.1-0.6-208.7,0.5-208.7,0.5s-116.5,10.3-158.9-16.3
		c-42.4-26.6,9.8-39.5-29.7-56.4s-80.6-18.1-63.4-62c17.3-43.9,41.7-34.8,57.4-46.5c15.8-11.7,25.2-24.5,2.7-45.4
		s-39.8-35-28.4-62.6c16.3-39.7,56-44.8,99.6-28s51,38.4,122.9,25.9C1047,117.2,1087.4,64.5,1162.2,86.7z"/>
	<g>
		<path class="st2" d="M1141.6,407.7c0.3,0.5,1.1,0.2,1-0.4c-2-8.8-6.5-37.1,14.4-50.7c24.4-15.9,66.5-22.7,40.7-118.5
			c-0.9-3.5-5-5.1-8.1-3.2c-14.4,8.7-48.8,32.9-50.6,65c-2.3,40.6,4.7,49.1,1.1,64.1C1133.8,390.3,1138.7,403,1141.6,407.7z"/>
		<g>
			<path class="st2" d="M1130.5,409.8c-0.1,0.4-0.7,0.3-0.6-0.1c2.3-15.8,8.8-65.5,7-105.2c-2.3-47.9-10.8-68.9-14.5-93.3
				s11.7-55.3,53.1-45.3c33.8,8.1,60.3,13.7,72.7,11.9c2.4-0.3,4.2,2.2,3.1,4.3c-7.1,14.2-26.5,46.3-57.1,48.9
				c-39.3,3.3-39.9-7.5-48.1,3s-7.9,20.7-7.2,39.9C1139.4,292.4,1142,365.4,1130.5,409.8z"/>
			<path class="st3" d="M1135.4,258.2c-1.2-3-2.1-5.9-2.9-8.9s-1.4-6.1-1.9-9.2c-0.9-6.2-1.1-12.5,0.1-18.8c0.6-3.1,1.5-6.2,2.8-9.1
				c1.3-2.9,3-5.7,5.1-8.1c2.1-2.4,4.6-4.5,7.3-6.2c1.3-0.8,2.6-1.7,4-2.4c1.3-0.8,2.7-1.5,4.1-2.2c2.8-1.4,5.7-2.6,8.7-3.6
				s6-1.7,9.1-2.2s6.2-0.7,9.3-0.7c3.1,0,6.2,0.2,9.3,0.5c6.2,0.6,12.2,1.5,18.3,1.8c6.1,0.3,12.2,0,18.2-1l0,0
				c0.3,0,0.5,0.1,0.6,0.4c0,0.3-0.1,0.5-0.4,0.6c-6.1,1.2-12.3,1.7-18.5,1.5s-12.3-0.9-18.4-1.4s-12.2-0.6-18.2,0.4
				c-3,0.5-5.9,1.2-8.8,2.2s-5.6,2.2-8.3,3.6c-1.3,0.7-2.7,1.4-4,2.2c-1.3,0.7-2.6,1.6-3.9,2.4c-2.5,1.7-4.8,3.5-6.7,5.8
				c-3.9,4.5-6.2,10.1-7.3,16c-1.1,5.9-0.9,12-0.1,18c0.4,3,1,6,1.7,8.9s1.6,5.9,2.7,8.6l0,0c0.2,0.6-0.1,1.3-0.7,1.5
				C1136.3,259.1,1135.6,258.8,1135.4,258.2z"/>
		</g>
		<g>
			<path class="st2" d="M1137.7,406.7c-0.2,0.3-0.7,0.1-0.6-0.3c2.1-5.6,6.6-20.1,5.5-39.2c-1.4-24.6-19.4-83.9,27.2-94.6
				c41.1-9.5,65.4-11.5,76.8-19.5c1.7-1.2,3.9,0.1,3.9,2.1c-0.5,14.7-4.4,53.5-30.1,63.1c-31.9,12-62.8-1.1-73,10.3
				C1137.6,339.8,1154.2,382.5,1137.7,406.7z"/>
			<path class="st3" d="M1140.4,337.6c-0.2-2.7-0.2-5.3-0.2-7.9c0.1-2.6,0.2-5.3,0.5-7.9c0.6-5.3,1.5-10.5,3.1-15.6
				c0.8-2.6,1.8-5.1,2.9-7.5s2.5-4.8,4-7c1.6-2.2,3.4-4.3,5.4-6.2l1.6-1.3c0.3-0.2,0.5-0.5,0.8-0.6l0.9-0.6c0.6-0.4,1.1-0.8,1.7-1.1
				l1.8-1l0.5-0.3l0.5-0.2l0.9-0.4c0.6-0.3,1.2-0.6,1.9-0.8l2-0.7c0.7-0.2,1.3-0.4,2-0.5c2.6-0.7,5.3-1.1,8-1.3
				c5.4-0.4,10.7,0.3,15.9,0.9c5.1,0.7,10.2,1.2,15.2,0.4c5-0.7,9.8-2.8,14.2-5.5l0,0c0.2-0.1,0.5-0.1,0.6,0.1s0.1,0.4-0.1,0.6
				c-2.1,1.6-4.3,3-6.7,4.2c-2.4,1.2-4.9,2.1-7.6,2.7c-2.6,0.6-5.3,0.8-8,0.8s-5.3-0.2-7.9-0.4c-2.6-0.2-5.2-0.5-7.7-0.6
				c-2.6-0.1-5.1-0.1-7.6,0.1s-5,0.7-7.4,1.3c-0.6,0.2-1.2,0.3-1.8,0.5l-1.7,0.6c-0.6,0.2-1.1,0.5-1.7,0.7l-0.8,0.4l-0.4,0.2
				l-0.4,0.2l-1.6,0.9c-0.5,0.3-1,0.7-1.5,1l-0.8,0.5c-0.3,0.2-0.5,0.4-0.7,0.6l-1.4,1.2c-1.8,1.7-3.4,3.5-4.9,5.6
				c-2.9,4.1-5,8.7-6.6,13.5c-0.8,2.4-1.5,4.9-2,7.4c-0.6,2.5-1,5-1.4,7.6c-0.7,5.1-1.1,10.3-1,15.3l0,0c0,0.7-0.5,1.2-1.2,1.2
				C1140.9,338.7,1140.4,338.2,1140.4,337.6z"/>
		</g>
		<g>
			<path class="st4" d="M939.4,316.9c0,0,1.5-40.6-17-51.7s-54-18.4-54.5-76.8c-0.3-34.1-0.9-49.1-1.4-55.6
				c-0.2-2.5,2.1-4.6,4.6-4.1c17.7,3.6,75,18.2,86.5,57.6C971.3,233.1,939.4,316.9,939.4,316.9z"/>
			<path class="st3" d="M884.5,145.2c1.4,1.3,2.7,2.5,3.9,3.8c0.6,0.6,1.3,1.3,1.9,2c0.6,0.7,1.3,1.3,1.9,2c1.2,1.3,2.5,2.7,3.7,4.1
				l1.8,2.1l1.8,2.1l1.8,2.1l1.7,2.1c1.1,1.4,2.3,2.9,3.4,4.3c2.2,2.9,4.3,5.9,6.4,8.9c2,3,4.1,6.1,6,9.2l1.5,2.3l0.7,1.2l0.7,1.2
				l2.8,4.8l0.7,1.2l0.6,1.2l1.3,2.4l1.3,2.4l0.6,1.2l0.6,1.2c1.6,3.3,3.3,6.5,4.7,10c0.4,0.8,0.7,1.7,1.1,2.6
				c0.3,0.9,0.7,1.7,1,2.6l0.9,2.6l0.5,1.3l0.4,1.3l0.9,2.6l0.8,2.7c0.5,1.8,0.9,3.6,1.4,5.3c1.7,7.2,2.9,14.4,3.6,21.8
				c0.7,7.3,0.9,14.7,0.6,22c-0.2,3.7-0.4,7.3-0.8,11c-0.4,3.7-0.9,7.3-1.6,10.9c-0.1,0.7-0.8,1.1-1.4,1c-0.6-0.1-1.1-0.7-1-1.4
				v-0.1c1-7.1,1.5-14.3,1.5-21.5c0.1-7.2-0.3-14.4-1-21.6c-0.8-7.1-2-14.2-3.7-21.2c-1.8-6.9-3.9-13.8-6.7-20.4
				c-5.7-13.2-12.8-25.9-20.6-38l-3-4.5c-1-1.5-2.1-3-3.1-4.5s-2.1-2.9-3.2-4.4l-1.6-2.2l-1.7-2.1c-4.4-5.8-9-11.4-13.9-16.6l0,0
				c-0.3-0.3-0.2-0.7,0-1C883.9,144.9,884.3,144.9,884.5,145.2z"/>
		</g>
		<g>
			<path class="st2" d="M944.9,405.1c2.9,1.4-27.4-36.4-37.1-95.9c-4.6-28-4.8-63.2-20.8-76.7c-13.3-11.2-58.6-3.9-73.4-1.2
				c-1.8,0.3-2.5,2.7-1,3.9c7.1,5.9,22.4,19.9,26.4,34.1c5.3,18.7,23.1,30.5,39,33.6c15.9,3.2,24.8,6.2,32.6,31.7
				C918.5,360,936.7,401.1,944.9,405.1z"/>
			<path class="st3" d="M834.5,239.2c9.6,0.4,19,2.7,27.7,6.8c4.4,2,8.5,4.6,12.2,7.7s7,6.8,9.6,10.8l1,1.5c0.3,0.5,0.6,1.1,0.9,1.6
				c0.3,0.5,0.6,1.1,0.9,1.6l0.8,1.6c1.1,2.1,2.1,4.2,3.2,6.4c2.1,4.3,4.1,8.6,6,12.9c3.9,8.7,7.5,17.5,10.5,26.5
				c0.1,0.2,0,0.5-0.3,0.6c-0.2,0.1-0.5,0-0.6-0.3l0,0c-1.8-4.4-3.7-8.7-5.6-13c-1.9-4.3-3.9-8.6-5.9-12.9s-4.1-8.5-6.2-12.8
				c-1-2.1-2.1-4.2-3.2-6.3l-0.8-1.6c-0.3-0.5-0.6-1-0.8-1.5c-0.3-0.5-0.5-1-0.8-1.5l-0.9-1.5c-2.5-3.9-5.6-7.4-9.1-10.4
				c-1.8-1.5-3.6-2.9-5.6-4.2l-0.7-0.5l-0.7-0.5c-0.5-0.3-1-0.6-1.5-0.9c-1-0.6-2-1.2-3.1-1.7c-4.1-2.1-8.6-3.8-13.1-5.1
				s-9.2-2.2-13.8-2.7l0,0c-0.2,0-0.4-0.2-0.3-0.4C834.2,239.3,834.3,239.2,834.5,239.2z"/>
		</g>
		<g>
			<path class="st2" d="M930.6,420.3c1.7,0.9-9.6-18.6-10.5-35.8c-0.9-17.2-4.7-46.5-19.6-64.1c-14.8-17.6-31.1-19.2-51.5-3.2
				c-17,13.3-27.7,20-33.9,21.3c-1.5,0.3-2.3,2.1-1.6,3.4c4,7.4,15.3,24.3,34.3,23.1c24.2-1.5,53.6-17.3,62.5-4.1
				c8.9,13.1,7.8,20.5,8.1,26.7C918.7,393.8,919.3,414.3,930.6,420.3z"/>
			<path class="st3" d="M855.9,338.3c1.3-1.3,2.7-2.4,4.2-3.6c1.5-1.1,3-2.2,4.5-3.1c3.1-1.9,6.5-3.6,10-4.8c1.8-0.6,3.6-1,5.5-1.2
				s3.8-0.3,5.7,0c0.5,0.1,1,0.1,1.4,0.2c0.5,0.1,1,0.2,1.4,0.3l2.7,0.8l2.6,1l2.5,1.2c3.3,1.8,6.3,4.1,8.9,6.9
				c2.5,2.8,4.5,6,6.1,9.3c0.4,0.8,0.8,1.7,1.1,2.5c0.3,0.9,0.7,1.7,1,2.6l0.9,2.6c0.3,0.9,0.5,1.8,0.8,2.6c1,3.5,1.7,7.1,2.3,10.7
				c0,0.2-0.1,0.4-0.4,0.5c-0.2,0-0.4-0.1-0.5-0.3l0,0c-0.9-3.5-1.7-7-2.9-10.4c-0.5-1.7-1.2-3.4-1.8-5.1c-0.3-0.8-0.7-1.6-1.1-2.5
				c-0.3-0.8-0.8-1.6-1.2-2.4c-1.7-3.2-3.7-6.1-6-8.7c-2.4-2.6-5.2-4.7-8.3-6.3l-2.4-1.1l-2.5-0.9l-2.5-0.8
				c-0.4-0.1-0.8-0.2-1.2-0.3c-0.4-0.1-0.8-0.1-1.3-0.2c-1.7-0.2-3.4-0.2-5.1,0c-1.7,0.2-3.4,0.5-5.1,1c-3.4,1-6.7,2.4-9.8,4.1
				c-1.6,0.9-3.1,1.8-4.6,2.7c-1.5,1-3,2-4.4,3.1l0,0c-0.2,0.1-0.5,0.1-0.6-0.1C855.7,338.7,855.8,338.5,855.9,338.3z"/>
		</g>
	</g>
	<g>
		<g>
			<path class="st5" d="M936,99.4l189.4,2.1c10.5,0.1,18.7,9.2,18.7,20.5l-0.2,280.8c0,7.9-6.4,14.4-14,14.4l-203.1,0.9
				c-7.2,0-13-6-13-13.3V123.3C913.8,110,923.7,99.2,936,99.4z"/>
			<path class="st6" d="M1109.6,126.3H950.4c-6.7,0-12,5.5-12,12v231.8c0,6.5,5.4,11.5,12,11.5h159.2c6.7,0,12.1-5,12.1-11.5V138.3
				C1121.8,131.8,1116.3,126.3,1109.6,126.3z"/>
		</g>
		<g>
			<path class="st5" d="M1020.3,323.8v-10.2c-10.6-0.4-21.2-2.9-28.6-6.2c-2.7-1.2-4-4.2-3.3-7l2.6-9.5c1-3.5,4.7-5.3,8.1-3.9
				c7.4,3.1,16.6,5.6,26.4,5.6c10.2,0,17.9-3.5,17.9-10.6c0-6.4-5.9-10.2-20.1-14.1c-20.3-5.6-34.9-14.4-34.9-32.3
				c0-16.1,11.8-28.5,32.3-31.8v-10.2c0-3.3,2.7-5.9,5.9-5.9h6c3.3,0,5.9,2.7,5.9,5.9v9.2c9.8,0.4,17,2.1,22.7,4.1
				c2.9,1,4.5,4.2,3.7,7.1l-2.4,8.8c-0.9,3.4-4.5,5.2-7.8,4c-5.2-2-12.6-4-22.2-4c-12.2,0-15.6,5-15.6,9.5c0,5.6,7.3,9.4,23.1,14.2
				c22.6,6.8,31.9,16.1,31.9,33c0,15.4-11.5,29.3-33.7,32.8v11.4c0,3.3-2.7,5.9-5.9,5.9h-6C1023,329.7,1020.3,327.1,1020.3,323.8z"
				/>
		</g>
	</g>
	<g>
		<g>
			<path class="st7" d="M1241.4,222.9h-128.2c-5.2,0-9.5-4-10-9.1l-8.1-85.7c-0.6-5.8,4-10.9,9.8-11l136.3-2.6
				c5.6-0.1,10.3,4.4,10.3,10.1v88.3C1251.4,218.4,1246.9,222.9,1241.4,222.9z"/>
			<path class="st8" d="M1103.2,135.7l5.7,74.1c0.2,3.2,2.9,5.7,6.1,5.7l123,1.3c3.5,0,6.3-2.8,6.3-6.2v-79.8c0-3.5-2.9-6.3-6.4-6.2
				l-128.8,4.4C1105.7,129.1,1103,132.2,1103.2,135.7z"/>
			<path class="st7" d="M1168.9,135.1l69.4-2.1c0.7,0,1.3,0.5,1.3,1.3v1.1c0,0.7-0.6,1.3-1.2,1.3l-69.4,1c-0.7,0-1.3-0.6-1.3-1.3
				l0,0C1167.7,135.6,1168.2,135.1,1168.9,135.1z"/>
			<path class="st7" d="M1167.7,142.1v0.5c0,0.7,0.6,1.3,1.3,1.3h69.4c0.7,0,1.3-0.6,1.3-1.3v-0.5c0-0.7-0.6-1.3-1.3-1.3H1169
				C1168.3,140.9,1167.7,141.4,1167.7,142.1z"/>
			<g>
				<path class="st7" d="M1150.8,204.5c-0.3,0-0.6-0.3-0.6-0.6v-1.7c0-0.3,0.3-0.6,0.6-0.6l0,0c0.3,0,0.6,0.3,0.6,0.6v1.7
					C1151.3,204.3,1151.1,204.5,1150.8,204.5L1150.8,204.5z M1150.7,198.9c-0.3,0-0.6-0.3-0.6-0.6v-1.7c0-0.3,0.3-0.6,0.6-0.6l0,0
					c0.3,0,0.6,0.3,0.6,0.6v1.7C1151.3,198.6,1151.1,198.9,1150.7,198.9L1150.7,198.9z M1150.7,193.2c-0.3,0-0.6-0.3-0.6-0.6v-1.7
					c0-0.3,0.3-0.6,0.6-0.6l0,0c0.3,0,0.6,0.3,0.6,0.6v1.7C1151.3,193,1151,193.2,1150.7,193.2L1150.7,193.2z M1150.7,187.6
					c-0.3,0-0.6-0.3-0.6-0.6v-1.7c0-0.3,0.3-0.6,0.6-0.6l0,0c0.3,0,0.6,0.3,0.6,0.6v1.7C1151.3,187.3,1151,187.5,1150.7,187.6
					L1150.7,187.6z"/>
			</g>
			<g>
				<path class="st7" d="M1179.2,202.9c-0.3,0-0.6-0.3-0.6-0.6v-1.7c0-0.3,0.3-0.6,0.6-0.6s0.6,0.3,0.6,0.6v1.7
					C1179.8,202.7,1179.5,202.9,1179.2,202.9z M1179.2,197.3c-0.3,0-0.6-0.3-0.6-0.6V195c0-0.3,0.3-0.6,0.6-0.6s0.6,0.3,0.6,0.6v1.7
					C1179.8,197,1179.5,197.3,1179.2,197.3z M1179.2,191.6c-0.3,0-0.6-0.3-0.6-0.6v-1.7c0-0.3,0.3-0.6,0.6-0.6s0.6,0.3,0.6,0.6v1.7
					C1179.8,191.3,1179.5,191.6,1179.2,191.6z M1179.2,185.9c-0.3,0-0.6-0.3-0.6-0.6v-1.7c0-0.3,0.3-0.6,0.6-0.6s0.6,0.3,0.6,0.6
					v1.7C1179.8,185.7,1179.5,185.9,1179.2,185.9z M1179.2,180.3c-0.3,0-0.6-0.3-0.6-0.6V178c0-0.3,0.3-0.6,0.6-0.6s0.6,0.3,0.6,0.6
					v1.7C1179.8,180,1179.5,180.3,1179.2,180.3z"/>
			</g>
			<g>
				<path class="st7" d="M1200.9,207.6c-0.3,0-0.6-0.2-0.6-0.5v-1c0-0.3,0.2-0.6,0.5-0.6s0.6,0.2,0.6,0.5v1
					C1201.4,207.3,1201.2,207.6,1200.9,207.6L1200.9,207.6z M1200.7,202.6c-0.3,0-0.6-0.2-0.6-0.5l-0.1-1.7c0-0.3,0.2-0.6,0.5-0.6
					s0.6,0.2,0.6,0.5l0.1,1.7C1201.3,202.4,1201,202.6,1200.7,202.6L1200.7,202.6z M1200.5,197c-0.3,0-0.6-0.2-0.6-0.5l-0.1-1.7
					c0-0.3,0.2-0.6,0.5-0.6s0.6,0.2,0.6,0.5l0.1,1.7C1201.1,196.7,1200.9,197,1200.5,197C1200.6,197,1200.5,197,1200.5,197z
					 M1200.4,191.3c-0.3,0-0.6-0.2-0.6-0.5l-0.1-1.7c0-0.3,0.2-0.6,0.5-0.6s0.6,0.2,0.6,0.5l0.1,1.7
					C1200.9,191,1200.7,191.3,1200.4,191.3L1200.4,191.3z M1200.2,185.6c-0.3,0-0.6-0.2-0.6-0.5l-0.1-1.7c0-0.3,0.2-0.6,0.5-0.6
					s0.6,0.2,0.6,0.5l0.1,1.7C1200.8,185.4,1200.5,185.6,1200.2,185.6L1200.2,185.6z M1200,180c-0.3,0-0.6-0.2-0.6-0.5l-0.1-1.7
					c0-0.3,0.2-0.6,0.5-0.6s0.6,0.2,0.6,0.5l0.1,1.7C1200.6,179.7,1200.3,180,1200,180L1200,180z M1199.8,174.3
					c-0.3,0-0.6-0.2-0.6-0.5l-0.1-1.7c0-0.3,0.2-0.6,0.5-0.6s0.6,0.2,0.6,0.5l0.1,1.7C1200.4,174.1,1200.2,174.3,1199.8,174.3
					C1199.9,174.3,1199.8,174.3,1199.8,174.3z"/>
			</g>
			<g>
				<path class="st7" d="M1221.5,204.4c-0.3,0-0.6-0.3-0.6-0.6v-1.7c0-0.3,0.3-0.6,0.6-0.6c0.3,0,0.6,0.3,0.6,0.6v1.7
					C1222.1,204.2,1221.8,204.4,1221.5,204.4z M1221.5,198.8c-0.3,0-0.6-0.3-0.6-0.6v-1.7c0-0.3,0.3-0.6,0.6-0.6
					c0.3,0,0.6,0.3,0.6,0.6v1.7C1222.1,198.5,1221.8,198.8,1221.5,198.8z M1221.5,193.1c-0.3,0-0.6-0.3-0.6-0.6v-1.7
					c0-0.3,0.3-0.6,0.6-0.6c0.3,0,0.6,0.3,0.6,0.6v1.7C1222.1,192.9,1221.8,193.1,1221.5,193.1z M1221.5,187.4
					c-0.3,0-0.6-0.3-0.6-0.6v-1.7c0-0.3,0.3-0.6,0.6-0.6c0.3,0,0.6,0.3,0.6,0.6v1.7C1222.1,187.2,1221.8,187.4,1221.5,187.4z
					 M1221.5,181.8c-0.3,0-0.6-0.3-0.6-0.6v-1.7c0-0.3,0.3-0.6,0.6-0.6c0.3,0,0.6,0.3,0.6,0.6v1.7
					C1222.1,181.5,1221.8,181.8,1221.5,181.8z M1221.5,176.1c-0.3,0-0.6-0.3-0.6-0.6v-1.7c0-0.3,0.3-0.6,0.6-0.6
					c0.3,0,0.6,0.3,0.6,0.6v1.7C1222.1,175.9,1221.8,176.1,1221.5,176.1z M1221.5,170.5c-0.3,0-0.6-0.3-0.6-0.6v-1.7
					c0-0.3,0.3-0.6,0.6-0.6c0.3,0,0.6,0.3,0.6,0.6v1.7C1222.1,170.2,1221.8,170.5,1221.5,170.5z M1221.5,164.8
					c-0.3,0-0.6-0.3-0.6-0.6v-1.7c0-0.3,0.3-0.6,0.6-0.6c0.3,0,0.6,0.3,0.6,0.6v1.7C1222.1,164.5,1221.8,164.8,1221.5,164.8z
					 M1221.5,159.1c-0.3,0-0.6-0.3-0.6-0.6v-1.7c0-0.3,0.3-0.6,0.6-0.6c0.3,0,0.6,0.3,0.6,0.6v1.7
					C1222.1,158.9,1221.8,159.1,1221.5,159.1z"/>
			</g>
			<g>
				<path class="st7" d="M1120.3,211.1c-0.4,0-0.8-0.3-0.8-0.8l-5.8-68.5c0-0.5,0.3-0.9,0.8-0.9s0.9,0.3,0.9,0.8l5.8,68.5
					C1121.2,210.7,1120.9,211.1,1120.3,211.1C1120.4,211.1,1120.3,211.1,1120.3,211.1z"/>
				<g>
					<polygon class="st7" points="1111.9,145.3 1114.6,142.2 1117.7,144.9 1117.5,142.4 1114.3,139.8 1111.7,142.9 					"/>
				</g>
			</g>
			<g>
				<path class="st7" d="M1235.3,207.9h-119.4c-0.5,0-0.8-0.4-0.8-0.8c0-0.5,0.4-0.8,0.8-0.8h119.4c0.5,0,0.8,0.4,0.8,0.8
					C1236.2,207.5,1235.8,207.9,1235.3,207.9z"/>
				<g>
					<polygon class="st7" points="1231.9,209.9 1234.8,207 1231.9,204.2 1234.4,204.2 1237.3,207 1234.4,209.9 					"/>
				</g>
			</g>
			<g>
				<path class="st7" d="M1125.3,188.2c-0.4,0-0.8-0.3-0.8-0.7c-0.1-0.5,0.3-0.9,0.7-1c0.6-0.1,63.2-8.6,97.4-33.9
					c0.4-0.3,0.9-0.2,1.2,0.2c0.3,0.4,0.2,0.9-0.2,1.2C1189,179.5,1126.1,188.1,1125.3,188.2L1125.3,188.2z"/>
			</g>
			<g>
				<path class="st7" d="M1223.3,157.8L1223.3,157.8c-0.5,0-0.9-0.4-0.8-0.9l0.3-3.3l-4.7-0.3c-0.5,0-0.8-0.4-0.8-0.9
					s0.4-0.8,0.9-0.8l5.6,0.3c0.2,0,0.4,0.1,0.6,0.3c0.1,0.2,0.2,0.4,0.2,0.6l-0.3,4.2C1224.1,157.5,1223.8,157.8,1223.3,157.8z"/>
			</g>
		</g>
	</g>
	<g>
		<path class="st9" d="M780.4,168.5l67.8-36.2c3.7-2,8.4-0.7,10.6,2.9l57.5,95.6c1.7,2.8,0.7,6.5-2.2,8.2l-76.9,42.9
			c-2.7,1.5-6.2,0.5-7.6-2.2l-52.8-98.9C774.3,176.3,775.9,170.8,780.4,168.5z"/>
		<g>
			<path class="st10" d="M780.1,167.6c9.9-3.7,43.8-16.8,69.1-32.9c1.2-0.7,2.7-0.4,3.4,0.8l58,95.9c0.8,1.3,0.4,3-0.9,3.8
				c-10.7,6.6-55,33.5-72.1,40.4c-1,0.4-2.2,0-2.8-1l-56-103.4C778,169.9,778.6,168.1,780.1,167.6z"/>
			<path class="st6" d="M782.5,169.6c9.6-3.6,42.2-16.2,66.5-31.7c1.1-0.7,2.6-0.4,3.3,0.8L908,231c0.8,1.3,0.4,2.9-0.9,3.7
				c-10.3,6.3-52.9,32.2-69.4,38.9c-1,0.4-2.2,0-2.7-1l-53.9-99.5C780.4,171.8,781.1,170.1,782.5,169.6z"/>
			<path class="st11" d="M852.5,146.8c0.5-0.3,0.7-0.8,0.5-1.1c-0.2-0.4-0.8-0.4-1.3-0.2l-57.3,30c-0.5,0.3-0.5,0.7,0,0.9l0.6,0.2
				c0.5,0.2,1.3,0.2,1.8-0.1L852.5,146.8z"/>
			<path class="st11" d="M796.4,179.3c-0.5,0.3-0.5,0.7,0,0.9l0.6,0.2c0.5,0.2,1.3,0.2,1.8-0.1l55.7-29.8c0.5-0.3,0.7-0.8,0.5-1.1
				c-0.2-0.4-0.8-0.4-1.3-0.2L796.4,179.3z"/>
			<path class="st6" d="M824.5,208.7L824.5,208.7l-7.6,4.3c-1.1,0.6-2.4,0.4-3.1-0.5l-4.3-5.9c-0.3-0.4-0.4-0.8-0.3-1.2
				c0.1-0.5,0.4-0.9,0.8-1.2l0,0c0.6-0.4,1.4-1,2.3-1.6c2-1.4,4.2-2.9,5.6-3.8l0,0c1-0.6,2.2-0.5,2.9,0.3c1.2,1.2,2.8,4,4.4,6.9
				C826,206.8,825.5,208.1,824.5,208.7z M810.5,204.6c-0.3,0.2-0.5,0.5-0.5,0.8s0,0.5,0.1,0.7l4.3,5.9c0.5,0.6,1.4,0.8,2.2,0.3
				l7.5-4.2l0,0c0.7-0.4,1-1.3,0.7-1.9c-1.6-2.9-3.1-5.6-4.2-6.8c-0.5-0.5-1.4-0.6-2.1-0.2c-1.4,0.8-3.7,2.4-5.6,3.7
				C812,203.6,811.1,204.2,810.5,204.6L810.5,204.6z"/>
			<path class="st11" d="M811.7,204.8c1.5-1,4.7-3.3,6.3-4.3c0.7-0.4,1.5-0.3,2,0.2c1,1,2.3,3.3,3.4,5.5c0.4,0.6,0.1,1.5-0.7,1.9
				l-6,3.4c-0.7,0.4-1.6,0.3-2.1-0.3l-3.4-4.7C811,205.8,811.1,205.1,811.7,204.8z"/>
			<path class="st11" d="M827.6,198.2c-0.5,0.3-0.6,0.8-0.2,1.2l1.7,1.7c0.4,0.4,1.1,0.5,1.6,0.2l37.2-21.4c0.5-0.3,0.6-0.9,0.4-1.4
				l-0.6-1c-0.3-0.5-0.9-0.6-1.4-0.4L827.6,198.2z"/>
			<path class="st5" d="M812.6,205.6L812.6,205.6c0.4-0.6,1.2-0.9,1.8-0.5l3,1.8c0.3,0.2,0.7-0.1,0.6-0.4l-1-10.3
				c-0.1-0.5,0.6-0.7,0.9-0.3c1.4,2.5,3.5,7.6,1.8,13.9c0,0-2.7,0.4-6.7-2.5C812.4,207,812.2,206.2,812.6,205.6z"/>
			<path class="st6" d="M815.5,191.4L815.5,191.4l-7.6,4.3c-1.1,0.6-2.4,0.4-3.1-0.5l-4.3-5.9c-0.3-0.4-0.4-0.8-0.3-1.2
				c0.1-0.5,0.4-0.9,0.8-1.2l0,0c0.6-0.4,1.4-1,2.3-1.6c2-1.4,4.2-2.9,5.6-3.8l0,0c1-0.6,2.2-0.5,2.9,0.3c1.2,1.2,2.8,4,4.4,6.9
				C817,189.6,816.5,190.8,815.5,191.4z M801.5,187.4c-0.3,0.2-0.5,0.5-0.5,0.8s0,0.5,0.1,0.7l4.3,5.9c0.5,0.6,1.4,0.8,2.2,0.3
				l7.5-4.2l0,0c0.7-0.4,1-1.3,0.7-1.9c-1.6-2.9-3.1-5.6-4.2-6.8c-0.5-0.5-1.4-0.6-2.1-0.2c-1.4,0.8-3.7,2.4-5.6,3.7
				C803,186.4,802.1,187,801.5,187.4L801.5,187.4z"/>
			<path class="st11" d="M802.7,187.5c1.5-1,4.7-3.3,6.3-4.3c0.7-0.4,1.5-0.3,2,0.2c1,1,2.3,3.3,3.4,5.5c0.4,0.6,0.1,1.5-0.7,1.9
				l-6,3.4c-0.7,0.4-1.6,0.3-2.1-0.3l-3.4-4.7C802,188.6,802.1,187.9,802.7,187.5z"/>
			<path class="st11" d="M818.6,181c-0.5,0.3-0.6,0.8-0.2,1.2l1.7,1.7c0.4,0.4,1.1,0.5,1.6,0.2l37.2-21.4c0.5-0.3,0.6-0.9,0.4-1.4
				l-0.6-1c-0.3-0.5-0.9-0.6-1.4-0.4L818.6,181z"/>
			<path class="st5" d="M803.6,188.3L803.6,188.3c0.4-0.6,1.2-0.9,1.8-0.5l3,1.8c0.3,0.2,0.7-0.1,0.6-0.4l-1-10.3
				c-0.1-0.5,0.6-0.7,0.9-0.3c1.4,2.5,3.5,7.6,1.8,13.9c0,0-2.7,0.4-6.7-2.5C803.4,189.7,803.2,189,803.6,188.3z"/>
			<path class="st6" d="M833.7,224.7L833.7,224.7l-7.6,4.3c-1.1,0.6-2.4,0.4-3.1-0.5l-4.3-5.9c-0.3-0.4-0.4-0.8-0.3-1.2
				c0.1-0.5,0.4-0.9,0.8-1.2l0,0c0.6-0.4,1.4-1,2.3-1.6c2-1.4,4.2-2.9,5.6-3.8l0,0c1-0.6,2.2-0.5,2.9,0.3c1.2,1.2,2.8,4,4.4,6.9
				C835.2,222.8,834.8,224.1,833.7,224.7z M819.8,220.7c-0.3,0.2-0.5,0.5-0.5,0.8s0,0.5,0.1,0.7l4.3,5.9c0.5,0.6,1.4,0.8,2.2,0.3
				l7.5-4.2l0,0c0.7-0.4,1-1.3,0.7-1.9c-1.6-2.9-3.1-5.6-4.2-6.8c-0.5-0.5-1.4-0.6-2.1-0.2c-1.4,0.8-3.7,2.4-5.6,3.7
				C821.2,219.7,820.4,220.2,819.8,220.7L819.8,220.7z"/>
			<path class="st11" d="M821,220.8c1.5-1,4.7-3.3,6.3-4.3c0.7-0.4,1.5-0.3,2,0.2c1,1,2.3,3.3,3.4,5.5c0.4,0.6,0.1,1.5-0.7,1.9
				l-6,3.4c-0.7,0.4-1.6,0.3-2.1-0.3l-3.4-4.7C820.2,221.9,820.4,221.2,821,220.8z"/>
			<path class="st11" d="M836.8,214.3c-0.5,0.3-0.6,0.8-0.2,1.2l1.7,1.7c0.4,0.4,1.1,0.5,1.6,0.2l37.2-21.5c0.5-0.3,0.6-0.9,0.4-1.4
				l-0.6-1c-0.3-0.5-0.9-0.6-1.4-0.4L836.8,214.3z"/>
			<path class="st5" d="M821.8,221.6L821.8,221.6c0.4-0.6,1.2-0.9,1.8-0.5l3,1.8c0.3,0.2,0.7-0.1,0.6-0.4l-1-10.3
				c-0.1-0.5,0.6-0.7,0.9-0.3c1.4,2.5,3.5,7.6,1.8,13.9c0,0-2.7,0.4-6.7-2.5C821.7,223,821.5,222.2,821.8,221.6z"/>
			<path class="st12" d="M841.9,240.5C841.9,240.5,841.9,240.6,841.9,240.5l-7.6,4.3c-1.1,0.6-2.4,0.4-3.1-0.5l-4.3-5.9
				c-0.3-0.4-0.4-0.8-0.3-1.2c0.1-0.5,0.4-0.9,0.8-1.2l0,0c0.6-0.4,1.4-1,2.3-1.6c1.9-1.3,4.2-2.9,5.6-3.8c1-0.6,2.2-0.5,3,0.3
				c1.2,1.2,2.8,4,4.4,6.9C843.4,238.7,843,239.9,841.9,240.5z M828,236.5c-0.3,0.2-0.5,0.5-0.5,0.8s0,0.5,0.1,0.7l4.3,5.9
				c0.5,0.6,1.4,0.8,2.2,0.3l7.5-4.2c0.7-0.4,1-1.3,0.7-1.9c-1.6-2.9-3.1-5.6-4.2-6.8c-0.5-0.5-1.4-0.6-2.1-0.2
				c-1.4,0.8-3.7,2.4-5.6,3.7C829.4,235.5,828.6,236.1,828,236.5L828,236.5z"/>
			<path class="st13" d="M829.1,236.6c1.5-1,4.7-3.3,6.3-4.3c0.7-0.4,1.5-0.3,2,0.2c1,1,2.3,3.3,3.4,5.5c0.4,0.6,0.1,1.5-0.7,1.9
				l-6,3.4c-0.7,0.4-1.6,0.3-2.1-0.3l-3.4-4.7C828.4,237.7,828.6,237,829.1,236.6z"/>
			<path class="st11" d="M845,230.1c-0.5,0.3-0.6,0.8-0.2,1.2l1.7,1.7c0.4,0.4,1.1,0.5,1.6,0.2l37.2-21.4c0.5-0.3,0.6-0.9,0.4-1.4
				l-0.6-1c-0.3-0.5-0.9-0.6-1.4-0.4L845,230.1z"/>
			<path class="st5" d="M830,237.4L830,237.4c0.4-0.6,1.2-0.9,1.8-0.5l3,1.8c0.3,0.2,0.7-0.1,0.6-0.4l-1-10.3
				c-0.1-0.5,0.6-0.7,0.9-0.3c1.4,2.5,3.5,7.6,1.8,13.9c0,0-2.7,0.4-6.7-2.5C829.9,238.9,829.7,238.1,830,237.4z"/>
			<path class="st6" d="M850.3,256.9C850.2,256.9,850.2,256.9,850.3,256.9l-7.6,4.3c-1.1,0.6-2.4,0.4-3.1-0.5l-4.3-5.9
				c-0.3-0.4-0.4-0.8-0.3-1.2c0.1-0.5,0.4-0.9,0.8-1.2l0,0c0.6-0.4,1.4-1,2.3-1.6c2-1.4,4.2-2.9,5.6-3.8c1-0.6,2.2-0.5,3,0.3
				c1.2,1.2,2.8,4,4.4,6.9C851.7,255.1,851.3,256.3,850.3,256.9z M836.3,252.9c-0.3,0.2-0.5,0.5-0.5,0.8s0,0.5,0.1,0.7l4.3,5.9
				c0.5,0.6,1.4,0.8,2.2,0.3l7.5-4.2l0,0c0.7-0.4,1-1.3,0.7-1.9c-1.6-2.9-3.1-5.6-4.2-6.8c-0.5-0.5-1.4-0.6-2.1-0.2
				c-1.4,0.8-3.7,2.4-5.6,3.7C837.7,251.9,836.9,252.5,836.3,252.9L836.3,252.9z"/>
			<path class="st11" d="M837.5,253c1.5-1,4.7-3.3,6.3-4.3c0.7-0.4,1.5-0.3,2,0.2c1,1,2.3,3.3,3.4,5.5c0.4,0.6,0.1,1.5-0.7,1.9
				l-6,3.4c-0.7,0.4-1.6,0.3-2.1-0.3l-3.4-4.7C836.7,254.1,836.9,253.4,837.5,253z"/>
			<path class="st11" d="M853.3,246.5c-0.5,0.3-0.6,0.8-0.2,1.2l1.7,1.7c0.4,0.4,1.1,0.5,1.6,0.2l37.2-21.4c0.5-0.3,0.6-0.9,0.4-1.4
				l-0.6-1c-0.3-0.5-0.9-0.6-1.4-0.4L853.3,246.5z"/>
			<path class="st5" d="M838.3,253.8L838.3,253.8c0.4-0.6,1.2-0.9,1.8-0.5l3,1.8c0.3,0.2,0.7-0.1,0.6-0.4l-1-10.3
				c-0.1-0.5,0.6-0.7,0.9-0.3c1.4,2.5,3.5,7.6,1.8,13.9c0,0-2.7,0.4-6.7-2.5C838.2,255.2,838,254.5,838.3,253.8z"/>
		</g>
		<path class="st10" d="M811.3,134.7c-3.4-0.4-5.5,0.8-6.7,2c-1.2,1.1-1.3,2.9-0.4,4.3l4.4,6.7l8.1-3.4
			C816.6,144.3,817.9,135.5,811.3,134.7z M811,142.2c-1.1,0.6-2.4,0.2-2.9-0.9c-0.6-1.1-0.2-2.4,0.9-2.9c1.1-0.6,2.4-0.2,2.9,0.9
			C812.4,140.3,812,141.7,811,142.2z"/>
		
			<linearGradient id="SVGID_1_" gradientUnits="userSpaceOnUse" x1="804.7753" y1="286.0133" x2="809.1943" y2="286.0133" gradientTransform="matrix(1 0 0 -1 0 426)">
			<stop  offset="0" style="stop-color:#DAE2FB"/>
			<stop  offset="1" style="stop-color:#E9EEFB"/>
		</linearGradient>
		<path class="st14" d="M807.7,144.6c-0.2,0-0.3,0-0.4-0.2l-0.7-1.1c-0.1-0.2-0.1-0.5,0.1-0.6c0.2-0.1,0.5-0.1,0.6,0.1l0.7,1.1
			c0.1,0.2,0.1,0.5-0.1,0.6C807.8,144.6,807.7,144.6,807.7,144.6z M806.3,142.5c-0.2,0-0.3,0-0.4-0.2l-0.5-0.8
			c-0.9-1.4-0.7-3.2,0.5-4.4c0.8-0.8,1.8-1.3,2.8-1.7c0.2-0.1,0.5,0.1,0.5,0.3c0.1,0.2-0.1,0.5-0.3,0.5c-0.9,0.3-1.8,0.8-2.5,1.5
			c-0.9,0.9-1,2.2-0.3,3.3l0.5,0.8c0.1,0.2,0.1,0.5-0.1,0.6C806.4,142.5,806.4,142.5,806.3,142.5z"/>
		<path class="st10" d="M800.5,157.9l-1.9-3.5c-0.7-1.2-0.2-2.7,1.1-3.4l24.9-12.2c1.1-0.5,2.4-0.2,3.1,0.9l2,3.3L800.5,157.9z"/>
		
			<linearGradient id="SVGID_00000168089901291501430650000003164332479427249046_" gradientUnits="userSpaceOnUse" x1="805.8515" y1="277.2" x2="807.4055" y2="277.2" gradientTransform="matrix(1 0 0 -1 0 426)">
			<stop  offset="0" style="stop-color:#DAE2FB"/>
			<stop  offset="1" style="stop-color:#E9EEFB"/>
		</linearGradient>
		<path style="fill:url(#SVGID_00000168089901291501430650000003164332479427249046_);" d="M806.2,149.3c-0.1,0.1-0.3,0-0.3-0.1
			c-0.1-0.1,0-0.3,0.1-0.3l1.1-0.6c0.1-0.1,0.3,0,0.3,0.1c0.1,0.1,0,0.3-0.1,0.3L806.2,149.3L806.2,149.3z"/>
		
			<linearGradient id="SVGID_00000148643607398880745030000000264621586620686498_" gradientUnits="userSpaceOnUse" x1="799.6564" y1="273.2696" x2="805.4827" y2="273.2696" gradientTransform="matrix(1 0 0 -1 0 426)">
			<stop  offset="0" style="stop-color:#DAE2FB"/>
			<stop  offset="1" style="stop-color:#E9EEFB"/>
		</linearGradient>
		<path style="fill:url(#SVGID_00000148643607398880745030000000264621586620686498_);" d="M801.2,156.3c-0.2,0-0.4-0.1-0.4-0.2
			l-0.8-1.4c-0.3-0.6-0.4-1.3-0.2-1.9c0.2-0.6,0.6-1.2,1.2-1.5l3.9-2.1c0.2-0.1,0.5,0,0.6,0.2s0,0.5-0.2,0.6l-3.9,2.1
			c-0.8,0.4-1.1,1.4-0.7,2.2l0.8,1.4C801.6,155.9,801.5,156.2,801.2,156.3C801.3,156.3,801.2,156.3,801.2,156.3z"/>
		<path class="st10" d="M792.1,160.7l42.8-22.8c1.5-0.8,3.4-0.4,4.5,1l0.1,0.2c1.2,1.5,0.7,3.7-1,4.6L794.7,167
			c-1,0.5-2.3,0.1-2.8-0.9l-1-2C790.4,162.9,790.9,161.4,792.1,160.7z"/>
	</g>
	<g>
		<g>
			
				<linearGradient id="SVGID_00000026123615252084873100000005697907499064573609_" gradientUnits="userSpaceOnUse" x1="1058.647" y1="96.8978" x2="975.623" y2="108.092" gradientTransform="matrix(1 0 0 -1 0 426)">
				<stop  offset="0" style="stop-color:#F09690"/>
				<stop  offset="1" style="stop-color:#F2B5B2"/>
			</linearGradient>
			<path style="fill:url(#SVGID_00000026123615252084873100000005697907499064573609_);" d="M1016.2,327.8c0,0-3.5-9.3-7.7-8.4
				c-4.1,0.9-8.6,4-8.6,4l-6.6,9c0,0,18.6,7.3,25.1,3.1c0,0,19,3.3,43-0.7c-3.5-7.3-5.5-14.7-6.8-20.4
				C1042.5,321.3,1029.4,326.4,1016.2,327.8z"/>
			<path class="st18" d="M1116.9,260.3c0,0-27.2,34.3-62.2,54.1c1.2,5.7,3.3,13,6.8,20.4c18.1-3,39.1-10.1,57-25.9L1116.9,260.3z"/>
		</g>
		<path class="st19" d="M753.6,276.1l54,135.8c2.7,6.9,9.9,11,17.2,10l141.6-10.5l-51-144.4c-1.4-3.6-4.8-5.9-8.6-5.8
			c-24.8,0.6-115.2,2.8-147.6,5.7C754.7,267.3,751.9,272,753.6,276.1z"/>
		<path class="st20" d="M820,415.8l-54-137c-1.1-2.8,0.9-5.8,3.9-5.8l133.3-5.1c3.4-0.1,6.6,1.9,7.8,5.1l49,133.5L820,415.8z"/>
		<path class="st19" d="M1292.8,276.1l-54,135.8c-2.7,6.9-9.9,11-17.2,10L1080,412l51-145c1.4-3.6,4.8-5.9,8.6-5.8
			c24.8,0.6,115.2,2.8,147.6,5.7C1291.7,267.3,1294.5,272,1292.8,276.1z"/>
		<path class="st20" d="M1226.4,415.8l54-137c1.1-2.8-0.9-5.8-3.9-5.8l-133.3-5.1c-3.4-0.1-6.6,1.9-7.8,5.1l-48.8,133.6
			L1226.4,415.8z"/>
		
			<linearGradient id="SVGID_00000102523735435687051410000012004158791329920642_" gradientUnits="userSpaceOnUse" x1="945.1569" y1="161.406" x2="909.4677" y2="124.9884" gradientTransform="matrix(1 0 0 -1 0 426)">
			<stop  offset="0" style="stop-color:#EC7869"/>
			<stop  offset="1" style="stop-color:#F09690"/>
		</linearGradient>
		<path style="fill:url(#SVGID_00000102523735435687051410000012004158791329920642_);" d="M913,264.9l1.7,45.4
			c4.8,1.7,9.4,2.9,13.7,3.9c2.7-8.8,8.7-19.5,13.6-27.5C924,280.2,913,264.9,913,264.9z"/>
		
			<linearGradient id="SVGID_00000055698189501484501730000010799514199001097626_" gradientUnits="userSpaceOnUse" x1="969.3" y1="274.0462" x2="969.3" y2="172.8313" gradientTransform="matrix(1 0 0 -1 0 426)">
			<stop  offset="0" style="stop-color:#F09690"/>
			<stop  offset="1" style="stop-color:#F2B5B2"/>
		</linearGradient>
		<path style="fill:url(#SVGID_00000055698189501484501730000010799514199001097626_);" d="M1003,264.1
			c-24.7,26.7-44.7,28.3-60.9,22.5c-4.9,8-10.9,18.7-13.6,27.5c66,14.6,81.6-46.1,81.6-46.1L1003,264.1z"/>
		
			<linearGradient id="SVGID_00000116942345209628343500000006135361456765367689_" gradientUnits="userSpaceOnUse" x1="1024.7959" y1="196.194" x2="1015.9337" y2="126.6963" gradientTransform="matrix(1 0 0 -1 0 426)">
			<stop  offset="0" style="stop-color:#F09690"/>
			<stop  offset="1" style="stop-color:#F2B5B2"/>
		</linearGradient>
		<path style="fill:url(#SVGID_00000116942345209628343500000006135361456765367689_);" d="M1008,261.3c0,0,2.8-3.1,8.1-2.1
			s10,2.8,13.2,0c3.3-2.8,4.4,1,4.4,1l-9.8,7.5L1008,261.3z"/>
		
			<linearGradient id="SVGID_00000168076732507224289970000011780852803448812972_" gradientUnits="userSpaceOnUse" x1="1026.4" y1="274.0462" x2="1026.4" y2="172.8314" gradientTransform="matrix(1 0 0 -1 0 426)">
			<stop  offset="0" style="stop-color:#F09690"/>
			<stop  offset="1" style="stop-color:#F2B5B2"/>
		</linearGradient>
		<path style="fill:url(#SVGID_00000168076732507224289970000011780852803448812972_);" d="M1002.1,266.5c0,0,2-8.2,7.8-7
			c5.9,1.1,19.2,8.4,22.7,7c3.4-1.3,7.8-4.5,10.1-3.4l-4,4.9c0,0,10.2-5.9,12-2.3l-17,9.6C1033.7,275.3,1008.8,272.8,1002.1,266.5z"
			/>
		
			<linearGradient id="SVGID_00000155117603557201038230000010052861768196017332_" gradientUnits="userSpaceOnUse" x1="952.1302" y1="187.5268" x2="762.041" y2="-63.1945" gradientTransform="matrix(1 0 0 -1 0 426)">
			<stop  offset="0" style="stop-color:#EC7869"/>
			<stop  offset="1" style="stop-color:#F09690"/>
		</linearGradient>
		<path style="fill:url(#SVGID_00000155117603557201038230000010052861768196017332_);" d="M827.4,414.3c0,0-8.4-120.4,53-157.8
			c0,0,17.2-11.3,38.6,10.6c21.4,22,14.5,44.8-3.5,66.2s-36.3,59.6-31.9,81H827.4z"/>
		
			<linearGradient id="SVGID_00000055686903340886351440000001972430126927919239_" gradientUnits="userSpaceOnUse" x1="920.1867" y1="195.3905" x2="885.6711" y2="139.4194" gradientTransform="matrix(1 0 0 -1 0 426)">
			<stop  offset="0" style="stop-color:#F09690"/>
			<stop  offset="0.5197" style="stop-color:#F1A8A4"/>
			<stop  offset="1" style="stop-color:#F2B5B2"/>
		</linearGradient>
		<path style="fill:url(#SVGID_00000055686903340886351440000001972430126927919239_);" d="M911.5,223.7c0,1.4-20.5,30.5-20.5,30.5
			s3.7,7.2,21.2,13.1l15.1-31.1L911.5,223.7z"/>
		
			<linearGradient id="SVGID_00000117672670107374444140000007911858546086473096_" gradientUnits="userSpaceOnUse" x1="1020.7536" y1="224.7255" x2="975.5101" y2="123.9772" gradientTransform="matrix(1 0 0 -1 0 426)">
			<stop  offset="0" style="stop-color:#F09690"/>
			<stop  offset="1" style="stop-color:#F2B5B2"/>
		</linearGradient>
		<path style="fill:url(#SVGID_00000117672670107374444140000007911858546086473096_);" d="M903.4,323.5c0,0,38.8,32.5,80.8,18.3
			c2.6-0.9,5.4-0.7,7.9,0.6l12.1,6.4c5.1,2.7,11.3,0.9,14.3-4c1.7-2.8,3.1-6,3.4-9.1l-23.6-9.6l1.7-2.9c0,0-11.5-1-14.5,7.3
			c0,0-21.9,9.1-58.9-31.6C926.4,299,909.7,313.3,903.4,323.5z"/>
		
			<linearGradient id="SVGID_00000134219336421335802030000011738907999940508351_" gradientUnits="userSpaceOnUse" x1="876.574" y1="117.8383" x2="902.1793" y2="117.8383" gradientTransform="matrix(1 0 0 -1 0 426)">
			<stop  offset="0" style="stop-color:#D05245"/>
			<stop  offset="1" style="stop-color:#D8685F"/>
		</linearGradient>
		<path style="fill:url(#SVGID_00000134219336421335802030000011738907999940508351_);" d="M901.3,323.4c-0.2,0-0.3,0-0.5-0.1
			c-16.4-11.1-24.1-29-24.2-29.2c-0.2-0.4,0-0.9,0.5-1.1c0.4-0.2,0.9,0,1.1,0.5c0.1,0.2,7.6,17.6,23.6,28.4c0.4,0.3,0.5,0.8,0.2,1.2
			C901.9,323.3,901.6,323.4,901.3,323.4z"/>
		
			<linearGradient id="SVGID_00000065034290976767561580000003209823711439366820_" gradientUnits="userSpaceOnUse" x1="882.7001" y1="146.0374" x2="926.5445" y2="146.0374" gradientTransform="matrix(1 0 0 -1 0 426)">
			<stop  offset="0" style="stop-color:#D05245"/>
			<stop  offset="1" style="stop-color:#D8685F"/>
		</linearGradient>
		<path style="fill:url(#SVGID_00000065034290976767561580000003209823711439366820_);" d="M925.7,298.7c-0.3,0-0.6-0.1-0.7-0.4
			c0-0.1-5-7.9-14.6-24.9c-2.9-5.2-6.7-8.5-11.3-9.8c-7.6-2.1-15,2-15.1,2c-0.4,0.2-0.9,0.1-1.2-0.3c-0.2-0.4-0.1-0.9,0.3-1.2
			c0.3-0.2,8-4.5,16.4-2.2c5.1,1.4,9.2,5,12.4,10.6c9.5,17,14.5,24.7,14.5,24.8c0.3,0.4,0.1,0.9-0.3,1.2
			C926,298.6,925.8,298.7,925.7,298.7z"/>
		<g>
			
				<linearGradient id="SVGID_00000124865482005857275460000014456930902581563064_" gradientUnits="userSpaceOnUse" x1="951.9407" y1="232.5356" x2="901.5667" y2="178.4301" gradientTransform="matrix(1 0 0 -1 0 426)">
				<stop  offset="0" style="stop-color:#F09690"/>
				<stop  offset="1" style="stop-color:#F2B5B2"/>
			</linearGradient>
			<path style="fill:url(#SVGID_00000124865482005857275460000014456930902581563064_);" d="M927.6,207c0,0,7.3,16.7,7.8,25.5
				s2.4,14.5-7.8,16.3s-18.7-3.3-23.3-12c0,0-7.3-13.5-5.6-19C900.2,212.2,927.6,207,927.6,207z"/>
			
				<linearGradient id="SVGID_00000025430688607829856710000011389810612704915640_" gradientUnits="userSpaceOnUse" x1="899.86" y1="229.5176" x2="938.6464" y2="179.5802" gradientTransform="matrix(1 0 0 -1 0 426)">
				<stop  offset="0" style="stop-color:#010336"/>
				<stop  offset="1" style="stop-color:#050752"/>
			</linearGradient>
			<path style="fill:url(#SVGID_00000025430688607829856710000011389810612704915640_);" d="M907.7,230.5l0.6-0.3
				c0.7-0.3,1.1-1.2,0.7-1.9c-1.4-2.8-4.2-9.1-0.6-10.6c4.6-1.9,23.1-5.7,27-12.2c3.8-6.3,0.4-14.4-4.6-16.7c-0.3-0.2-0.7,0-0.9,0.3
				l-0.4,0.8c-0.3,0.5-1.1,0.5-1.3-0.1l0,0c-0.2-0.6-0.9-0.7-1.2-0.2c-1.2,2-4.5,5.1-13.3,6.8c-12.5,2.3-20.8,7.4-21,16
				c0,0.6-0.6,0.9-1.1,0.6c-0.9-0.6-2.4-0.8-4.4,0.8c-3.4,2.9-2,10.4,5.5,16.6c0.4,0.3,0.4,0.9,0,1.1c-1.4,0.9-3.4,3,1.9,5.8
				c5.5,2.9,9.5,2.7,11.1,2.4c0.4-0.1,0.6-0.4,0.6-0.8l-1.7-7.6c-0.1-0.4,0.2-0.8,0.7-0.8L907.7,230.5L907.7,230.5z"/>
			
				<linearGradient id="SVGID_00000173867159111030983050000002921050345629621929_" gradientUnits="userSpaceOnUse" x1="944.4926" y1="239.47" x2="894.1184" y2="185.3645" gradientTransform="matrix(1 0 0 -1 0 426)">
				<stop  offset="0" style="stop-color:#F09690"/>
				<stop  offset="1" style="stop-color:#F2B5B2"/>
			</linearGradient>
			<path style="fill:url(#SVGID_00000173867159111030983050000002921050345629621929_);" d="M908,232.1c0,0-2.8-10.7-7.6-7.7
				s2.5,12,6.3,12.4L908,232.1z"/>
		</g>
		
			<linearGradient id="SVGID_00000125561817816715398100000002461732075765688966_" gradientUnits="userSpaceOnUse" x1="988.8461" y1="111.6899" x2="1011.2346" y2="57.118" gradientTransform="matrix(1 0 0 -1 0 426)">
			<stop  offset="0" style="stop-color:#F09690"/>
			<stop  offset="1" style="stop-color:#F2B5B2"/>
		</linearGradient>
		<path style="fill:url(#SVGID_00000125561817816715398100000002461732075765688966_);" d="M992.1,342.5c0,0,9.9,9.7,11.8,8.2
			c0.7-0.5,2.4-2.3,4-4.3c1.2-1.4,1.3-3.4,0.3-5l-2.3-3.6c-2.2-3.4-7-4.1-10-1.5C994.3,337.7,992.9,339.6,992.1,342.5z"/>
		<path class="st18" d="M1147.6,412.6c0,0-0.1-43.4-25.3-88.2c-7.9-14-10.7-30.3-8.2-46.2l2.8-17.8c0,0,34.6-11.7,73-0.5
			c0,0,53.2,43.9,17.6,156.2L1147.6,412.6z"/>
		
			<linearGradient id="SVGID_00000019638717276649293680000007619552287254972296_" gradientUnits="userSpaceOnUse" x1="1142.3187" y1="233.4668" x2="1142.3187" y2="134.5841" gradientTransform="matrix(1 0 0 -1 0 426)">
			<stop  offset="0" style="stop-color:#F09690"/>
			<stop  offset="1" style="stop-color:#F2B5B2"/>
		</linearGradient>
		<path style="fill:url(#SVGID_00000019638717276649293680000007619552287254972296_);" d="M1122.8,237.6l9,21.6
			c0.6,1.4,1.8,2.3,3.2,2.6c5.2,0.9,17.7,2.3,25.9-3.1c1-0.6,1.2-2,0.6-2.9l-16.6-23.8L1122.8,237.6z"/>
		<g>
			<path class="st2" d="M1144.9,338.9c-1.2,0.3-1.9,1.7-1.3,2.8l26,49.8c0.4,0.8,1.4,1.3,2.3,1l84.9-24.5c1.1-0.3,1.7-1.4,1.4-2.5
				l-14.6-50.7c-0.3-1-1.4-1.7-2.4-1.4L1144.9,338.9z"/>
			
				<linearGradient id="SVGID_00000063604206808913602700000010365287698351042975_" gradientUnits="userSpaceOnUse" x1="1148.787" y1="73.793" x2="1258.4381" y2="73.793" gradientTransform="matrix(1 0 0 -1 0 426)">
				<stop  offset="0" style="stop-color:#DAE2FB"/>
				<stop  offset="1" style="stop-color:#E9EEFB"/>
			</linearGradient>
			<path style="fill:url(#SVGID_00000063604206808913602700000010365287698351042975_);" d="M1150.4,333c-1.2,0.3-1.9,1.6-1.5,2.8
				l20.8,56.5c0.4,1,1.5,1.6,2.5,1.3l84.7-24.5c1.1-0.3,1.7-1.4,1.5-2.4l-11.7-54.3c-0.2-1.1-1.4-1.9-2.5-1.6L1150.4,333z"/>
			<path class="st36" d="M1157.7,327.3c-1.5,0.2-2.5,1.7-2.1,3.1l14.1,61c0.3,1.4,1.8,2.3,3.2,1.9l83.4-24.1
				c1.3-0.4,2.1-1.8,1.8-3.1l-12.8-49.8c-0.3-1.3-1.6-2.1-2.9-1.9L1157.7,327.3z"/>
		</g>
		<path class="st18" d="M1225.3,350.6c6.5-48.9-31.2-86.5-31.2-86.5l-22.4,26.1c17,21.2,25.1,40.7,28.8,55.9
			C1205.3,344.7,1217.1,342.5,1225.3,350.6z"/>
		
			<linearGradient id="SVGID_00000178196291489710992060000000561866213819487909_" gradientUnits="userSpaceOnUse" x1="1162.6956" y1="120.2085" x2="1209.3862" y2="95.3516" gradientTransform="matrix(1 0 0 -1 0 426)">
			<stop  offset="0" style="stop-color:#DAE2FB"/>
			<stop  offset="1" style="stop-color:#E9EEFB"/>
		</linearGradient>
		<path style="fill:url(#SVGID_00000178196291489710992060000000561866213819487909_);" d="M1200.4,346.7c-0.3,0-0.5-0.2-0.6-0.4
			c-4.6-18.9-14.2-37.7-28.7-55.7c-0.2-0.2-0.2-0.6,0.1-0.8c0.2-0.2,0.6-0.2,0.8,0.1c14.6,18.2,24.3,37,28.9,56.2
			c0.1,0.3-0.1,0.6-0.4,0.7C1200.5,346.7,1200.5,346.7,1200.4,346.7z"/>
		
			<linearGradient id="SVGID_00000020371671690336301460000003431117593961239994_" gradientUnits="userSpaceOnUse" x1="1212.0762" y1="73.1208" x2="1176.5692" y2="4.838" gradientTransform="matrix(1 0 0 -1 0 426)">
			<stop  offset="0" style="stop-color:#F09690"/>
			<stop  offset="1" style="stop-color:#F2B5B2"/>
		</linearGradient>
		<path style="fill:url(#SVGID_00000020371671690336301460000003431117593961239994_);" d="M1200.4,346.2
			c3.4,14.2,3.1,24.8,2.6,29.8c-0.2,1.9-1.7,3.4-3.6,3.5c-2.2,0.2-5.1,0.4-7.8,0.5c-2.9,0.2-6.1-1.7-8.3-3.2
			c-1.1-0.8-2.5,0.4-1.9,1.6c1.6,3.1,5.7,5.9,8.5,7.6c1,0.6,0.8,2.1-0.3,2.5l-12,3.4c19.8,18.6,32.8-2.2,32.8-2.2
			c8.7-13.5,13.2-26.7,14.9-39.1C1217.1,342.5,1205.3,344.7,1200.4,346.2z"/>
		<g>
			
				<linearGradient id="SVGID_00000179644651224234303010000000477579436466061213_" gradientUnits="userSpaceOnUse" x1="1169.046" y1="199.9453" x2="1121.004" y2="203.2103" gradientTransform="matrix(1 0 0 -1 0 426)">
				<stop  offset="0" style="stop-color:#F09690"/>
				<stop  offset="1" style="stop-color:#F2B5B2"/>
			</linearGradient>
			<path style="fill:url(#SVGID_00000179644651224234303010000000477579436466061213_);" d="M1132,204.6
				c-0.4,0.4-15.9,30.9-15.9,30.9l17.6,8.5l19-26.7C1152.7,217.2,1138.3,198.6,1132,204.6z"/>
			
				<linearGradient id="SVGID_00000033365837545817579600000007179388585103056546_" gradientUnits="userSpaceOnUse" x1="1111.2876" y1="204.6939" x2="1163.0323" y2="204.6939" gradientTransform="matrix(1 0 0 -1 0 426)">
				<stop  offset="0" style="stop-color:#050859"/>
				<stop  offset="1" style="stop-color:#141B8A"/>
			</linearGradient>
			<path style="fill:url(#SVGID_00000033365837545817579600000007179388585103056546_);" d="M1144.7,220.4L1136,235
				c-0.1,0.2-0.3,0.4-0.5,0.6c-1,1-4.6,3.8-7.4-0.1c-2.4-3.3-4.6-6.3-6.9-7.5c-1.4-0.7-3.1-0.1-3.8,1.2c-1.4,2.9-4.2,8.7-6,14.3
				c-0.4,1.4,0.3,2.9,1.6,3.4c3.6,1.4,10.6,4.1,16.9,4.9c1,0.1,2-0.3,2.7-1.1c2.7-3.7,10.3-14,12.9-16.6c2.4-2.4,6.8-1.5,8.8-0.9
				c0.8,0.2,1.6,0.1,2.2-0.3c2-1.2,5.6-4.3,2.3-9.4c-0.8-1.3-0.4-3,0.9-3.8c2.3-1.5,4.7-4.3,2.4-8.8c-2.4-4.6-6.6-5-9.5-4.6
				c-1.3,0.2-2.6-0.5-3.1-1.7c-0.2-0.5-0.6-1-1.4-1.1c-1.5-0.3-2.5-1.7-2.2-3.2c0.5-2.6,0.1-6-4-8.2c-7.6-4.2-14.2,2.6-15.9,8.4
				c-1.7,5.7,6.8,9.8,12.1,10.5c3.9,0.5,6.1,4.8,6.9,7C1145.3,218.8,1145.2,219.7,1144.7,220.4z"/>
			
				<linearGradient id="SVGID_00000173869004408871844980000002875081330969715883_" gradientUnits="userSpaceOnUse" x1="2538.5076" y1="-2808.0583" x2="2570.0049" y2="-2775.7429" gradientTransform="matrix(-0.6854 -0.7281 0.7281 -0.6854 4931.0835 204.0511)">
				<stop  offset="0" style="stop-color:#F09690"/>
				<stop  offset="1" style="stop-color:#F2B5B2"/>
			</linearGradient>
			<path style="fill:url(#SVGID_00000173869004408871844980000002875081330969715883_);" d="M1142.1,239.6c0,0,3.4-9.9,7.7-9.5
				c4.3,0.4,7.7,4.7,2.4,9.5C1145.5,245.6,1142.1,239.6,1142.1,239.6z"/>
		</g>
		<path class="st19" d="M1014.6,417.5c0,2.5-2.1,4.6-4.6,4.6H823.7c-3.8,0-7-3.1-7-7l-2.9-3.4l193.4-1.7
			C1011.3,410.1,1014.6,413.4,1014.6,417.5L1014.6,417.5z"/>
		<path class="st19" d="M1031.9,417.5c0,2.5,2.1,4.6,4.6,4.6h186.2c3.8,0,7-3.1,7-7l2.9-3.4l-193.4-1.7
			C1035.1,410.1,1031.9,413.4,1031.9,417.5L1031.9,417.5z"/>
	</g>
	<g>
		<g>
			
				<ellipse transform="matrix(0.4719 -0.8817 0.8817 0.4719 105.5397 874.3973)" class="st42" cx="782.6" cy="349.1" rx="15.1" ry="15.1"/>
			
				<ellipse transform="matrix(0.9951 -9.854078e-02 9.854078e-02 0.9951 -30.5907 78.8144)" class="st5" cx="782.6" cy="349.1" rx="14.6" ry="14.6"/>
			<path class="st13" d="M770.6,343.6c-0.1,0-0.2,0-0.3-0.1c-0.3-0.1-0.4-0.5-0.3-0.8c2.4-4.8,7.2-7.7,12.5-7.7
				c0.9,0,1.7,0.1,2.5,0.2c0.3,0.1,0.5,0.4,0.5,0.7c-0.1,0.3-0.3,0.5-0.7,0.5c-0.8-0.1-1.5-0.2-2.3-0.2c-4.9,0-9.3,2.7-11.5,7.1
				C771,343.5,770.8,343.6,770.6,343.6z"/>
			<ellipse class="st43" cx="782.9" cy="349.4" rx="12.3" ry="12.3"/>
			<g>
				<path class="st5" d="M781.7,358.6v-1.3c-1.4-0.1-2.8-0.4-3.8-0.8c-0.4-0.2-0.5-0.5-0.4-0.9l0.3-1.3c0.1-0.5,0.6-0.7,1.1-0.5
					c1,0.4,2.2,0.7,3.5,0.7s2.4-0.5,2.4-1.4c0-0.8-0.8-1.3-2.6-1.8c-2.7-0.7-4.6-1.9-4.6-4.2c0-2.1,1.6-3.7,4.2-4.2v-1.3
					c0-0.4,0.4-0.8,0.8-0.8h0.8c0.4,0,0.8,0.4,0.8,0.8v1.2c1.3,0.1,2.2,0.3,3,0.5c0.4,0.1,0.6,0.5,0.5,0.9l-0.3,1.2
					c-0.1,0.4-0.6,0.7-1,0.5c-0.7-0.3-1.7-0.5-2.9-0.5c-1.6,0-2.1,0.7-2.1,1.3c0,0.7,1,1.2,3,1.9c3,0.9,4.2,2.1,4.2,4.3
					c0,2-1.5,3.9-4.4,4.3v1.5c0,0.4-0.4,0.8-0.8,0.8h-0.8C782.1,359.4,781.7,359,781.7,358.6z"/>
			</g>
		</g>
		<g>
			<ellipse class="st42" cx="825.5" cy="331.2" rx="26.2" ry="26.2"/>
			
				<ellipse transform="matrix(0.2298 -0.9732 0.9732 0.2298 313.3792 1058.5869)" class="st5" cx="825.5" cy="331.3" rx="25.4" ry="25.4"/>
			<path class="st13" d="M804.6,321.2c-0.1,0-0.2,0-0.3-0.1c-0.3-0.1-0.4-0.5-0.3-0.8c4.1-8.1,12.3-13.2,21.4-13.2
				c1.5,0,2.9,0.1,4.3,0.4c0.3,0.1,0.5,0.4,0.5,0.7c-0.1,0.3-0.3,0.5-0.7,0.5c-1.4-0.2-2.7-0.4-4.1-0.4c-8.7,0-16.5,4.8-20.4,12.6
				C805,321.1,804.8,321.2,804.6,321.2z"/>
			<circle class="st43" cx="826.1" cy="331.8" r="21.5"/>
			<g>
				<path class="st5" d="M824,347.7v-2.3c-2.4-0.1-4.8-0.7-6.6-1.4c-0.6-0.3-0.9-1-0.7-1.6l0.6-2.2c0.2-0.8,1.1-1.2,1.8-0.9
					c1.7,0.7,3.8,1.3,6.1,1.3s4.1-0.8,4.1-2.4c0-1.5-1.4-2.3-4.6-3.2c-4.7-1.3-8-3.3-8-7.4c0-3.7,2.7-6.5,7.4-7.3V318
					c0-0.8,0.6-1.4,1.4-1.4h1.4c0.8,0,1.4,0.6,1.4,1.4v2.1c2.3,0.1,3.9,0.5,5.2,0.9c0.7,0.2,1,1,0.8,1.6l-0.5,2
					c-0.2,0.8-1,1.2-1.8,0.9c-1.2-0.5-2.9-0.9-5.1-0.9c-2.8,0-3.6,1.2-3.6,2.2c0,1.3,1.7,2.1,5.3,3.3c5.2,1.6,7.3,3.7,7.3,7.6
					c0,3.5-2.6,6.7-7.7,7.5v2.6c0,0.8-0.6,1.4-1.4,1.4h-1.4C824.6,349.1,824,348.5,824,347.7z"/>
			</g>
		</g>
		<g>
			<ellipse class="st42" cx="843.6" cy="389.9" rx="27" ry="27"/>
			
				<ellipse transform="matrix(0.7071 -0.7071 0.7071 0.7071 -28.5785 710.6721)" class="st5" cx="843.6" cy="389.8" rx="26.1" ry="26.1"/>
			<path class="st13" d="M822.1,379.6c-0.1,0-0.2,0-0.3-0.1c-0.3-0.1-0.4-0.5-0.3-0.8c4.2-8.4,12.7-13.6,22-13.6
				c1.5,0,3,0.1,4.4,0.4c0.3,0.1,0.5,0.4,0.5,0.7c-0.1,0.3-0.3,0.5-0.7,0.5c-1.4-0.3-2.8-0.4-4.2-0.4c-8.9,0-17,5-21,12.9
				C822.5,379.5,822.3,379.6,822.1,379.6z"/>
			
				<ellipse transform="matrix(0.2298 -0.9732 0.9732 0.2298 270.1856 1122.3401)" class="st43" cx="844.2" cy="390.5" rx="22.1" ry="22.1"/>
			<g>
				<path class="st5" d="M842,406.8v-2.4c-2.5-0.1-5-0.7-6.7-1.5c-0.6-0.3-0.9-1-0.8-1.6l0.6-2.2c0.2-0.8,1.1-1.2,1.9-0.9
					c1.7,0.7,3.9,1.3,6.2,1.3c2.4,0,4.2-0.8,4.2-2.5c0-1.5-1.4-2.4-4.7-3.3c-4.8-1.3-8.2-3.4-8.2-7.6c0-3.8,2.8-6.7,7.6-7.5v-2.4
					c0-0.8,0.6-1.4,1.4-1.4h1.4c0.8,0,1.4,0.6,1.4,1.4v2.2c2.3,0.1,4,0.5,5.3,1c0.7,0.2,1.1,1,0.9,1.7L852,383
					c-0.2,0.8-1.1,1.2-1.8,0.9c-1.2-0.5-3-1-5.2-1c-2.9,0-3.7,1.2-3.7,2.3c0,1.3,1.7,2.2,5.4,3.4c5.3,1.6,7.5,3.8,7.5,7.8
					c0,3.6-2.7,6.9-7.9,7.7v2.7c0,0.8-0.6,1.4-1.4,1.4h-1.4C842.7,408.2,842,407.6,842,406.8z"/>
			</g>
		</g>
		<g>
			<ellipse class="st42" cx="878.3" cy="353" rx="19.8" ry="19.8"/>
			
				<ellipse transform="matrix(0.7882 -0.6154 0.6154 0.7882 -31.2698 615.2987)" class="st5" cx="878.3" cy="353.1" rx="19.1" ry="19.1"/>
			<path class="st13" d="M862.5,345.7c-0.1,0-0.2,0-0.3-0.1c-0.3-0.1-0.4-0.5-0.3-0.8c3.1-6.2,9.4-10,16.3-10c1.1,0,2.2,0.1,3.3,0.3
				c0.3,0.1,0.5,0.4,0.5,0.7c-0.1,0.3-0.3,0.5-0.7,0.5c-1-0.2-2-0.3-3.1-0.3c-6.5,0-12.3,3.6-15.3,9.4
				C862.9,345.6,862.7,345.7,862.5,345.7z"/>
			<ellipse class="st43" cx="878.7" cy="353.5" rx="16.2" ry="16.2"/>
			<g>
				<path class="st5" d="M877.1,365.5v-1.8c-1.8-0.1-3.7-0.5-4.9-1.1c-0.5-0.2-0.7-0.7-0.6-1.2l0.4-1.6c0.2-0.6,0.8-0.9,1.4-0.7
					c1.3,0.5,2.9,1,4.6,1c1.8,0,3.1-0.6,3.1-1.8c0-1.1-1-1.8-3.5-2.4c-3.5-1-6-2.5-6-5.6c0-2.8,2-4.9,5.6-5.5V343c0-0.6,0.5-1,1-1h1
					c0.6,0,1,0.5,1,1v1.6c1.7,0.1,2.9,0.4,3.9,0.7c0.5,0.2,0.8,0.7,0.6,1.2l-0.4,1.5c-0.2,0.6-0.8,0.9-1.4,0.7
					c-0.9-0.3-2.2-0.7-3.8-0.7c-2.1,0-2.7,0.9-2.7,1.6c0,1,1.3,1.6,4,2.5c3.9,1.2,5.5,2.8,5.5,5.7c0,2.7-2,5.1-5.8,5.7v2
					c0,0.6-0.5,1-1,1h-1C877.6,366.5,877.1,366.1,877.1,365.5z"/>
			</g>
		</g>
	</g>
	<g>
		<path class="st44" d="M1189,281.2c-1.3-0.4-1.1-2.4,0.3-2.5c6.2-0.8,15.4-3.3,18.4-10.6c4.7-11.5-5-55.8,39.7-63.7
			c41.3-7.3,64.2,5.7,63.7,43.9C1310.5,285.2,1251.1,302.6,1189,281.2z"/>
		<g>
			<rect x="1220.8" y="240.3" class="st6" width="4" height="31.3"/>
			<rect x="1227.5" y="251.1" class="st6" width="4" height="20.6"/>
			<rect x="1234.2" y="224.5" class="st6" width="4" height="47.1"/>
			<rect x="1240.9" y="260.3" class="st6" width="4" height="11.3"/>
			<rect x="1247.5" y="230.8" class="st6" width="4" height="40.8"/>
			<rect x="1254.2" y="237.9" class="st6" width="4" height="33.8"/>
			<rect x="1260.9" y="245.5" class="st6" width="4" height="26.1"/>
			<rect x="1267.6" y="214.9" class="st6" width="4" height="56.7"/>
			<rect x="1274.3" y="220.9" class="st6" width="4" height="50.7"/>
			<rect x="1281" y="230" class="st6" width="4" height="41.6"/>
			<rect x="1287.7" y="261.4" class="st6" width="4" height="10.3"/>
		</g>
	</g>
</g>
<g class="st45">
	<path class="st46" d="M185.1,112.8l9.6-11.5c6.1,4.9,13,7.5,20.2,7.5c4.6,0,7.1-1.6,7.1-4.3v-0.2c0-2.6-2-4-10.5-6
		c-13.3-3-23.5-6.8-23.5-19.6v-0.2c0-11.6,9.2-19.9,24.1-19.9c10.6,0,18.9,2.8,25.6,8.3l-8.6,12.2c-5.7-4-11.9-6.1-17.4-6.1
		c-4.2,0-6.2,1.8-6.2,4v0.2c0,2.8,2.1,4.1,10.8,6.1c14.3,3.1,23.2,7.7,23.2,19.4v0.2c0,12.7-10.1,20.3-25.2,20.3
		C203.2,123.1,192.7,119.6,185.1,112.8z"/>
	<path class="st46" d="M247,94.7v-35h17.5v34.6c0,9,4.5,13.3,11.5,13.3s11.5-4.1,11.5-12.8V59.7h17.5v34.5
		c0,20.1-11.5,28.9-29.2,28.9S247,114.2,247,94.7z"/>
	<path class="st46" d="M315.3,59.7h32c7.8,0,13.4,2,17,5.6c2.5,2.5,4,5.8,4,10.1v0.2c0,7.2-4.1,11.5-9.6,13.9
		c7.6,2.5,12.4,6.8,12.4,15.2v0.2c0,10.7-8.7,17.2-23.6,17.2h-32.1V59.7z M343,84.5c5.3,0,8.2-1.8,8.2-5.4v-0.2
		c0-3.4-2.7-5.3-7.8-5.3h-11.2v10.9H343z M345.5,108.1c5.3,0,8.3-2,8.3-5.7v-0.2c0-3.4-2.7-5.6-8.5-5.6h-13.2v11.5H345.5z"/>
	<path class="st46" d="M400.5,59.3h16.6l26.5,62.7h-18.5l-4.5-11.1h-24l-4.5,11.1h-18.2L400.5,59.3z M415.6,97.4l-6.9-17.7l-7,17.7
		H415.6z"/>
	<path class="st46" d="M444.1,112.8l9.6-11.5c6.1,4.9,13,7.5,20.2,7.5c4.6,0,7.1-1.6,7.1-4.3v-0.2c0-2.6-2-4-10.5-6
		c-13.3-3-23.5-6.8-23.5-19.6v-0.2c0-11.6,9.2-19.9,24.1-19.9c10.6,0,18.9,2.8,25.6,8.3l-8.6,12.2c-5.7-4-11.9-6.1-17.4-6.1
		c-4.2,0-6.2,1.8-6.2,4v0.2c0,2.8,2.1,4.1,10.8,6.1c14.3,3.1,23.2,7.7,23.2,19.4v0.2c0,12.7-10.1,20.3-25.2,20.3
		C462.2,123.1,451.7,119.6,444.1,112.8z"/>
	<path class="st46" d="M520.3,74.8h-18.7V59.7h54.6v15.1h-18.7V122h-17.3V74.8z"/>
	<path class="st46" d="M577.3,59.3H594l26.5,62.7H602l-4.5-11.1h-24l-4.5,11.1h-18.2L577.3,59.3z M592.4,97.4l-6.9-17.7l-7,17.7
		H592.4z"/>
	<path class="st46" d="M620.9,112.8l9.6-11.5c6.1,4.9,13,7.5,20.2,7.5c4.6,0,7.1-1.6,7.1-4.3v-0.2c0-2.6-2-4-10.5-6
		c-13.3-3-23.5-6.8-23.5-19.6v-0.2c0-11.6,9.2-19.9,24.1-19.9c10.6,0,18.9,2.8,25.6,8.3L665,79.1c-5.7-4-11.9-6.1-17.4-6.1
		c-4.2,0-6.2,1.8-6.2,4v0.2c0,2.8,2.1,4.1,10.8,6.1c14.3,3.1,23.2,7.7,23.2,19.4v0.2c0,12.7-10.1,20.3-25.2,20.3
		C639.1,123.1,628.6,119.6,620.9,112.8z"/>
</g>
<g class="st45">
	<path class="st46" d="M56.3,179.6c0-11,7.3-17.4,15.7-17.4c4.3,0,7.8,1.9,10,4.3l-4,4.5c-1.7-1.5-3.5-2.4-5.9-2.4
		c-4.5,0-8.2,4.1-8.2,10.7c0,6.8,3.4,10.8,8.5,10.8c2.5,0,4.6-1.2,6.2-2.8l3.8,4.4c-2.9,3.2-6.3,4.8-10.5,4.8
		C63.5,196.6,56.3,190.8,56.3,179.6z"/>
	<path class="st46" d="M85.5,183.4c0-8.4,5.9-13.3,12.3-13.3c6.4,0,12.3,4.8,12.3,13.3s-5.9,13.3-12.3,13.3
		C91.4,196.6,85.5,191.8,85.5,183.4z M102.5,183.4c0-4.4-1.6-7.2-4.6-7.2c-3.1,0-4.6,2.8-4.6,7.2s1.5,7.2,4.6,7.2
		C100.9,190.6,102.5,187.7,102.5,183.4z"/>
	<path class="st46" d="M115.3,170.7h6.1l0.5,3.2h0.2c2.1-2,4.7-3.8,8.1-3.8c5.5,0,7.9,3.9,7.9,10.2V196h-7.5v-14.7
		c0-3.7-1-4.8-3.1-4.8c-1.9,0-3.1,0.9-4.7,2.4V196h-7.5V170.7z"/>
	<path class="st46" d="M143,183.4c0-8.4,5.9-13.3,12.3-13.3c6.4,0,12.3,4.8,12.3,13.3s-5.9,13.3-12.3,13.3
		C148.9,196.6,143,191.8,143,183.4z M160,183.4c0-4.4-1.6-7.2-4.6-7.2c-3.1,0-4.6,2.8-4.6,7.2s1.5,7.2,4.6,7.2
		C158.4,190.6,160,187.7,160,183.4z"/>
	<path class="st46" d="M171.3,183.4c0-8.4,6.2-13.3,13.2-13.3c3.1,0,5.6,1.1,7.4,2.7l-3.5,4.6c-0.9-0.8-1.9-1.3-3.4-1.3
		c-3.5,0-5.9,2.8-5.9,7.2s2.4,7.2,5.7,7.2c1.7,0,3.2-0.6,4.5-1.7l3,4.6c-2.1,1.9-5.1,3.1-8.2,3.1
		C176.8,196.6,171.3,191.8,171.3,183.4z"/>
	<path class="st46" d="M193.7,183.4c0-8.2,5.9-13.3,11.9-13.3c7.2,0,10.8,5.3,10.8,12.1c0,1.3-0.2,2.7-0.3,3.4H201
		c0.8,3.9,3.7,5.2,6.5,5.2c1.9,0,3.7-0.6,5.5-1.6l2.4,4.6c-2.5,1.8-6,2.8-9,2.8C199.2,196.6,193.7,191.8,193.7,183.4z M201,180.5h9
		c0-2.7-1.2-4.6-4.2-4.6C203.8,175.9,201.6,177,201,180.5z"/>
	<path class="st46" d="M231.8,188.1v-27.8h7.5v28.1c0,1.6,0.7,2.1,1.4,2.1c0.3,0,0.5,0,0.9-0.1l0.9,5.5c-0.8,0.4-2.1,0.6-3.8,0.6
		C233.5,196.6,231.8,193.3,231.8,188.1z"/>
	<path class="st46" d="M245.2,189c0-5.4,4.2-8.3,14.2-9.3c-0.2-2.2-1.3-3.6-4-3.6c-2.1,0-4.2,0.8-6.7,2.2l-2.7-4.9
		c3.2-2,6.8-3.3,10.8-3.3c6.5,0,10,3.7,10,11.5V196h-6.1l-0.5-2.6h-0.2c-2.2,1.9-4.5,3.2-7.3,3.2C248.1,196.6,245.2,193.3,245.2,189
		z M259.4,188.7v-4.3c-5.3,0.7-7,2.1-7,4c0,1.6,1.1,2.3,2.9,2.3C256.9,190.8,258.1,190,259.4,188.7z"/>
	<path class="st46" d="M271,192.8l3.2-4.2c2.3,1.8,4.6,2.4,6.7,2.4c2.2,0,3.2-0.8,3.2-2.1c0-1.7-2.2-2.3-4.9-3.4
		c-3.6-1.3-6.8-3.6-6.8-7.5c0-4.7,3.9-7.9,9.7-7.9c3.7,0,6.8,1.3,8.9,3.2l-3.2,4.2c-1.8-1.3-3.7-1.8-5.5-1.8c-2,0-2.9,0.8-2.9,2
		c0,1.5,1.5,2.1,4.7,3.1c3.9,1.3,7,3.5,7,7.7c0,4.6-3.6,8.2-10.4,8.2C277.3,196.6,273.6,195.3,271,192.8z"/>
</g>
<g class="st45">
	<path class="st46" d="M55.8,239.4c0-8.4,6.2-13.3,13.2-13.3c3.1,0,5.6,1.1,7.4,2.7l-3.5,4.6c-0.9-0.8-1.9-1.3-3.4-1.3
		c-3.5,0-5.9,2.8-5.9,7.2s2.4,7.2,5.7,7.2c1.7,0,3.2-0.6,4.5-1.7l3,4.6c-2.1,1.9-5.1,3.1-8.2,3.1C61.3,252.6,55.8,247.8,55.8,239.4z
		"/>
	<path class="st46" d="M78.2,239.4c0-8.4,5.9-13.3,12.3-13.3c6.4,0,12.3,4.8,12.3,13.3s-5.9,13.3-12.3,13.3
		C84.1,252.6,78.2,247.8,78.2,239.4z M95.2,239.4c0-4.4-1.6-7.2-4.6-7.2c-3.1,0-4.6,2.8-4.6,7.2s1.5,7.2,4.6,7.2
		C93.6,246.6,95.2,243.7,95.2,239.4z"/>
	<path class="st46" d="M108,226.7h6.1l0.5,3.2h0.2c2.1-2,4.7-3.8,8.1-3.8c5.5,0,7.9,3.9,7.9,10.2V252h-7.5v-14.7
		c0-3.7-1-4.8-3.1-4.8c-1.9,0-3.1,0.9-4.7,2.4V252H108V226.7z"/>
	<path class="st46" d="M134.5,226.7h7.5l3.3,11.9c0.7,2.5,1.3,5.2,2,7.8h0.2c0.6-2.7,1.3-5.3,1.9-7.8l3.3-11.9h7.2l-8.3,25.3H143
		L134.5,226.7z"/>
	<path class="st46" d="M162,239.4c0-8.4,5.9-13.3,12.3-13.3c6.4,0,12.3,4.8,12.3,13.3s-5.9,13.3-12.3,13.3
		C167.9,252.6,162,247.8,162,239.4z M178.9,239.4c0-4.4-1.6-7.2-4.6-7.2c-3.1,0-4.6,2.8-4.6,7.2s1.5,7.2,4.6,7.2
		C177.4,246.6,178.9,243.7,178.9,239.4z"/>
	<path class="st46" d="M190.3,239.4c0-8.4,6.2-13.3,13.2-13.3c3.1,0,5.6,1.1,7.4,2.7l-3.5,4.6c-0.9-0.8-1.9-1.3-3.4-1.3
		c-3.5,0-5.9,2.8-5.9,7.2s2.4,7.2,5.7,7.2c1.7,0,3.2-0.6,4.5-1.7l3,4.6c-2.1,1.9-5.1,3.1-8.2,3.1
		C195.7,252.6,190.3,247.8,190.3,239.4z"/>
	<path class="st46" d="M213.9,245c0-5.4,4.2-8.3,14.2-9.3c-0.2-2.2-1.3-3.6-4-3.6c-2.1,0-4.2,0.8-6.7,2.2l-2.7-4.9
		c3.2-2,6.8-3.3,10.8-3.3c6.5,0,10,3.7,10,11.5V252h-6.1l-0.5-2.6h-0.2c-2.2,1.9-4.5,3.2-7.3,3.2C216.8,252.6,213.9,249.3,213.9,245
		z M228.1,244.7v-4.3c-5.3,0.7-7,2.1-7,4c0,1.6,1.1,2.3,2.9,2.3C225.6,246.8,226.8,246,228.1,244.7z"/>
	<path class="st46" d="M242,242.8v-10.2h-3.5V227l3.9-0.3l0.9-7.8h6.2v7.8h6.1v5.9h-6.1v10.1c0,2.9,1.3,4,3.3,4
		c0.8,0,1.7-0.1,2.4-0.4l1.2,5.3c-1.3,0.6-3.3,1-5.7,1C244.5,252.6,242,248.6,242,242.8z"/>
	<path class="st46" d="M258.2,239.4c0-8.4,5.9-13.3,12.3-13.3c6.4,0,12.3,4.8,12.3,13.3s-5.9,13.3-12.3,13.3
		C264.1,252.6,258.2,247.8,258.2,239.4z M275.1,239.4c0-4.4-1.6-7.2-4.6-7.2c-3.1,0-4.6,2.8-4.6,7.2s1.5,7.2,4.6,7.2
		C273.6,246.6,275.1,243.7,275.1,239.4z"/>
	<path class="st46" d="M287.9,226.7h6.1l0.5,4.4h0.2c1.8-3.4,4.6-5,7.2-5c1.4,0,2.3,0.2,3,0.5l-1.4,6.4c-0.9-0.2-1.5-0.3-2.5-0.3
		c-1.9,0-4.2,1.2-5.6,4.6V252h-7.5V226.7z"/>
	<path class="st46" d="M307.7,219.1c0-2.3,1.7-3.9,4.2-3.9c2.5,0,4.2,1.6,4.2,3.9c0,2.4-1.7,3.9-4.2,3.9
		C309.5,223,307.7,221.5,307.7,219.1z M308.2,226.7h7.5V252h-7.5V226.7z"/>
	<path class="st46" d="M321.1,245c0-5.4,4.2-8.3,14.2-9.3c-0.2-2.2-1.3-3.6-4-3.6c-2.1,0-4.2,0.8-6.7,2.2l-2.7-4.9
		c3.2-2,6.8-3.3,10.8-3.3c6.5,0,10,3.7,10,11.5V252h-6.1l-0.5-2.6H336c-2.2,1.9-4.5,3.2-7.3,3.2C324,252.6,321.1,249.3,321.1,245z
		 M335.4,244.7v-4.3c-5.3,0.7-7,2.1-7,4c0,1.6,1.1,2.3,2.9,2.3C332.9,246.8,334.1,246,335.4,244.7z"/>
	<path class="st46" d="M346.9,248.8l3.2-4.2c2.3,1.8,4.6,2.4,6.7,2.4c2.2,0,3.2-0.8,3.2-2.1c0-1.7-2.2-2.3-4.9-3.4
		c-3.6-1.3-6.8-3.6-6.8-7.5c0-4.7,3.9-7.9,9.7-7.9c3.7,0,6.8,1.3,8.9,3.2l-3.2,4.2c-1.8-1.3-3.7-1.8-5.5-1.8c-2,0-2.9,0.8-2.9,2
		c0,1.5,1.5,2.1,4.7,3.1c3.9,1.3,7,3.5,7,7.7c0,4.6-3.6,8.2-10.4,8.2C353.3,252.6,349.5,251.3,346.9,248.8z"/>
	<path class="st46" d="M380.7,239.4c0-8.3,5.2-13.3,10.5-13.3c2.8,0,4.5,1,6.2,2.7l-0.3-3.9v-8.6h7.5V252h-6.1l-0.5-2.5h-0.2
		c-1.8,1.8-4.3,3.1-6.7,3.1C384.7,252.6,380.7,247.6,380.7,239.4z M397.1,244.2v-10.4c-1.3-1.2-2.8-1.6-4.2-1.6
		c-2.4,0-4.5,2.2-4.5,7c0,5,1.7,7.2,4.6,7.2C394.6,246.5,395.8,245.9,397.1,244.2z"/>
	<path class="st46" d="M409.7,239.4c0-8.2,5.9-13.3,11.9-13.3c7.2,0,10.8,5.3,10.8,12.1c0,1.3-0.2,2.7-0.3,3.4H417
		c0.8,3.9,3.7,5.2,6.5,5.2c1.9,0,3.7-0.6,5.5-1.6l2.4,4.6c-2.5,1.8-6,2.8-9,2.8C415.3,252.6,409.7,247.8,409.7,239.4z M417,236.5h9
		c0-2.7-1.2-4.6-4.2-4.6C419.8,231.9,417.7,233,417,236.5z"/>
</g>
<g class="st45">
	<path class="st46" d="M55.8,303.8l4-4.9c2.3,2.1,5.6,3.3,8.5,3.3c3.1,0,4.6-1.2,4.6-3.2c0-2.1-1.9-2.8-4.8-4l-4.3-1.8
		c-3.4-1.4-6.7-4.3-6.7-9.1c0-5.5,4.9-9.9,11.8-9.9c4,0,7.9,1.5,10.7,4.2l-4,4.8c-2.2-1.6-4.5-2.5-6.7-2.5c-2.6,0-4.2,1.1-4.2,3
		c0,2,2.2,2.8,5,3.9l4.3,1.7c4.1,1.6,6.6,4.3,6.6,9c0,5.5-4.6,10.3-12.5,10.3C63.6,308.6,59.2,307.1,55.8,303.8z"/>
	<path class="st46" d="M86.1,293v-18.3h7.5v19c0,6.2,2,8.4,5.8,8.4s5.9-2.1,5.9-8.4v-19h7.2V293c0,10.9-4.5,15.6-13.1,15.6
		C90.8,308.6,86.1,303.9,86.1,293z"/>
	<path class="st46" d="M120.2,274.8h11.4c6.9,0,12.2,1.9,12.2,8.3c0,3.3-1.6,6.2-4.3,7.2v0.2c3.7,0.9,6,3.2,6,7.4
		c0,7-5.7,10.1-12.9,10.1h-12.3V274.8z M131.2,288.1c3.7,0,5.3-1.5,5.3-3.9c0-2.6-1.7-3.6-5.2-3.6h-3.6v7.5H131.2z M131.9,302.2
		c4.1,0,6.2-1.4,6.2-4.5c0-2.9-2-4.1-6.2-4.1h-4.2v8.6H131.9z"/>
	<path class="st46" d="M157.2,274.8h9l10.4,33.2h-8l-2-7.9h-10.1l-2,7.9h-7.6L157.2,274.8z M158,294.2h7.1l-0.8-3.1
		c-0.9-3.3-1.8-7.2-2.7-10.7h-0.2c-0.8,3.5-1.7,7.4-2.6,10.7L158,294.2z"/>
	<path class="st46" d="M178.1,303.8l4-4.9c2.3,2.1,5.6,3.3,8.5,3.3c3.1,0,4.6-1.2,4.6-3.2c0-2.1-1.9-2.8-4.8-4l-4.3-1.8
		c-3.4-1.4-6.7-4.3-6.7-9.1c0-5.5,4.9-9.9,11.8-9.9c4,0,7.9,1.5,10.7,4.2l-4,4.8c-2.2-1.6-4.5-2.5-6.7-2.5c-2.6,0-4.2,1.1-4.2,3
		c0,2,2.2,2.8,5,3.9l4.3,1.7c4.1,1.6,6.6,4.3,6.6,9c0,5.5-4.6,10.3-12.5,10.3C185.9,308.6,181.5,307.1,178.1,303.8z"/>
	<path class="st46" d="M214.1,281.1H205v-6.3h25.8v6.3h-9.1V308h-7.5V281.1z"/>
	<path class="st46" d="M240.1,274.8h9l10.4,33.2h-8l-2-7.9h-10.1l-2,7.9h-7.6L240.1,274.8z M240.9,294.2h7.1l-0.8-3.1
		c-0.9-3.3-1.8-7.2-2.7-10.7h-0.2c-0.8,3.5-1.7,7.4-2.6,10.7L240.9,294.2z"/>
	<path class="st46" d="M273.4,274.8h7.5V308h-7.5V274.8z"/>
	<path class="st46" d="M288.7,274.8h7.9l8.5,16.4c1.2,2.2,2.2,4.9,3.3,7.5h0.2c-0.4-3.6-1-8.2-1-12.1v-11.8h7.2V308h-7.9l-8.5-16.4
		c-1.2-2.2-2.3-4.9-3.3-7.5h-0.2c0.4,3.7,1,8.2,1,12.1V308h-7.2V274.8z"/>
	<path class="st46" d="M318.3,274.8h8l3.8,15.5c0.9,3.7,1.7,7,2.7,10.7h0.2c1-3.7,1.7-7,2.7-10.7l4.1-15.5h7.6L337.2,308h-9
		L318.3,274.8z"/>
	<path class="st46" d="M351,274.8h20.8v6.3h-13.3v6.7h11.3v6.3h-11.3v7.6h13.8v6.3H351V274.8z"/>
	<path class="st46" d="M378.9,274.8h12c7,0,12.8,2.4,12.8,10.4c0,4.9-2.3,8-5.9,9.6l7.5,13.3h-8.4l-6.4-12h-4.1v12h-7.5V274.8z
		 M390.3,290.1c3.9,0,6.1-1.7,6.1-4.9s-2.1-4.4-6.1-4.4h-3.9v9.3H390.3z"/>
	<path class="st46" d="M407.3,303.8l4-4.9c2.3,2.1,5.6,3.3,8.5,3.3c3.1,0,4.6-1.2,4.6-3.2c0-2.1-1.9-2.8-4.8-4l-4.3-1.8
		c-3.4-1.4-6.7-4.3-6.7-9.1c0-5.5,4.9-9.9,11.8-9.9c4,0,7.9,1.5,10.7,4.2l-4,4.8c-2.2-1.6-4.5-2.5-6.7-2.5c-2.6,0-4.2,1.1-4.2,3
		c0,2,2.2,2.8,5,3.9l4.3,1.7c4.1,1.6,6.6,4.3,6.6,9c0,5.5-4.6,10.3-12.5,10.3C415.1,308.6,410.7,307.1,407.3,303.8z"/>
	<path class="st46" d="M444,274.8h9l10.4,33.2h-8l-2-7.9h-10.1l-2,7.9h-7.6L444,274.8z M444.8,294.2h7.1l-0.8-3.1
		c-0.9-3.3-1.8-7.2-2.7-10.7h-0.2c-0.8,3.5-1.7,7.4-2.6,10.7L444.8,294.2z"/>
	<path class="st46" d="M491.7,309.7l0.3-3.9c-1.7,1.6-4.1,2.8-6.4,2.8c-6.3,0-10.4-5-10.4-13.3c0-8.3,5.2-13.3,10.5-13.3
		c2.8,0,4.7,1,6.7,3.1h0.2l0.6-2.5h5.9v34.7h-7.5V309.7z M491.7,300.2v-10.4c-1.3-1.2-2.8-1.6-4.2-1.6c-2.4,0-4.5,2.2-4.5,7
		c0,5,1.7,7.2,4.6,7.2C489.2,302.5,490.5,301.9,491.7,300.2z"/>
	<path class="st46" d="M505.6,298.4v-15.7h7.5v14.7c0,3.6,1,4.8,3.2,4.8c1.9,0,3-0.8,4.5-2.8v-16.7h7.5V308h-6.1l-0.6-3.5h-0.2
		c-2.1,2.5-4.5,4.1-8,4.1C507.9,308.6,505.6,304.7,505.6,298.4z"/>
	<path class="st46" d="M533.3,295.4c0-8.2,5.9-13.3,11.9-13.3c7.2,0,10.8,5.3,10.8,12.1c0,1.3-0.2,2.7-0.3,3.4h-15.1
		c0.8,3.9,3.7,5.2,6.5,5.2c1.9,0,3.7-0.6,5.5-1.6l2.4,4.6c-2.5,1.8-6,2.8-9,2.8C538.9,308.6,533.3,303.8,533.3,295.4z M540.6,292.5
		h9c0-2.7-1.2-4.6-4.2-4.6C543.4,287.9,541.3,289,540.6,292.5z"/>
</g>
<g class="st45">
	<path class="st46" d="M58.3,354.8v-10.2h-3.5V339l3.9-0.3l0.9-7.8h6.2v7.8h6.1v5.9h-6.1v10.1c0,2.9,1.3,4,3.3,4
		c0.8,0,1.7-0.1,2.4-0.4l1.2,5.3c-1.3,0.6-3.3,1-5.7,1C60.8,364.6,58.3,360.6,58.3,354.8z"/>
	<path class="st46" d="M74.5,351.4c0-8.2,5.9-13.3,11.9-13.3c7.2,0,10.8,5.3,10.8,12.1c0,1.3-0.2,2.7-0.3,3.4H81.7
		c0.8,3.9,3.7,5.2,6.5,5.2c1.9,0,3.7-0.6,5.5-1.6l2.4,4.6c-2.5,1.8-6,2.8-9,2.8C80,364.6,74.5,359.8,74.5,351.4z M81.7,348.5h9
		c0-2.7-1.2-4.6-4.2-4.6C84.5,343.9,82.4,345,81.7,348.5z"/>
	<path class="st46" d="M102.3,338.7h6.1l0.5,3.2h0.2c2.1-2,4.7-3.8,8.1-3.8c5.5,0,7.9,3.9,7.9,10.2V364h-7.5v-14.7
		c0-3.7-1-4.8-3.1-4.8c-1.9,0-3.1,0.9-4.7,2.4V364h-7.5V338.7z"/>
	<path class="st46" d="M130,351.4c0-8.2,5.9-13.3,11.9-13.3c7.2,0,10.8,5.3,10.8,12.1c0,1.3-0.2,2.7-0.3,3.4h-15.1
		c0.8,3.9,3.7,5.2,6.5,5.2c1.9,0,3.7-0.6,5.5-1.6l2.4,4.6c-2.5,1.8-6,2.8-9,2.8C135.6,364.6,130,359.8,130,351.4z M137.3,348.5h9
		c0-2.7-1.2-4.6-4.2-4.6C140.1,343.9,138,345,137.3,348.5z"/>
	<path class="st46" d="M157.9,338.7h6.1l0.5,3.3h0.2c2.1-2.1,4.3-3.9,7.6-3.9c3.6,0,5.7,1.5,7,4.2c2.2-2.3,4.6-4.2,8-4.2
		c5.5,0,7.9,3.9,7.9,10.2V364h-7.5v-14.7c0-3.7-1-4.8-3.1-4.8c-1.3,0-2.7,0.8-4.3,2.4V364h-7.5v-14.7c0-3.7-1-4.8-3.1-4.8
		c-1.2,0-2.7,0.8-4.3,2.4V364h-7.5V338.7z"/>
	<path class="st46" d="M200.2,351.4c0-8.4,5.9-13.3,12.3-13.3c6.4,0,12.3,4.8,12.3,13.3s-5.9,13.3-12.3,13.3
		C206.1,364.6,200.2,359.8,200.2,351.4z M217.1,351.4c0-4.4-1.6-7.2-4.6-7.2c-3.1,0-4.6,2.8-4.6,7.2s1.5,7.2,4.6,7.2
		C215.6,358.6,217.1,355.7,217.1,351.4z"/>
	<path class="st46" d="M227.4,360.8l3.2-4.2c2.3,1.8,4.6,2.4,6.7,2.4c2.2,0,3.2-0.8,3.2-2.1c0-1.7-2.2-2.3-4.9-3.4
		c-3.6-1.3-6.8-3.6-6.8-7.5c0-4.7,3.9-7.9,9.7-7.9c3.7,0,6.8,1.3,8.9,3.2l-3.2,4.2c-1.8-1.3-3.7-1.8-5.5-1.8c-2,0-2.9,0.8-2.9,2
		c0,1.5,1.5,2.1,4.7,3.1c3.9,1.3,7,3.5,7,7.7c0,4.6-3.6,8.2-10.4,8.2C233.8,364.6,230,363.3,227.4,360.8z"/>
	<path class="st46" d="M262.5,338.7h6.1l0.5,2.5h0.2c2-1.8,4.5-3.1,7.2-3.1c6.1,0,9.9,5,9.9,12.9c0,8.7-5.2,13.7-10.7,13.7
		c-2.2,0-4.2-1-6-2.7l0.3,4v7.4h-7.5V338.7z M278.7,351.1c0-4.5-1.4-6.8-4.4-6.8c-1.5,0-2.9,0.7-4.3,2.3v10.4c1.3,1.2,2.8,1.6,4,1.6
		C276.6,358.5,278.7,356.3,278.7,351.1z"/>
	<path class="st46" d="M290,357c0-5.4,4.2-8.3,14.2-9.3c-0.2-2.2-1.3-3.6-4-3.6c-2.1,0-4.2,0.8-6.7,2.2l-2.7-4.9
		c3.2-2,6.8-3.3,10.8-3.3c6.5,0,10,3.7,10,11.5V364h-6.1l-0.5-2.6h-0.2c-2.2,1.9-4.5,3.2-7.3,3.2C292.9,364.6,290,361.3,290,357z
		 M304.2,356.7v-4.3c-5.3,0.7-7,2.1-7,4c0,1.6,1.1,2.3,2.9,2.3C301.7,358.8,302.9,358,304.2,356.7z"/>
	<path class="st46" d="M318,338.7h6.1l0.5,4.4h0.2c1.8-3.4,4.6-5,7.2-5c1.4,0,2.3,0.2,3,0.5l-1.4,6.4c-0.9-0.2-1.5-0.3-2.5-0.3
		c-1.9,0-4.2,1.2-5.6,4.6V364H318V338.7z"/>
	<path class="st46" d="M335.7,357c0-5.4,4.2-8.3,14.2-9.3c-0.2-2.2-1.3-3.6-4-3.6c-2.1,0-4.2,0.8-6.7,2.2l-2.7-4.9
		c3.2-2,6.8-3.3,10.8-3.3c6.5,0,10,3.7,10,11.5V364h-6.1l-0.5-2.6h-0.2c-2.2,1.9-4.5,3.2-7.3,3.2C338.6,364.6,335.7,361.3,335.7,357
		z M349.9,356.7v-4.3c-5.3,0.7-7,2.1-7,4c0,1.6,1.1,2.3,2.9,2.3C347.5,358.8,348.7,358,349.9,356.7z"/>
	<path class="st46" d="M375,354.8v-10.2h-3.5V339l3.9-0.3l0.9-7.8h6.2v7.8h6.1v5.9h-6.1v10.1c0,2.9,1.3,4,3.3,4
		c0.8,0,1.7-0.1,2.4-0.4l1.2,5.3c-1.3,0.6-3.3,1-5.7,1C377.4,364.6,375,360.6,375,354.8z"/>
	<path class="st46" d="M393,331.1c0-2.3,1.7-3.9,4.2-3.9c2.5,0,4.2,1.6,4.2,3.9c0,2.4-1.7,3.9-4.2,3.9
		C394.7,335,393,333.5,393,331.1z M393.5,338.7h7.5V364h-7.5V338.7z"/>
	<path class="st46" d="M407.4,359.9c0-2.7,1.9-4.7,4.5-4.7c2.6,0,4.5,2,4.5,4.7c0,2.7-1.9,4.7-4.5,4.7
		C409.3,364.6,407.4,362.6,407.4,359.9z"/>
</g>
</svg>
