<?xml version="1.0" encoding="UTF-8"?><svg id="Capa_1" xmlns="http://www.w3.org/2000/svg" viewBox="0 0 50 60"><defs><style>.cls-1{fill:#9e2140;fill-rule:evenodd;}</style></defs><path class="cls-1" d="M11.41,17.91c.85,7.06,6.98,12.98,15.17,11.96,7.15-.89,12.9-6.92,11.99-15.15-.79-7.06-7.07-13-15.17-11.97-7.11,.9-12.98,6.95-11.99,15.16M1.22,54.86c.78,2.62,3.15,2.51,6.29,2.51H42.45c2.91,0,5.39,.21,6.27-2.4,1.42-4.22-2.3-10.92-4-13.09-2.59-3.29-6.91-5.66-11.15-6.42-2.87-.51-14.07-.5-16.98-.03-5.11,.82-9.05,3.66-11.22,6.35C2.81,44.94,.11,51.12,1.22,54.86Z"/></svg>