<?xml version="1.0" encoding="utf-8"?>
<!-- Generator: Adobe Illustrator 27.8.1, SVG Export Plug-In . SVG Version: 6.00 Build 0)  -->
<svg version="1.1" id="Capa_1" xmlns="http://www.w3.org/2000/svg" xmlns:xlink="http://www.w3.org/1999/xlink" x="0px" y="0px"
	 viewBox="0 0 902 901" style="enable-background:new 0 0 902 901;" xml:space="preserve">
<style type="text/css">
	.st0{fill:#F4ACB1;}
	.st1{opacity:0.2;}
	.st2{clip-path:url(#SVGID_00000152261487088700056860000005108273291175831731_);}
	.st3{fill:#BA935B;}
	.st4{fill:#DAC7A1;}
	.st5{fill:#10312B;}
	.st6{fill:#225C4F;}
	.st7{fill:#EF8B91;}
	.st8{fill:#3C3C3B;}
	.st9{clip-path:url(#SVGID_00000114074005012491827700000001565054242041062332_);}
	.st10{fill:#FFFFFF;}
	.st11{fill:#E9DBFF;}
	.st12{opacity:0.3;}
	.st13{clip-path:url(#SVGID_00000098214813765035474830000009167458655550979970_);}
	.st14{fill:#EDE2FF;}
	.st15{fill:#ED7980;}
	.st16{clip-path:url(#SVGID_00000082337344122911624250000005496778136955435149_);}
	.st17{clip-path:url(#SVGID_00000047759389044245814120000004423634386751376807_);}
	.st18{fill:#691C32;}
	.st19{fill:#9E2242;}
</style>
<g>
	<g id="Capa_1_00000026133256761734009550000003261769362801202846_">
		<path class="st0" d="M78.1,884.3h202.5l16.8-45.2c5.9-16,18.1-28.9,33.7-35.9c14.7-6.6,34.4-18.7,53.5-40.2
			c37.2-41.8,57-86.6,57-86.6l-125.5-0.6c0,0,11.3-70.2-51.1-163.4c-6.7-10-9.7-22-8.7-33.9l5.9-68c0,0,42.4-47.4,16.4-106.1
			c0,0-24.9-34.4-34.7-21.8c0,0-75.1,178.9-82,205.4c-6.8,26.6-16,43.3-6.8,126.9c2.4,22.1,3.3,40.6,3.2,55.7
			c-0.1,29.1-6.6,57.9-19,84.2L78.1,884.3L78.1,884.3z"/>
		<g class="st1">
			<g>
				<defs>
					<rect id="SVGID_1_" x="78.1" y="663.1" width="297.9" height="221.2"/>
				</defs>
				<clipPath id="SVGID_00000075164689026599656790000004173514709357204920_">
					<use xlink:href="#SVGID_1_"  style="overflow:visible;"/>
				</clipPath>
				<g style="clip-path:url(#SVGID_00000075164689026599656790000004173514709357204920_);">
					<path class="st0" d="M266.9,768.3c-18.8-20.9-44.9-17.6-72.4-27.1c-27.5-9.5-36.3-78.1-36.3-78.1l0,0c0,2.6,0.1,5.1,0.1,7.5
						c-0.1,29.1-6.6,57.9-19,84.2L78.1,884.4h202.5l16.8-45.2c5.9-16,18.1-28.9,33.7-35.9c12.5-5.6,28.6-15.2,45-31.2
						C320.2,795.5,285.7,789.2,266.9,768.3"/>
				</g>
			</g>
		</g>
		<path class="st3" d="M177.4,74.1C223.9,147.5,338.7,213,338.7,213s-91.2-7.4-136.5-66.4l16.4-13.6c0,0-13,1.3-24,2.5
			C184.6,118.9,178,98.6,177.4,74.1"/>
		<path class="st4" d="M299.5,104.5c-7.1,3.2-17.5,8.1-17.5,8.1l10.1-14.5c-11.8-9.1-24.7-15.2-37.5-19.2c-5.2,7.6-11.3,16-11.3,16
			l-1.2-19.3c-34.3-7.4-64.7-1.5-64.7-1.5C223.9,147.5,338.7,213,338.7,213C338.1,159,321.7,125.3,299.5,104.5"/>
		<path class="st4" d="M160.3,177.7c13.7-8,27.6-12.4,41.1-14.2c4.1,4.6,9.1,10.1,9.1,10.1l0.3-10.9c51.9-2.5,95.6,30.2,95.6,30.2
			c-29.7,18.1-55.2,23.1-76.3,21.6c-1.3-3.8-3.2-9.5-3.2-9.5l-3.5,8.8c-10.1-1.4-19.1-4.4-26.8-7.9c1.9-4.6,3.8-9.8,3.8-9.8
			l-11.1,6.1C170.3,191.4,160.3,177.7,160.3,177.7"/>
		<path class="st3" d="M230,214.6c-1.3-3.8-3.2-9.5-3.2-9.5l-3.5,8.8c-10.1-1.4-19-4.4-26.8-7.9c1.9-4.6,3.8-9.8,3.8-9.8l-11.1,6.1
			c-19-10.7-28.9-24.5-28.9-24.5c60.4-6.9,146,15.2,146,15.2C276.6,211,251.1,216.1,230,214.6"/>
		<path class="st5" d="M747.2,51.8l-7.4,55.9l39.7-29L901,16.6l-94,8.6c0,0-47.9,11.6-50.5,14C754,41.5,747.2,51.8,747.2,51.8"/>
		<polygon class="st6" points="705.6,18 901,16.6 747.2,51.8 		"/>
		<polygon class="st6" points="810,108 758.9,66.9 901,16.6 		"/>
		<path class="st5" d="M721.3,77.9c7.5-2.8,13-3.4,13-3.4L734,71c-0.2,0-6,0.7-13.9,3.6L721.3,77.9L721.3,77.9z"/>
		<path class="st5" d="M598.2,389.1c8.1-4.1,15.7-8.5,22.6-13.1l1.9,2.9c-7.1,4.7-14.8,9.2-23,13.3L598.2,389.1L598.2,389.1z
			 M641.4,360c6.6-6,12.5-12.5,17.5-19.2l2.8,2.1c-5.2,6.9-11.3,13.5-18,19.7C643.8,362.6,641.4,360,641.4,360z M672.5,318.6
			c1.7-3.6,3.3-7.3,4.7-11.1c1.6-4.3,3-8.8,4.1-13.3l3.4,0.9c-1.2,4.7-2.6,9.3-4.3,13.7c-1.4,3.9-3.1,7.7-4.8,11.4L672.5,318.6z
			 M686.6,242.3l3.5-0.1c0.2,9.5-0.1,18.2-0.9,26.6l-3.5-0.3C686.5,260.2,686.7,251.6,686.6,242.3L686.6,242.3z M681.6,190l3.4-0.5
			c1.5,10.2,2.5,18.5,3.3,26.3l-3.5,0.4C684.1,208.5,683,200.2,681.6,190L681.6,190z M677.7,163.8c-1.4-9.4-1.8-18.3-1.3-26.5
			l3.5,0.2c-0.5,7.9-0.1,16.6,1.3,25.7v0.2l-3.4,0.5L677.7,163.8L677.7,163.8z M682.1,111.1c3.5-8.6,8.6-16.1,15.2-22.3l2.4,2.5
			c-6.2,5.8-11,12.9-14.3,21L682.1,111.1L682.1,111.1z"/>
		<path class="st5" d="M562.3,408c4.5-1.6,8.9-3.2,13.1-4.9l-1.3-3.2c-4.2,1.6-8.6,3.3-13,4.8L562.3,408L562.3,408z"/>
		<path class="st7" d="M554.8,163.3c0,0,42.9-28.7,52.7-9.8c9.8,18.9-55.7,85.8-55.7,85.8L554.8,163.3L554.8,163.3z"/>
		<path class="st7" d="M554.8,288.4c0,0,42.9-28.7,52.7-9.8c9.8,18.9-55.7,85.8-55.7,85.8L554.8,288.4L554.8,288.4z"/>
		<path class="st7" d="M554.8,373.6c0,0,42.9-28.7,52.7-9.8c9.8,18.9-55.7,85.8-55.7,85.8L554.8,373.6L554.8,373.6z"/>
		<path class="st8" d="M525.1,131.1H289.7c-17.5,0-31.7,14.2-31.7,31.7V644c0,17.7,14.4,31.7,31.7,31.7h235.4
			c17.5,0,31.7-14.2,31.7-31.7V162.9C556.9,145.2,542.5,131.1,525.1,131.1"/>
		<g class="st1">
			<g>
				<defs>
					<rect id="SVGID_00000044147549349848014760000014144522269361439934_" x="240.7" y="470.8" width="202.1" height="227.9"/>
				</defs>
				<clipPath id="SVGID_00000103961443988227017530000005933397517881904012_">
					<use xlink:href="#SVGID_00000044147549349848014760000014144522269361439934_"  style="overflow:visible;"/>
				</clipPath>
				<g style="clip-path:url(#SVGID_00000103961443988227017530000005933397517881904012_);">
					<path class="st0" d="M279.4,535.7c0,0-42.6,104.2-38.5,124c4.1,19.7,30,46.1,93.4,37.3c63.4-8.8,107.2-20.5,107.2-20.5
						s2.6-140.7,0-147.8s-116.6-57.8-121.1-57.8S279.4,535.7,279.4,535.7"/>
				</g>
			</g>
		</g>
		<rect x="273.3" y="174.4" class="st10" width="268.2" height="458.1"/>
		<path class="st4" d="M473.4,486.9H341.5c-9.2,0-16.7-7.5-16.7-16.6V295.5c0-9.2,7.5-16.6,16.7-16.6h131.9
			c9.2,0,16.7,7.5,16.7,16.6v174.7C490,479.4,482.6,486.9,473.4,486.9"/>
		<path class="st10" d="M350,363.1l13.1,62.8c0.6,2.7,2.9,4.7,5.6,4.7h77.4c2.7,0,5.1-1.9,5.6-4.7l13.1-62.8
			C464.9,363.1,350,363.1,350,363.1z M373.1,424.5c-1.7,0-3.2-1.4-3.2-3.2l-4.4-44.5c0-1.7,1.4-3.2,3.2-3.2s3.2,1.4,3.2,3.2
			l4.4,44.5C376.3,423.1,374.9,424.5,373.1,424.5z M389.1,424.5L389.1,424.5c-1.7,0-3.2-1.4-3.2-3.2l-1.8-44.5
			c0-1.7,1.4-3.2,3.2-3.2s3.2,1.4,3.2,3.2l1.8,44.5C392.2,423.1,390.8,424.5,389.1,424.5z M410.6,421.3c0,1.7-1.4,3.2-3.2,3.2
			s-3.2-1.4-3.2-3.2v-44.5c0-1.7,1.4-3.2,3.2-3.2s3.2,1.4,3.2,3.2V421.3z M429,421.3c0,1.7-1.4,3.2-3.2,3.2s-3.2-1.4-3.2-3.2
			l1.8-44.5c0-1.7,1.4-3.2,3.2-3.2s3.2,1.4,3.2,3.2L429,421.3z M445,421.3c0,1.7-1.4,3.2-3.2,3.2s-3.2-1.4-3.2-3.2l4.4-44.5
			c0-1.7,1.4-3.2,3.2-3.2s3.2,1.4,3.2,3.2L445,421.3z"/>
		<path class="st10" d="M465.7,368.2H349.2c-2.8,0-5.1-2.3-5.1-5.1c0-2.8,2.3-5.1,5.1-5.1h116.5c2.8,0,5.1,2.3,5.1,5.1
			C470.7,365.9,468.5,368.2,465.7,368.2"/>
		<path class="st10" d="M373.6,358.4v-4.4c0-7.3,5.9-13.2,13.2-13.2H428c7.3,0,13.2,5.9,13.2,13.2v4.4c0,1.6,1.3,2.9,2.8,2.9
			s2.8-1.3,2.8-2.9v-4.4c0-10.4-8.5-18.9-18.9-18.9h-41.1c-10.4,0-18.9,8.5-18.9,18.9v4.4c0,1.6,1.3,2.9,2.9,2.9
			C372.4,361.3,373.7,360,373.6,358.4"/>
		<path class="st11" d="M462.7,160H352.6c-1.3,0-2.3-1-2.3-2.3v-1.1c0-1.3,1-2.3,2.3-2.3h110.1c1.3,0,2.3,1,2.3,2.3v1.1
			C465,158.9,464,160,462.7,160"/>
		<path class="st0" d="M252.6,451.5c0,0,1.6,6,5.3,9l4.3-50c0,0,31.2-34.8,23.6-81.8c-2.6-16.1-10.6-30.9-22.8-41.6
			c-7-6.2-14.7-10.2-19.2-4.5c0,0-35.3,84.1-59.7,145.5L252.6,451.5L252.6,451.5z"/>
		<g class="st12">
			<g>
				<defs>
					<rect id="SVGID_00000178883765126758632300000000085622342120332697_" x="394.1" y="641.4" width="26.3" height="26.3"/>
				</defs>
				<clipPath id="SVGID_00000048462829524372705790000009877564051882823056_">
					<use xlink:href="#SVGID_00000178883765126758632300000000085622342120332697_"  style="overflow:visible;"/>
				</clipPath>
				<g style="clip-path:url(#SVGID_00000048462829524372705790000009877564051882823056_);">
					<path class="st14" d="M420.4,654.6c0,7.3-5.9,13.2-13.2,13.2c-7.3,0-13.2-5.9-13.2-13.2c0-7.3,5.9-13.2,13.2-13.2
						C414.5,641.4,420.4,647.3,420.4,654.6"/>
				</g>
			</g>
		</g>
		<path class="st14" d="M411.2,660.1h-7.9c-0.9,0-1.6-0.7-1.6-1.6v-7.9c0-0.9,0.7-1.6,1.6-1.6h7.9c0.9,0,1.6,0.7,1.6,1.6v7.9
			C412.8,659.4,412.1,660.1,411.2,660.1 M403.3,649.5c-0.6,0-1.1,0.5-1.1,1.1v7.9c0,0.6,0.5,1.1,1.1,1.1h7.9c0.6,0,1.1-0.5,1.1-1.1
			v-7.9c0-0.6-0.5-1.1-1.1-1.1H403.3z"/>
		<rect x="273.3" y="605.4" class="st5" width="268.2" height="27.1"/>
		<rect x="273.3" y="174.4" class="st11" width="268.2" height="24.3"/>
		<path class="st15" d="M250.2,331.9c9.7-4.5,14.8-29.9,16.7-41.3c-7.8-7.9-17.6-15-23-8.1c0,0-7.8,18.5-18.6,44.5
			C232.7,331.1,242.9,335.2,250.2,331.9"/>
		<path class="st7" d="M496.2,476.1c0,0-36.2,3-37.5,12.7c-1.3,9.6,1.5,26.6,35.7,29.9h35.4c0,0-10.6-29.4-10.1-30.4
			C520.2,487.3,496.1,476.1,496.2,476.1"/>
		<path class="st0" d="M438,619.7c-4.9,2.6-6.6,8.8-3.8,13.6c16.6,28.7,82.9,143,88.9,152.3c6.8,10.6,23.5,35.7,79,48.6
			c55.5,12.9,78.3,50.2,78.3,50.2h171c0,0-40.3-63.8-73.7-229.5c0,0-25.8-137.5-74.5-133c0,0-29.6-31.1-58.5-25.1
			c0,0-54.7-32.7-85.9-32.7L484,375.7c-7.4-8.8-20.5-10.5-29.6-3.5c-2.9,2.2-5.2,5.2-5.8,9.1c-2.3,14.4,16.7,50.9,47.1,95
			c30.4,44.1,105.6,183.9,72.9,245.4c0,0-33.4-25.1-62.3-65.3C482.2,622.7,453.8,611.4,438,619.7"/>
		<path class="st15" d="M559.1,464.2c9.9,8.5,19.2,17.7,28,27.4c11.9,12.9,26.8,32.1,35.7,46.9c11.1,18.3,18.4,34.3,21.9,54.4h-0.2
			c-4-18.9-14.4-39.2-23.5-53.3c-6.8-11-19.3-28.5-35.2-46.8c-7.9-9.2-18.1-20-26.8-28.4L559.1,464.2L559.1,464.2z"/>
		<path class="st15" d="M644.2,496.6c8.1,4.1,15.3,9.9,21.7,16.4c6.4,6.5,11.8,13.9,16.4,21.9c4.5,8,7.9,16.5,10.3,25.3
			c2,8.2,3.2,13.9,3.5,26.9h-0.2c-0.8-8.9-2.4-17.8-4.9-26.4c-2.5-8.3-6.2-17.3-10.5-24.7c-4.4-7.8-9.7-15.1-15.8-21.8
			c-5.7-6.3-13.2-13-20.4-17.4L644.2,496.6L644.2,496.6z"/>
		<path class="st15" d="M702.6,521.3c7.1,5.4,14.4,15,17.9,21.5c4.4,7.6,7.9,16.4,10.2,26c1.7,6.2,2.1,12.2,2.4,18.4h-0.2
			c-1.1-6.1-1.7-10.6-3.9-17.9c-3.3-11.2-5.9-16.9-10.4-25.5c-2.7-5.3-9.6-15.8-16.1-22.3L702.6,521.3L702.6,521.3z"/>
		<path class="st15" d="M472.5,655.1c1.5-7.7-7.4-19.9-15.6-29.1c-5.1-5.8-13.1-7.9-20.2-5.5c-3.9,2.9-5.1,8.5-2.6,12.8
			c4.5,7.7,12.5,21.6,22.1,38C463.3,667.7,471.1,662.2,472.5,655.1"/>
		<path class="st15" d="M479.7,410.4c4.3-0.9,23.9-7.4,22.7-10.9l-19.3-22.9c-3.8-4.5-9.2-7.2-14.7-7.7l0,0c0,0-0.1,0-0.1,0
			c-0.2,0-0.5,0-1,0c-2.6,0-9,0.8-10.4,7.8c-1.4,6.9,10.1,23.8,15.2,30.8C473.8,409.9,476.8,411,479.7,410.4"/>
		<g class="st1">
			<g>
				<defs>
					<rect id="SVGID_00000181778020946307790920000017338764211177047195_" x="524.1" y="738.6" width="327.2" height="145.7"/>
				</defs>
				<clipPath id="SVGID_00000180350878851654724780000015333686389340144288_">
					<use xlink:href="#SVGID_00000181778020946307790920000017338764211177047195_"  style="overflow:visible;"/>
				</clipPath>
				<g style="clip-path:url(#SVGID_00000180350878851654724780000015333686389340144288_);">
					<path class="st0" d="M680.4,884.3h171c0,0-26.4-41.9-54.2-145.7c-12.2,76.5-79.5,72.1-106.2,76.3
						c-30.8,4.9-150.1-20-166.8-27.8c7.4,11.3,25.1,34.8,78,47.1C657.6,847.1,680.4,884.4,680.4,884.3"/>
				</g>
			</g>
		</g>
		<g class="st1">
			<g>
				<defs>
					<rect id="SVGID_00000005253098911150542670000000915888610995944871_" x="504.8" y="490.2" width="99.1" height="251"/>
				</defs>
				<clipPath id="SVGID_00000022537111880919315700000007896073174205089970_">
					<use xlink:href="#SVGID_00000005253098911150542670000000915888610995944871_"  style="overflow:visible;"/>
				</clipPath>
				<g style="clip-path:url(#SVGID_00000022537111880919315700000007896073174205089970_);">
					<path class="st0" d="M504.8,490.2c33.5,53.9,93.7,177.6,63.9,231.6l19.7,19.5c0,0,49.9-55.3-29.5-177.2
						C540.5,535.7,522.1,511.2,504.8,490.2"/>
				</g>
			</g>
		</g>
		<path class="st5" d="M103.7,462.1c-4.3-3.7-7.8-5.4-7.8-5.5l1.1-2.2c0.1,0.1,3.8,1.9,8.3,5.8L103.7,462.1L103.7,462.1z"/>
		<path class="st5" d="M107.6,700.3c-4.4-4.8-8.5-9.6-12-14.5l2-1.4c3.5,4.7,7.4,9.5,11.8,14.2L107.6,700.3z M85.7,669.9
			c-3-5.7-5.4-11.6-7.1-17.4l2.4-0.7c1.7,5.7,4.1,11.4,7,17C87.9,668.7,85.7,669.9,85.7,669.9z M74.9,633.9
			c-0.3-2.9-0.4-5.8-0.4-8.8c0-3.3,0.2-6.7,0.5-10.1l2.5,0.2c-0.3,3.3-0.5,6.6-0.5,9.9c0,2.9,0.1,5.7,0.4,8.5L74.9,633.9z
			 M80.8,597.1l-2.4-0.6c1.5-5.8,3.4-11.6,5.9-17.8l2.3,0.9C84.2,585.7,82.3,591.5,80.8,597.1z M94.1,562.6l-2.2-1.1
			c2.4-4.9,5.1-10.2,8.6-16.6l2.2,1.2C99.2,552.5,96.5,557.7,94.1,562.6L94.1,562.6z M111.6,529.7l-2.2-1.2l0.1-0.1
			c3.1-5.7,5.5-11.4,7.1-16.8l2.4,0.7c-1.7,5.5-4.1,11.3-7.4,17.2L111.6,529.7L111.6,529.7z M119.2,493.6
			c-0.2-6.2-1.7-12.1-4.3-17.5l2.2-1.1c2.8,5.7,4.4,11.9,4.6,18.4L119.2,493.6L119.2,493.6z"/>
		<path class="st5" d="M128.6,719.9c-2.6-2.1-5.1-4.3-7.5-6.5l1.7-1.8c2.4,2.1,4.9,4.3,7.5,6.4L128.6,719.9L128.6,719.9z"/>
		<path class="st6" d="M85.3,425.9l-2.7,33.1l-19.3-21.7L1,386.4l53.1,16.7c0,0,26.2,12.7,27.4,14.4C82.7,419.2,85.3,426,85.3,425.9
			"/>
		<polygon class="st5" points="113.5,411.7 1,386.4 85.3,425.9 		"/>
		<polygon class="st5" points="42,450.5 76.7,433.2 1,386.4 		"/>
		<path class="st18" d="M450.3,265.7h-0.2c-11.8,0-21.3-9.5-21.3-21.3v-16h42.8v16C471.6,256.2,462.1,265.7,450.3,265.7"/>
		<path class="st18" d="M364.8,265.7h-0.2c-11.8,0-21.3-9.5-21.3-21.3v-16h42.8v16C386.1,256.2,376.6,265.7,364.8,265.7"/>
		<path class="st18" d="M279.2,265.7H279c-11.8,0-21.3-9.5-21.3-21.3v-16h42.8v16C300.5,256.2,291,265.7,279.2,265.7"/>
		<path class="st18" d="M535.8,265.7h-0.2c-11.8,0-21.3-9.5-21.3-21.3v-16h42.8v16C557.1,256.2,547.6,265.7,535.8,265.7"/>
		<path class="st19" d="M407.6,265.7h-0.2c-11.8,0-21.3-9.5-21.3-21.3v-16h42.8v16C428.9,256.2,419.3,265.7,407.6,265.7"/>
		<path class="st19" d="M322,265.7h-0.2c-11.8,0-21.3-9.5-21.3-21.3v-16h42.8v16C343.3,256.2,333.8,265.7,322,265.7"/>
		<path class="st19" d="M578.6,265.7h-0.2c-11.8,0-21.3-9.5-21.3-21.3v-16h42.8v16C599.9,256.2,590.4,265.7,578.6,265.7"/>
		<path class="st19" d="M493.1,265.7h-0.2c-11.8,0-21.3-9.5-21.3-21.3v-16h42.8v16C514.4,256.2,504.9,265.7,493.1,265.7"/>
		<path class="st19" d="M236.5,265.7h-0.2c-11.8,0-21.3-9.5-21.3-21.3v-16h42.8v16C257.8,256.2,248.2,265.7,236.5,265.7"/>
		<polygon class="st18" points="422.7,174.4 392.3,174.4 386.1,228.5 428.9,228.5 		"/>
		<polygon class="st18" points="361.8,174.4 331.4,174.4 300.5,228.5 343.3,228.5 		"/>
		<polygon class="st18" points="301,174.4 270.6,174.4 215,228.5 257.7,228.5 		"/>
		<polygon class="st18" points="544.1,174.4 513.7,174.4 557.1,228.5 599.9,228.5 		"/>
		<polygon class="st18" points="483.5,174.4 453,174.4 471.6,228.5 514.4,228.5 		"/>
		<polygon class="st19" points="392.3,174.4 361.8,174.4 343.3,228.5 386.1,228.5 		"/>
		<polygon class="st19" points="331.4,174.4 301,174.4 257.7,228.5 300.5,228.5 		"/>
		<polygon class="st19" points="513.8,174.4 483.5,174.4 514.3,228.5 557.1,228.5 		"/>
		<polygon class="st19" points="453,174.4 422.6,174.4 428.9,228.5 471.6,228.5 		"/>
		<path class="st18" d="M490.2,552.2H324.6c-9,0-16.3-7.3-16.3-16.3v-4.8c0-9,7.3-16.3,16.3-16.3h165.5c9,0,16.3,7.3,16.3,16.3v4.8
			C506.5,544.9,499.2,552.2,490.2,552.2"/>
	</g>
</g>
</svg>
