<?xml version="1.0" encoding="utf-8"?>
<!-- Generator: Adobe Illustrator 26.3.1, SVG Export Plug-In . SVG Version: 6.00 Build 0)  -->
<svg version="1.1" id="Capa_1" xmlns="http://www.w3.org/2000/svg" xmlns:xlink="http://www.w3.org/1999/xlink" x="0px" y="0px"
	 viewBox="0 0 350 38.9" style="enable-background:new 0 0 350 38.9;" xml:space="preserve">
<style type="text/css">
	.st0{fill:#C9AF90;}
	.st1{fill:#9E2149;}
	.st2{fill:#6C6C6C;}
	.st3{clip-path:url(#SVGID_00000046329282995538147590000000234189486780730285_);}
	.st4{fill-rule:evenodd;clip-rule:evenodd;fill:#EDEDED;}
	.st5{fill-rule:evenodd;clip-rule:evenodd;fill:#555555;}
	.st6{fill-rule:evenodd;clip-rule:evenodd;fill:#899396;}
	.st7{fill-rule:evenodd;clip-rule:evenodd;fill:#FFF0FA;}
	.st8{fill-rule:evenodd;clip-rule:evenodd;fill:#6C8BBE;}
	.st9{fill-rule:evenodd;clip-rule:evenodd;fill:#407EA1;}
	.st10{fill-rule:evenodd;clip-rule:evenodd;fill:#90D277;}
	.st11{fill-rule:evenodd;clip-rule:evenodd;fill:#769EC3;}
	.st12{fill-rule:evenodd;clip-rule:evenodd;fill:#9FDA8F;}
	.st13{fill-rule:evenodd;clip-rule:evenodd;fill:#F5DDEA;}
	.st14{fill-rule:evenodd;clip-rule:evenodd;fill:#8FD479;}
	.st15{fill-rule:evenodd;clip-rule:evenodd;fill:#C7BAB7;}
	.st16{fill-rule:evenodd;clip-rule:evenodd;fill:#7ACB61;}
	.st17{fill-rule:evenodd;clip-rule:evenodd;fill:#FECE7D;}
	.st18{fill-rule:evenodd;clip-rule:evenodd;fill:#FF9B8F;}
	.st19{fill-rule:evenodd;clip-rule:evenodd;fill:#00BEEA;}
	.st20{fill-rule:evenodd;clip-rule:evenodd;fill:#4292BE;}
	.st21{fill-rule:evenodd;clip-rule:evenodd;fill:#67506A;}
	.st22{fill-rule:evenodd;clip-rule:evenodd;fill:#D3C6C8;}
	.st23{fill-rule:evenodd;clip-rule:evenodd;fill:#FF816C;}
	.st24{fill-rule:evenodd;clip-rule:evenodd;fill:#FF4A67;}
	.st25{fill-rule:evenodd;clip-rule:evenodd;fill:#FF6D95;}
	.st26{fill-rule:evenodd;clip-rule:evenodd;fill:#FF88A5;}
	.st27{fill-rule:evenodd;clip-rule:evenodd;fill:#FFE17B;}
	.st28{fill-rule:evenodd;clip-rule:evenodd;fill:#008888;}
</style>
<g>
	<path class="st0" d="M28.1,3.6H0.5v18.4c0,10.1,13.8,13.2,13.8,13.2h0c0,0,13.8-3,13.8-13.2C28.1,22.1,28.1,3.6,28.1,3.6z
		 M27.5,4.3v17.8c0,2.2-0.7,4.1-2,5.9c-1.1,1.4-2.6,2.7-4.5,3.9c-2.9,1.7-5.9,2.5-6.6,2.7c-0.7-0.2-3.6-1-6.6-2.7
		c-1.9-1.1-3.5-2.4-4.6-3.9c-1.3-1.8-2-3.8-2-5.9V4.3H27.5z"/>
	<path class="st0" d="M17.7,9.5V7.8h-1.7v1.6h-0.7V7.8h-1.8v1.6h-0.7V7.8H11v1.7l0.9,1.5c0,0.1,0,0.1,0,0.2v7.7h0.8v-2.8
		c0-0.7,0.7-1.3,1.6-1.3s1.6,0.6,1.6,1.3v2.8h0.9V16c0,0,0,0,0,0v-2.5l0,0v-2.2c0-0.1,0-0.1,0-0.2L17.7,9.5L17.7,9.5z"/>
	<path class="st0" d="M11.2,19.1v-2.6l-0.3,0.2c-0.1,0.1-0.3,0.1-0.4,0l-0.4-0.3c0,0,0,0,0,0l0,1c0,0.1,0,0.2-0.1,0.3
		c0,0,0.1,0,0.1,0.1c0.5,0.4,0.5,0.9,0.4,1.3L11.2,19.1L11.2,19.1z"/>
	<path class="st0" d="M14.3,15.6c-0.5,0-0.9,0.4-0.9,0.6v2.8h1.8v-2.8C15.2,16,14.8,15.6,14.3,15.6"/>
	<path class="st0" d="M4,19.1c-0.1-0.2-0.2-0.5-0.2-0.8c-0.1-0.5-0.1-1-0.1-1.1c0-0.1,0.1-0.3,0.2-0.3l0.7-0.2l-0.8-0.6
		c-0.1-0.1-0.1-0.2-0.1-0.3v-0.9c0-0.1,0.1-0.2,0.2-0.3l0.3-0.2v-0.3L3.9,14c-0.1-0.1-0.2-0.2-0.2-0.3v-1.1c0-0.2,0.1-0.3,0.3-0.3
		h1.1c0-0.3,0-0.7,0-1c0.1-0.4,0.3-0.9,0.4-1.1L5.5,9.8c0-0.1,0-0.2,0.1-0.3c0.1-0.1,0.2-0.1,0.3-0.1h0.6c0.1,0,0.1,0,0.2,0.1
		L8,10.3h0.6c0.1,0,0.2,0,0.2,0.1c0.1,0.1,0.1,0.2,0.1,0.2l0,1.1c0,0.1,0,0.2-0.1,0.2h0.4c0.1,0,0.2,0,0.2,0.1l0.2,0.2l0.1-0.1
		l0.2-0.5c0.1-0.1,0.2-0.2,0.3-0.2h0.9v-0.2l-0.9-1.5c0-0.1,0-0.1,0-0.2V7.5c0-0.2,0.1-0.3,0.3-0.3H18c0.2,0,0.3,0.2,0.3,0.3v2.1
		c0,0.1,0,0.1,0,0.2l-0.9,1.5v0.2h0.9c0.1,0,0.2,0.1,0.3,0.2l0.2,0.5l0.1,0.1l0.2-0.2c0.1-0.1,0.2-0.1,0.2-0.1h0.4
		c-0.1-0.1-0.1-0.1-0.1-0.2l0-1.1c0-0.1,0-0.2,0.1-0.2c0.1-0.1,0.2-0.1,0.2-0.1h0.6l1.4-0.9c0.1,0,0.1-0.1,0.2-0.1h0.6
		c0.1,0,0.2,0,0.3,0.1c0.1,0.1,0.1,0.2,0.1,0.3l-0.1,0.4c0.1,0.2,0.4,0.7,0.4,1.1c0.1,0.3,0.1,0.7,0,1h1c0.2,0,0.3,0.2,0.3,0.4v1.1
		c0,0.1-0.1,0.3-0.2,0.3l-0.3,0.1v0.3l0.3,0.2c0.1,0.1,0.2,0.2,0.2,0.3v0.9c0,0.1-0.1,0.2-0.1,0.3L24,16.7l0.7,0.2
		c0.1,0,0.2,0.2,0.2,0.3c0,0,0,0.5-0.1,1.1c0,0.3-0.1,0.6-0.2,0.8h1.3V6H2.7v13.1H4z"/>
	<path class="st0" d="M18.5,17.8c0,0,0.1,0,0.1-0.1c-0.1-0.1-0.1-0.2-0.1-0.3l0-1c0,0,0,0,0,0l-0.4,0.3c-0.1,0.1-0.2,0.1-0.4,0
		l-0.3-0.2v2.6h0.7C18,18.7,18,18.2,18.5,17.8"/>
	<path class="st0" d="M23,26.1c-0.2,0-0.3-0.1-0.3-0.3v-2.2c0-0.2-0.1-0.4-0.2-0.5c-0.1-0.1-0.4-0.3-0.7-0.3c-0.5,0-0.8,0.4-0.9,0.8
		v2.2c0,0.1,0,0.2-0.1,0.2c-0.1,0.1-0.1,0.1-0.2,0.1h-2c-0.2,0-0.3-0.1-0.3-0.3v-2.2c0-0.2-0.1-0.4-0.3-0.5
		c-0.1-0.1-0.4-0.3-0.7-0.3c-0.2,0-0.4,0.1-0.6,0.2l1.7,8.5c2.3-1,5.1-2.7,6.6-5.3L23,26.1L23,26.1z"/>
	<path class="st0" d="M17.6,31.7l-2.3-11.9h-1.9L11,31.7c0,0,0,0,0,0c1.6,0.7,2.9,1,3.3,1.1C14.7,32.8,16,32.4,17.6,31.7
		C17.6,31.8,17.6,31.7,17.6,31.7"/>
	<path class="st0" d="M12.1,23c-0.2-0.1-0.4-0.2-0.6-0.2h0c-0.3,0-0.6,0.1-0.7,0.3c-0.2,0.2-0.2,0.4-0.2,0.5v2.2
		c0,0.2-0.2,0.3-0.3,0.3h-2c-0.1,0-0.2,0-0.2-0.1c-0.1-0.1-0.1-0.2-0.1-0.2v-2.2c0-0.4-0.4-0.8-0.9-0.8h0c-0.3,0-0.6,0.1-0.7,0.3
		C6.1,23.2,6,23.4,6,23.6v2.2c0,0.2-0.1,0.3-0.3,0.3H3.8c1.5,2.6,4.2,4.3,6.6,5.3L12.1,23L12.1,23z"/>
	<path class="st0" d="M25.9,19.8H16l0.5,2.5c0.2-0.1,0.5-0.2,0.7-0.2c0.4,0,0.9,0.2,1.2,0.5c0.3,0.3,0.5,0.7,0.5,1v1.9h1.3v-1.9
		c0.1-0.8,0.7-1.4,1.5-1.4c0.5,0,0.9,0.2,1.2,0.5c0.3,0.3,0.5,0.7,0.5,1v1.9h1.9c0.5-1,0.7-2.2,0.7-3.5L25.9,19.8L25.9,19.8"/>
	<path class="st0" d="M5.3,25.5v-1.9c0-0.4,0.2-0.7,0.5-1c0.3-0.3,0.7-0.5,1.2-0.5c0.8,0,1.5,0.6,1.5,1.4c0,0,0,0,0,0v1.9h1.3v-1.9
		c0-0.4,0.2-0.7,0.5-1c0.3-0.3,0.7-0.5,1.2-0.5c0.2,0,0.5,0.1,0.7,0.2l0.5-2.5h-10V22c0,1.3,0.3,2.4,0.7,3.5L5.3,25.5L5.3,25.5z"/>
	<path class="st0" d="M6.1,18.4h0.6c0,0.1,0.1,0.1,0.1,0.2c0,0,0,0.1,0,0.1c0,0.1,0,0.2,0,0.3H4.8c-0.3-0.2-0.4-0.9-0.4-1.6l0.8-0.3
		c0.1,0,0.2-0.2,0.2-0.3v-0.3c0-0.1-0.1-0.2-0.1-0.3l-0.9-0.7v-0.6L4.7,15c0.1-0.1,0.2-0.2,0.2-0.3v-0.8c0-0.1-0.1-0.3-0.2-0.3
		l-0.3-0.1v-0.6h0.9l0.4,0.7v1l-0.3,0.9c0,0.1,0,0.2,0,0.3c0.1,0.1,0.2,0.1,0.3,0.1h0.3c0.2,0,0.3-0.1,0.3-0.3
		c0-0.1,0.1-0.6,0.2-0.8c0.1-0.2,0.3-0.5,0.5-0.7c0.1-0.1,0.1-0.3,0-0.4l-1.2-1.3c0-0.2-0.1-0.7,0-1c0.1-0.4,0.3-0.8,0.4-1
		c0-0.1,0.1-0.1,0-0.2l0-0.1h0.1l1.4,0.9C7.7,11,7.8,11,7.8,11h0.4l0,0.5l-0.4,0.2c-0.1,0-0.2,0.2-0.2,0.3v0.4
		c0,0.2,0.2,0.3,0.3,0.3H9L9.3,13c0.1,0.1,0.3,0.1,0.5,0c0,0,0.5-0.4,0.6-0.5l0.2-0.4h0.7v1.2c0,0-1.2,0.4-1.3,0.5
		c-0.1,0-0.1,0.4-0.1,0.5c0,0.1,0,0.1,0.1,0.2c0,0,0.4,0.3,0.5,0.3l0.4-0.3l0.5,0v1.1L10.7,16l-1.4-1C9.2,15,9,15,8.9,15.1l-0.2,0.3
		c-0.1,0.1-0.1,0.3,0,0.5l0.8,0.8v0.6l-0.8,0.4c-0.1,0.1-0.2,0.2-0.2,0.3v0.1c0,0.2,0.2,0.3,0.3,0.3h1c0.2,0.2,0.1,0.5,0,0.7H7.5
		c-0.1-0.1-0.1-0.2-0.1-0.4c0,0,0-0.1,0-0.1c0-0.2,0-0.4,0-0.6L8,17.4C8,17.3,8,17.2,8,17.2l0-0.3c0-0.1,0-0.2-0.1-0.3
		c-0.1-0.1-0.2-0.1-0.3,0l-0.8,0.3c-0.1,0-0.2,0.1-0.2,0.3l-0.1,0.3L6,17.6c-0.1,0-0.2,0.2-0.2,0.3v0.1C5.7,18.3,5.9,18.4,6.1,18.4"
		/>
	<path class="st0" d="M22.5,18.4H22c0,0.1-0.1,0.1-0.1,0.2c0,0,0,0.1,0,0.1c0,0.1,0,0.2,0,0.3h1.9c0.3-0.2,0.4-0.9,0.4-1.6l-0.8-0.3
		c-0.1,0-0.2-0.2-0.2-0.3v-0.3c0-0.1,0.1-0.2,0.1-0.3l0.9-0.7v-0.6L24,15c-0.1-0.1-0.2-0.2-0.2-0.3v-0.8c0-0.1,0.1-0.3,0.2-0.3
		l0.3-0.1v-0.6h-0.9L23,13.6v1l0.3,0.9c0,0.1,0,0.2,0,0.3c-0.1,0.1-0.2,0.1-0.3,0.1h-0.3c-0.2,0-0.3-0.1-0.3-0.3
		c0-0.1-0.1-0.6-0.2-0.8c-0.1-0.2-0.3-0.5-0.5-0.7c-0.1-0.1-0.1-0.3,0-0.4l1.2-1.3c0-0.2,0.1-0.7,0-1c-0.1-0.4-0.3-0.8-0.4-1
		c0-0.1-0.1-0.1,0-0.2l0-0.1h-0.1L21,10.9c-0.1,0-0.1,0.1-0.2,0.1h-0.4l0,0.5l0.4,0.2c0.1,0,0.2,0.2,0.2,0.3v0.4
		c0,0.2-0.2,0.3-0.3,0.3h-1.2L19.3,13c-0.1,0.1-0.3,0.1-0.5,0c0,0-0.5-0.4-0.6-0.5l-0.2-0.4h-0.7v1.2c0,0,1.2,0.4,1.3,0.5
		c0.1,0,0.1,0.4,0.1,0.5c0,0.1,0,0.1-0.1,0.2c0,0-0.4,0.3-0.5,0.3l-0.4-0.3l-0.5,0v1.1l0.5,0.3l1.4-1c0.1-0.1,0.4-0.1,0.5,0.1
		l0.2,0.3c0.1,0.1,0.1,0.3,0,0.5l-0.8,0.8v0.6l0.8,0.4c0.1,0.1,0.2,0.2,0.2,0.3v0.1c0,0.2-0.2,0.3-0.3,0.3h-1
		c-0.2,0.2-0.1,0.5,0,0.7h2.3c0.1-0.1,0.1-0.2,0.1-0.4c0,0,0-0.1,0-0.1c0-0.2,0-0.4-0.1-0.6l-0.5-0.7c0-0.1-0.1-0.1-0.1-0.2l0-0.3
		c0-0.1,0-0.2,0.1-0.3c0.1-0.1,0.2-0.1,0.3,0l0.8,0.3c0.1,0,0.2,0.1,0.2,0.3l0.1,0.3l0.5,0.1c0.1,0,0.2,0.2,0.2,0.3v0.1
		C22.9,18.3,22.7,18.4,22.5,18.4"/>
	<path class="st1" d="M160.2,17.1l0.6-0.7c0.4,0.4,0.9,0.6,1.4,0.6c0.4,0,0.7-0.2,0.7-0.4v0c0-0.3-0.2-0.4-1-0.6
		c-1-0.2-1.6-0.5-1.6-1.4v0c0-0.9,0.7-1.4,1.6-1.4c0.7,0,1.3,0.2,1.7,0.6l-0.5,0.8c-0.4-0.3-0.8-0.5-1.2-0.5c-0.4,0-0.6,0.2-0.6,0.4
		v0c0,0.3,0.2,0.4,1,0.6c1,0.2,1.5,0.6,1.5,1.4v0c0,0.9-0.7,1.5-1.7,1.5C161.4,17.8,160.7,17.6,160.2,17.1"/>
	<polygon class="st1" points="164.9,13 168.5,13 168.5,14 165.9,14 165.9,14.9 168.2,14.9 168.2,15.8 165.9,15.8 165.9,16.8 
		168.5,16.8 168.5,17.8 164.9,17.8 	"/>
	<path class="st1" d="M169.2,15.4L169.2,15.4c0-1.4,1-2.4,2.5-2.4c0.9,0,1.4,0.3,1.9,0.7l-0.7,0.8c-0.4-0.3-0.7-0.5-1.2-0.5
		c-0.8,0-1.4,0.7-1.4,1.5v0c0,0.8,0.6,1.5,1.4,1.5c0.5,0,0.9-0.2,1.2-0.6l0.7,0.7c-0.5,0.5-1,0.8-1.9,0.8
		C170.3,17.9,169.3,16.8,169.2,15.4"/>
	<path class="st1" d="M176.5,15.3c0.5,0,0.8-0.3,0.8-0.7v0c0-0.4-0.3-0.7-0.8-0.7h-1v1.3C175.5,15.3,176.5,15.3,176.5,15.3z
		 M174.4,13.1h2.2c0.6,0,1.1,0.2,1.4,0.5c0.3,0.3,0.4,0.6,0.4,1.1v0c0,0.8-0.4,1.2-1,1.5l1.2,1.7h-1.2l-1-1.5h-0.8v1.5h-1
		L174.4,13.1L174.4,13.1z"/>
	<polygon class="st1" points="179.4,13 183,13 183,14 180.4,14 180.4,14.9 182.7,14.9 182.7,15.8 180.4,15.8 180.4,16.8 183,16.8 
		183,17.8 179.4,17.8 	"/>
	<polygon class="st1" points="185.1,14 183.7,14 183.7,13 187.6,13 187.6,14 186.1,14 186.1,17.8 185.1,17.8 	"/>
	<path class="st1" d="M190.6,15.8l-0.6-1.5l-0.6,1.5H190.6z M189.5,13h1l2,4.7h-1.1l-0.4-1.1h-2l-0.4,1.1h-1.1L189.5,13L189.5,13z"
		/>
	<path class="st1" d="M195.3,15.3c0.5,0,0.8-0.3,0.8-0.7v0c0-0.4-0.3-0.7-0.8-0.7h-1v1.3L195.3,15.3L195.3,15.3z M193.2,13.1h2.2
		c0.6,0,1.1,0.2,1.4,0.5c0.3,0.3,0.4,0.6,0.4,1.1v0c0,0.8-0.4,1.2-1,1.5l1.1,1.7h-1.2l-1-1.5h-0.8v1.5h-1L193.2,13.1L193.2,13.1z"/>
	<path class="st1" d="M199.1,11.5l0.9,0.4l-0.9,0.8h-0.8L199.1,11.5L199.1,11.5z M198.2,13h1v4.7h-1C198.2,17.8,198.2,13,198.2,13z"
		/>
	<path class="st1" d="M203.1,15.8l-0.6-1.5l-0.6,1.5H203.1L203.1,15.8z M202.1,13h1l2,4.7h-1.1l-0.4-1.1h-2l-0.4,1.1H200L202.1,13
		L202.1,13z"/>
	<path class="st1" d="M209.7,16.8c0.8,0,1.4-0.6,1.4-1.4v0c0-0.8-0.6-1.4-1.4-1.4h-0.8v2.8H209.7z M207.8,13h1.8
		c1.5,0,2.5,1,2.5,2.3v0c0,1.3-1,2.4-2.5,2.4h-1.8C207.8,17.8,207.8,13,207.8,13z"/>
	<polygon class="st1" points="213.2,13 216.7,13 216.7,14 214.2,14 214.2,14.9 216.4,14.9 216.4,15.8 214.2,15.8 214.2,16.8 
		216.8,16.8 216.8,17.8 213.2,17.8 	"/>
	<path class="st1" d="M163.3,23.8l-0.6-1.5l-0.6,1.5C162,23.8,163.3,23.8,163.3,23.8z M162.2,21h1l2,4.7h-1.1l-0.4-1.1h-2l-0.4,1.1
		h-1.1L162.2,21L162.2,21z"/>
	<path class="st1" d="M167.8,24.8c0.8,0,1.4-0.6,1.4-1.4v0c0-0.8-0.6-1.4-1.4-1.4H167v2.8H167.8z M165.9,21h1.8c1.5,0,2.5,1,2.5,2.3
		v0c0,1.3-1,2.4-2.5,2.4h-1.8C165.9,25.7,165.9,21,165.9,21z"/>
	<polygon class="st1" points="171.3,21 172.4,21 173.6,23 174.9,21 176,21 176,25.7 174.9,25.7 174.9,22.7 173.6,24.7 173.6,24.7 
		172.3,22.7 172.3,25.7 171.3,25.7 	"/>
	<rect x="177.3" y="21" class="st1" width="1" height="4.7"/>
	<polygon class="st1" points="179.6,21 180.5,21 182.7,23.9 182.7,21 183.7,21 183.7,25.7 182.9,25.7 180.6,22.8 180.6,25.7 
		179.6,25.7 	"/>
	<rect x="185" y="21" class="st1" width="1" height="4.7"/>
	<path class="st1" d="M187,25.1l0.6-0.7c0.4,0.4,0.9,0.6,1.4,0.6c0.4,0,0.7-0.2,0.7-0.4v0c0-0.3-0.2-0.4-1-0.6
		c-1-0.2-1.6-0.5-1.6-1.4v0c0-0.8,0.7-1.4,1.6-1.4c0.7,0,1.3,0.2,1.7,0.6l-0.5,0.8c-0.4-0.3-0.8-0.5-1.2-0.5c-0.4,0-0.6,0.2-0.6,0.4
		v0c0,0.3,0.2,0.4,1,0.6c1,0.2,1.5,0.6,1.5,1.4l0,0c0,0.9-0.7,1.5-1.7,1.5C188.2,25.8,187.5,25.6,187,25.1"/>
	<polygon class="st1" points="192.7,22 191.3,22 191.3,21 195.2,21 195.2,22 193.8,22 193.8,25.7 192.7,25.7 	"/>
	<path class="st1" d="M198.1,23.3c0.5,0,0.8-0.3,0.8-0.7v0c0-0.4-0.3-0.7-0.8-0.7h-1v1.3L198.1,23.3L198.1,23.3z M196,21h2.2
		c0.6,0,1.1,0.2,1.4,0.5c0.3,0.3,0.4,0.6,0.4,1.1v0c0,0.8-0.4,1.2-1,1.5l1.2,1.7h-1.2l-1-1.5h-0.8v1.5h-1L196,21L196,21z"/>
	<path class="st1" d="M203.8,23.8l-0.6-1.5l-0.6,1.5L203.8,23.8L203.8,23.8z M202.7,21h1l2,4.7h-1.1l-0.4-1.1h-2l-0.4,1.1h-1.1
		L202.7,21L202.7,21z"/>
	<path class="st1" d="M206,23.4L206,23.4c0-1.4,1-2.4,2.5-2.4c0.9,0,1.4,0.3,1.9,0.7l-0.7,0.8c-0.4-0.3-0.7-0.5-1.2-0.5
		c-0.8,0-1.4,0.7-1.4,1.5v0c0,0.8,0.6,1.5,1.4,1.5c0.5,0,0.9-0.2,1.2-0.6l0.7,0.7c-0.5,0.5-1,0.8-1.9,0.8
		C207,25.8,206,24.8,206,23.4"/>
	<rect x="211.2" y="21" class="st1" width="1" height="4.7"/>
	<path class="st1" d="M216.1,19.5l0.9,0.4l-0.9,0.8h-0.8L216.1,19.5L216.1,19.5z M217.2,23.4L217.2,23.4c0-0.8-0.6-1.5-1.4-1.5
		c-0.8,0-1.4,0.7-1.4,1.5v0c0,0.8,0.6,1.5,1.4,1.5C216.6,24.9,217.2,24.2,217.2,23.4z M213.2,23.4L213.2,23.4c0-1.4,1.1-2.4,2.5-2.4
		s2.5,1.1,2.5,2.4v0c0,1.3-1.1,2.4-2.5,2.4C214.3,25.8,213.3,24.8,213.2,23.4L213.2,23.4z"/>
	<polygon class="st1" points="219.3,21 220.2,21 222.4,23.9 222.4,21 223.4,21 223.4,25.7 222.6,25.7 220.3,22.8 220.3,25.7 
		219.3,25.7 	"/>
	<polygon class="st1" points="228.2,24 226.4,21.1 227.6,21.1 228.7,23 229.9,21.1 231,21.1 229.2,24 229.2,25.8 228.2,25.8 	"/>
	<polygon class="st1" points="233.8,21.1 237.4,21.1 237.4,22.1 234.8,22.1 234.8,23.1 237.1,23.1 237.1,24 234.8,24 234.8,25.8 
		233.8,25.8 	"/>
	<rect x="238.3" y="21.1" class="st1" width="1" height="4.7"/>
	<polygon class="st1" points="240.6,21.1 241.5,21.1 243.8,24 243.8,21.1 244.8,21.1 244.8,25.8 243.9,25.8 241.6,22.8 241.6,25.8 
		240.6,25.8 	"/>
	<path class="st1" d="M248.7,23.9l-0.6-1.5l-0.6,1.5H248.7L248.7,23.9z M247.6,21.1h1l2,4.7h-1.1l-0.4-1.1h-2l-0.4,1.1h-1.1
		L247.6,21.1L247.6,21.1z"/>
	<polygon class="st1" points="251.3,21.1 252.3,21.1 254.5,24 254.5,21.1 255.5,21.1 255.5,25.8 254.6,25.8 252.3,22.8 252.3,25.8 
		251.3,25.8 	"/>
	<polygon class="st1" points="256.5,25 259.1,22 256.6,22 256.6,21.1 260.4,21.1 260.4,21.9 257.9,24.9 260.4,24.9 260.4,25.8 
		256.5,25.8 	"/>
	<path class="st1" d="M264.2,23.9l-0.6-1.5l-0.6,1.5H264.2L264.2,23.9z M263.1,21.1h1l2,4.7H265l-0.4-1.1h-2l-0.4,1.1h-1.1
		L263.1,21.1z"/>
	<path class="st1" d="M266.6,25.1l0.6-0.7c0.4,0.4,0.9,0.6,1.4,0.6c0.4,0,0.7-0.2,0.7-0.4v0c0-0.3-0.2-0.4-1-0.6
		c-0.9-0.2-1.6-0.5-1.6-1.4v0c0-0.8,0.7-1.4,1.6-1.4c0.7,0,1.3,0.2,1.7,0.6l-0.5,0.8c-0.4-0.3-0.8-0.5-1.2-0.5
		c-0.4,0-0.6,0.2-0.6,0.4v0c0,0.3,0.2,0.4,1,0.6c1,0.2,1.5,0.6,1.5,1.4v0c0,0.9-0.7,1.5-1.7,1.5C267.9,25.9,267.2,25.6,266.6,25.1"
		/>
	<rect x="152.8" y="6" class="st1" width="0.4" height="26.8"/>
	<path class="st1" d="M48.9,21.4c0.2,0.3,0.5,0.4,0.8,0.4c0.5,0,0.8-0.5,0.8-0.5l8.4-10.7c0.7-0.7,1.4-0.1,1.4-0.1
		c0.7,0.7,0.2,1.3,0.2,1.3l-1.9,2.4v0c-0.2,0.2-0.3,0.4-0.3,0.6c0,0.2,0.1,0.4,0.2,0.6l0,0l1.9,2.4l5.9-7.5l-2.4-3l-0.4-0.6
		C63.1,6.2,62.3,6,62.3,6h-3.5c-0.9,0-1.5,0.7-1.5,0.7l-9.9,12.8L48.9,21.4L48.9,21.4z"/>
	<path class="st1" d="M48.4,14.9l-2.4-3c-0.5-0.8,0.2-1.3,0.2-1.3c0.9-0.5,1.4,0.3,1.4,0.3l2,2.5l2.3-3l-2.7-3.5
		C48.7,5.9,47.7,6,47.7,6h-3.2c-1,0-1.5,0.6-1.5,0.6l-2.8,3.6l5.9,7.6C46.1,17.8,48.4,14.9,48.4,14.9z"/>
	<path class="st1" d="M57.6,17.5c0,0-0.3-0.4-0.8-0.4c-0.6,0-0.8,0.4-0.8,0.4l-8.5,10.9c-0.7,0.7-1.4,0.1-1.4,0.1
		c-0.7-0.7-0.1-1.3-0.1-1.3l1.9-2.4v0c0.2-0.2,0.3-0.4,0.3-0.6c0-0.2-0.1-0.4-0.2-0.6l0,0L46.1,21l-5.9,7.6l3.3,4.2l5.2,0l10.5-13.4
		L57.6,17.5L57.6,17.5z"/>
	<path class="st1" d="M58,24l2.4,3.1c0.6,0.8-0.1,1.3-0.1,1.3c-0.9,0.6-1.5-0.3-1.5-0.3l-2-2.5l-2.3,3l3.4,4.3l5.2,0l3.3-4.2
		L60.4,21L58,24L58,24z"/>
	<path class="st1" d="M66.3,20.7c-0.7,0-1.3-0.6-1.3-1.3s0.6-1.3,1.3-1.3s1.3,0.6,1.3,1.3S67,20.7,66.3,20.7 M66.3,17.1
		c-1.3,0-2.4,1.1-2.4,2.4c0,1.3,1.1,2.4,2.4,2.4s2.4-1.1,2.4-2.4C68.7,18.1,67.6,17.1,66.3,17.1z"/>
	<path class="st1" d="M53.2,2.4c0.7,0,1.3,0.6,1.3,1.3s-0.6,1.3-1.3,1.3c-0.7,0-1.3-0.6-1.3-1.3S52.5,2.4,53.2,2.4 M53.2,6
		c1.3,0,2.4-1.1,2.4-2.4s-1.1-2.4-2.4-2.4s-2.4,1.1-2.4,2.4S51.9,6,53.2,6z"/>
	<path class="st1" d="M38.9,19.4c0-0.7,0.6-1.3,1.3-1.3c0.7,0,1.3,0.6,1.3,1.3c0,0.7-0.6,1.3-1.3,1.3C39.5,20.7,38.9,20.2,38.9,19.4
		 M42.6,19.4c0-1.3-1.1-2.4-2.4-2.4s-2.4,1.1-2.4,2.4c0,1.3,1.1,2.4,2.4,2.4S42.6,20.8,42.6,19.4z"/>
	<path class="st1" d="M53.2,36.5c-0.7,0-1.3-0.6-1.3-1.3s0.6-1.3,1.3-1.3s1.3,0.6,1.3,1.3S53.9,36.5,53.2,36.5 M53.2,32.9
		c-1.3,0-2.4,1.1-2.4,2.4s1.1,2.4,2.4,2.4s2.4-1.1,2.4-2.4S54.6,32.9,53.2,32.9z"/>
	<path class="st1" d="M76,15.4L76,15.4c0-1.3,1-2.4,2.4-2.4c0.8,0,1.3,0.2,1.8,0.6L79.7,14c-0.4-0.3-0.8-0.5-1.4-0.5
		c-1,0-1.8,0.9-1.8,1.9v0c0,1.1,0.7,2,1.9,2c0.5,0,1-0.2,1.4-0.5v-1.2h-1.4v-0.5h1.9v1.9c-0.4,0.4-1.1,0.7-1.9,0.7
		C76.9,17.9,75.9,16.8,76,15.4"/>
	<path class="st1" d="M86.2,15.4L86.2,15.4c0-1.1-0.8-2-1.9-2c-1.1,0-1.8,0.9-1.8,1.9v0c0,1.1,0.8,1.9,1.9,1.9
		C85.5,17.4,86.2,16.5,86.2,15.4 M82,15.4L82,15.4c0-1.3,1-2.4,2.4-2.4c1.4,0,2.4,1.1,2.4,2.4v0c0,1.3-1,2.4-2.4,2.4
		C82.9,17.8,82,16.7,82,15.4z"/>
	<path class="st1" d="M90.7,15.6h-1.5v1.7h1.6c0.7,0,1.2-0.3,1.2-0.8v0C92,15.9,91.5,15.6,90.7,15.6 M91.7,14.3c0-0.5-0.4-0.8-1-0.8
		h-1.4v1.6h1.4C91.3,15.2,91.7,14.9,91.7,14.3C91.7,14.3,91.7,14.3,91.7,14.3z M88.7,13h2c0.5,0,1,0.2,1.2,0.4
		c0.2,0.2,0.3,0.5,0.3,0.8v0c0,0.6-0.4,0.9-0.7,1.1c0.6,0.2,1,0.5,1,1.1v0c0,0.8-0.7,1.3-1.7,1.3h-2.1L88.7,13L88.7,13z"/>
	<rect x="94.4" y="13" class="st1" width="0.5" height="4.7"/>
	<polygon class="st1" points="97.1,13 100.5,13 100.5,13.5 97.6,13.5 97.6,15.1 100.2,15.1 100.2,15.6 97.6,15.6 97.6,17.3 
		100.5,17.3 100.5,17.8 97.1,17.8 	"/>
	<path class="st1" d="M104.2,15.4c0.7,0,1.2-0.4,1.2-1v0c0-0.6-0.4-0.9-1.2-0.9h-1.5v1.9H104.2L104.2,15.4z M102.3,13h2
		c0.6,0,1,0.2,1.3,0.5c0.2,0.2,0.4,0.6,0.4,0.9v0c0,0.8-0.5,1.2-1.3,1.4l1.4,1.9h-0.7l-1.4-1.8h-1.3v1.8h-0.5L102.3,13L102.3,13z"/>
	<polygon class="st1" points="107.9,13 108.4,13 111.4,16.8 111.4,13 111.9,13 111.9,17.8 111.5,17.8 108.4,13.9 108.4,17.8 
		107.9,17.8 	"/>
	<path class="st1" d="M118,15.4L118,15.4c0-1.1-0.8-2-1.9-2c-1.1,0-1.8,0.9-1.8,1.9v0c0,1.1,0.8,1.9,1.9,1.9
		C117.3,17.4,118.1,16.5,118,15.4 M113.8,15.4L113.8,15.4c0-1.3,1-2.4,2.4-2.4s2.4,1.1,2.4,2.4v0c0,1.3-1,2.4-2.4,2.4
		C114.8,17.8,113.8,16.7,113.8,15.4z"/>
	<path class="st1" d="M123.5,13.5v3.7h1.1c1.2,0,1.9-0.8,1.9-1.8v0c0-1-0.8-1.9-1.9-1.9H123.5z M123,13h1.6c1.5,0,2.5,1,2.5,2.3v0
		c0,1.3-1,2.4-2.5,2.4H123C123,17.8,123,13,123,13z"/>
	<polygon class="st1" points="128.8,13 132.2,13 132.2,13.5 129.3,13.5 129.3,15.1 131.9,15.1 131.9,15.6 129.3,15.6 129.3,17.3 
		132.2,17.3 132.2,17.8 128.8,17.8 	"/>
	<polygon class="st1" points="136.4,13 137,13 137,17.3 139.6,17.3 139.6,17.8 136.4,17.8 	"/>
	<path class="st1" d="M144.2,16l-1.1-2.4L142,16H144.2z M142.9,13h0.5l2.1,4.7h-0.6l-0.6-1.2h-2.6l-0.6,1.2h-0.5L142.9,13L142.9,13z
		"/>
	<path class="st1" d="M75.9,23.5L75.9,23.5c0-1.4,1-2.4,2.5-2.4c0.9,0,1.4,0.3,1.9,0.7l-0.7,0.8c-0.4-0.3-0.7-0.5-1.2-0.5
		c-0.8,0-1.4,0.7-1.4,1.5v0c0,0.8,0.6,1.5,1.4,1.5c0.5,0,0.9-0.2,1.2-0.6l0.7,0.7c-0.5,0.5-1,0.8-1.9,0.8
		C76.9,25.9,75.9,24.8,75.9,23.5"/>
	<rect x="81.1" y="21.1" class="st1" width="1" height="4.7"/>
	<path class="st1" d="M83.3,23.8v-2.7h1v2.7c0,0.8,0.4,1.2,1,1.2c0.6,0,1-0.4,1-1.1v-2.7h1v2.7c0,1.4-0.8,2.1-2.1,2.1
		S83.3,25.2,83.3,23.8"/>
	<path class="st1" d="M90.4,24.9c0.8,0,1.4-0.6,1.4-1.4v0c0-0.8-0.6-1.4-1.4-1.4h-0.8v2.8H90.4z M88.6,21.1h1.8c1.5,0,2.5,1,2.5,2.3
		v0c0,1.3-1,2.4-2.5,2.4h-1.8V21.1z"/>
	<path class="st1" d="M96.3,23.9l-0.6-1.5L95,23.9C95,23.9,96.3,23.9,96.3,23.9z M95.2,21.1h1l2,4.7h-1.1l-0.4-1.1h-2l-0.4,1.1h-1.1
		L95.2,21.1L95.2,21.1z"/>
	<path class="st1" d="M100.8,24.9c0.8,0,1.4-0.6,1.4-1.4v0c0-0.8-0.6-1.4-1.4-1.4H100v2.8H100.8z M98.9,21.1h1.8
		c1.5,0,2.5,1,2.5,2.3v0c0,1.3-1,2.4-2.5,2.4h-1.8V21.1z"/>
	<path class="st1" d="M108.1,24.9c0.8,0,1.4-0.6,1.4-1.4v0c0-0.8-0.6-1.4-1.4-1.4h-0.8v2.8H108.1z M106.3,21.1h1.8
		c1.5,0,2.5,1,2.5,2.3v0c0,1.3-1,2.4-2.5,2.4h-1.8V21.1z"/>
	<polygon class="st1" points="111.6,21.1 115.1,21.1 115.1,22 112.6,22 112.6,23 114.8,23 114.8,23.9 112.6,23.9 112.6,24.9 
		115.2,24.9 115.2,25.8 111.6,25.8 	"/>
	<polygon class="st1" points="118.2,21.1 119.3,21.1 120.5,23.1 121.8,21.1 122.9,21.1 122.9,25.8 121.9,25.8 121.9,22.8 
		120.5,24.8 120.5,24.8 119.2,22.8 119.2,25.8 118.2,25.8 	"/>
	<path class="st1" d="M126.1,19.6l0.9,0.4l-0.9,0.8h-0.8C125.3,20.8,126.1,19.6,126.1,19.6z M124.1,21.1h3.5V22h-2.5v1h2.2v0.9h-2.2
		v1h2.6v0.9h-3.6V21.1z"/>
	<polygon class="st1" points="130,23.4 128.4,21.1 129.7,21.1 130.6,22.6 131.6,21.1 132.8,21.1 131.2,23.4 132.9,25.8 131.7,25.8 
		130.6,24.2 129.5,25.8 128.4,25.8 	"/>
	<rect x="133.7" y="21.1" class="st1" width="1" height="4.7"/>
	<path class="st1" d="M135.7,23.5L135.7,23.5c0-1.4,1-2.4,2.5-2.4c0.9,0,1.4,0.3,1.9,0.7l-0.7,0.8c-0.4-0.3-0.7-0.5-1.2-0.5
		c-0.8,0-1.4,0.7-1.4,1.5v0c0,0.8,0.6,1.5,1.4,1.5c0.5,0,0.9-0.2,1.2-0.6l0.7,0.7c-0.5,0.5-1,0.8-1.9,0.8
		C136.8,25.9,135.7,24.8,135.7,23.5"/>
	<path class="st1" d="M144.5,23.5L144.5,23.5c0-0.8-0.6-1.5-1.4-1.5s-1.4,0.7-1.4,1.5v0c0,0.8,0.6,1.5,1.4,1.5
		S144.5,24.3,144.5,23.5 M140.5,23.5L140.5,23.5c0-1.4,1.1-2.4,2.5-2.4c1.5,0,2.5,1.1,2.5,2.4v0c0,1.3-1.1,2.4-2.5,2.4
		C141.6,25.9,140.5,24.8,140.5,23.5L140.5,23.5z"/>
	<path id="Tianguis" class="st2" d="M315.2,13.1h-2v5.1h-1.4v-5.1h-2v-1.4h5.5L315.2,13.1L315.2,13.1z M317.7,12.7h-1.4v-1.2h1.4
		V12.7z M317.7,18.2h-1.4v-5.1h1.4C317.7,13.1,317.7,18.2,317.7,18.2z M323.4,18.2h-1.4v-0.6c-0.2,0.2-0.4,0.4-0.6,0.5
		c-0.2,0.1-0.5,0.2-0.9,0.2c-0.2,0-0.5,0-0.7-0.1c-0.2-0.1-0.4-0.2-0.6-0.3c-0.2-0.1-0.3-0.3-0.4-0.5c-0.1-0.2-0.1-0.4-0.1-0.7v0.1
		c0-0.3,0-0.5,0.1-0.7c0.1-0.2,0.2-0.4,0.4-0.5c0.2-0.1,0.4-0.2,0.6-0.3c0.2-0.1,0.5-0.1,0.8-0.1c0.3,0,0.5,0,0.7,0.1
		c0.2,0,0.4,0.1,0.6,0.1v-0.2c0-0.3-0.1-0.5-0.3-0.7c-0.2-0.2-0.5-0.2-0.8-0.2c-0.3,0-0.5,0-0.8,0.1c-0.2,0-0.5,0.1-0.7,0.2
		l-0.4-1.1c0.3-0.1,0.6-0.2,0.9-0.3c0.3-0.1,0.7-0.1,1.1-0.1c0.8,0,1.4,0.2,1.8,0.6c0.4,0.4,0.6,0.9,0.6,1.6L323.4,18.2L323.4,18.2z
		 M321.9,16.6v-0.2c-0.1-0.1-0.3-0.1-0.4-0.1s-0.3,0-0.5,0c-0.3,0-0.5,0.1-0.7,0.2c-0.2,0.1-0.3,0.3-0.3,0.5v0
		c0,0.2,0.1,0.3,0.2,0.4c0.1,0.1,0.3,0.2,0.5,0.2c0.3,0,0.6-0.1,0.8-0.2C321.8,17,321.9,16.8,321.9,16.6L321.9,16.6z M329.3,18.2
		h-1.4v-2.9c0-0.3-0.1-0.6-0.2-0.8c-0.2-0.2-0.4-0.3-0.7-0.3c-0.3,0-0.5,0.1-0.7,0.3c-0.2,0.2-0.2,0.4-0.2,0.8v2.9h-1.4v-5.1h1.4
		v0.7c0.1-0.1,0.2-0.2,0.3-0.3c0.1-0.1,0.2-0.2,0.3-0.3s0.3-0.1,0.4-0.2c0.1,0,0.3-0.1,0.5-0.1c0.6,0,1,0.2,1.3,0.5
		c0.3,0.3,0.5,0.8,0.5,1.4L329.3,18.2L329.3,18.2z M335.6,17.1c0,0.5-0.1,0.9-0.2,1.2c-0.1,0.3-0.3,0.6-0.5,0.8
		c-0.2,0.2-0.5,0.4-0.9,0.5c-0.4,0.1-0.8,0.2-1.2,0.2c-0.4,0-0.8,0-1.2-0.1c-0.4-0.1-0.7-0.2-1.1-0.4l0.5-1.1
		c0.3,0.1,0.5,0.3,0.8,0.3c0.3,0.1,0.6,0.1,0.9,0.1c0.5,0,0.9-0.1,1.1-0.4c0.2-0.2,0.4-0.6,0.4-1v-0.2c-0.2,0.3-0.4,0.5-0.7,0.6
		c-0.2,0.1-0.6,0.2-1,0.2c-0.3,0-0.6-0.1-0.8-0.2s-0.5-0.3-0.7-0.5c-0.2-0.2-0.4-0.4-0.5-0.7s-0.2-0.6-0.2-1v-0.1
		c0-0.4,0.1-0.7,0.2-1c0.1-0.3,0.3-0.5,0.5-0.7c0.2-0.2,0.4-0.4,0.7-0.5c0.3-0.1,0.6-0.2,0.8-0.2c0.4,0,0.7,0.1,1,0.2
		c0.2,0.1,0.5,0.3,0.7,0.5v-0.7h1.4L335.6,17.1L335.6,17.1z M334.2,15.5L334.2,15.5c0-0.2,0-0.3-0.1-0.5c-0.1-0.1-0.1-0.3-0.3-0.4
		c-0.1-0.1-0.2-0.2-0.4-0.2c-0.1-0.1-0.3-0.1-0.5-0.1c-0.2,0-0.3,0-0.5,0.1c-0.1,0.1-0.3,0.1-0.4,0.2c-0.1,0.1-0.2,0.2-0.3,0.4
		c-0.1,0.1-0.1,0.3-0.1,0.5v0c0,0.4,0.1,0.6,0.4,0.8c0.2,0.2,0.5,0.3,0.9,0.3c0.2,0,0.3,0,0.5-0.1c0.1-0.1,0.3-0.1,0.4-0.2
		c0.1-0.1,0.2-0.2,0.3-0.4C334.2,15.9,334.2,15.7,334.2,15.5L334.2,15.5z M341.7,18.2h-1.4v-0.7c-0.1,0.1-0.2,0.2-0.3,0.3
		c-0.1,0.1-0.2,0.2-0.3,0.3s-0.3,0.1-0.4,0.2c-0.1,0-0.3,0.1-0.5,0.1c-0.6,0-1-0.2-1.3-0.5c-0.3-0.3-0.5-0.8-0.5-1.4v-3.3h1.4V16
		c0,0.3,0.1,0.6,0.2,0.8c0.2,0.2,0.4,0.3,0.7,0.3c0.3,0,0.5-0.1,0.7-0.3c0.2-0.2,0.2-0.4,0.2-0.8v-2.9h1.4L341.7,18.2L341.7,18.2z
		 M344.4,12.7H343v-1.2h1.4V12.7z M344.4,18.2H343v-5.1h1.4C344.4,13.1,344.4,18.2,344.4,18.2z M349.5,16.8c0,0.3,0,0.5-0.1,0.7
		c-0.1,0.2-0.2,0.4-0.4,0.5c-0.2,0.1-0.4,0.2-0.6,0.3c-0.2,0.1-0.5,0.1-0.7,0.1c-0.3,0-0.7-0.1-1-0.2c-0.4-0.1-0.7-0.3-1-0.6
		l0.6-0.9c0.3,0.2,0.5,0.3,0.8,0.4c0.3,0.1,0.5,0.1,0.7,0.1c0.2,0,0.3,0,0.4-0.1c0.1-0.1,0.1-0.1,0.1-0.3v0c0-0.1,0-0.1-0.1-0.2
		c-0.1-0.1-0.1-0.1-0.2-0.1c-0.1,0-0.2-0.1-0.4-0.1c-0.1,0-0.3-0.1-0.4-0.1c-0.2-0.1-0.4-0.1-0.6-0.2c-0.2-0.1-0.4-0.2-0.5-0.3
		c-0.2-0.1-0.3-0.3-0.4-0.4c-0.1-0.2-0.1-0.4-0.1-0.6v0c0-0.2,0-0.5,0.1-0.6c0.1-0.2,0.2-0.4,0.4-0.5c0.2-0.1,0.3-0.2,0.6-0.3
		c0.2-0.1,0.4-0.1,0.7-0.1c0.3,0,0.6,0,0.9,0.1c0.3,0.1,0.6,0.2,0.9,0.4l-0.5,0.9c-0.2-0.1-0.5-0.2-0.7-0.3s-0.4-0.1-0.6-0.1
		c-0.2,0-0.3,0-0.4,0.1c-0.1,0.1-0.1,0.1-0.1,0.2v0c0,0.1,0,0.1,0.1,0.2c0.1,0.1,0.1,0.1,0.2,0.2c0.1,0,0.2,0.1,0.3,0.1
		s0.3,0.1,0.4,0.1c0.2,0.1,0.4,0.1,0.6,0.2c0.2,0.1,0.4,0.2,0.5,0.3c0.1,0.1,0.3,0.3,0.4,0.4C349.5,16.3,349.5,16.5,349.5,16.8
		L349.5,16.8L349.5,16.8z"/>
	<path id="Digital" class="st2" d="M316.2,24.5c0,0.5-0.1,0.9-0.3,1.3c-0.2,0.4-0.4,0.8-0.7,1.1s-0.7,0.5-1.1,0.7s-0.9,0.3-1.4,0.3
		h-2.6v-6.7h2.6c0.5,0,1,0.1,1.4,0.3c0.4,0.2,0.8,0.4,1.1,0.7c0.3,0.3,0.6,0.7,0.7,1.1C316.1,23.5,316.2,24,316.2,24.5L316.2,24.5
		L316.2,24.5z M314.8,24.4L314.8,24.4c0-0.3,0-0.6-0.1-0.8c-0.1-0.2-0.2-0.5-0.4-0.6c-0.2-0.2-0.4-0.3-0.6-0.4
		c-0.2-0.1-0.5-0.1-0.8-0.1h-1.1v4.1h1.1c0.3,0,0.6,0,0.8-0.1c0.2-0.1,0.4-0.2,0.6-0.4c0.2-0.2,0.3-0.4,0.4-0.6
		C314.7,25,314.8,24.7,314.8,24.4L314.8,24.4z M319.1,22.1h-1.4v-1.2h1.4V22.1z M319.1,27.8h-1.4v-5.1h1.4V27.8z M325.4,26.7
		c0,0.5-0.1,0.9-0.2,1.2c-0.1,0.3-0.3,0.6-0.5,0.8c-0.2,0.2-0.5,0.4-0.9,0.5c-0.4,0.1-0.8,0.2-1.2,0.2c-0.4,0-0.8,0-1.2-0.1
		c-0.4-0.1-0.7-0.2-1.1-0.4l0.5-1.1c0.3,0.1,0.5,0.3,0.8,0.3c0.3,0.1,0.6,0.1,0.9,0.1c0.5,0,0.9-0.1,1.1-0.4s0.4-0.6,0.4-1v-0.3
		c-0.2,0.3-0.4,0.5-0.7,0.6c-0.2,0.1-0.6,0.2-1,0.2c-0.3,0-0.6-0.1-0.8-0.2c-0.3-0.1-0.5-0.3-0.7-0.5c-0.2-0.2-0.4-0.4-0.5-0.7
		c-0.1-0.3-0.2-0.6-0.2-1V25c0-0.4,0.1-0.7,0.2-1c0.1-0.3,0.3-0.5,0.5-0.7s0.4-0.4,0.7-0.5c0.3-0.1,0.6-0.2,0.8-0.2
		c0.4,0,0.7,0.1,1,0.2c0.2,0.1,0.5,0.3,0.7,0.5v-0.7h1.4L325.4,26.7L325.4,26.7z M324,25L324,25c0-0.2,0-0.3-0.1-0.5
		c-0.1-0.1-0.1-0.3-0.3-0.4c-0.1-0.1-0.2-0.2-0.4-0.2c-0.1-0.1-0.3-0.1-0.5-0.1s-0.3,0-0.5,0.1c-0.1,0.1-0.3,0.1-0.4,0.2
		c-0.1,0.1-0.2,0.2-0.3,0.4c-0.1,0.1-0.1,0.3-0.1,0.5v0c0,0.4,0.1,0.6,0.4,0.8c0.2,0.2,0.5,0.3,0.9,0.3c0.2,0,0.3,0,0.5-0.1
		c0.1-0.1,0.3-0.1,0.4-0.2c0.1-0.1,0.2-0.2,0.3-0.4C324,25.3,324,25.1,324,25L324,25z M328.3,22.1h-1.4v-1.2h1.4V22.1z M328.3,27.8
		h-1.4v-5.1h1.4V27.8z M332.6,27.5c-0.2,0.1-0.3,0.2-0.5,0.2c-0.2,0.1-0.4,0.1-0.6,0.1c-0.2,0-0.4,0-0.6-0.1c-0.2,0-0.3-0.1-0.5-0.3
		c-0.1-0.1-0.2-0.3-0.3-0.5c-0.1-0.2-0.1-0.4-0.1-0.7V24h-0.6v-1.4h0.6v-1.2h1.4v1.4h1.2V24h-1.2v2.2c0,0.3,0.2,0.5,0.5,0.5
		c0.3,0,0.5-0.1,0.7-0.2L332.6,27.5L332.6,27.5z M338.1,27.8h-1.4v-0.6c-0.2,0.2-0.4,0.4-0.6,0.5c-0.2,0.1-0.5,0.2-0.9,0.2
		c-0.2,0-0.5,0-0.7-0.1c-0.2-0.1-0.4-0.2-0.6-0.3c-0.2-0.1-0.3-0.3-0.4-0.5c-0.1-0.2-0.1-0.4-0.1-0.7v-0.1c0-0.3,0-0.5,0.1-0.7
		c0.1-0.2,0.2-0.4,0.4-0.5c0.2-0.1,0.4-0.2,0.6-0.3c0.2-0.1,0.5-0.1,0.8-0.1c0.3,0,0.5,0,0.7,0.1c0.2,0,0.4,0.1,0.6,0.1v0
		c0-0.3-0.1-0.5-0.3-0.7s-0.5-0.2-0.8-0.2c-0.3,0-0.5,0-0.8,0.1s-0.5,0.1-0.7,0.2l-0.4-1.1c0.3-0.1,0.6-0.2,0.9-0.3
		c0.3-0.1,0.7-0.1,1.1-0.1c0.8,0,1.4,0.2,1.8,0.6c0.4,0.4,0.6,0.9,0.6,1.6L338.1,27.8L338.1,27.8z M336.6,26v-0.2
		c-0.1-0.1-0.3-0.1-0.4-0.1c-0.1,0-0.3,0-0.5,0c-0.3,0-0.5,0.1-0.7,0.2c-0.2,0.1-0.3,0.3-0.3,0.5v0c0,0.2,0.1,0.3,0.2,0.4
		c0.1,0.1,0.3,0.2,0.5,0.2c0.3,0,0.6-0.1,0.8-0.2C336.5,26.4,336.6,26.2,336.6,26L336.6,26z M340.7,27.8h-1.4v-6.9h1.4V27.8z"/>
	<g>
		<defs>
			<circle id="SVGID_1_" cx="292.3" cy="19.8" r="14"/>
		</defs>
		<clipPath id="SVGID_00000042013593449514096760000012748269628090800786_">
			<use xlink:href="#SVGID_1_"  style="overflow:visible;"/>
		</clipPath>
		<g id="Group-27" style="clip-path:url(#SVGID_00000042013593449514096760000012748269628090800786_);">
			<g>
				<path id="Fill-1" class="st4" d="M287.4,33.1h7.5c7.7,0,13.9-6.2,13.9-13.9v0c0-7.7-6.2-13.9-13.9-13.9h-7.5
					c-7.7,0-13.9,6.2-13.9,13.9v0C273.6,26.9,279.8,33.1,287.4,33.1z"/>
			</g>
			<g>
				<path id="Fill-3" class="st5" d="M290.7,12.5h2.4c0,0.2,0,0.4,0,0.6h-2.5C290.6,12.9,290.6,12.7,290.7,12.5L290.7,12.5
					L290.7,12.5z M297.5,23.8c0-0.2-0.1-0.4-0.1-0.6h2c0.1,0.2,0.1,0.4,0.2,0.6H297.5z M292,6.6h0.7c0,0.2,0,0.4,0,0.6H292
					C292,7,292,6.8,292,6.6L292,6.6L292,6.6z M296.5,33.3h12.4c-0.8-0.8-1.2-1.9-1.7-2.9c-0.7-1.3-1.4-2.7-2.1-4.1h1.1
					c-0.9-1.7-1.9-3.4-2.8-5.1H302c-0.1-0.3-0.2-0.5-0.4-0.8h1.4c-1.3-2.3-2.5-4.6-3.8-6.9h0c0,0-0.2-0.3-0.3-0.5
					c-0.1-0.1-0.2-0.3-0.2-0.3h0c-0.8-1.5-1.6-3-2.5-4.5h-0.7c0.5,1.2,1,2.4,1.5,3.7H297c-0.6-1.5-1.2-3-1.8-4.5h0.5
					c-0.6-1.2-0.9-1.6-1-1.6h-3.5c0,0-0.1,0.1-0.1,0.2h-0.2c0-0.1,0.2-0.2,0.2-0.2h-1.2c-0.6,1-1.2,2-1.7,3.1h0.1
					c-0.7,1.2-1.4,2.4-2,3.7h1c-0.3,0.8-0.7,1.6-1,2.4h-1.4c-1.1,2-2.1,3.9-3.2,5.9h2.3c-0.1,0.2-0.2,0.4-0.2,0.6h-2.2
					c-0.9,1.6-1.8,3.3-2.7,4.9h-0.1c-1.1,2-2.2,4-3.3,5.9h2.9c0.9-1.7,1.6-3.4,2.4-5.1h1.1c0.2-0.5,0.4-1.1,0.6-1.6h0.2
					c-0.3,0.8-0.6,1.6-1,2.4h-0.4c-0.5,1.2-1,2.3-1.5,3.5h8.7c0.2-1.2,0.3-2.3,0.5-3.5h-1.5c0.2-0.9,0.3-1.8,0.5-2.7h1.4
					c0.4-3.1,0.7-6.1,1.1-9.2h1.1c-0.1,1.6-0.2,3.3-0.3,4.9h-0.8c-0.3,2.9-0.5,5.7-0.8,8.6h2.3c0,0.6,0,1.2,0,1.8h4.5
					c0.1,0.3,0.1,0.5,0.2,0.8h-8.1l0.1-0.4h-6.6c-0.6,1.1-0.8,1.4-1.1,1.4h6.9l0.1,0.2h9L296.5,33.3L296.5,33.3L296.5,33.3z"/>
			</g>
			<g>
				<path id="Fill-4" class="st6" d="M286.6,27.8h-5.5c0.5-1.2,0.9-2.3,1.4-3.5h4.8C287.1,25.5,286.9,26.7,286.6,27.8"/>
			</g>
			<g>
				<path id="Fill-5" class="st7" d="M290.9,5h-1.1c-0.6,1-1.2,2-1.7,3.1h1.8C290.1,7.1,290.4,5.9,290.9,5"/>
			</g>
			<g>
				<path id="Fill-6" class="st8" d="M290.7,30.7h7.6c-0.2-1-0.4-2-0.6-3.1h-6.8C290.9,28.7,290.8,29.7,290.7,30.7"/>
			</g>
			<g>
				<path id="Fill-7" class="st9" d="M306,25.6h-6.4c-0.5-1.7-0.9-3.4-1.4-5.1h5C304.2,22.2,305.2,23.9,306,25.6"/>
			</g>
			<g>
				<path id="Fill-8" class="st10" d="M287.6,30.7h-8.1c0.5-1.1,1-2.3,1.5-3.5h7.2C288.1,28.4,287.9,29.5,287.6,30.7"/>
			</g>
			<g>
				<path id="Fill-9" class="st11" d="M294.6,5.2h-1.2c0.1,0,0.2,0.4,0.5,1.6h1.7C294.9,5.6,294.7,5.2,294.6,5.2"/>
			</g>
			<g>
				<path id="Fill-10" class="st12" d="M297.6,28.9h-8.8c0.4-2.8,0.7-5.6,1-8.4h6.4C296.7,23.3,297.2,26.1,297.6,28.9"/>
			</g>
			<g>
				<path id="Fill-11" class="st13" d="M294.6,5.6h-2.1c0.1,2.6,0.2,5.2,0.2,7.8h4.7C296.5,10.8,295.7,8.1,294.6,5.6"/>
			</g>
			<g>
				<path id="Fill-12" class="st14" d="M297.4,19.7h-6.5c0.2-2,0.3-4.1,0.5-6.1h4.8C296.6,15.6,297,17.6,297.4,19.7"/>
			</g>
			<g>
				<path id="Fill-13" class="st15" d="M290.1,12.5h4.7c0.2,1,0.4,2,0.5,3.1h-5.8C289.7,14.6,289.9,13.6,290.1,12.5"/>
			</g>
			<g>
				<path id="Fill-14" class="st16" d="M297.4,11.1h-3.9c0.4,3.7,0.7,7.5,1.1,11.2h7.6C300.6,18.6,299.1,14.8,297.4,11.1"/>
			</g>
			<g>
				<path id="Fill-15" class="st17" d="M299.7,18.7h3.4c-1.5-2.5-3-5-4.6-7.6h-1.8C297.8,13.6,298.7,16.1,299.7,18.7"/>
			</g>
			<g>
				<path id="Fill-16" class="st18" d="M296.2,7.4h-2.1c0.5,1.8,1,3.5,1.4,5.3h3.6C298.2,11,297.2,9.2,296.2,7.4"/>
			</g>
			<g>
				<path id="Fill-17" class="st19" d="M293.4,11.7h-3.2c0.3-1.7,0.6-3.4,0.9-5.1h1.8C293,8.3,293.2,10,293.4,11.7"/>
			</g>
			<g>
				<path id="Fill-18" class="st20" d="M291.5,11.1h-3.9c0.8-1.9,1.5-3.9,2.5-5.7h1.8C291.7,7.3,291.6,9.2,291.5,11.1"/>
			</g>
			<g>
				<path id="Fill-19" class="st21" d="M278.5,25.4h2.4c-0.9,2.1-1.8,4.1-2.9,6.1h-2.8C276.3,29.5,277.4,27.4,278.5,25.4"/>
			</g>
			<g>
				<path id="Fill-20" class="st22" d="M281.5,26.4h-3.4c1-1.9,2.1-3.8,3.1-5.7h2.5C283,22.6,282.2,24.5,281.5,26.4"/>
			</g>
			<g>
				<path id="Fill-21" class="st23" d="M284.6,20.1h-3.1c1-1.9,2.1-3.8,3.1-5.7h2.1C286,16.3,285.3,18.2,284.6,20.1"/>
			</g>
			<g>
				<path id="Fill-22" class="st24" d="M297.4,32.7h-15.3c0.1-0.1,0.2-0.4,0.5-1.2h14.4C297.2,32.3,297.3,32.6,297.4,32.7"/>
			</g>
			<g>
				<path id="Fill-23" class="st25" d="M308.3,32.7h-12.7c-0.7-3.1-0.7-6.5-1-9.6h8.8c1,2.2,2.1,4.4,3.1,6.6
					C307,30.8,307.4,31.9,308.3,32.7"/>
			</g>
			<g>
				<path id="Fill-24" class="st26" d="M287.2,32.7h-6.6c0.2,0,0.4-0.4,0.8-1.6h6.1C287.4,32.3,287.3,32.7,287.2,32.7"/>
			</g>
			<g>
				<path id="Fill-25" class="st27" d="M288.7,24.8h-7c2-4.8,3.9-9.5,5.9-14.3h3.1C290,15.2,289.3,20,288.7,24.8"/>
			</g>
			<g>
				<path id="Fill-26" class="st28" d="M290.1,6.4H289c-1,1.8-2,3.5-2.9,5.3h2.2C288.8,9.9,289.4,8.2,290.1,6.4"/>
			</g>
		</g>
	</g>
</g>
</svg>
