<?xml version="1.0" encoding="UTF-8"?><svg id="Capa_1" xmlns="http://www.w3.org/2000/svg" xmlns:xlink="http://www.w3.org/1999/xlink" viewBox="0 0 97 99"><defs><style>.cls-1{fill:none;}.cls-2{clip-path:url(#clippath);}.cls-3{fill:#f58b6e;}.cls-4{fill:#691c20;}.cls-5{fill:#f6957c;}.cls-6{fill:#f6b78b;}.cls-7{fill:#f48264;}.cls-8{fill:#e9825d;}.cls-9{fill:#fff;}.cls-10{fill:#ee9068;}.cls-11{fill:#fefefe;}.cls-12{fill:#fbb249;}.cls-13{fill:#fae081;}.cls-14{fill:#f16a6a;}.cls-15{fill:#9f2241;}.cls-16{fill:#303451;}.cls-17{fill:#ce7a63;}.cls-18{fill:#c2614e;}.cls-19{fill:#dc4f50;}.cls-20{fill:#ccc;}.cls-21{fill:#ddc9a3;}.cls-22{fill:#c87658;}.cls-23{fill:#4a2835;}</style><clipPath id="clippath"><rect class="cls-1" width="97" height="99"/></clipPath></defs><g class="cls-2"><rect class="cls-15" x="-.5" width="99" height="99"/><g><path class="cls-21" d="M43.52,48.94c.37-9.2,6.11-18.53,14.96-21.08,7.7-2.22,15.83,.85,23.17,4.05,7.34,3.2,15.17,6.68,23.06,5.28,7.12-1.26,12.89-6.26,18.85-10.35,5.97-4.09,13.43-7.5,20.25-5.09,3.86,1.36,6.92,4.45,9.02,7.95,5.04,8.4,4.87,19.65-.43,27.89-5.3,8.24-15.47,13.06-25.2,11.95-3.87-.44-7.74-1.74-11.57-1.06-5.44,.97-9.34,5.58-13.68,9.01-7.24,5.74-16.74,8.54-25.94,7.64-13.82-1.35-25.3-10.36-30.2-23.17-1.58-4.14-2.48-8.57-2.3-13.02"/><path class="cls-21" d="M94.59,98.41c-3.45-1.32-6.53-3.62-8.77-6.56-1.16-1.53-2.48-3.43-4.4-3.34-2.24,.11-3.4,2.88-5.5,3.68-3.18,1.21-6.46-2.57-9.8-1.92-3.56,.7-4.83,5.88-8.4,6.53-1.33,.24-2.69-.23-4.04-.13-1.05,.08-2.18,.81-2.43,1.73h43.32Z"/><path class="cls-11" d="M83.11,44s1.39-.21,3.53,1.07,7.55,6.26,7.44,8.14c-.11,1.87-7.12,7.98-7.12,7.98l-1.55-1.93,3.8-5.62-5.23-4.88-.87-4.75Z"/><path class="cls-22" d="M69.8,79.87c-.58,8.65-.94,17.81-.94,17.81l1.8,1.09,1.54-1.34,4.23-17.56h-6.63Z"/><path class="cls-20" d="M72.28,97.23s.11-.02,.12,.04c.06,.25,.19,.81,.34,1.35,.16,.57-.28,1.01-.47,1.17-.05,.04-.12,.07-.19,.07h-8.07s-.36-.56,2.24-1.19c2.6-.63,1.62-1.38,2.42-1.28,.81,.11,1.82,1.21,2.6,.65,.54-.39,.85-.67,.99-.81"/><path class="cls-16" d="M69.66,82.04s2.75,1.21,5.87,1.53c0,0-2.21,.84-5.96-.43l.09-1.11Z"/><path class="cls-22" d="M78.91,79.87l.57,17.56,1.4,1.34,1.9-1.09s1.24-9.16,2.18-17.81h-6.05Z"/><path class="cls-20" d="M79.51,97.23s-.11-.02-.12,.04c-.06,.25-.19,.81-.34,1.35-.16,.57,.28,1.01,.47,1.17,.05,.04,.12,.07,.19,.07h8.07s.36-.56-2.24-1.19c-2.6-.63-1.61-1.38-2.42-1.28-.81,.11-1.82,1.21-2.6,.65-.54-.39-.85-.67-.99-.81"/><path class="cls-16" d="M79.02,83.74s3.18-.14,5.67-1.59l-.18,1.59s-3.21,.64-5.5,0"/><path class="cls-12" d="M73.96,57.7s-2.68,5.35-3.32,10.17c-.64,4.82-1.02,14.13-1.02,14.13,0,0,8.73,3.91,15.36,0,0,0,2.89-18.95-.32-24.25l-10.71-.05Z"/><path class="cls-16" d="M76.92,74.11c.44-.32,.86-.64,1.25-1,.39-.36,.74-.75,1.09-1.17-.21,.51-.55,.95-.95,1.33-.4,.37-.87,.67-1.39,.84"/><path class="cls-16" d="M77.94,74.65c.37-.33,.73-.66,1.06-1.01,.34-.35,.64-.72,.96-1.11-.17,.47-.46,.89-.8,1.26-.35,.36-.75,.67-1.21,.86"/><path class="cls-16" d="M74.55,58.88c-.36,.91-.7,1.82-1.03,2.75-.33,.92-.64,1.85-.93,2.78-.57,1.87-1.07,3.76-1.18,5.71l-.55,5.84-.29,2.92-.31,2.92,.21-2.93,.23-2.92,.5-5.85c.04-.49,.09-.97,.16-1.46,.07-.49,.17-.97,.28-1.45,.22-.96,.48-1.9,.79-2.83,.61-1.86,1.32-3.69,2.11-5.48"/><path class="cls-22" d="M85.99,58.87c-.47,.68-.77,1.11-.81,1.17,0,0,0,0,0,0-.94,.17-1.62,.58-1.95,.79-.26,.16-.25,.36-.2,.47,.02,.06,.08,.08,.14,.05,.26-.14,.79-.32,.95-.18,.18,.16-1.54,1.68-1.37,1.96,.07,.11,1.32-.93,1.32-.93,0,0-1.13,1.38-.91,1.45,.22,.07,1.37-1.01,1.37-1.01,0,0-.97,1.51-.72,1.49,.25-.02,1.16-1.08,1.16-1.08-.29,.59-.33,.87-.32,1,0,.06,.07,.09,.12,.04,.55-.53,1.2-2.16,1.47-2.85h0s0,0,0,0c.56-.33,1.1-.68,1.62-1.05-.62-.45-1.26-.89-1.87-1.36"/><path class="cls-22" d="M81.34,43.07c-.08-.46-.14-.97-.1-1.36h0c.02-.2,.06-.37,.13-.49l-1.95-.99-2.05,.66c.07,.12,.16,.63,.18,.83l-.04-.34c.04,.4,.02,1.24-.06,1.7-.12,.67-.29,1.25-.29,1.25h4.45s-.17-.58-.29-1.25"/><path class="cls-18" d="M77.52,41.36s1.32,.93,3.77,.07c0,0-1.91,2.78-3.77-.07"/><path class="cls-11" d="M73.99,56.85c-.13,.47-.21,1.21-.21,1.21,6.55,1.41,11.01,0,11.01,0,0,0,.14-.13,0-.91-.14-.79,.89-4.98,1.16-6.08,.27-1.11,.3-4.25,.11-5.35-.2-1.11-2.03-1.77-2.68-1.7-.64,.07-1.84-.5-1.84-.5-2,1.77-4.23,0-4.23,0,0,0-.87,.52-2.44,.59,0,0-2.52,1.53-2.69,3.25-.18,1.71,2.3,7.73,1.82,9.49"/><path class="cls-16" d="M76.4,53.09c.23,.11,.47,.16,.72,.17,.25,.01,.49-.01,.74-.05,.49-.07,1-.15,1.52-.1,.51,.05,1,.19,1.48,.26,.24,.04,.49,.06,.74,.04,.25,0,.49-.06,.72-.15-.21,.14-.46,.21-.71,.26-.25,.04-.51,.04-.77,.02-.51-.04-1-.17-1.49-.21-.49-.06-.98,.01-1.48,.05-.25,.02-.51,.02-.76-.01-.25-.04-.51-.12-.71-.27"/><path class="cls-16" d="M77.2,43.62c-.24,.42-.47,.86-.59,1.32-.06,.23-.1,.47-.05,.69,.04,.22,.21,.39,.43,.43,.21,.04,.45-.02,.67-.1,.22-.08,.43-.2,.64-.32,.2-.12,.4-.26,.6-.41l.29-.22,.14-.12,.02-.02h.02s0-.01,0-.01c0,0,.03-.01,.04-.01-.02-.1,.19,.19,.12,.14h0s0-.03,0-.04c0,0,0,0,0,.01,.01,.02,.03,.05,.04,.07,.25,.4,.57,.77,.94,1.06,.19,.14,.39,.27,.61,.33,.11,.03,.22,.05,.33,.04,.12,0,.21-.02,.29-.09,.16-.13,.21-.38,.22-.61,.01-.24-.01-.48-.04-.72-.07-.48-.19-.95-.32-1.42,.18,.45,.33,.92,.43,1.4,.04,.24,.08,.49,.08,.74,0,.24-.03,.53-.25,.73-.11,.1-.26,.15-.39,.14-.13,.01-.27-.01-.39-.04-.25-.07-.48-.2-.68-.35-.4-.31-.73-.68-1.01-1.11-.02-.03-.03-.06-.05-.09,0-.01,0,0-.01-.03,0-.03-.01-.06-.01-.08h0c-.07-.06,.13,.23,.11,.13,.01,0,.03,0,.03-.01h0s0,0,0,0h-.02s-.14,.12-.14,.12c-.1,.08-.19,.15-.29,.22-.2,.15-.4,.28-.62,.41-.21,.13-.44,.24-.67,.33-.24,.08-.5,.15-.77,.09-.27-.05-.49-.3-.53-.56-.04-.26,.01-.51,.08-.75,.16-.47,.41-.9,.69-1.29"/><path class="cls-16" d="M74.35,58.19c.04-.26,.1-.52,.16-.78,.04-.13,.08-.25,.12-.38,.02-.06,.05-.13,.08-.19,.03-.06,.04-.12,.07-.17,.13-.49,.11-1.02,.07-1.53-.04-.52-.13-1.03-.26-1.54-.06-.25-.14-.5-.24-.74-.08-.25-.2-.48-.33-.71,.33,.41,.56,.91,.72,1.41,.17,.51,.27,1.03,.32,1.57,.03,.53,.05,1.08-.13,1.6-.03,.06-.06,.13-.09,.19-.03,.05-.06,.11-.09,.17-.06,.12-.1,.24-.15,.36-.1,.24-.17,.5-.26,.74"/><path class="cls-16" d="M84.27,58.06c-.1-.29-.16-.61-.16-.92,0-.16,.02-.32,.06-.47,.04-.16,.09-.3,.13-.45,.15-.6,.27-1.2,.4-1.81,.13-.6,.26-1.21,.4-1.81l.21-.9c.08-.3,.15-.6,.23-.9-.07,.62-.17,1.23-.27,1.84-.1,.61-.22,1.22-.35,1.82-.13,.6-.26,1.21-.45,1.81-.05,.15-.11,.3-.16,.44-.05,.14-.07,.29-.09,.44-.04,.3,0,.61,.05,.92"/><path class="cls-22" d="M70.39,38.68c-.06-.02-.12,0-.13,.07-.07,.28-.3,.8-.51,.82-.24,.02-.19-2.27-.52-2.34-.13-.03-.21,1.6-.21,1.6,0,0-.25-1.77-.45-1.66-.2,.11-.19,1.69-.19,1.69,0,0-.46-1.73-.61-1.54-.16,.2,0,1.59,0,1.59-.23-.62-.42-.83-.52-.91-.05-.04-.11,0-.11,.06,.01,.76,.77,2.34,1.11,3.01h0c-.06,.3-.12,.59-.17,.89,.63-.1,1.26-.25,1.89-.42-.05-.23-.08-.37-.09-.41,0,0,0,0,0,0,.52-.81,.67-1.58,.74-1.98,.05-.3-.1-.42-.21-.47"/><path class="cls-11" d="M68.03,41.54l1.98-.07,1.48,6.44s1.53-3.57,3.37-3.8c1.84-.23-.54,8.07-.54,8.07,0,0-1.93,2.75-3.84,2.28-1.91-.46-2.5-3.89-2.59-4.78-.09-.89,.12-8.14,.12-8.14"/><path class="cls-16" d="M71.1,48.62c.08-.28,.19-.54,.32-.8l.15-.3,.04,.34c.03,.21,.05,.42,.05,.63,0,.21,0,.43-.03,.64-.07-.21-.12-.41-.15-.62-.04-.21-.06-.42-.07-.63l.19,.04c-.15,.24-.3,.48-.5,.7"/><path class="cls-16" d="M73.49,53.1c.1-.37,.27-.71,.44-1.04,.18-.33,.38-.65,.63-.94-.1,.37-.27,.71-.44,1.04-.18,.33-.38,.65-.63,.94"/><path class="cls-22" d="M83.8,37.36c-.12-.37-.51-.66-.89-.56,.17-5.08-4.06-4.4-4.06-4.4-2.66,.23-2.96,3.06-2.94,4.49-.09-.05-.17-.09-.21-.1-.39-.1-.78,.2-.9,.56-.09,.29-.03,.62,.14,.88,.14,.21,.36,.41,.6,.5,.05,.02,.28,.06,.46,.05,.41,3.32,3.42,2.99,3.42,2.99,2.61,.13,3.29-1.69,3.44-3.01,.1-.01,.18-.03,.21-.04,.24-.09,.46-.29,.6-.5,.17-.26,.23-.59,.14-.88"/><path class="cls-18" d="M80.68,38.63c0,.47,.38,.85,.85,.85s.85-.38,.85-.85-.38-.85-.85-.85-.85,.38-.85,.85"/><path class="cls-18" d="M76.45,38.63c0,.47,.38,.85,.85,.85s.85-.38,.85-.85-.38-.85-.85-.85-.85,.38-.85,.85"/><path class="cls-16" d="M80.23,36.98c0,.28,.11,.5,.25,.5s.25-.22,.25-.5-.11-.5-.25-.5-.25,.23-.25,.5"/><path class="cls-16" d="M80.98,36.31c-.04,.08-.1,.15-.17,.21-.07,.06-.16,.11-.26,.13h0s-.1-.02-.11-.07c-.01-.05,.02-.1,.07-.11,0,0,.02,0,.02,0,.14,0,.29-.08,.39-.2h0s.03-.02,.04,0c.01,0,.01,.02,0,.04"/><path class="cls-16" d="M78.6,36.98c0,.28-.11,.5-.25,.5s-.25-.22-.25-.5,.11-.5,.25-.5,.25,.23,.25,.5"/><path class="cls-16" d="M77.9,36.28c.1,.12,.26,.2,.39,.2,.05,0,.09,.04,.09,.09,0,.05-.04,.09-.09,.09,0,0-.02,0-.02,0h0c-.1-.02-.19-.07-.26-.13-.07-.06-.12-.13-.17-.21,0-.01,0-.03,.01-.04,.01,0,.03,0,.04,0h0Z"/><path class="cls-16" d="M80.34,38.5c-.08,.17-.21,.31-.37,.42-.16,.11-.35,.18-.55,.18-.2,0-.39-.07-.55-.19-.08-.05-.14-.13-.21-.19-.06-.07-.11-.15-.17-.23,.08,.06,.15,.11,.21,.17,.08,.05,.15,.1,.22,.14,.15,.09,.32,.14,.49,.14,.17,0,.33-.05,.49-.13,.15-.09,.3-.19,.43-.32"/><path class="cls-16" d="M79.67,39.39c-.07,.06-.17,.08-.26,.09-.09,0-.19-.03-.26-.09,.09,.01,.17,.03,.26,.03,.09,0,.17-.01,.26-.03"/><path class="cls-23" d="M78.8,35.23c-.11-.1-.24-.13-.38-.14-.14,0-.27,.01-.41,.06-.13,.04-.25,.12-.36,.2-.11,.09-.18,.2-.24,.31-.03,.06-.01,.13,.05,.16,.05,.03,.1,.02,.14-.02h.01c.08-.08,.16-.15,.24-.2,.08-.06,.18-.09,.27-.11,.09-.02,.19-.03,.29-.03,.1,0,.2,0,.31-.02h.03c.07-.02,.11-.09,.09-.16,0-.03-.02-.05-.04-.06"/><path class="cls-23" d="M80.03,35.23c.11-.1,.24-.13,.38-.14,.13,0,.27,.01,.41,.06,.13,.04,.25,.12,.36,.2,.11,.09,.18,.2,.24,.31,.03,.06,.01,.13-.05,.16-.05,.03-.1,.02-.14-.02h-.01c-.08-.08-.16-.15-.24-.2-.08-.06-.18-.09-.27-.11-.09-.02-.19-.03-.29-.03-.1,0-.2,0-.31-.02h-.03c-.07-.02-.11-.09-.09-.16,0-.03,.02-.05,.04-.06"/><path class="cls-16" d="M79.47,36.21c.04,.19,.08,.38,.11,.56,.04,.19,.07,.37,.12,.55,.01,.04,.03,.09,.04,.13,.01,.03,.04,.1,.04,.16,0,.13-.07,.25-.18,.3-.1,.06-.23,.05-.32,.02-.1-.03-.18-.09-.25-.15,.18,.07,.38,.12,.51,.02,.06-.05,.1-.11,.09-.18,0-.04-.01-.06-.04-.11-.02-.05-.04-.09-.05-.14-.05-.19-.08-.39-.09-.58-.01-.19,0-.39,.02-.58"/><path class="cls-16" d="M75.1,37.63c0-.12,.03-.24,.13-.33,.11-.09,.26-.08,.38-.04,.12,.04,.23,.13,.31,.22,.08,.1,.14,.2,.19,.32,.02,.04,0,.09-.05,.11-.03,.01-.07,0-.09-.02h0c-.08-.09-.18-.18-.28-.2-.05-.01-.08-.01-.12,.01-.03,.02-.06,.08-.08,.13-.04,.11-.07,.24,.03,.29,.1,.06,.24,.04,.37,.03-.12,.05-.26,.1-.41,.05-.08-.03-.14-.11-.14-.19,0-.08,0-.15,.02-.22,.02-.07,.05-.14,.12-.21,.07-.06,.18-.08,.26-.05,.16,.05,.27,.14,.37,.25l-.14,.08c-.08-.19-.2-.39-.39-.48-.09-.04-.2-.07-.29-.02-.09,.05-.15,.16-.18,.27"/><path class="cls-16" d="M83.6,37.63c0-.12-.03-.24-.13-.33-.11-.09-.26-.08-.38-.04-.12,.04-.23,.13-.31,.22-.08,.1-.14,.2-.19,.32-.02,.04,0,.09,.05,.11,.03,.01,.07,0,.09-.02h0c.08-.09,.18-.18,.28-.2,.05-.01,.08-.01,.12,.01,.03,.02,.06,.08,.08,.13,.04,.11,.07,.24-.03,.29-.1,.06-.24,.04-.37,.03,.12,.05,.26,.1,.41,.05,.08-.03,.14-.11,.14-.19,0-.08,0-.15-.02-.22-.02-.07-.05-.14-.12-.21-.07-.06-.18-.08-.26-.05-.16,.05-.27,.14-.37,.25l.14,.08c.08-.19,.2-.39,.39-.48,.09-.04,.2-.07,.29-.02,.09,.05,.15,.16,.18,.27"/><path class="cls-23" d="M85.56,39.31c.07-.86-.48-1.63-1.03-2.3-.55-.66-1.16-1.36-1.24-2.22-.05-.48,.09-.98,0-1.45-.15-.8-.89-1.35-1.64-1.66-1.15-.46-2.48-.5-3.66-.1-1.18,.4-2.03,1.48-2.83,2.43-1,1.19-1.33,2.92-.83,4.4,.18,.53,.46,1.03,.56,1.58,.12,.63,0,1.27-.12,1.89-.13,.62-.27,1.26-.2,1.89,.01,.13,.04,.26,.07,.39,.14-.05,.24-.07,.24-.07,1.57-.07,2.45-.59,2.45-.59,0,0,.02,.01,.06,.04,.03-.15,.07-.32,.1-.49,.07-.43,.09-1.18,.06-1.61,0,0,0,0,0-.01,0-.02,0-.05-.01-.07-.69-.39-1.35-1.15-1.53-2.58-.18,0-.41-.03-.46-.05-.24-.09-.46-.29-.6-.5-.17-.26-.23-.59-.14-.88,.12-.37,.51-.66,.9-.56,.04,.01,.1,.04,.17,.08,.03,.08,.07,.16,.1,.23,.08,.16,.19,.32,.37,.33,.18,0,.31-.15,.4-.3,.21-.35,.38-.73,.5-1.12,.09-.29,.15-.6,.25-.89,.1-.29,.25-.57,.48-.78,.3-.27,.78-.38,1.17-.27-.08,.31,.03,.64,.25,.88,.22,.23,.52,.37,.83,.44,.31,.07,.63,.07,.95,.07,.28,0,.6,.01,.79,.22,.15,.17,.16,.43,.13,.65-.03,.23-.09,.46-.05,.68,.03,.15,.14,.32,.3,.32,.11,0,.2-.09,.27-.17,.12-.12,.23-.24,.35-.36,.38-.07,.75,.21,.87,.57,.09,.29,.03,.62-.14,.88-.14,.21-.36,.41-.6,.5-.03,.01-.11,.03-.21,.04-.1,.92-.46,2.08-1.56,2.66-.02,.08-.04,.17-.05,.27h0c-.04,.4,.02,.91,.1,1.37,.03,.19,.07,.37,.1,.53,.03-.02,.06-.05,.09-.08,0,0,1.19,.57,1.84,.5,.29-.03,.83,.09,1.35,.33,0-.16-.02-.32-.05-.47-.1-.6-.31-1.21-.23-1.81,.14-.99,1.03-1.76,1.11-2.76"/><path class="cls-16" d="M57.31,96.16s-.74,.71-1.39,1c-.64,.29-3.54,.13-3.35,1.58h6.7l.6-.6v.66h1.34s.52-1.48,.03-2.39c0,0-.97,.87-2.03,.48-1.06-.39-1.9-.74-1.9-.74"/><path class="cls-6" d="M57.67,93.33c0,2.16,0,3.51,0,3.51l3.47,.35,.53-3.85h-4Z"/><path class="cls-6" d="M70.02,93.33l.48,3.64,3.38,.37s.02-1.56,.05-4.01h-3.9Z"/><path class="cls-16" d="M74.35,96.16s.74,.71,1.39,1c.64,.29,3.55,.13,3.35,1.58h-6.7l-.6-.6v.66h-1.34s-.52-1.48-.03-2.39c0,0,.97,.87,2.03,.48,1.06-.39,1.9-.74,1.9-.74"/><path class="cls-4" d="M74.14,95.83h-4.07l-4.14-30.91-4.21,30.98h-4.28s.21-24.27,.71-29.48c.5-5.21,2.57-10.28,2.57-10.28h10.08s2.84,5.14,2.98,10.92l.14,5.78,.21,22.98Z"/><path class="cls-11" d="M66.93,56.48c.03,.9,.05,1.79,.06,2.69,.01,.9,.03,1.79,.03,2.69h0s0,.03,0,.03l-.98,3.08-.21,.67v-.7s.01-2.11,.01-2.11c0-.7,0-1.41,.01-2.11,.02-1.41,.04-2.82,.08-4.23,.04,1.41,.06,2.82,.08,4.23,.01,.71,.01,1.41,.02,2.11v2.11s-.2-.03-.2-.03l1-3.07v.03c0-.9,.02-1.79,.03-2.69,.01-.9,.03-1.79,.06-2.69"/><path class="cls-11" d="M69.53,56.56c.04,.22,.09,.44,.15,.66,.05,.22,.11,.43,.18,.64,.13,.42,.29,.84,.49,1.23,.2,.39,.46,.75,.79,1.02,.33,.28,.76,.43,1.21,.46-.22,.03-.45,.01-.68-.04-.22-.06-.44-.16-.63-.29-.39-.26-.67-.65-.88-1.06-.21-.41-.36-.84-.46-1.29-.1-.44-.16-.89-.16-1.34"/><path class="cls-11" d="M62.01,56.66c0,.44-.04,.88-.12,1.32-.09,.43-.21,.86-.4,1.27-.19,.4-.44,.8-.8,1.08-.18,.14-.38,.25-.6,.31-.22,.05-.45,.07-.66,.04,.44-.02,.85-.18,1.16-.47,.31-.29,.54-.65,.72-1.04,.18-.39,.31-.8,.43-1.22,.11-.42,.21-.85,.29-1.28"/><path class="cls-11" d="M57.78,94.94c.62-.08,1.25-.1,1.87-.11,.62,0,1.25,.02,1.87,.11-.62,.08-1.25,.1-1.87,.11-.62,0-1.25-.02-1.87-.11"/><path class="cls-11" d="M70.14,94.94c.62-.08,1.25-.1,1.87-.11,.62,0,1.25,.02,1.87,.11-.62,.08-1.25,.1-1.87,.11-.62,0-1.25-.02-1.87-.11"/><path class="cls-6" d="M72.68,41.59c-.49-.57-1.23-.87-2.01-.9-.5-.02-.92-.1-1.29-.23-.32-.44-1.4-1.03-1.62-1.94-.07-.42-.11-.86-.07-1.22h0c.02-.2,.06-.38,.14-.51l-2-1.02-2.1,.67c.05,.09,.11,.35,.14,.58,.03,.36,.02,.96-.03,1.41h0c-.18,.95-1.3,1.57-1.63,2.02-.37,.13-.8,.21-1.29,.23-.78,.03-1.52,.33-2.01,.9-.67,.78-1.11,2.17-.31,4.58,1.38,4.18,2.44,7.37,2.42,9.25h9.57c-.02-1.89,1.03-5.08,2.42-9.25,.8-2.41,.36-3.81-.31-4.58m-8.78-4.3l-.02-.14c0,.05,.01,.1,.02,.14Z"/><path class="cls-11" d="M60.72,55.04c-.06,.23-.06,.57-.05,.83,0,.21,.17,.38,.38,.39,1.78,.1,9.6,.52,9.76-.02,.18-.61,.04-1.21,.04-1.21,0,0,.41-2.66,1.09-4.78,.68-2.12,1.89-5.69,1.55-7.23-.34-1.53-1.61-2.32-2.44-2.41-.84-.09-1.94-.54-1.94-.54,0,0-2.36,1.3-3.19,1.41-.84,.11-3.35-1.41-3.35-1.41,0,0-.82,.36-1.52,.48-.7,.12-2.82,.45-3.03,2.96-.19,2.22,2.15,9.34,2.7,10.98,.06,.18,.07,.37,.02,.55"/><polygon class="cls-9" points="68.44 39.23 65.98 41.02 65.8 41.01 65.8 41.01 65.8 41.01 65.79 41.01 65.79 41.01 65.61 41.02 63.15 39.23 61.51 40.35 63.75 42.18 65.47 41.55 65.79 42.13 65.79 42.16 65.8 42.14 65.8 42.16 65.8 42.13 66.12 41.55 67.84 42.18 70.08 40.35 68.44 39.23"/><polygon class="cls-15" points="66.8 41.35 65.8 41.36 64.79 41.35 64.5 42.71 65.34 43.98 66.25 43.98 67.09 42.71 66.8 41.35"/><polygon class="cls-15" points="65.43 43.44 64.31 53.4 65.83 54.76 67.36 53.34 66.25 43.98 65.43 43.44"/><polygon class="cls-16" points="61.6 40.41 63.7 42.16 64.7 41.85 63.79 42.57 61.6 40.41"/><polygon class="cls-16" points="66.88 41.84 67.81 42.17 70.02 40.41 67.88 42.67 66.88 41.84"/><path class="cls-11" d="M72.83,53.44s-.03,0-.05,0c-3.6-.57-7.48-1.63-10.91-3.6l.4-1.14,.18-.5s.02,0,.07,0c.44,.04,3.02,.34,6.32,.61,.8,.07,1.65,.13,2.51,.2-.12-.37-.24-.74-.36-1.09-.05-.13-.09-.26-.13-.38-.06-.18-.12-.36-.18-.53-.3-.86-.56-1.59-.77-2.15-.29-.76-.45-1.38-.52-1.89-.24-1.72,1.54-2.78,2.95-1.72,.55,.41,1.12,1.1,1.59,2.22,.55,1.3,1.42,3.37,2.25,5.9,.01,.03,.02,.07,.03,.11,.7,2.16-1.13,4.31-3.37,3.95"/><path class="cls-16" d="M69.84,44.33c.16,.38,.31,.76,.45,1.14,.14,.38,.28,.77,.4,1.15,.13,.39,.25,.77,.37,1.16,.12,.39,.22,.78,.33,1.18l-.06-.03c.2-.05,.4-.1,.6-.14-.19,.08-.38,.16-.57,.23l-.04,.02-.02-.05c-.14-.38-.29-.76-.42-1.15-.13-.38-.26-.77-.38-1.16-.12-.39-.24-.78-.35-1.17-.11-.39-.22-.79-.31-1.19"/><polygon class="cls-16" points="65.63 51.58 69.14 50.13 66.38 51.88 65.63 51.58"/><path class="cls-16" d="M71.54,49.36c-.11-.02-.15-.08-.19-.14-.03-.06-.04-.13,0-.24,.11,.02,.16,.08,.19,.14,.03,.06,.04,.13,0,.23"/><path class="cls-16" d="M67.24,52.17c.67,.08,1.33,.22,1.99,.38,.65,.16,1.31,.34,1.94,.59-.68-.08-1.34-.22-1.99-.38-.65-.16-1.3-.34-1.94-.59"/><path class="cls-6" d="M62.45,48.21l-.18,.49-1.83,.16c-.73,.06-1.48-.1-2.1-.5-.13-.09-.22-.16-.23-.2-.05-.23,1.76,.08,1.76,.08,0,0-1.57-.58-1.5-.7,.17-.3,2.39,.46,2.45,.22,.05-.21-.39-.6-.64-.76-.05-.03-.07-.1-.03-.15,.08-.1,.24-.21,.52-.06,.39,.21,1.78,1.43,1.78,1.43"/><path class="cls-11" d="M69.16,50.14c.79-.36,1.53-.74,2.19-1.12l-2.7-.71-.03-.12-8.34,.68c.55-1.66,1.04-3.07,1.4-3.98,.29-.75,.45-1.38,.53-1.89,.24-1.72-1.54-2.78-2.95-1.73-.55,.41-1.12,1.1-1.59,2.23-.55,1.3-1.42,3.37-2.25,5.9-.01,.04-.02,.07-.03,.11-.7,2.16,1.13,4.31,3.37,3.95,.02,0,.03,0,.05,0,2.89-.46,7.03-1.77,10.33-3.28h.04s0-.02,0-.02Z"/><path class="cls-6" d="M70.99,47.93c-.17,.02-.28,.01-.29-.04-.02-.09,.05-.22,.16-.34-.06-.18-.12-.36-.18-.53-.38,.21-.97,.59-1.51,1.22l-.53,.05,.53,1.86,2.19-1.14c-.12-.38-.24-.74-.36-1.09"/><path class="cls-16" d="M68.65,48.19c-.69,.1-1.39,.17-2.09,.25-.7,.08-1.39,.14-2.09,.2-.7,.06-1.39,.11-2.09,.16-.7,.04-1.4,.09-2.1,.11l.03-.03c-.07,.23-.15,.46-.23,.69,.05-.24,.11-.47,.16-.71v-.02s.03,0,.03,0c.69-.09,1.39-.16,2.09-.23,.7-.07,1.39-.13,2.09-.18,.7-.05,1.4-.11,2.09-.14,.7-.04,1.4-.08,2.1-.09"/><path class="cls-16" d="M59.38,49.14c.12-.13,.27-.19,.41-.24,.15-.04,.3-.07,.48-.04-.12,.13-.27,.19-.41,.24-.15,.04-.3,.07-.48,.04"/><path class="cls-16" d="M60.22,53.15s2.57-.46,4.28-1.21l-3.96,2.03-.32-.82Z"/><path class="cls-16" d="M60.92,46.83c.1-.55,.27-1.07,.44-1.6,.18-.52,.38-1.03,.65-1.53-.1,.55-.26,1.08-.44,1.6-.18,.52-.38,1.03-.65,1.53"/><path class="cls-6" d="M70.3,32.84c-.12-.37-.52-.68-.92-.58,.18-5.21-4.17-4.51-4.17-4.51-2.73,.24-3.04,3.13-3.02,4.61-.09-.05-.17-.09-.22-.1-.4-.1-.8,.2-.92,.58-.1,.3-.03,.64,.14,.9,.14,.22,.37,.42,.62,.52,.06,.02,.29,.06,.48,.06,.42,3.41,3.51,3.07,3.51,3.07,2.68,.13,3.37-1.74,3.53-3.09,.1-.01,.18-.03,.21-.04,.25-.09,.48-.3,.62-.52,.17-.26,.24-.6,.14-.9"/><path class="cls-16" d="M69.94,31.05c.03-.59-.71-2.81-2.57-3.29-.6-.15-1.11-.2-1.54-.19-.43,0-.94,.04-1.54,.19-1.86,.48-2.6,2.7-2.57,3.29,0,.19,.07,.38,.14,.56,.2,.46,.32,.96,.32,1.46,0,.43,.02,.9,.06,1.28,.09,.95,1.14,3.66,3.34,3.66s3.21-1.62,3.64-2.8c.21-.58,.26-1.34,.26-1.97,0-.56,.1-1.11,.32-1.62,.07-.18,.13-.37,.14-.56m-2.72,3.89s-.23-1.37-1.48-1.37-1.59,1.27-1.59,1.27c-.57-.17-1.02-1.22-1.27-2.01-.16-.5,0-1.05,.43-1.36,0,0,0,0,.01,0,.33-.24,.05-.32,.28-1,.01-.04,.03-.07,.04-.11,.27-.56,1.03-.63,1.48-.19,.05,.05,.1,.09,.16,.12,.14,.11,.32,.18,.52,.18h0s.02,0,.03,0c0,0,.02,0,.03,0h0c.2,0,.38-.06,.52-.18,.06-.04,.11-.08,.16-.12,.45-.44,1.21-.37,1.48,.19,.02,.04,.03,.07,.04,.11,.23,.68-.05,.76,.28,1,.04,.03,.08,.06,.11,.08,.4,.32,.56,.87,.38,1.35-.48,1.26-1.61,2.04-1.61,2.04Z"/><path class="cls-16" d="M66.64,32.45c0,.28,.11,.52,.25,.52s.25-.23,.25-.52-.11-.52-.25-.52-.25,.23-.25,.52"/><path class="cls-16" d="M64.96,32.45c0,.28-.11,.52-.25,.52s-.25-.23-.25-.52,.11-.52,.25-.52,.25,.23,.25,.52"/><path class="cls-16" d="M65.17,30.66c-.12-.1-.25-.14-.39-.14-.14,0-.28,.01-.42,.06-.14,.04-.26,.12-.37,.21-.11,.09-.19,.21-.25,.32-.03,.06-.01,.13,.05,.16,.05,.03,.1,.02,.14-.02h.01c.08-.08,.16-.16,.25-.21,.08-.06,.18-.09,.27-.11,.1-.02,.2-.03,.3-.03,.1,0,.21,0,.32-.02h.03c.07-.02,.11-.09,.09-.16,0-.03-.02-.05-.04-.07"/><path class="cls-16" d="M66.43,30.66c.12-.1,.25-.14,.39-.14,.14,0,.28,.01,.42,.06,.14,.04,.26,.12,.37,.21,.11,.09,.19,.21,.25,.32,.03,.06,.01,.13-.05,.16-.05,.03-.1,.02-.14-.02h-.01c-.08-.08-.16-.16-.25-.21-.08-.06-.18-.09-.27-.11-.1-.02-.2-.03-.3-.03-.1,0-.21,0-.32-.02h-.03c-.07-.02-.11-.09-.09-.16,0-.03,.02-.05,.04-.07"/><path class="cls-16" d="M65.86,31.66c.04,.19,.08,.39,.11,.58,.04,.19,.07,.38,.13,.56,.01,.05,.03,.09,.04,.13,.01,.04,.04,.1,.04,.17,0,.13-.08,.25-.18,.31-.11,.06-.23,.05-.33,.02-.1-.04-.19-.09-.26-.16,.18,.07,.39,.12,.52,.02,.06-.05,.1-.11,.09-.18,0-.04-.01-.06-.04-.11-.02-.05-.04-.1-.05-.15-.06-.2-.08-.4-.09-.59-.01-.2,0-.4,.02-.59"/><path class="cls-16" d="M61.38,33.12c0-.12,.03-.25,.13-.34,.11-.09,.27-.08,.39-.04,.13,.04,.23,.13,.31,.23,.08,.1,.15,.21,.2,.33,.02,.04,0,.09-.05,.11-.03,.01-.07,0-.09-.02h0c-.08-.09-.19-.18-.29-.21-.05-.01-.09-.01-.12,.01-.04,.02-.06,.08-.09,.13-.04,.11-.07,.25,.03,.3,.1,.06,.25,.04,.38,.03-.12,.05-.26,.1-.42,.06-.08-.03-.14-.12-.15-.2,0-.08,0-.16,.02-.23,.02-.07,.05-.15,.12-.21,.07-.06,.18-.08,.26-.05,.16,.05,.27,.14,.38,.25l-.15,.09c-.08-.2-.21-.4-.4-.5-.09-.05-.2-.07-.29-.02-.09,.05-.15,.16-.18,.28"/><path class="cls-16" d="M70.1,33.12c0-.12-.03-.25-.13-.34-.11-.09-.27-.08-.39-.04-.13,.04-.23,.13-.31,.23-.08,.1-.15,.21-.2,.33-.02,.04,0,.09,.05,.11,.03,.01,.07,0,.09-.02h0c.08-.09,.19-.18,.29-.21,.05-.01,.09-.01,.12,.01,.04,.02,.06,.08,.09,.13,.04,.11,.07,.25-.03,.3-.1,.06-.25,.04-.38,.03,.12,.05,.26,.1,.42,.06,.08-.03,.14-.12,.15-.2,0-.08,0-.16-.02-.23-.02-.07-.05-.15-.12-.21-.07-.06-.18-.08-.26-.05-.16,.05-.27,.14-.38,.25l.15,.09c.08-.2,.21-.4,.4-.5,.09-.05,.2-.07,.29-.02,.09,.05,.15,.16,.18,.28"/><path class="cls-11" d="M64.93,34.07s.77,.43,1.64,0c0,0-.71,1.7-1.64,0"/><path class="cls-5" d="M55.56,79.45l.2,16.64,1.09,1.18,2.27-1.27c.52-4.03,1.48-10.58,2.23-16.56h-5.79Z"/><path class="cls-12" d="M55.03,95.43s-.12-.02-.13,.04c-.06,.27-.21,.87-.37,1.44-.17,.61,.3,1.08,.5,1.25,.06,.05,.13,.07,.2,.07h8.65s.39-.6-2.4-1.27c-2.79-.67-1.73-1.48-2.6-1.37-.86,.12-1.95,1.29-2.79,.69-.58-.41-.91-.72-1.07-.86"/><path class="cls-5" d="M50.41,79.45c.63,6.18,1.39,12.98,1.83,16.98l1.98,1.04,2.15-1.35,.05-16.67h-6Z"/><path class="cls-16" d="M56.37,95.5c-.04-1.07-.06-2.14-.07-3.21-.01-1.07,0-2.14-.01-3.21,.01-1.07,.02-2.14,.04-3.21l.04-1.61c.02-.54,.03-1.07,.06-1.61,.02,.54,.03,1.07,.05,1.61l.02,1.61c.01,1.07,0,2.14,.01,3.21-.01,1.07-.02,2.14-.04,3.21-.02,1.07-.05,2.14-.1,3.21"/><path class="cls-12" d="M52.21,95.43s-.12-.02-.13,.04c-.06,.27-.21,.87-.37,1.44-.17,.61,.3,1.08,.51,1.25,.06,.05,.13,.07,.2,.07h8.65s.39-.6-2.4-1.27c-2.79-.67-1.73-1.48-2.6-1.37-.86,.12-1.95,1.29-2.79,.69-.58-.41-.91-.72-1.07-.86"/><path class="cls-15" d="M51.18,59.01s-2.2,3.11-2.25,7.23c-.05,4.12,1.55,15.52,1.55,15.52l.43,.12c3.4,.95,7,.91,10.38-.12,0,0,3.16-17.08-.86-22.64l-9.26-.11Z"/><path class="cls-11" d="M50.35,63.24c-.11,.76-.19,1.52-.24,2.29-.05,.76-.07,1.53-.05,2.3,.02,.77,.07,1.53,.17,2.29l.25,2.29,.46,4.58,.21,2.29c.06,.77,.13,1.53,.19,2.3-.1-.76-.2-1.52-.29-2.29l-.27-2.29-.51-4.58-.23-2.29c-.09-.76-.14-1.54-.14-2.31,0-1.54,.15-3.08,.46-4.59"/><path class="cls-3" d="M69.01,43.35c-.13,.05-.37,.22-.76,.77,0,0,.52-1.34,.42-1.57-.1-.24-1.01,1.37-1.01,1.37,0,0,.43-1.56,.25-1.72-.17-.16-.87,1.53-.87,1.53,0,0,.35-1.64,.21-1.64-.34-.02-.89,2.27-1.12,2.18-.21-.07-.3-.65-.3-.95,0-.06-.05-.11-.11-.1-.12,.02-.31,.1-.33,.41-.03,.41-.08,1.21,.22,2.14,0,0,0,0,0,0-.1,.19-.22,.42-.36,.69,.31,.13,.62,.26,.93,.38,.38,.15,.78,.32,1.19,.49,.06-.5,.1-1,.13-1.5h0c.57-.66,1.43-1.75,1.61-2.39,.02-.06-.04-.11-.1-.09"/><path class="cls-12" d="M60.42,45.82s1.2,.45,1.53,1.23c.32,.78,1.02,4.2,1.02,4.2l2.44-5.3,2.22,.51s-.4,6.13-2.68,10.28c-2.27,4.15-5.14,.08-5.57-1.39-.43-1.47-1.26-7.39-.94-7.98,.32-.59,1.98-1.55,1.98-1.55"/><path class="cls-16" d="M65.42,46.7c.33,0,.64,.07,.95,.15,.31,.09,.61,.19,.9,.36-.33,0-.64-.07-.95-.15-.31-.09-.61-.19-.89-.36"/><path class="cls-5" d="M59.45,45.31c-.32-.19-.59-.38-.81-.65-.05-.19-.18-.66-.27-1.19-.08-.47-.14-.99-.1-1.4h0c.02-.2,.06-.38,.14-.51l-4.57-2.57s0,.03,0,.04c.07,.42,.62,3.75,.06,5.52-.19,.09-.4,.16-.65,.22,1.18,1.62,1.92,3.5,3.13,5.11,.66,.88,1.51,1.83,2.71,1.64,.12-.02,.23-.05,.33-.08,.14-.99,.13-2.06,.14-2.89,0-1-.21-2.18-.1-3.24"/><path class="cls-7" d="M58.37,43.47c-2.49,.31-3.75-2.66-3.79-2.77,.46,.73,1.12,1.1,1.77,1.27,.8,.22,1.58,.15,1.9,.1,0,0,.01,0,.02,0-.04,.41,.02,.93,.1,1.4"/><path class="cls-12" d="M53.84,44.47l3.64,6.17,1.2-5.82s2.41,1.11,2.98,2.14c.57,1.04,.96,3.57,.68,5.03-.29,1.46-2.21,6-1.61,7.32,.61,1.32,1.25,2.78,1.36,3.64h-2.18l-.86-1.36-.64,1.39h-9.31s2.43-5.17,2.53-5.85c.11-.68-1.53-6.71-1.64-8.07-.11-1.36,.75-3.71,1.32-4,.57-.29,2.53-.61,2.53-.61"/><polygon class="cls-13" points="53.84 44.47 53.54 47.84 54.96 48.38 53.96 51.2 57.42 55.59 59.84 51.06 59.23 48.5 61.1 48.27 58.66 44.75 57.48 50.65 53.84 44.47"/><polygon class="cls-11" points="53.84 44.47 57.22 47.42 58.68 44.68 60.94 46.04 59.53 46.01 57.48 50.65 54.03 45.89 52.63 46.43 53.84 44.47"/><path class="cls-16" d="M54.13,45.93c.12-.14,.26-.21,.4-.27,.15-.05,.3-.1,.48-.07-.12,.14-.26,.21-.4,.27-.15,.05-.3,.09-.48,.07"/><path class="cls-16" d="M59.53,46.01c-.23-.02-.43-.1-.62-.2-.19-.1-.37-.22-.53-.39,.23,.02,.43,.1,.62,.2,.19,.1,.37,.22,.53,.39"/><rect class="cls-19" x="53.59" y="49.72" width="11.29" height="7.66" transform="translate(-4.07 102.22) rotate(-79.66)"/><polygon class="cls-11" points="62.14 59.98 54.6 58.6 56.63 47.49 63.95 48.75 64.22 49.03 62.14 59.98"/><rect class="cls-14" x="53.89" y="50.07" width="11.29" height="7.67" transform="translate(-4.18 102.81) rotate(-79.67)"/><polygon class="cls-19" points="64.32 49.04 64.02 48.69 63.95 48.75 64.2 49.02 64.32 49.04"/><path class="cls-16" d="M50.91,58.99s2.95-.81,3.68-1.27c0,0-1.78,2.36-4.19,2.4l.52-1.13Z"/><path class="cls-5" d="M63.76,52.04c.09-.24-1.67,.3-1.67,.3,0,0,1.38-.84,1.37-1.08-.01-.24-1.68,.51-1.68,.51,0,0,1.38-.95,1.28-1.05-.23-.25-2.2,1.03-2.32,.81-.1-.2,.23-.67,.44-.89,.04-.05,.04-.11-.01-.15-.1-.07-.29-.14-.52,.07-.3,.28-.89,.83-1.32,1.71,0,0,0,0,0,0-.09,.03-.77,.27-1.84,.64,0,.11,0,.21,0,.32,.04,.78,.11,1.57,.2,2.35,0,.07,.02,.14,.03,.21,.89-.66,1.74-1.37,2.54-2.14h0s0,0,0,0c.76-.07,2.55-.27,3.22-.67,.05-.03,.05-.1-.01-.13-.13-.05-.42-.09-1.08,.04,0,0,1.3-.61,1.38-.85"/><path class="cls-12" d="M58.94,52.3l-6.05,2.06s.5-1.9,.64-3.97c-.4-.15-.76-.37-1.01-.7-.12-.16-.19-.32-.23-.47-.04-.05-.07-.1-.11-.16-.02-.03-.03-.07-.05-.1-.06,.03-.12,.05-.19,.07-.53,.15-1.21-.18-1.32-.75-.25-1.28,.22-2.39,1.2-3.03-.17-.07-.36-.12-.57-.14,0,0-1.56,1.17-2.04,2.78-.48,1.61-1.66,8.99-.11,10.71,1.55,1.71,8.54-2.14,10.65-4.28l-.83-2.01Z"/><path class="cls-16" d="M51.1,55.24c.61-.34,1.22-.66,1.84-.98h0s0,0,0,0c.49-.18,.98-.35,1.48-.52,.49-.17,.99-.33,1.49-.49,.5-.16,1-.31,1.5-.46,.5-.15,1-.3,1.51-.43-.49,.19-.97,.38-1.46,.56-.49,.18-.98,.36-1.47,.53-.49,.17-.99,.34-1.48,.5-.5,.16-.99,.32-1.49,.47h0c-.63,.28-1.27,.57-1.91,.83"/><path class="cls-16" d="M51.34,54.01c.14,.01,.28,.03,.41,.05,.14,.02,.28,.03,.41,.06l.82,.13-.11,.07,.31-1.97,.16-.98c.04-.33,.1-.66,.11-.99,.05,.33,.04,.67,.02,1-.02,.33-.05,.67-.09,1-.08,.66-.19,1.32-.32,1.98l-.02,.09-.09-.02-.81-.19c-.14-.03-.27-.07-.4-.1-.13-.04-.27-.07-.4-.11"/><path class="cls-16" d="M58.09,52.88c.22,.27,.39,.56,.54,.86,.14,.3,.27,.62,.35,.96-.22-.27-.39-.56-.54-.86-.14-.31-.27-.62-.35-.96"/><path class="cls-16" d="M52.14,45.98c.26,.12,.49,.31,.69,.53,.19,.22,.34,.48,.46,.75,.11,.27,.19,.56,.22,.85,.02,.14,.02,.29,.03,.44,0,.15-.02,.29-.03,.43-.03-.14-.04-.28-.07-.42-.03-.14-.05-.28-.09-.41-.06-.27-.15-.54-.25-.79-.11-.25-.24-.5-.4-.73-.16-.23-.34-.45-.55-.64"/><path class="cls-5" d="M60.71,37.9c-.05-1.35-.22-2.73-.68-3.93-.6-1.54-3.41-2.13-5.38-.43-.91,.79-1.1,2.23-1.05,3.54-.05-.02-.09-.04-.12-.05-.4-.1-.8,.2-.92,.58-.1,.3-.03,.64,.14,.9,.14,.22,.37,.42,.62,.52,.06,.02,.34,.07,.53,.05,.19,.86,.63,1.66,1.31,2.23,.86,.71,1.96,1,3.05,.77,.85-.18,2.11-.72,2.42-1.6,.08-.23,.09-.48,.09-.72,0-.06,0-.11,0-.17,0-.55,0-1.12-.02-1.69"/><path class="cls-7" d="M60.72,39.59c-.07,.02-.15,.03-.22,.03-.48,0-.87-.39-.87-.87s.39-.87,.87-.87c.07,0,.14,0,.21,.02,.02,.57,.02,1.14,.02,1.69"/><path class="cls-7" d="M55.28,38.75c0,.48,.39,.87,.87,.87s.87-.39,.87-.87-.39-.87-.87-.87-.87,.39-.87,.87"/><path class="cls-16" d="M59.17,37.05c0,.29,.11,.52,.25,.52s.25-.23,.25-.52-.11-.52-.25-.52-.25,.23-.25,.52"/><path class="cls-16" d="M59.93,36.38c-.04,.08-.1,.16-.17,.22-.07,.06-.16,.11-.26,.14h0s-.1-.02-.11-.07c-.01-.05,.02-.1,.07-.11,0,0,.02,0,.02,0,.14,0,.3-.08,.4-.2h0s.03-.02,.04,0c.01,0,.01,.02,0,.04"/><path class="cls-16" d="M57.49,37.05c0,.29-.11,.52-.25,.52s-.25-.23-.25-.52,.11-.52,.25-.52,.25,.23,.25,.52"/><path class="cls-16" d="M56.77,36.34c.11,.12,.26,.21,.4,.2,.05,0,.09,.04,.1,.09,0,.05-.04,.1-.09,.1,0,0-.02,0-.02,0h0c-.1-.02-.19-.07-.26-.14-.07-.06-.13-.14-.17-.22,0-.01,0-.03,.01-.04,.01,0,.03,0,.04,0h0Z"/><path class="cls-16" d="M59.28,38.62c-.09,.17-.22,.32-.38,.43-.16,.12-.36,.19-.56,.19-.2,0-.4-.07-.56-.19-.08-.05-.15-.13-.22-.19-.06-.08-.12-.15-.17-.23,.08,.06,.15,.12,.22,.18,.08,.05,.15,.11,.23,.15,.16,.09,.33,.14,.5,.14,.17,0,.34-.05,.5-.14,.16-.09,.31-.2,.44-.33"/><path class="cls-16" d="M58.59,39.53c-.07,.06-.17,.09-.27,.09-.1,0-.19-.03-.27-.09,.09,.01,.18,.03,.27,.03,.09,0,.17-.01,.27-.03"/><path class="cls-16" d="M57.7,35.27c-.12-.1-.25-.14-.39-.14-.14,0-.28,.01-.42,.06-.14,.04-.26,.12-.37,.21-.11,.09-.19,.21-.25,.32-.03,.06-.01,.13,.05,.16,.05,.03,.1,.02,.14-.02h.01c.08-.09,.16-.16,.25-.21,.08-.06,.18-.09,.27-.11,.1-.02,.2-.03,.3-.03,.1,0,.21,0,.32-.02h.03c.07-.02,.11-.09,.09-.16,0-.03-.02-.05-.04-.06"/><path class="cls-16" d="M58.96,35.27c.12-.1,.25-.14,.39-.14,.14,0,.28,.01,.42,.06,.14,.04,.26,.12,.37,.21,.11,.09,.19,.21,.25,.32,.03,.06,.01,.13-.05,.16-.05,.03-.1,.02-.14-.02h-.01c-.08-.09-.16-.16-.25-.21-.08-.06-.18-.09-.27-.11-.1-.02-.2-.03-.3-.03-.1,0-.21,0-.32-.02h-.03c-.07-.02-.11-.09-.09-.16,0-.03,.02-.05,.04-.06"/><path class="cls-16" d="M58.39,36.27c.04,.19,.08,.39,.11,.58,.04,.19,.07,.38,.13,.56,.01,.05,.03,.09,.04,.13,.01,.04,.04,.1,.04,.17,0,.13-.08,.25-.18,.31-.11,.06-.23,.05-.33,.02-.1-.04-.19-.09-.26-.16,.18,.07,.39,.12,.52,.02,.06-.05,.1-.11,.09-.18,0-.04-.02-.06-.04-.11-.02-.05-.04-.1-.05-.15-.06-.2-.08-.4-.09-.59-.01-.2,0-.4,.02-.59"/><path class="cls-16" d="M52.88,37.9c0-.12,.03-.25,.13-.34,.11-.09,.27-.08,.39-.04,.13,.04,.23,.13,.31,.23,.08,.1,.15,.21,.2,.33,.02,.04,0,.09-.05,.11-.03,.01-.07,0-.09-.02h0c-.08-.09-.19-.18-.29-.21-.05-.01-.09-.01-.12,.01-.04,.03-.06,.08-.09,.13-.04,.11-.07,.25,.03,.3,.1,.06,.25,.04,.38,.03-.12,.05-.26,.1-.42,.06-.08-.03-.14-.12-.15-.2,0-.08,0-.16,.02-.23,.02-.07,.05-.15,.12-.21,.07-.06,.18-.08,.26-.05,.16,.05,.27,.14,.38,.25l-.15,.09c-.08-.2-.21-.4-.4-.5-.09-.04-.2-.07-.29-.02-.09,.05-.15,.16-.18,.28"/><path class="cls-11" d="M61.12,35.41c.18-3.75-4.82-4.93-7.35-2.18-2.08,2.26-1.63,7.17-1.41,8.85,.05,.36,.29,.67,.63,.8,.37,.14,.75,.26,1.14,.36,.12-1.68-.2-3.7-.28-4.15-.19,.02-.46-.03-.52-.05-.25-.09-.48-.3-.62-.52-.17-.26-.24-.6-.14-.9,.12-.37,.52-.68,.92-.58,.03,0,.07,.02,.12,.05,0-.01,0-.02,0-.03,2.27,.9,4.46-2.93,4.46-2.93,0,0,1.76,2.39,2.57,2.6,.04,.39,.07,.79,.08,1.18,.02,.58,.03,1.15,.02,1.69v.17c0,.24-.01,.49-.09,.72-.31,.86-1.51,1.4-2.36,1.59-.04,.41,.02,.93,.1,1.4,0,.03,.01,.06,.02,.09,1.65-.09,2.84-.38,2.84-.38,0,0-.29-4.03-.11-7.78"/><path class="cls-14" d="M89.71,42.78s-.68,.52-1.39,.77c-.71,.25-3.35,1.07-3.6,2.82-.25,1.75-.98,17.65-.98,17.65h4.71l1.77-20.34-.5-.89Z"/><path class="cls-10" d="M79,55.39c-.97-.48-1.86-.56-2.31-.6-.34-.03-.45,.14-.49,.26-.02,.06,.02,.12,.09,.13,.32,.04,.91,.23,.95,.45,.05,.25-2.46,.43-2.49,.77-.02,.14,1.77,.05,1.77,.05,0,0-1.9,.43-1.76,.63,.14,.2,1.86,.02,1.86,.02,0,0-1.84,.65-1.61,.79,.23,.14,1.73-.17,1.73-.17-.65,.3-.87,.51-.94,.63-.03,.06,0,.12,.08,.11,.84-.09,2.53-1.06,3.19-1.46,0,0,0,0,0,0,.35,.19,.71,.38,1.07,.55v-2.23c-.61,.03-1.01,.05-1.14,.06"/><path class="cls-14" d="M79.34,55.28s-.11,2.33,0,2.57c.11,.24,6.61,2.09,8.59,1.28,1.98-.8,2.62-9.29,2.41-10.76-.21-1.47-2.36-4.02-2.84-4.02s-2.36,.43-2.76,2.19c-.4,1.77-.7,8.54-.7,8.54l-4.71,.19Z"/><path class="cls-10" d="M82.04,93.46c-.04,1.35-.07,2.54-.09,3.5l2.46,.6,1.34-.69,.7-3.42h-4.41Z"/><path class="cls-16" d="M81.89,96.31s-.74,.71-1.39,1c-.64,.29-3.55,.13-3.35,1.58h6.7l.6-.6v.66h1.34s.52-1.48,.03-2.39c0,0-.97,.87-2.03,.48-1.06-.39-1.9-.74-1.9-.74"/><path class="cls-10" d="M91.65,93.46l.11,3.29,2.21,.96,1.46-.91c.1-.91,.23-2.05,.38-3.33h-4.16Z"/><path class="cls-16" d="M91.61,96.31s-.74,.71-1.39,1c-.64,.29-3.55,.13-3.35,1.58h6.7l.6-.6v.66h1.34s.52-1.48,.03-2.39c0,0-.97,.87-2.03,.48-1.06-.39-1.9-.74-1.9-.74"/><path class="cls-16" d="M85.55,59.43h12.37s1.12,4.82,.86,8.35c-.27,3.53-3,28.05-3,28.05h-4.39l-.48-25.11-4.71,24.89h-4.44s-.48-27.41,3.8-36.19"/><path class="cls-11" d="M89.23,59.7l-.05,1.32-.05,1.32-.13,2.64v-.04s1.01,2.78,1.01,2.78c.34,.93,.66,1.86,.99,2.79l-.19,.03c0-1.07,.01-2.14,.03-3.21,.01-1.07,.04-2.14,.07-3.21,.03,1.07,.05,2.14,.07,3.21,.02,1.07,.03,2.14,.03,3.21v.55s-.19-.52-.19-.52c-.34-.93-.68-1.85-1.01-2.78l-.99-2.79v-.02s0-.02,0-.02l.19-2.64,.11-1.32,.11-1.32Z"/><path class="cls-11" d="M97.51,64.16c.14,1.3,.24,2.61,.23,3.92,0,.33-.03,.66-.06,.98l-.08,.98-.16,1.96-.68,7.82-.73,7.82-.38,3.91-.41,3.91,.3-3.92,.32-3.91,.68-7.82,.73-7.82,.19-1.95c.06-.65,.14-1.3,.17-1.95,.04-1.3-.04-2.61-.12-3.92"/><path class="cls-11" d="M89.87,67.8c-.33,2.3-.69,4.59-1.05,6.88l-1.11,6.87-1.16,6.87-.6,3.43-.62,3.43,.51-3.44,.54-3.44,1.11-6.87,1.16-6.87c.39-2.29,.79-4.57,1.21-6.86"/><path class="cls-10" d="M94.06,44.45c-.67-1.71-.08-5.27,0-5.71,0-.02,0-.03,0-.04l-4.57,2.57c.08,.13,.12,.3,.14,.5h0c.04,.41-.02,.93-.1,1.4-.12,.69-.3,1.28-.3,1.28h4.83Z"/><path class="cls-8" d="M89.52,43.17c2.49,.31,3.75-2.66,3.79-2.77-.46,.73-1.12,1.1-1.78,1.27-.8,.22-1.58,.15-1.9,.1,0,0-.01,0-.02,0,.04,.41-.02,.93-.1,1.4"/><path class="cls-11" d="M89.35,43.21s.62,1.2,1.18,1.12c.56-.08,3.35-1.55,3.35-1.55,0,0,1.15,.86,2.33,.92,1.18,.07,3.08,1.06,3.18,3.97,.11,2.92-1.45,8.65-1.07,10.87,0,0,.16,.8-.4,.88h-12.37s-.4-.45-.19-.99c.21-.54-.27-7.01-.45-8.51-.19-1.5-.59-4.01,.83-4.79,1.42-.78,3.13-1.15,3.61-1.93"/><path class="cls-16" d="M88.71,43.93c0,.25,0,.51,.01,.76,0,.12,.02,.25,.04,.36,.01,.06,.03,.11,.05,.15,.01,.01,.02,.02,.02,.02,0,0,.03,0,.05,0,.21-.04,.44-.17,.66-.29,.22-.12,.44-.25,.65-.38l.08-.05,.04,.08c.09,.16,.19,.32,.29,.48,.05,.08,.1,.16,.16,.23,.06,.07,.11,.15,.2,.19-.1-.01-.18-.08-.25-.15-.07-.07-.14-.13-.2-.21-.13-.15-.24-.3-.35-.46l.12,.03c-.21,.15-.42,.29-.64,.42-.11,.07-.23,.13-.35,.18-.12,.05-.24,.11-.39,.12-.04,0-.08,0-.14-.02-.06-.02-.09-.07-.12-.11-.03-.08-.05-.15-.06-.21-.01-.14-.01-.27,0-.39,.02-.26,.06-.51,.13-.76"/><rect class="cls-16" x="74.78" y="49.31" width="13.01" height="8.53"/><rect class="cls-16" x="74.78" y="57.84" width="20.44" height=".68"/><rect class="cls-16" x="87.8" y="57.84" width="7.42" height=".68"/><rect class="cls-16" x="87.28" y="49.31" width=".51" height="8.53"/><path class="cls-11" d="M82.09,53.53c0,.27-.1,.54-.29,.74-.19,.2-.46,.33-.74,.35-.28,.01-.58-.09-.8-.29-.22-.2-.34-.5-.34-.8,0-.3,.13-.6,.34-.8,.22-.2,.51-.31,.8-.29,.29,.01,.56,.14,.74,.35,.19,.2,.3,.47,.29,.74m0,0c0-.27-.12-.54-.31-.72-.2-.18-.46-.27-.72-.26-.53,.02-.94,.49-.93,.98-.01,.49,.4,.96,.93,.98,.26,.01,.52-.08,.72-.26,.2-.18,.31-.45,.31-.72"/><path class="cls-14" d="M93.88,42.78s-3.02,1.98-2.86,4.18c.16,2.2-.16,17.02-.16,17.02h7.6c.3,0,.53-.24,.53-.54-.01-2.06-.02-9.47,.49-11.4,.59-2.25,.64-6.58-.75-7.6-1.39-1.02-3.75-.96-4.84-1.66"/><path class="cls-16" d="M90.95,58.6s6.95-.47,8.09-.79l-8.1,1.55v-.76Z"/><path class="cls-16" d="M91.33,63.02c.59-.04,1.18-.07,1.77-.08,.59-.02,1.18-.02,1.77-.02,.59,0,1.18,0,1.77,.02l.88,.03c.29,.02,.59,.03,.88,.05-.29,.02-.59,.03-.88,.05l-.88,.03c-.59,.02-1.18,.02-1.77,.02-.59,0-1.18,0-1.77-.02-.59-.02-1.18-.04-1.77-.08"/><path class="cls-17" d="M89.53,55.8c-.37,.14-.61,.23-.71,.26-.03,.01-.05,.02-.05,.02l.57,1.5s0,0,0,0c.15,.03,.31,.06,.46,.09-.1-.62-.19-1.25-.28-1.87"/><path class="cls-10" d="M89.6,57.33s-1.84,2.17-2.82,2.6c-.06,.03-.12-.02-.1-.08,.03-.14,.18-.4,.7-.89,0,0-1.34,.74-1.6,.68-.26-.07,1.3-1.23,1.3-1.23,0,0-1.59,.69-1.78,.54-.19-.15,1.49-1.13,1.49-1.13,0,0-1.68,.62-1.7,.48-.07-.34,2.27-1.26,2.15-1.49-.11-.19-.72-.19-1.04-.14-.07,.01-.12-.03-.12-.1,0-.13,.06-.32,.39-.4,.51-.12,1.61-.36,2.9-.02l.25,1.17Z"/><path class="cls-14" d="M98.88,44.66s5.19,7.55,5.35,9.37c.16,1.82-.27,2.89-4.98,3.75-4.71,.86-9.64,.86-9.64,.86l-.59-3.05,7.28-2.84s-3-4.39-2.89-5.35c.11-.96,5.46-2.73,5.46-2.73"/><path class="cls-16" d="M94.69,49.06c.2,.3,.39,.6,.59,.91,.2,.3,.38,.61,.58,.91,.19,.31,.39,.61,.57,.92l.56,.92,.06,.11-.12,.04c-.49,.17-.97,.34-1.46,.49l-1.47,.48c-.98,.31-1.96,.62-2.96,.9,.96-.38,1.93-.72,2.9-1.07l1.46-.5c.49-.17,.98-.33,1.46-.49l-.05,.15-.55-.93c-.18-.31-.36-.63-.54-.94-.18-.31-.36-.62-.53-.94-.17-.32-.35-.63-.52-.95"/><path class="cls-16" d="M94.04,47.42c-.09-.3-.12-.62-.12-.94,0-.32,.06-.64,.16-.95,.11-.31,.27-.6,.49-.84,.21-.25,.51-.41,.8-.52-.25,.19-.49,.38-.67,.63-.18,.24-.32,.51-.41,.8-.1,.29-.15,.59-.19,.89-.03,.3-.05,.61-.05,.93"/><path class="cls-10" d="M95.33,37.32c-.12-.38-.52-.68-.92-.58-.03,0-.07,.02-.12,.05,.05-1.31-.14-2.75-1.05-3.54-1.96-1.71-4.78-1.11-5.38,.43-.68,1.76-.72,3.93-.7,5.79,0,.24,.01,.49,.09,.72,.31,.88,1.57,1.43,2.42,1.6,1.09,.23,2.19-.06,3.05-.77,.68-.57,1.12-1.36,1.31-2.23,.19,.02,.47-.03,.53-.05,.25-.09,.48-.3,.62-.52,.17-.26,.23-.6,.14-.9"/><path class="cls-16" d="M88.6,36.75c0,.28-.11,.52-.25,.52s-.25-.23-.25-.52,.11-.52,.25-.52,.25,.23,.25,.52"/><path class="cls-16" d="M90.27,36.75c0,.28,.11,.52,.25,.52s.25-.23,.25-.52-.11-.52-.25-.52-.25,.23-.25,.52"/><path class="cls-16" d="M88.49,38.32c.09,.17,.22,.32,.38,.43,.16,.12,.36,.19,.56,.19,.2,0,.4-.07,.56-.19,.08-.05,.15-.13,.22-.19,.06-.08,.12-.15,.17-.23-.08,.06-.15,.12-.22,.18-.08,.05-.15,.11-.23,.15-.16,.09-.33,.14-.5,.14-.17,0-.34-.05-.5-.13-.16-.09-.31-.2-.44-.33"/><path class="cls-16" d="M89.17,39.23c.07,.06,.17,.09,.27,.09,.1,0,.19-.03,.27-.09-.09,.02-.18,.03-.27,.03-.09,0-.17-.01-.27-.03"/><path class="cls-16" d="M90.06,34.96c.12-.1,.25-.14,.39-.14,.14,0,.28,.01,.42,.06,.14,.04,.26,.12,.37,.21,.11,.09,.19,.21,.25,.32,.03,.06,.01,.13-.05,.16-.05,.03-.1,.02-.14-.02h0c-.08-.08-.16-.16-.25-.21-.08-.06-.18-.09-.27-.11-.1-.02-.2-.03-.3-.03-.1,0-.21,0-.32-.02h-.03c-.07-.02-.11-.09-.09-.16,0-.03,.02-.05,.04-.06"/><path class="cls-16" d="M88.81,34.96c-.12-.1-.25-.14-.39-.14-.14,0-.28,.01-.42,.06-.14,.04-.26,.12-.37,.21-.11,.09-.19,.21-.25,.32-.03,.06-.01,.13,.05,.16,.05,.03,.1,.02,.14-.02h0c.08-.08,.16-.16,.25-.21,.08-.06,.18-.09,.27-.11,.1-.02,.2-.03,.3-.03,.1,0,.21,0,.32-.02h.03c.07-.02,.11-.09,.09-.16,0-.03-.02-.05-.04-.06"/><path class="cls-16" d="M88.93,35.92c-.04,.19-.08,.39-.11,.58-.04,.19-.07,.38-.13,.56-.01,.05-.03,.09-.04,.13-.01,.04-.04,.1-.04,.17,0,.13,.08,.25,.18,.31,.11,.06,.23,.05,.33,.02,.1-.04,.19-.09,.26-.16-.18,.07-.39,.12-.52,.02-.06-.05-.1-.11-.09-.18,0-.04,.01-.06,.04-.11,.02-.05,.04-.1,.05-.15,.06-.2,.08-.39,.09-.59,.01-.2,0-.4-.02-.59"/><path class="cls-16" d="M95.03,37.55c0-.12-.03-.25-.13-.34-.11-.09-.27-.08-.39-.04-.13,.04-.23,.13-.31,.23-.08,.1-.15,.21-.2,.33-.02,.04,0,.09,.05,.11,.03,.01,.07,0,.09-.02h0c.08-.09,.19-.18,.29-.21,.05-.01,.09-.01,.12,.01,.04,.03,.06,.08,.09,.13,.04,.11,.07,.25-.03,.3-.1,.06-.25,.04-.38,.03,.12,.05,.26,.1,.42,.06,.08-.03,.14-.12,.15-.2,0-.08,0-.16-.02-.23-.02-.07-.05-.15-.12-.21-.07-.06-.18-.08-.26-.05-.16,.05-.27,.14-.38,.25l.15,.09c.08-.2,.21-.4,.4-.5,.09-.04,.2-.07,.29-.02,.09,.05,.15,.16,.18,.28"/><path class="cls-16" d="M95.6,36.4c-.13-.97-.61-1.98-1.45-2.49,.13-.7-.33-1.4-.95-1.75-.62-.35-1.36-.4-2.07-.38-.71,.02-1.42,.1-2.12,0-.37-.06-.75-.17-1.12-.12-.61,.07-1.11,.54-1.39,1.08-.35,.68-.42,1.5-.19,2.23,.22,.68,.69,1.29,.91,1.95,.03-.38,.07-.76,.12-1.14,.07-.02,.13-.06,.19-.1,.39-.26,.68-.65,1.1-.86,.56-.28,1.22-.18,1.84-.08,.62,.1,1.32,.18,1.86-.14-.19,.67-.05,1.42,.37,1.98,.17,.22,.38,.43,.43,.71,.02,.12,0,.24,0,.37,0,.12,.05,.25,.15,.32,.12,.08,.29,.05,.41-.05,.11-.09,.18-.23,.25-.36,.14-.27,.27-.54,.41-.82,.03-.01,.05-.02,.07-.02,.4-.1,.8,.2,.92,.58,.1,.3,.03,.64-.14,.9-.14,.22-.37,.42-.62,.52-.06,.02-.33,.07-.53,.05-.02,.13-.06,.38-.11,.71,.43-.38,.92-.72,1.24-1.19,.38-.55,.51-1.25,.42-1.91"/></g></g></svg>