<?xml version="1.0" encoding="UTF-8"?><svg id="Capa_1" xmlns="http://www.w3.org/2000/svg" viewBox="0 0 60 60"><defs><style>.cls-1{fill:#dec9a3;fill-rule:evenodd;}</style></defs><path class="cls-1" d="M1.32,30.34c0,15.86,12.9,28.88,28.71,28.88s28.97-12.98,28.97-28.88S46.06,1.47,30.27,1.46C14.27,1.44,1.32,14.34,1.32,30.34m25.22-14.23c3.47-.76,9.81-.46,12.25,1.39,2.7,2.04,4.26,6.35,2.05,10.18-1.9,3.3-7.23,4.85-7.9,6.31-.56,1.21-.26,1.63-1.33,2.26-2.79,1.63-5.26-1.72-3.96-5.17,1.17-3.11,10.63-4.1,8.46-8.5-.44-.89-1.13-1.16-2.46-1.22-1.41-.06-5.77-.18-6.76,.3-1.84,.9-.61,3.52-2.68,4.53-5.06,2.46-6.27-8.21,2.33-10.09Zm2.35,23.59c4.54-1.76,6.78,4.65,2.87,6.57-4.46,2.18-7.64-4.72-2.87-6.57Z"/></svg>