<?xml version="1.0" encoding="UTF-8"?><svg id="Capa_1" xmlns="http://www.w3.org/2000/svg" viewBox="0 0 26 25"><defs><style>.cls-1{fill:#bc955c;fill-rule:evenodd;}</style></defs><path class="cls-1" d="M17.4,7.5l6.8,1c.56,.08,1.04,.48,1.22,1.02,.18,.55,.03,1.15-.38,1.55l-4.93,4.84,1.16,6.94c.09,.57-.14,1.14-.61,1.48-.47,.34-1.09,.38-1.6,.11l-6.08-3.24-6.07,3.24c-.51,.27-1.13,.23-1.6-.11-.47-.34-.71-.91-.61-1.48l1.16-6.94L.95,11.08c-.41-.41-.55-1-.37-1.55,.18-.54,.65-.94,1.22-1.02l6.8-1L11.64,1.23c.25-.52,.78-.85,1.36-.85s1.11,.33,1.36,.85l3.04,6.26Z"/></svg>