<?xml version="1.0" encoding="UTF-8"?><svg id="Capa_1" xmlns="http://www.w3.org/2000/svg" viewBox="0 0 26 25"><defs><style>.cls-1{fill:#98989a;}</style></defs><path class="cls-1" d="M19.53,24.64c-.31,0-.62-.08-.91-.23l-5.62-3-5.61,3c-.66,.35-1.44,.29-2.05-.14-.6-.43-.9-1.18-.78-1.9l1.08-6.42L1.08,11.47c-.53-.52-.71-1.28-.48-1.99,.23-.69,.84-1.21,1.56-1.31l6.28-.93L11.26,1.46c.32-.66,1-1.09,1.74-1.09s1.43,.43,1.75,1.09l2.81,5.79,6.29,.93c.71,.1,1.33,.61,1.56,1.31,.23,.71,.05,1.46-.48,1.99l-4.57,4.48,1.08,6.43c.12,.74-.18,1.46-.78,1.9-.34,.24-.73,.37-1.13,.37ZM13,1.33c-.37,0-.71,.22-.87,.55l-3.04,6.25-6.79,1c-.36,.05-.67,.31-.78,.66-.12,.35-.02,.74,.24,1l4.92,4.82-1.16,6.92c-.06,.37,.09,.74,.39,.95,.3,.22,.7,.24,1.03,.07l6.06-3.24,6.07,3.24c.32,.17,.73,.14,1.03-.07,.3-.22,.45-.58,.39-.95l-1.16-6.92,4.92-4.83c.26-.26,.36-.65,.24-1-.11-.35-.42-.6-.78-.65l-6.79-1L13.88,1.88c-.16-.33-.51-.55-.88-.55Z"/></svg>