<?xml version="1.0" encoding="UTF-8"?><svg id="Capa_1" xmlns="http://www.w3.org/2000/svg" xmlns:xlink="http://www.w3.org/1999/xlink" viewBox="0 0 97 99"><defs><style>.cls-1{fill:none;}.cls-2{clip-path:url(#clippath);}.cls-3{fill:#f9b59c;}.cls-4{fill:#691c20;}.cls-5{fill:#f69576;}.cls-6{fill:#fefefe;}.cls-7{fill:#e5e6e5;}.cls-8{fill:#efefef;}.cls-9{fill:#9a5450;}.cls-10{fill:#ba6a45;}.cls-11{fill:#9f2241;}.cls-12{fill:#33484e;}.cls-13{fill:#ddc9a3;}.cls-14{fill:#cc7f5c;}.cls-15{fill:#d9dad9;}.cls-16{fill:#10312b;}.cls-17{fill:#235b4e;}.cls-18{fill:#42616a;}.cls-19{fill:#2c3c43;}.cls-20{fill:#273035;}.cls-21{clip-path:url(#clippath-1);}.cls-22{clip-path:url(#clippath-2);}</style><clipPath id="clippath"><rect class="cls-1" width="97" height="99"/></clipPath><clipPath id="clippath-1"><path class="cls-1" d="M68.78,28.02l2.57,15.85c.48,2.96,2.4,5.82,7.05,4.85,3.97-1.15,3.67-4,3.16-7.52,0,0,.01,.14,0,0,0,0,4.36-1.13,3.97-5.57-.19-2.14-.94-6.53-1.66-10.49-.78-4.25-4.69-7.19-8.99-6.76l-.43,.04c-4.58,.73-6.52,5.04-5.66,9.6"/></clipPath><clipPath id="clippath-2"><path class="cls-1" d="M49.34,48.38c.01-1.89,.03-3.21,.03-3.2,0,0-3.4-.78-4.09-5.64-.34-2.41-.52-6.25-.26-9.47,.23-2.9,2.22-6.43,5.11-6.07l8.99,2.44c.88,.11,1.17,.86,1.14,1.74l.07,.42-.66,13.85,.28,5.89c-.11,2.63-2.72,5.03-5.35,5.15-2.91,.13-5.28-2.18-5.26-5.1"/></clipPath></defs><g class="cls-2"><rect class="cls-11" width="97" height="99"/><path class="cls-13" d="M30.56,62.17c.46,11.56,7.68,23.28,18.8,26.48,9.67,2.78,19.89-1.06,29.12-5.09,9.22-4.02,19.07-8.39,28.98-6.64,8.95,1.59,16.19,7.87,23.69,13.01,7.5,5.14,16.88,9.42,25.45,6.4,4.85-1.71,8.69-5.59,11.34-9.99,6.34-10.55,6.12-24.69-.54-35.04-6.66-10.35-19.44-16.41-31.67-15.02-4.86,.55-9.73,2.18-14.54,1.33-6.84-1.21-11.74-7.01-17.19-11.33-9.1-7.21-21.04-10.73-32.6-9.6-17.36,1.7-31.8,13.01-37.95,29.12-1.99,5.21-3.11,10.77-2.89,16.36"/><path class="cls-13" d="M94.74,0c-4.34,1.66-8.2,4.55-11.02,8.25-1.46,1.92-3.11,4.31-5.52,4.19-2.82-.14-4.27-3.62-6.91-4.62-4-1.53-8.11,3.23-12.31,2.41-4.47-.88-6.07-7.39-10.55-8.21-1.67-.3-3.38,.29-5.07,.16C42.03,2.08,40.6,1.16,40.29,0h54.44Z"/><rect class="cls-15" x="53.91" y="26.16" width="1.81" height="6.71"/><polygon class="cls-15" points="41.49 85.64 41.49 99.48 48 99.48 48 94.7 46.18 94.7 46.18 93.75 48 93.78 48 92.22 48.82 92.22 48.8 91.41 47.85 91.39 47.85 85.61 41.49 85.64"/><path class="cls-15" d="M45.45,76.78s-2.26,.04-5.04,.04-5.04-.02-5.04-.04,2.26-.04,5.04-.04,5.04,.02,5.04,.04"/><polygon class="cls-15" points="43.73 72.55 43.73 85.68 49.9 85.68 49.9 81.15 48.18 81.15 48.18 80.24 49.9 80.27 49.9 78.79 50.68 78.79 50.66 78.03 49.75 78.01 49.75 72.53 43.73 72.55"/><path class="cls-8" d="M69.35,74.46s0,.01,.02,.04c.02,.03,.04,.06,.07,.1,.07,.09,.17,.21,.29,.37v.02s.03-.02,.03-.02c.18-.25,.42-.59,.71-.98h-.04c.21,.3,.45,.63,.7,.99l.02,.03,.02-.03c.26-.31,.54-.64,.83-.99h-.05s.03,.04,.05,.06c.26,.32,.51,.64,.74,.93l.02,.03,.02-.03c.25-.36,.49-.69,.7-.99h-.04c.35,.4,.64,.73,.86,.99l.02,.02v-.02c.13-.19,.22-.34,.28-.45,.03-.05,.05-.09,.07-.12,.02-.03,.02-.04,.02-.04,0,0-.01,.01-.03,.04-.02,.03-.05,.07-.08,.12-.07,.11-.16,.26-.28,.45h.03c-.22-.26-.51-.6-.85-1l-.02-.03-.02,.03c-.21,.3-.45,.63-.71,.99h.05c-.24-.3-.48-.61-.74-.93-.02-.02-.03-.04-.05-.06l-.02-.03-.02,.03c-.29,.35-.57,.68-.83,.99h.05c-.26-.35-.49-.69-.71-.98l-.02-.03-.02,.03c-.28,.4-.52,.74-.7,.99h.03c-.13-.15-.23-.27-.3-.36-.03-.04-.06-.07-.08-.09-.02-.02-.03-.03-.03-.03"/><path class="cls-8" d="M69.19,73.17s1.25,.03,2.78,.03,2.78-.01,2.78-.03-1.24-.03-2.78-.03-2.78,.01-2.78,.03"/><path class="cls-19" d="M70.26,20.26c.09-1.6,1.08-2.59,2.46-3.41,1.38-.82,3.18-.9,4.63-.21,.97,.46,1.82,1.25,2.89,1.39,1.76,.23,3.42-1.4,5.14-.99,1.02,.24,1.8,1.26,1.76,2.31-.04,1.05-.89,2.01-1.93,2.17,1.15,.17,1.8,1.62,1.38,2.7-.43,1.08-1.63,1.71-2.79,1.73-1.16,.03-2.28-.45-3.28-1.03-1.01-.58-1.94-1.28-2.99-1.79-1.05-.5-2.25-.79-3.38-.5-1.52,.4-2.6,1.84-2.99,3.36-.4,1.52-.23,3.13,.01,4.68,.24,1.56,.54,3.12,.39,4.69-.02,.18-.06,.39-.22,.48-.23,.13-.5-.09-.67-.3-1.94-2.3-3.42-4.99-4.34-7.86-.53-1.67-.82-3.29-.19-4.92,.64-1.63,2.78-3.18,4.13-2.52"/><path class="cls-3" d="M68.78,28.02l2.57,15.85c.48,2.96,2.4,5.82,7.05,4.85,3.97-1.15,3.67-4,3.16-7.52,0,0,.01,.14,0,0,0,0,4.36-1.13,3.97-5.57-.19-2.14-.94-6.53-1.66-10.49-.78-4.25-4.69-7.19-8.99-6.76l-.43,.04c-4.58,.73-6.52,5.04-5.66,9.6"/><g class="cls-21"><path class="cls-5" d="M81.56,33.39c0,1.22,.99,2.21,2.21,2.21s2.21-.99,2.21-2.21-.99-2.21-2.21-2.21-2.21,.99-2.21,2.21"/></g><path class="cls-5" d="M81.55,41.2s-2.78,.44-5.94-1.13c0,0,1.74,3.3,6.12,2.45l-.18-1.33Z"/><path class="cls-19" d="M79.43,33.01s.41-.15,1.09-.31c.17-.03,.33-.09,.35-.21,.03-.13-.06-.31-.17-.5-.21-.4-.42-.83-.65-1.27-.9-1.81-1.58-3.31-1.5-3.35,.07-.04,.87,1.41,1.77,3.22,.22,.45,.43,.87,.63,1.28,.09,.19,.22,.4,.16,.67-.03,.13-.15,.24-.26,.28-.11,.05-.21,.06-.29,.07-.69,.11-1.11,.15-1.12,.11"/><path class="cls-3" d="M69.47,31.26c-.08-.03-3.14-.59-2.73,2.43,.4,3.02,3.35,1.99,3.34,1.91,0-.09-.61-4.33-.61-4.33"/><path class="cls-5" d="M69.01,34.57s-.05,.04-.13,.1c-.08,.05-.23,.1-.39,.06-.33-.07-.67-.55-.76-1.09-.04-.27-.02-.54,.05-.77,.06-.23,.18-.41,.34-.46,.15-.06,.28,.02,.33,.1,.05,.08,.04,.14,.06,.14,0,0,.06-.06,.02-.18-.02-.06-.07-.12-.14-.17-.08-.05-.19-.07-.3-.04-.23,.05-.41,.29-.49,.54-.09,.26-.12,.56-.07,.87,.1,.61,.49,1.13,.94,1.2,.22,.03,.39-.06,.47-.14,.08-.09,.09-.16,.08-.16"/><path class="cls-19" d="M83.5,21c-.48-.83-1.26-1.46-2.08-1.96-1.77-1.08-3.87-1.65-5.93-1.47-2.06,.18-4.08,1.12-5.43,2.7-1.08,1.26-1.7,2.87-1.9,4.52-.2,1.65,.01,3.32,.47,4.92,.2,.7,.47,1.42,1.02,1.89,.35,.3,.9,.46,1.23,.15,.2-.18,.24-.47,.28-.73,.35-2.4,.67-4.97-.41-7.13,.5-.81,1.11-1.58,1.89-2.13,.79-.54,1.78-.84,2.72-.65,1.39,.28,2.36,1.51,3.53,2.32,1.67,1.15,3.92,1.42,5.81,.71l-1.21-3.12Z"/><path class="cls-18" d="M86.38,17.65s.03,.07,.06,.2c.02,.13,.05,.34,.02,.6-.05,.51-.35,1.27-1.1,1.86-.74,.59-1.92,.83-3.13,.64-1.23-.17-2.45-.76-3.73-1.28-1.28-.53-2.6-.88-3.78-.67-1.18,.2-2.09,.88-2.69,1.54-.61,.67-.95,1.34-1.15,1.8-.19,.47-.26,.75-.28,.74,0,0,0-.07,.04-.2,.03-.13,.09-.32,.17-.57,.18-.48,.51-1.17,1.12-1.87,.6-.69,1.53-1.41,2.77-1.63,1.23-.24,2.59,.13,3.88,.66,1.29,.53,2.5,1.12,3.69,1.29,1.18,.19,2.3-.03,3.02-.57,.73-.54,1.03-1.26,1.1-1.75,.08-.5-.03-.78,0-.78"/><path class="cls-18" d="M66.55,26.85s-.02-.33,.12-.84c.13-.5,.42-1.19,.92-1.82,.24-.32,.52-.59,.79-.81,.27-.22,.56-.39,.83-.43,.27-.05,.5,0,.63,.07,.14,.07,.19,.14,.18,.15,0,.03-.29-.21-.78-.08-.48,.12-1.01,.63-1.49,1.23-.48,.61-.78,1.26-.94,1.74-.17,.48-.22,.8-.25,.79"/><path class="cls-18" d="M67.35,29.47s0-.33,.17-.83c.16-.5,.49-1.17,1.01-1.79,.52-.62,1.12-1.06,1.58-1.31,.46-.25,.78-.34,.79-.32,.01,.03-.28,.16-.72,.44-.43,.27-1,.72-1.5,1.31-.5,.6-.84,1.23-1.03,1.71-.19,.48-.27,.79-.3,.78"/><path class="cls-18" d="M83.62,46.57s3.24,4.18,4.02,5.75c.78,1.57,6.36,18.91,6.36,18.91l-2.42,1.02-7.96-25.68Z"/><polygon class="cls-7" points="70.59 42.66 70.59 40.57 82.36 44.4 85.51 49.44 87.94 56.49 81.13 46.25 70.59 42.66"/><path class="cls-16" d="M69.89,44.68s-4.99,5.97-4.89,9.86c.11,3.82,5.29,27.06,5.29,27.06l-1.26,4.15-1.36,13.84h28.29l-1.97-28.36c-.31-.02-6.2-16.25-6.2-16.25l-6.58-9.14-10.84-3.9-.49,2.74Z"/><path class="cls-17" d="M91.45,64.48s1.98-.08,3.01,.38c1.03,.46,1.91,.23,2.64,1.66,.73,1.43,1.58,2.08,1.76,4.24,.18,2.17-2.16,7.19-3.71,7.89-1.55,.71-3.71-14.18-3.71-14.18"/><path class="cls-17" d="M85.94,83.91s-.05,0-.08,0c-1.81-.12-2.03-6.69-3.5-7.73-1.47-1.04-13.04-11.9-13.04-11.9l6.82-.99,17.4,16.39s-5.71,4.22-7.61,4.22"/><path class="cls-3" d="M85.61,74s-2.52,3.22-2.8,4.03c-.29,.81-.57,1.34-.26,1.61,.31,.27,.57,.3,.88,.18,.41-.16,2.43-2.82,2.43-2.82,0,0-2.68,3.83-2.8,4.49-.12,.66,.4,.98,1.02,.86,.62-.11,1.79-1.84,1.79-1.84,0,0-1.66,1.92-1.31,2.25,.35,.33,.75,.36,1.21,.13,.46-.23,1.63-1.75,1.63-1.75,0,0-.81,.86-.36,1.08,.44,.21,.48,.23,.86-.08,.38-.32,3.78-3.64,3.78-3.64l-2.14-1.46-3.92-3.03Z"/><path class="cls-5" d="M86.64,75.97s-.14,.21-.39,.54c-.27,.35-.61,.79-.98,1.28-.39,.5-.75,.94-1.02,1.25-.27,.31-.45,.49-.46,.48-.01-.01,.15-.21,.4-.53,.27-.35,.61-.79,.99-1.27,.39-.5,.74-.94,1.01-1.26,.27-.31,.44-.5,.46-.49"/><path class="cls-5" d="M88.42,77.51s-.58,.77-1.34,1.67c-.76,.9-1.4,1.62-1.43,1.6-.02-.02,.58-.77,1.34-1.67,.76-.9,1.4-1.62,1.43-1.6"/><path class="cls-5" d="M89.85,78.48s-.61,.74-1.41,1.62c-.8,.87-1.46,1.56-1.49,1.54-.02-.02,.61-.74,1.41-1.62,.8-.87,1.46-1.56,1.49-1.54"/><path class="cls-16" d="M71.42,48.39c1.62-.34,3.69-.49,5.26,.4l8.58,7.74s12.1,13.57,12.57,14.33c.47,.76,1.11,5.22-.72,7.5-1.83,2.28-3.89,1.4-6.24,.86-1.86-.42-14.87-9.98-20.21-13.95-1.85-1.37-3.21-3.32-3.8-5.54-.36-1.33-.59-2.88-.43-4.41l4.99-6.93Z"/><path class="cls-19" d="M66.43,55.32s0,.08-.01,.22c-.01,.15-.02,.37-.02,.65,0,.57,.04,1.43,.25,2.5,.11,.53,.25,1.13,.47,1.75,.22,.63,.53,1.28,.94,1.94,.41,.66,.92,1.32,1.55,1.93,.62,.62,1.4,1.15,2.18,1.73,3.15,2.32,6.91,5.08,11.14,8.06,1.06,.74,2.15,1.5,3.27,2.26,1.12,.75,2.27,1.52,3.49,2.23,.31,.17,.61,.35,.94,.48,.16,.07,.32,.11,.5,.15l.52,.13c.69,.17,1.39,.35,2.11,.42,.71,.06,1.46-.02,2.09-.38,.63-.35,1.17-.9,1.55-1.52,.62-1.07,.84-2.31,.88-3.51,.02-.6,0-1.21-.07-1.8-.04-.3-.08-.59-.15-.88-.07-.28-.13-.58-.29-.82-.35-.46-.75-.91-1.12-1.35-.38-.44-.76-.88-1.14-1.31-.76-.86-1.5-1.71-2.23-2.55-2.94-3.32-5.65-6.38-8.05-9.09h0c-3.55-3.21-6.47-5.85-8.57-7.75h0c-.76-.42-1.54-.57-2.2-.64-.66-.06-1.23-.03-1.68,.02-.45,.04-.79,.1-1.02,.14-.11,.02-.2,.04-.26,.05-.06,.01-.09,.01-.09,.01,0,0,.11-.03,.34-.08,.23-.04,.57-.11,1.02-.15,.45-.05,1.02-.08,1.69-.03,.66,.06,1.45,.21,2.22,.64h0s0,0,0,0c2.1,1.89,5.04,4.53,8.59,7.73h0s0,0,0,0c2.41,2.7,5.13,5.76,8.06,9.08,.73,.83,1.48,1.68,2.23,2.54,.38,.43,.76,.87,1.14,1.31,.38,.45,.77,.88,1.13,1.36,.05,.06,.07,.14,.11,.2,.03,.07,.05,.14,.08,.21,.05,.14,.08,.29,.12,.44,.06,.29,.11,.59,.15,.89,.07,.6,.1,1.21,.08,1.82-.04,1.21-.27,2.47-.9,3.56-.4,.64-.93,1.2-1.59,1.56-.66,.38-1.43,.46-2.16,.4-.73-.07-1.44-.25-2.13-.42l-.52-.13c-.17-.04-.35-.08-.52-.16-.33-.14-.64-.31-.95-.49-1.22-.71-2.37-1.48-3.49-2.23-1.12-.76-2.21-1.52-3.27-2.26-4.23-2.98-7.98-5.75-11.13-8.08-.78-.59-1.56-1.12-2.18-1.75-.63-.62-1.15-1.28-1.56-1.95-.41-.67-.72-1.33-.93-1.96-.22-.63-.36-1.23-.46-1.76-.21-1.08-.24-1.93-.23-2.51,.01-.58,.06-.88,.06-.88"/><path class="cls-19" d="M88.19,55.98s-.02,0-.05-.03c-.04-.03-.08-.06-.14-.1-.12-.09-.3-.22-.51-.41-.44-.36-1.05-.92-1.77-1.63-.72-.71-1.56-1.58-2.51-2.53-.48-.47-.98-.96-1.53-1.44-.55-.48-1.13-.96-1.77-1.39-.26-.19-.54-.33-.81-.49l-.04-.02v-.04c.05-.19,.1-.39,.14-.57l.04,.06c-2.61-.82-4.91-1.55-6.57-2.07-.82-.26-1.48-.47-1.95-.62-.22-.07-.4-.13-.52-.17-.05-.02-.1-.03-.13-.05-.03-.01-.05-.02-.04-.02,0,0,.02,0,.05,0,.04,.01,.08,.02,.14,.04,.13,.04,.3,.09,.53,.15,.47,.14,1.13,.34,1.96,.59,1.67,.51,3.97,1.23,6.58,2.03l.05,.02v.05c-.05,.19-.1,.38-.14,.57l-.03-.06c.27,.16,.55,.31,.81,.5,.65,.43,1.24,.91,1.78,1.4,.55,.48,1.05,.98,1.53,1.45,.95,.95,1.78,1.83,2.5,2.54,.72,.72,1.31,1.28,1.74,1.65,.21,.19,.39,.32,.5,.42,.05,.04,.1,.08,.13,.11,.03,.02,.04,.04,.04,.04"/><path class="cls-19" d="M92.43,64.72s-.09-.15-.24-.44c-.15-.3-.36-.72-.62-1.23-.52-1.04-1.22-2.48-1.99-4.07-.77-1.59-1.46-3.04-1.96-4.09-.24-.52-.44-.94-.58-1.24-.06-.14-.11-.25-.15-.34-.03-.08-.05-.12-.05-.12,0,0,.03,.04,.07,.11,.04,.09,.1,.2,.17,.33,.15,.3,.36,.72,.61,1.23,.51,1.05,1.22,2.49,1.99,4.07,.76,1.59,1.46,3.03,1.96,4.08,.24,.51,.44,.94,.59,1.24,.14,.29,.21,.46,.2,.46"/><path class="cls-19" d="M72.44,88.14s.03,0,.08,0c.05,0,.13,0,.22,.02,.2,.02,.48,.04,.84,.07,.74,.06,1.8,.16,3.12,.27,2.65,.24,6.34,.57,10.52,.94l-.06,.07c-.22-.88-.45-1.8-.68-2.74-.11-.43-.21-.86-.31-1.27l.05,.04c-4.7-.55-8.88-1.03-11.79-1.37l.04-.02c-.69,1.23-1.23,2.22-1.57,2.9-.17,.34-.3,.61-.38,.8-.04,.09-.06,.16-.07,.21-.01,.05,0,.07-.01,.08,0,0-.01-.11,.07-.3,.07-.19,.19-.46,.36-.81,.34-.69,.86-1.69,1.55-2.92v-.02s.04,0,.04,0c2.9,.33,7.08,.8,11.79,1.33h.04s0,.04,0,.04c.1,.42,.21,.84,.32,1.27,.23,.94,.46,1.86,.68,2.74l.02,.08h-.08c-4.2-.4-7.9-.75-10.55-.99-1.32-.13-2.37-.23-3.11-.3-.36-.04-.64-.06-.83-.08-.09-.01-.16-.02-.21-.02-.05,0-.07,0-.07-.01"/><path class="cls-12" d="M87.22,90.32l-13.9-.83-.5-1.31c.19,.02,.43,.04,.73,.07,.73,.07,1.79,.17,3.11,.3,2.66,.25,6.35,.59,10.55,.99h0v.77Z"/><path class="cls-17" d="M87.22,89.55h0c-4.2-.39-7.9-.74-10.55-.99-1.32-.13-2.37-.23-3.11-.3-.3-.03-.54-.06-.73-.07h0s14.4,1.31,14.4,1.31v.06Z"/><path class="cls-19" d="M53.72,21.96c-.04-.74-.66-1.37-1.37-1.59-.71-.22-1.48-.11-2.19,.12-1.54,.51-2.83,1.56-4.09,2.58-1.95,1.59-3.84,3.78-4.59,6.18-.56,1.81-.72,2.99-.15,4.92,.51,1.7,.91,3.36,.81,4.78-.16,2.25-.43,2.78-1.01,4.99-.36,1.38,.87,5,.87,5l7.79-2.98c2.78-1.31,8.77-3.75,8.77-3.75l-4.85-20.26Z"/><path class="cls-14" d="M49.34,48.38c.01-1.89,.03-3.21,.03-3.2,0,0-3.4-.78-4.09-5.64-.34-2.41-.52-6.25-.26-9.47,.23-2.9,2.22-6.43,5.11-6.07l8.99,2.44c.88,.11,1.17,.86,1.14,1.74l.07,.42-.66,13.85,.28,5.89c-.11,2.63-2.72,5.03-5.35,5.15-2.91,.13-5.28-2.18-5.26-5.1"/><g class="cls-22"><path class="cls-10" d="M42.89,37.96c0,1.22,.99,2.21,2.21,2.21s2.21-.99,2.21-2.21-.99-2.21-2.21-2.21-2.21,.99-2.21,2.21"/><path class="cls-19" d="M49.26,29.68c-.23-.32-.54-.49-.88-.58-.34-.09-.7-.13-1.06-.1-.36,.02-.71,.14-1.02,.31-.32,.15-.58,.4-.8,.65-.11,.12-.1,.32,.02,.43,.1,.09,.24,.1,.35,.04l.03-.02c.25-.14,.48-.27,.73-.34,.24-.09,.49-.11,.74-.12,.25,0,.5,.03,.75,.1,.25,.07,.51,.14,.8,.14h.08c.18,0,.32-.15,.32-.32,0-.07-.02-.13-.06-.18"/></g><path class="cls-19" d="M53.31,33.86c-.02,.33,.25,.61,.59,.64,.34,.02,.63-.22,.65-.55,.02-.33-.25-.61-.59-.64-.34-.02-.63,.22-.65,.55"/><path class="cls-19" d="M49.96,37.29s-.41-.12-1.08-.21c-.17-.02-.33-.06-.36-.17-.04-.12,.04-.31,.12-.5,.17-.41,.34-.84,.53-1.29,.73-1.84,1.27-3.35,1.19-3.38-.07-.03-.73,1.44-1.46,3.27-.18,.45-.34,.88-.51,1.3-.07,.19-.18,.41-.1,.67,.04,.13,.17,.22,.28,.25,.11,.04,.2,.04,.29,.05,.68,.05,1.1,.06,1.1,.02"/><path class="cls-10" d="M49.37,45.18s3.25,.27,6.51-1.62c0,0-1.69,3.39-6.53,2.85l.02-1.23Z"/><path class="cls-19" d="M44.9,35.66l-1-4.06c-.9-1.24-.2-3.27,.44-4.67,.64-1.4,1.86-2.46,3.21-3.19,1.35-.72,2.85-1.13,4.34-1.5-.55,1.81-1.95,3.56-3.58,4.51,0,0-2.47,1.69-2.92,3.68-.49,2.18-.5,5.21-.5,5.21"/><path class="cls-19" d="M50.52,24.82l7.06,4.24s.22,3.22,1.5,6.35c1.3-1.11,2.11,1.03,2.5-.62,.02-.09-.36,3.46-1.72,3.57l-.22,3.86,6.73-1.66s-.36-4.68-1.51-7.51c-.71-1.76-1.09-3.24-1.8-5.01-.53-1.34-1.48-3.34-2.2-4.29-1.53-2.05-7.19-2.14-7.19-2.14-2.5,.59-.82,.31-2.92,1.78l-.72,1.93,.49-.51Z"/><path class="cls-14" d="M59.09,35.38c0-1.02,1.09-1.76,2.01-1.3,.51,.25,.92,.79,.93,1.88,.04,2.89-2.92,2.33-2.93,2.25,0-.05-.01-1.63-.02-2.83"/><path class="cls-9" d="M59.99,37.1s.05,.03,.14,.07c.09,.04,.23,.06,.38,0,.31-.12,.56-.6,.57-1.12,0-.26-.06-.51-.15-.72-.09-.21-.23-.36-.39-.38-.16-.03-.27,.06-.3,.14-.04,.08-.02,.14-.03,.14,0,0-.06-.05-.04-.17,.01-.06,.04-.13,.11-.18,.07-.06,.17-.09,.28-.08,.23,.01,.43,.21,.54,.44,.12,.23,.19,.51,.19,.8-.01,.58-.31,1.13-.73,1.26-.21,.06-.38,0-.47-.07-.09-.07-.11-.13-.1-.14"/><path class="cls-13" d="M61.32,38.49c.02,.56-.42,1.02-.97,1.04-.56,.02-1.02-.42-1.04-.97-.02-.56,.42-1.02,.97-1.04,.56-.02,1.02,.42,1.04,.97"/><path class="cls-11" d="M42.83,67.33c-.24,.16-2.9,.81-3.55,2.5-.65,1.69-4.07,5.14-1.59,8.5l5.14-2.85v-8.15Z"/><path class="cls-19" d="M37.68,78.34h0c-.45-.61-.73-1.27-.84-1.95-.09-.6-.06-1.22,.11-1.89,.31-1.22,1-2.36,1.56-3.27,.33-.54,.62-1.01,.76-1.4,.53-1.39,2.4-2.07,3.2-2.36,.18-.06,.3-.11,.35-.14h0s0,8.16,0,8.16h0s-5.15,2.85-5.15,2.85Zm5.14-11c-.05,.03-.17,.08-.34,.14-.8,.29-2.67,.98-3.2,2.36-.15,.38-.43,.85-.77,1.4-.56,.91-1.25,2.05-1.55,3.27-.17,.67-.2,1.28-.11,1.88,.11,.68,.39,1.33,.84,1.94l5.13-2.85v-8.14Z"/><polygon class="cls-15" points="48.76 53.29 49.18 47.48 59.76 43.06 60.14 45.23 52.93 48.9 48.76 53.29"/><path class="cls-4" d="M60.14,43.95s-6.48,2.62-9.36,5.18c-2.7,2.41-8.33,11.91-8.93,14.5-.6,2.59-.48,9.76-.48,9.76,0,0-.01,7.39-.01,7.57s-4.64,12.11-3.79,18.61h26.44s.78-9.16-1.02-12.71c-1.81-3.55-1.87-2.83-1.87-2.83,0,0,1.08-1.2,.96-2.29-.12-1.08-.78-1.99-.78-1.99l4.64-14.46s.48-7.29-.78-12.17c-1.19-4.57-1.63-4.32-3.11-5.78-.02-.02-.01,0,0,0,0,0,.02,.02,0,0l-1.35-1.11-.55-2.3Z"/><path class="cls-4" d="M42.83,88.14c-.08-.31,2-4.01,2-4.01l11.95,2.01,.83,3.36-14.78-1.35Z"/><path class="cls-19" d="M42.83,88.14s.03,0,.08,0c.06,0,.13,0,.22,.02,.2,.02,.48,.04,.85,.07,.74,.06,1.8,.16,3.13,.27,2.65,.24,6.34,.57,10.52,.94l-.06,.07c-.2-.81-.41-1.67-.63-2.54-.07-.28-.14-.55-.2-.82l.04,.04c-4.76-.81-9.01-1.53-11.95-2.02l.04-.02c-.69,1.23-1.22,2.21-1.57,2.9-.17,.34-.3,.61-.38,.8-.04,.09-.06,.17-.07,.22-.01,.05,0,.07-.01,.08,0,0-.01-.11,.07-.3,.07-.19,.19-.46,.36-.81,.34-.7,.86-1.69,1.54-2.92v-.02s.04,0,.04,0c2.94,.49,7.19,1.2,11.95,1.99h.04s0,.04,0,.04c.07,.27,.13,.54,.2,.82,.22,.87,.43,1.72,.63,2.54l.02,.08h-.08c-4.19-.4-7.89-.74-10.55-.99-1.32-.13-2.38-.23-3.11-.3-.36-.04-.64-.06-.83-.08-.09-.01-.16-.02-.21-.02-.05,0-.07,0-.07-.01"/><path class="cls-11" d="M43.58,85.48c-1.09,0-2.16-.28-3.06-.91l-.11-.88c.02-.06,.04-.12,.06-.18,.02-.05,.03-.1,.05-.15,.32-.97,.58-1.7,.72-2.08,6.53-7.24,15.07-12.54,21.31-20.04-2.52,6.61-6.21,12.74-10.45,18.41-1.39,1.86-2.89,3.71-4.9,4.85-.86-.14-1.66-.28-2.38-.4h-.03s-.01,.02-.01,.02c-.27,.49-.52,.94-.74,1.35-.16,.01-.32,.02-.48,.02"/><path class="cls-4" d="M44.13,85.46c.21-.39,.45-.82,.71-1.29,.68,.12,1.44,.24,2.25,.38-.91,.5-1.94,.82-2.97,.9"/><path class="cls-11" d="M44.06,85.46c.22-.41,.47-.86,.74-1.35v-.02s.04,0,.04,0c.72,.12,1.52,.25,2.38,.4-.02,0-.03,.02-.05,.03-.02,.01-.04,.02-.06,.03-.82-.14-1.57-.27-2.25-.38-.26,.46-.5,.89-.71,1.29-.02,0-.05,0-.07,0"/><path class="cls-4" d="M61.61,50.07c2.22,1.77,4.15,7.29,.72,12.07,0,0-15.01,20.37-17.5,21.99-2.49,1.63-5.83,.67-6.79-1.72-.96-2.39-.57-4.69,.76-6.31,1.34-1.63,10.14-17.12,10.14-17.12,0,0,2.01-7.18,5.43-9.26l7.24,.35Z"/><path class="cls-4" d="M54.37,49.72s-.05,.04-.15,.11c-.11,.07-.25,.18-.44,.33-.38,.31-.89,.83-1.45,1.58-1.11,1.51-2.36,3.98-3.34,7.25h0s0,0,0,0c-1.93,3.4-4.34,7.63-7.14,12.37-.71,1.18-1.43,2.4-2.21,3.63-.2,.3-.39,.62-.62,.91-.11,.15-.22,.3-.33,.44-.11,.15-.21,.3-.31,.46-.19,.32-.34,.66-.47,1-.12,.35-.21,.72-.26,1.09-.1,.75-.07,1.52,.1,2.27,.04,.19,.09,.38,.15,.56,.05,.19,.12,.37,.19,.55,.07,.18,.16,.35,.24,.53l.16,.24c.05,.08,.1,.16,.17,.23,.49,.6,1.16,1.07,1.91,1.32,.75,.25,1.56,.33,2.36,.2,.73-.12,1.43-.4,2.02-.83,.57-.45,1.06-1.01,1.55-1.55,.97-1.09,1.88-2.2,2.77-3.29,1.78-2.2,3.45-4.35,5.03-6.4,1.58-2.06,3.07-4.02,4.46-5.87,.69-.92,1.36-1.82,2-2.67,.32-.43,.63-.85,.94-1.26,.3-.42,.62-.81,.87-1.23,.56-.81,.92-1.67,1.19-2.51,.06-.21,.12-.42,.17-.63,.06-.21,.08-.42,.12-.62,.09-.41,.09-.81,.13-1.2,.05-1.56-.27-2.89-.67-3.9-.4-1.02-.89-1.73-1.27-2.17-.1-.11-.17-.21-.25-.28-.08-.07-.15-.14-.2-.19-.11-.1-.16-.15-.16-.15,0,0,.06,.05,.17,.15,.06,.05,.12,.11,.21,.18,.08,.07,.16,.18,.26,.28,.38,.43,.88,1.14,1.29,2.17,.4,1.02,.73,2.35,.69,3.92-.03,.39-.04,.8-.12,1.21-.04,.21-.06,.42-.12,.63-.06,.21-.11,.42-.17,.63-.27,.84-.64,1.72-1.19,2.53-.26,.42-.57,.82-.87,1.23-.31,.41-.62,.83-.94,1.26-.64,.86-1.31,1.75-2,2.68-1.39,1.85-2.87,3.81-4.45,5.87-1.58,2.06-3.25,4.21-5.03,6.41-.89,1.1-1.8,2.21-2.78,3.3-.24,.27-.49,.54-.75,.81-.26,.26-.52,.53-.82,.76-.61,.44-1.32,.72-2.07,.85-.81,.13-1.65,.05-2.41-.21-.77-.25-1.46-.73-1.96-1.35-.07-.07-.12-.16-.18-.24l-.16-.25c-.08-.18-.18-.36-.25-.54-.07-.18-.14-.37-.19-.56-.06-.19-.11-.38-.15-.57-.17-.76-.2-1.55-.1-2.31,.05-.38,.15-.75,.27-1.11,.13-.36,.29-.7,.48-1.02,.1-.16,.2-.32,.31-.47,.12-.15,.23-.3,.33-.44,.22-.29,.41-.6,.61-.91,.78-1.23,1.51-2.44,2.21-3.63,2.81-4.74,5.23-8.97,7.17-12.36h0c1-3.28,2.26-5.74,3.38-7.25,.56-.75,1.08-1.27,1.47-1.57,.19-.15,.34-.26,.45-.32,.1-.07,.16-.1,.16-.1"/><path class="cls-19" d="M60.68,46.25s-.03,0-.07,.02c-.06,.01-.13,.03-.22,.06-.19,.05-.48,.12-.84,.23-.73,.21-1.78,.52-3.04,1.02-.31,.13-.64,.27-.97,.42-.17,.08-.34,.16-.5,.25-.08,.05-.17,.09-.25,.14-.08,.05-.16,.1-.24,.16-.63,.48-1.2,1.12-1.79,1.78-1.17,1.35-2.36,2.92-3.59,4.58-1.22,1.67-2.35,3.28-3.36,4.75-.51,.74-.98,1.44-1.42,2.11-.44,.66-.84,1.29-1.13,1.89-.6,1.21-.95,2.25-1.19,2.97-.12,.36-.2,.64-.26,.83-.03,.09-.05,.16-.06,.22-.01,.05-.02,.07-.02,.07,0,0,0-.03,.01-.08,.01-.06,.03-.13,.05-.22,.05-.19,.13-.48,.24-.84,.22-.72,.56-1.77,1.16-2.99,.29-.61,.69-1.25,1.13-1.91,.44-.67,.91-1.37,1.41-2.12,1.01-1.48,2.14-3.09,3.36-4.76,1.22-1.66,2.42-3.23,3.6-4.58,.59-.67,1.17-1.31,1.81-1.79,.08-.06,.17-.11,.25-.17,.09-.05,.17-.09,.26-.14,.17-.09,.34-.17,.51-.25,.34-.16,.66-.3,.98-.42,1.26-.49,2.32-.79,3.05-.99,.37-.1,.65-.16,.85-.21,.09-.02,.17-.03,.22-.05,.05,0,.08-.01,.08-.01"/><path class="cls-19" d="M59,82.75s-.12-.06-.33-.19c-.21-.12-.51-.32-.86-.57-.72-.5-1.67-1.25-2.61-2.19-.95-.94-1.7-1.89-2.21-2.6-.25-.36-.45-.65-.57-.86-.13-.21-.2-.33-.19-.33,0,0,.09,.1,.22,.31,.14,.2,.34,.49,.6,.84,.52,.7,1.28,1.63,2.22,2.57,.94,.94,1.88,1.69,2.58,2.21,.35,.26,.64,.46,.84,.6,.2,.14,.31,.22,.31,.22"/><path class="cls-11" d="M43.57,89.49l-.36-1.31c.19,.02,.43,.04,.73,.07,.74,.07,1.8,.17,3.11,.3,2.43,.23,5.73,.54,9.49,.89l-12.97,.04Z"/><path class="cls-20" d="M56.55,89.45c-3.75-.35-7.06-.66-9.49-.89-1.32-.13-2.38-.23-3.11-.3-.3-.03-.55-.06-.73-.07h0s13.89,1.26,13.89,1.26h-.56Z"/><path class="cls-10" d="M52.99,37.36c0,1.22,.99,2.21,2.21,2.21s2.21-.99,2.21-2.21-.99-2.21-2.21-2.21-2.21,.99-2.21,2.21"/><path class="cls-5" d="M73.16,34.09c0,1.22,.99,2.21,2.21,2.21s2.21-.99,2.21-2.21-.99-2.21-2.21-2.21-2.21,.99-2.21,2.21"/><path class="cls-19" d="M53.27,33.95c0,.72,.29,1.31,.64,1.31s.64-.58,.64-1.31-.29-1.31-.64-1.31-.64,.58-.64,1.31"/><path class="cls-19" d="M55.21,32.23c-.11,.21-.25,.4-.43,.56-.18,.16-.41,.29-.67,.35h-.01c-.13,.03-.25-.05-.28-.17-.03-.13,.05-.25,.18-.28,.02,0,.04,0,.06,0,.36,.01,.75-.2,1.02-.52h0s.08-.04,.11-.01c.03,.02,.03,.06,.02,.09"/><path class="cls-19" d="M48.31,33.98c0,.72-.29,1.31-.64,1.31s-.64-.58-.64-1.31,.29-1.31,.64-1.31,.64,.58,.64,1.31"/><path class="cls-19" d="M46.37,32.26c.11,.21,.25,.4,.43,.56,.18,.16,.41,.29,.67,.35h.01c.13,.03,.25-.05,.28-.17,.03-.13-.05-.25-.18-.28-.02,0-.04,0-.06,0-.36,.01-.75-.2-1.02-.52h0s-.08-.04-.11-.01c-.03,.02-.03,.06-.02,.09"/><path class="cls-19" d="M52.7,38.46c-.22,.43-.56,.8-.96,1.09-.4,.29-.91,.48-1.43,.47-.52-.01-1.02-.19-1.42-.49-.21-.14-.37-.33-.55-.49-.15-.19-.3-.39-.43-.59,.2,.14,.38,.3,.56,.45,.2,.12,.38,.27,.58,.37,.4,.23,.83,.35,1.26,.36,.43,.01,.87-.13,1.27-.34,.4-.22,.77-.51,1.12-.84"/><path class="cls-19" d="M52.59,29.22c.3-.26,.63-.35,.99-.37,.35,0,.71,.03,1.05,.15,.34,.11,.66,.3,.93,.53,.28,.22,.47,.52,.63,.81,.08,.15,.03,.33-.12,.41-.12,.07-.26,.04-.35-.04l-.03-.02c-.21-.19-.41-.37-.63-.5-.21-.14-.45-.22-.7-.29-.24-.06-.5-.09-.75-.07-.25,0-.53,.02-.81-.05l-.08-.02c-.17-.04-.28-.22-.24-.39,.02-.07,.05-.12,.1-.16"/><path class="cls-6" d="M78.13,35.36s1.71,.95,3.66,0c0,0-1.57,3.78-3.66,0"/><path class="cls-19" d="M74.9,29.98c0,.61,.24,1.1,.54,1.1s.54-.49,.54-1.1-.24-1.1-.54-1.1-.54,.49-.54,1.1"/><path class="cls-19" d="M81.19,29.67c0,.61,.24,1.1,.54,1.1s.54-.49,.54-1.1-.24-1.1-.54-1.1-.54,.49-.54,1.1"/><path class="cls-19" d="M79.53,25.21c.22-.31,.51-.47,.83-.57,.32-.09,.67-.14,1.01-.11,.35,.02,.69,.12,.99,.28,.31,.14,.56,.37,.78,.61,.11,.12,.1,.3-.01,.41-.09,.09-.23,.1-.34,.04l-.03-.02c-.24-.13-.46-.25-.7-.32-.23-.08-.48-.1-.71-.1-.24,0-.48,.04-.72,.11-.24,.07-.48,.14-.76,.14h-.08c-.17,0-.31-.13-.31-.3,0-.06,.02-.12,.05-.17"/><path class="cls-19" d="M76.62,25.42c-.26-.28-.57-.4-.9-.46-.33-.05-.68-.04-1.02,.03-.34,.06-.66,.21-.94,.41-.29,.18-.51,.44-.69,.7-.09,.13-.06,.32,.07,.41,.11,.08,.24,.07,.34,0l.03-.02c.22-.16,.43-.31,.65-.41,.22-.11,.46-.16,.69-.2,.24-.03,.48-.03,.73,.01,.24,.04,.5,.08,.77,.04h.08c.17-.03,.29-.18,.27-.35,0-.06-.04-.12-.08-.17"/></g></svg>