<?xml version="1.0" encoding="utf-8"?>
<!-- Generator: Adobe Illustrator 28.2.0, SVG Export Plug-In . SVG Version: 6.00 Build 0)  -->
<svg version="1.1" id="Capa_1" xmlns="http://www.w3.org/2000/svg" xmlns:xlink="http://www.w3.org/1999/xlink" x="0px" y="0px"
	 viewBox="0 0 97 99" style="enable-background:new 0 0 97 99;" xml:space="preserve">
<style type="text/css">
	.st0{clip-path:url(#SVGID_00000065758672291498437720000016791435098261460386_);}
	.st1{fill:#DDC9A3;}
	.st2{fill:#D9DAD9;}
	.st3{fill:#EFEFEF;}
	.st4{fill:#2C3C43;}
	.st5{fill:#F9B59C;}
	.st6{clip-path:url(#SVGID_00000152245686457313806440000012883597891887220125_);}
	.st7{fill:#F69576;}
	.st8{fill:#42616A;}
	.st9{fill:#E5E6E5;}
	.st10{fill:#10312B;}
	.st11{fill:#235B4E;}
	.st12{fill:#33484E;}
	.st13{fill:#CC7F5C;}
	.st14{clip-path:url(#SVGID_00000033354157037647213350000014042435255779332287_);}
	.st15{fill:#BA6A45;}
	.st16{fill:#9A5450;}
	.st17{fill:#9F2241;}
	.st18{fill:#691C20;}
	.st19{fill:#273035;}
	.st20{fill:#FEFEFE;}
</style>
<g>
	<defs>
		<rect id="SVGID_1_" y="0" width="97" height="99"/>
	</defs>
	<clipPath id="SVGID_00000154427338631891083430000012680986609908683936_">
		<use xlink:href="#SVGID_1_"  style="overflow:visible;"/>
	</clipPath>
	<g style="clip-path:url(#SVGID_00000154427338631891083430000012680986609908683936_);">
		<path class="st1" d="M30.6,62.2c0.5,11.6,7.7,23.3,18.8,26.5c9.7,2.8,19.9-1.1,29.1-5.1c9.2-4,19.1-8.4,29-6.6
			c8.9,1.6,16.2,7.9,23.7,13s16.9,9.4,25.4,6.4c4.9-1.7,8.7-5.6,11.3-10c6.3-10.6,6.1-24.7-0.5-35c-6.7-10.3-19.4-16.4-31.7-15
			c-4.9,0.5-9.7,2.2-14.5,1.3c-6.8-1.2-11.7-7-17.2-11.3c-9.1-7.2-21-10.7-32.6-9.6c-17.4,1.7-31.8,13-38,29.1
			C31.5,51,30.3,56.6,30.6,62.2"/>
		<rect x="53.9" y="26.2" class="st2" width="1.8" height="6.7"/>
		<polygon class="st2" points="41.5,85.6 41.5,99.5 48,99.5 48,94.7 46.2,94.7 46.2,93.7 48,93.8 48,92.2 48.8,92.2 48.8,91.4 
			47.8,91.4 47.8,85.6 		"/>
		<path class="st2" d="M45.5,76.8c0,0-2.3,0-5,0s-5,0-5,0s2.3,0,5,0S45.5,76.8,45.5,76.8"/>
		<polygon class="st2" points="43.7,72.5 43.7,85.7 49.9,85.7 49.9,81.1 48.2,81.1 48.2,80.2 49.9,80.3 49.9,78.8 50.7,78.8 
			50.7,78 49.8,78 49.8,72.5 		"/>
		<path class="st3" d="M69.3,74.5C69.3,74.5,69.3,74.5,69.3,74.5c0,0.1,0.1,0.1,0.1,0.1c0.1,0.1,0.2,0.2,0.3,0.4v0l0,0
			c0.2-0.2,0.4-0.6,0.7-1h0c0.2,0.3,0.4,0.6,0.7,1l0,0l0,0c0.3-0.3,0.5-0.6,0.8-1h-0.1c0,0,0,0,0.1,0.1c0.3,0.3,0.5,0.6,0.7,0.9l0,0
			l0,0c0.2-0.4,0.5-0.7,0.7-1h0c0.3,0.4,0.6,0.7,0.9,1l0,0v0c0.1-0.2,0.2-0.3,0.3-0.4c0-0.1,0.1-0.1,0.1-0.1c0,0,0,0,0,0s0,0,0,0
			s-0.1,0.1-0.1,0.1c-0.1,0.1-0.2,0.3-0.3,0.4h0c-0.2-0.3-0.5-0.6-0.8-1l0,0l0,0c-0.2,0.3-0.4,0.6-0.7,1h0.1
			c-0.2-0.3-0.5-0.6-0.7-0.9c0,0,0,0-0.1-0.1l0,0l0,0c-0.3,0.3-0.6,0.7-0.8,1h0.1c-0.3-0.3-0.5-0.7-0.7-1l0,0l0,0
			c-0.3,0.4-0.5,0.7-0.7,1h0c-0.1-0.2-0.2-0.3-0.3-0.4C69.4,74.6,69.4,74.5,69.3,74.5C69.3,74.5,69.3,74.5,69.3,74.5"/>
		<path class="st3" d="M69.2,73.2c0,0,1.2,0,2.8,0s2.8,0,2.8,0s-1.2,0-2.8,0S69.2,73.1,69.2,73.2"/>
		<path class="st4" d="M70.3,20.3c0.1-1.6,1.1-2.6,2.5-3.4s3.2-0.9,4.6-0.2c1,0.5,1.8,1.2,2.9,1.4c1.8,0.2,3.4-1.4,5.1-1
			c1,0.2,1.8,1.3,1.8,2.3s-0.9,2-1.9,2.2c1.2,0.2,1.8,1.6,1.4,2.7c-0.4,1.1-1.6,1.7-2.8,1.7c-1.2,0-2.3-0.5-3.3-1
			c-1-0.6-1.9-1.3-3-1.8c-1.1-0.5-2.2-0.8-3.4-0.5c-1.5,0.4-2.6,1.8-3,3.4c-0.4,1.5-0.2,3.1,0,4.7c0.2,1.6,0.5,3.1,0.4,4.7
			c0,0.2-0.1,0.4-0.2,0.5c-0.2,0.1-0.5-0.1-0.7-0.3c-1.9-2.3-3.4-5-4.3-7.9c-0.5-1.7-0.8-3.3-0.2-4.9C66.8,21.1,68.9,19.6,70.3,20.3
			"/>
		<path class="st5" d="M68.8,28l2.6,15.9c0.5,3,2.4,5.8,7.1,4.8c4-1.2,3.7-4,3.2-7.5c0,0,0,0.1,0,0c0,0,4.4-1.1,4-5.6
			c-0.2-2.1-0.9-6.5-1.7-10.5c-0.8-4.2-4.7-7.2-9-6.8l-0.4,0C69.9,19.1,67.9,23.5,68.8,28"/>
		<g>
			<defs>
				<path id="SVGID_00000110436792409997413180000011078643563880741043_" d="M68.8,28l2.6,15.9c0.5,3,2.4,5.8,7.1,4.8
					c4-1.2,3.7-4,3.2-7.5c0,0,0,0.1,0,0c0,0,4.4-1.1,4-5.6c-0.2-2.1-0.9-6.5-1.7-10.5c-0.8-4.2-4.7-7.2-9-6.8l-0.4,0
					C69.9,19.1,67.9,23.5,68.8,28"/>
			</defs>
			<clipPath id="SVGID_00000103966813044007287350000005912656701487378097_">
				<use xlink:href="#SVGID_00000110436792409997413180000011078643563880741043_"  style="overflow:visible;"/>
			</clipPath>
			<g style="clip-path:url(#SVGID_00000103966813044007287350000005912656701487378097_);">
				<path class="st7" d="M81.6,33.4c0,1.2,1,2.2,2.2,2.2s2.2-1,2.2-2.2s-1-2.2-2.2-2.2S81.6,32.2,81.6,33.4"/>
			</g>
		</g>
		<path class="st7" d="M81.6,41.2c0,0-2.8,0.4-5.9-1.1c0,0,1.7,3.3,6.1,2.5L81.6,41.2L81.6,41.2z"/>
		<path class="st4" d="M79.4,33c0,0,0.4-0.2,1.1-0.3c0.2,0,0.3-0.1,0.3-0.2c0-0.1-0.1-0.3-0.2-0.5c-0.2-0.4-0.4-0.8-0.7-1.3
			c-0.9-1.8-1.6-3.3-1.5-3.4c0.1,0,0.9,1.4,1.8,3.2c0.2,0.5,0.4,0.9,0.6,1.3c0.1,0.2,0.2,0.4,0.2,0.7c0,0.1-0.2,0.2-0.3,0.3
			c-0.1,0-0.2,0.1-0.3,0.1C79.9,33,79.4,33,79.4,33"/>
		<path class="st5" d="M69.5,31.3c-0.1,0-3.1-0.6-2.7,2.4c0.4,3,3.3,2,3.3,1.9C70.1,35.5,69.5,31.3,69.5,31.3"/>
		<path class="st7" d="M69,34.6c0,0-0.1,0-0.1,0.1c-0.1,0-0.2,0.1-0.4,0.1c-0.3-0.1-0.7-0.5-0.8-1.1c0-0.3,0-0.5,0.1-0.8
			c0.1-0.2,0.2-0.4,0.3-0.5c0.2-0.1,0.3,0,0.3,0.1c0.1,0.1,0,0.1,0.1,0.1c0,0,0.1-0.1,0-0.2c0-0.1-0.1-0.1-0.1-0.2
			c-0.1,0-0.2-0.1-0.3,0c-0.2,0-0.4,0.3-0.5,0.5c-0.1,0.3-0.1,0.6-0.1,0.9c0.1,0.6,0.5,1.1,0.9,1.2c0.2,0,0.4-0.1,0.5-0.1
			C69,34.6,69,34.6,69,34.6"/>
		<path class="st4" d="M83.5,21c-0.5-0.8-1.3-1.5-2.1-2c-1.8-1.1-3.9-1.6-5.9-1.5s-4.1,1.1-5.4,2.7c-1.1,1.3-1.7,2.9-1.9,4.5
			c-0.2,1.6,0,3.3,0.5,4.9c0.2,0.7,0.5,1.4,1,1.9c0.3,0.3,0.9,0.5,1.2,0.1c0.2-0.2,0.2-0.5,0.3-0.7c0.3-2.4,0.7-5-0.4-7.1
			c0.5-0.8,1.1-1.6,1.9-2.1c0.8-0.5,1.8-0.8,2.7-0.6c1.4,0.3,2.4,1.5,3.5,2.3c1.7,1.1,3.9,1.4,5.8,0.7L83.5,21L83.5,21z"/>
		<path class="st8" d="M86.4,17.6c0,0,0,0.1,0.1,0.2c0,0.1,0.1,0.3,0,0.6c-0.1,0.5-0.3,1.3-1.1,1.9c-0.7,0.6-1.9,0.8-3.1,0.6
			c-1.2-0.2-2.4-0.8-3.7-1.3c-1.3-0.5-2.6-0.9-3.8-0.7c-1.2,0.2-2.1,0.9-2.7,1.5c-0.6,0.7-0.9,1.3-1.2,1.8c-0.2,0.5-0.3,0.8-0.3,0.7
			c0,0,0-0.1,0-0.2c0-0.1,0.1-0.3,0.2-0.6c0.2-0.5,0.5-1.2,1.1-1.9c0.6-0.7,1.5-1.4,2.8-1.6c1.2-0.2,2.6,0.1,3.9,0.7
			s2.5,1.1,3.7,1.3c1.2,0.2,2.3,0,3-0.6c0.7-0.5,1-1.3,1.1-1.8C86.5,17.9,86.4,17.7,86.4,17.6"/>
		<path class="st8" d="M66.6,26.8c0,0,0-0.3,0.1-0.8c0.1-0.5,0.4-1.2,0.9-1.8c0.2-0.3,0.5-0.6,0.8-0.8c0.3-0.2,0.6-0.4,0.8-0.4
			c0.3,0,0.5,0,0.6,0.1c0.1,0.1,0.2,0.1,0.2,0.1c0,0-0.3-0.2-0.8-0.1c-0.5,0.1-1,0.6-1.5,1.2c-0.5,0.6-0.8,1.3-0.9,1.7
			C66.6,26.5,66.6,26.9,66.6,26.8"/>
		<path class="st8" d="M67.3,29.5c0,0,0-0.3,0.2-0.8c0.2-0.5,0.5-1.2,1-1.8c0.5-0.6,1.1-1.1,1.6-1.3s0.8-0.3,0.8-0.3
			c0,0-0.3,0.2-0.7,0.4c-0.4,0.3-1,0.7-1.5,1.3c-0.5,0.6-0.8,1.2-1,1.7C67.5,29.2,67.4,29.5,67.3,29.5"/>
		<path class="st8" d="M83.6,46.6c0,0,3.2,4.2,4,5.8S94,71.2,94,71.2l-2.4,1C91.6,72.2,83.6,46.6,83.6,46.6z"/>
		<polygon class="st9" points="70.6,42.7 70.6,40.6 82.4,44.4 85.5,49.4 87.9,56.5 81.1,46.2 		"/>
		<path class="st10" d="M69.9,44.7c0,0-5,6-4.9,9.9c0.1,3.8,5.3,27.1,5.3,27.1L69,85.7l-1.4,13.8H96l-2-28.4
			c-0.3,0-6.2-16.3-6.2-16.3l-6.6-9.1l-10.8-3.9L69.9,44.7L69.9,44.7z"/>
		<path class="st11" d="M91.4,64.5c0,0,2-0.1,3,0.4s1.9,0.2,2.6,1.7c0.7,1.4,1.6,2.1,1.8,4.2c0.2,2.2-2.2,7.2-3.7,7.9
			C93.6,79.4,91.4,64.5,91.4,64.5"/>
		<path class="st11" d="M85.9,83.9C85.9,83.9,85.9,83.9,85.9,83.9c-1.9-0.1-2.1-6.7-3.6-7.7s-13-11.9-13-11.9l6.8-1l17.4,16.4
			C93.5,79.7,87.8,83.9,85.9,83.9"/>
		<path class="st5" d="M85.6,74c0,0-2.5,3.2-2.8,4c-0.3,0.8-0.6,1.3-0.3,1.6c0.3,0.3,0.6,0.3,0.9,0.2c0.4-0.2,2.4-2.8,2.4-2.8
			s-2.7,3.8-2.8,4.5c-0.1,0.7,0.4,1,1,0.9c0.6-0.1,1.8-1.8,1.8-1.8s-1.7,1.9-1.3,2.2c0.3,0.3,0.8,0.4,1.2,0.1s1.6-1.8,1.6-1.8
			S86.6,82,87,82.2c0.4,0.2,0.5,0.2,0.9-0.1c0.4-0.3,3.8-3.6,3.8-3.6L89.5,77L85.6,74L85.6,74z"/>
		<path class="st7" d="M86.6,76c0,0-0.1,0.2-0.4,0.5c-0.3,0.3-0.6,0.8-1,1.3c-0.4,0.5-0.8,0.9-1,1.2s-0.4,0.5-0.5,0.5
			c0,0,0.2-0.2,0.4-0.5c0.3-0.3,0.6-0.8,1-1.3c0.4-0.5,0.7-0.9,1-1.3C86.5,76.1,86.6,76,86.6,76"/>
		<path class="st7" d="M88.4,77.5c0,0-0.6,0.8-1.3,1.7c-0.8,0.9-1.4,1.6-1.4,1.6c0,0,0.6-0.8,1.3-1.7C87.8,78.2,88.4,77.5,88.4,77.5
			"/>
		<path class="st7" d="M89.8,78.5c0,0-0.6,0.7-1.4,1.6c-0.8,0.9-1.5,1.6-1.5,1.5c0,0,0.6-0.7,1.4-1.6C89.2,79.1,89.8,78.5,89.8,78.5
			"/>
		<path class="st10" d="M71.4,48.4c1.6-0.3,3.7-0.5,5.3,0.4l8.6,7.7c0,0,12.1,13.6,12.6,14.3s1.1,5.2-0.7,7.5s-3.9,1.4-6.2,0.9
			C89,78.8,76,69.2,70.7,65.3c-1.8-1.4-3.2-3.3-3.8-5.5c-0.4-1.3-0.6-2.9-0.4-4.4C66.4,55.3,71.4,48.4,71.4,48.4z"/>
		<path class="st4" d="M66.4,55.3c0,0,0,0.1,0,0.2c0,0.2,0,0.4,0,0.7c0,0.6,0,1.4,0.2,2.5c0.1,0.5,0.2,1.1,0.5,1.8
			c0.2,0.6,0.5,1.3,0.9,1.9s0.9,1.3,1.6,1.9c0.6,0.6,1.4,1.2,2.2,1.7c3.2,2.3,6.9,5.1,11.1,8.1c1.1,0.7,2.2,1.5,3.3,2.3
			c1.1,0.8,2.3,1.5,3.5,2.2c0.3,0.2,0.6,0.3,0.9,0.5c0.2,0.1,0.3,0.1,0.5,0.2l0.5,0.1c0.7,0.2,1.4,0.3,2.1,0.4
			c0.7,0.1,1.5,0,2.1-0.4c0.6-0.3,1.2-0.9,1.6-1.5c0.6-1.1,0.8-2.3,0.9-3.5c0-0.6,0-1.2-0.1-1.8c0-0.3-0.1-0.6-0.2-0.9
			c-0.1-0.3-0.1-0.6-0.3-0.8c-0.3-0.5-0.8-0.9-1.1-1.3c-0.4-0.4-0.8-0.9-1.1-1.3c-0.8-0.9-1.5-1.7-2.2-2.6c-2.9-3.3-5.7-6.4-8.1-9.1
			l0,0c-3.6-3.2-6.5-5.8-8.6-7.8l0,0c-0.8-0.4-1.5-0.6-2.2-0.6c-0.7-0.1-1.2,0-1.7,0c-0.4,0-0.8,0.1-1,0.1c-0.1,0-0.2,0-0.3,0
			c-0.1,0-0.1,0-0.1,0s0.1,0,0.3-0.1c0.2,0,0.6-0.1,1-0.2c0.4,0,1-0.1,1.7,0c0.7,0.1,1.4,0.2,2.2,0.6l0,0l0,0c2.1,1.9,5,4.5,8.6,7.7
			l0,0l0,0c2.4,2.7,5.1,5.8,8.1,9.1c0.7,0.8,1.5,1.7,2.2,2.5c0.4,0.4,0.8,0.9,1.1,1.3c0.4,0.4,0.8,0.9,1.1,1.4
			c0.1,0.1,0.1,0.1,0.1,0.2c0,0.1,0.1,0.1,0.1,0.2c0.1,0.1,0.1,0.3,0.1,0.4c0.1,0.3,0.1,0.6,0.2,0.9c0.1,0.6,0.1,1.2,0.1,1.8
			c0,1.2-0.3,2.5-0.9,3.6c-0.4,0.6-0.9,1.2-1.6,1.6c-0.7,0.4-1.4,0.5-2.2,0.4c-0.7-0.1-1.4-0.2-2.1-0.4l-0.5-0.1
			c-0.2,0-0.3-0.1-0.5-0.2c-0.3-0.1-0.6-0.3-0.9-0.5c-1.2-0.7-2.4-1.5-3.5-2.2c-1.1-0.8-2.2-1.5-3.3-2.3c-4.2-3-8-5.8-11.1-8.1
			c-0.8-0.6-1.6-1.1-2.2-1.8c-0.6-0.6-1.2-1.3-1.6-2c-0.4-0.7-0.7-1.3-0.9-2c-0.2-0.6-0.4-1.2-0.5-1.8c-0.2-1.1-0.2-1.9-0.2-2.5
			C66.4,55.6,66.4,55.3,66.4,55.3"/>
		<path class="st4" d="M88.2,56C88.2,56,88.2,56,88.2,56c-0.1-0.1-0.1-0.1-0.2-0.1c-0.1-0.1-0.3-0.2-0.5-0.4
			c-0.4-0.4-1.1-0.9-1.8-1.6c-0.7-0.7-1.6-1.6-2.5-2.5c-0.5-0.5-1-1-1.5-1.4c-0.6-0.5-1.1-1-1.8-1.4c-0.3-0.2-0.5-0.3-0.8-0.5l0,0v0
			c0.1-0.2,0.1-0.4,0.1-0.6l0,0.1c-2.6-0.8-4.9-1.5-6.6-2.1c-0.8-0.3-1.5-0.5-1.9-0.6c-0.2-0.1-0.4-0.1-0.5-0.2c-0.1,0-0.1,0-0.1,0
			c0,0-0.1,0,0,0c0,0,0,0,0.1,0c0,0,0.1,0,0.1,0c0.1,0,0.3,0.1,0.5,0.2c0.5,0.1,1.1,0.3,2,0.6c1.7,0.5,4,1.2,6.6,2l0.1,0v0
			c-0.1,0.2-0.1,0.4-0.1,0.6l0-0.1c0.3,0.2,0.6,0.3,0.8,0.5c0.7,0.4,1.2,0.9,1.8,1.4c0.6,0.5,1.1,1,1.5,1.5c0.9,1,1.8,1.8,2.5,2.5
			c0.7,0.7,1.3,1.3,1.7,1.7c0.2,0.2,0.4,0.3,0.5,0.4C88.1,55.8,88.1,55.9,88.2,56C88.2,55.9,88.2,56,88.2,56"/>
		<path class="st4" d="M92.4,64.7c0,0-0.1-0.2-0.2-0.4C92,64,91.8,63.6,91.6,63c-0.5-1-1.2-2.5-2-4.1s-1.5-3-2-4.1
			c-0.2-0.5-0.4-0.9-0.6-1.2c-0.1-0.1-0.1-0.2-0.2-0.3c0-0.1-0.1-0.1-0.1-0.1s0,0,0.1,0.1c0,0.1,0.1,0.2,0.2,0.3
			c0.2,0.3,0.4,0.7,0.6,1.2c0.5,1,1.2,2.5,2,4.1c0.8,1.6,1.5,3,2,4.1c0.2,0.5,0.4,0.9,0.6,1.2C92.4,64.5,92.4,64.7,92.4,64.7"/>
		<path class="st4" d="M72.4,88.1C72.4,88.1,72.5,88.1,72.4,88.1c0.1,0,0.2,0,0.3,0c0.2,0,0.5,0,0.8,0.1c0.7,0.1,1.8,0.2,3.1,0.3
			c2.7,0.2,6.3,0.6,10.5,0.9l-0.1,0.1c-0.2-0.9-0.4-1.8-0.7-2.7c-0.1-0.4-0.2-0.9-0.3-1.3l0.1,0c-4.7-0.6-8.9-1-11.8-1.4l0,0
			c-0.7,1.2-1.2,2.2-1.6,2.9c-0.2,0.3-0.3,0.6-0.4,0.8C72.5,87.9,72.5,88,72.4,88.1C72.4,88.1,72.5,88.1,72.4,88.1
			c0,0,0-0.1,0.1-0.3c0.1-0.2,0.2-0.5,0.4-0.8c0.3-0.7,0.9-1.7,1.6-2.9v0h0c2.9,0.3,7.1,0.8,11.8,1.3h0v0c0.1,0.4,0.2,0.8,0.3,1.3
			c0.2,0.9,0.5,1.9,0.7,2.7l0,0.1h-0.1c-4.2-0.4-7.9-0.8-10.6-1c-1.3-0.1-2.4-0.2-3.1-0.3c-0.4,0-0.6-0.1-0.8-0.1
			C72.7,88.2,72.6,88.2,72.4,88.1C72.5,88.2,72.5,88.2,72.4,88.1"/>
		<path class="st12" d="M87.2,90.3l-13.9-0.8l-0.5-1.3c0.2,0,0.4,0,0.7,0.1c0.7,0.1,1.8,0.2,3.1,0.3c2.7,0.2,6.3,0.6,10.6,1l0,0
			L87.2,90.3L87.2,90.3z"/>
		<path class="st11" d="M87.2,89.5L87.2,89.5c-4.2-0.4-7.9-0.7-10.6-1c-1.3-0.1-2.4-0.2-3.1-0.3c-0.3,0-0.5-0.1-0.7-0.1l0,0
			L87.2,89.5L87.2,89.5L87.2,89.5z"/>
		<path class="st4" d="M53.7,22c0-0.7-0.7-1.4-1.4-1.6s-1.5-0.1-2.2,0.1c-1.5,0.5-2.8,1.6-4.1,2.6c-2,1.6-3.8,3.8-4.6,6.2
			c-0.6,1.8-0.7,3-0.2,4.9c0.5,1.7,0.9,3.4,0.8,4.8c-0.2,2.2-0.4,2.8-1,5c-0.4,1.4,0.9,5,0.9,5l7.8-3c2.8-1.3,8.8-3.8,8.8-3.8
			L53.7,22L53.7,22z"/>
		<path class="st13" d="M49.3,48.4c0-1.9,0-3.2,0-3.2c0,0-3.4-0.8-4.1-5.6c-0.3-2.4-0.5-6.2-0.3-9.5c0.2-2.9,2.2-6.4,5.1-6.1l9,2.4
			c0.9,0.1,1.2,0.9,1.1,1.7l0.1,0.4l-0.7,13.9l0.3,5.9c-0.1,2.6-2.7,5-5.3,5.2C51.7,53.6,49.3,51.3,49.3,48.4"/>
		<g>
			<defs>
				<path id="SVGID_00000178920830611327832660000014015007369980294826_" d="M49.3,48.4c0-1.9,0-3.2,0-3.2c0,0-3.4-0.8-4.1-5.6
					c-0.3-2.4-0.5-6.2-0.3-9.5c0.2-2.9,2.2-6.4,5.1-6.1l9,2.4c0.9,0.1,1.2,0.9,1.1,1.7l0.1,0.4l-0.7,13.9l0.3,5.9
					c-0.1,2.6-2.7,5-5.3,5.2C51.7,53.6,49.3,51.3,49.3,48.4"/>
			</defs>
			<clipPath id="SVGID_00000018916276280812803040000008341101512044538777_">
				<use xlink:href="#SVGID_00000178920830611327832660000014015007369980294826_"  style="overflow:visible;"/>
			</clipPath>
			<g style="clip-path:url(#SVGID_00000018916276280812803040000008341101512044538777_);">
				<path class="st15" d="M42.9,38c0,1.2,1,2.2,2.2,2.2s2.2-1,2.2-2.2s-1-2.2-2.2-2.2S42.9,36.7,42.9,38"/>
				<path class="st4" d="M49.3,29.7c-0.2-0.3-0.5-0.5-0.9-0.6S47.7,29,47.3,29c-0.4,0-0.7,0.1-1,0.3c-0.3,0.1-0.6,0.4-0.8,0.6
					c-0.1,0.1-0.1,0.3,0,0.4c0.1,0.1,0.2,0.1,0.3,0l0,0c0.2-0.1,0.5-0.3,0.7-0.3c0.2-0.1,0.5-0.1,0.7-0.1c0.2,0,0.5,0,0.8,0.1
					s0.5,0.1,0.8,0.1H49c0.2,0,0.3-0.1,0.3-0.3C49.3,29.8,49.3,29.7,49.3,29.7"/>
			</g>
		</g>
		<path class="st4" d="M53.3,33.9c0,0.3,0.2,0.6,0.6,0.6c0.3,0,0.6-0.2,0.7-0.5c0-0.3-0.2-0.6-0.6-0.6
			C53.6,33.3,53.3,33.5,53.3,33.9"/>
		<path class="st4" d="M50,37.3c0,0-0.4-0.1-1.1-0.2c-0.2,0-0.3-0.1-0.4-0.2c0-0.1,0-0.3,0.1-0.5c0.2-0.4,0.3-0.8,0.5-1.3
			c0.7-1.8,1.3-3.4,1.2-3.4c-0.1,0-0.7,1.4-1.5,3.3c-0.2,0.5-0.3,0.9-0.5,1.3c-0.1,0.2-0.2,0.4-0.1,0.7c0,0.1,0.2,0.2,0.3,0.2
			c0.1,0,0.2,0,0.3,0C49.5,37.3,50,37.3,50,37.3"/>
		<path class="st15" d="M49.4,45.2c0,0,3.2,0.3,6.5-1.6c0,0-1.7,3.4-6.5,2.8L49.4,45.2z"/>
		<path class="st4" d="M44.9,35.7l-1-4.1c-0.9-1.2-0.2-3.3,0.4-4.7s1.9-2.5,3.2-3.2c1.3-0.7,2.8-1.1,4.3-1.5c-0.5,1.8-2,3.6-3.6,4.5
			c0,0-2.5,1.7-2.9,3.7C44.9,32.6,44.9,35.6,44.9,35.7"/>
		<path class="st4" d="M50.5,24.8l7.1,4.2c0,0,0.2,3.2,1.5,6.4c1.3-1.1,2.1,1,2.5-0.6c0-0.1-0.4,3.5-1.7,3.6l-0.2,3.9l6.7-1.7
			c0,0-0.4-4.7-1.5-7.5c-0.7-1.8-1.1-3.2-1.8-5c-0.5-1.3-1.5-3.3-2.2-4.3c-1.5-2-7.2-2.1-7.2-2.1c-2.5,0.6-0.8,0.3-2.9,1.8L50,25.3
			L50.5,24.8L50.5,24.8z"/>
		<path class="st13" d="M59.1,35.4c0-1,1.1-1.8,2-1.3c0.5,0.2,0.9,0.8,0.9,1.9c0,2.9-2.9,2.3-2.9,2.2C59.1,38.2,59.1,36.6,59.1,35.4
			"/>
		<path class="st16" d="M60,37.1c0,0,0,0,0.1,0.1s0.2,0.1,0.4,0c0.3-0.1,0.6-0.6,0.6-1.1c0-0.3-0.1-0.5-0.2-0.7
			c-0.1-0.2-0.2-0.4-0.4-0.4c-0.2,0-0.3,0.1-0.3,0.1c0,0.1,0,0.1,0,0.1c0,0-0.1,0,0-0.2c0-0.1,0-0.1,0.1-0.2
			c0.1-0.1,0.2-0.1,0.3-0.1c0.2,0,0.4,0.2,0.5,0.4c0.1,0.2,0.2,0.5,0.2,0.8c0,0.6-0.3,1.1-0.7,1.3c-0.2,0.1-0.4,0-0.5-0.1
			S60,37.1,60,37.1"/>
		<path class="st1" d="M61.3,38.5c0,0.6-0.4,1-1,1c-0.6,0-1-0.4-1-1c0-0.6,0.4-1,1-1C60.8,37.5,61.3,37.9,61.3,38.5"/>
		<path class="st17" d="M42.8,67.3c-0.2,0.2-2.9,0.8-3.5,2.5c-0.7,1.7-4.1,5.1-1.6,8.5l5.1-2.8V67.3z"/>
		<path class="st4" d="M37.7,78.3L37.7,78.3c-0.5-0.6-0.7-1.3-0.8-1.9c-0.1-0.6-0.1-1.2,0.1-1.9c0.3-1.2,1-2.4,1.6-3.3
			c0.3-0.5,0.6-1,0.8-1.4c0.5-1.4,2.4-2.1,3.2-2.4c0.2-0.1,0.3-0.1,0.3-0.1l0,0v8.2l0,0L37.7,78.3L37.7,78.3z M42.8,67.3
			c0,0-0.2,0.1-0.3,0.1c-0.8,0.3-2.7,1-3.2,2.4c-0.2,0.4-0.4,0.8-0.8,1.4c-0.6,0.9-1.2,2.1-1.5,3.3c-0.2,0.7-0.2,1.3-0.1,1.9
			c0.1,0.7,0.4,1.3,0.8,1.9l5.1-2.8V67.3z"/>
		<polygon class="st2" points="48.8,53.3 49.2,47.5 59.8,43.1 60.1,45.2 52.9,48.9 		"/>
		<path class="st18" d="M60.1,43.9c0,0-6.5,2.6-9.4,5.2c-2.7,2.4-8.3,11.9-8.9,14.5c-0.6,2.6-0.5,9.8-0.5,9.8s0,7.4,0,7.6
			s-4.6,12.1-3.8,18.6H64c0,0,0.8-9.2-1-12.7c-1.8-3.6-1.9-2.8-1.9-2.8s1.1-1.2,1-2.3c-0.1-1.1-0.8-2-0.8-2l4.6-14.5
			c0,0,0.5-7.3-0.8-12.2c-1.2-4.6-1.6-4.3-3.1-5.8c0,0,0,0,0,0c0,0,0,0,0,0l-1.3-1.1L60.1,43.9L60.1,43.9z"/>
		<path class="st18" d="M42.8,88.1c-0.1-0.3,2-4,2-4l12,2l0.8,3.4L42.8,88.1L42.8,88.1z"/>
		<path class="st4" d="M42.8,88.1C42.8,88.1,42.9,88.1,42.8,88.1c0.1,0,0.2,0,0.3,0c0.2,0,0.5,0,0.8,0.1c0.7,0.1,1.8,0.2,3.1,0.3
			c2.7,0.2,6.3,0.6,10.5,0.9l-0.1,0.1c-0.2-0.8-0.4-1.7-0.6-2.5c-0.1-0.3-0.1-0.6-0.2-0.8l0,0c-4.8-0.8-9-1.5-12-2l0,0
			c-0.7,1.2-1.2,2.2-1.6,2.9c-0.2,0.3-0.3,0.6-0.4,0.8C42.9,87.9,42.9,88,42.8,88.1C42.8,88.1,42.9,88.1,42.8,88.1
			c0,0,0-0.1,0.1-0.3c0.1-0.2,0.2-0.5,0.4-0.8c0.3-0.7,0.9-1.7,1.5-2.9v0h0c2.9,0.5,7.2,1.2,12,2h0v0c0.1,0.3,0.1,0.5,0.2,0.8
			c0.2,0.9,0.4,1.7,0.6,2.5l0,0.1h-0.1c-4.2-0.4-7.9-0.7-10.5-1c-1.3-0.1-2.4-0.2-3.1-0.3c-0.4,0-0.6-0.1-0.8-0.1
			C43,88.2,43,88.2,42.8,88.1C42.9,88.2,42.8,88.2,42.8,88.1"/>
		<path class="st17" d="M43.6,85.5c-1.1,0-2.2-0.3-3.1-0.9l-0.1-0.9c0-0.1,0-0.1,0.1-0.2c0-0.1,0-0.1,0-0.2c0.3-1,0.6-1.7,0.7-2.1
			c6.5-7.2,15.1-12.5,21.3-20C60,67.8,56.3,74,52.1,79.6c-1.4,1.9-2.9,3.7-4.9,4.8c-0.9-0.1-1.7-0.3-2.4-0.4h0l0,0
			c-0.3,0.5-0.5,0.9-0.7,1.3C43.9,85.5,43.7,85.5,43.6,85.5"/>
		<path class="st18" d="M44.1,85.5c0.2-0.4,0.5-0.8,0.7-1.3c0.7,0.1,1.4,0.2,2.2,0.4C46.2,85,45.2,85.4,44.1,85.5"/>
		<path class="st17" d="M44.1,85.5c0.2-0.4,0.5-0.9,0.7-1.3v0h0c0.7,0.1,1.5,0.2,2.4,0.4c0,0,0,0,0,0s0,0-0.1,0
			c-0.8-0.1-1.6-0.3-2.2-0.4C44.6,84.6,44.4,85.1,44.1,85.5C44.1,85.5,44.1,85.5,44.1,85.5"/>
		<path class="st18" d="M61.6,50.1c2.2,1.8,4.2,7.3,0.7,12.1c0,0-15,20.4-17.5,22c-2.5,1.6-5.8,0.7-6.8-1.7s-0.6-4.7,0.8-6.3
			C40.1,74.5,48.9,59,48.9,59s2-7.2,5.4-9.3C54.4,49.7,61.6,50.1,61.6,50.1z"/>
		<path class="st18" d="M54.4,49.7c0,0,0,0-0.2,0.1c-0.1,0.1-0.2,0.2-0.4,0.3c-0.4,0.3-0.9,0.8-1.5,1.6c-1.1,1.5-2.4,4-3.3,7.2l0,0
			l0,0c-1.9,3.4-4.3,7.6-7.1,12.4c-0.7,1.2-1.4,2.4-2.2,3.6c-0.2,0.3-0.4,0.6-0.6,0.9c-0.1,0.2-0.2,0.3-0.3,0.4
			c-0.1,0.2-0.2,0.3-0.3,0.5c-0.2,0.3-0.3,0.7-0.5,1c-0.1,0.3-0.2,0.7-0.3,1.1c-0.1,0.8-0.1,1.5,0.1,2.3c0,0.2,0.1,0.4,0.2,0.6
			c0,0.2,0.1,0.4,0.2,0.6s0.2,0.3,0.2,0.5l0.2,0.2c0,0.1,0.1,0.2,0.2,0.2c0.5,0.6,1.2,1.1,1.9,1.3s1.6,0.3,2.4,0.2
			c0.7-0.1,1.4-0.4,2-0.8c0.6-0.4,1.1-1,1.5-1.6c1-1.1,1.9-2.2,2.8-3.3c1.8-2.2,3.5-4.3,5-6.4c1.6-2.1,3.1-4,4.5-5.9
			c0.7-0.9,1.4-1.8,2-2.7c0.3-0.4,0.6-0.9,0.9-1.3c0.3-0.4,0.6-0.8,0.9-1.2c0.6-0.8,0.9-1.7,1.2-2.5c0.1-0.2,0.1-0.4,0.2-0.6
			c0.1-0.2,0.1-0.4,0.1-0.6c0.1-0.4,0.1-0.8,0.1-1.2c0.1-1.6-0.3-2.9-0.7-3.9c-0.4-1-0.9-1.7-1.3-2.2c-0.1-0.1-0.2-0.2-0.2-0.3
			s-0.2-0.1-0.2-0.2c-0.1-0.1-0.2-0.2-0.2-0.2s0.1,0,0.2,0.2c0.1,0,0.1,0.1,0.2,0.2c0.1,0.1,0.2,0.2,0.3,0.3
			c0.4,0.4,0.9,1.1,1.3,2.2c0.4,1,0.7,2.3,0.7,3.9c0,0.4,0,0.8-0.1,1.2c0,0.2-0.1,0.4-0.1,0.6c-0.1,0.2-0.1,0.4-0.2,0.6
			c-0.3,0.8-0.6,1.7-1.2,2.5c-0.3,0.4-0.6,0.8-0.9,1.2c-0.3,0.4-0.6,0.8-0.9,1.3c-0.6,0.9-1.3,1.8-2,2.7c-1.4,1.8-2.9,3.8-4.5,5.9
			c-1.6,2.1-3.2,4.2-5,6.4c-0.9,1.1-1.8,2.2-2.8,3.3c-0.2,0.3-0.5,0.5-0.8,0.8c-0.3,0.3-0.5,0.5-0.8,0.8c-0.6,0.4-1.3,0.7-2.1,0.8
			c-0.8,0.1-1.7,0.1-2.4-0.2c-0.8-0.2-1.5-0.7-2-1.3c-0.1-0.1-0.1-0.2-0.2-0.2l-0.2-0.2c-0.1-0.2-0.2-0.4-0.2-0.5s-0.1-0.4-0.2-0.6
			c-0.1-0.2-0.1-0.4-0.2-0.6c-0.2-0.8-0.2-1.6-0.1-2.3c0-0.4,0.2-0.8,0.3-1.1c0.1-0.4,0.3-0.7,0.5-1c0.1-0.2,0.2-0.3,0.3-0.5
			c0.1-0.2,0.2-0.3,0.3-0.4c0.2-0.3,0.4-0.6,0.6-0.9c0.8-1.2,1.5-2.4,2.2-3.6c2.8-4.7,5.2-9,7.2-12.4l0,0c1-3.3,2.3-5.7,3.4-7.2
			c0.6-0.8,1.1-1.3,1.5-1.6c0.2-0.2,0.3-0.3,0.5-0.3C54.3,49.7,54.4,49.7,54.4,49.7"/>
		<path class="st4" d="M60.7,46.2C60.7,46.2,60.7,46.2,60.7,46.2c-0.1,0-0.2,0-0.3,0.1c-0.2,0-0.5,0.1-0.8,0.2c-0.7,0.2-1.8,0.5-3,1
			c-0.3,0.1-0.6,0.3-1,0.4c-0.2,0.1-0.3,0.2-0.5,0.2c-0.1,0-0.2,0.1-0.2,0.1s-0.2,0.1-0.2,0.2c-0.6,0.5-1.2,1.1-1.8,1.8
			c-1.2,1.3-2.4,2.9-3.6,4.6c-1.2,1.7-2.3,3.3-3.4,4.8c-0.5,0.7-1,1.4-1.4,2.1c-0.4,0.7-0.8,1.3-1.1,1.9c-0.6,1.2-1,2.3-1.2,3
			c-0.1,0.4-0.2,0.6-0.3,0.8c0,0.1,0,0.2-0.1,0.2c0,0.1,0,0.1,0,0.1s0,0,0-0.1c0-0.1,0-0.1,0-0.2c0-0.2,0.1-0.5,0.2-0.8
			c0.2-0.7,0.6-1.8,1.2-3c0.3-0.6,0.7-1.2,1.1-1.9c0.4-0.7,0.9-1.4,1.4-2.1c1-1.5,2.1-3.1,3.4-4.8c1.2-1.7,2.4-3.2,3.6-4.6
			c0.6-0.7,1.2-1.3,1.8-1.8c0.1-0.1,0.2-0.1,0.2-0.2c0.1,0,0.2-0.1,0.3-0.1c0.2-0.1,0.3-0.2,0.5-0.2c0.3-0.2,0.7-0.3,1-0.4
			c1.3-0.5,2.3-0.8,3-1c0.4-0.1,0.7-0.2,0.8-0.2C60.5,46.3,60.6,46.2,60.7,46.2C60.7,46.2,60.7,46.2,60.7,46.2"/>
		<path class="st4" d="M59,82.7c0,0-0.1-0.1-0.3-0.2c-0.2-0.1-0.5-0.3-0.9-0.6c-0.7-0.5-1.7-1.2-2.6-2.2c-1-0.9-1.7-1.9-2.2-2.6
			c-0.2-0.4-0.5-0.7-0.6-0.9c-0.1-0.2-0.2-0.3-0.2-0.3c0,0,0.1,0.1,0.2,0.3c0.1,0.2,0.3,0.5,0.6,0.8c0.5,0.7,1.3,1.6,2.2,2.6
			c0.9,0.9,1.9,1.7,2.6,2.2c0.3,0.3,0.6,0.5,0.8,0.6S59,82.8,59,82.7"/>
		<path class="st17" d="M43.6,89.5l-0.4-1.3c0.2,0,0.4,0,0.7,0.1c0.7,0.1,1.8,0.2,3.1,0.3c2.4,0.2,5.7,0.5,9.5,0.9L43.6,89.5
			L43.6,89.5z"/>
		<path class="st19" d="M56.5,89.4c-3.8-0.3-7.1-0.7-9.5-0.9c-1.3-0.1-2.4-0.2-3.1-0.3c-0.3,0-0.5-0.1-0.7-0.1l0,0l13.9,1.3
			C57.1,89.4,56.5,89.4,56.5,89.4z"/>
		<path class="st15" d="M53,37.4c0,1.2,1,2.2,2.2,2.2s2.2-1,2.2-2.2s-1-2.2-2.2-2.2S53,36.1,53,37.4"/>
		<path class="st7" d="M73.2,34.1c0,1.2,1,2.2,2.2,2.2s2.2-1,2.2-2.2s-1-2.2-2.2-2.2S73.2,32.9,73.2,34.1"/>
		<path class="st4" d="M53.3,33.9c0,0.7,0.3,1.3,0.6,1.3s0.6-0.6,0.6-1.3s-0.3-1.3-0.6-1.3S53.3,33.2,53.3,33.9"/>
		<path class="st4" d="M55.2,32.2c-0.1,0.2-0.2,0.4-0.4,0.6s-0.4,0.3-0.7,0.3h0c-0.1,0-0.2,0-0.3-0.2c0-0.1,0-0.2,0.2-0.3
			c0,0,0,0,0.1,0c0.4,0,0.8-0.2,1-0.5l0,0C55.1,32.2,55.2,32.1,55.2,32.2C55.2,32.2,55.2,32.2,55.2,32.2"/>
		<path class="st4" d="M48.3,34c0,0.7-0.3,1.3-0.6,1.3S47,34.7,47,34s0.3-1.3,0.6-1.3S48.3,33.2,48.3,34"/>
		<path class="st4" d="M46.4,32.3c0.1,0.2,0.2,0.4,0.4,0.6s0.4,0.3,0.7,0.3h0c0.1,0,0.2,0,0.3-0.2c0-0.1,0-0.2-0.2-0.3
			c0,0,0,0-0.1,0c-0.4,0-0.8-0.2-1-0.5l0,0C46.5,32.2,46.4,32.2,46.4,32.3C46.4,32.2,46.4,32.2,46.4,32.3"/>
		<path class="st4" d="M52.7,38.5c-0.2,0.4-0.6,0.8-1,1.1c-0.4,0.3-0.9,0.5-1.4,0.5s-1-0.2-1.4-0.5c-0.2-0.1-0.4-0.3-0.5-0.5
			c-0.2-0.2-0.3-0.4-0.4-0.6c0.2,0.1,0.4,0.3,0.6,0.5c0.2,0.1,0.4,0.3,0.6,0.4c0.4,0.2,0.8,0.3,1.3,0.4c0.4,0,0.9-0.1,1.3-0.3
			C52,39.1,52.4,38.8,52.7,38.5"/>
		<path class="st4" d="M52.6,29.2c0.3-0.3,0.6-0.4,1-0.4c0.3,0,0.7,0,1,0.1c0.3,0.1,0.7,0.3,0.9,0.5c0.3,0.2,0.5,0.5,0.6,0.8
			c0.1,0.1,0,0.3-0.1,0.4c-0.1,0.1-0.3,0-0.3,0l0,0c-0.2-0.2-0.4-0.4-0.6-0.5c-0.2-0.1-0.5-0.2-0.7-0.3c-0.2-0.1-0.5-0.1-0.8-0.1
			c-0.2,0-0.5,0-0.8,0l-0.1,0c-0.2,0-0.3-0.2-0.2-0.4C52.5,29.3,52.5,29.2,52.6,29.2"/>
		<path class="st20" d="M78.1,35.4c0,0,1.7,1,3.7,0C81.8,35.4,80.2,39.1,78.1,35.4"/>
		<path class="st4" d="M74.9,30c0,0.6,0.2,1.1,0.5,1.1S76,30.6,76,30s-0.2-1.1-0.5-1.1S74.9,29.4,74.9,30"/>
		<path class="st4" d="M81.2,29.7c0,0.6,0.2,1.1,0.5,1.1s0.5-0.5,0.5-1.1s-0.2-1.1-0.5-1.1S81.2,29.1,81.2,29.7"/>
		<path class="st4" d="M79.5,25.2c0.2-0.3,0.5-0.5,0.8-0.6c0.3-0.1,0.7-0.1,1-0.1c0.3,0,0.7,0.1,1,0.3c0.3,0.1,0.6,0.4,0.8,0.6
			c0.1,0.1,0.1,0.3,0,0.4c-0.1,0.1-0.2,0.1-0.3,0l0,0c-0.2-0.1-0.5-0.2-0.7-0.3c-0.2-0.1-0.5-0.1-0.7-0.1c-0.2,0-0.5,0-0.7,0.1
			s-0.5,0.1-0.8,0.1h-0.1c-0.2,0-0.3-0.1-0.3-0.3C79.5,25.3,79.5,25.3,79.5,25.2"/>
		<path class="st4" d="M76.6,25.4c-0.3-0.3-0.6-0.4-0.9-0.5c-0.3,0-0.7,0-1,0c-0.3,0.1-0.7,0.2-0.9,0.4c-0.3,0.2-0.5,0.4-0.7,0.7
			c-0.1,0.1-0.1,0.3,0.1,0.4c0.1,0.1,0.2,0.1,0.3,0l0,0c0.2-0.2,0.4-0.3,0.7-0.4c0.2-0.1,0.5-0.2,0.7-0.2c0.2,0,0.5,0,0.7,0
			c0.2,0,0.5,0.1,0.8,0h0.1c0.2,0,0.3-0.2,0.3-0.4C76.7,25.5,76.7,25.5,76.6,25.4"/>
	</g>
</g>
</svg>
