<?xml version="1.0" encoding="UTF-8"?>
<!DOCTYPE svg PUBLIC "-//W3C//DTD SVG 1.1//EN" "http://www.w3.org/Graphics/SVG/1.1/DTD/svg11.dtd">
<!-- Creator: CorelDRAW X5 -->
<svg xmlns="http://www.w3.org/2000/svg" xml:space="preserve" width="30px" height="30px" style="shape-rendering:geometricPrecision; text-rendering:geometricPrecision; image-rendering:optimizeQuality; fill-rule:evenodd; clip-rule:evenodd"
viewBox="0 0 30 30"
 xmlns:xlink="http://www.w3.org/1999/xlink">
 <defs>
  <style type="text/css">
   <![CDATA[
    .fil2 {fill:none}
    .fil0 {fill:#DDC9A3}
    .fil1 {fill:white}
   ]]>
  </style>
   <clipPath id="id0">
    <path d="M15 2.49921c6.90472,0 12.5008,5.59606 12.5008,12.5008 0,6.90472 -5.59606,12.5008 -12.5008,12.5008 -6.90472,0 -12.5008,-5.59606 -12.5008,-12.5008 0,-6.90472 5.59606,-12.5008 12.5008,-12.5008z"/>
   </clipPath>
 </defs>
 <g id="Capa_x0020_1">
  <metadata id="CorelCorpID_0Corel-Layer"/>
  <path class="fil0" d="M15 2.49921c6.90472,0 12.5008,5.59606 12.5008,12.5008 0,6.90472 -5.59606,12.5008 -12.5008,12.5008 -6.90472,0 -12.5008,-5.59606 -12.5008,-12.5008 0,-6.90472 5.59606,-12.5008 12.5008,-12.5008z"/>
  <g style="clip-path:url(#id0)">
   <g id="_626310264">
    <g>
     <g>
      <path id="_6263106481" class="fil1" d="M13.9004 7.93228c-1.0063,0.401575 -1.22717,0.259843 -2.30433,1.07835 -2.88661,2.19685 -1.61811,5.10827 -2.59252,7.4811 -0.405118,0.987402 -0.753543,1.37362 -1.31929,2.05984 -0.897638,1.08898 -0.0968504,1.90394 0.655512,1.9689 0.794882,0.0685039 13.0819,0.0448819 13.4362,-0.0165354 0.403937,-0.0708661 0.797244,-0.400394 0.896457,-0.799606 0.152362,-0.61063 -0.155906,-0.909449 -0.427559,-1.24252 -2.81575,-3.45472 -0.979134,-4.99961 -2.35748,-7.63937 -1.01575,-1.94528 -2.22874,-2.28307 -3.79606,-2.89606 0,-0.98622 -0.0874016,-1.75039 -1.13268,-1.72677 -0.985039,0.0224409 -1.05827,0.785433 -1.05827,1.73268z"/>
      <path id="_626310696" class="fil1" d="M12.7972 21.6307c0.114567,2.88307 4.28031,2.89961 4.36535,0l-4.36535 0z"/>
     </g>
    </g>
   </g>
  </g>
  <path class="fil2" d="M15 2.49921c6.90472,0 12.5008,5.59606 12.5008,12.5008 0,6.90472 -5.59606,12.5008 -12.5008,12.5008 -6.90472,0 -12.5008,-5.59606 -12.5008,-12.5008 0,-6.90472 5.59606,-12.5008 12.5008,-12.5008z"/>
 </g>
</svg>
