<?xml version="1.0" encoding="UTF-8"?>
<!DOCTYPE svg PUBLIC "-//W3C//DTD SVG 1.1//EN" "http://www.w3.org/Graphics/SVG/1.1/DTD/svg11.dtd">
<!-- Creator: CorelDRAW Home & Student X8 -->
<svg xmlns="http://www.w3.org/2000/svg" xml:space="preserve" width="32px" height="32px" version="1.1" style="shape-rendering:geometricPrecision; text-rendering:geometricPrecision; image-rendering:optimizeQuality; fill-rule:evenodd; clip-rule:evenodd"
viewBox="0 0 3200000 3200000"
 xmlns:xlink="http://www.w3.org/1999/xlink">
 <defs>
  <style type="text/css">
   <![CDATA[
    .str0 {stroke:white;stroke-width:90004.4;stroke-linecap:round;stroke-linejoin:round}
    .fil3 {fill:none}
    .fil2 {fill:none;fill-rule:nonzero}
    .fil1 {fill:white}
    .fil0 {fill:#9F2241;fill-rule:nonzero}
   ]]>
  </style>
   <clipPath id="id0">
    <path d="M566957 99926l2066204 0c256784,0 466913,210247 466913,467031l0 2066204c0,256784 -210129,466913 -466913,466913l-2066204 0c-256784,0 -467031,-210129 -467031,-466913l0 -2066204c0,-256784 210247,-467031 467031,-467031z"/>
   </clipPath>
    <clipPath id="id1" style="clip-rule:nonzero">
     <path d="M2440986 2586978l-1681972 0c-93430,0 -177292,-48310 -224066,-129337 -23387,-40514 -34963,-84926 -34963,-129337 0,-44412 11576,-88824 34963,-129338l840986 -1456607c46774,-81027 130518,-129337 224066,-129337 93548,0 177292,48310 224066,129337l840986 1456607c23151,40278 34845,84335 34963,128629l0 1417c-118,44176 -11812,88351 -34963,128629 -46774,81027 -130636,129337 -224066,129337z"/>
    </clipPath>
    <clipPath id="id2" style="clip-rule:nonzero">
     <path d="M566957 99926l2066204 0c256784,0 466913,210247 466913,467031l0 2066204c0,256784 -210129,466913 -466913,466913l-2066204 0c-256784,0 -467031,-210129 -467031,-466913l0 -2066204c0,-256784 210247,-467031 467031,-467031z"/>
    </clipPath>
 </defs>
 <g id="Capa_x0020_1">
  <metadata id="CorelCorpID_0Corel-Layer"/>
  <g>
  </g>
  <g style="clip-path:url(#id0)">
   <g>
    <path class="fil0" d="M2440986 2586978l-1681972 0c-93430,0 -177292,-48310 -224066,-129337 -23387,-40514 -34963,-84926 -34963,-129337 0,-44412 11576,-88824 34963,-129338l840986 -1456607c46774,-81027 130518,-129337 224066,-129337 93548,0 177292,48310 224066,129337l840986 1456607c23151,40278 34845,84335 34963,128629l0 1417c-118,44176 -11812,88351 -34963,128629 -46774,81027 -130636,129337 -224066,129337z"/>
   </g>
   <g style="clip-path:url(#id1)">
    <g id="_732140736">
     <path id="1" class="fil1 str0" d="M1488971 1256282l222058 0c17954,0 34726,15119 32718,32837l-65790 578768c-2008,17599 -15119,32836 -32837,32836l-90358 0c-17600,0 -30829,-14764 -32837,-32836l-65790 -578768c-1890,-18072 14764,-32837 32836,-32837zm111029 1023830c-54451,0 -98745,-44293 -98745,-98745 0,-54333 44294,-98627 98745,-98627 54451,0 98745,44294 98745,98627 0,54452 -44294,98745 -98745,98745z"/>
    </g>
   </g>
   <g style="clip-path:url(#id2)">
    <path class="fil2" d="M2440986 2586978l-1681972 0c-93430,0 -177292,-48310 -224066,-129337 -23387,-40514 -34963,-84926 -34963,-129337 0,-44412 11576,-88824 34963,-129338l840986 -1456607c46774,-81027 130518,-129337 224066,-129337 93548,0 177292,48310 224066,129337l840986 1456607c23151,40278 34845,84335 34963,128629l0 1417c-118,44176 -11812,88351 -34963,128629 -46774,81027 -130636,129337 -224066,129337z"/>
   </g>
  </g>
  <path class="fil3" d="M566957 99926l2066204 0c256784,0 466913,210247 466913,467031l0 2066204c0,256784 -210129,466913 -466913,466913l-2066204 0c-256784,0 -467031,-210129 -467031,-466913l0 -2066204c0,-256784 210247,-467031 467031,-467031z"/>
 </g>
</svg>
