<?xml version="1.0" encoding="UTF-8"?>
<!DOCTYPE svg PUBLIC "-//W3C//DTD SVG 1.1//EN" "http://www.w3.org/Graphics/SVG/1.1/DTD/svg11.dtd">
<!-- Creator: CorelDRAW Home & Student X8 -->
<svg xmlns="http://www.w3.org/2000/svg" xml:space="preserve" width="160px" height="50px" version="1.1" style="shape-rendering:geometricPrecision; text-rendering:geometricPrecision; image-rendering:optimizeQuality; fill-rule:evenodd; clip-rule:evenodd"
viewBox="0 0 16000000 4999867"
 xmlns:xlink="http://www.w3.org/1999/xlink">
 <defs>
  <style type="text/css">
   <![CDATA[
    .fil0 {fill:#BC955C;fill-rule:nonzero}
   ]]>
  </style>
 </defs>
 <g id="Capa_x0020_1">
  <metadata id="CorelCorpID_0Corel-Layer"/>
  <g id="_758774464">
   <path class="fil0" d="M7690313 671342l620318 0 0 264332 -620318 0c-84685,0 -161811,34843 -217678,90709 -55984,55985 -90709,133111 -90709,217796l0 2511509c0,84685 34725,161812 90709,217796 55867,55867 132993,90709 217678,90709l620318 0 0 264332 -620318 0c-157678,0 -300946,-64370 -404647,-168071 -103820,-103820 -168190,-247088 -168190,-404766l0 -2511509c0,-157678 64370,-300946 168190,-404765 103701,-103702 246969,-168072 404647,-168072zm1696780 1620480c-396143,19016 -905555,-3425 -1325912,1536 -324922,4016 -325395,409372 0,413269 420475,5079 929533,-17362 1325912,1536 -42519,60000 -366616,357403 -450829,443624 -225827,230907 70631,522050 301065,300002l675358 -673941c242717,-241891 252402,-304135 6968,-548861l-682326 -680790c-230080,-221694 -520751,67913 -307915,293151 73937,78307 152245,147992 230434,224056 62599,60709 183544,164764 227245,226418z"/>
   <path class="fil0" d="M1234140 2931629c0,157205 -56929,280749 -169843,371340 -113032,90709 -270710,135709 -472207,135709 -185671,0 -350317,-34842 -492877,-104764l0 -342994c117402,52441 216970,89410 298230,110906 81260,21615 155670,32126 223111,32126 81260,0 143387,-15472 186497,-46299 43465,-30945 64961,-77244 64961,-138190 0,-34134 -9331,-64606 -28346,-91063 -19134,-26811 -47245,-52323 -84213,-76772 -36969,-24803 -112088,-64134 -225474,-117875 -106418,-50315 -186497,-98268 -239765,-144213 -53268,-45945 -95433,-99567 -127205,-160867 -32126,-60945 -47953,-132520 -47953,-214253 0,-154017 52441,-275080 156851,-363191 104410,-88229 248741,-132166 432758,-132166 90709,0 176812,10630 259253,32126 82087,21615 167836,51615 257718,90591l-119056 286892c-93071,-38150 -169961,-64607 -230434,-79607 -60945,-15000 -120709,-22796 -179174,-22796 -69922,0 -123544,16300 -160985,48780 -37323,32599 -56103,75237 -56103,127678 0,32481 7796,60945 22796,84922 15000,24331 38976,47480 71929,70276 32953,22795 110906,63425 234096,121890 162875,78071 274253,156024 334844,234096 60118,78425 90591,173859 90591,287718z"/>
   <path id="1" class="fil0" d="M2365878 3414348l-70276 -180828 -9449 0c-61300,77244 -124253,130867 -188859,160512 -64607,29646 -148820,44646 -252757,44646 -128032,0 -228427,-36496 -302010,-109725 -73465,-73110 -110079,-177166 -110079,-312048 0,-141379 49607,-245789 148347,-312876 98741,-67087 247797,-104410 446932,-111378l230906 -7323 0 -58465c0,-134883 -69095,-202324 -207284,-202324 -106064,0 -231261,32008 -374648,96260l-120355 -244607c153190,-80079 323151,-119883 509648,-119883 178348,0 315356,38977 410436,116576 95433,77599 143032,195946 143032,354805l0 886658 -253584 0zm-107245 -616893l-140197 4960c-105710,3189 -184489,21851 -236104,57284 -51614,34961 -77244,88111 -77244,159686 0,102402 58937,153544 176339,153544 84095,0 151182,-24331 201615,-72756 50315,-48308 75591,-112914 75591,-192993l0 -109725z"/>
   <polygon id="2" class="fil0" points="3356119,3414348 2993282,3414348 2993282,1561307 3356119,1561307 "/>
   <path id="3" class="fil0" d="M3721908 1738473c0,-118229 65788,-177166 197481,-177166 131694,0 197482,58937 197482,177166 0,56575 -16300,100394 -49134,131694 -32953,31299 -82560,47126 -148348,47126 -131693,0 -197481,-59764 -197481,-178820zm378309 1675875l-362836 0 0 -1331228 362836 0 0 1331228z"/>
   <path id="4" class="fil0" d="M5223923 2058672c49253,0 90237,3661 122717,10630l-27165 340513c-29646,-7677 -65079,-11811 -107245,-11811 -115866,0 -206103,29646 -270710,89410 -64606,59410 -97087,142678 -97087,249922l0 677012 -362954 0 0 -1331228 275080 0 53386 224293 17835 0c41457,-74410 97087,-134528 167363,-180473 69921,-45473 146339,-68268 228780,-68268z"/>
  </g>
 </g>
</svg>
