<?xml version="1.0" encoding="UTF-8"?>
<!DOCTYPE svg PUBLIC "-//W3C//DTD SVG 1.1//EN" "http://www.w3.org/Graphics/SVG/1.1/DTD/svg11.dtd">
<!-- Creator: CorelDRAW Home & Student X8 -->
<svg xmlns="http://www.w3.org/2000/svg" xml:space="preserve" width="32px" height="32px" version="1.1" style="shape-rendering:geometricPrecision; text-rendering:geometricPrecision; image-rendering:optimizeQuality; fill-rule:evenodd; clip-rule:evenodd"
viewBox="0 0 3200000 3200000"
 xmlns:xlink="http://www.w3.org/1999/xlink">
 <defs>
  <style type="text/css">
   <![CDATA[
    .fil0 {fill:#DDC9A3;fill-rule:nonzero}
   ]]>
  </style>
 </defs>
 <g id="Capa_x0020_1">
  <metadata id="CorelCorpID_0Corel-Layer"/>
  <path class="fil0" d="M99926 851853l0 28702 216861 0 0 -28702c0,-69452 28466,-132644 74413,-178592 45947,-45829 109140,-74413 178592,-74413l2060416 0c69452,0 132645,28584 178592,74413 45947,45948 74413,109140 74413,178592l0 28702 216861 0 0 -28702c0,-129337 -52798,-246863 -137960,-331906 -85043,-85162 -202569,-137960 -331906,-137960l-2060416 0c-129337,0 -246863,52798 -331906,137960 -85162,85043 -137960,202569 -137960,331906zm1329396 678459c15592,324819 -2834,742713 1181,1087494 3308,266588 335804,267060 339112,0 4134,-344781 -14292,-762439 1299,-1087494 49018,34726 293046,300605 363797,369703 189458,185324 428289,-57877 246154,-246981l-552901 -553964c-198435,-199026 -249461,-207058 -450258,-5670l-558453 559634c-181781,188868 55633,427226 240484,252650 64255,-60711 121423,-124966 183789,-189103 49845,-51263 135243,-150480 185796,-186269z"/>
 </g>
</svg>
